<svg id="ece3d3e6-3186-4377-b4c8-38aaa06fa041" data-name="Layer 1" xmlns="http://www.w3.org/2000/svg" width="5.88in" height="4.54in" viewBox="0 0 423.13 327.14"><title>07053-005</title><line x1="186.7" y1="5.41" x2="186.7" y2="290.67" fill="none" stroke="#b3b3b3" stroke-linecap="square" stroke-linejoin="bevel" stroke-width="1.5"/><path d="M136.77,7.08V292.34M149.25,7.08V292.34m9-285.26V292.34m7-285.26V292.34M170.9,7.08V292.34M175.58,7.08V292.34M179.87,7.08V292.34M183.58,7.08V292.34" transform="translate(0 -1.67)" fill="none" stroke="#b3b3b3" stroke-linecap="square" stroke-linejoin="bevel"/><line x1="258.32" y1="5.41" x2="258.32" y2="290.67" fill="none" stroke="#b3b3b3" stroke-linecap="square" stroke-linejoin="bevel" stroke-width="1.5"/><path d="M208.14,7.08V292.34M220.68,7.08V292.34m9-285.26V292.34M236.76,7.08V292.34M242.44,7.08V292.34m4.7-285.26V292.34M251.46,7.08V292.34M255.19,7.08V292.34" transform="translate(0 -1.67)" fill="none" stroke="#b3b3b3" stroke-linecap="square" stroke-linejoin="bevel"/><line x1="114.6" y1="5.41" x2="114.61" y2="290.67" fill="none" stroke="#b3b3b3" stroke-linecap="square" stroke-linejoin="bevel" stroke-width="1.5"/><path d="M64.67,7.08V292.34M77.16,7.08V292.34m9-285.26V292.34m7-285.26V292.34M98.8,7.08V292.34M103.49,7.08V292.34M107.78,7.08V292.34m3.7-285.26V292.34" transform="translate(0 -1.67)" fill="none" stroke="#b3b3b3" stroke-linecap="square" stroke-linejoin="bevel"/><line x1="329.48" y1="5.41" x2="329.48" y2="290.67" fill="none" stroke="#b3b3b3" stroke-linecap="square" stroke-linejoin="bevel" stroke-width="1.5"/><path d="M279.29,7.08V292.34M291.84,7.08V292.34m9-285.26V292.34M307.91,7.08V292.34M313.6,7.08V292.34M318.3,7.08V292.34M322.62,7.08V292.34M326.34,7.08V292.34" transform="translate(0 -1.67)" fill="none" stroke="#b3b3b3" stroke-linecap="square" stroke-linejoin="bevel"/><line x1="351.07" y1="5.41" x2="351.08" y2="290.67" fill="none" stroke="#b3b3b3" stroke-linecap="square" stroke-linejoin="bevel"/><line x1="363.62" y1="5.41" x2="363.62" y2="290.67" fill="none" stroke="#b3b3b3" stroke-linecap="square" stroke-linejoin="bevel"/><line x1="372.64" y1="5.41" x2="372.64" y2="290.67" fill="none" stroke="#b3b3b3" stroke-linecap="square" stroke-linejoin="bevel"/><line x1="379.69" y1="5.41" x2="379.7" y2="290.67" fill="none" stroke="#b3b3b3" stroke-linecap="square" stroke-linejoin="bevel"/><line x1="385.38" y1="5.41" x2="385.38" y2="290.67" fill="none" stroke="#b3b3b3" stroke-linecap="square" stroke-linejoin="bevel"/><line x1="390.08" y1="5.41" x2="390.08" y2="290.67" fill="none" stroke="#b3b3b3" stroke-linecap="square" stroke-linejoin="bevel"/><line x1="394.4" y1="5.41" x2="394.4" y2="290.67" fill="none" stroke="#b3b3b3" stroke-linecap="square" stroke-linejoin="bevel"/><line x1="398.12" y1="5.41" x2="398.12" y2="290.67" fill="none" stroke="#b3b3b3" stroke-linecap="square" stroke-linejoin="bevel"/><path d="M22.68,10.3H21V4.09A5.69,5.69,0,0,1,18.9,5.34V3.84A4.75,4.75,0,0,0,20.3,3a3.09,3.09,0,0,0,1-1.37h1.34Z" transform="translate(0 -1.67)"/><path d="M27.92,1.67a2.36,2.36,0,0,1,1.95.89,5.67,5.67,0,0,1,.84,3.5,5.69,5.69,0,0,1-.84,3.5,2.33,2.33,0,0,1-1.95.88,2.45,2.45,0,0,1-2-1A5.71,5.71,0,0,1,25.13,6,5.68,5.68,0,0,1,26,2.55,2.35,2.35,0,0,1,27.92,1.67Zm0,1.37a.78.78,0,0,0-.53.19,1.27,1.27,0,0,0-.36.68,9.62,9.62,0,0,0-.17,2.15A9.52,9.52,0,0,0,27,8.14a1.44,1.44,0,0,0,.38.75.84.84,0,0,0,.53.19.78.78,0,0,0,.53-.19,1.27,1.27,0,0,0,.36-.68A9.56,9.56,0,0,0,29,6.06,9.52,9.52,0,0,0,28.83,4a1.52,1.52,0,0,0-.38-.76A.78.78,0,0,0,27.92,3Z" transform="translate(0 -1.67)"/><path d="M34.59,1.67a2.36,2.36,0,0,1,1.95.89,5.67,5.67,0,0,1,.84,3.5,5.69,5.69,0,0,1-.84,3.5,2.33,2.33,0,0,1-1.95.88,2.45,2.45,0,0,1-2-1A5.71,5.71,0,0,1,31.8,6a5.68,5.68,0,0,1,.84-3.49A2.35,2.35,0,0,1,34.59,1.67Zm0,1.37a.78.78,0,0,0-.53.19,1.27,1.27,0,0,0-.36.68,9.62,9.62,0,0,0-.17,2.15,9.52,9.52,0,0,0,.15,2.08,1.44,1.44,0,0,0,.38.75.84.84,0,0,0,.53.19.78.78,0,0,0,.53-.19,1.27,1.27,0,0,0,.36-.68,9.56,9.56,0,0,0,.17-2.15A9.52,9.52,0,0,0,35.5,4a1.52,1.52,0,0,0-.38-.76A.78.78,0,0,0,34.59,3Z" transform="translate(0 -1.67)"/><path d="M29.35,106H27.7V99.75A5.69,5.69,0,0,1,25.57,101V99.51a4.75,4.75,0,0,0,1.4-.8,3.09,3.09,0,0,0,1-1.37h1.34Z" transform="translate(0 -1.67)"/><path d="M34.59,97.34a2.36,2.36,0,0,1,1.95.89,7.71,7.71,0,0,1,0,7,2.33,2.33,0,0,1-1.95.88,2.45,2.45,0,0,1-2-1,5.71,5.71,0,0,1-.77-3.44,5.68,5.68,0,0,1,.84-3.49A2.35,2.35,0,0,1,34.59,97.34Zm0,1.36a.78.78,0,0,0-.53.19,1.27,1.27,0,0,0-.36.68,14.07,14.07,0,0,0,0,4.23,1.44,1.44,0,0,0,.38.75.84.84,0,0,0,.53.19.78.78,0,0,0,.53-.19,1.27,1.27,0,0,0,.36-.68,14.07,14.07,0,0,0,0-4.23,1.52,1.52,0,0,0-.38-.76A.78.78,0,0,0,34.59,98.7Z" transform="translate(0 -1.67)"/><path d="M36,201.63H34.37v-6.21a5.69,5.69,0,0,1-2.13,1.25v-1.49a4.75,4.75,0,0,0,1.4-.8,3.09,3.09,0,0,0,1-1.37H36Z" transform="translate(0 -1.67)"/><path d="M24.59,288.67a2.36,2.36,0,0,1,1.95.89,7.71,7.71,0,0,1,0,7,2.33,2.33,0,0,1-1.95.88,2.45,2.45,0,0,1-2-1,7.86,7.86,0,0,1,.07-6.93A2.34,2.34,0,0,1,24.59,288.67Zm0,1.36a.78.78,0,0,0-.53.19,1.27,1.27,0,0,0-.36.68,14.07,14.07,0,0,0,0,4.23,1.44,1.44,0,0,0,.38.75.84.84,0,0,0,.53.19.78.78,0,0,0,.53-.19,1.27,1.27,0,0,0,.36-.68,14.07,14.07,0,0,0,0-4.23,1.52,1.52,0,0,0-.38-.76A.78.78,0,0,0,24.59,290Z" transform="translate(0 -1.67)"/><path d="M28.83,297.29v-1.65h1.65v1.65Z" transform="translate(0 -1.67)"/><path d="M36,297.29H34.37v-6.21a5.69,5.69,0,0,1-2.13,1.25v-1.49a4.75,4.75,0,0,0,1.4-.8,3.09,3.09,0,0,0,1-1.37H36Z" transform="translate(0 -1.67)"/><path d="M37.94,299a2.36,2.36,0,0,1,2,.89,7.71,7.71,0,0,1,0,7,2.33,2.33,0,0,1-2,.88,2.45,2.45,0,0,1-2-1A7.86,7.86,0,0,1,36,299.9,2.35,2.35,0,0,1,37.94,299Zm0,1.36a.78.78,0,0,0-.53.19,1.27,1.27,0,0,0-.36.68,14.07,14.07,0,0,0,0,4.23,1.44,1.44,0,0,0,.38.75.84.84,0,0,0,.53.19.78.78,0,0,0,.53-.19,1.27,1.27,0,0,0,.36-.68,14.07,14.07,0,0,0,0-4.23,1.52,1.52,0,0,0-.38-.76A.78.78,0,0,0,37.94,300.38Z" transform="translate(0 -1.67)"/><path d="M42.18,307.64V306h1.65v1.65H42.18Z" transform="translate(0 -1.67)"/><path d="M49.38,307.64H47.73v-6.21a5.69,5.69,0,0,1-2.13,1.25v-1.49a4.75,4.75,0,0,0,1.4-.8A3.09,3.09,0,0,0,48,299h1.34Z" transform="translate(0 -1.67)"/><path d="M396.31,307.51h-1.65V301.3a5.69,5.69,0,0,1-2.13,1.25v-1.49a4.75,4.75,0,0,0,1.4-.8,3.09,3.09,0,0,0,1-1.37h1.34Z" transform="translate(0 -1.67)"/><path d="M401.56,298.89a2.36,2.36,0,0,1,1.95.89,7.71,7.71,0,0,1,0,7,2.33,2.33,0,0,1-1.95.88,2.45,2.45,0,0,1-2-1,7.86,7.86,0,0,1,.07-6.93A2.33,2.33,0,0,1,401.56,298.89Zm0,1.36a.78.78,0,0,0-.53.19,1.27,1.27,0,0,0-.36.68,14.07,14.07,0,0,0,0,4.23,1.44,1.44,0,0,0,.38.75.84.84,0,0,0,.53.19.78.78,0,0,0,.53-.19,1.27,1.27,0,0,0,.36-.68,14.07,14.07,0,0,0,0-4.23,1.52,1.52,0,0,0-.38-.76A.79.79,0,0,0,401.56,300.25Z" transform="translate(0 -1.67)"/><path d="M405.74,307.51v-8.59h1.65v4.56l1.93-2.19h2l-2.13,2.27,2.28,3.95h-1.78l-1.56-2.79-.77.8v2Z" transform="translate(0 -1.67)"/><path d="M116.27,307.51h-1.65V301.3a5.69,5.69,0,0,1-2.13,1.25v-1.49a4.75,4.75,0,0,0,1.4-.8,3.09,3.09,0,0,0,1-1.37h1.34Z" transform="translate(0 -1.67)"/><path d="M11,221.51l-8.59,3.07V222.7l6.36-2.17-6.36-2.1v-1.84L11,219.67Z" transform="translate(0 -1.67)"/><path d="M6.71,216.05a5.45,5.45,0,0,1-2.2-.39,4.1,4.1,0,0,1-1.18-.8,3.23,3.23,0,0,1-.77-1.11,4.66,4.66,0,0,1-.34-1.85,4,4,0,0,1,1.18-3,4.53,4.53,0,0,1,3.28-1.14,4.49,4.49,0,0,1,3.25,1.13,4,4,0,0,1,1.17,3,4.05,4.05,0,0,1-1.17,3A4.41,4.41,0,0,1,6.71,216.05Zm0-1.79a3.21,3.21,0,0,0,2.21-.67,2.2,2.2,0,0,0,.75-1.71,2.17,2.17,0,0,0-.75-1.7,3.31,3.31,0,0,0-2.24-.67,3.23,3.23,0,0,0-2.2.65,2.39,2.39,0,0,0,0,3.45A3.24,3.24,0,0,0,6.66,214.26Z" transform="translate(0 -1.67)"/><path d="M11,206.32H2.44v-1.73H9.51v-4.31H11Z" transform="translate(0 -1.67)"/><path d="M11,197.1H3.82v2.55H2.37v-6.83H3.82v2.54H11Z" transform="translate(0 -1.67)"/><path d="M11,184v1.89l-2,.74V190l1.95.71v1.84l-8.59-3.35v-1.83Zm-3.4,3.19-3.19,1.18,3.19,1.16Z" transform="translate(0 -1.67)"/><path d="M7.8,179H6.35V175.3H9.77a4.74,4.74,0,0,1,.93,1.58,5.7,5.7,0,0,1,.4,2.09,4.67,4.67,0,0,1-.57,2.35,3.64,3.64,0,0,1-1.62,1.51,5.15,5.15,0,0,1-2.29.5,5,5,0,0,1-2.38-.56,3.76,3.76,0,0,1-1.6-1.65,4.39,4.39,0,0,1-.43-2.06,4.08,4.08,0,0,1,.67-2.5,3,3,0,0,1,1.85-1.16l.32,1.72a1.86,1.86,0,0,0-1,.68,2,2,0,0,0-.37,1.25,2.36,2.36,0,0,0,.72,1.81,3,3,0,0,0,2.14.67,3.37,3.37,0,0,0,2.29-.68,2.26,2.26,0,0,0,.76-1.78A3,3,0,0,0,9.38,178a3.82,3.82,0,0,0-.52-.94H7.8Z" transform="translate(0 -1.67)"/><path d="M11,173.7H2.37v-6.37H3.82V172h1.9v-4.31H7.17V172H9.51v-4.8H11Z" transform="translate(0 -1.67)"/><path d="M11,162.34H2.37v-1.69l5.74-3.52H2.37v-1.61H11v1.74l-5.6,3.46H11Z" transform="translate(0 -1.67)"/><path d="M6.71,154.05a5.45,5.45,0,0,1-2.2-.39,4.1,4.1,0,0,1-1.18-.8,3.23,3.23,0,0,1-.77-1.11,4.66,4.66,0,0,1-.34-1.85,4,4,0,0,1,1.18-3,4.53,4.53,0,0,1,3.28-1.14,4.49,4.49,0,0,1,3.25,1.13,4,4,0,0,1,1.17,3,4.05,4.05,0,0,1-1.17,3A4.41,4.41,0,0,1,6.71,154.05Zm0-1.79a3.21,3.21,0,0,0,2.21-.67,2.2,2.2,0,0,0,.75-1.71,2.17,2.17,0,0,0-.75-1.7,3.31,3.31,0,0,0-2.24-.67,3.23,3.23,0,0,0-2.2.65,2.39,2.39,0,0,0,0,3.45A3.24,3.24,0,0,0,6.66,152.26Z" transform="translate(0 -1.67)"/><path d="M11,144.41H2.37v-1.73H11Z" transform="translate(0 -1.67)"/><path d="M8.16,141.46,8,139.78a2.06,2.06,0,0,0,1.25-.62,1.85,1.85,0,0,0,.4-1.26,2,2,0,0,0-.35-1.26,1,1,0,0,0-.83-.42.78.78,0,0,0-.52.18,1.43,1.43,0,0,0-.37.62c-.07.2-.2.67-.38,1.39a4.7,4.7,0,0,1-.85,2,2.22,2.22,0,0,1-1.73.79,2.19,2.19,0,0,1-1.23-.37,2.38,2.38,0,0,1-.87-1.07,4.26,4.26,0,0,1-.3-1.69,3.61,3.61,0,0,1,.71-2.43,2.52,2.52,0,0,1,1.89-.86l.08,1.73A1.42,1.42,0,0,0,4,137a1.78,1.78,0,0,0-.29,1.1A2,2,0,0,0,4,139.23a.63.63,0,0,0,.53.28.66.66,0,0,0,.52-.26,4.48,4.48,0,0,0,.57-1.59,8.56,8.56,0,0,1,.62-1.87,2.42,2.42,0,0,1,.87-.95,2.56,2.56,0,0,1,1.37-.34,2.56,2.56,0,0,1,1.38.41,2.45,2.45,0,0,1,1,1.16,4.84,4.84,0,0,1,.31,1.87,3.71,3.71,0,0,1-.75,2.5A3.24,3.24,0,0,1,8.16,141.46Z" transform="translate(0 -1.67)"/><path d="M11,133H2.37v-6.37H3.82v4.64h1.9V127H7.17v4.31H9.51v-4.8H11Z" transform="translate(0 -1.67)"/><path d="M13.48,119v1.13a11.59,11.59,0,0,1-2.81,1.37,9,9,0,0,1-2.82.47,8.83,8.83,0,0,1-3.21-.58,11.17,11.17,0,0,1-2.42-1.28V119a17.1,17.1,0,0,0,3,1.1,11.37,11.37,0,0,0,4.61.12,12.84,12.84,0,0,0,1.92-.49A16.69,16.69,0,0,0,13.48,119Z" transform="translate(0 -1.67)"/><path d="M11,112v1.65H7.78a4.79,4.79,0,0,0-1.3.11.93.93,0,0,0-.46.34,1,1,0,0,0-.16.57,1.37,1.37,0,0,0,.23.77,1.17,1.17,0,0,0,.62.47,5.07,5.07,0,0,0,1.43.13H11v1.65H4.73v-1.53h.91a2.55,2.55,0,0,1-.85-3,1.65,1.65,0,0,1,.5-.68,1.82,1.82,0,0,1,.69-.32,5.23,5.23,0,0,1,1.11-.09H11Z" transform="translate(0 -1.67)"/><path d="M11,108.16l-8.59,3.07v-1.88l6.36-2.17-6.36-2.1v-1.84L11,106.32Z" transform="translate(0 -1.67)"/><path d="M11.1,103.24l-8.88-2.13V99.87L11.1,102Z" transform="translate(0 -1.67)"/><path d="M0,93.73V93.3l11.41,1.83L5.43,98,6,99.2l-.38.2L4.7,97.63l4.82-2.37Z" transform="translate(0 -1.67)"/><path d="M11,92.42H2.37V90.69H5.75v-3.4H2.37V85.56H11v1.73H7.2v3.4H11Z" transform="translate(0 -1.67)"/><path d="M11,84.43H9.67L7,82.1c-.44-.38-.75-.67-.93-.85,0,.19,0,.44,0,.76v2.2H4.73V79.06H5.9l2.74,2.38.91.84c0-.46,0-.74,0-.85V78.88H11Z" transform="translate(0 -1.67)"/><path d="M13.48,78.23c-.7-.32-1.23-.55-1.6-.69a10,10,0,0,0-1.28-.37,12.63,12.63,0,0,0-1.38-.25,11.76,11.76,0,0,0-1.34-.08,11.24,11.24,0,0,0-2.64.3,17.94,17.94,0,0,0-3,1.1V77.12a10.55,10.55,0,0,1,2.67-1.37,8.88,8.88,0,0,1,2.87-.49,9.73,9.73,0,0,1,2.62.39,11,11,0,0,1,3.1,1.45Z" transform="translate(0 -1.67)"/><path d="M185.73,307.64h-1.65v-6.21a5.69,5.69,0,0,1-2.13,1.25v-1.49a4.75,4.75,0,0,0,1.4-.8,3.09,3.09,0,0,0,1-1.37h1.34v8.62Z" transform="translate(0 -1.67)"/><path d="M191,299a2.36,2.36,0,0,1,1.95.89,7.71,7.71,0,0,1,0,7,2.33,2.33,0,0,1-1.95.88,2.45,2.45,0,0,1-2-1,7.86,7.86,0,0,1,.07-6.93A2.38,2.38,0,0,1,191,299Zm0,1.37a.78.78,0,0,0-.53.19,1.27,1.27,0,0,0-.36.68,14.07,14.07,0,0,0,0,4.23,1.44,1.44,0,0,0,.38.75.84.84,0,0,0,.53.19.78.78,0,0,0,.53-.19,1.27,1.27,0,0,0,.36-.68,14.07,14.07,0,0,0,0-4.23,1.52,1.52,0,0,0-.38-.76A.78.78,0,0,0,191,300.38Z" transform="translate(0 -1.67)"/><path d="M252.79,307.64h-1.65v-6.21a5.69,5.69,0,0,1-2.13,1.25v-1.49a4.75,4.75,0,0,0,1.4-.8,3.09,3.09,0,0,0,1-1.37h1.34v8.62Z" transform="translate(0 -1.67)"/><path d="M258,299a2.36,2.36,0,0,1,1.95.89,7.71,7.71,0,0,1,0,7,2.33,2.33,0,0,1-1.95.88,2.45,2.45,0,0,1-2-1,7.86,7.86,0,0,1,.07-6.93A2.38,2.38,0,0,1,258,299Zm0,1.37a.78.78,0,0,0-.53.19,1.27,1.27,0,0,0-.36.68,14.07,14.07,0,0,0,0,4.23,1.44,1.44,0,0,0,.38.75.84.84,0,0,0,.53.19.78.78,0,0,0,.53-.19,1.27,1.27,0,0,0,.36-.68,14.07,14.07,0,0,0,0-4.23,1.52,1.52,0,0,0-.38-.76A.78.78,0,0,0,258,300.38Z" transform="translate(0 -1.67)"/><path d="M264.71,299a2.36,2.36,0,0,1,2,.89,7.71,7.71,0,0,1,0,7,2.33,2.33,0,0,1-2,.88,2.45,2.45,0,0,1-2-1,7.86,7.86,0,0,1,.07-6.93A2.38,2.38,0,0,1,264.71,299Zm0,1.37a.78.78,0,0,0-.53.19,1.27,1.27,0,0,0-.36.68,14.07,14.07,0,0,0,0,4.23,1.44,1.44,0,0,0,.38.75.84.84,0,0,0,.53.19.78.78,0,0,0,.53-.19,1.27,1.27,0,0,0,.36-.68,14.07,14.07,0,0,0,0-4.23,1.52,1.52,0,0,0-.38-.76A.78.78,0,0,0,264.71,300.38Z" transform="translate(0 -1.67)"/><path d="M327.38,307.51h-1.65V301.3a5.69,5.69,0,0,1-2.13,1.25v-1.49a4.75,4.75,0,0,0,1.4-.8,3.09,3.09,0,0,0,1-1.37h1.34Z" transform="translate(0 -1.67)"/><path d="M330.13,307.51v-8.59h1.65v4.56l1.93-2.19h2l-2.13,2.27,2.28,3.95h-1.78l-1.56-2.79-.77.8v2Z" transform="translate(0 -1.67)"/><path d="M164.9,326.29V317.7h5.89v1.45h-4.15v2h3.59v1.45h-3.59v3.65H164.9Z" transform="translate(0 -1.67)"/><path d="M172.23,326.29V317.7h3.65a6.39,6.39,0,0,1,2,.23,2,2,0,0,1,1,.82,2.47,2.47,0,0,1,.38,1.35,2.31,2.31,0,0,1-.57,1.6,2.69,2.69,0,0,1-1.7.79,4.16,4.16,0,0,1,.93.72,10,10,0,0,1,1,1.39l1.05,1.68h-2.07l-1.25-1.87a12.9,12.9,0,0,0-.91-1.26,1.44,1.44,0,0,0-.52-.36,2.63,2.63,0,0,0-.87-.1H174v3.59h-1.76Zm1.73-5h1.28a6.59,6.59,0,0,0,1.56-.11,1,1,0,0,0,.49-.36,1.1,1.1,0,0,0,.18-.64,1,1,0,0,0-.88-1c-.14,0-.56,0-1.27,0H174v2.18Z" transform="translate(0 -1.67)"/><path d="M180.89,326.29V317.7h6.37v1.45h-4.63v1.9h4.31v1.45h-4.31v2.34h4.8v1.45Z" transform="translate(0 -1.67)"/><path d="M195.81,325.2a6,6,0,0,0,1.39.73l-.64,1.22a4.64,4.64,0,0,1-.77-.32s-.44-.28-1.15-.76a4.56,4.56,0,0,1-1.87.37,4.09,4.09,0,0,1-3.1-1.17,5.35,5.35,0,0,1,0-6.55,4.53,4.53,0,0,1,6.08,0,4.52,4.52,0,0,1,1.12,3.27,5.6,5.6,0,0,1-.31,2A4.2,4.2,0,0,1,195.81,325.2Zm-1.4-1a2.61,2.61,0,0,0,.5-1,4.51,4.51,0,0,0,.17-1.28,3.24,3.24,0,0,0-.66-2.22,2.37,2.37,0,0,0-3.44,0,3.24,3.24,0,0,0-.66,2.22,3.3,3.3,0,0,0,.66,2.25,2.17,2.17,0,0,0,1.67.75,2.08,2.08,0,0,0,.71-.12,5.12,5.12,0,0,0-1.07-.54l.49-1A6,6,0,0,1,194.41,324.22Z" transform="translate(0 -1.67)"/><path d="M198.21,317.7h1.73v4.65a10.44,10.44,0,0,0,.06,1.44,1.4,1.4,0,0,0,.53.85,1.81,1.81,0,0,0,1.15.32,1.75,1.75,0,0,0,1.11-.3,1.19,1.19,0,0,0,.45-.74,9.62,9.62,0,0,0,.08-1.46v-4.75h1.73v4.51a12,12,0,0,1-.14,2.19,2.37,2.37,0,0,1-.52,1.08,2.61,2.61,0,0,1-1,.7,4.45,4.45,0,0,1-1.65.26,4.8,4.8,0,0,1-1.87-.28,2.59,2.59,0,0,1-1-.74,2.47,2.47,0,0,1-.49-.95,10.66,10.66,0,0,1-.17-2.18v-4.6Z" transform="translate(0 -1.67)"/><path d="M206.89,326.29V317.7h6.37v1.45h-4.63v1.9h4.31v1.45h-4.31v2.34h4.8v1.45Z" transform="translate(0 -1.67)"/><path d="M214.91,326.29V317.7h1.69l3.52,5.74V317.7h1.61v8.59H220l-3.46-5.6v5.6Z" transform="translate(0 -1.67)"/><path d="M229.06,323.13l1.68.53a3.8,3.8,0,0,1-1.29,2.09,3.63,3.63,0,0,1-2.28.68,3.68,3.68,0,0,1-2.81-1.17,4.49,4.49,0,0,1-1.1-3.2,4.68,4.68,0,0,1,1.11-3.33,3.81,3.81,0,0,1,2.91-1.19,3.58,3.58,0,0,1,2.56.93,3.43,3.43,0,0,1,.88,1.58l-1.72.41a1.73,1.73,0,0,0-.64-1,1.87,1.87,0,0,0-1.17-.39,2,2,0,0,0-1.55.69,3.35,3.35,0,0,0-.59,2.22,3.59,3.59,0,0,0,.59,2.32,1.9,1.9,0,0,0,1.52.69,1.75,1.75,0,0,0,1.19-.44A2.54,2.54,0,0,0,229.06,323.13Z" transform="translate(0 -1.67)"/><path d="M234.48,326.29v-3.62l-3.15-5h2l2,3.4,2-3.4h2l-3.16,5v3.6h-1.72Z" transform="translate(0 -1.67)"/><path d="M246.28,328.81h-1.13a11.59,11.59,0,0,1-1.37-2.81,9,9,0,0,1-.47-2.82,8.83,8.83,0,0,1,.58-3.21,11.17,11.17,0,0,1,1.28-2.42h1.12a17.1,17.1,0,0,0-1.1,3,11.37,11.37,0,0,0-.12,4.61,12.84,12.84,0,0,0,.49,1.92Q245.77,327.7,246.28,328.81Z" transform="translate(0 -1.67)"/><path d="M247.57,326.29V317.7h1.73v3.38h3.4V317.7h1.73v8.59H252.7v-3.76h-3.4v3.76Z" transform="translate(0 -1.67)"/><path d="M255.55,326.29V325l2.33-2.68c.38-.44.67-.75.85-.93l-.76,0h-2.2v-1.37h5.14v1.17L258.53,324l-.84.91.85,0h2.55v1.45Z" transform="translate(0 -1.67)"/><path d="M261.76,328.81c.32-.7.55-1.23.69-1.6a10,10,0,0,0,.37-1.28,12.63,12.63,0,0,0,.25-1.38,11.76,11.76,0,0,0,.08-1.34,11.24,11.24,0,0,0-.3-2.64,17.94,17.94,0,0,0-1.1-3h1.12a10.55,10.55,0,0,1,1.37,2.67,8.88,8.88,0,0,1,.49,2.87,9.73,9.73,0,0,1-.39,2.62,11,11,0,0,1-1.45,3.1Z" transform="translate(0 -1.67)"/><path d="M420.19,326.48a5.16,5.16,0,0,1-1.63-.21,2.14,2.14,0,0,1-1-.62,1.55,1.55,0,0,1-.34-1,1.62,1.62,0,0,1,.19-.81,1.55,1.55,0,0,1,.54-.57,3.15,3.15,0,0,1,.85-.36,5.43,5.43,0,0,1,1.35-.13,5.25,5.25,0,0,1,1.63.21,2,2,0,0,1,1,.62,1.74,1.74,0,0,1-.25,2.34A3.83,3.83,0,0,1,420.19,326.48Zm0-.73a3.6,3.6,0,0,0,1.88-.33.93.93,0,0,0,0-1.62,5.52,5.52,0,0,0-3.76,0,1,1,0,0,0-.46.82.9.9,0,0,0,.41.77A3.6,3.6,0,0,0,420.19,325.75Z" transform="translate(0 -1.67)"/><path d="M418,322h-.68v-3.71h.55a7.56,7.56,0,0,0,1.55,1.08,10.27,10.27,0,0,0,2,.83,7.45,7.45,0,0,0,1.57.27v.72a7,7,0,0,1-1.63-.27,8.79,8.79,0,0,1-1.85-.73,7.83,7.83,0,0,1-1.5-1V322Z" transform="translate(0 -1.67)"/><path d="M420.19,317.58a5.16,5.16,0,0,1-1.63-.21,2.14,2.14,0,0,1-1-.62,1.55,1.55,0,0,1-.34-1,1.62,1.62,0,0,1,.19-.81,1.55,1.55,0,0,1,.54-.57,3.15,3.15,0,0,1,.85-.36,5.43,5.43,0,0,1,1.35-.13,5.25,5.25,0,0,1,1.63.21,2,2,0,0,1,1,.62,1.74,1.74,0,0,1-.25,2.34A3.83,3.83,0,0,1,420.19,317.58Zm0-.73a3.6,3.6,0,0,0,1.88-.33.93.93,0,0,0,0-1.62,5.52,5.52,0,0,0-3.76,0,1,1,0,0,0-.46.82.9.9,0,0,0,.41.77A3.6,3.6,0,0,0,420.19,316.85Z" transform="translate(0 -1.67)"/><path d="M421.51,313.13l-.06-.74a1.29,1.29,0,0,0,.81-.38,1,1,0,0,0,.27-.72,1.15,1.15,0,0,0-.38-.86,1.41,1.41,0,0,0-1-.35,1.29,1.29,0,0,0-.95.34,1.19,1.19,0,0,0-.35.88,1.23,1.23,0,0,0,.15.61,1.19,1.19,0,0,0,.4.43l-.08.66-2.94-.55V309.6H418v2.29l1.54.31a1.84,1.84,0,0,1-.36-1.08,1.72,1.72,0,0,1,.52-1.27,1.8,1.8,0,0,1,1.34-.52,2.07,2.07,0,0,1,1.34.45,1.83,1.83,0,0,1,.7,1.5,1.88,1.88,0,0,1-.44,1.28A1.72,1.72,0,0,1,421.51,313.13Z" transform="translate(0 -1.67)"/><path d="M421.5,308.67l-.09-.7a1.54,1.54,0,0,0,.86-.41,1,1,0,0,0,.26-.71,1.16,1.16,0,0,0-1.19-1.18,1.08,1.08,0,0,0-1.11,1.12,2.21,2.21,0,0,0,.08.5l-.62-.08s0-.08,0-.11a1.5,1.5,0,0,0-.23-.81.8.8,0,0,0-.72-.36.87.87,0,0,0-.64.26.92.92,0,0,0-.25.68,1,1,0,0,0,.26.68,1.29,1.29,0,0,0,.77.35l-.12.7a1.82,1.82,0,0,1-1.1-.59,1.7,1.7,0,0,1-.39-1.14,1.91,1.91,0,0,1,.2-.86,1.46,1.46,0,0,1,.55-.6,1.41,1.41,0,0,1,.74-.21,1.26,1.26,0,0,1,.68.2,1.3,1.3,0,0,1,.48.59,1.33,1.33,0,0,1,.49-.79,1.46,1.46,0,0,1,.92-.28,1.67,1.67,0,0,1,1.27.55,1.93,1.93,0,0,1,.52,1.38,1.79,1.79,0,0,1-.45,1.25A1.77,1.77,0,0,1,421.5,308.67Z" transform="translate(0 -1.67)"/><path d="M421.29,304.31h-.71v-2.16h.71Z" transform="translate(0 -1.67)"/><path d="M420.19,301.57a5.16,5.16,0,0,1-1.63-.21,2.14,2.14,0,0,1-1-.62,1.55,1.55,0,0,1-.34-1,1.62,1.62,0,0,1,.19-.81,1.55,1.55,0,0,1,.54-.57,3.15,3.15,0,0,1,.85-.36,5.43,5.43,0,0,1,1.35-.13,5.25,5.25,0,0,1,1.63.21,2,2,0,0,1,1,.62,1.74,1.74,0,0,1-.25,2.34A3.83,3.83,0,0,1,420.19,301.57Zm0-.73a3.6,3.6,0,0,0,1.88-.33.93.93,0,0,0,0-1.62,5.52,5.52,0,0,0-3.76,0,1,1,0,0,0-.46.82.9.9,0,0,0,.41.77A3.6,3.6,0,0,0,420.19,300.84Z" transform="translate(0 -1.67)"/><path d="M420.19,297.12a5.16,5.16,0,0,1-1.63-.21,2.14,2.14,0,0,1-1-.62,1.55,1.55,0,0,1-.34-1,1.62,1.62,0,0,1,.19-.81,1.55,1.55,0,0,1,.54-.57,3.15,3.15,0,0,1,.85-.36,5.43,5.43,0,0,1,1.35-.13,5.25,5.25,0,0,1,1.63.21,2,2,0,0,1,1,.62,1.74,1.74,0,0,1-.25,2.34A3.83,3.83,0,0,1,420.19,297.12Zm0-.73a3.6,3.6,0,0,0,1.88-.33.93.93,0,0,0,0-1.62,5.52,5.52,0,0,0-3.76,0,1,1,0,0,0-.46.82.9.9,0,0,0,.41.77A3.6,3.6,0,0,0,420.19,296.39Z" transform="translate(0 -1.67)"/><path d="M421.51,292.67l-.06-.74a1.29,1.29,0,0,0,.81-.38,1,1,0,0,0,.27-.72,1.15,1.15,0,0,0-.38-.86,1.41,1.41,0,0,0-1-.35,1.29,1.29,0,0,0-.95.34,1.19,1.19,0,0,0-.35.88,1.23,1.23,0,0,0,.15.61,1.19,1.19,0,0,0,.4.43l-.09.66-2.94-.55v-2.85H418v2.29l1.54.31a1.84,1.84,0,0,1-.36-1.08,1.72,1.72,0,0,1,.52-1.27,1.8,1.8,0,0,1,1.34-.52,2.07,2.07,0,0,1,1.34.45,1.83,1.83,0,0,1,.7,1.5,1.88,1.88,0,0,1-.44,1.28A1.7,1.7,0,0,1,421.51,292.67Z" transform="translate(0 -1.67)"/><line x1="43.12" y1="100.62" x2="400.99" y2="100.61" fill="none" stroke="#b3b3b3" stroke-linecap="square" stroke-linejoin="bevel" stroke-width="1.5"/><line x1="43.12" y1="72.97" x2="400.99" y2="72.97" fill="none" stroke="#b3b3b3" stroke-linecap="square" stroke-linejoin="bevel"/><line x1="43.12" y1="56.48" x2="400.99" y2="56.47" fill="none" stroke="#b3b3b3" stroke-linecap="square" stroke-linejoin="bevel"/><line x1="43.12" y1="44.62" x2="400.99" y2="44.62" fill="none" stroke="#b3b3b3" stroke-linecap="square" stroke-linejoin="bevel"/><line x1="43.12" y1="35.34" x2="400.99" y2="35.34" fill="none" stroke="#b3b3b3" stroke-linecap="square" stroke-linejoin="bevel"/><line x1="43.12" y1="27.86" x2="400.99" y2="27.86" fill="none" stroke="#b3b3b3" stroke-linecap="square" stroke-linejoin="bevel"/><line x1="43.12" y1="21.68" x2="400.99" y2="21.67" fill="none" stroke="#b3b3b3" stroke-linecap="square" stroke-linejoin="bevel"/><line x1="43.12" y1="16" x2="400.99" y2="16" fill="none" stroke="#b3b3b3" stroke-linecap="square" stroke-linejoin="bevel"/><line x1="43.12" y1="11.11" x2="400.99" y2="11.11" fill="none" stroke="#b3b3b3" stroke-linecap="square" stroke-linejoin="bevel"/><line x1="43.12" y1="196.05" x2="400.99" y2="196.05" fill="none" stroke="#b3b3b3" stroke-linecap="square" stroke-linejoin="bevel" stroke-width="1.5"/><line x1="43.12" y1="168.41" x2="400.99" y2="168.41" fill="none" stroke="#b3b3b3" stroke-linecap="square" stroke-linejoin="bevel"/><line x1="43.12" y1="151.92" x2="400.99" y2="151.91" fill="none" stroke="#b3b3b3" stroke-linecap="square" stroke-linejoin="bevel"/><line x1="43.12" y1="140.05" x2="400.99" y2="140.05" fill="none" stroke="#b3b3b3" stroke-linecap="square" stroke-linejoin="bevel"/><line x1="43.12" y1="130.77" x2="400.99" y2="130.77" fill="none" stroke="#b3b3b3" stroke-linecap="square" stroke-linejoin="bevel"/><line x1="43.12" y1="123.3" x2="400.99" y2="123.3" fill="none" stroke="#b3b3b3" stroke-linecap="square" stroke-linejoin="bevel"/><line x1="43.12" y1="117.11" x2="400.99" y2="117.11" fill="none" stroke="#b3b3b3" stroke-linecap="square" stroke-linejoin="bevel"/><line x1="43.12" y1="111.44" x2="400.99" y2="111.44" fill="none" stroke="#b3b3b3" stroke-linecap="square" stroke-linejoin="bevel"/><line x1="43.12" y1="106.54" x2="400.99" y2="106.54" fill="none" stroke="#b3b3b3" stroke-linecap="square" stroke-linejoin="bevel"/><line x1="43.12" y1="263.84" x2="400.99" y2="263.84" fill="none" stroke="#b3b3b3" stroke-linecap="square" stroke-linejoin="bevel"/><line x1="43.12" y1="247.35" x2="400.99" y2="247.34" fill="none" stroke="#b3b3b3" stroke-linecap="square" stroke-linejoin="bevel"/><line x1="43.12" y1="235.49" x2="400.99" y2="235.49" fill="none" stroke="#b3b3b3" stroke-linecap="square" stroke-linejoin="bevel"/><line x1="43.12" y1="226.21" x2="400.99" y2="226.21" fill="none" stroke="#b3b3b3" stroke-linecap="square" stroke-linejoin="bevel"/><line x1="43.12" y1="218.74" x2="400.99" y2="218.73" fill="none" stroke="#b3b3b3" stroke-linecap="square" stroke-linejoin="bevel"/><line x1="43.12" y1="212.55" x2="400.99" y2="212.54" fill="none" stroke="#b3b3b3" stroke-linecap="square" stroke-linejoin="bevel"/><line x1="43.12" y1="206.88" x2="400.99" y2="206.88" fill="none" stroke="#b3b3b3" stroke-linecap="square" stroke-linejoin="bevel"/><line x1="43.12" y1="201.98" x2="400.99" y2="201.98" fill="none" stroke="#b3b3b3" stroke-linecap="square" stroke-linejoin="bevel"/><rect x="120.63" y="65.45" width="165.99" height="26.63" fill="#fff"/><path d="M146.5,77.77V69.18h6.37v1.45h-4.63v1.9h4.31V74h-4.31v2.34H153v1.45Z" transform="translate(0 -1.67)"/><path d="M153.63,77.77l2.94-4.48-2.66-4.11h2l1.72,2.76,1.69-2.76h2l-2.67,4.17,2.94,4.42h-2.09l-1.9-3-1.91,3Z" transform="translate(0 -1.67)"/><path d="M164.44,77.77V70.63h-2.55V69.18h6.83v1.45h-2.54v7.14Z" transform="translate(0 -1.67)"/><path d="M169.85,77.77V69.18h3.65a6.39,6.39,0,0,1,2,.23,2,2,0,0,1,1,.82,2.47,2.47,0,0,1,.38,1.35,2.31,2.31,0,0,1-.57,1.6,2.75,2.75,0,0,1-1.7.79,4.16,4.16,0,0,1,.93.72,10,10,0,0,1,1,1.39l1.05,1.68h-2.07l-1.25-1.87a12.9,12.9,0,0,0-.91-1.26,1.44,1.44,0,0,0-.52-.36,2.63,2.63,0,0,0-.87-.1h-.35v3.59h-1.76Zm1.73-5h1.28a6.59,6.59,0,0,0,1.56-.11,1,1,0,0,0,.49-.36,1.1,1.1,0,0,0,.18-.64,1,1,0,0,0-.88-1c-.14,0-.56,0-1.27,0h-1.35v2.18Z" transform="translate(0 -1.67)"/><path d="M186.25,77.77h-1.89l-.75-2h-3.43l-.71,2h-1.84L181,69.18h1.83Zm-3.19-3.4-1.18-3.19-1.16,3.19Z" transform="translate(0 -1.67)"/><path d="M187.17,77.77V69.18H190a9.77,9.77,0,0,1,2.06.13,2.31,2.31,0,0,1,1.24.84,2.61,2.61,0,0,1,.5,1.67,2.81,2.81,0,0,1-.29,1.33,2.34,2.34,0,0,1-.73.85,2.5,2.5,0,0,1-.9.41,10.09,10.09,0,0,1-1.8.12H188.9v3.24Zm1.74-7.14v2.44h1a4.53,4.53,0,0,0,1.37-.13,1.14,1.14,0,0,0,.54-.42,1.15,1.15,0,0,0,.2-.67,1.07,1.07,0,0,0-.28-.77,1.24,1.24,0,0,0-.7-.38,8.16,8.16,0,0,0-1.25-.06h-.83Z" transform="translate(0 -1.67)"/><path d="M194.83,73.52a5.45,5.45,0,0,1,.39-2.2,4.1,4.1,0,0,1,.8-1.18,3.23,3.23,0,0,1,1.11-.77A4.66,4.66,0,0,1,199,69a4,4,0,0,1,3,1.18,5.26,5.26,0,0,1,0,6.53,4,4,0,0,1-3,1.17,4.05,4.05,0,0,1-3-1.17A4.41,4.41,0,0,1,194.83,73.52Zm1.78,0a3.21,3.21,0,0,0,.67,2.21,2.2,2.2,0,0,0,1.71.75,2.17,2.17,0,0,0,1.7-.75,3.31,3.31,0,0,0,.67-2.24,3.23,3.23,0,0,0-.65-2.2,2.39,2.39,0,0,0-3.45,0A3.24,3.24,0,0,0,196.61,73.47Z" transform="translate(0 -1.67)"/><path d="M204.56,77.77V69.25h1.73v7.07h4.31v1.45Z" transform="translate(0 -1.67)"/><path d="M219.59,77.77H217.7l-.75-2h-3.43l-.71,2H211l3.35-8.59h1.83Zm-3.2-3.4-1.18-3.19-1.16,3.19Z" transform="translate(0 -1.67)"/><path d="M222.44,77.77V70.63h-2.55V69.18h6.83v1.45h-2.54v7.14Z" transform="translate(0 -1.67)"/><path d="M227.84,77.77V69.18h6.37v1.45h-4.63v1.9h4.31V74h-4.31v2.34h4.8v1.45Z" transform="translate(0 -1.67)"/><path d="M235.84,69.18H239a6.15,6.15,0,0,1,1.63.16,2.83,2.83,0,0,1,1.29.79,3.91,3.91,0,0,1,.82,1.39,6.3,6.3,0,0,1,.28,2,5.81,5.81,0,0,1-.26,1.83,3.78,3.78,0,0,1-.92,1.52,3.18,3.18,0,0,1-1.22.69,5.27,5.27,0,0,1-1.54.18h-3.26V69.18Zm1.73,1.45v5.69h1.29a5.15,5.15,0,0,0,1-.08,1.61,1.61,0,0,0,.7-.36,1.7,1.7,0,0,0,.45-.83,5.88,5.88,0,0,0,.18-1.57,5.06,5.06,0,0,0-.18-1.53,2,2,0,0,0-.49-.83,1.64,1.64,0,0,0-.8-.4,8.4,8.4,0,0,0-1.42-.08h-.78Z" transform="translate(0 -1.67)"/><path d="M251.69,77.77H250V71.56a5.69,5.69,0,0,1-2.13,1.25V71.32a4.75,4.75,0,0,0,1.4-.8,3.09,3.09,0,0,0,1-1.37h1.34v8.62Z" transform="translate(0 -1.67)"/><path d="M253.62,77.91,255.75,69H257l-2.15,8.88Z" transform="translate(0 -1.67)"/><path d="M257.12,71.54H258v-.47a3.14,3.14,0,0,1,.17-1.17,1.3,1.3,0,0,1,.62-.63A2.39,2.39,0,0,1,260,69a4.62,4.62,0,0,1,1.38.21l-.22,1.15a3.35,3.35,0,0,0-.76-.09.66.66,0,0,0-.51.17,1,1,0,0,0-.16.64v.44h1.23v1.29h-1.23v4.93H258V72.84h-.91Z" transform="translate(0 -1.67)"/><path d="M123.39,87l1.69-.16a2.06,2.06,0,0,0,.62,1.25,1.85,1.85,0,0,0,1.26.4,2,2,0,0,0,1.26-.35,1,1,0,0,0,.42-.83.78.78,0,0,0-.18-.52,1.43,1.43,0,0,0-.62-.37c-.2-.07-.67-.2-1.39-.38a4.7,4.7,0,0,1-2-.85,2.22,2.22,0,0,1-.79-1.73,2.19,2.19,0,0,1,.37-1.23,2.38,2.38,0,0,1,1.07-.87,4.26,4.26,0,0,1,1.69-.3,3.61,3.61,0,0,1,2.43.71,2.52,2.52,0,0,1,.86,1.89l-1.73.08a1.42,1.42,0,0,0-.48-.95,1.78,1.78,0,0,0-1.1-.29,2,2,0,0,0-1.18.31.63.63,0,0,0-.28.53.66.66,0,0,0,.26.52,4.48,4.48,0,0,0,1.59.57,8,8,0,0,1,1.87.62,2.42,2.42,0,0,1,1,.87,2.71,2.71,0,0,1-.07,2.75,2.45,2.45,0,0,1-1.16,1,4.84,4.84,0,0,1-1.87.31,3.71,3.71,0,0,1-2.5-.75A3.25,3.25,0,0,1,123.39,87Z" transform="translate(0 -1.67)"/><path d="M131.83,89.77V81.18h2.78a9.77,9.77,0,0,1,2.06.13,2.31,2.31,0,0,1,1.24.84,2.61,2.61,0,0,1,.5,1.67,2.81,2.81,0,0,1-.29,1.33,2.34,2.34,0,0,1-.73.85,2.5,2.5,0,0,1-.9.41,10.09,10.09,0,0,1-1.8.12h-1.13v3.24Zm1.74-7.14v2.44h1a4.53,4.53,0,0,0,1.37-.13,1.14,1.14,0,0,0,.54-.42,1.15,1.15,0,0,0,.2-.67,1.07,1.07,0,0,0-.28-.77,1.24,1.24,0,0,0-.7-.38,8.16,8.16,0,0,0-1.25-.06h-.83Z" transform="translate(0 -1.67)"/><path d="M139.84,89.77V81.18h6.37v1.45h-4.63v1.9h4.31V86h-4.31v2.34h4.8v1.45Z" transform="translate(0 -1.67)"/><path d="M153.34,86.61l1.68.53a3.8,3.8,0,0,1-1.29,2.09,3.63,3.63,0,0,1-2.28.68,3.68,3.68,0,0,1-2.81-1.17,4.49,4.49,0,0,1-1.1-3.2,4.68,4.68,0,0,1,1.11-3.33A3.81,3.81,0,0,1,151.56,81a3.58,3.58,0,0,1,2.56.93,3.43,3.43,0,0,1,.88,1.58l-1.72.41a1.73,1.73,0,0,0-.64-1,1.87,1.87,0,0,0-1.17-.39,2,2,0,0,0-1.55.69,3.35,3.35,0,0,0-.59,2.22,3.59,3.59,0,0,0,.59,2.32,1.9,1.9,0,0,0,1.52.69,1.75,1.75,0,0,0,1.19-.44A2.54,2.54,0,0,0,153.34,86.61Z" transform="translate(0 -1.67)"/><path d="M158.44,89.77V82.63h-2.55V81.18h6.83v1.45h-2.54v7.14Z" transform="translate(0 -1.67)"/><path d="M163.84,89.77V81.18h3.65a6.39,6.39,0,0,1,2,.23,2,2,0,0,1,1,.82,2.47,2.47,0,0,1,.38,1.35,2.31,2.31,0,0,1-.57,1.6,2.75,2.75,0,0,1-1.7.79,4.16,4.16,0,0,1,.93.72,10,10,0,0,1,1,1.39l1,1.68H169.5l-1.25-1.87a12.9,12.9,0,0,0-.91-1.26,1.44,1.44,0,0,0-.52-.36,2.63,2.63,0,0,0-.87-.1h-.35v3.59h-1.76Zm1.74-5h1.28a6.59,6.59,0,0,0,1.56-.11,1,1,0,0,0,.49-.36,1.1,1.1,0,0,0,.18-.64,1,1,0,0,0-.88-1c-.14,0-.56,0-1.27,0h-1.35v2.18Z" transform="translate(0 -1.67)"/><path d="M180.25,89.77h-1.89l-.75-2h-3.43l-.71,2h-1.84L175,81.18h1.83Zm-3.19-3.4-1.18-3.19-1.16,3.19Z" transform="translate(0 -1.67)"/><path d="M181.22,89.77V81.25H183v7.07h4.31v1.45Z" transform="translate(0 -1.67)"/><path d="M191.85,89.77V81.18h1.69l3.52,5.74V81.18h1.61v8.59h-1.74l-3.46-5.6v5.6Z" transform="translate(0 -1.67)"/><path d="M200.15,85.52a5.45,5.45,0,0,1,.39-2.2,4.1,4.1,0,0,1,.8-1.18,3.23,3.23,0,0,1,1.11-.77A4.66,4.66,0,0,1,204.3,81a4,4,0,0,1,3,1.18,5.26,5.26,0,0,1,0,6.53,4,4,0,0,1-3,1.17,4.05,4.05,0,0,1-3.05-1.17A4.41,4.41,0,0,1,200.15,85.52Zm1.79,0a3.21,3.21,0,0,0,.67,2.21,2.2,2.2,0,0,0,1.71.75,2.17,2.17,0,0,0,1.7-.75,3.31,3.31,0,0,0,.67-2.24,3.23,3.23,0,0,0-.65-2.2,2.39,2.39,0,0,0-3.45,0A3.24,3.24,0,0,0,201.94,85.47Z" transform="translate(0 -1.67)"/><path d="M209.78,89.77V81.18h1.73v8.59Z" transform="translate(0 -1.67)"/><path d="M212.73,87l1.69-.16a2.06,2.06,0,0,0,.62,1.25,1.85,1.85,0,0,0,1.26.4,2,2,0,0,0,1.26-.35,1,1,0,0,0,.42-.83.78.78,0,0,0-.18-.52,1.43,1.43,0,0,0-.62-.37c-.2-.07-.67-.2-1.39-.38a4.7,4.7,0,0,1-2-.85,2.22,2.22,0,0,1-.79-1.73,2.19,2.19,0,0,1,.37-1.23,2.38,2.38,0,0,1,1.07-.87,4.26,4.26,0,0,1,1.69-.3,3.61,3.61,0,0,1,2.43.71,2.52,2.52,0,0,1,.86,1.89l-1.73.08a1.42,1.42,0,0,0-.48-.95,1.78,1.78,0,0,0-1.1-.29,2,2,0,0,0-1.18.31.63.63,0,0,0-.28.53.66.66,0,0,0,.26.52,4.48,4.48,0,0,0,1.59.57,8,8,0,0,1,1.87.62,2.42,2.42,0,0,1,1,.87,2.71,2.71,0,0,1-.07,2.75,2.45,2.45,0,0,1-1.16,1,4.84,4.84,0,0,1-1.87.31,3.71,3.71,0,0,1-2.5-.75A3.25,3.25,0,0,1,212.73,87Z" transform="translate(0 -1.67)"/><path d="M221.17,89.77V81.18h6.37v1.45h-4.63v1.9h4.31V86h-4.31v2.34h4.8v1.45Z" transform="translate(0 -1.67)"/><path d="M232.5,81.18h3.17a6.15,6.15,0,0,1,1.63.16,2.83,2.83,0,0,1,1.29.79,3.91,3.91,0,0,1,.82,1.39,6.3,6.3,0,0,1,.28,2,5.81,5.81,0,0,1-.26,1.83,3.78,3.78,0,0,1-.92,1.52,3.18,3.18,0,0,1-1.22.69,5.27,5.27,0,0,1-1.54.18h-3.26V81.18Zm1.74,1.45v5.69h1.29a5.15,5.15,0,0,0,1.05-.08,1.61,1.61,0,0,0,.7-.36,1.7,1.7,0,0,0,.45-.83,5.88,5.88,0,0,0,.18-1.57,5.06,5.06,0,0,0-.18-1.53,2,2,0,0,0-.49-.83,1.64,1.64,0,0,0-.8-.4,8.4,8.4,0,0,0-1.42-.08h-.78Z" transform="translate(0 -1.67)"/><path d="M241.18,89.77V81.18h6.37v1.45h-4.63v1.9h4.31V86h-4.31v2.34h4.8v1.45Z" transform="translate(0 -1.67)"/><path d="M249.2,89.77V81.18h1.69l3.52,5.74V81.18H256v8.59h-1.74l-3.46-5.6v5.6Z" transform="translate(0 -1.67)"/><path d="M257.41,87l1.69-.16a2.06,2.06,0,0,0,.62,1.25,1.85,1.85,0,0,0,1.26.4,2,2,0,0,0,1.26-.35,1,1,0,0,0,.42-.83.78.78,0,0,0-.18-.52,1.43,1.43,0,0,0-.62-.37c-.2-.07-.67-.2-1.39-.38a4.7,4.7,0,0,1-2-.85,2.22,2.22,0,0,1-.79-1.73,2.19,2.19,0,0,1,.37-1.23,2.38,2.38,0,0,1,1.07-.87,4.26,4.26,0,0,1,1.69-.3,3.61,3.61,0,0,1,2.43.71,2.52,2.52,0,0,1,.86,1.89l-1.73.08a1.42,1.42,0,0,0-.48-.95,1.78,1.78,0,0,0-1.1-.29,2,2,0,0,0-1.18.31.63.63,0,0,0-.28.53.66.66,0,0,0,.26.52,4.48,4.48,0,0,0,1.59.57,8,8,0,0,1,1.87.62,2.42,2.42,0,0,1,1,.87,2.71,2.71,0,0,1-.07,2.75,2.45,2.45,0,0,1-1.16,1,4.84,4.84,0,0,1-1.87.31,3.71,3.71,0,0,1-2.5-.75A3.25,3.25,0,0,1,257.41,87Z" transform="translate(0 -1.67)"/><path d="M265.8,89.77V81.18h1.73v8.59Z" transform="translate(0 -1.67)"/><path d="M271.12,89.77V82.63h-2.55V81.18h6.83v1.45h-2.54v7.14Z" transform="translate(0 -1.67)"/><path d="M278.77,89.77V86.15l-3.15-5h2l2,3.4,2-3.4h2l-3.16,5v3.6Z" transform="translate(0 -1.67)"/><rect x="43.51" y="225.58" width="140.37" height="37.71" fill="#fff"/><path d="M47.79,238.58V230h6.37v1.45H49.53v1.9h4.31v1.45H49.53v2.34h4.8v1.45Z" transform="translate(0 -1.67)"/><path d="M54.92,238.58l2.94-4.48L55.2,230h2L59,232.75,60.64,230h2L60,234.16l2.94,4.42H60.83l-1.9-3-1.93,3Z" transform="translate(0 -1.67)"/><path d="M65.73,238.58v-7.14H63.18V230H70v1.45H67.47v7.14Z" transform="translate(0 -1.67)"/><path d="M71.13,238.58V230h3.65a6.39,6.39,0,0,1,2,.23,2,2,0,0,1,1,.82,2.47,2.47,0,0,1,.38,1.35,2.31,2.31,0,0,1-.57,1.6,2.75,2.75,0,0,1-1.7.79,4.16,4.16,0,0,1,.93.72,10,10,0,0,1,1,1.39l1,1.68H76.79l-1.25-1.87a12.9,12.9,0,0,0-.91-1.26,1.44,1.44,0,0,0-.52-.36,2.63,2.63,0,0,0-.87-.1h-.35v3.59H71.13Zm1.74-5h1.28a6.59,6.59,0,0,0,1.56-.11,1,1,0,0,0,.49-.36,1.1,1.1,0,0,0,.18-.64,1,1,0,0,0-.88-1c-.14,0-.56,0-1.27,0H72.88v2.18Z" transform="translate(0 -1.67)"/><path d="M87.54,238.58H85.65l-.75-2H81.47l-.71,2H78.92L82.27,230H84.1Zm-3.2-3.4L83.16,232,82,235.18Z" transform="translate(0 -1.67)"/><path d="M88.46,238.58V230h2.78a9.77,9.77,0,0,1,2.06.13,2.31,2.31,0,0,1,1.24.84,2.61,2.61,0,0,1,.5,1.67,2.81,2.81,0,0,1-.29,1.33,2.34,2.34,0,0,1-.73.85,2.5,2.5,0,0,1-.9.41,10.09,10.09,0,0,1-1.8.12H90.19v3.24Zm1.73-7.13v2.44h1a4.53,4.53,0,0,0,1.37-.13,1.14,1.14,0,0,0,.54-.42,1.15,1.15,0,0,0,.2-.67,1.07,1.07,0,0,0-.28-.77,1.24,1.24,0,0,0-.7-.38,8.16,8.16,0,0,0-1.25-.06h-.83Z" transform="translate(0 -1.67)"/><path d="M96.11,234.34a5.45,5.45,0,0,1,.39-2.2,4.1,4.1,0,0,1,.8-1.18,3.23,3.23,0,0,1,1.11-.77,4.66,4.66,0,0,1,1.85-.34,4,4,0,0,1,3,1.18,5.26,5.26,0,0,1,0,6.53,4,4,0,0,1-3,1.17,4.05,4.05,0,0,1-3.05-1.17A4.41,4.41,0,0,1,96.11,234.34Zm1.79-.06a3.21,3.21,0,0,0,.67,2.21,2.2,2.2,0,0,0,1.71.75,2.17,2.17,0,0,0,1.7-.75,3.31,3.31,0,0,0,.67-2.24,3.23,3.23,0,0,0-.65-2.2,2.39,2.39,0,0,0-3.45,0A3.24,3.24,0,0,0,97.9,234.28Z" transform="translate(0 -1.67)"/><path d="M105.84,238.58v-8.52h1.73v7.07h4.31v1.45Z" transform="translate(0 -1.67)"/><path d="M120.87,238.58H119l-.75-2H114.8l-.71,2h-1.84L115.6,230h1.83Zm-3.19-3.4L116.5,232l-1.16,3.19Z" transform="translate(0 -1.67)"/><path d="M123.72,238.58v-7.14h-2.55V230H128v1.45h-2.54v7.14Z" transform="translate(0 -1.67)"/><path d="M129.12,238.58V230h6.37v1.45h-4.64v1.9h4.31v1.45h-4.31v2.34h4.8v1.45Z" transform="translate(0 -1.67)"/><path d="M137.12,230h3.17a6.15,6.15,0,0,1,1.63.16,2.83,2.83,0,0,1,1.29.79,3.91,3.91,0,0,1,.82,1.39,6.3,6.3,0,0,1,.28,2,5.81,5.81,0,0,1-.26,1.83,3.78,3.78,0,0,1-.92,1.52,3.18,3.18,0,0,1-1.22.69,5.27,5.27,0,0,1-1.54.18h-3.26V230Zm1.73,1.46v5.69h1.29a5.15,5.15,0,0,0,1.05-.08,1.61,1.61,0,0,0,.7-.36,1.7,1.7,0,0,0,.45-.83,5.88,5.88,0,0,0,.18-1.57,5.06,5.06,0,0,0-.18-1.53,2,2,0,0,0-.49-.83,1.64,1.64,0,0,0-.8-.4,8.4,8.4,0,0,0-1.42-.08h-.78Z" transform="translate(0 -1.67)"/><path d="M53.28,247.42,55,248A3.8,3.8,0,0,1,53.67,250a3.63,3.63,0,0,1-2.28.68,3.68,3.68,0,0,1-2.81-1.17,4.49,4.49,0,0,1-1.1-3.2A4.68,4.68,0,0,1,48.59,243a3.81,3.81,0,0,1,2.91-1.19,3.58,3.58,0,0,1,2.56.93,3.43,3.43,0,0,1,.88,1.58l-1.72.41a1.73,1.73,0,0,0-.64-1.05,1.87,1.87,0,0,0-1.17-.39,2,2,0,0,0-1.55.69,3.35,3.35,0,0,0-.59,2.22,3.59,3.59,0,0,0,.59,2.32,1.9,1.9,0,0,0,1.52.69,1.75,1.75,0,0,0,1.19-.44A2.48,2.48,0,0,0,53.28,247.42Z" transform="translate(0 -1.67)"/><path d="M56.1,246.34a5.45,5.45,0,0,1,.39-2.2,4.1,4.1,0,0,1,.8-1.18,3.23,3.23,0,0,1,1.11-.77,4.66,4.66,0,0,1,1.85-.34,4,4,0,0,1,3,1.18,5.26,5.26,0,0,1,0,6.53,4,4,0,0,1-3,1.17,4.05,4.05,0,0,1-3.05-1.17A4.41,4.41,0,0,1,56.1,246.34Zm1.79-.06a3.21,3.21,0,0,0,.67,2.21,2.2,2.2,0,0,0,1.71.75,2.17,2.17,0,0,0,1.7-.75,3.31,3.31,0,0,0,.67-2.24,3.23,3.23,0,0,0-.65-2.2,2.39,2.39,0,0,0-3.45,0A3.24,3.24,0,0,0,57.89,246.28Z" transform="translate(0 -1.67)"/><path d="M65.8,250.58V242h1.69L71,247.73V242h1.61v8.59H70.88L67.42,245v5.6Z" transform="translate(0 -1.67)"/><path d="M74,247.79l1.69-.16a2.06,2.06,0,0,0,.62,1.25,1.85,1.85,0,0,0,1.26.4,2,2,0,0,0,1.26-.35,1,1,0,0,0,.42-.83.78.78,0,0,0-.18-.52,1.43,1.43,0,0,0-.62-.37c-.2-.07-.67-.2-1.39-.38a4.7,4.7,0,0,1-2-.85,2.22,2.22,0,0,1-.79-1.73,2.19,2.19,0,0,1,.37-1.23,2.38,2.38,0,0,1,1.07-.87,4.26,4.26,0,0,1,1.69-.3,3.61,3.61,0,0,1,2.43.71,2.52,2.52,0,0,1,.86,1.89l-1.73.08a1.42,1.42,0,0,0-.48-.95,1.78,1.78,0,0,0-1.1-.29,2,2,0,0,0-1.18.31.63.63,0,0,0-.28.53.66.66,0,0,0,.26.52,4.48,4.48,0,0,0,1.59.57,8,8,0,0,1,1.87.62,2.42,2.42,0,0,1,1,.87,2.71,2.71,0,0,1-.07,2.75,2.45,2.45,0,0,1-1.16,1,4.84,4.84,0,0,1-1.87.31A3.71,3.71,0,0,1,75,250,3.29,3.29,0,0,1,74,247.79Z" transform="translate(0 -1.67)"/><path d="M84.39,250.58v-7.14H81.84V242h6.83v1.45H86.13v7.14Z" transform="translate(0 -1.67)"/><path d="M97.53,250.58H95.64l-.75-2H91.46l-.71,2H88.91L92.26,242h1.83Zm-3.19-3.4L93.16,244,92,247.18Z" transform="translate(0 -1.67)"/><path d="M98.47,250.58V242h1.69l3.52,5.74V242h1.61v8.59h-1.74l-3.46-5.6v5.6Z" transform="translate(0 -1.67)"/><path d="M109.05,250.58v-7.14H106.5V242h6.83v1.45h-2.54v7.14Z" transform="translate(0 -1.67)"/><path d="M117.34,247.79l1.69-.16a2.06,2.06,0,0,0,.62,1.25,1.85,1.85,0,0,0,1.26.4,2,2,0,0,0,1.26-.35,1,1,0,0,0,.42-.83.78.78,0,0,0-.18-.52,1.43,1.43,0,0,0-.62-.37c-.2-.07-.67-.2-1.39-.38a4.7,4.7,0,0,1-2-.85,2.22,2.22,0,0,1-.79-1.73A2.19,2.19,0,0,1,118,243a2.38,2.38,0,0,1,1.07-.87,4.26,4.26,0,0,1,1.69-.3,3.61,3.61,0,0,1,2.43.71,2.52,2.52,0,0,1,.86,1.89l-1.73.08a1.42,1.42,0,0,0-.48-.95,1.78,1.78,0,0,0-1.1-.29,2,2,0,0,0-1.18.31.63.63,0,0,0-.28.53.66.66,0,0,0,.26.52,4.48,4.48,0,0,0,1.59.57,8,8,0,0,1,1.87.62,2.42,2.42,0,0,1,1,.87,2.71,2.71,0,0,1-.07,2.75,2.45,2.45,0,0,1-1.16,1,4.84,4.84,0,0,1-1.87.31,3.71,3.71,0,0,1-2.5-.75A3.29,3.29,0,0,1,117.34,247.79Z" transform="translate(0 -1.67)"/><path d="M125.79,250.58V242h2.78a9.77,9.77,0,0,1,2.06.13,2.31,2.31,0,0,1,1.24.84,2.61,2.61,0,0,1,.5,1.67,2.81,2.81,0,0,1-.29,1.33,2.34,2.34,0,0,1-.73.85,2.5,2.5,0,0,1-.9.41,10.09,10.09,0,0,1-1.8.12h-1.13v3.24Zm1.73-7.13v2.44h1a4.53,4.53,0,0,0,1.37-.13,1.14,1.14,0,0,0,.54-.42,1.15,1.15,0,0,0,.2-.67,1.07,1.07,0,0,0-.28-.77,1.24,1.24,0,0,0-.7-.38,8.16,8.16,0,0,0-1.25-.06h-.83Z" transform="translate(0 -1.67)"/><path d="M133.79,250.58V242h6.37v1.45h-4.63v1.9h4.31v1.45h-4.31v2.34h4.8v1.45Z" transform="translate(0 -1.67)"/><path d="M147.29,247.42,149,248a3.8,3.8,0,0,1-1.29,2.09,3.63,3.63,0,0,1-2.28.68,3.68,3.68,0,0,1-2.81-1.17,4.49,4.49,0,0,1-1.1-3.2A4.68,4.68,0,0,1,142.6,243a3.81,3.81,0,0,1,2.91-1.19,3.58,3.58,0,0,1,2.56.93,3.43,3.43,0,0,1,.88,1.58l-1.72.41a1.73,1.73,0,0,0-.64-1.05,1.87,1.87,0,0,0-1.17-.39,2,2,0,0,0-1.55.69,3.35,3.35,0,0,0-.59,2.22,3.59,3.59,0,0,0,.59,2.32,1.9,1.9,0,0,0,1.52.69,1.75,1.75,0,0,0,1.19-.44A2.48,2.48,0,0,0,147.29,247.42Z" transform="translate(0 -1.67)"/><path d="M152.4,250.58v-7.14h-2.55V242h6.83v1.45h-2.54v7.14Z" transform="translate(0 -1.67)"/><path d="M157.8,250.58V242h3.65a6.39,6.39,0,0,1,2,.23,2,2,0,0,1,1,.82,2.47,2.47,0,0,1,.38,1.35,2.31,2.31,0,0,1-.57,1.6,2.75,2.75,0,0,1-1.7.79,4.16,4.16,0,0,1,.93.72,10,10,0,0,1,1,1.39l1.05,1.68h-2.07l-1.25-1.87a12.9,12.9,0,0,0-.91-1.26,1.44,1.44,0,0,0-.52-.36,2.63,2.63,0,0,0-.87-.1h-.35v3.59H157.8Zm1.73-5h1.28a6.59,6.59,0,0,0,1.56-.11,1,1,0,0,0,.49-.36,1.1,1.1,0,0,0,.18-.64,1,1,0,0,0-.88-1c-.14,0-.56,0-1.27,0h-1.35v2.18Z" transform="translate(0 -1.67)"/><path d="M174.2,250.58h-1.89l-.75-2h-3.43l-.71,2h-1.84l3.35-8.59h1.83Zm-3.19-3.4L169.83,244l-1.16,3.19Z" transform="translate(0 -1.67)"/><path d="M175.17,250.58v-8.52h1.73v7.07h4.31v1.45Z" transform="translate(0 -1.67)"/><path d="M47.8,262.58V254h1.69L53,259.73V254h1.61v8.59H52.88L49.42,257v5.6Z" transform="translate(0 -1.67)"/><path d="M56.1,258.34a5.45,5.45,0,0,1,.39-2.2,4.1,4.1,0,0,1,.8-1.18,3.23,3.23,0,0,1,1.11-.77,4.66,4.66,0,0,1,1.85-.34,4,4,0,0,1,3,1.18,5.26,5.26,0,0,1,0,6.53,4,4,0,0,1-3,1.17,4.05,4.05,0,0,1-3.05-1.17A4.41,4.41,0,0,1,56.1,258.34Zm1.79-.06a3.21,3.21,0,0,0,.67,2.21,2.2,2.2,0,0,0,1.71.75,2.17,2.17,0,0,0,1.7-.75,3.31,3.31,0,0,0,.67-2.24,3.23,3.23,0,0,0-.65-2.2,2.39,2.39,0,0,0-3.45,0A3.24,3.24,0,0,0,57.89,258.28Z" transform="translate(0 -1.67)"/><path d="M65.73,262.58V254h1.73v8.59Z" transform="translate(0 -1.67)"/><path d="M68.68,259.79l1.69-.16a2.06,2.06,0,0,0,.62,1.25,1.85,1.85,0,0,0,1.26.4,2,2,0,0,0,1.26-.35,1,1,0,0,0,.42-.83.78.78,0,0,0-.18-.52,1.43,1.43,0,0,0-.62-.37c-.2-.07-.67-.2-1.39-.38a4.7,4.7,0,0,1-2-.85,2.22,2.22,0,0,1-.79-1.73,2.19,2.19,0,0,1,.37-1.23,2.38,2.38,0,0,1,1.07-.87,4.26,4.26,0,0,1,1.69-.3,3.61,3.61,0,0,1,2.43.71,2.52,2.52,0,0,1,.86,1.89l-1.73.08a1.42,1.42,0,0,0-.48-.95,1.78,1.78,0,0,0-1.1-.29,2,2,0,0,0-1.18.31.63.63,0,0,0-.28.53.66.66,0,0,0,.26.52,4.48,4.48,0,0,0,1.59.57,8,8,0,0,1,1.87.62,2.42,2.42,0,0,1,1,.87,2.71,2.71,0,0,1-.07,2.75,2.45,2.45,0,0,1-1.16,1,4.84,4.84,0,0,1-1.87.31,3.71,3.71,0,0,1-2.5-.75A3.25,3.25,0,0,1,68.68,259.79Z" transform="translate(0 -1.67)"/><path d="M77.12,262.58V254h6.37v1.45H78.86v1.9h4.31v1.45H78.86v2.34h4.8v1.45Z" transform="translate(0 -1.67)"/><path d="M88.46,254h3.17a6.15,6.15,0,0,1,1.63.16,2.83,2.83,0,0,1,1.29.79,3.91,3.91,0,0,1,.82,1.39,6.3,6.3,0,0,1,.28,2,5.81,5.81,0,0,1-.26,1.83,3.78,3.78,0,0,1-.92,1.52,3.18,3.18,0,0,1-1.22.69,5.27,5.27,0,0,1-1.54.18H88.45V254Zm1.73,1.46v5.69h1.29a5.15,5.15,0,0,0,1-.08,1.61,1.61,0,0,0,.7-.36,1.7,1.7,0,0,0,.45-.83,5.88,5.88,0,0,0,.18-1.57,5.06,5.06,0,0,0-.18-1.53,2,2,0,0,0-.49-.83,1.64,1.64,0,0,0-.8-.4,8.4,8.4,0,0,0-1.42-.08h-.78Z" transform="translate(0 -1.67)"/><path d="M97.13,262.58V254h6.37v1.45H98.87v1.9h4.31v1.45H98.87v2.34h4.8v1.45Z" transform="translate(0 -1.67)"/><path d="M105.15,262.58V254h1.69l3.52,5.74V254H112v8.59h-1.74l-3.46-5.6v5.6Z" transform="translate(0 -1.67)"/><path d="M113.36,259.79l1.69-.16a2.06,2.06,0,0,0,.62,1.25,1.85,1.85,0,0,0,1.26.4,2,2,0,0,0,1.26-.35,1,1,0,0,0,.42-.83.78.78,0,0,0-.18-.52,1.43,1.43,0,0,0-.62-.37c-.2-.07-.67-.2-1.39-.38a4.7,4.7,0,0,1-2-.85,2.22,2.22,0,0,1-.79-1.73A2.19,2.19,0,0,1,114,255a2.38,2.38,0,0,1,1.07-.87,4.26,4.26,0,0,1,1.69-.3,3.61,3.61,0,0,1,2.43.71,2.52,2.52,0,0,1,.86,1.89l-1.73.08a1.42,1.42,0,0,0-.48-.95,1.78,1.78,0,0,0-1.1-.29,2,2,0,0,0-1.18.31.63.63,0,0,0-.28.53.66.66,0,0,0,.26.52,4.48,4.48,0,0,0,1.59.57,8,8,0,0,1,1.87.62,2.42,2.42,0,0,1,.95.87,2.71,2.71,0,0,1-.07,2.75,2.45,2.45,0,0,1-1.16,1,4.84,4.84,0,0,1-1.87.31,3.71,3.71,0,0,1-2.5-.75A3.25,3.25,0,0,1,113.36,259.79Z" transform="translate(0 -1.67)"/><path d="M121.75,262.58V254h1.73v8.59Z" transform="translate(0 -1.67)"/><path d="M127.07,262.58v-7.14h-2.55V254h6.83v1.45h-2.54v7.14Z" transform="translate(0 -1.67)"/><path d="M134.72,262.58V259l-3.15-5h2l2,3.4,2-3.4h2l-3.16,5v3.6Z" transform="translate(0 -1.67)"/><rect x="154.31" y="266.57" width="153.18" height="15.49" fill="#fff"/><path d="M163.45,279.76H161.8v-6.21a5.69,5.69,0,0,1-2.13,1.25v-1.49a4.75,4.75,0,0,0,1.4-.8,3.09,3.09,0,0,0,1-1.37h1.34v8.62Z" transform="translate(0 -1.67)"/><path d="M165.38,279.91l2.13-8.88h1.24l-2.15,8.88Z" transform="translate(0 -1.67)"/><path d="M168.87,273.54h.91v-.47a3.14,3.14,0,0,1,.17-1.17,1.3,1.3,0,0,1,.62-.63,2.39,2.39,0,0,1,1.13-.24,4.62,4.62,0,0,1,1.38.21l-.22,1.15a3.35,3.35,0,0,0-.76-.09.66.66,0,0,0-.51.17,1,1,0,0,0-.16.64v.44h1.23v1.29h-1.23v4.93h-1.65v-4.93h-.91v-1.3Z" transform="translate(0 -1.67)"/><path d="M182.43,276.6l1.68.53a3.8,3.8,0,0,1-1.29,2.09,3.63,3.63,0,0,1-2.28.68,3.68,3.68,0,0,1-2.81-1.17,4.49,4.49,0,0,1-1.1-3.2,4.68,4.68,0,0,1,1.11-3.33,3.81,3.81,0,0,1,2.91-1.19,3.58,3.58,0,0,1,2.56.93,3.43,3.43,0,0,1,.88,1.58l-1.72.41a1.73,1.73,0,0,0-.64-1.05,1.87,1.87,0,0,0-1.17-.39,2,2,0,0,0-1.55.69,3.35,3.35,0,0,0-.59,2.22,3.59,3.59,0,0,0,.59,2.32,1.9,1.9,0,0,0,1.52.69,1.75,1.75,0,0,0,1.19-.44A2.48,2.48,0,0,0,182.43,276.6Z" transform="translate(0 -1.67)"/><path d="M185.25,275.52a5.45,5.45,0,0,1,.39-2.2,4.1,4.1,0,0,1,.8-1.18,3.23,3.23,0,0,1,1.11-.77,4.66,4.66,0,0,1,1.85-.34,4,4,0,0,1,3,1.18,5.26,5.26,0,0,1,0,6.53,4,4,0,0,1-3,1.17,4.05,4.05,0,0,1-3.05-1.17A4.41,4.41,0,0,1,185.25,275.52Zm1.79-.06a3.21,3.21,0,0,0,.67,2.21,2.2,2.2,0,0,0,1.71.75,2.17,2.17,0,0,0,1.7-.75,3.31,3.31,0,0,0,.67-2.24,3.23,3.23,0,0,0-.65-2.2,2.39,2.39,0,0,0-3.45,0A3.24,3.24,0,0,0,187,275.46Z" transform="translate(0 -1.67)"/><path d="M194.94,279.76v-8.59h3.65a6.39,6.39,0,0,1,2,.23,2,2,0,0,1,1,.82,2.47,2.47,0,0,1,.38,1.35,2.31,2.31,0,0,1-.57,1.6,2.75,2.75,0,0,1-1.7.79,4.16,4.16,0,0,1,.93.72,10,10,0,0,1,1,1.39l1,1.68H200.6l-1.25-1.87a12.9,12.9,0,0,0-.91-1.26,1.44,1.44,0,0,0-.52-.36,2.63,2.63,0,0,0-.87-.1h-.35v3.59h-1.76Zm1.73-5H198a6.59,6.59,0,0,0,1.56-.11,1,1,0,0,0,.49-.36,1.1,1.1,0,0,0,.18-.64,1,1,0,0,0-.88-1c-.14,0-.56,0-1.27,0h-1.35v2.18Z" transform="translate(0 -1.67)"/><path d="M203.62,279.76v-8.59h1.69l3.52,5.74v-5.74h1.61v8.59H208.7l-3.46-5.6v5.6Z" transform="translate(0 -1.67)"/><path d="M212.27,279.76v-8.59h6.37v1.45H214v1.9h4.31V276H214v2.34h4.8v1.45Z" transform="translate(0 -1.67)"/><path d="M220.28,279.76v-8.59h3.65a6.39,6.39,0,0,1,2,.23,2,2,0,0,1,1,.82,2.47,2.47,0,0,1,.38,1.35,2.31,2.31,0,0,1-.57,1.6,2.75,2.75,0,0,1-1.7.79,4.16,4.16,0,0,1,.93.72,10,10,0,0,1,1,1.39l1,1.68h-2.07l-1.25-1.87a12.9,12.9,0,0,0-.91-1.26,1.44,1.44,0,0,0-.52-.36,2.63,2.63,0,0,0-.87-.1H222v3.59h-1.76Zm1.73-5h1.28a6.59,6.59,0,0,0,1.56-.11,1,1,0,0,0,.49-.36,1.1,1.1,0,0,0,.18-.64,1,1,0,0,0-.88-1c-.14,0-.56,0-1.27,0H222v2.18Z" transform="translate(0 -1.67)"/><path d="M232.28,279.76v-8.59h5.89v1.45H234v2h3.59v1.45H234v3.65h-1.74Z" transform="translate(0 -1.67)"/><path d="M239.61,279.76v-8.59h3.65a6.39,6.39,0,0,1,2,.23,2,2,0,0,1,1,.82,2.47,2.47,0,0,1,.38,1.35,2.31,2.31,0,0,1-.57,1.6,2.75,2.75,0,0,1-1.7.79,4.16,4.16,0,0,1,.93.72,10,10,0,0,1,1,1.39l1.05,1.68h-2.07L244,277.88a12.9,12.9,0,0,0-.91-1.26,1.44,1.44,0,0,0-.52-.36,2.63,2.63,0,0,0-.87-.1h-.35v3.59h-1.76Zm1.73-5h1.28a6.59,6.59,0,0,0,1.56-.11,1,1,0,0,0,.49-.36,1.1,1.1,0,0,0,.18-.64,1,1,0,0,0-.88-1c-.14,0-.56,0-1.27,0h-1.35v2.18Z" transform="translate(0 -1.67)"/><path d="M248.27,279.76v-8.59h6.37v1.45H250v1.9h4.31V276H250v2.34h4.8v1.45Z" transform="translate(0 -1.67)"/><path d="M263.18,278.67a6,6,0,0,0,1.39.73l-.64,1.22a4.64,4.64,0,0,1-.77-.32c-.05,0-.44-.28-1.15-.76a4.56,4.56,0,0,1-1.87.37,4.09,4.09,0,0,1-3.1-1.17,5.35,5.35,0,0,1,0-6.55,4.53,4.53,0,0,1,6.08,0,4.52,4.52,0,0,1,1.12,3.27,5.64,5.64,0,0,1-.31,2A3.82,3.82,0,0,1,263.18,278.67Zm-1.39-1a2.61,2.61,0,0,0,.5-.95,4.51,4.51,0,0,0,.17-1.28,3.24,3.24,0,0,0-.66-2.22,2.37,2.37,0,0,0-3.44,0,3.24,3.24,0,0,0-.66,2.22,3.32,3.32,0,0,0,.66,2.25,2.13,2.13,0,0,0,1.67.75,2.08,2.08,0,0,0,.71-.12,5.12,5.12,0,0,0-1.07-.54l.49-1A6,6,0,0,1,261.79,277.69Z" transform="translate(0 -1.67)"/><path d="M265.59,271.17h1.73v4.65a10.44,10.44,0,0,0,.06,1.44,1.4,1.4,0,0,0,.53.85,1.81,1.81,0,0,0,1.15.32,1.75,1.75,0,0,0,1.11-.3,1.19,1.19,0,0,0,.45-.74,9.62,9.62,0,0,0,.08-1.46v-4.75h1.73v4.51a12,12,0,0,1-.14,2.19,2.37,2.37,0,0,1-.52,1.08,2.61,2.61,0,0,1-1,.7,4.45,4.45,0,0,1-1.65.26,4.8,4.8,0,0,1-1.87-.28,2.59,2.59,0,0,1-1-.74,2.47,2.47,0,0,1-.49-.95,10.66,10.66,0,0,1-.17-2.18v-4.6Z" transform="translate(0 -1.67)"/><path d="M274.27,279.76v-8.59h6.37v1.45H276v1.9h4.31V276H276v2.34h4.8v1.45Z" transform="translate(0 -1.67)"/><path d="M282.29,279.76v-8.59H284l3.52,5.74v-5.74h1.61v8.59h-1.74l-3.46-5.6v5.6Z" transform="translate(0 -1.67)"/><path d="M296.44,276.6l1.68.53a3.8,3.8,0,0,1-1.29,2.09,3.63,3.63,0,0,1-2.28.68,3.68,3.68,0,0,1-2.81-1.17,4.49,4.49,0,0,1-1.1-3.2,4.68,4.68,0,0,1,1.11-3.33,3.81,3.81,0,0,1,2.91-1.19,3.58,3.58,0,0,1,2.56.93,3.43,3.43,0,0,1,.88,1.58l-1.72.41a1.73,1.73,0,0,0-.64-1.05,1.87,1.87,0,0,0-1.17-.39,2,2,0,0,0-1.55.69,3.35,3.35,0,0,0-.59,2.22,3.59,3.59,0,0,0,.59,2.32,1.9,1.9,0,0,0,1.52.69,1.75,1.75,0,0,0,1.19-.44A2.54,2.54,0,0,0,296.44,276.6Z" transform="translate(0 -1.67)"/><path d="M301.86,279.76v-3.62l-3.15-5h2l2,3.4,2-3.4h2l-3.16,5v3.6Z" transform="translate(0 -1.67)"/><line x1="63.17" y1="86.2" x2="226.73" y2="232.22" fill="none" stroke="#000" stroke-linejoin="round" stroke-width="2.5"/><line x1="64.15" y1="193.4" x2="400.02" y2="195.99" fill="none" stroke="#000" stroke-linejoin="round" stroke-width="2.5" stroke-dasharray="8 4"/><path d="M107.46,117.87c2.8,4.85,3.88,13.57,12.6,21.84,13.08,12.43,46.56,43.53,65.87,52.69s38.08,1.9,50,2.28c10.76.34,15-.24,21.54,0,7.17.27,15.85,1,21.53,1.59s9,1.73,12.6,2.07a73.6,73.6,0,0,0,8.94,0h6.94c2.09,0,3.91-.06,5.66,0s3.3.29,4.79.43a30.64,30.64,0,0,0,4.15.43c1.3-.07,2.5-.72,3.66-.87.71-.09,1.64,0,3.27,0,2.65,0,9-.06,12.6,0s5.35.36,8.94.43,9,0,12.59,0h37.42" transform="translate(0 -1.67)" fill="none" stroke="#787878" stroke-linecap="round" stroke-linejoin="round" stroke-width="2"/><path d="M182.46,196.15a2.35,2.35,0,0,1,2.25-2.44h0a2.35,2.35,0,0,1,2.25,2.44h0a2.35,2.35,0,0,1-2.25,2.43h0a2.35,2.35,0,0,1-2.25-2.43Z" transform="translate(0 -1.67)" fill="#fff" stroke="#000"/><line x1="201.87" y1="91.77" x2="158.28" y2="153.26" fill="none" stroke="#000" stroke-width="1.5"/><polygon points="156.82 149.22 151.99 162.16 162.64 153.37 156.82 149.22"/><line x1="100.89" y1="225.41" x2="116.42" y2="203.51" fill="none" stroke="#000" stroke-width="1.5"/><polygon points="117.87 207.54 122.7 194.6 112.06 203.39 117.87 207.54"/><line x1="206.58" y1="266.74" x2="188.29" y2="207.85" fill="none" stroke="#000" stroke-width="1.5"/><polygon points="192.38 209.14 185.03 197.46 185.55 211.25 192.38 209.14"/><rect x="42.77" y="4.91" width="358.49" height="286.51" fill="none" stroke="#000" stroke-linecap="square" stroke-miterlimit="14.3" stroke-width="1.5"/></svg>