<svg id="a294b94d-4dac-4764-9788-10ed77517249" data-name="Layer 1" xmlns="http://www.w3.org/2000/svg" width="10.96in" height="8.63in" viewBox="0 0 789.16 621.47"><title>07053-002</title><line x1="47.82" y1="521.99" x2="766.54" y2="521.99" fill="none" stroke="#ccc"/><line x1="47.82" y1="488.35" x2="766.54" y2="488.35" fill="none" stroke="#ccc"/><line x1="47.82" y1="464.38" x2="766.54" y2="464.38" fill="none" stroke="#ccc"/><line x1="47.82" y1="445.95" x2="766.54" y2="445.95" fill="none" stroke="#ccc"/><line x1="47.82" y1="430.74" x2="766.54" y2="430.74" fill="none" stroke="#ccc"/><line x1="47.82" y1="418.04" x2="766.54" y2="418.04" fill="none" stroke="#ccc"/><line x1="47.82" y1="406.94" x2="766.54" y2="406.94" fill="none" stroke="#ccc"/><line x1="47.82" y1="397.1" x2="766.54" y2="397.1" fill="none" stroke="#ccc"/><line x1="47.82" y1="388.34" x2="766.54" y2="388.34" fill="none" stroke="#ccc" stroke-width="1.5"/><line x1="47.82" y1="330.9" x2="766.54" y2="330.9" fill="none" stroke="#ccc"/><line x1="47.82" y1="297.26" x2="766.54" y2="297.26" fill="none" stroke="#ccc"/><line x1="47.82" y1="273.47" x2="766.54" y2="273.47" fill="none" stroke="#ccc"/><line x1="47.82" y1="254.86" x2="766.54" y2="254.86" fill="none" stroke="#ccc"/><line x1="47.82" y1="239.83" x2="766.54" y2="239.83" fill="none" stroke="#ccc"/><line x1="47.82" y1="226.95" x2="766.54" y2="226.95" fill="none" stroke="#ccc"/><line x1="47.82" y1="215.85" x2="766.54" y2="215.85" fill="none" stroke="#ccc"/><line x1="47.82" y1="206.19" x2="766.54" y2="206.19" fill="none" stroke="#ccc"/><line x1="47.82" y1="197.43" x2="766.54" y2="197.43" fill="none" stroke="#ccc" stroke-width="1.5"/><line x1="47.82" y1="139.81" x2="766.54" y2="139.81" fill="none" stroke="#ccc"/><line x1="47.82" y1="106.18" x2="766.54" y2="106.18" fill="none" stroke="#ccc"/><line x1="47.82" y1="82.38" x2="766.54" y2="82.38" fill="none" stroke="#ccc"/><line x1="47.82" y1="63.77" x2="766.54" y2="63.77" fill="none" stroke="#ccc"/><line x1="47.82" y1="48.74" x2="766.54" y2="48.74" fill="none" stroke="#ccc"/><line x1="47.82" y1="35.86" x2="766.54" y2="35.86" fill="none" stroke="#ccc"/><line x1="47.82" y1="24.77" x2="766.54" y2="24.77" fill="none" stroke="#ccc"/><line x1="47.82" y1="15.11" x2="766.54" y2="15.11" fill="none" stroke="#ccc"/><line x1="91.04" y1="6.34" x2="91.04" y2="580.74" fill="none" stroke="#ccc"/><line x1="116.44" y1="6.34" x2="116.44" y2="580.74" fill="none" stroke="#ccc"/><line x1="134.4" y1="6.34" x2="134.4" y2="580.74" fill="none" stroke="#ccc"/><line x1="148.27" y1="6.34" x2="148.27" y2="580.74" fill="none" stroke="#ccc"/><line x1="159.65" y1="6.34" x2="159.65" y2="580.74" fill="none" stroke="#ccc"/><line x1="169.29" y1="6.34" x2="169.29" y2="580.74" fill="none" stroke="#ccc"/><line x1="177.61" y1="6.34" x2="177.61" y2="580.74" fill="none" stroke="#ccc"/><line x1="185.06" y1="6.34" x2="185.06" y2="580.74" fill="none" stroke="#ccc"/><line x1="234.84" y1="6.34" x2="234.84" y2="580.74" fill="none" stroke="#ccc"/><line x1="260.1" y1="6.34" x2="260.1" y2="580.74" fill="none" stroke="#ccc"/><line x1="278.05" y1="6.34" x2="278.05" y2="580.74" fill="none" stroke="#ccc"/><line x1="292.06" y1="6.34" x2="292.06" y2="580.74" fill="none" stroke="#ccc"/><line x1="303.46" y1="6.34" x2="303.46" y2="580.74" fill="none" stroke="#ccc"/><line x1="313.09" y1="6.34" x2="313.09" y2="580.74" fill="none" stroke="#ccc"/><line x1="321.41" y1="6.34" x2="321.41" y2="580.74" fill="none" stroke="#ccc"/><line x1="328.71" y1="6.34" x2="328.71" y2="580.74" fill="none" stroke="#ccc"/><line x1="378.64" y1="6.34" x2="378.64" y2="580.74" fill="none" stroke="#ccc"/><line x1="403.9" y1="6.34" x2="403.9" y2="580.74" fill="none" stroke="#ccc"/><line x1="421.86" y1="6.34" x2="421.86" y2="580.74" fill="none" stroke="#ccc"/><line x1="435.73" y1="6.34" x2="435.73" y2="580.74" fill="none" stroke="#ccc"/><line x1="447.11" y1="6.34" x2="447.11" y2="580.74" fill="none" stroke="#ccc"/><line x1="456.75" y1="6.34" x2="456.75" y2="580.74" fill="none" stroke="#ccc"/><line x1="465.07" y1="6.34" x2="465.07" y2="580.74" fill="none" stroke="#ccc"/><line x1="472.51" y1="6.34" x2="472.51" y2="580.74" fill="none" stroke="#ccc"/><line x1="522.3" y1="6.34" x2="522.3" y2="580.74" fill="none" stroke="#ccc"/><line x1="547.7" y1="6.34" x2="547.7" y2="580.74" fill="none" stroke="#ccc"/><line x1="565.66" y1="6.34" x2="565.66" y2="580.74" fill="none" stroke="#ccc"/><line x1="579.53" y1="6.34" x2="579.53" y2="580.74" fill="none" stroke="#ccc"/><line x1="590.91" y1="6.34" x2="590.91" y2="580.74" fill="none" stroke="#ccc"/><line x1="600.55" y1="6.34" x2="600.55" y2="580.74" fill="none" stroke="#ccc"/><line x1="608.87" y1="6.34" x2="608.87" y2="580.74" fill="none" stroke="#ccc"/><line x1="616.17" y1="6.34" x2="616.17" y2="580.74" fill="none" stroke="#ccc"/><line x1="666.1" y1="6.34" x2="666.1" y2="580.74" fill="none" stroke="#ccc"/><line x1="691.36" y1="6.34" x2="691.36" y2="580.74" fill="none" stroke="#ccc"/><line x1="709.31" y1="6.34" x2="709.31" y2="580.74" fill="none" stroke="#ccc"/><line x1="723.33" y1="6.34" x2="723.33" y2="580.74" fill="none" stroke="#ccc"/><line x1="734.72" y1="6.34" x2="734.72" y2="580.74" fill="none" stroke="#ccc"/><line x1="744.21" y1="6.34" x2="744.21" y2="580.74" fill="none" stroke="#ccc"/><line x1="752.68" y1="6.34" x2="752.68" y2="580.74" fill="none" stroke="#ccc"/><line x1="759.97" y1="6.34" x2="759.97" y2="580.74" fill="none" stroke="#ccc"/><line x1="191.63" y1="6.34" x2="191.63" y2="580.74" fill="none" stroke="#ccc" stroke-width="1.5"/><line x1="335.28" y1="6.34" x2="335.28" y2="580.74" fill="none" stroke="#ccc" stroke-width="1.5"/><line x1="479.09" y1="6.34" x2="479.09" y2="580.74" fill="none" stroke="#ccc" stroke-width="1.5"/><line x1="622.74" y1="6.34" x2="622.74" y2="580.74" fill="none" stroke="#ccc" stroke-width="1.5"/><polygon points="82.95 33.82 82.95 52.2 138.08 52.2 138.08 33.82 82.95 33.82" fill="#fff" fill-rule="evenodd"/><path d="M87.43,43.79h.91v-.47a3.14,3.14,0,0,1,.17-1.17,1.3,1.3,0,0,1,.62-.63,2.39,2.39,0,0,1,1.13-.24,4.62,4.62,0,0,1,1.38.21l-.22,1.15a3.35,3.35,0,0,0-.76-.09.66.66,0,0,0-.51.17,1,1,0,0,0-.16.64v.44h1.23v1.29H90V50H88.34V45.09h-.91v-1.3Z" transform="translate(0 -1.67)"/><path d="M95.12,45.23V43.72h6v1.51Zm0,2.6V46.31h6v1.52Z" transform="translate(0 -1.67)"/><path d="M109.68,50H108V43.8a5.69,5.69,0,0,1-2.13,1.25V43.56a4.75,4.75,0,0,0,1.4-.8,3.09,3.09,0,0,0,1-1.37h1.34Z" transform="translate(0 -1.67)"/><path d="M112.44,50V41.42h1.65V46L116,43.79h2l-2.13,2.27L118.2,50h-1.78l-1.56-2.79-.77.8v2Z" transform="translate(0 -1.67)"/><path d="M119.19,50V41.42h1.73V44.8h3.4V41.42h1.73V50h-1.73V46.25h-3.4V50Z" transform="translate(0 -1.67)"/><path d="M127.17,50V48.73l2.33-2.68c.38-.44.67-.75.85-.93l-.76,0h-2.2V43.78h5.14V45l-2.38,2.74-.84.91.85,0h2.55V50Z" transform="translate(0 -1.67)"/><polygon points="366.85 34.89 366.85 65.56 540.32 65.56 540.32 34.89 366.85 34.89" fill="#fff" fill-rule="evenodd"/><path d="M389.22,41.91H391v5.44a5.36,5.36,0,0,1-.19,1.64,2.31,2.31,0,0,1-.91,1.2,3,3,0,0,1-1.75.45,2.62,2.62,0,0,1-2-.71,2.88,2.88,0,0,1-.69-2.09l1.63-.19a2.2,2.2,0,0,0,.22,1,.93.93,0,0,0,.86.46.94.94,0,0,0,.82-.33,2.6,2.6,0,0,0,.24-1.37Z" transform="translate(0 -1.67)"/><path d="M392.45,46.26a5.45,5.45,0,0,1,.39-2.2,4.1,4.1,0,0,1,.8-1.18,3.23,3.23,0,0,1,1.11-.77,4.66,4.66,0,0,1,1.85-.34,4,4,0,0,1,3,1.18,4.53,4.53,0,0,1,1.14,3.28,4.49,4.49,0,0,1-1.13,3.25,4,4,0,0,1-3,1.17,4.05,4.05,0,0,1-3.05-1.17A4.42,4.42,0,0,1,392.45,46.26Zm1.78-.06a3.21,3.21,0,0,0,.67,2.21,2.2,2.2,0,0,0,1.71.75,2.17,2.17,0,0,0,1.7-.75,3.31,3.31,0,0,0,.67-2.24,3.23,3.23,0,0,0-.65-2.2,2.39,2.39,0,0,0-3.45,0A3.24,3.24,0,0,0,394.23,46.2Z" transform="translate(0 -1.67)"/><path d="M402.14,50.5V41.91h1.73v3.38h3.4V41.91H409V50.5h-1.73V46.74h-3.4V50.5Z" transform="translate(0 -1.67)"/><path d="M410.81,50.5V41.91h1.69L416,47.65V41.91h1.61V50.5h-1.74l-3.46-5.6v5.6Z" transform="translate(0 -1.67)"/><path d="M419,47.71l1.69-.16a2.06,2.06,0,0,0,.62,1.25,1.85,1.85,0,0,0,1.26.4,2,2,0,0,0,1.26-.35,1,1,0,0,0,.42-.83.78.78,0,0,0-.18-.52,1.43,1.43,0,0,0-.62-.37c-.2-.07-.67-.2-1.39-.38a4.7,4.7,0,0,1-2-.85,2.22,2.22,0,0,1-.79-1.73,2.19,2.19,0,0,1,.37-1.23,2.38,2.38,0,0,1,1.07-.87,4.26,4.26,0,0,1,1.69-.3,3.61,3.61,0,0,1,2.43.71,2.52,2.52,0,0,1,.86,1.89l-1.73.08a1.42,1.42,0,0,0-.48-1,1.78,1.78,0,0,0-1.1-.29,2,2,0,0,0-1.18.31.63.63,0,0,0-.28.53.66.66,0,0,0,.26.52,4.48,4.48,0,0,0,1.59.57,8,8,0,0,1,1.87.62,2.42,2.42,0,0,1,.95.87,2.71,2.71,0,0,1-.07,2.75,2.45,2.45,0,0,1-1.16,1,4.84,4.84,0,0,1-1.87.31,3.71,3.71,0,0,1-2.5-.75A3.29,3.29,0,0,1,419,47.71Z" transform="translate(0 -1.67)"/><path d="M427.12,46.26a5.45,5.45,0,0,1,.39-2.2,4.1,4.1,0,0,1,.8-1.18,3.23,3.23,0,0,1,1.11-.77,4.66,4.66,0,0,1,1.85-.34,4,4,0,0,1,3,1.18,4.53,4.53,0,0,1,1.14,3.28,4.49,4.49,0,0,1-1.13,3.25,4,4,0,0,1-3,1.17,4.05,4.05,0,0,1-3.05-1.17A4.42,4.42,0,0,1,427.12,46.26Zm1.78-.06a3.21,3.21,0,0,0,.67,2.21,2.2,2.2,0,0,0,1.71.75,2.17,2.17,0,0,0,1.7-.75,3.31,3.31,0,0,0,.67-2.24A3.23,3.23,0,0,0,433,44a2.39,2.39,0,0,0-3.45,0A3.24,3.24,0,0,0,428.9,46.2Z" transform="translate(0 -1.67)"/><path d="M436.82,50.5V41.91h1.69L442,47.65V41.91h1.61V50.5H441.9l-3.46-5.6v5.6Z" transform="translate(0 -1.67)"/><path d="M448.82,50.5V41.91h1.69L454,47.65V41.91h1.61V50.5H453.9l-3.46-5.6v5.6Z" transform="translate(0 -1.67)"/><path d="M457.12,46.26a5.45,5.45,0,0,1,.39-2.2,4.1,4.1,0,0,1,.8-1.18,3.23,3.23,0,0,1,1.11-.77,4.66,4.66,0,0,1,1.85-.34,4,4,0,0,1,3,1.18,4.53,4.53,0,0,1,1.14,3.28,4.49,4.49,0,0,1-1.13,3.25,4,4,0,0,1-3,1.17,4.05,4.05,0,0,1-3.05-1.17A4.42,4.42,0,0,1,457.12,46.26Zm1.78-.06a3.21,3.21,0,0,0,.67,2.21,2.2,2.2,0,0,0,1.71.75,2.17,2.17,0,0,0,1.7-.75,3.31,3.31,0,0,0,.67-2.24A3.23,3.23,0,0,0,463,44a2.39,2.39,0,0,0-3.45,0A3.24,3.24,0,0,0,458.9,46.2Z" transform="translate(0 -1.67)"/><path d="M466.75,50.5V41.91h1.73V50.5Z" transform="translate(0 -1.67)"/><path d="M469.7,47.71l1.69-.16A2.06,2.06,0,0,0,472,48.8a1.85,1.85,0,0,0,1.26.4,2,2,0,0,0,1.26-.35A1,1,0,0,0,475,48a.78.78,0,0,0-.18-.52,1.43,1.43,0,0,0-.62-.37c-.2-.07-.67-.2-1.39-.38a4.7,4.7,0,0,1-2-.85,2.22,2.22,0,0,1-.79-1.73,2.19,2.19,0,0,1,.37-1.23,2.38,2.38,0,0,1,1.07-.87,4.26,4.26,0,0,1,1.69-.3,3.61,3.61,0,0,1,2.43.71,2.52,2.52,0,0,1,.86,1.89l-1.73.08a1.42,1.42,0,0,0-.48-1,1.78,1.78,0,0,0-1.1-.29,2,2,0,0,0-1.18.31.63.63,0,0,0-.28.53.66.66,0,0,0,.26.52,4.48,4.48,0,0,0,1.59.57,8,8,0,0,1,1.87.62,2.42,2.42,0,0,1,.95.87,2.71,2.71,0,0,1-.07,2.75,2.45,2.45,0,0,1-1.16,1,4.84,4.84,0,0,1-1.87.31,3.71,3.71,0,0,1-2.5-.75A3.25,3.25,0,0,1,469.7,47.71Z" transform="translate(0 -1.67)"/><path d="M478.14,50.5V41.91h6.37v1.45h-4.63v1.9h4.31v1.45h-4.31v2.34h4.8V50.5Z" transform="translate(0 -1.67)"/><path d="M489.52,50.5V42h1.73v7.07h4.31V50.5Z" transform="translate(0 -1.67)"/><path d="M496.75,50.5V41.91h1.73V50.5Z" transform="translate(0 -1.67)"/><path d="M500.16,50.5V41.91h1.69l3.52,5.74V41.91H507V50.5h-1.74l-3.46-5.6v5.6Z" transform="translate(0 -1.67)"/><path d="M508.81,50.5V41.91h6.37v1.45h-4.63v1.9h4.31v1.45h-4.31v2.34h4.8V50.5Z" transform="translate(0 -1.67)"/><path d="M385.77,58.26a5.45,5.45,0,0,1,.39-2.2,4.1,4.1,0,0,1,.8-1.18,3.23,3.23,0,0,1,1.11-.77,4.66,4.66,0,0,1,1.85-.34A4,4,0,0,1,393,55a5.26,5.26,0,0,1,0,6.53,4,4,0,0,1-3,1.17,4.05,4.05,0,0,1-3.05-1.17A4.42,4.42,0,0,1,385.77,58.26Zm1.79-.06a3.21,3.21,0,0,0,.67,2.21,2.2,2.2,0,0,0,1.71.75,2.17,2.17,0,0,0,1.7-.75,3.31,3.31,0,0,0,.67-2.24,3.23,3.23,0,0,0-.65-2.2,2.39,2.39,0,0,0-3.45,0A3.24,3.24,0,0,0,387.56,58.2Z" transform="translate(0 -1.67)"/><path d="M395.47,62.5V53.91h5.89v1.45h-4.15v2h3.59v1.45h-3.59v3.65h-1.74Z" transform="translate(0 -1.67)"/><path d="M405.68,59.71l1.69-.16A2.06,2.06,0,0,0,408,60.8a1.85,1.85,0,0,0,1.26.4,2,2,0,0,0,1.26-.35,1,1,0,0,0,.42-.83.78.78,0,0,0-.18-.52,1.43,1.43,0,0,0-.62-.37c-.2-.07-.67-.2-1.39-.38a4.7,4.7,0,0,1-2-.85,2.22,2.22,0,0,1-.79-1.73,2.19,2.19,0,0,1,.37-1.23,2.38,2.38,0,0,1,1.07-.87,4.26,4.26,0,0,1,1.69-.3,3.61,3.61,0,0,1,2.43.71,2.52,2.52,0,0,1,.86,1.89l-1.73.08a1.42,1.42,0,0,0-.48-1,1.78,1.78,0,0,0-1.1-.29,2,2,0,0,0-1.18.31.63.63,0,0,0-.28.53.66.66,0,0,0,.26.52,4.48,4.48,0,0,0,1.59.57,8,8,0,0,1,1.87.62,2.42,2.42,0,0,1,.95.87,2.71,2.71,0,0,1-.07,2.75,2.45,2.45,0,0,1-1.16,1,4.84,4.84,0,0,1-1.87.31,3.71,3.71,0,0,1-2.5-.75A3.29,3.29,0,0,1,405.68,59.71Z" transform="translate(0 -1.67)"/><path d="M413.77,58.26a5.45,5.45,0,0,1,.39-2.2,4.1,4.1,0,0,1,.8-1.18,3.23,3.23,0,0,1,1.11-.77,4.66,4.66,0,0,1,1.85-.34A4,4,0,0,1,421,55a5.26,5.26,0,0,1,0,6.53,4,4,0,0,1-3,1.17,4.05,4.05,0,0,1-3.05-1.17A4.42,4.42,0,0,1,413.77,58.26Zm1.79-.06a3.21,3.21,0,0,0,.67,2.21,2.2,2.2,0,0,0,1.71.75,2.17,2.17,0,0,0,1.7-.75,3.31,3.31,0,0,0,.67-2.24,3.23,3.23,0,0,0-.65-2.2,2.39,2.39,0,0,0-3.45,0A3.24,3.24,0,0,0,415.56,58.2Z" transform="translate(0 -1.67)"/><path d="M423.45,53.91h1.73v4.65a10.44,10.44,0,0,0,.06,1.44,1.4,1.4,0,0,0,.53.85,1.81,1.81,0,0,0,1.15.32,1.75,1.75,0,0,0,1.11-.3,1.19,1.19,0,0,0,.45-.74,9.62,9.62,0,0,0,.08-1.46V53.92h1.73v4.51a12,12,0,0,1-.14,2.19,2.37,2.37,0,0,1-.52,1.08,2.61,2.61,0,0,1-1,.7,4.45,4.45,0,0,1-1.65.26,4.8,4.8,0,0,1-1.87-.28,2.59,2.59,0,0,1-1-.74,2.47,2.47,0,0,1-.49-1,10.66,10.66,0,0,1-.17-2.18v-4.6Z" transform="translate(0 -1.67)"/><path d="M432.13,62.5V53.91h3.65a6.39,6.39,0,0,1,2,.23,2,2,0,0,1,1,.82,2.47,2.47,0,0,1,.38,1.35,2.31,2.31,0,0,1-.57,1.6,2.75,2.75,0,0,1-1.7.79,4.16,4.16,0,0,1,.93.72,10,10,0,0,1,1,1.39l1.05,1.68h-2.07l-1.25-1.87a12.9,12.9,0,0,0-.91-1.26,1.44,1.44,0,0,0-.52-.36,2.63,2.63,0,0,0-.87-.1h-.35v3.59h-1.76Zm1.74-5h1.28a6.59,6.59,0,0,0,1.56-.11,1,1,0,0,0,.49-.36,1.1,1.1,0,0,0,.18-.64,1,1,0,0,0-.88-1c-.14,0-.56,0-1.27,0h-1.35v2.18Z" transform="translate(0 -1.67)"/><path d="M446.29,59.34l1.68.53A3.8,3.8,0,0,1,446.68,62a3.63,3.63,0,0,1-2.28.68,3.68,3.68,0,0,1-2.81-1.17,4.49,4.49,0,0,1-1.1-3.2,4.68,4.68,0,0,1,1.11-3.33,3.81,3.81,0,0,1,2.91-1.19,3.58,3.58,0,0,1,2.56.93,3.43,3.43,0,0,1,.88,1.58l-1.72.41a1.73,1.73,0,0,0-.64-1.05,1.87,1.87,0,0,0-1.17-.39,2,2,0,0,0-1.55.69,3.35,3.35,0,0,0-.59,2.22,3.59,3.59,0,0,0,.59,2.32,1.9,1.9,0,0,0,1.52.69,1.75,1.75,0,0,0,1.19-.44A2.54,2.54,0,0,0,446.29,59.34Z" transform="translate(0 -1.67)"/><path d="M449.46,62.5V53.91h6.37v1.45H451.2v1.9h4.31v1.45H451.2v2.34H456V62.5Z" transform="translate(0 -1.67)"/><path d="M460.8,62.5V53.91h3.65a6.39,6.39,0,0,1,2,.23,2,2,0,0,1,1,.82,2.47,2.47,0,0,1,.38,1.35,2.31,2.31,0,0,1-.57,1.6,2.75,2.75,0,0,1-1.7.79,4.16,4.16,0,0,1,.93.72,10,10,0,0,1,1,1.39l1,1.68h-2.07l-1.25-1.87a12.9,12.9,0,0,0-.91-1.26,1.44,1.44,0,0,0-.52-.36,2.63,2.63,0,0,0-.87-.1h-.35v3.59H460.8Zm1.74-5h1.28a6.59,6.59,0,0,0,1.56-.11,1,1,0,0,0,.49-.36,1.1,1.1,0,0,0,.18-.64,1,1,0,0,0-.88-1c-.14,0-.56,0-1.27,0h-1.35v2.18Z" transform="translate(0 -1.67)"/><path d="M469.46,62.5V53.91h6.37v1.45H471.2v1.9h4.31v1.45H471.2v2.34H476V62.5Z" transform="translate(0 -1.67)"/><path d="M477,59.71l1.69-.16a2.06,2.06,0,0,0,.62,1.25,1.85,1.85,0,0,0,1.26.4,2,2,0,0,0,1.26-.35,1,1,0,0,0,.42-.83.78.78,0,0,0-.18-.52,1.43,1.43,0,0,0-.62-.37c-.2-.07-.67-.2-1.39-.38a4.7,4.7,0,0,1-2-.85,2.22,2.22,0,0,1-.79-1.73,2.19,2.19,0,0,1,.37-1.23,2.38,2.38,0,0,1,1.07-.87,4.26,4.26,0,0,1,1.69-.3,3.61,3.61,0,0,1,2.43.71,2.52,2.52,0,0,1,.86,1.89l-1.73.08a1.42,1.42,0,0,0-.48-1,1.78,1.78,0,0,0-1.1-.29,2,2,0,0,0-1.18.31.63.63,0,0,0-.28.53.66.66,0,0,0,.26.52,4.48,4.48,0,0,0,1.59.57,8,8,0,0,1,1.87.62,2.42,2.42,0,0,1,1,.87,2.71,2.71,0,0,1-.07,2.75,2.45,2.45,0,0,1-1.16,1,4.84,4.84,0,0,1-1.87.31,3.71,3.71,0,0,1-2.5-.75A3.25,3.25,0,0,1,477,59.71Z" transform="translate(0 -1.67)"/><path d="M485.42,62.5V53.91h1.73V62.5Z" transform="translate(0 -1.67)"/><path d="M488.36,59.71l1.69-.16a2.06,2.06,0,0,0,.62,1.25,1.85,1.85,0,0,0,1.26.4,2,2,0,0,0,1.26-.35,1,1,0,0,0,.42-.83.78.78,0,0,0-.18-.52,1.43,1.43,0,0,0-.62-.37c-.2-.07-.67-.2-1.39-.38a4.7,4.7,0,0,1-2-.85,2.22,2.22,0,0,1-.79-1.73,2.19,2.19,0,0,1,.37-1.23,2.38,2.38,0,0,1,1.07-.87,4.26,4.26,0,0,1,1.69-.3,3.61,3.61,0,0,1,2.43.71,2.52,2.52,0,0,1,.86,1.89l-1.73.08a1.42,1.42,0,0,0-.48-1,1.78,1.78,0,0,0-1.1-.29,2,2,0,0,0-1.18.31.63.63,0,0,0-.28.53.66.66,0,0,0,.26.52,4.48,4.48,0,0,0,1.59.57,8,8,0,0,1,1.87.62,2.42,2.42,0,0,1,.95.87,2.71,2.71,0,0,1-.07,2.75,2.45,2.45,0,0,1-1.16,1,4.84,4.84,0,0,1-1.87.31,3.71,3.71,0,0,1-2.5-.75A3.29,3.29,0,0,1,488.36,59.71Z" transform="translate(0 -1.67)"/><path d="M498.74,62.5V55.36h-2.55V53.91H503v1.45h-2.54V62.5Z" transform="translate(0 -1.67)"/><path d="M511.88,62.5H510l-.75-2h-3.43l-.71,2h-1.84l3.35-8.59h1.83Zm-3.19-3.4-1.18-3.19-1.16,3.19Z" transform="translate(0 -1.67)"/><path d="M512.82,62.5V53.91h1.69L518,59.65V53.91h1.61V62.5H517.9l-3.46-5.6v5.6Z" transform="translate(0 -1.67)"/><path d="M527,59.34l1.68.53A3.8,3.8,0,0,1,527.36,62a3.63,3.63,0,0,1-2.28.68,3.68,3.68,0,0,1-2.81-1.17,4.49,4.49,0,0,1-1.1-3.2,4.68,4.68,0,0,1,1.11-3.33,3.81,3.81,0,0,1,2.91-1.19,3.58,3.58,0,0,1,2.56.93,3.43,3.43,0,0,1,.88,1.58l-1.72.41a1.73,1.73,0,0,0-.64-1.05,1.87,1.87,0,0,0-1.17-.39,2,2,0,0,0-1.55.69,3.35,3.35,0,0,0-.59,2.22,3.59,3.59,0,0,0,.59,2.32,1.9,1.9,0,0,0,1.52.69,1.75,1.75,0,0,0,1.19-.44A2.54,2.54,0,0,0,527,59.34Z" transform="translate(0 -1.67)"/><path d="M530.14,62.5V53.91h6.37v1.45h-4.63v1.9h4.31v1.45h-4.31v2.34h4.8V62.5Z" transform="translate(0 -1.67)"/><path d="M23.42,10.3H21.77V4.09a5.69,5.69,0,0,1-2.13,1.25V3.84A4.75,4.75,0,0,0,21,3a3.09,3.09,0,0,0,1-1.37h1.34Z" transform="translate(0 -1.67)"/><path d="M28.66,1.67a2.36,2.36,0,0,1,1.95.89,5.67,5.67,0,0,1,.84,3.5,5.71,5.71,0,0,1-.84,3.5,2.33,2.33,0,0,1-1.95.88,2.45,2.45,0,0,1-2-1A5.71,5.71,0,0,1,25.87,6a5.68,5.68,0,0,1,.84-3.49A2.35,2.35,0,0,1,28.66,1.67Zm0,1.37a.78.78,0,0,0-.53.19,1.27,1.27,0,0,0-.36.68,9.62,9.62,0,0,0-.17,2.15,9.52,9.52,0,0,0,.15,2.08,1.44,1.44,0,0,0,.38.75.84.84,0,0,0,.53.19.78.78,0,0,0,.53-.19,1.27,1.27,0,0,0,.36-.68,9.51,9.51,0,0,0,.17-2.14A9.59,9.59,0,0,0,29.57,4a1.52,1.52,0,0,0-.38-.76A.78.78,0,0,0,28.66,3Z" transform="translate(0 -1.67)"/><path d="M35.34,1.67a2.36,2.36,0,0,1,1.95.89,5.67,5.67,0,0,1,.84,3.5,5.71,5.71,0,0,1-.84,3.5,2.33,2.33,0,0,1-1.95.88,2.45,2.45,0,0,1-2-1A5.71,5.71,0,0,1,32.55,6a5.68,5.68,0,0,1,.84-3.49A2.34,2.34,0,0,1,35.34,1.67Zm0,1.37a.78.78,0,0,0-.53.19,1.27,1.27,0,0,0-.36.68,9.62,9.62,0,0,0-.17,2.15,9.52,9.52,0,0,0,.15,2.08,1.44,1.44,0,0,0,.38.75.84.84,0,0,0,.53.19.78.78,0,0,0,.53-.19,1.27,1.27,0,0,0,.36-.68,9.51,9.51,0,0,0,.17-2.14A9.59,9.59,0,0,0,36.25,4a1.52,1.52,0,0,0-.38-.76A.78.78,0,0,0,35.34,3Z" transform="translate(0 -1.67)"/><path d="M30.13,204.46H28.48v-6.21a5.69,5.69,0,0,1-2.13,1.25V198a4.75,4.75,0,0,0,1.4-.8,3.09,3.09,0,0,0,1-1.37h1.34Z" transform="translate(0 -1.67)"/><path d="M35.37,195.83a2.36,2.36,0,0,1,2,.89,7.71,7.71,0,0,1,0,7,2.33,2.33,0,0,1-2,.88,2.45,2.45,0,0,1-2-1,7.86,7.86,0,0,1,.07-6.93A2.35,2.35,0,0,1,35.37,195.83Zm0,1.37a.78.78,0,0,0-.53.19,1.27,1.27,0,0,0-.36.68,14.07,14.07,0,0,0,0,4.23,1.44,1.44,0,0,0,.38.75.84.84,0,0,0,.53.19.78.78,0,0,0,.53-.19,1.27,1.27,0,0,0,.36-.68,14,14,0,0,0,0-4.22,1.52,1.52,0,0,0-.38-.76A.78.78,0,0,0,35.37,197.2Z" transform="translate(0 -1.67)"/><path d="M37.46,393.6H35.81v-6.21a5.69,5.69,0,0,1-2.13,1.25v-1.49a4.75,4.75,0,0,0,1.4-.8,3.09,3.09,0,0,0,1-1.37h1.34Z" transform="translate(0 -1.67)"/><path d="M25,578.37a2.36,2.36,0,0,1,1.95.89,7.71,7.71,0,0,1,0,7,2.33,2.33,0,0,1-1.95.88,2.45,2.45,0,0,1-2-1,7.86,7.86,0,0,1,.07-6.93A2.35,2.35,0,0,1,25,578.37Zm0,1.37a.78.78,0,0,0-.53.19,1.27,1.27,0,0,0-.36.68,14.07,14.07,0,0,0,0,4.23,1.44,1.44,0,0,0,.38.75.84.84,0,0,0,.53.19.78.78,0,0,0,.53-.19,1.27,1.27,0,0,0,.36-.68,14,14,0,0,0,0-4.22,1.52,1.52,0,0,0-.38-.76A.78.78,0,0,0,25,579.74Z" transform="translate(0 -1.67)"/><path d="M29.27,587v-1.65h1.65V587Z" transform="translate(0 -1.67)"/><path d="M36.47,587H34.82v-6.21A5.69,5.69,0,0,1,32.69,582v-1.49a4.75,4.75,0,0,0,1.4-.8,3.09,3.09,0,0,0,1-1.37h1.34Z" transform="translate(0 -1.67)"/><path d="M45.4,599.77H43.75v-6.21a5.69,5.69,0,0,1-2.13,1.25v-1.49a4.75,4.75,0,0,0,1.4-.8,3.09,3.09,0,0,0,1-1.37H45.4Z" transform="translate(0 -1.67)"/><path d="M50.65,591.15a2.36,2.36,0,0,1,2,.89,7.71,7.71,0,0,1,0,7,2.33,2.33,0,0,1-2,.88,2.45,2.45,0,0,1-2-1A7.86,7.86,0,0,1,48.7,592,2.35,2.35,0,0,1,50.65,591.15Zm0,1.36a.78.78,0,0,0-.53.19,1.27,1.27,0,0,0-.36.68,14.07,14.07,0,0,0,0,4.23,1.44,1.44,0,0,0,.38.75.84.84,0,0,0,.53.19.78.78,0,0,0,.53-.19,1.27,1.27,0,0,0,.36-.68,14,14,0,0,0,0-4.22,1.52,1.52,0,0,0-.38-.76A.78.78,0,0,0,50.65,592.51Z" transform="translate(0 -1.67)"/><path d="M187.29,599.77h-1.65v-6.21a5.69,5.69,0,0,1-2.13,1.25v-1.49a4.75,4.75,0,0,0,1.4-.8,3.09,3.09,0,0,0,1-1.37h1.34v8.62Z" transform="translate(0 -1.67)"/><path d="M192.53,591.15a2.36,2.36,0,0,1,1.95.89,7.71,7.71,0,0,1,0,7,2.33,2.33,0,0,1-1.95.88,2.45,2.45,0,0,1-2-1,7.86,7.86,0,0,1,.07-6.93A2.35,2.35,0,0,1,192.53,591.15Zm0,1.36a.78.78,0,0,0-.53.19,1.27,1.27,0,0,0-.36.68,14.07,14.07,0,0,0,0,4.23,1.44,1.44,0,0,0,.38.75.84.84,0,0,0,.53.19.78.78,0,0,0,.53-.19,1.27,1.27,0,0,0,.36-.68,14,14,0,0,0,0-4.22,1.52,1.52,0,0,0-.38-.76A.78.78,0,0,0,192.53,592.51Z" transform="translate(0 -1.67)"/><path d="M199.21,591.15a2.36,2.36,0,0,1,1.95.89,7.71,7.71,0,0,1,0,7,2.33,2.33,0,0,1-1.95.88,2.45,2.45,0,0,1-2-1,7.86,7.86,0,0,1,.07-6.93A2.35,2.35,0,0,1,199.21,591.15Zm0,1.36a.78.78,0,0,0-.53.19,1.27,1.27,0,0,0-.36.68,14.07,14.07,0,0,0,0,4.23,1.44,1.44,0,0,0,.38.75.84.84,0,0,0,.53.19.78.78,0,0,0,.53-.19,1.27,1.27,0,0,0,.36-.68,14,14,0,0,0,0-4.22,1.52,1.52,0,0,0-.38-.76A.78.78,0,0,0,199.21,592.51Z" transform="translate(0 -1.67)"/><path d="M335.13,599.77h-1.65v-6.21a5.69,5.69,0,0,1-2.13,1.25v-1.49a4.75,4.75,0,0,0,1.4-.8,3.09,3.09,0,0,0,1-1.37h1.34Z" transform="translate(0 -1.67)"/><path d="M337.88,599.77v-8.59h1.65v4.56l1.93-2.19h2l-2.13,2.27,2.28,3.95h-1.78L340.3,597l-.77.8v2Z" transform="translate(0 -1.67)"/><path d="M474.35,599.77H472.7v-6.21a5.69,5.69,0,0,1-2.13,1.25v-1.49a4.75,4.75,0,0,0,1.4-.8,3.09,3.09,0,0,0,1-1.37h1.34Z" transform="translate(0 -1.67)"/><path d="M479.6,591.15a2.36,2.36,0,0,1,1.95.89,7.71,7.71,0,0,1,0,7,2.33,2.33,0,0,1-1.95.88,2.45,2.45,0,0,1-2-1,7.86,7.86,0,0,1,.07-6.93A2.33,2.33,0,0,1,479.6,591.15Zm0,1.36a.78.78,0,0,0-.53.19,1.27,1.27,0,0,0-.36.68,14.07,14.07,0,0,0,0,4.23,1.44,1.44,0,0,0,.38.75.84.84,0,0,0,.53.19.78.78,0,0,0,.53-.19,1.27,1.27,0,0,0,.36-.68,14,14,0,0,0,0-4.22,1.52,1.52,0,0,0-.38-.76A.8.8,0,0,0,479.6,592.51Z" transform="translate(0 -1.67)"/><path d="M483.78,599.77v-8.59h1.65v4.56l1.93-2.19h2l-2.13,2.27,2.28,3.95h-1.78L486.2,597l-.77.8v2Z" transform="translate(0 -1.67)"/><path d="M615.3,599.77h-1.65v-6.21a5.69,5.69,0,0,1-2.13,1.25v-1.49a4.75,4.75,0,0,0,1.4-.8,3.09,3.09,0,0,0,1-1.37h1.34Z" transform="translate(0 -1.67)"/><path d="M620.55,591.15a2.36,2.36,0,0,1,2,.89,7.71,7.71,0,0,1,0,7,2.33,2.33,0,0,1-2,.88,2.45,2.45,0,0,1-2-1,7.86,7.86,0,0,1,.07-6.93A2.33,2.33,0,0,1,620.55,591.15Zm0,1.36a.78.78,0,0,0-.53.19,1.27,1.27,0,0,0-.36.68,14.07,14.07,0,0,0,0,4.23,1.44,1.44,0,0,0,.38.75.84.84,0,0,0,.53.19.78.78,0,0,0,.53-.19,1.27,1.27,0,0,0,.36-.68,14,14,0,0,0,0-4.22,1.52,1.52,0,0,0-.38-.76A.8.8,0,0,0,620.55,592.51Z" transform="translate(0 -1.67)"/><path d="M627.22,591.15a2.36,2.36,0,0,1,1.95.89,7.71,7.71,0,0,1,0,7,2.33,2.33,0,0,1-1.95.88,2.45,2.45,0,0,1-2-1,7.86,7.86,0,0,1,.07-6.93A2.35,2.35,0,0,1,627.22,591.15Zm0,1.36a.78.78,0,0,0-.53.19,1.27,1.27,0,0,0-.36.68,14.07,14.07,0,0,0,0,4.23,1.44,1.44,0,0,0,.38.75.84.84,0,0,0,.53.19.78.78,0,0,0,.53-.19,1.27,1.27,0,0,0,.36-.68,14,14,0,0,0,0-4.22,1.52,1.52,0,0,0-.38-.76A.78.78,0,0,0,627.22,592.51Z" transform="translate(0 -1.67)"/><path d="M631.4,599.77v-8.59h1.65v4.56l1.93-2.19h2l-2.13,2.27,2.28,3.95h-1.78L633.81,597l-.77.8v2Z" transform="translate(0 -1.67)"/><path d="M763.8,599.77h-1.65v-6.21a5.69,5.69,0,0,1-2.13,1.25v-1.49a4.75,4.75,0,0,0,1.4-.8,3.09,3.09,0,0,0,1-1.37h1.34Z" transform="translate(0 -1.67)"/><path d="M766.6,599.77v-8.59h2.6l1.56,5.86,1.54-5.86h2.6v8.59h-1.61V593l-1.71,6.76h-1.67l-1.7-6.76v6.76Z" transform="translate(0 -1.67)"/><rect x="227.34" y="606.45" width="360" height="15.02" fill="none"/><path d="M331.5,617.44l1.69-.16a2.06,2.06,0,0,0,.62,1.25,1.85,1.85,0,0,0,1.26.4,2,2,0,0,0,1.26-.35,1,1,0,0,0,.42-.83.78.78,0,0,0-.18-.52,1.43,1.43,0,0,0-.62-.37c-.2-.07-.67-.2-1.39-.38a4.7,4.7,0,0,1-2-.85,2.22,2.22,0,0,1-.79-1.73,2.19,2.19,0,0,1,.37-1.23,2.38,2.38,0,0,1,1.07-.87,4.26,4.26,0,0,1,1.69-.3,3.61,3.61,0,0,1,2.43.71,2.52,2.52,0,0,1,.86,1.89l-1.73.08a1.42,1.42,0,0,0-.48-.95,1.78,1.78,0,0,0-1.1-.29,2,2,0,0,0-1.18.31.63.63,0,0,0-.28.53.66.66,0,0,0,.26.52,4.48,4.48,0,0,0,1.59.57,8,8,0,0,1,1.87.62,2.42,2.42,0,0,1,.95.87,2.71,2.71,0,0,1-.07,2.75,2.45,2.45,0,0,1-1.16,1,4.84,4.84,0,0,1-1.87.31,3.71,3.71,0,0,1-2.5-.75A3.25,3.25,0,0,1,331.5,617.44Z" transform="translate(0 -1.67)"/><path d="M339.59,616a5.45,5.45,0,0,1,.39-2.2,4.1,4.1,0,0,1,.8-1.18,3.23,3.23,0,0,1,1.11-.77,4.66,4.66,0,0,1,1.85-.34,4,4,0,0,1,3,1.18,5.26,5.26,0,0,1,0,6.53,4,4,0,0,1-3,1.17,4.05,4.05,0,0,1-3-1.17A4.42,4.42,0,0,1,339.59,616Zm1.79-.06a3.21,3.21,0,0,0,.67,2.21,2.2,2.2,0,0,0,1.71.75,2.17,2.17,0,0,0,1.7-.75,3.31,3.31,0,0,0,.67-2.24,3.23,3.23,0,0,0-.65-2.2,2.39,2.39,0,0,0-3.45,0A3.24,3.24,0,0,0,341.38,615.94Z" transform="translate(0 -1.67)"/><path d="M349.26,611.65H351v4.65a10.44,10.44,0,0,0,.06,1.44,1.4,1.4,0,0,0,.53.85,1.81,1.81,0,0,0,1.15.32,1.75,1.75,0,0,0,1.11-.3,1.19,1.19,0,0,0,.45-.74,9.62,9.62,0,0,0,.08-1.46v-4.75h1.73v4.51a12,12,0,0,1-.14,2.19,2.37,2.37,0,0,1-.52,1.08,2.61,2.61,0,0,1-1,.7,4.45,4.45,0,0,1-1.65.26,4.8,4.8,0,0,1-1.87-.28,2.59,2.59,0,0,1-1-.74,2.47,2.47,0,0,1-.49-1,10.66,10.66,0,0,1-.17-2.18v-4.6Z" transform="translate(0 -1.67)"/><path d="M358,620.24v-8.59h3.65a6.39,6.39,0,0,1,2,.23,2,2,0,0,1,1,.82,2.47,2.47,0,0,1,.38,1.35,2.31,2.31,0,0,1-.57,1.6,2.75,2.75,0,0,1-1.7.79,4.16,4.16,0,0,1,.93.72,10,10,0,0,1,1,1.39l1.05,1.68h-2.07l-1.25-1.87a12.9,12.9,0,0,0-.91-1.26,1.44,1.44,0,0,0-.52-.36,2.63,2.63,0,0,0-.87-.1h-.35v3.59H358Zm1.73-5H361a6.59,6.59,0,0,0,1.56-.11,1,1,0,0,0,.49-.36,1.1,1.1,0,0,0,.18-.64,1,1,0,0,0-.88-1c-.14,0-.56,0-1.27,0h-1.35v2.18Z" transform="translate(0 -1.67)"/><path d="M372.1,617.08l1.68.53a3.8,3.8,0,0,1-1.29,2.09,3.63,3.63,0,0,1-2.28.68,3.68,3.68,0,0,1-2.81-1.17,4.49,4.49,0,0,1-1.1-3.2,4.68,4.68,0,0,1,1.11-3.33,3.81,3.81,0,0,1,2.91-1.19,3.58,3.58,0,0,1,2.56.93,3.43,3.43,0,0,1,.88,1.58l-1.72.41a1.73,1.73,0,0,0-.64-1,1.87,1.87,0,0,0-1.17-.39,2,2,0,0,0-1.55.69,3.35,3.35,0,0,0-.59,2.22,3.59,3.59,0,0,0,.59,2.32,1.9,1.9,0,0,0,1.52.69,1.75,1.75,0,0,0,1.19-.44A2.48,2.48,0,0,0,372.1,617.08Z" transform="translate(0 -1.67)"/><path d="M375.27,620.24v-8.59h6.37v1.45H377V615h4.31v1.45H377v2.34h4.8v1.45Z" transform="translate(0 -1.67)"/><path d="M386.62,620.24v-8.59h3.65a6.39,6.39,0,0,1,2,.23,2,2,0,0,1,1,.82,2.47,2.47,0,0,1,.38,1.35,2.31,2.31,0,0,1-.57,1.6,2.75,2.75,0,0,1-1.7.79,4.16,4.16,0,0,1,.93.72,10,10,0,0,1,1,1.39l1.05,1.68h-2.07L391,618.36a12.9,12.9,0,0,0-.91-1.26,1.44,1.44,0,0,0-.52-.36,2.63,2.63,0,0,0-.87-.1h-.35v3.59h-1.76Zm1.73-5h1.28a6.59,6.59,0,0,0,1.56-.11,1,1,0,0,0,.49-.36,1.1,1.1,0,0,0,.18-.64,1,1,0,0,0-.88-1c-.14,0-.56,0-1.27,0h-1.35v2.18Z" transform="translate(0 -1.67)"/><path d="M395.28,620.24v-8.59h6.37v1.45H397V615h4.31v1.45H397v2.34h4.8v1.45Z" transform="translate(0 -1.67)"/><path d="M402.84,617.44l1.69-.16a2.06,2.06,0,0,0,.62,1.25,1.85,1.85,0,0,0,1.26.4,2,2,0,0,0,1.26-.35,1,1,0,0,0,.42-.83.78.78,0,0,0-.18-.52,1.43,1.43,0,0,0-.62-.37c-.2-.07-.67-.2-1.39-.38a4.7,4.7,0,0,1-2-.85,2.22,2.22,0,0,1-.79-1.73,2.19,2.19,0,0,1,.37-1.23,2.38,2.38,0,0,1,1.07-.87,4.26,4.26,0,0,1,1.69-.3,3.61,3.61,0,0,1,2.43.71,2.52,2.52,0,0,1,.86,1.89l-1.73.08a1.42,1.42,0,0,0-.48-.95,1.78,1.78,0,0,0-1.1-.29,2,2,0,0,0-1.18.31.63.63,0,0,0-.28.53.66.66,0,0,0,.26.52,4.48,4.48,0,0,0,1.59.57,8,8,0,0,1,1.87.62,2.42,2.42,0,0,1,1,.87,2.71,2.71,0,0,1-.07,2.75,2.45,2.45,0,0,1-1.16,1,4.84,4.84,0,0,1-1.87.31,3.71,3.71,0,0,1-2.5-.75A3.25,3.25,0,0,1,402.84,617.44Z" transform="translate(0 -1.67)"/><path d="M411.23,620.24v-8.59H413v8.59Z" transform="translate(0 -1.67)"/><path d="M414.18,617.44l1.69-.16a2.06,2.06,0,0,0,.62,1.25,1.85,1.85,0,0,0,1.26.4,2,2,0,0,0,1.26-.35,1,1,0,0,0,.42-.83.78.78,0,0,0-.18-.52,1.43,1.43,0,0,0-.62-.37c-.2-.07-.67-.2-1.39-.38a4.7,4.7,0,0,1-2-.85,2.22,2.22,0,0,1-.79-1.73,2.19,2.19,0,0,1,.37-1.23,2.38,2.38,0,0,1,1.07-.87,4.26,4.26,0,0,1,1.69-.3,3.61,3.61,0,0,1,2.43.71,2.52,2.52,0,0,1,.86,1.89l-1.73.08a1.42,1.42,0,0,0-.48-.95,1.78,1.78,0,0,0-1.1-.29,2,2,0,0,0-1.18.31.63.63,0,0,0-.28.53.66.66,0,0,0,.26.52,4.48,4.48,0,0,0,1.59.57,8,8,0,0,1,1.87.62,2.42,2.42,0,0,1,.95.87,2.71,2.71,0,0,1-.07,2.75,2.45,2.45,0,0,1-1.16,1,4.84,4.84,0,0,1-1.87.31,3.71,3.71,0,0,1-2.5-.75A3.25,3.25,0,0,1,414.18,617.44Z" transform="translate(0 -1.67)"/><path d="M424.56,620.24V613.1H422v-1.45h6.83v1.45H426.3v7.14Z" transform="translate(0 -1.67)"/><path d="M437.7,620.24h-1.89l-.75-2h-3.43l-.71,2h-1.84l3.35-8.59h1.83Zm-3.19-3.4-1.18-3.19-1.16,3.19Z" transform="translate(0 -1.67)"/><path d="M438.64,620.24v-8.59h1.69l3.52,5.74v-5.74h1.61v8.59h-1.74l-3.46-5.6v5.6Z" transform="translate(0 -1.67)"/><path d="M452.78,617.08l1.68.53a3.8,3.8,0,0,1-1.29,2.09,3.63,3.63,0,0,1-2.28.68,3.68,3.68,0,0,1-2.81-1.17A4.49,4.49,0,0,1,447,616a4.68,4.68,0,0,1,1.11-3.33,3.81,3.81,0,0,1,2.91-1.19,3.58,3.58,0,0,1,2.56.93,3.43,3.43,0,0,1,.88,1.58l-1.72.41a1.73,1.73,0,0,0-.64-1,1.87,1.87,0,0,0-1.17-.39,2,2,0,0,0-1.55.69,3.35,3.35,0,0,0-.59,2.22,3.59,3.59,0,0,0,.59,2.32,1.9,1.9,0,0,0,1.52.69,1.75,1.75,0,0,0,1.19-.44A2.48,2.48,0,0,0,452.78,617.08Z" transform="translate(0 -1.67)"/><path d="M456,620.24v-8.59h6.37v1.45h-4.63V615H462v1.45h-4.31v2.34h4.8v1.45Z" transform="translate(0 -1.67)"/><path d="M470,622.76h-1.13a11.59,11.59,0,0,1-1.37-2.81,9,9,0,0,1-.47-2.82,8.83,8.83,0,0,1,.58-3.21,11.17,11.17,0,0,1,1.28-2.42H470a17.1,17.1,0,0,0-1.1,3,11.37,11.37,0,0,0-.12,4.61,12.84,12.84,0,0,0,.49,1.92A15.8,15.8,0,0,0,470,622.76Z" transform="translate(0 -1.67)"/><path d="M473.12,619a3.69,3.69,0,0,1-1.08-.66,3.23,3.23,0,0,1-.88-1.27,4.49,4.49,0,0,1-.29-1.62,4,4,0,0,1,1.12-2.94,4,4,0,0,1,3-1.12,5,5,0,0,1,2.28.46,3.47,3.47,0,0,1,1.46,1.43,4.32,4.32,0,0,1,.55,2.15,4,4,0,0,1-.55,2.11A3.54,3.54,0,0,1,477,619l1.93-.13h.42v1.35h-3.76V618.8a3,3,0,0,0,.9-.62,3,3,0,0,0,.67-1.14,4.45,4.45,0,0,0,.23-1.42,3.17,3.17,0,0,0-.67-2.19,2.19,2.19,0,0,0-1.71-.74,2.14,2.14,0,0,0-1.67.76,3.12,3.12,0,0,0-.67,2.14,4.18,4.18,0,0,0,.25,1.48,3.23,3.23,0,0,0,.73,1.16,3,3,0,0,0,.84.56v1.42h-3.78v-1.35h.57Z" transform="translate(0 -1.67)"/><path d="M480,622.76c.32-.7.55-1.23.69-1.6a10,10,0,0,0,.37-1.28,12.63,12.63,0,0,0,.25-1.38,11.76,11.76,0,0,0,.08-1.34,11.24,11.24,0,0,0-.3-2.64,17.94,17.94,0,0,0-1.1-3h1.12a10.55,10.55,0,0,1,1.37,2.67A8.88,8.88,0,0,1,483,617a9.73,9.73,0,0,1-.39,2.62,11,11,0,0,1-1.45,3.1Z" transform="translate(0 -1.67)"/><rect y="148.76" width="15.02" height="288.05" fill="none"/><path d="M12.12,366.35l-8.59,3.07v-1.88l6.36-2.17-6.36-2.1v-1.84l8.59,3.08Z" transform="translate(0 -1.67)"/><path d="M7.88,360.89a5.45,5.45,0,0,1-2.2-.39,4.1,4.1,0,0,1-1.18-.8,3.23,3.23,0,0,1-.77-1.11,4.66,4.66,0,0,1-.34-1.85,4,4,0,0,1,1.18-3,4.53,4.53,0,0,1,3.28-1.14,4.49,4.49,0,0,1,3.25,1.13,4,4,0,0,1,1.17,3,4.05,4.05,0,0,1-1.17,3.05A4.41,4.41,0,0,1,7.88,360.89Zm-.06-1.79a3.21,3.21,0,0,0,2.21-.67,2.2,2.2,0,0,0,.75-1.71A2.17,2.17,0,0,0,10,355a3.31,3.31,0,0,0-2.24-.67,3.23,3.23,0,0,0-2.2.65,2.39,2.39,0,0,0,0,3.45A3.24,3.24,0,0,0,7.82,359.1Z" transform="translate(0 -1.67)"/><path d="M12.12,351.16H3.6v-1.73h7.07v-4.31h1.45Z" transform="translate(0 -1.67)"/><path d="M12.12,341.94H5v2.55H3.53v-6.83H5v2.54h7.14Z" transform="translate(0 -1.67)"/><path d="M12.12,328.8v1.89l-1.95.75v3.43l1.95.71v1.84l-8.59-3.35v-1.83ZM8.72,332l-3.19,1.18,3.19,1.16Z" transform="translate(0 -1.67)"/><path d="M9,323.88H7.52v-3.74h3.42a4.74,4.74,0,0,1,.93,1.58,5.7,5.7,0,0,1,.4,2.09,4.67,4.67,0,0,1-.57,2.35,3.64,3.64,0,0,1-1.62,1.51,5.15,5.15,0,0,1-2.29.5,5,5,0,0,1-2.38-.56A3.76,3.76,0,0,1,3.81,326a4.39,4.39,0,0,1-.43-2.06,4.08,4.08,0,0,1,.67-2.5,3,3,0,0,1,1.85-1.16L6.22,322a1.86,1.86,0,0,0-1,.68,2,2,0,0,0-.37,1.25,2.36,2.36,0,0,0,.72,1.81,3,3,0,0,0,2.14.67,3.37,3.37,0,0,0,2.29-.68,2.26,2.26,0,0,0,.76-1.78,3,3,0,0,0-.21-1.09,3.82,3.82,0,0,0-.52-.94H9Z" transform="translate(0 -1.67)"/><path d="M12.12,318.55H3.53v-6.37H5v4.63h1.9V312.5H8.33v4.31h2.34V312h1.45Z" transform="translate(0 -1.67)"/><path d="M12.12,307.19H3.53V305.5L9.27,302H3.53v-1.61h8.59v1.74l-5.6,3.46h5.6Z" transform="translate(0 -1.67)"/><path d="M7.88,298.89a5.45,5.45,0,0,1-2.2-.39,4.1,4.1,0,0,1-1.18-.8,3.23,3.23,0,0,1-.77-1.11,4.66,4.66,0,0,1-.34-1.85,4,4,0,0,1,1.18-3,4.53,4.53,0,0,1,3.28-1.14,4.49,4.49,0,0,1,3.25,1.13,4,4,0,0,1,1.17,3,4.05,4.05,0,0,1-1.17,3.05A4.41,4.41,0,0,1,7.88,298.89Zm-.06-1.78a3.21,3.21,0,0,0,2.21-.67,2.2,2.2,0,0,0,.75-1.71A2.17,2.17,0,0,0,10,293a3.31,3.31,0,0,0-2.24-.67,3.23,3.23,0,0,0-2.2.65,2.39,2.39,0,0,0,0,3.45A3.24,3.24,0,0,0,7.82,297.11Z" transform="translate(0 -1.67)"/><path d="M12.12,289.26H3.53v-1.73h8.59Z" transform="translate(0 -1.67)"/><path d="M9.33,286.31l-.16-1.69a2.06,2.06,0,0,0,1.25-.62,1.85,1.85,0,0,0,.4-1.26,2,2,0,0,0-.35-1.26,1,1,0,0,0-.83-.42.78.78,0,0,0-.52.18,1.43,1.43,0,0,0-.37.62c-.07.2-.2.67-.38,1.39a4.7,4.7,0,0,1-.85,2,2.26,2.26,0,0,1-1.74.79,2.19,2.19,0,0,1-1.23-.37,2.38,2.38,0,0,1-.87-1.07,4.26,4.26,0,0,1-.3-1.69,3.61,3.61,0,0,1,.71-2.43A2.52,2.52,0,0,1,6,279.58l.08,1.73a1.42,1.42,0,0,0-.95.48,1.78,1.78,0,0,0-.29,1.1,2,2,0,0,0,.31,1.18.63.63,0,0,0,.53.28.66.66,0,0,0,.52-.26,4.48,4.48,0,0,0,.57-1.59,8,8,0,0,1,.62-1.87,2.42,2.42,0,0,1,.87-.95,2.71,2.71,0,0,1,2.75.07,2.45,2.45,0,0,1,1,1.16,4.84,4.84,0,0,1,.31,1.87,3.71,3.71,0,0,1-.75,2.5A3.22,3.22,0,0,1,9.33,286.31Z" transform="translate(0 -1.67)"/><path d="M12.12,277.87H3.53V271.5H5v4.63h1.9v-4.31H8.33v4.31h2.34v-4.8h1.45Z" transform="translate(0 -1.67)"/><path d="M14.65,263.81v1.13a11.59,11.59,0,0,1-2.81,1.37,9,9,0,0,1-2.82.47,8.83,8.83,0,0,1-3.21-.58,11.17,11.17,0,0,1-2.42-1.28V263.8a17.1,17.1,0,0,0,3,1.1A11.37,11.37,0,0,0,11,265a12.84,12.84,0,0,0,1.92-.49A17.69,17.69,0,0,0,14.65,263.81Z" transform="translate(0 -1.67)"/><path d="M12.12,256.89v1.65H9a4.79,4.79,0,0,0-1.3.11.93.93,0,0,0-.46.34,1,1,0,0,0-.16.57,1.37,1.37,0,0,0,.23.77,1.17,1.17,0,0,0,.62.47,5.07,5.07,0,0,0,1.43.13h2.82v1.65H5.9v-1.53h.91A2.55,2.55,0,0,1,6,258a1.65,1.65,0,0,1,.5-.68,1.82,1.82,0,0,1,.69-.32,5.23,5.23,0,0,1,1.11-.09h3.86Z" transform="translate(0 -1.67)"/><path d="M12.12,253l-8.59,3.07V254.2L9.89,252l-6.36-2.1v-1.84l8.59,3.08Z" transform="translate(0 -1.67)"/><path d="M12.27,248.09,3.39,246v-1.24l8.88,2.15Z" transform="translate(0 -1.67)"/><path d="M1.17,238.59v-.43L12.58,240l-6,2.91.53,1.16-.38.2-.88-1.76,4.82-2.37Z" transform="translate(0 -1.67)"/><path d="M12.12,237.28H3.53v-1.73H6.91v-3.4H3.53v-1.73h8.59v1.73H8.37v3.4h3.76v1.73Z" transform="translate(0 -1.67)"/><path d="M12.12,229.29H10.84L8.16,227c-.44-.38-.75-.67-.93-.85,0,.19,0,.44,0,.76v2.2H5.9v-5.14H7.07l2.74,2.38.91.84c0-.46,0-.74,0-.85v-2.55h1.45v5.54Z" transform="translate(0 -1.67)"/><path d="M14.65,223.08c-.7-.32-1.23-.55-1.6-.69a10,10,0,0,0-1.28-.37,12.63,12.63,0,0,0-1.38-.25,11.76,11.76,0,0,0-1.34-.08,11.24,11.24,0,0,0-2.64.3,17.94,17.94,0,0,0-3,1.1V222a10.55,10.55,0,0,1,2.67-1.37,8.88,8.88,0,0,1,2.87-.49,9.73,9.73,0,0,1,2.62.39,11,11,0,0,1,3.1,1.45Z" transform="translate(0 -1.67)"/><path d="M786.22,621.33a5.16,5.16,0,0,1-1.63-.21,2.14,2.14,0,0,1-1-.62,1.55,1.55,0,0,1-.34-1,1.62,1.62,0,0,1,.19-.81,1.55,1.55,0,0,1,.54-.57,3.15,3.15,0,0,1,.85-.36,5.43,5.43,0,0,1,1.35-.13,5.25,5.25,0,0,1,1.63.21,2,2,0,0,1,1,.62,1.74,1.74,0,0,1-.25,2.34A3.83,3.83,0,0,1,786.22,621.33Zm0-.72a3.6,3.6,0,0,0,1.88-.33.93.93,0,0,0,0-1.62,5.52,5.52,0,0,0-3.76,0,1,1,0,0,0-.46.82.9.9,0,0,0,.41.77A3.62,3.62,0,0,0,786.22,620.61Z" transform="translate(0 -1.67)"/><path d="M784.07,616.84h-.68v-3.71h.55a7.56,7.56,0,0,0,1.55,1.08,10.27,10.27,0,0,0,2,.83,7.45,7.45,0,0,0,1.57.27V616a7,7,0,0,1-1.63-.27,8.79,8.79,0,0,1-1.85-.73,7.83,7.83,0,0,1-1.5-1v2.82Z" transform="translate(0 -1.67)"/><path d="M786.22,612.43a5.16,5.16,0,0,1-1.63-.21,2.14,2.14,0,0,1-1-.62,1.55,1.55,0,0,1-.34-1,1.62,1.62,0,0,1,.19-.81,1.55,1.55,0,0,1,.54-.57,3.15,3.15,0,0,1,.85-.36,5.43,5.43,0,0,1,1.35-.13,5.25,5.25,0,0,1,1.63.21,2,2,0,0,1,1,.62,1.74,1.74,0,0,1-.25,2.34A3.77,3.77,0,0,1,786.22,612.43Zm0-.72a3.6,3.6,0,0,0,1.88-.33.93.93,0,0,0,0-1.62,5.52,5.52,0,0,0-3.76,0,1,1,0,0,0-.46.82.9.9,0,0,0,.41.77A3.62,3.62,0,0,0,786.22,611.71Z" transform="translate(0 -1.67)"/><path d="M787.54,608l-.06-.74a1.29,1.29,0,0,0,.81-.38,1,1,0,0,0,.27-.72,1.15,1.15,0,0,0-.38-.86,1.41,1.41,0,0,0-1-.35,1.29,1.29,0,0,0-.95.34,1.19,1.19,0,0,0-.35.88,1.23,1.23,0,0,0,.15.61,1.19,1.19,0,0,0,.4.43l-.09.66-2.94-.55v-2.85h.67v2.29l1.54.31a1.84,1.84,0,0,1-.36-1.08,1.72,1.72,0,0,1,.52-1.27,1.8,1.8,0,0,1,1.34-.52,2.07,2.07,0,0,1,1.34.45,1.83,1.83,0,0,1,.7,1.5,1.88,1.88,0,0,1-.44,1.28A1.66,1.66,0,0,1,787.54,608Z" transform="translate(0 -1.67)"/><path d="M787.53,603.53l-.09-.7a1.54,1.54,0,0,0,.86-.41,1,1,0,0,0,.26-.71,1.16,1.16,0,0,0-1.19-1.18,1.08,1.08,0,0,0-1.11,1.12,2.21,2.21,0,0,0,.08.5l-.62-.08c0-.05,0-.08,0-.11a1.5,1.5,0,0,0-.23-.81.8.8,0,0,0-.72-.36.87.87,0,0,0-.64.26.92.92,0,0,0-.25.68,1,1,0,0,0,.26.68,1.29,1.29,0,0,0,.77.35l-.12.7a1.82,1.82,0,0,1-1.1-.59,1.7,1.7,0,0,1-.39-1.14,1.91,1.91,0,0,1,.2-.86,1.46,1.46,0,0,1,.55-.6,1.41,1.41,0,0,1,.74-.21,1.26,1.26,0,0,1,.68.2,1.3,1.3,0,0,1,.48.59,1.33,1.33,0,0,1,.49-.79,1.46,1.46,0,0,1,.92-.28,1.67,1.67,0,0,1,1.27.55,1.93,1.93,0,0,1,.52,1.38,1.75,1.75,0,0,1-1.63,1.82Z" transform="translate(0 -1.67)"/><path d="M787.32,599.16h-.71V597h.71Z" transform="translate(0 -1.67)"/><path d="M786.22,596.42a5.16,5.16,0,0,1-1.63-.21,2.14,2.14,0,0,1-1-.62,1.55,1.55,0,0,1-.34-1,1.62,1.62,0,0,1,.19-.81,1.55,1.55,0,0,1,.54-.57,3.15,3.15,0,0,1,.85-.36,5.43,5.43,0,0,1,1.35-.13,5.25,5.25,0,0,1,1.63.21,2,2,0,0,1,1,.62,1.74,1.74,0,0,1-.25,2.34A3.83,3.83,0,0,1,786.22,596.42Zm0-.72a3.6,3.6,0,0,0,1.88-.33.93.93,0,0,0,0-1.62,5.52,5.52,0,0,0-3.76,0,1,1,0,0,0-.46.82.9.9,0,0,0,.41.77A3.62,3.62,0,0,0,786.22,595.7Z" transform="translate(0 -1.67)"/><path d="M786.22,592a5.16,5.16,0,0,1-1.63-.21,2.14,2.14,0,0,1-1-.62,1.55,1.55,0,0,1-.34-1,1.62,1.62,0,0,1,.19-.81,1.55,1.55,0,0,1,.54-.57,3.15,3.15,0,0,1,.85-.36,5.43,5.43,0,0,1,1.35-.13,5.25,5.25,0,0,1,1.63.21,2,2,0,0,1,1,.62,1.74,1.74,0,0,1-.25,2.34A3.83,3.83,0,0,1,786.22,592Zm0-.72a3.6,3.6,0,0,0,1.88-.33.93.93,0,0,0,0-1.62,5.52,5.52,0,0,0-3.76,0,1,1,0,0,0-.46.82.9.9,0,0,0,.41.77A3.62,3.62,0,0,0,786.22,591.25Z" transform="translate(0 -1.67)"/><path d="M788.37,583.83h.68v3.79a1.36,1.36,0,0,1-.49-.08,2.66,2.66,0,0,1-.76-.46,7.3,7.3,0,0,1-.87-.92,8.31,8.31,0,0,0-1.21-1.26,1.43,1.43,0,0,0-.85-.33,1,1,0,0,0-.71.3,1,1,0,0,0-.29.78,1.09,1.09,0,0,0,.3.81,1.14,1.14,0,0,0,.84.31l-.07.72a1.78,1.78,0,0,1-1.23-.56,1.92,1.92,0,0,1-.42-1.3,1.78,1.78,0,0,1,.46-1.3,1.5,1.5,0,0,1,1.13-.48,1.84,1.84,0,0,1,.68.14,2.45,2.45,0,0,1,.7.47,11.87,11.87,0,0,1,1,1.08,10.49,10.49,0,0,0,.72.81,2.49,2.49,0,0,0,.38.3v-2.82Z" transform="translate(0 -1.67)"/><path d="M495,226.79h0a5.75,5.75,0,1,1,5.62-5.75,5.68,5.68,0,0,1-5.62,5.75Z" transform="translate(0 -1.67)" stroke="#000"/><path d="M462.37,246h0a5.75,5.75,0,1,1,5.62-5.75,5.68,5.68,0,0,1-5.62,5.75Z" transform="translate(0 -1.67)" stroke="#000"/><path d="M421,246.78h0a5.75,5.75,0,1,1,5.62-5.75,5.68,5.68,0,0,1-5.62,5.75Z" transform="translate(0 -1.67)" stroke="#000"/><path d="M491.46,266.29h0a5.75,5.75,0,1,1,5.62-5.75,5.68,5.68,0,0,1-5.62,5.75Z" transform="translate(0 -1.67)" stroke="#000"/><path d="M478,282.29h0a5.75,5.75,0,1,1,5.62-5.75,5.68,5.68,0,0,1-5.62,5.75Z" transform="translate(0 -1.67)" stroke="#000"/><path d="M439.46,299.79h0a5.75,5.75,0,1,1,5.62-5.75,5.68,5.68,0,0,1-5.62,5.75Z" transform="translate(0 -1.67)" stroke="#000"/><path d="M360.46,347.79h0a5.75,5.75,0,1,1,5.62-5.75,5.68,5.68,0,0,1-5.62,5.75Z" transform="translate(0 -1.67)" stroke="#000"/><path d="M391,367.79h0a5.75,5.75,0,1,1,5.62-5.75,5.68,5.68,0,0,1-5.62,5.75Z" transform="translate(0 -1.67)" stroke="#000"/><path d="M297,391.29h0a5.75,5.75,0,1,1,5.62-5.75,5.68,5.68,0,0,1-5.62,5.75Z" transform="translate(0 -1.67)" stroke="#000"/><path d="M284,404.79h0a5.75,5.75,0,1,1,5.62-5.75,5.68,5.68,0,0,1-5.62,5.75Z" transform="translate(0 -1.67)" stroke="#000"/><path d="M460.46,304.29h0a5.75,5.75,0,1,1,5.62-5.75,5.68,5.68,0,0,1-5.62,5.75Z" transform="translate(0 -1.67)" stroke="#000"/><path d="M564.76,224.07h0a5.75,5.75,0,1,1,5.62-5.75,5.68,5.68,0,0,1-5.62,5.75Z" transform="translate(0 -1.67)" stroke="#000"/><path d="M602.17,142.78h0a5.75,5.75,0,1,1,5.62-5.75,5.68,5.68,0,0,1-5.62,5.75Z" transform="translate(0 -1.67)" stroke="#000"/><path d="M718.76,299.4h0a5.75,5.75,0,1,1,5.62-5.75,5.68,5.68,0,0,1-5.62,5.75Z" transform="translate(0 -1.67)" stroke="#000"/><path d="M766.76,248.07h0a5.75,5.75,0,1,1,5.62-5.75,5.68,5.68,0,0,1-5.62,5.75Z" transform="translate(0 -1.67)" stroke="#000"/><path d="M453.88,246.66h0a5.75,5.75,0,1,1,5.62-5.75,5.68,5.68,0,0,1-5.62,5.75Z" transform="translate(0 -1.67)" stroke="#fff" stroke-width="2"/><path d="M453.88,246.66h0a5.75,5.75,0,1,1,5.62-5.75,5.68,5.68,0,0,1-5.62,5.75Z" transform="translate(0 -1.67)" stroke="#000"/><rect x="674.81" y="159.31" width="53.76" height="28.75" fill="#fff"/><rect x="523.67" y="179.88" width="45.27" height="17.12" fill="#fff"/><rect x="538.59" y="160.3" width="42.27" height="17.12" fill="#fff"/><rect x="607.59" y="193.72" width="50.18" height="17.12" fill="#fff"/><rect x="541.59" y="144.8" width="44.27" height="17.12" fill="#fff"/><rect x="610.92" y="127.8" width="92.6" height="10.79" fill="#fff"/><path d="M275.41,419h-1.89l-.75-1.95h-3.43l-.71,1.95h-1.84l3.35-8.59H272Zm-3.19-3.4L271,412.41l-1.16,3.19Z" transform="translate(0 -1.67)"/><path d="M276.33,410.41h3.17a6.15,6.15,0,0,1,1.63.16,2.83,2.83,0,0,1,1.29.79,3.91,3.91,0,0,1,.82,1.39,6.3,6.3,0,0,1,.28,2,5.81,5.81,0,0,1-.26,1.83,3.78,3.78,0,0,1-.92,1.52,3.18,3.18,0,0,1-1.22.69,5.27,5.27,0,0,1-1.54.18h-3.26v-8.59Zm1.73,1.45v5.69h1.29a5.15,5.15,0,0,0,1-.08,1.61,1.61,0,0,0,.7-.36,1.7,1.7,0,0,0,.45-.83,5.88,5.88,0,0,0,.18-1.57,5.06,5.06,0,0,0-.18-1.53,2,2,0,0,0-.49-.83,1.64,1.64,0,0,0-.8-.4,8.4,8.4,0,0,0-1.42-.08h-.78Z" transform="translate(0 -1.67)"/><path d="M284.63,412.06v-1.53h5.63v1.2a9,9,0,0,0-1.42,2,11.4,11.4,0,0,0-1.1,2.73,9.94,9.94,0,0,0-.37,2.58h-1.59a10.88,10.88,0,0,1,.74-3.63,12.4,12.4,0,0,1,1.85-3.31h-3.74Z" transform="translate(0 -1.67)"/><path d="M291.34,417l1.59-.18a1.2,1.2,0,0,0,.3.72.88.88,0,0,0,.65.23,1.08,1.08,0,0,0,.87-.47,4,4,0,0,0,.46-1.95,2,2,0,0,1-1.55.72,2.32,2.32,0,0,1-1.75-.78,2.86,2.86,0,0,1-.74-2,2.91,2.91,0,0,1,.78-2.11,2.62,2.62,0,0,1,2-.8,2.65,2.65,0,0,1,2.14,1,7,7,0,0,1,0,6.73,2.8,2.8,0,0,1-2.27,1,2.41,2.41,0,0,1-1.63-.54A2.5,2.5,0,0,1,291.34,417Zm3.73-3.59a1.87,1.87,0,0,0-.37-1.24,1.08,1.08,0,0,0-.85-.44,1,1,0,0,0-.76.36,1.84,1.84,0,0,0-.3,1.18,1.87,1.87,0,0,0,.33,1.22,1,1,0,0,0,.82.39,1,1,0,0,0,.8-.38A1.61,1.61,0,0,0,295.07,413.42Z" transform="translate(0 -1.67)"/><path d="M298,412.06v-1.53h5.63v1.2a9,9,0,0,0-1.42,2,11.4,11.4,0,0,0-1.1,2.73,9.94,9.94,0,0,0-.37,2.58h-1.59a10.88,10.88,0,0,1,.74-3.63,12.4,12.4,0,0,1,1.85-3.31H298Z" transform="translate(0 -1.67)"/><path d="M317.12,389.58h-1.89l-.75-1.95h-3.43l-.71,1.95H308.5l3.35-8.59h1.83Zm-3.2-3.4L312.74,383l-1.16,3.19Z" transform="translate(0 -1.67)"/><path d="M318,381h3.17a6.15,6.15,0,0,1,1.63.16,2.83,2.83,0,0,1,1.29.79,3.91,3.91,0,0,1,.82,1.39,6.3,6.3,0,0,1,.28,2,5.81,5.81,0,0,1-.26,1.83,3.78,3.78,0,0,1-.92,1.52,3.18,3.18,0,0,1-1.22.69,5.27,5.27,0,0,1-1.54.18H318V381Zm1.74,1.45v5.69h1.29a5.15,5.15,0,0,0,1.05-.08,1.61,1.61,0,0,0,.7-.36,1.7,1.7,0,0,0,.45-.83,5.88,5.88,0,0,0,.18-1.57,5.06,5.06,0,0,0-.18-1.53,2,2,0,0,0-.49-.83,1.64,1.64,0,0,0-.8-.4,8.4,8.4,0,0,0-1.42-.08h-.78Z" transform="translate(0 -1.67)"/><path d="M327.75,384.94a1.91,1.91,0,0,1-.93-.74,2,2,0,0,1-.29-1,2.08,2.08,0,0,1,.67-1.59,3.2,3.2,0,0,1,3.81,0,2.09,2.09,0,0,1,.68,1.59,1.83,1.83,0,0,1-.31,1.06,2,2,0,0,1-.87.71,2.28,2.28,0,0,1,1.09.84,2.2,2.2,0,0,1,.37,1.27,2.56,2.56,0,0,1-.76,1.93,2.79,2.79,0,0,1-2,.74,3.05,3.05,0,0,1-1.95-.62,2.4,2.4,0,0,1-.92-2,2.49,2.49,0,0,1,.35-1.28A2.2,2.2,0,0,1,327.75,384.94Zm.19,2a1.52,1.52,0,0,0,.35,1.06,1.14,1.14,0,0,0,.87.38A1.07,1.07,0,0,0,330,388a1.55,1.55,0,0,0,.33-1.06,1.35,1.35,0,0,0-.34-1,1.14,1.14,0,0,0-.86-.37,1,1,0,0,0-.9.42A1.54,1.54,0,0,0,327.94,387Zm.15-3.68a1,1,0,0,0,.28.77,1,1,0,0,0,.74.28,1,1,0,0,0,.75-.28,1,1,0,0,0,.28-.77,1,1,0,0,0-.28-.74,1.14,1.14,0,0,0-1.5,0A1,1,0,0,0,328.09,383.28Z" transform="translate(0 -1.67)"/><path d="M333,387.37l1.64-.17a1.41,1.41,0,0,0,.42.88,1.17,1.17,0,0,0,.8.33,1.11,1.11,0,0,0,.87-.42,1.89,1.89,0,0,0,.36-1.26,1.78,1.78,0,0,0-.35-1.19,1.15,1.15,0,0,0-.92-.4,1.67,1.67,0,0,0-1.27.63l-1.34-.19.84-4.47h4.35v1.54h-3.11l-.26,1.46a2.54,2.54,0,0,1,1.12-.28,2.49,2.49,0,0,1,1.86.8,2.86,2.86,0,0,1,.76,2.07,3.08,3.08,0,0,1-.62,1.89,2.72,2.72,0,0,1-2.33,1.14,2.87,2.87,0,0,1-1.94-.64A2.66,2.66,0,0,1,333,387.37Z" transform="translate(0 -1.67)"/><path d="M339.72,387.59l1.59-.18a1.2,1.2,0,0,0,.3.72.88.88,0,0,0,.65.23,1.08,1.08,0,0,0,.87-.47,4,4,0,0,0,.46-1.95,2,2,0,0,1-1.55.72,2.32,2.32,0,0,1-1.75-.78,2.86,2.86,0,0,1-.74-2,2.91,2.91,0,0,1,.78-2.11,2.62,2.62,0,0,1,2-.8,2.65,2.65,0,0,1,2.14,1,7,7,0,0,1,0,6.73,2.8,2.8,0,0,1-2.27,1,2.41,2.41,0,0,1-1.63-.54A2.52,2.52,0,0,1,339.72,387.59Zm3.73-3.6a1.87,1.87,0,0,0-.37-1.24,1.08,1.08,0,0,0-.85-.44,1,1,0,0,0-.76.36,1.84,1.84,0,0,0-.3,1.18,1.87,1.87,0,0,0,.33,1.22,1,1,0,0,0,.82.39,1,1,0,0,0,.8-.38A1.6,1.6,0,0,0,343.45,384Z" transform="translate(0 -1.67)"/><path d="M346.36,382.63V381.1H352v1.2a9,9,0,0,0-1.42,2,11.4,11.4,0,0,0-1.1,2.73,9.94,9.94,0,0,0-.37,2.58h-1.59a10.88,10.88,0,0,1,.74-3.63,12.4,12.4,0,0,1,1.85-3.31h-3.74Z" transform="translate(0 -1.67)"/><path d="M352.51,389.72l2.13-8.88h1.24l-2.15,8.88Z" transform="translate(0 -1.67)"/><path d="M364.48,389.58h-1.89l-.75-1.95h-3.43l-.71,1.95h-1.84l3.35-8.59H361Zm-3.19-3.4L360.11,383,359,386.18Z" transform="translate(0 -1.67)"/><path d="M365.39,381h3.17a6.15,6.15,0,0,1,1.63.16,2.83,2.83,0,0,1,1.29.79,3.91,3.91,0,0,1,.82,1.39,6.3,6.3,0,0,1,.28,2,5.81,5.81,0,0,1-.26,1.83,3.78,3.78,0,0,1-.92,1.52,3.18,3.18,0,0,1-1.22.69,5.27,5.27,0,0,1-1.54.18h-3.26V381Zm1.74,1.45v5.69h1.29a5.15,5.15,0,0,0,1.05-.08,1.61,1.61,0,0,0,.7-.36,1.7,1.7,0,0,0,.45-.83,5.88,5.88,0,0,0,.18-1.57,5.06,5.06,0,0,0-.18-1.53,2,2,0,0,0-.49-.83,1.64,1.64,0,0,0-.8-.4,8.4,8.4,0,0,0-1.42-.08h-.78Z" transform="translate(0 -1.67)"/><path d="M375.11,384.94a1.84,1.84,0,0,1-1.22-1.77,2.08,2.08,0,0,1,.67-1.59,3.2,3.2,0,0,1,3.81,0,2.09,2.09,0,0,1,.68,1.59,1.83,1.83,0,0,1-.31,1.06,2,2,0,0,1-.87.71,2.28,2.28,0,0,1,1.09.84,2.2,2.2,0,0,1,.37,1.27,2.56,2.56,0,0,1-.76,1.93,2.79,2.79,0,0,1-2,.74,3.05,3.05,0,0,1-1.95-.62,2.4,2.4,0,0,1-.92-2,2.49,2.49,0,0,1,.35-1.28A2.2,2.2,0,0,1,375.11,384.94Zm.19,2a1.52,1.52,0,0,0,.35,1.06,1.14,1.14,0,0,0,.87.38,1.07,1.07,0,0,0,.84-.37,1.55,1.55,0,0,0,.33-1.06,1.35,1.35,0,0,0-.34-1,1.14,1.14,0,0,0-.86-.37,1,1,0,0,0-.9.42A1.54,1.54,0,0,0,375.3,387Zm.15-3.68a1,1,0,0,0,.28.77,1,1,0,0,0,.74.28,1,1,0,0,0,.75-.28,1,1,0,0,0,.28-.77,1,1,0,0,0-.28-.74,1.14,1.14,0,0,0-1.5,0A1,1,0,0,0,375.45,383.28Z" transform="translate(0 -1.67)"/><path d="M380.4,387.37l1.64-.17a1.41,1.41,0,0,0,.42.88,1.17,1.17,0,0,0,.8.33,1.11,1.11,0,0,0,.87-.42,1.89,1.89,0,0,0,.36-1.26,1.78,1.78,0,0,0-.35-1.19,1.15,1.15,0,0,0-.92-.4,1.67,1.67,0,0,0-1.27.63l-1.34-.19.84-4.47h4.35v1.54h-3.11l-.26,1.46a2.54,2.54,0,0,1,1.12-.28,2.49,2.49,0,0,1,1.86.8,2.86,2.86,0,0,1,.76,2.07,3.08,3.08,0,0,1-.62,1.89,2.72,2.72,0,0,1-2.33,1.14,2.87,2.87,0,0,1-1.94-.64A2.66,2.66,0,0,1,380.4,387.37Z" transform="translate(0 -1.67)"/><path d="M387.08,387.59l1.59-.18a1.2,1.2,0,0,0,.3.72.88.88,0,0,0,.65.23,1.08,1.08,0,0,0,.87-.47,4,4,0,0,0,.46-1.95,2,2,0,0,1-1.55.72,2.32,2.32,0,0,1-1.75-.78,2.86,2.86,0,0,1-.74-2,2.91,2.91,0,0,1,.78-2.11,2.62,2.62,0,0,1,2-.8,2.65,2.65,0,0,1,2.14,1,7,7,0,0,1,0,6.73,2.8,2.8,0,0,1-2.27,1,2.41,2.41,0,0,1-1.63-.54A2.52,2.52,0,0,1,387.08,387.59Zm3.73-3.6a1.87,1.87,0,0,0-.37-1.24,1.08,1.08,0,0,0-.85-.44,1,1,0,0,0-.76.36,1.84,1.84,0,0,0-.3,1.18,1.87,1.87,0,0,0,.33,1.22,1,1,0,0,0,.82.39,1,1,0,0,0,.8-.38A1.6,1.6,0,0,0,390.81,384Z" transform="translate(0 -1.67)"/><path d="M393.76,387.59l1.59-.18a1.2,1.2,0,0,0,.3.72.88.88,0,0,0,.65.23,1.08,1.08,0,0,0,.87-.47,4,4,0,0,0,.46-1.95,2,2,0,0,1-1.55.72,2.32,2.32,0,0,1-1.75-.78,2.86,2.86,0,0,1-.74-2,2.91,2.91,0,0,1,.78-2.11,2.62,2.62,0,0,1,2-.8,2.65,2.65,0,0,1,2.14,1,7,7,0,0,1,0,6.73,2.8,2.8,0,0,1-2.27,1,2.41,2.41,0,0,1-1.63-.54A2.52,2.52,0,0,1,393.76,387.59Zm3.72-3.6a1.87,1.87,0,0,0-.37-1.24,1.08,1.08,0,0,0-.85-.44,1,1,0,0,0-.76.36,1.84,1.84,0,0,0-.3,1.18,1.87,1.87,0,0,0,.33,1.22,1,1,0,0,0,.82.39,1,1,0,0,0,.8-.38A1.6,1.6,0,0,0,397.48,384Z" transform="translate(0 -1.67)"/><path d="M380.33,346.77h-1.89l-.75-1.95h-3.43l-.71,1.95h-1.84l3.35-8.59h1.83Zm-3.19-3.39L376,340.19l-1.16,3.19Z" transform="translate(0 -1.67)"/><path d="M381.24,338.18h3.17a6.15,6.15,0,0,1,1.63.16,2.83,2.83,0,0,1,1.29.79,3.91,3.91,0,0,1,.82,1.39,6.3,6.3,0,0,1,.28,2,5.81,5.81,0,0,1-.26,1.83,3.78,3.78,0,0,1-.92,1.52,3.18,3.18,0,0,1-1.22.69,5.27,5.27,0,0,1-1.54.18h-3.26v-8.59Zm1.74,1.46v5.69h1.29a5.15,5.15,0,0,0,1.05-.08,1.61,1.61,0,0,0,.7-.36,1.7,1.7,0,0,0,.45-.83,5.88,5.88,0,0,0,.18-1.57,5.06,5.06,0,0,0-.18-1.53,2,2,0,0,0-.49-.83,1.64,1.64,0,0,0-.8-.4,8.4,8.4,0,0,0-1.42-.08H383Z" transform="translate(0 -1.67)"/><path d="M397.66,346.77h-1.89l-.75-1.95h-3.43l-.71,1.95H389l3.35-8.59h1.83Zm-3.19-3.39-1.18-3.19-1.16,3.19Z" transform="translate(0 -1.67)"/><path d="M401.45,346.77V345h-3.52V343.6l3.73-5.46H403v5.45h1.07V345H403v1.73Zm0-3.17v-2.94l-2,2.94Z" transform="translate(0 -1.67)"/><path d="M407.67,338.15a2.36,2.36,0,0,1,1.95.89,7.71,7.71,0,0,1,0,7,2.33,2.33,0,0,1-1.95.88,2.45,2.45,0,0,1-2-1,7.86,7.86,0,0,1,.07-6.93A2.35,2.35,0,0,1,407.67,338.15Zm0,1.36a.78.78,0,0,0-.53.19,1.27,1.27,0,0,0-.36.68,14.07,14.07,0,0,0,0,4.23,1.44,1.44,0,0,0,.38.75.84.84,0,0,0,.53.19.78.78,0,0,0,.53-.19,1.27,1.27,0,0,0,.36-.68,14,14,0,0,0,0-4.22,1.52,1.52,0,0,0-.38-.76A.78.78,0,0,0,407.67,339.51Z" transform="translate(0 -1.67)"/><path d="M414.35,338.15a2.36,2.36,0,0,1,1.95.89,7.71,7.71,0,0,1,0,7,2.33,2.33,0,0,1-1.95.88,2.45,2.45,0,0,1-2-1,7.86,7.86,0,0,1,.07-6.93A2.35,2.35,0,0,1,414.35,338.15Zm0,1.36a.78.78,0,0,0-.53.19,1.27,1.27,0,0,0-.36.68,14.07,14.07,0,0,0,0,4.23,1.44,1.44,0,0,0,.38.75.84.84,0,0,0,.53.19.78.78,0,0,0,.53-.19,1.27,1.27,0,0,0,.36-.68,14,14,0,0,0,0-4.22,1.52,1.52,0,0,0-.38-.76A.78.78,0,0,0,414.35,339.51Z" transform="translate(0 -1.67)"/><path d="M421.47,346.77V345H418V343.6l3.73-5.46h1.38v5.45h1.07V345h-1.07v1.73Zm0-3.17v-2.94l-2,2.94Z" transform="translate(0 -1.67)"/><path d="M408.79,366.54H406.9l-.75-2h-3.43l-.71,2h-1.84l3.35-8.59h1.83Zm-3.19-3.39L404.42,360l-1.16,3.19Z" transform="translate(0 -1.67)"/><path d="M409.71,358h3.17a6.15,6.15,0,0,1,1.63.16,2.83,2.83,0,0,1,1.29.79,3.91,3.91,0,0,1,.82,1.39,6.3,6.3,0,0,1,.28,2,5.81,5.81,0,0,1-.26,1.83,3.78,3.78,0,0,1-.92,1.52,3.18,3.18,0,0,1-1.22.69,5.27,5.27,0,0,1-1.54.18H409.7V358Zm1.73,1.45v5.69h1.29a5.15,5.15,0,0,0,1-.08,1.61,1.61,0,0,0,.7-.36,1.7,1.7,0,0,0,.45-.83,5.88,5.88,0,0,0,.18-1.57,5.06,5.06,0,0,0-.18-1.53,2,2,0,0,0-.49-.83,1.64,1.64,0,0,0-.8-.4,8.4,8.4,0,0,0-1.42-.08h-.78Z" transform="translate(0 -1.67)"/><path d="M426.12,366.54h-1.89l-.75-2h-3.43l-.71,2H417.5l3.35-8.59h1.83Zm-3.19-3.39L421.75,360l-1.16,3.19Z" transform="translate(0 -1.67)"/><path d="M429.91,366.54v-1.73h-3.52v-1.44l3.73-5.46h1.38v5.45h1.07v1.45H431.5v1.73Zm0-3.17v-2.94l-2,2.94Z" transform="translate(0 -1.67)"/><path d="M436.14,357.92a2.36,2.36,0,0,1,1.95.89,7.71,7.71,0,0,1,0,7,2.33,2.33,0,0,1-1.95.88,2.45,2.45,0,0,1-2-1,7.86,7.86,0,0,1,.07-6.93A2.35,2.35,0,0,1,436.14,357.92Zm0,1.37a.78.78,0,0,0-.53.19,1.27,1.27,0,0,0-.36.68,14.07,14.07,0,0,0,0,4.23,1.44,1.44,0,0,0,.38.75.84.84,0,0,0,.53.19.78.78,0,0,0,.53-.19,1.27,1.27,0,0,0,.36-.68,14,14,0,0,0,0-4.22,1.52,1.52,0,0,0-.38-.76A.78.78,0,0,0,436.14,359.29Z" transform="translate(0 -1.67)"/><path d="M440,359.6v-1.53h5.63v1.2a9,9,0,0,0-1.42,2,11.4,11.4,0,0,0-1.1,2.73,9.94,9.94,0,0,0-.37,2.58h-1.59a10.88,10.88,0,0,1,.74-3.63,12.4,12.4,0,0,1,1.85-3.31H440Z" transform="translate(0 -1.67)"/><path d="M446.73,364.34l1.64-.17a1.41,1.41,0,0,0,.42.88,1.17,1.17,0,0,0,.8.33,1.11,1.11,0,0,0,.87-.42,1.89,1.89,0,0,0,.36-1.26,1.78,1.78,0,0,0-.35-1.19,1.15,1.15,0,0,0-.92-.4,1.67,1.67,0,0,0-1.27.63l-1.34-.19.84-4.47h4.35v1.54H449l-.26,1.46a2.54,2.54,0,0,1,1.12-.28,2.49,2.49,0,0,1,1.86.8,2.86,2.86,0,0,1,.76,2.07,3.08,3.08,0,0,1-.62,1.89,2.72,2.72,0,0,1-2.33,1.14,2.87,2.87,0,0,1-1.94-.64A2.62,2.62,0,0,1,446.73,364.34Z" transform="translate(0 -1.67)"/><path d="M453.54,364.25V362.6h3.23v1.65Z" transform="translate(0 -1.67)"/><path d="M462.93,365v1.53h-5.77a3.91,3.91,0,0,1,.56-1.64,11.28,11.28,0,0,1,1.85-2.06,11.7,11.7,0,0,0,1.37-1.41,1.8,1.8,0,0,0,.34-1,1.14,1.14,0,0,0-.3-.85,1.1,1.1,0,0,0-.82-.3,1.09,1.09,0,0,0-.82.31,1.61,1.61,0,0,0-.35,1l-1.64-.16a2.66,2.66,0,0,1,.92-1.95,3.12,3.12,0,0,1,1.93-.59,2.79,2.79,0,0,1,2,.69,2.25,2.25,0,0,1,.73,1.71,2.91,2.91,0,0,1-.21,1.1,4.51,4.51,0,0,1-.66,1.1,11.38,11.38,0,0,1-1.08,1.1c-.52.48-.85.79-1,.95a3.18,3.18,0,0,0-.34.46h3.28Z" transform="translate(0 -1.67)"/><path d="M485.1,327.23a5.45,5.45,0,0,1,.39-2.2,4.1,4.1,0,0,1,.8-1.18,3.23,3.23,0,0,1,1.11-.77,4.66,4.66,0,0,1,1.85-.34,4,4,0,0,1,3,1.18,5.26,5.26,0,0,1,0,6.53,4,4,0,0,1-3,1.17,4.05,4.05,0,0,1-3-1.17A4.42,4.42,0,0,1,485.1,327.23Zm1.79-.06a3.21,3.21,0,0,0,.67,2.21,2.2,2.2,0,0,0,1.71.75,2.17,2.17,0,0,0,1.7-.75,3.31,3.31,0,0,0,.67-2.24,3.23,3.23,0,0,0-.65-2.2,2.39,2.39,0,0,0-3.45,0A3.24,3.24,0,0,0,486.89,327.17Z" transform="translate(0 -1.67)"/><path d="M494.78,331.47v-8.59h2.78a9.77,9.77,0,0,1,2.06.13,2.31,2.31,0,0,1,1.24.84,2.61,2.61,0,0,1,.5,1.67,2.81,2.81,0,0,1-.29,1.33,2.34,2.34,0,0,1-.73.85,2.5,2.5,0,0,1-.9.41,10.09,10.09,0,0,1-1.8.12h-1.13v3.24Zm1.74-7.14v2.44h1a4.53,4.53,0,0,0,1.37-.13,1.14,1.14,0,0,0,.54-.42,1.15,1.15,0,0,0,.2-.67,1.07,1.07,0,0,0-.28-.77,1.24,1.24,0,0,0-.7-.38,8.16,8.16,0,0,0-1.25-.06h-.83Z" transform="translate(0 -1.67)"/><path d="M508,329.94v1.53h-5.77a3.91,3.91,0,0,1,.56-1.64,11.28,11.28,0,0,1,1.85-2.06,11.7,11.7,0,0,0,1.37-1.41,1.8,1.8,0,0,0,.34-1,1.14,1.14,0,0,0-.3-.85,1.1,1.1,0,0,0-.82-.3,1.09,1.09,0,0,0-.82.31,1.61,1.61,0,0,0-.35,1l-1.64-.16a2.66,2.66,0,0,1,.92-1.95,3.12,3.12,0,0,1,1.93-.59,2.79,2.79,0,0,1,2,.69,2.25,2.25,0,0,1,.73,1.71,2.91,2.91,0,0,1-.21,1.1,4.51,4.51,0,0,1-.66,1.1,11.38,11.38,0,0,1-1.08,1.1c-.52.48-.85.79-1,.95a3.18,3.18,0,0,0-.34.46H508Z" transform="translate(0 -1.67)"/><path d="M509.1,324.52V323h5.63v1.2a9,9,0,0,0-1.42,2,11.4,11.4,0,0,0-1.1,2.73,9.89,9.89,0,0,0-.37,2.58h-1.59a10.88,10.88,0,0,1,.74-3.63,12.4,12.4,0,0,1,1.85-3.31H509.1Z" transform="translate(0 -1.67)"/><path d="M515.24,331.61l2.13-8.88h1.24l-2.15,8.88Z" transform="translate(0 -1.67)"/><path d="M519.12,327.23a5.45,5.45,0,0,1,.39-2.2,4.1,4.1,0,0,1,.8-1.18,3.23,3.23,0,0,1,1.11-.77,4.66,4.66,0,0,1,1.85-.34,4,4,0,0,1,3,1.18,5.26,5.26,0,0,1,0,6.53,4,4,0,0,1-3,1.17,4.05,4.05,0,0,1-3-1.17A4.42,4.42,0,0,1,519.12,327.23Zm1.78-.06a3.21,3.21,0,0,0,.67,2.21,2.2,2.2,0,0,0,1.71.75,2.17,2.17,0,0,0,1.7-.75,3.31,3.31,0,0,0,.67-2.24,3.23,3.23,0,0,0-.65-2.2,2.39,2.39,0,0,0-3.45,0A3.24,3.24,0,0,0,520.9,327.17Z" transform="translate(0 -1.67)"/><path d="M528.8,331.47v-8.59h2.78a9.77,9.77,0,0,1,2.06.13,2.31,2.31,0,0,1,1.24.84,2.61,2.61,0,0,1,.5,1.67,2.81,2.81,0,0,1-.29,1.33,2.34,2.34,0,0,1-.73.85,2.5,2.5,0,0,1-.9.41,10.09,10.09,0,0,1-1.8.12h-1.13v3.24Zm1.74-7.14v2.44h1a4.53,4.53,0,0,0,1.37-.13,1.14,1.14,0,0,0,.54-.42,1.15,1.15,0,0,0,.2-.67,1.07,1.07,0,0,0-.28-.77,1.24,1.24,0,0,0-.7-.38,8.16,8.16,0,0,0-1.25-.06h-.83Z" transform="translate(0 -1.67)"/><path d="M536.39,329.19,538,329a1.49,1.49,0,0,0,.41.93,1.13,1.13,0,0,0,.81.32,1.11,1.11,0,0,0,.86-.39,1.52,1.52,0,0,0,.35-1,1.4,1.4,0,0,0-.33-1,1.06,1.06,0,0,0-.81-.36,3,3,0,0,0-.76.12l.18-1.34a1.42,1.42,0,0,0,1-.29,1.06,1.06,0,0,0,.35-.82.89.89,0,0,0-.95-.95,1,1,0,0,0-.72.29,1.34,1.34,0,0,0-.36.86l-1.52-.26a3.44,3.44,0,0,1,.48-1.25,2.14,2.14,0,0,1,.89-.73,3,3,0,0,1,1.28-.27,2.58,2.58,0,0,1,2,.77,2,2,0,0,1-.64,3.23,2,2,0,0,1,1.18.71,2.09,2.09,0,0,1,.44,1.33,2.6,2.6,0,0,1-.83,1.93,2.86,2.86,0,0,1-2.06.8,2.8,2.8,0,0,1-1.93-.67A2.62,2.62,0,0,1,536.39,329.19Z" transform="translate(0 -1.67)"/><path d="M543.12,324.52V323h5.63v1.2a9,9,0,0,0-1.42,2,11.4,11.4,0,0,0-1.1,2.73,9.94,9.94,0,0,0-.37,2.58h-1.59a10.88,10.88,0,0,1,.74-3.63,12.4,12.4,0,0,1,1.85-3.31h-3.74Z" transform="translate(0 -1.67)"/><path d="M613,327.64h-1.89l-.75-1.95H607l-.71,1.95h-1.84l3.35-8.59h1.83Zm-3.2-3.4-1.18-3.19-1.16,3.19Z" transform="translate(0 -1.67)"/><path d="M613.94,319.05h3.17a6.15,6.15,0,0,1,1.63.16A2.83,2.83,0,0,1,620,320a3.91,3.91,0,0,1,.82,1.39,6.3,6.3,0,0,1,.28,2,5.81,5.81,0,0,1-.26,1.83,3.78,3.78,0,0,1-.92,1.52,3.18,3.18,0,0,1-1.22.69,5.27,5.27,0,0,1-1.54.18h-3.26v-8.59Zm1.73,1.45v5.69H617a5.15,5.15,0,0,0,1-.08,1.61,1.61,0,0,0,.7-.36,1.7,1.7,0,0,0,.45-.83,5.88,5.88,0,0,0,.18-1.57,5.06,5.06,0,0,0-.18-1.53,2,2,0,0,0-.49-.83,1.64,1.64,0,0,0-.8-.4,8.4,8.4,0,0,0-1.42-.08h-.78Z" transform="translate(0 -1.67)"/><path d="M622.25,320.69v-1.53h5.63v1.2a9,9,0,0,0-1.42,2,11.4,11.4,0,0,0-1.1,2.73,9.94,9.94,0,0,0-.37,2.58H623.4a10.88,10.88,0,0,1,.74-3.63A12.4,12.4,0,0,1,626,320.7h-3.74Z" transform="translate(0 -1.67)"/><path d="M632.15,327.64v-1.73h-3.52v-1.44l3.73-5.46h1.38v5.45h1.07v1.45h-1.07v1.73Zm0-3.18v-2.94l-2,2.94Z" transform="translate(0 -1.67)"/><path d="M635.54,325.36l1.59-.19a1.49,1.49,0,0,0,.41.93,1.13,1.13,0,0,0,.81.32,1.11,1.11,0,0,0,.86-.39,1.52,1.52,0,0,0,.35-1,1.4,1.4,0,0,0-.33-1,1.06,1.06,0,0,0-.81-.36,3,3,0,0,0-.76.12l.18-1.34a1.42,1.42,0,0,0,1-.29,1.06,1.06,0,0,0,.35-.82.89.89,0,0,0-1-.95,1,1,0,0,0-.72.29,1.34,1.34,0,0,0-.36.86l-1.52-.26a3.44,3.44,0,0,1,.48-1.25,2.14,2.14,0,0,1,.89-.73,3,3,0,0,1,1.28-.27,2.58,2.58,0,0,1,2,.77,2,2,0,0,1-.64,3.23,2,2,0,0,1,1.18.71,2.09,2.09,0,0,1,.44,1.33,2.6,2.6,0,0,1-.83,1.93,2.86,2.86,0,0,1-2.06.8,2.8,2.8,0,0,1-1.93-.67A2.62,2.62,0,0,1,635.54,325.36Z" transform="translate(0 -1.67)"/><path d="M641.74,327.78l2.13-8.88h1.24L643,327.78Z" transform="translate(0 -1.67)"/><path d="M653.71,327.64h-1.89l-.75-1.95h-3.43l-.71,1.95h-1.84l3.35-8.59h1.83Zm-3.19-3.4-1.18-3.19-1.16,3.19Z" transform="translate(0 -1.67)"/><path d="M654.63,319.05h3.17a6.15,6.15,0,0,1,1.63.16,2.83,2.83,0,0,1,1.29.79,3.91,3.91,0,0,1,.82,1.39,6.3,6.3,0,0,1,.28,2,5.81,5.81,0,0,1-.26,1.83,3.78,3.78,0,0,1-.92,1.52,3.18,3.18,0,0,1-1.22.69,5.27,5.27,0,0,1-1.54.18h-3.26v-8.59Zm1.73,1.45v5.69h1.29a5.15,5.15,0,0,0,1.05-.08,1.61,1.61,0,0,0,.7-.36,1.7,1.7,0,0,0,.45-.83,5.88,5.88,0,0,0,.18-1.57,5.06,5.06,0,0,0-.18-1.53,2,2,0,0,0-.49-.83,1.64,1.64,0,0,0-.8-.4,8.4,8.4,0,0,0-1.42-.08h-.78Z" transform="translate(0 -1.67)"/><path d="M662.94,320.69v-1.53h5.63v1.2a9,9,0,0,0-1.42,2,11.4,11.4,0,0,0-1.1,2.73,9.94,9.94,0,0,0-.37,2.58h-1.59a10.88,10.88,0,0,1,.74-3.63,12.4,12.4,0,0,1,1.85-3.31h-3.74Z" transform="translate(0 -1.67)"/><path d="M672.84,327.64v-1.73h-3.52v-1.44l3.73-5.46h1.38v5.45h1.07v1.45h-1.07v1.73Zm0-3.18v-2.94l-2,2.94Z" transform="translate(0 -1.67)"/><path d="M676.31,325.43l1.64-.17a1.41,1.41,0,0,0,.42.88,1.17,1.17,0,0,0,.8.33,1.11,1.11,0,0,0,.87-.42,1.89,1.89,0,0,0,.36-1.26,1.78,1.78,0,0,0-.35-1.19,1.15,1.15,0,0,0-.92-.4,1.67,1.67,0,0,0-1.27.63l-1.34-.19.84-4.47h4.35v1.54H678.6l-.26,1.46a2.54,2.54,0,0,1,1.12-.28,2.49,2.49,0,0,1,1.86.8,2.86,2.86,0,0,1,.76,2.07,3.08,3.08,0,0,1-.62,1.89,2.72,2.72,0,0,1-2.33,1.14,2.87,2.87,0,0,1-1.94-.64A2.59,2.59,0,0,1,676.31,325.43Z" transform="translate(0 -1.67)"/><path d="M619.69,139.3H617.8l-.75-2h-3.43l-.71,2h-1.84l3.35-8.59h1.83Zm-3.19-3.39-1.18-3.19-1.16,3.19Z" transform="translate(0 -1.67)"/><path d="M620.61,130.71h3.17a6.15,6.15,0,0,1,1.63.16,2.83,2.83,0,0,1,1.29.79,3.91,3.91,0,0,1,.82,1.39,6.3,6.3,0,0,1,.28,2,5.81,5.81,0,0,1-.26,1.83,3.78,3.78,0,0,1-.92,1.52,3.18,3.18,0,0,1-1.22.69,5.27,5.27,0,0,1-1.54.18H620.6v-8.59Zm1.73,1.46v5.69h1.29a5.15,5.15,0,0,0,1-.08,1.61,1.61,0,0,0,.7-.36,1.7,1.7,0,0,0,.45-.83A5.88,5.88,0,0,0,626,135a5.06,5.06,0,0,0-.18-1.53,2,2,0,0,0-.49-.83,1.64,1.64,0,0,0-.8-.4,8.4,8.4,0,0,0-1.42-.08h-.78Z" transform="translate(0 -1.67)"/><path d="M630.33,134.67a1.91,1.91,0,0,1-.93-.74,2,2,0,0,1-.29-1,2.08,2.08,0,0,1,.67-1.59,3.2,3.2,0,0,1,3.81,0,2.09,2.09,0,0,1,.68,1.59A1.83,1.83,0,0,1,634,134a2,2,0,0,1-.87.71,2.28,2.28,0,0,1,1.09.84,2.2,2.2,0,0,1,.37,1.27,2.56,2.56,0,0,1-.76,1.93,2.79,2.79,0,0,1-2,.74,3.05,3.05,0,0,1-1.95-.62,2.4,2.4,0,0,1-.92-2,2.49,2.49,0,0,1,.35-1.28A2.15,2.15,0,0,1,630.33,134.67Zm.19,2a1.52,1.52,0,0,0,.35,1.06,1.14,1.14,0,0,0,.87.38,1.07,1.07,0,0,0,.84-.37,1.55,1.55,0,0,0,.33-1.06,1.35,1.35,0,0,0-.34-1,1.14,1.14,0,0,0-.86-.37,1,1,0,0,0-.9.42A1.54,1.54,0,0,0,630.52,136.69Zm.15-3.68a1,1,0,0,0,.28.77,1,1,0,0,0,.74.28,1,1,0,0,0,.75-.28,1,1,0,0,0,.28-.77,1,1,0,0,0-.28-.74,1.14,1.14,0,0,0-1.5,0A1,1,0,0,0,630.67,133Z" transform="translate(0 -1.67)"/><path d="M641.17,132.82l-1.59.18a1.2,1.2,0,0,0-.3-.73.87.87,0,0,0-.64-.23,1.08,1.08,0,0,0-.88.47,3.91,3.91,0,0,0-.45,2,1.94,1.94,0,0,1,1.53-.73,2.32,2.32,0,0,1,1.77.79,2.87,2.87,0,0,1,.74,2,3,3,0,0,1-.77,2.12,2.61,2.61,0,0,1-2,.8,2.67,2.67,0,0,1-2.14-1,5.18,5.18,0,0,1-.84-3.31,5.3,5.3,0,0,1,.87-3.4,2.83,2.83,0,0,1,2.27-1,2.39,2.39,0,0,1,1.62.55A2.47,2.47,0,0,1,641.17,132.82Zm-3.73,3.59a1.84,1.84,0,0,0,.37,1.24,1.1,1.1,0,0,0,.84.44,1,1,0,0,0,.76-.36,1.82,1.82,0,0,0,.3-1.17,1.88,1.88,0,0,0-.33-1.23,1,1,0,0,0-.82-.39,1,1,0,0,0-.8.37A1.62,1.62,0,0,0,637.44,136.41Z" transform="translate(0 -1.67)"/><path d="M647.82,137.77v1.53h-5.77a3.91,3.91,0,0,1,.56-1.64,11.28,11.28,0,0,1,1.85-2.06,11.7,11.7,0,0,0,1.37-1.41,1.8,1.8,0,0,0,.34-1,1.14,1.14,0,0,0-.3-.85,1.1,1.1,0,0,0-.82-.3,1.09,1.09,0,0,0-.82.31,1.61,1.61,0,0,0-.35,1l-1.64-.16a2.66,2.66,0,0,1,.92-2,3.12,3.12,0,0,1,1.93-.59,2.79,2.79,0,0,1,2,.69,2.25,2.25,0,0,1,.73,1.71,2.91,2.91,0,0,1-.21,1.1,4.51,4.51,0,0,1-.66,1.1,11.38,11.38,0,0,1-1.08,1.1c-.52.48-.85.79-1,.95a3.18,3.18,0,0,0-.34.46h3.28Z" transform="translate(0 -1.67)"/><path d="M654.5,137.77v1.53h-5.77a3.91,3.91,0,0,1,.56-1.64,11.28,11.28,0,0,1,1.85-2.06,11.7,11.7,0,0,0,1.37-1.41,1.8,1.8,0,0,0,.34-1,1.14,1.14,0,0,0-.3-.85,1.1,1.1,0,0,0-.82-.3,1.09,1.09,0,0,0-.82.31,1.61,1.61,0,0,0-.35,1l-1.64-.16a2.66,2.66,0,0,1,.92-2,3.12,3.12,0,0,1,1.93-.59,2.79,2.79,0,0,1,2,.69,2.25,2.25,0,0,1,.73,1.71,2.91,2.91,0,0,1-.21,1.1,4.51,4.51,0,0,1-.66,1.1,11.38,11.38,0,0,1-1.08,1.1c-.52.48-.85.79-1,.95a3.18,3.18,0,0,0-.34.46h3.28Z" transform="translate(0 -1.67)"/><path d="M655.08,139.45l2.13-8.88h1.24l-2.15,8.88Z" transform="translate(0 -1.67)"/><path d="M667.06,139.3h-1.89l-.75-2H661l-.71,2h-1.84l3.35-8.59h1.83Zm-3.2-3.39-1.18-3.19-1.16,3.19Z" transform="translate(0 -1.67)"/><path d="M668,130.71h3.17a6.15,6.15,0,0,1,1.63.16,2.83,2.83,0,0,1,1.29.79,3.91,3.91,0,0,1,.82,1.39,6.3,6.3,0,0,1,.28,2,5.81,5.81,0,0,1-.26,1.83,3.78,3.78,0,0,1-.92,1.52,3.18,3.18,0,0,1-1.22.69,5.27,5.27,0,0,1-1.54.18H668v-8.59Zm1.73,1.46v5.69H671a5.15,5.15,0,0,0,1-.08,1.61,1.61,0,0,0,.7-.36,1.7,1.7,0,0,0,.45-.83,5.88,5.88,0,0,0,.18-1.57,5.06,5.06,0,0,0-.18-1.53,2,2,0,0,0-.49-.83,1.64,1.64,0,0,0-.8-.4,8.4,8.4,0,0,0-1.42-.08h-.79Z" transform="translate(0 -1.67)"/><path d="M677.69,134.67a1.91,1.91,0,0,1-.93-.74,2,2,0,0,1-.29-1,2.08,2.08,0,0,1,.67-1.59,3.2,3.2,0,0,1,3.81,0,2.09,2.09,0,0,1,.68,1.59,1.83,1.83,0,0,1-.31,1.06,2,2,0,0,1-.87.71,2.28,2.28,0,0,1,1.09.84,2.2,2.2,0,0,1,.37,1.27,2.56,2.56,0,0,1-.76,1.93,2.79,2.79,0,0,1-2,.74,3.05,3.05,0,0,1-2-.62,2.4,2.4,0,0,1-.92-2,2.49,2.49,0,0,1,.35-1.28A2.15,2.15,0,0,1,677.69,134.67Zm.19,2a1.52,1.52,0,0,0,.35,1.06,1.14,1.14,0,0,0,.87.38,1.07,1.07,0,0,0,.84-.37,1.55,1.55,0,0,0,.33-1.06,1.35,1.35,0,0,0-.34-1,1.14,1.14,0,0,0-.86-.37,1,1,0,0,0-.9.42A1.54,1.54,0,0,0,677.88,136.69ZM678,133a1,1,0,0,0,.28.77,1,1,0,0,0,.74.28,1,1,0,0,0,.75-.28,1,1,0,0,0,.28-.77,1,1,0,0,0-.28-.74,1.14,1.14,0,0,0-1.5,0A1,1,0,0,0,678,133Z" transform="translate(0 -1.67)"/><path d="M688.53,132.82l-1.59.18a1.2,1.2,0,0,0-.3-.73A.87.87,0,0,0,686,132a1.08,1.08,0,0,0-.88.47,3.91,3.91,0,0,0-.45,2,1.94,1.94,0,0,1,1.53-.73,2.32,2.32,0,0,1,1.77.79,2.87,2.87,0,0,1,.74,2,3,3,0,0,1-.77,2.12,2.61,2.61,0,0,1-2,.8,2.67,2.67,0,0,1-2.14-1,5.18,5.18,0,0,1-.84-3.31,5.3,5.3,0,0,1,.87-3.4,2.83,2.83,0,0,1,2.27-1,2.39,2.39,0,0,1,1.62.55A2.47,2.47,0,0,1,688.53,132.82Zm-3.73,3.59a1.84,1.84,0,0,0,.37,1.24,1.1,1.1,0,0,0,.84.44,1,1,0,0,0,.76-.36,1.82,1.82,0,0,0,.3-1.17,1.88,1.88,0,0,0-.33-1.23,1,1,0,0,0-.82-.39,1,1,0,0,0-.8.37A1.62,1.62,0,0,0,684.8,136.41Z" transform="translate(0 -1.67)"/><path d="M695.19,137.77v1.53h-5.77a3.91,3.91,0,0,1,.56-1.64,11.28,11.28,0,0,1,1.85-2.06,11.7,11.7,0,0,0,1.37-1.41,1.8,1.8,0,0,0,.34-1,1.14,1.14,0,0,0-.3-.85,1.1,1.1,0,0,0-.82-.3,1.09,1.09,0,0,0-.82.31,1.61,1.61,0,0,0-.35,1l-1.64-.16a2.66,2.66,0,0,1,.92-2,3.12,3.12,0,0,1,1.93-.59,2.79,2.79,0,0,1,2,.69,2.25,2.25,0,0,1,.73,1.71,2.91,2.91,0,0,1-.21,1.1,4.51,4.51,0,0,1-.66,1.1,11.38,11.38,0,0,1-1.08,1.1c-.52.48-.85.79-1,.95a3.18,3.18,0,0,0-.34.46h3.28Z" transform="translate(0 -1.67)"/><path d="M699.53,139.3v-1.73H696v-1.44l3.73-5.46h1.38v5.45h1.07v1.45h-1.07v1.73Zm0-3.17v-2.94l-2,2.94Z" transform="translate(0 -1.67)"/><path d="M368.2,311.89a5.45,5.45,0,0,1,.39-2.2,4.1,4.1,0,0,1,.8-1.18,3.23,3.23,0,0,1,1.11-.77,4.66,4.66,0,0,1,1.85-.34,4,4,0,0,1,3,1.18,5.26,5.26,0,0,1,0,6.53,4,4,0,0,1-3,1.17,4.05,4.05,0,0,1-3.05-1.17A4.41,4.41,0,0,1,368.2,311.89Zm1.78-.06a3.21,3.21,0,0,0,.67,2.21,2.2,2.2,0,0,0,1.71.75,2.17,2.17,0,0,0,1.7-.75,3.31,3.31,0,0,0,.66-2.24,3.18,3.18,0,0,0-.65-2.2,2.39,2.39,0,0,0-3.45,0A3.25,3.25,0,0,0,370,311.83Z" transform="translate(0 -1.67)"/><path d="M377.88,316.13v-8.59h2.78a9.77,9.77,0,0,1,2.06.13,2.31,2.31,0,0,1,1.24.84,2.61,2.61,0,0,1,.5,1.67,2.81,2.81,0,0,1-.29,1.33,2.34,2.34,0,0,1-.73.85,2.5,2.5,0,0,1-.9.41,10.09,10.09,0,0,1-1.8.12h-1.13v3.24Zm1.74-7.13v2.44h.95a4.53,4.53,0,0,0,1.37-.13,1.14,1.14,0,0,0,.54-.42,1.15,1.15,0,0,0,.2-.67,1.07,1.07,0,0,0-.28-.77,1.24,1.24,0,0,0-.7-.38,8.16,8.16,0,0,0-1.25-.06h-.83Z" transform="translate(0 -1.67)"/><path d="M391.08,314.61v1.53h-5.77a3.91,3.91,0,0,1,.56-1.64,11.28,11.28,0,0,1,1.85-2.06,11.7,11.7,0,0,0,1.37-1.41,1.8,1.8,0,0,0,.34-1,1.14,1.14,0,0,0-.3-.85,1.1,1.1,0,0,0-.82-.3,1.09,1.09,0,0,0-.82.31,1.61,1.61,0,0,0-.35,1l-1.64-.16a2.66,2.66,0,0,1,.92-1.95,3.12,3.12,0,0,1,1.93-.59,2.79,2.79,0,0,1,2,.69,2.25,2.25,0,0,1,.73,1.71,2.91,2.91,0,0,1-.21,1.1,4.51,4.51,0,0,1-.66,1.1,11.38,11.38,0,0,1-1.08,1.1c-.52.48-.85.79-1,1a3.18,3.18,0,0,0-.34.46h3.28Z" transform="translate(0 -1.67)"/><path d="M392.2,309.19v-1.53h5.63v1.2a9,9,0,0,0-1.42,2,11.4,11.4,0,0,0-1.1,2.73,9.94,9.94,0,0,0-.37,2.58h-1.59a10.88,10.88,0,0,1,.74-3.63,12.4,12.4,0,0,1,1.85-3.31H392.2Z" transform="translate(0 -1.67)"/><path d="M401.65,307.51a2.36,2.36,0,0,1,2,.89,7.71,7.71,0,0,1,0,7,2.33,2.33,0,0,1-2,.88,2.45,2.45,0,0,1-2-1,7.86,7.86,0,0,1,.07-6.93A2.35,2.35,0,0,1,401.65,307.51Zm0,1.37a.78.78,0,0,0-.53.19,1.27,1.27,0,0,0-.36.68,14.07,14.07,0,0,0,0,4.23,1.44,1.44,0,0,0,.38.75.84.84,0,0,0,.53.19.78.78,0,0,0,.53-.19,1.27,1.27,0,0,0,.36-.68,14,14,0,0,0,0-4.22,1.52,1.52,0,0,0-.38-.76A.78.78,0,0,0,401.65,308.88Z" transform="translate(0 -1.67)"/><path d="M516.46,292.74a5.45,5.45,0,0,1,.39-2.2,4.1,4.1,0,0,1,.8-1.18,3.23,3.23,0,0,1,1.11-.77,4.66,4.66,0,0,1,1.85-.34,4,4,0,0,1,3,1.18,5.26,5.26,0,0,1,0,6.53,4,4,0,0,1-3,1.17,4.05,4.05,0,0,1-3-1.17A4.41,4.41,0,0,1,516.46,292.74Zm1.79-.06a3.21,3.21,0,0,0,.67,2.21,2.2,2.2,0,0,0,1.71.75,2.17,2.17,0,0,0,1.7-.75,3.31,3.31,0,0,0,.67-2.24,3.23,3.23,0,0,0-.65-2.2,2.39,2.39,0,0,0-3.45,0A3.24,3.24,0,0,0,518.25,292.68Z" transform="translate(0 -1.67)"/><path d="M526.15,297v-8.59h2.78a9.77,9.77,0,0,1,2.06.13,2.31,2.31,0,0,1,1.24.84,2.61,2.61,0,0,1,.5,1.67,2.81,2.81,0,0,1-.29,1.33,2.34,2.34,0,0,1-.73.85,2.5,2.5,0,0,1-.9.41,10.09,10.09,0,0,1-1.8.12h-1.13V297Zm1.73-7.13v2.44h1a4.53,4.53,0,0,0,1.37-.13,1.14,1.14,0,0,0,.54-.42,1.15,1.15,0,0,0,.2-.67,1.07,1.07,0,0,0-.28-.77,1.24,1.24,0,0,0-.7-.38,8.16,8.16,0,0,0-1.25-.06h-.83Z" transform="translate(0 -1.67)"/><path d="M533.35,297l2.24-3.21-2.15-3h2l1.1,1.71,1.16-1.71h1.93l-2.11,2.95,2.3,3.28h-2l-1.27-1.93L535.26,297Z" transform="translate(0 -1.67)"/><path d="M541.88,292.35a1.91,1.91,0,0,1-.93-.74,2,2,0,0,1-.29-1,2.08,2.08,0,0,1,.67-1.59,3.2,3.2,0,0,1,3.81,0,2.09,2.09,0,0,1,.68,1.59,1.83,1.83,0,0,1-.31,1.06,2,2,0,0,1-.87.71,2.28,2.28,0,0,1,1.09.84,2.2,2.2,0,0,1,.37,1.27,2.56,2.56,0,0,1-.76,1.93,2.79,2.79,0,0,1-2,.74,3.05,3.05,0,0,1-2-.62,2.4,2.4,0,0,1-.92-2,2.49,2.49,0,0,1,.35-1.28A2.15,2.15,0,0,1,541.88,292.35Zm.18,2a1.52,1.52,0,0,0,.35,1.06,1.14,1.14,0,0,0,.87.38,1.07,1.07,0,0,0,.84-.37,1.55,1.55,0,0,0,.33-1.06,1.35,1.35,0,0,0-.34-1,1.14,1.14,0,0,0-.86-.37,1,1,0,0,0-.9.42A1.54,1.54,0,0,0,542.06,294.37Zm.16-3.68a1,1,0,0,0,.28.77,1,1,0,0,0,.74.28,1,1,0,0,0,.75-.28,1,1,0,0,0,.28-.77A1,1,0,0,0,544,290a1.14,1.14,0,0,0-1.5,0A1,1,0,0,0,542.22,290.69Z" transform="translate(0 -1.67)"/><path d="M550.37,297v-1.73h-3.52v-1.44l3.73-5.46H552v5.45H553v1.45H552V297Zm0-3.17v-2.94l-2,2.94Z" transform="translate(0 -1.67)"/><path d="M502.67,259.88a5.45,5.45,0,0,1,.39-2.2,4.1,4.1,0,0,1,.8-1.18,3.23,3.23,0,0,1,1.11-.77,4.66,4.66,0,0,1,1.85-.34,4,4,0,0,1,3,1.18,5.26,5.26,0,0,1,0,6.53,4,4,0,0,1-3,1.17,4.05,4.05,0,0,1-3.05-1.17A4.42,4.42,0,0,1,502.67,259.88Zm1.78-.06a3.21,3.21,0,0,0,.67,2.21,2.2,2.2,0,0,0,1.71.75,2.17,2.17,0,0,0,1.7-.75,3.31,3.31,0,0,0,.67-2.24,3.23,3.23,0,0,0-.65-2.2,2.39,2.39,0,0,0-3.45,0A3.24,3.24,0,0,0,504.45,259.82Z" transform="translate(0 -1.67)"/><path d="M512.35,264.12v-8.59h2.78a9.77,9.77,0,0,1,2.06.13,2.31,2.31,0,0,1,1.24.84,2.61,2.61,0,0,1,.5,1.67,2.81,2.81,0,0,1-.29,1.33,2.34,2.34,0,0,1-.73.85,2.5,2.5,0,0,1-.9.41,10.09,10.09,0,0,1-1.8.12h-1.13v3.24Zm1.74-7.14v2.44H515a4.53,4.53,0,0,0,1.37-.13,1.14,1.14,0,0,0,.54-.42,1.15,1.15,0,0,0,.2-.67,1.07,1.07,0,0,0-.28-.77,1.24,1.24,0,0,0-.7-.38,8.16,8.16,0,0,0-1.25-.06h-.83Z" transform="translate(0 -1.67)"/><path d="M525.55,262.59v1.53h-5.77a3.91,3.91,0,0,1,.56-1.64,11.28,11.28,0,0,1,1.85-2.06,11.7,11.7,0,0,0,1.37-1.41,1.8,1.8,0,0,0,.34-1,1.14,1.14,0,0,0-.3-.85,1.1,1.1,0,0,0-.82-.3,1.09,1.09,0,0,0-.82.31,1.61,1.61,0,0,0-.35,1L520,258a2.66,2.66,0,0,1,.92-1.95,3.12,3.12,0,0,1,1.93-.59,2.79,2.79,0,0,1,2,.69,2.25,2.25,0,0,1,.73,1.71,2.91,2.91,0,0,1-.21,1.1,4.51,4.51,0,0,1-.66,1.1,11.38,11.38,0,0,1-1.08,1.1c-.52.48-.85.79-1,.95a3.18,3.18,0,0,0-.34.46h3.28Z" transform="translate(0 -1.67)"/><path d="M530.88,264.12h-1.65v-6.21a5.69,5.69,0,0,1-2.13,1.25v-1.49a4.75,4.75,0,0,0,1.4-.8,3.09,3.09,0,0,0,1-1.37h1.34Z" transform="translate(0 -1.67)"/><path d="M533.28,261.84l1.59-.19a1.49,1.49,0,0,0,.41.93,1.13,1.13,0,0,0,.81.32,1.11,1.11,0,0,0,.86-.39,1.52,1.52,0,0,0,.35-1,1.4,1.4,0,0,0-.33-1,1.06,1.06,0,0,0-.81-.36,3,3,0,0,0-.76.12l.18-1.34a1.42,1.42,0,0,0,1-.29,1.06,1.06,0,0,0,.35-.82.89.89,0,0,0-1-.95,1,1,0,0,0-.72.29,1.34,1.34,0,0,0-.36.86l-1.52-.26a3.44,3.44,0,0,1,.48-1.25,2.14,2.14,0,0,1,.89-.73,3,3,0,0,1,1.28-.27,2.58,2.58,0,0,1,2,.77,2,2,0,0,1-.64,3.23,2,2,0,0,1,1.18.71,2.09,2.09,0,0,1,.44,1.33,2.6,2.6,0,0,1-.83,1.93,2.86,2.86,0,0,1-2.06.8,2.8,2.8,0,0,1-1.93-.67A2.62,2.62,0,0,1,533.28,261.84Z" transform="translate(0 -1.67)"/><path d="M541.16,170.78a5.45,5.45,0,0,1,.39-2.2,4.1,4.1,0,0,1,.8-1.18,3.23,3.23,0,0,1,1.11-.77,4.66,4.66,0,0,1,1.85-.34,4,4,0,0,1,3,1.18,5.26,5.26,0,0,1,0,6.53,4,4,0,0,1-3,1.17,4.05,4.05,0,0,1-3.05-1.17A4.41,4.41,0,0,1,541.16,170.78Zm1.79-.06a3.21,3.21,0,0,0,.67,2.21,2.2,2.2,0,0,0,1.71.75,2.17,2.17,0,0,0,1.7-.75,3.31,3.31,0,0,0,.67-2.24,3.23,3.23,0,0,0-.65-2.2,2.39,2.39,0,0,0-3.45,0A3.24,3.24,0,0,0,543,170.72Z" transform="translate(0 -1.67)"/><path d="M550.85,175v-8.59h2.78a9.77,9.77,0,0,1,2.06.13,2.31,2.31,0,0,1,1.24.84,2.61,2.61,0,0,1,.5,1.67,2.81,2.81,0,0,1-.29,1.33,2.34,2.34,0,0,1-.73.85,2.5,2.5,0,0,1-.9.41,10.09,10.09,0,0,1-1.8.12h-1.13V175Zm1.73-7.14v2.44h.95a4.53,4.53,0,0,0,1.37-.13,1.14,1.14,0,0,0,.54-.42,1.15,1.15,0,0,0,.2-.67,1.07,1.07,0,0,0-.28-.77,1.24,1.24,0,0,0-.7-.38,8.16,8.16,0,0,0-1.25-.06h-.83Z" transform="translate(0 -1.67)"/><path d="M561.72,175v-1.73H558.2v-1.44l3.73-5.46h1.38v5.45h1.07v1.45h-1.07V175Zm0-3.18V168.9l-2,2.94Z" transform="translate(0 -1.67)"/><path d="M570.74,168.53l-1.59.18a1.2,1.2,0,0,0-.3-.73.87.87,0,0,0-.64-.23,1.08,1.08,0,0,0-.88.47,3.91,3.91,0,0,0-.45,1.95,1.94,1.94,0,0,1,1.53-.73,2.32,2.32,0,0,1,1.77.79,2.87,2.87,0,0,1,.74,2,3,3,0,0,1-.77,2.12,2.61,2.61,0,0,1-2,.8,2.67,2.67,0,0,1-2.14-1,5.18,5.18,0,0,1-.84-3.31,5.3,5.3,0,0,1,.87-3.4,2.83,2.83,0,0,1,2.27-1,2.39,2.39,0,0,1,1.62.55A2.5,2.5,0,0,1,570.74,168.53Zm-3.73,3.6a1.84,1.84,0,0,0,.37,1.24,1.1,1.1,0,0,0,.84.44,1,1,0,0,0,.76-.36,1.82,1.82,0,0,0,.3-1.17,1.88,1.88,0,0,0-.33-1.23,1,1,0,0,0-.82-.39,1,1,0,0,0-.8.37A1.61,1.61,0,0,0,567,172.13Z" transform="translate(0 -1.67)"/><path d="M571.83,168.08v-1.53h5.63v1.2a9,9,0,0,0-1.42,2,11.4,11.4,0,0,0-1.1,2.73,9.94,9.94,0,0,0-.37,2.58H573a10.88,10.88,0,0,1,.74-3.63,12.4,12.4,0,0,1,1.85-3.31h-3.74Z" transform="translate(0 -1.67)"/><path d="M543.59,154.22A5.45,5.45,0,0,1,544,152a4.1,4.1,0,0,1,.8-1.18,3.23,3.23,0,0,1,1.11-.77,4.66,4.66,0,0,1,1.85-.34,4,4,0,0,1,3,1.18,5.26,5.26,0,0,1,0,6.53,4,4,0,0,1-3,1.17,4.05,4.05,0,0,1-3-1.17A4.41,4.41,0,0,1,543.59,154.22Zm1.79-.06a3.21,3.21,0,0,0,.67,2.21,2.2,2.2,0,0,0,1.71.75,2.17,2.17,0,0,0,1.7-.75,3.31,3.31,0,0,0,.67-2.24,3.23,3.23,0,0,0-.65-2.2,2.39,2.39,0,0,0-3.45,0A3.24,3.24,0,0,0,545.38,154.16Z" transform="translate(0 -1.67)"/><path d="M553.27,158.46v-8.59h2.78a9.77,9.77,0,0,1,2.06.13,2.31,2.31,0,0,1,1.24.84,2.61,2.61,0,0,1,.5,1.67,2.81,2.81,0,0,1-.29,1.33,2.34,2.34,0,0,1-.73.85,2.5,2.5,0,0,1-.9.41,10.09,10.09,0,0,1-1.8.12H555v3.24Zm1.74-7.14v2.44h1a4.53,4.53,0,0,0,1.37-.13,1.14,1.14,0,0,0,.54-.42,1.15,1.15,0,0,0,.2-.67,1.07,1.07,0,0,0-.28-.77,1.24,1.24,0,0,0-.7-.38,8.16,8.16,0,0,0-1.25-.06H555Z" transform="translate(0 -1.67)"/><path d="M566.48,156.93v1.53h-5.77a3.91,3.91,0,0,1,.56-1.64,11.28,11.28,0,0,1,1.85-2.06,11.7,11.7,0,0,0,1.37-1.41,1.8,1.8,0,0,0,.34-1,1.14,1.14,0,0,0-.3-.85,1.1,1.1,0,0,0-.82-.3,1.09,1.09,0,0,0-.82.31,1.61,1.61,0,0,0-.35,1l-1.64-.16a2.66,2.66,0,0,1,.92-2,3.12,3.12,0,0,1,1.93-.59,2.79,2.79,0,0,1,2,.69,2.25,2.25,0,0,1,.73,1.71,2.91,2.91,0,0,1-.21,1.1,4.51,4.51,0,0,1-.66,1.1,11.38,11.38,0,0,1-1.08,1.1c-.52.48-.85.79-1,.95a3.18,3.18,0,0,0-.34.46h3.28Z" transform="translate(0 -1.67)"/><path d="M569,153.83a1.91,1.91,0,0,1-.93-.74,2,2,0,0,1-.29-1,2.08,2.08,0,0,1,.67-1.59,3.2,3.2,0,0,1,3.81,0,2.09,2.09,0,0,1,.68,1.59,1.83,1.83,0,0,1-.31,1.06,2,2,0,0,1-.87.71,2.28,2.28,0,0,1,1.09.84,2.2,2.2,0,0,1,.37,1.27,2.56,2.56,0,0,1-.76,1.93,2.79,2.79,0,0,1-2,.74,3.05,3.05,0,0,1-2-.62,2.4,2.4,0,0,1-.92-2,2.49,2.49,0,0,1,.35-1.28A2.15,2.15,0,0,1,569,153.83Zm.19,2a1.52,1.52,0,0,0,.35,1.06,1.14,1.14,0,0,0,.87.38,1.07,1.07,0,0,0,.84-.37,1.55,1.55,0,0,0,.33-1.06,1.35,1.35,0,0,0-.34-1,1.14,1.14,0,0,0-.86-.37,1,1,0,0,0-.9.42A1.52,1.52,0,0,0,569.19,155.85Zm.15-3.68a1,1,0,0,0,.28.77,1,1,0,0,0,.74.28,1,1,0,0,0,.75-.28,1,1,0,0,0,.28-.77,1,1,0,0,0-.28-.74,1.14,1.14,0,0,0-1.5,0A1,1,0,0,0,569.34,152.17Z" transform="translate(0 -1.67)"/><path d="M574.29,156.25l1.64-.17a1.41,1.41,0,0,0,.42.88,1.17,1.17,0,0,0,.8.33,1.11,1.11,0,0,0,.87-.42,1.89,1.89,0,0,0,.36-1.26,1.78,1.78,0,0,0-.35-1.19,1.15,1.15,0,0,0-.92-.4,1.67,1.67,0,0,0-1.27.63l-1.34-.19.84-4.47h4.35v1.54h-3.11l-.26,1.46a2.54,2.54,0,0,1,1.12-.28,2.49,2.49,0,0,1,1.86.8,2.86,2.86,0,0,1,.76,2.07,3.08,3.08,0,0,1-.62,1.89,2.72,2.72,0,0,1-2.33,1.14,2.87,2.87,0,0,1-1.94-.64A2.59,2.59,0,0,1,574.29,156.25Z" transform="translate(0 -1.67)"/><path d="M399.13,255.94a5.45,5.45,0,0,1,.39-2.2,4.1,4.1,0,0,1,.8-1.18,3.23,3.23,0,0,1,1.11-.77,4.66,4.66,0,0,1,1.85-.34,4,4,0,0,1,3,1.18,5.26,5.26,0,0,1,0,6.53,4,4,0,0,1-3,1.17,4.05,4.05,0,0,1-3.05-1.17A4.41,4.41,0,0,1,399.13,255.94Zm1.78-.06a3.21,3.21,0,0,0,.67,2.21,2.2,2.2,0,0,0,1.71.75,2.17,2.17,0,0,0,1.7-.75,3.31,3.31,0,0,0,.67-2.24,3.23,3.23,0,0,0-.65-2.2,2.39,2.39,0,0,0-3.45,0A3.24,3.24,0,0,0,400.91,255.88Z" transform="translate(0 -1.67)"/><path d="M408.81,260.18v-8.59h2.78a9.77,9.77,0,0,1,2.06.13,2.31,2.31,0,0,1,1.24.84,2.61,2.61,0,0,1,.5,1.67,2.81,2.81,0,0,1-.29,1.33,2.34,2.34,0,0,1-.73.85,2.5,2.5,0,0,1-.9.41,10.09,10.09,0,0,1-1.8.12h-1.13v3.24Zm1.74-7.14v2.44h.95a4.53,4.53,0,0,0,1.37-.13,1.14,1.14,0,0,0,.54-.42,1.15,1.15,0,0,0,.2-.67,1.07,1.07,0,0,0-.28-.77,1.24,1.24,0,0,0-.7-.38,8.16,8.16,0,0,0-1.25-.06h-.83Z" transform="translate(0 -1.67)"/><path d="M422,258.65v1.53h-5.77a3.91,3.91,0,0,1,.56-1.64,11.28,11.28,0,0,1,1.85-2.06,11.7,11.7,0,0,0,1.37-1.41,1.8,1.8,0,0,0,.34-1,1.14,1.14,0,0,0-.3-.85,1.1,1.1,0,0,0-.82-.3,1.09,1.09,0,0,0-.82.31,1.61,1.61,0,0,0-.35,1l-1.64-.16a2.66,2.66,0,0,1,.92-2,3.12,3.12,0,0,1,1.93-.59,2.79,2.79,0,0,1,2,.69A2.25,2.25,0,0,1,422,254a2.91,2.91,0,0,1-.21,1.1,4.51,4.51,0,0,1-.66,1.1,11.38,11.38,0,0,1-1.08,1.1c-.52.48-.85.79-1,.95a3.18,3.18,0,0,0-.34.46H422Z" transform="translate(0 -1.67)"/><path d="M423.13,253.24v-1.53h5.63v1.2a9,9,0,0,0-1.42,2,11.4,11.4,0,0,0-1.1,2.73,9.94,9.94,0,0,0-.37,2.58h-1.59a10.88,10.88,0,0,1,.74-3.63,12.4,12.4,0,0,1,1.85-3.31h-3.74Z" transform="translate(0 -1.67)"/><path d="M429.82,258l1.64-.17a1.41,1.41,0,0,0,.42.88,1.17,1.17,0,0,0,.8.33,1.11,1.11,0,0,0,.87-.42,1.89,1.89,0,0,0,.36-1.26,1.78,1.78,0,0,0-.35-1.19,1.15,1.15,0,0,0-.92-.4,1.67,1.67,0,0,0-1.27.63l-1.34-.19.84-4.47h4.35v1.54h-3.11l-.26,1.46a2.54,2.54,0,0,1,1.12-.28,2.49,2.49,0,0,1,1.86.8,2.86,2.86,0,0,1,.76,2.07,3.08,3.08,0,0,1-.62,1.89,2.72,2.72,0,0,1-2.33,1.14,2.87,2.87,0,0,1-1.94-.64A2.64,2.64,0,0,1,429.82,258Z" transform="translate(0 -1.67)"/><path d="M687.11,174.29h-1.89l-.75-1.95H681l-.71,1.95h-1.84l3.35-8.59h1.83Zm-3.19-3.4-1.18-3.19-1.16,3.19Z" transform="translate(0 -1.67)"/><path d="M688,165.7h3.17a6.15,6.15,0,0,1,1.63.16,2.83,2.83,0,0,1,1.29.79,3.91,3.91,0,0,1,.82,1.39,6.3,6.3,0,0,1,.28,2,5.81,5.81,0,0,1-.26,1.83,3.78,3.78,0,0,1-.92,1.52,3.18,3.18,0,0,1-1.22.69,5.27,5.27,0,0,1-1.54.18H688V165.7Zm1.73,1.46v5.69h1.29a5.15,5.15,0,0,0,1.05-.08,1.61,1.61,0,0,0,.7-.36,1.7,1.7,0,0,0,.45-.83,5.88,5.88,0,0,0,.18-1.57,5.06,5.06,0,0,0-.18-1.53,2,2,0,0,0-.49-.83,1.64,1.64,0,0,0-.8-.4,8.4,8.4,0,0,0-1.42-.08h-.78Z" transform="translate(0 -1.67)"/><path d="M697.75,169.66a1.91,1.91,0,0,1-.93-.74,2,2,0,0,1-.29-1,2.08,2.08,0,0,1,.67-1.59,3.2,3.2,0,0,1,3.81,0,2.09,2.09,0,0,1,.68,1.59,1.83,1.83,0,0,1-.31,1.06,2,2,0,0,1-.87.71,2.28,2.28,0,0,1,1.09.84,2.2,2.2,0,0,1,.37,1.27,2.56,2.56,0,0,1-.76,1.93,2.79,2.79,0,0,1-2,.74,3.05,3.05,0,0,1-2-.62,2.4,2.4,0,0,1-.92-2,2.49,2.49,0,0,1,.35-1.28A2.15,2.15,0,0,1,697.75,169.66Zm.19,2a1.52,1.52,0,0,0,.35,1.06,1.14,1.14,0,0,0,.87.38,1.07,1.07,0,0,0,.84-.37,1.55,1.55,0,0,0,.33-1.06,1.35,1.35,0,0,0-.34-1,1.14,1.14,0,0,0-.86-.37,1,1,0,0,0-.9.42A1.54,1.54,0,0,0,697.94,171.68Zm.15-3.68a1,1,0,0,0,.28.77,1,1,0,0,0,.74.28,1,1,0,0,0,.75-.28,1,1,0,0,0,.28-.77,1,1,0,0,0-.28-.74,1.14,1.14,0,0,0-1.5,0A1,1,0,0,0,698.09,168Z" transform="translate(0 -1.67)"/><path d="M708.59,167.81,707,168a1.2,1.2,0,0,0-.3-.73.87.87,0,0,0-.64-.23,1.08,1.08,0,0,0-.88.47,3.91,3.91,0,0,0-.45,1.95,1.94,1.94,0,0,1,1.53-.73,2.32,2.32,0,0,1,1.77.79,2.87,2.87,0,0,1,.74,2,3,3,0,0,1-.77,2.12,2.61,2.61,0,0,1-2,.8,2.67,2.67,0,0,1-2.14-1,5.18,5.18,0,0,1-.84-3.31,5.3,5.3,0,0,1,.87-3.4,2.83,2.83,0,0,1,2.27-1,2.39,2.39,0,0,1,1.62.55A2.47,2.47,0,0,1,708.59,167.81Zm-3.73,3.59a1.84,1.84,0,0,0,.37,1.24,1.1,1.1,0,0,0,.84.44,1,1,0,0,0,.76-.36,1.82,1.82,0,0,0,.3-1.17,1.88,1.88,0,0,0-.33-1.23,1,1,0,0,0-.82-.39,1,1,0,0,0-.8.37A1.61,1.61,0,0,0,704.86,171.4Z" transform="translate(0 -1.67)"/><path d="M713.9,174.29h-1.65v-6.21a5.69,5.69,0,0,1-2.13,1.25v-1.49a4.75,4.75,0,0,0,1.4-.8,3.09,3.09,0,0,0,1-1.37h1.34Z" transform="translate(0 -1.67)"/><path d="M719.14,165.67a2.36,2.36,0,0,1,2,.89,7.71,7.71,0,0,1,0,7,2.33,2.33,0,0,1-2,.88,2.45,2.45,0,0,1-2-1,7.86,7.86,0,0,1,.07-6.93A2.35,2.35,0,0,1,719.14,165.67Zm0,1.36a.78.78,0,0,0-.53.19,1.27,1.27,0,0,0-.36.68,14.07,14.07,0,0,0,0,4.23,1.44,1.44,0,0,0,.38.75.84.84,0,0,0,.53.19.78.78,0,0,0,.53-.19,1.27,1.27,0,0,0,.36-.68,14,14,0,0,0,0-4.22,1.52,1.52,0,0,0-.38-.76A.78.78,0,0,0,719.14,167Z" transform="translate(0 -1.67)"/><path d="M722.5,174.44l2.13-8.88h1.24l-2.15,8.88Z" transform="translate(0 -1.67)"/><path d="M687.11,186.29h-1.89l-.75-1.95H681l-.71,1.95h-1.84l3.35-8.59h1.83Zm-3.19-3.4-1.18-3.19-1.16,3.19Z" transform="translate(0 -1.67)"/><path d="M688,177.7h3.17a6.15,6.15,0,0,1,1.63.16,2.83,2.83,0,0,1,1.29.79,3.91,3.91,0,0,1,.82,1.39,6.3,6.3,0,0,1,.28,2,5.81,5.81,0,0,1-.26,1.83,3.78,3.78,0,0,1-.92,1.52,3.18,3.18,0,0,1-1.22.69,5.27,5.27,0,0,1-1.54.18H688V177.7Zm1.73,1.46v5.69h1.29a5.15,5.15,0,0,0,1.05-.08,1.61,1.61,0,0,0,.7-.36,1.7,1.7,0,0,0,.45-.83,5.88,5.88,0,0,0,.18-1.57,5.06,5.06,0,0,0-.18-1.53,2,2,0,0,0-.49-.83,1.64,1.64,0,0,0-.8-.4,8.4,8.4,0,0,0-1.42-.08h-.78Z" transform="translate(0 -1.67)"/><path d="M697.75,181.66a1.91,1.91,0,0,1-.93-.74,2,2,0,0,1-.29-1,2.08,2.08,0,0,1,.67-1.59,3.2,3.2,0,0,1,3.81,0,2.09,2.09,0,0,1,.68,1.59,1.83,1.83,0,0,1-.31,1.06,2,2,0,0,1-.87.71,2.28,2.28,0,0,1,1.09.84,2.2,2.2,0,0,1,.37,1.27,2.56,2.56,0,0,1-.76,1.93,2.79,2.79,0,0,1-2,.74,3.05,3.05,0,0,1-2-.62,2.4,2.4,0,0,1-.92-2,2.49,2.49,0,0,1,.35-1.28A2.15,2.15,0,0,1,697.75,181.66Zm.19,2a1.52,1.52,0,0,0,.35,1.06,1.14,1.14,0,0,0,.87.38,1.07,1.07,0,0,0,.84-.37,1.55,1.55,0,0,0,.33-1.06,1.35,1.35,0,0,0-.34-1,1.14,1.14,0,0,0-.86-.37,1,1,0,0,0-.9.42A1.54,1.54,0,0,0,697.94,183.68Zm.15-3.68a1,1,0,0,0,.28.77,1,1,0,0,0,.74.28,1,1,0,0,0,.75-.28,1,1,0,0,0,.28-.77,1,1,0,0,0-.28-.74,1.14,1.14,0,0,0-1.5,0A1,1,0,0,0,698.09,180Z" transform="translate(0 -1.67)"/><path d="M708.59,179.81,707,180a1.2,1.2,0,0,0-.3-.73.87.87,0,0,0-.64-.23,1.08,1.08,0,0,0-.88.47,3.91,3.91,0,0,0-.45,1.95,1.94,1.94,0,0,1,1.53-.73,2.32,2.32,0,0,1,1.77.79,2.87,2.87,0,0,1,.74,2,3,3,0,0,1-.77,2.12,2.61,2.61,0,0,1-2,.8,2.67,2.67,0,0,1-2.14-1,5.18,5.18,0,0,1-.84-3.31,5.3,5.3,0,0,1,.87-3.4,2.83,2.83,0,0,1,2.27-1,2.39,2.39,0,0,1,1.62.55A2.47,2.47,0,0,1,708.59,179.81Zm-3.73,3.59a1.84,1.84,0,0,0,.37,1.24,1.1,1.1,0,0,0,.84.44,1,1,0,0,0,.76-.36,1.82,1.82,0,0,0,.3-1.17,1.88,1.88,0,0,0-.33-1.23,1,1,0,0,0-.82-.39,1,1,0,0,0-.8.37A1.61,1.61,0,0,0,704.86,183.4Z" transform="translate(0 -1.67)"/><path d="M715.24,184.76v1.53h-5.77a3.91,3.91,0,0,1,.56-1.64,11.28,11.28,0,0,1,1.85-2.06,11.7,11.7,0,0,0,1.37-1.41,1.8,1.8,0,0,0,.34-1,1.14,1.14,0,0,0-.3-.85,1.1,1.1,0,0,0-.82-.3,1.09,1.09,0,0,0-.82.31,1.61,1.61,0,0,0-.35,1l-1.64-.16a2.66,2.66,0,0,1,.92-1.95,3.12,3.12,0,0,1,1.93-.59,2.79,2.79,0,0,1,2,.69,2.25,2.25,0,0,1,.73,1.71,2.91,2.91,0,0,1-.21,1.1,4.51,4.51,0,0,1-.66,1.1,11.38,11.38,0,0,1-1.08,1.1c-.52.48-.85.79-1,.95a3.18,3.18,0,0,0-.34.46h3.28Z" transform="translate(0 -1.67)"/><path d="M719.14,177.67a2.36,2.36,0,0,1,2,.89,7.71,7.71,0,0,1,0,7,2.33,2.33,0,0,1-2,.88,2.45,2.45,0,0,1-2-1,7.86,7.86,0,0,1,.07-6.93A2.35,2.35,0,0,1,719.14,177.67Zm0,1.36a.78.78,0,0,0-.53.19,1.27,1.27,0,0,0-.36.68,14.07,14.07,0,0,0,0,4.23,1.44,1.44,0,0,0,.38.75.84.84,0,0,0,.53.19.78.78,0,0,0,.53-.19,1.27,1.27,0,0,0,.36-.68,14,14,0,0,0,0-4.22,1.52,1.52,0,0,0-.38-.76A.78.78,0,0,0,719.14,179Z" transform="translate(0 -1.67)"/><path d="M528.49,190.07a5.45,5.45,0,0,1,.39-2.2,4.1,4.1,0,0,1,.8-1.18,3.23,3.23,0,0,1,1.11-.77,4.66,4.66,0,0,1,1.85-.34,4,4,0,0,1,3,1.18,5.26,5.26,0,0,1,0,6.53,4,4,0,0,1-3,1.17,4.05,4.05,0,0,1-3-1.17A4.42,4.42,0,0,1,528.49,190.07Zm1.79-.06a3.21,3.21,0,0,0,.67,2.21,2.2,2.2,0,0,0,1.71.75,2.17,2.17,0,0,0,1.7-.75A3.31,3.31,0,0,0,535,190a3.23,3.23,0,0,0-.65-2.2,2.39,2.39,0,0,0-3.45,0A3.24,3.24,0,0,0,530.28,190Z" transform="translate(0 -1.67)"/><path d="M538.17,194.31v-8.59H541a9.77,9.77,0,0,1,2.06.13,2.31,2.31,0,0,1,1.24.84,2.61,2.61,0,0,1,.5,1.67,2.81,2.81,0,0,1-.29,1.33,2.34,2.34,0,0,1-.73.85,2.5,2.5,0,0,1-.9.41,10.09,10.09,0,0,1-1.8.12H539.9v3.24Zm1.74-7.14v2.44h1a4.53,4.53,0,0,0,1.37-.13,1.14,1.14,0,0,0,.54-.42,1.15,1.15,0,0,0,.2-.67,1.07,1.07,0,0,0-.28-.77,1.24,1.24,0,0,0-.7-.38,8.16,8.16,0,0,0-1.25-.06h-.83Z" transform="translate(0 -1.67)"/><path d="M551.38,192.78v1.53h-5.77a3.91,3.91,0,0,1,.56-1.64,11.28,11.28,0,0,1,1.85-2.06,11.7,11.7,0,0,0,1.37-1.41,1.8,1.8,0,0,0,.34-1,1.14,1.14,0,0,0-.3-.85,1.1,1.1,0,0,0-.82-.3,1.09,1.09,0,0,0-.82.31,1.61,1.61,0,0,0-.35,1l-1.64-.16a2.66,2.66,0,0,1,.92-1.95,3.12,3.12,0,0,1,1.93-.59,2.79,2.79,0,0,1,2,.69,2.25,2.25,0,0,1,.73,1.71,2.91,2.91,0,0,1-.21,1.1,4.51,4.51,0,0,1-.66,1.1,11.38,11.38,0,0,1-1.08,1.1c-.52.48-.85.79-1,1a3.18,3.18,0,0,0-.34.46h3.28Z" transform="translate(0 -1.67)"/><path d="M552.49,187.37v-1.53h5.63V187a9,9,0,0,0-1.42,2,11.4,11.4,0,0,0-1.1,2.73,9.94,9.94,0,0,0-.37,2.58h-1.59a10.88,10.88,0,0,1,.74-3.63,12.4,12.4,0,0,1,1.85-3.31h-3.74Z" transform="translate(0 -1.67)"/><path d="M563.38,194.31h-1.65V188.1a5.69,5.69,0,0,1-2.13,1.25v-1.49a4.75,4.75,0,0,0,1.4-.8,3.09,3.09,0,0,0,1-1.37h1.34Z" transform="translate(0 -1.67)"/><path d="M610.89,204.38a5.45,5.45,0,0,1,.39-2.2,4.1,4.1,0,0,1,.8-1.18,3.23,3.23,0,0,1,1.11-.77,4.66,4.66,0,0,1,1.85-.34,4,4,0,0,1,3,1.18,5.26,5.26,0,0,1,0,6.53,4,4,0,0,1-3,1.17A4.05,4.05,0,0,1,612,207.6,4.42,4.42,0,0,1,610.89,204.38Zm1.79-.06a3.21,3.21,0,0,0,.67,2.21,2.2,2.2,0,0,0,1.71.75,2.17,2.17,0,0,0,1.7-.75,3.31,3.31,0,0,0,.67-2.24,3.23,3.23,0,0,0-.65-2.2,2.39,2.39,0,0,0-3.45,0A3.24,3.24,0,0,0,612.68,204.32Z" transform="translate(0 -1.67)"/><path d="M620.58,208.62V200h2.78a9.77,9.77,0,0,1,2.06.13,2.31,2.31,0,0,1,1.24.84,2.61,2.61,0,0,1,.5,1.67,2.81,2.81,0,0,1-.29,1.33,2.34,2.34,0,0,1-.73.85,2.5,2.5,0,0,1-.9.41,10.09,10.09,0,0,1-1.8.12h-1.13v3.24Zm1.73-7.14v2.44h1a4.53,4.53,0,0,0,1.37-.13,1.14,1.14,0,0,0,.54-.42,1.15,1.15,0,0,0,.2-.67,1.07,1.07,0,0,0-.28-.77,1.24,1.24,0,0,0-.7-.38,8.16,8.16,0,0,0-1.25-.06h-.83Z" transform="translate(0 -1.67)"/><path d="M627.78,208.62l2.24-3.21-2.15-3h2l1.1,1.71,1.16-1.71h1.93l-2.11,3,2.3,3.28h-2L631,206.69l-1.28,1.93Z" transform="translate(0 -1.67)"/><path d="M639.11,208.62h-1.65v-6.21a5.69,5.69,0,0,1-2.13,1.25v-1.49a4.75,4.75,0,0,0,1.4-.8,3.09,3.09,0,0,0,1-1.37h1.34Z" transform="translate(0 -1.67)"/><path d="M641.57,201.67v-1.53h5.63v1.2a9,9,0,0,0-1.42,2,11.4,11.4,0,0,0-1.1,2.73,9.94,9.94,0,0,0-.37,2.58h-1.59a10.88,10.88,0,0,1,.74-3.63,12.4,12.4,0,0,1,1.85-3.31h-3.74Z" transform="translate(0 -1.67)"/><path d="M648.24,201.67v-1.53h5.63v1.2a9,9,0,0,0-1.42,2,11.4,11.4,0,0,0-1.1,2.73,9.94,9.94,0,0,0-.37,2.58h-1.59a10.88,10.88,0,0,1,.74-3.63,12.4,12.4,0,0,1,1.85-3.31h-3.74Z" transform="translate(0 -1.67)"/><polyline points="540.11 152.84 454.13 210.3 454.13 221.8" fill="none" stroke="#000" stroke-width="1.5"/><polygon points="450.6 219.36 454.17 232.7 457.74 219.36 450.6 219.36"/><polyline points="462.13 224.05 462.13 212.55 529.26 168.75 537.11 168.75" fill="none" stroke="#000" stroke-width="1.5"/><polygon points="458.6 218.86 462.17 232.2 465.74 218.86 458.6 218.86"/><line x1="524.25" y1="191.21" x2="506.97" y2="207.56" fill="none" stroke="#000" stroke-width="1.5"/><polygon points="506.32 203.32 499.09 215.08 511.23 208.51 506.32 203.32"/><line x1="496.54" y1="282.87" x2="512.86" y2="290.99" fill="none" stroke="#000" stroke-width="1.5"/><polygon points="500.3 280.79 486.77 278.05 497.11 287.19 500.3 280.79"/><line x1="424.07" y1="299.51" x2="408.01" y2="308.12" fill="none" stroke="#000" stroke-width="1.5"/><polygon points="423.59 303.77 433.65 294.32 420.21 297.47 423.59 303.77"/><line x1="471.36" y1="310.63" x2="482.34" y2="325.17" fill="none" stroke="#000" stroke-width="1.5"/><polygon points="475.65 310.45 464.76 301.96 469.95 314.75 475.65 310.45"/><line x1="684.83" y1="320.32" x2="705.5" y2="302.63" fill="none" stroke="#000" stroke-width="1.5"/><polygon points="705.94 306.9 713.75 295.51 701.3 301.47 705.94 306.9"/><line x1="725.46" y1="184.8" x2="756.06" y2="226.77" fill="none" stroke="#000" stroke-width="1.5"/><polygon points="751.77 226.88 762.51 235.55 757.55 222.67 751.77 226.88"/><rect x="47.34" y="4.69" width="720" height="576" fill="none" stroke="#000" stroke-width="1.5"/><polyline points="48.19 463.49 191.2 368.03 335.12 272.16 478.9 176.13 622.83 80.26 735.14 5.19" fill="none" stroke="#000" stroke-linecap="round" stroke-linejoin="round" stroke-width="2.5"/><line x1="608.15" y1="202.82" x2="583.71" y2="209.94" fill="none" stroke="#000" stroke-width="1.5"/><polygon points="585.06 205.87 573.26 213.03 587.06 212.73 585.06 205.87"/><polygon points="583.81 209.64 582.94 210.17 583.95 210.15 583.81 209.64"/><line x1="382.11" y1="42.51" x2="370.44" y2="42.51" fill="none" stroke="#000" stroke-miterlimit="10" stroke-width="2.5"/></svg>