<svg id="b689a6c1-c5fb-4b98-8fd7-c748d846145b" data-name="Layer 1" xmlns="http://www.w3.org/2000/svg" width="3.93in" height="1.67in" viewBox="0 0 282.7 120.21"><title>07053-006</title><line x1="2.39" y1="103.54" x2="135.42" y2="103.54" fill="none" stroke="#000" stroke-width="1.5"/><polygon points="132.98 107.07 146.31 103.5 132.98 99.92 132.98 107.07"/><line x1="145.14" y1="103.32" x2="198.5" y2="70.17" fill="none" stroke="#000" stroke-width="1.5"/><polygon points="198.29 74.45 207.74 64.38 194.52 68.39 198.29 74.45"/><line x1="207.67" y1="64.54" x2="232.67" y2="13.29" fill="none" stroke="#000" stroke-width="1.5"/><polygon points="234.77 17.03 237.41 3.48 228.35 13.89 234.77 17.03"/><line x1="2.42" y1="102.79" x2="227.59" y2="7.69" fill="none" stroke="#000" stroke-width="1.5"/><polygon points="226.72 11.89 237.61 3.41 223.94 5.31 226.72 11.89"/><circle cx="2.33" cy="103.25" r="1.83" stroke="#000"/><circle cx="238.25" cy="2.33" r="1.83" stroke="#000"/><path d="M80.65,39.37l-3.07-8.59h1.88l2.17,6.36,2.1-6.36h1.84l-3.08,8.59Z" transform="translate(0 0)"/><path d="M91,42.37H89.65V39.72a4.06,4.06,0,0,0-.09-1.09.7.7,0,0,0-.29-.38.83.83,0,0,0-.48-.14,1.1,1.1,0,0,0-.64.2,1,1,0,0,0-.39.52,4.49,4.49,0,0,0-.1,1.19v2.35H86.3V37.18h1.27v.76a2.14,2.14,0,0,1,2.54-.72,1.42,1.42,0,0,1,.57.42,1.47,1.47,0,0,1,.27.58,4.27,4.27,0,0,1,.08.92v3.23Z" transform="translate(0 0)"/><path d="M92.42,36.48V35.21h1.37v1.27Zm0,5.89V37.18h1.37v5.19Z" transform="translate(0 0)"/><path d="M95.16,41h1.37v1a3.36,3.36,0,0,1-.1.94,1.42,1.42,0,0,1-.39.62,2,2,0,0,1-.72.43l-.27-.57a1,1,0,0,0,.78-1h-.66V41Z" transform="translate(0 0)"/><path d="M102.37,42.37V36.42h-2.12V35.21h5.69v1.21h-2.12v5.95Z" transform="translate(0 0)"/><path d="M106.39,38.84a4.55,4.55,0,0,1,.33-1.84,3.23,3.23,0,0,1,.67-1,2.72,2.72,0,0,1,.93-.64,3.92,3.92,0,0,1,1.54-.28,3.37,3.37,0,0,1,2.53,1,3.76,3.76,0,0,1,1,2.73,3.72,3.72,0,0,1-.94,2.71,3.35,3.35,0,0,1-2.52,1,3.41,3.41,0,0,1-2.54-1A3.73,3.73,0,0,1,106.39,38.84Zm1.49-.05a2.7,2.7,0,0,0,.56,1.84,1.94,1.94,0,0,0,2.85,0,2.73,2.73,0,0,0,.55-1.87,2.71,2.71,0,0,0-.54-1.84,2,2,0,0,0-2.87,0A2.79,2.79,0,0,0,107.88,38.79Z" transform="translate(0 0)"/><path d="M116.08,42.37V36.42H114V35.21h5.69v1.21h-2.12v5.95Z" transform="translate(0 0)"/><path d="M126.29,42.37h-1.57l-.62-1.63h-2.86l-.59,1.63h-1.53l2.79-7.16h1.53Zm-2.66-2.83-1-2.66-1,2.66Z" transform="translate(0 0)"/><path d="M127.09,42.37v-7.1h1.45v5.89h3.59v1.21Z" transform="translate(0 0)"/><path d="M70.51,114.9l1.91.32a3.09,3.09,0,0,1-1.17,1.6,3.41,3.41,0,0,1-2,.55,3.23,3.23,0,0,1-2.8-1.24,4.15,4.15,0,0,1-.72-2.5,4,4,0,0,1,.94-2.83,3.11,3.11,0,0,1,2.39-1,3.25,3.25,0,0,1,2.56,1.07,4.8,4.8,0,0,1,.9,3.28H67.72a2,2,0,0,0,.46,1.33,1.45,1.45,0,0,0,1.11.47,1.16,1.16,0,0,0,.76-.25A1.45,1.45,0,0,0,70.51,114.9Zm.11-2a1.85,1.85,0,0,0-.43-1.27,1.39,1.39,0,0,0-2,0,1.77,1.77,0,0,0-.4,1.24Z" transform="translate(0 0)"/><path d="M78.53,120.21H77.16v-2.65a4.06,4.06,0,0,0-.09-1.09.7.7,0,0,0-.29-.38.85.85,0,0,0-.48-.14,1.1,1.1,0,0,0-.64.2,1,1,0,0,0-.39.52,4.55,4.55,0,0,0-.1,1.19v2.35H73.8V115h1.27v.76a2.14,2.14,0,0,1,2.54-.72,1.42,1.42,0,0,1,.57.42,1.47,1.47,0,0,1,.27.58,4.27,4.27,0,0,1,.08.92Z" transform="translate(0 0)"/><path d="M171.52,99V90.45h3.65a6.39,6.39,0,0,1,2,.23,2,2,0,0,1,1,.82,2.47,2.47,0,0,1,.38,1.35,2.31,2.31,0,0,1-.57,1.6,2.75,2.75,0,0,1-1.7.79,4.16,4.16,0,0,1,.93.72,10,10,0,0,1,1,1.39L179.25,99h-2.07l-1.25-1.87A12.9,12.9,0,0,0,175,95.9a1.44,1.44,0,0,0-.52-.36,2.63,2.63,0,0,0-.87-.1h-.35V99h-1.76Zm1.73-5h1.28a6.59,6.59,0,0,0,1.56-.11,1,1,0,0,0,.49-.36,1.1,1.1,0,0,0,.18-.64,1,1,0,0,0-.88-1c-.14,0-.56,0-1.27,0h-1.35v2.18Z" transform="translate(0 0)"/><path d="M179.66,99.71l1.41-.14a1.69,1.69,0,0,0,.52,1,1.57,1.57,0,0,0,1,.33,1.62,1.62,0,0,0,1.05-.29A.87.87,0,0,0,184,100a.64.64,0,0,0-.15-.43,1.19,1.19,0,0,0-.52-.31c-.17-.06-.55-.16-1.16-.31a3.91,3.91,0,0,1-1.63-.71,1.85,1.85,0,0,1-.66-1.44,1.8,1.8,0,0,1,.31-1,1.88,1.88,0,0,1,.89-.72,3.52,3.52,0,0,1,1.41-.25,3.05,3.05,0,0,1,2,.59,2.08,2.08,0,0,1,.71,1.58l-1.45.06a1.17,1.17,0,0,0-.4-.79,1.47,1.47,0,0,0-.92-.24,1.69,1.69,0,0,0-1,.26.53.53,0,0,0-.23.44.54.54,0,0,0,.21.43,3.87,3.87,0,0,0,1.33.48,7.63,7.63,0,0,1,1.56.51,2,2,0,0,1,.79.73,2.14,2.14,0,0,1,.29,1.14,2.1,2.1,0,0,1-1.31,2,4.17,4.17,0,0,1-1.56.26,3.06,3.06,0,0,1-2.08-.63A2.87,2.87,0,0,1,179.66,99.71Z" transform="translate(0 0)"/><path d="M189.4,96.58l1.77-1.77L189.39,93l1.09-1.09,1.78,1.78L194,92,195.09,93l-1.77,1.77,1.79,1.79L194,97.67l-1.79-1.79-1.77,1.77Z" transform="translate(0 0)"/><path d="M200.1,90.8V89H202V90.8Zm0,8.24V91.78H202V99Z" transform="translate(0 0)"/><path d="M208.42,102h-1.37V99.39A4.06,4.06,0,0,0,207,98.3a.7.7,0,0,0-.29-.38.83.83,0,0,0-.48-.14,1.1,1.1,0,0,0-.64.2,1,1,0,0,0-.39.52,4.37,4.37,0,0,0-.11,1.19V102h-1.37V96.85H205v.76a2.14,2.14,0,0,1,2.54-.72,1.42,1.42,0,0,1,.57.42,1.47,1.47,0,0,1,.27.58,4.21,4.21,0,0,1,.08.92V102Z" transform="translate(0 0)"/><path d="M228.2,48.71l-3.07-8.59H227l2.17,6.36,2.1-6.36h1.84L230,48.71Z" transform="translate(0 0)"/><path d="M238.58,51.71h-1.37V49.06a4.06,4.06,0,0,0-.09-1.09.7.7,0,0,0-.29-.38.83.83,0,0,0-.48-.14,1.1,1.1,0,0,0-.64.2,1,1,0,0,0-.39.52,4.37,4.37,0,0,0-.11,1.19v2.35h-1.37V46.52h1.27v.76a2.14,2.14,0,0,1,2.54-.72,1.42,1.42,0,0,1,.57.42,1.47,1.47,0,0,1,.27.58,4.21,4.21,0,0,1,.08.92v3.23Z" transform="translate(0 0)"/><path d="M245.62,51.23h-1.13a11.59,11.59,0,0,1-1.37-2.81,9,9,0,0,1-.47-2.82,8.83,8.83,0,0,1,.58-3.21A11.17,11.17,0,0,1,244.51,40h1.12a17.1,17.1,0,0,0-1.1,3,11.37,11.37,0,0,0-.12,4.61,12.84,12.84,0,0,0,.49,1.92C245,49.91,245.28,50.49,245.62,51.23Z" transform="translate(0 0)"/><path d="M246.9,48.71V40.12h3.65a6.39,6.39,0,0,1,2,.23,2,2,0,0,1,1,.82,2.47,2.47,0,0,1,.38,1.35,2.31,2.31,0,0,1-.57,1.6,2.75,2.75,0,0,1-1.7.79,4.16,4.16,0,0,1,.93.72,10,10,0,0,1,1,1.39l1,1.68h-2.07l-1.25-1.87a12.9,12.9,0,0,0-.91-1.26,1.44,1.44,0,0,0-.52-.36,2.63,2.63,0,0,0-.87-.1h-.35V48.7H246.9Zm1.74-5h1.28a6.59,6.59,0,0,0,1.56-.11,1,1,0,0,0,.49-.36,1.1,1.1,0,0,0,.18-.64,1,1,0,0,0-.88-1c-.14,0-.56,0-1.27,0h-1.35v2.18Z" transform="translate(0 0)"/><path d="M255.42,51.71V44.55h5.31v1.21h-3.86v1.59h3.59v1.21h-3.59v1.95h4v1.21h-5.45Z" transform="translate(0 0)"/><path d="M261.36,51.71,263.81,48l-2.22-3.42h1.69l1.44,2.3,1.41-2.3h1.67L265.57,48,268,51.71h-1.74l-1.59-2.48-1.59,2.48Z" transform="translate(0 0)"/><path d="M268.43,51.23c.32-.7.55-1.23.69-1.6a10,10,0,0,0,.37-1.28,12.63,12.63,0,0,0,.25-1.38,11.76,11.76,0,0,0,.08-1.34,11.24,11.24,0,0,0-.3-2.64,17.94,17.94,0,0,0-1.1-3h1.12a10.55,10.55,0,0,1,1.37,2.67,8.88,8.88,0,0,1,.49,2.87,9.73,9.73,0,0,1-.39,2.62,11,11,0,0,1-1.45,3.1Z" transform="translate(0 0)"/><path d="M279.76,119.71a5.16,5.16,0,0,1-1.63-.21,2.14,2.14,0,0,1-1-.62,1.55,1.55,0,0,1-.34-1A1.62,1.62,0,0,1,277,117a1.55,1.55,0,0,1,.54-.57,3.15,3.15,0,0,1,.85-.36,5.43,5.43,0,0,1,1.35-.13,5.25,5.25,0,0,1,1.63.21,2,2,0,0,1,1,.62,1.74,1.74,0,0,1-.25,2.34A3.83,3.83,0,0,1,279.76,119.71Zm0-.73a3.6,3.6,0,0,0,1.88-.33.93.93,0,0,0,0-1.62,5.52,5.52,0,0,0-3.76,0,1,1,0,0,0-.46.82.9.9,0,0,0,.41.77A3.62,3.62,0,0,0,279.76,119Z" transform="translate(0 0)"/><path d="M277.61,115.21h-.68V111.5h.55a7.56,7.56,0,0,0,1.55,1.08,10.27,10.27,0,0,0,2,.83,7.45,7.45,0,0,0,1.57.27v.72a7,7,0,0,1-1.63-.27,8.79,8.79,0,0,1-1.85-.73,7.83,7.83,0,0,1-1.5-1v2.82Z" transform="translate(0 0)"/><path d="M279.76,110.81a5.16,5.16,0,0,1-1.63-.21,2.14,2.14,0,0,1-1-.62,1.55,1.55,0,0,1-.34-1,1.62,1.62,0,0,1,.19-.81,1.55,1.55,0,0,1,.54-.57,3.15,3.15,0,0,1,.85-.36,5.43,5.43,0,0,1,1.35-.13,5.25,5.25,0,0,1,1.63.21,2,2,0,0,1,1,.62,1.74,1.74,0,0,1-.25,2.34A3.83,3.83,0,0,1,279.76,110.81Zm0-.73a3.6,3.6,0,0,0,1.88-.33.93.93,0,0,0,0-1.62,5.52,5.52,0,0,0-3.76,0,1,1,0,0,0-.46.82.9.9,0,0,0,.41.77A3.62,3.62,0,0,0,279.76,110.08Z" transform="translate(0 0)"/><path d="M281.08,106.36l-.06-.74a1.29,1.29,0,0,0,.81-.38,1,1,0,0,0,.27-.72,1.15,1.15,0,0,0-.38-.86,1.41,1.41,0,0,0-1-.35,1.29,1.29,0,0,0-.95.34,1.19,1.19,0,0,0-.35.88,1.23,1.23,0,0,0,.15.61,1.19,1.19,0,0,0,.4.43l-.09.66-2.94-.55v-2.85h.67v2.29l1.54.31a1.84,1.84,0,0,1-.36-1.08,1.72,1.72,0,0,1,.52-1.27,1.8,1.8,0,0,1,1.34-.52A2.07,2.07,0,0,1,282,103a1.83,1.83,0,0,1,.7,1.5,1.88,1.88,0,0,1-.44,1.28A1.7,1.7,0,0,1,281.08,106.36Z" transform="translate(0 0)"/><path d="M281.07,101.9l-.09-.7a1.54,1.54,0,0,0,.86-.41,1,1,0,0,0,.26-.71,1.16,1.16,0,0,0-1.19-1.18A1.08,1.08,0,0,0,279.8,100a2.21,2.21,0,0,0,.08.5l-.62-.08s0-.08,0-.11a1.5,1.5,0,0,0-.23-.81.8.8,0,0,0-.72-.36.87.87,0,0,0-.64.26.92.92,0,0,0-.25.68,1,1,0,0,0,.26.68,1.29,1.29,0,0,0,.77.35l-.12.7a1.82,1.82,0,0,1-1.1-.59,1.7,1.7,0,0,1-.39-1.14,1.91,1.91,0,0,1,.2-.86,1.46,1.46,0,0,1,.55-.6,1.41,1.41,0,0,1,.74-.21,1.26,1.26,0,0,1,.68.2,1.3,1.3,0,0,1,.48.59,1.33,1.33,0,0,1,.49-.79,1.46,1.46,0,0,1,.92-.28,1.67,1.67,0,0,1,1.27.55,1.93,1.93,0,0,1,.52,1.38,1.79,1.79,0,0,1-.45,1.25A1.75,1.75,0,0,1,281.07,101.9Z" transform="translate(0 0)"/><path d="M280.86,97.54h-.71V95.38h.71Z" transform="translate(0 0)"/><path d="M279.76,94.8a5.16,5.16,0,0,1-1.63-.21,2.14,2.14,0,0,1-1-.62,1.55,1.55,0,0,1-.34-1,1.62,1.62,0,0,1,.19-.81,1.55,1.55,0,0,1,.54-.57,3.15,3.15,0,0,1,.85-.36,5.43,5.43,0,0,1,1.35-.13,5.25,5.25,0,0,1,1.63.21,2,2,0,0,1,1,.62,1.74,1.74,0,0,1-.25,2.34A3.83,3.83,0,0,1,279.76,94.8Zm0-.73a3.6,3.6,0,0,0,1.88-.33.93.93,0,0,0,0-1.62,5.52,5.52,0,0,0-3.76,0,1,1,0,0,0-.46.82.9.9,0,0,0,.41.77A3.62,3.62,0,0,0,279.76,94.07Z" transform="translate(0 0)"/><path d="M279.76,90.35a5.16,5.16,0,0,1-1.63-.21,2.14,2.14,0,0,1-1-.62,1.55,1.55,0,0,1-.34-1,1.62,1.62,0,0,1,.19-.81,1.55,1.55,0,0,1,.54-.57,3.15,3.15,0,0,1,.85-.36,5.43,5.43,0,0,1,1.35-.13,5.25,5.25,0,0,1,1.63.21,2,2,0,0,1,1,.62,1.74,1.74,0,0,1-.25,2.34A3.83,3.83,0,0,1,279.76,90.35Zm0-.73a3.6,3.6,0,0,0,1.88-.33.93.93,0,0,0,0-1.62,5.52,5.52,0,0,0-3.76,0,1,1,0,0,0-.46.82.9.9,0,0,0,.41.77A3.62,3.62,0,0,0,279.76,89.62Z" transform="translate(0 0)"/><path d="M278.26,82.25l.05.7a1.2,1.2,0,0,0-.6.27.92.92,0,0,0-.3.7,1,1,0,0,0,.19.59,1.55,1.55,0,0,0,.71.52,4,4,0,0,0,1.32.2,1.6,1.6,0,0,1-.57-.62,1.72,1.72,0,0,1-.19-.77,1.58,1.58,0,0,1,.52-1.2,1.86,1.86,0,0,1,1.34-.49,2.26,2.26,0,0,1,1,.23,1.69,1.69,0,0,1,1,1.56,1.79,1.79,0,0,1-.65,1.43,3.26,3.26,0,0,1-2.13.55,3.79,3.79,0,0,1-2.41-.61,1.77,1.77,0,0,1-.66-1.44,1.64,1.64,0,0,1,.38-1.11A1.57,1.57,0,0,1,278.26,82.25Zm2.47,2.87a1.73,1.73,0,0,0,.7-.15,1.15,1.15,0,0,0,.51-.43,1,1,0,0,0,.17-.58,1,1,0,0,0-.36-.77,1.4,1.4,0,0,0-1-.32,1.34,1.34,0,0,0-.94.32,1,1,0,0,0-.34.8,1.07,1.07,0,0,0,.34.81A1.24,1.24,0,0,0,280.73,85.12Z" transform="translate(0 0)"/></svg>