<svg id="ad5756b4-2b73-423f-bd09-d20a1417fb7d" data-name="Layer 1" xmlns="http://www.w3.org/2000/svg" width="8.31in" height="3.39in" viewBox="0 0 598.06 243.76"><title>07053-007</title><polygon points="138.07 43.84 138.07 180.6 267.7 112.26 138.07 43.84" fill="none" stroke="#000" stroke-width="1.5"/><path d="M182.57,133v-1.78h1.92V133Zm0,8.25V134h1.92v7.26Z" transform="translate(-0.88 -1.56)"/><path d="M190.89,144.29h-1.37v-2.65a4.06,4.06,0,0,0-.09-1.09.7.7,0,0,0-.29-.38.85.85,0,0,0-.48-.14,1,1,0,0,0-.64.2,1,1,0,0,0-.39.52,4.55,4.55,0,0,0-.1,1.19v2.35h-1.37V139.1h1.27v.76a2.14,2.14,0,0,1,2.54-.72,1.42,1.42,0,0,1,.57.42,1.47,1.47,0,0,1,.27.58,4.27,4.27,0,0,1,.08.92v3.23Z" transform="translate(-0.88 -1.56)"/><path d="M184.18,86.47V84.69h1.92v1.78Zm0,8.24V87.45h1.92v7.26Z" transform="translate(-0.88 -1.56)"/><path d="M192.5,97.71h-1.37V95.06A4.06,4.06,0,0,0,191,94a.7.7,0,0,0-.29-.38.85.85,0,0,0-.48-.14,1,1,0,0,0-.64.2,1,1,0,0,0-.39.52,4.55,4.55,0,0,0-.1,1.19v2.35h-1.37V92.52H189v.76a2.14,2.14,0,0,1,2.54-.72,1.42,1.42,0,0,1,.57.42,1.47,1.47,0,0,1,.27.58,4.27,4.27,0,0,1,.08.92v3.23Z" transform="translate(-0.88 -1.56)"/><line x1="91.66" y1="70.91" x2="91.66" y2="125.82" fill="none" stroke="#000" stroke-width="1.5"/><line x1="128.08" y1="189.21" x2="282.36" y2="189.21" fill="none" stroke="#000" stroke-width="1.5"/><polyline points="266.77 112.41 281.73 112.41 281.73 189.91" fill="none" stroke="#000" stroke-width="1.5"/><path d="M115.78,52l1.91.32a3.09,3.09,0,0,1-1.17,1.6,3.5,3.5,0,0,1-2,.55,3.23,3.23,0,0,1-2.8-1.24,4.13,4.13,0,0,1-.72-2.5,4,4,0,0,1,.94-2.83,3.11,3.11,0,0,1,2.39-1,3.25,3.25,0,0,1,2.56,1.07,4.75,4.75,0,0,1,.9,3.28H113a2,2,0,0,0,.46,1.33,1.45,1.45,0,0,0,1.11.48,1.16,1.16,0,0,0,.76-.25A1.45,1.45,0,0,0,115.78,52Zm.11-1.94a1.85,1.85,0,0,0-.43-1.27,1.39,1.39,0,0,0-2,0A1.77,1.77,0,0,0,113,50Z" transform="translate(-0.88 -1.56)"/><path d="M123.79,57.28h-1.37V54.63a4.06,4.06,0,0,0-.09-1.09.7.7,0,0,0-.29-.38.85.85,0,0,0-.48-.14,1,1,0,0,0-.64.2,1,1,0,0,0-.39.52,4.55,4.55,0,0,0-.1,1.19v2.35h-1.37V52.09h1.27v.76a2.14,2.14,0,0,1,2.54-.72,1.42,1.42,0,0,1,.57.42,1.47,1.47,0,0,1,.27.58,4.27,4.27,0,0,1,.08.92Z" transform="translate(-0.88 -1.56)"/><path d="M72.62,105.48V96.89h3.65a6.39,6.39,0,0,1,2,.23,2,2,0,0,1,1,.82,2.47,2.47,0,0,1,.38,1.35,2.31,2.31,0,0,1-.57,1.6,2.75,2.75,0,0,1-1.7.79,4.16,4.16,0,0,1,.93.72,10,10,0,0,1,1,1.39l1,1.68H78.28L77,103.6a12.9,12.9,0,0,0-.91-1.26,1.44,1.44,0,0,0-.52-.36,2.63,2.63,0,0,0-.87-.1h-.35v3.59H72.62Zm1.73-5h1.28a6.59,6.59,0,0,0,1.56-.11,1,1,0,0,0,.49-.36,1.1,1.1,0,0,0,.18-.64,1,1,0,0,0-.88-1c-.14,0-.56,0-1.27,0H74.36v2.18Z" transform="translate(-0.88 -1.56)"/><path d="M80.77,106.15l1.41-.14a1.69,1.69,0,0,0,.52,1,1.91,1.91,0,0,0,2.1,0,.9.9,0,0,0,.35-.69A.64.64,0,0,0,85,106a1.19,1.19,0,0,0-.52-.31c-.17-.06-.56-.16-1.16-.31a3.91,3.91,0,0,1-1.63-.71,1.85,1.85,0,0,1-.66-1.44,1.8,1.8,0,0,1,.31-1,2,2,0,0,1,.89-.73,3.52,3.52,0,0,1,1.41-.25,3.05,3.05,0,0,1,2,.59,2.09,2.09,0,0,1,.72,1.58l-1.45.06a1.17,1.17,0,0,0-.4-.79,1.49,1.49,0,0,0-.92-.24,1.69,1.69,0,0,0-1,.26.53.53,0,0,0-.23.44.54.54,0,0,0,.21.43,3.87,3.87,0,0,0,1.33.48,7,7,0,0,1,1.56.52,2,2,0,0,1,.79.73,2.14,2.14,0,0,1,.29,1.14,2.1,2.1,0,0,1-1.31,2,4,4,0,0,1-1.56.26,3.08,3.08,0,0,1-2.08-.63A2.69,2.69,0,0,1,80.77,106.15Z" transform="translate(-0.88 -1.56)"/><polyline points="128.05 71.45 165.09 71.45 165.09 77.04" fill="none" stroke="#000" stroke-width="1.5"/><polyline points="128.05 121.24 165.09 121.24 165.09 126.82" fill="none" stroke="#000" stroke-width="1.5"/><line x1="84.15" y1="125.59" x2="99.17" y2="125.59" fill="none" stroke="#000" stroke-miterlimit="14.3" stroke-width="1.5"/><line x1="97.06" y1="128.7" x2="86.26" y2="128.69" fill="none" stroke="#000" stroke-miterlimit="14.3" stroke-width="1.5"/><line x1="94.3" y1="131.8" x2="89.02" y2="131.8" fill="none" stroke="#000" stroke-miterlimit="14.3" stroke-width="1.5"/><polygon points="92.78 92.76 92.78 108.61 90.27 107.72 90.27 91.42 92.78 92.76" fill="#fff"/><polyline points="91.66 109.58 91.66 108.86 89.19 107.54 94.12 104.66 89.17 101.7 94.12 98.77 89.19 95.94 94.12 93.02 91.65 91.5 91.65 90.93" fill="none" stroke="#000" stroke-miterlimit="14.3" stroke-width="1.5"/><line x1="128.4" y1="121.13" x2="128.4" y2="236.64" fill="none" stroke="#000" stroke-width="1.5"/><path d="M137.55,216.3v-8.59h3.65a6.39,6.39,0,0,1,2,.23,2,2,0,0,1,1,.82,2.47,2.47,0,0,1,.38,1.35,2.31,2.31,0,0,1-.57,1.6,2.75,2.75,0,0,1-1.7.79,4.16,4.16,0,0,1,.93.72,10,10,0,0,1,1,1.39l1.05,1.68h-2.07L142,214.42a12.9,12.9,0,0,0-.91-1.26,1.44,1.44,0,0,0-.52-.36,2.63,2.63,0,0,0-.87-.1h-.35v3.59h-1.76Zm1.74-5h1.28a6.59,6.59,0,0,0,1.56-.11,1,1,0,0,0,.49-.36,1.1,1.1,0,0,0,.18-.64,1,1,0,0,0-.88-1c-.14,0-.56,0-1.27,0H139.3v2.18Z" transform="translate(-0.88 -1.56)"/><path d="M150.4,218v1.27h-4.81a3.29,3.29,0,0,1,.47-1.37,9.25,9.25,0,0,1,1.54-1.72,10.45,10.45,0,0,0,1.14-1.17,1.48,1.48,0,0,0,.28-.84,1,1,0,0,0-.25-.71,1,1,0,0,0-1.36,0,1.29,1.29,0,0,0-.29.86l-1.37-.14a2.24,2.24,0,0,1,.77-1.63,2.57,2.57,0,0,1,1.61-.49,2.35,2.35,0,0,1,1.67.57,1.85,1.85,0,0,1,.61,1.42,2.59,2.59,0,0,1-.17.92,3.66,3.66,0,0,1-.55.92,9.07,9.07,0,0,1-.9.91c-.43.39-.71.66-.82.79a2.82,2.82,0,0,0-.28.38h2.71Z" transform="translate(-0.88 -1.56)"/><path d="M118.53,6.05a5.45,5.45,0,0,1,.39-2.2,4.1,4.1,0,0,1,.8-1.18,3.23,3.23,0,0,1,1.11-.77,4.66,4.66,0,0,1,1.85-.34,4,4,0,0,1,3,1.18A4.53,4.53,0,0,1,126.86,6a4.49,4.49,0,0,1-1.13,3.25,4,4,0,0,1-3,1.17,4.05,4.05,0,0,1-3-1.17A4.41,4.41,0,0,1,118.53,6.05Zm1.78,0A3.21,3.21,0,0,0,121,8.21a2.2,2.2,0,0,0,1.71.75,2.17,2.17,0,0,0,1.7-.75A3.31,3.31,0,0,0,125.06,6a3.23,3.23,0,0,0-.65-2.2,2.39,2.39,0,0,0-3.45,0A3.24,3.24,0,0,0,120.31,6Z" transform="translate(-0.88 -1.56)"/><path d="M128.21,10.3V1.71H131a9.77,9.77,0,0,1,2.06.13,2.31,2.31,0,0,1,1.24.84,2.61,2.61,0,0,1,.5,1.67,2.81,2.81,0,0,1-.29,1.33,2.34,2.34,0,0,1-.73.85,2.5,2.5,0,0,1-.9.41,10.09,10.09,0,0,1-1.8.12H130V10.3ZM130,3.16V5.6h1a4.53,4.53,0,0,0,1.37-.13,1.14,1.14,0,0,0,.54-.42,1.15,1.15,0,0,0,.2-.67,1.07,1.07,0,0,0-.28-.77,1.24,1.24,0,0,0-.7-.38,8.16,8.16,0,0,0-1.25-.06H130Z" transform="translate(-0.88 -1.56)"/><path d="M147.3,10.3h-1.89l-.75-2h-3.43l-.71,2h-1.84L142,1.71h1.83Zm-3.2-3.4-1.18-3.19L141.76,6.9Z" transform="translate(-0.88 -1.56)"/><path d="M148.19,10.3V1.71h2.6l1.56,5.86,1.54-5.86h2.6V10.3h-1.61V3.53l-1.71,6.76H151.5l-1.7-6.76v6.76h-1.61Z" transform="translate(-0.88 -1.56)"/><path d="M158.21,10.3V1.71H161a9.77,9.77,0,0,1,2.06.13,2.31,2.31,0,0,1,1.24.84,2.61,2.61,0,0,1,.5,1.67,2.81,2.81,0,0,1-.29,1.33,2.34,2.34,0,0,1-.73.85,2.5,2.5,0,0,1-.9.41,10.09,10.09,0,0,1-1.8.12H160V10.3ZM160,3.16V5.6h1a4.53,4.53,0,0,0,1.37-.13,1.14,1.14,0,0,0,.54-.42,1.15,1.15,0,0,0,.2-.67,1.07,1.07,0,0,0-.28-.77,1.24,1.24,0,0,0-.7-.38,8.16,8.16,0,0,0-1.25-.06H160Z" transform="translate(-0.88 -1.56)"/><path d="M100.56,22.3V13.71h1.69l3.52,5.74V13.71h1.61V22.3h-1.74l-3.46-5.6v5.6Z" transform="translate(-0.88 -1.56)"/><path d="M108.86,18.05a5.45,5.45,0,0,1,.39-2.2,4.1,4.1,0,0,1,.8-1.18,3.23,3.23,0,0,1,1.11-.77,4.66,4.66,0,0,1,1.85-.34,4,4,0,0,1,3,1.18A4.53,4.53,0,0,1,117.19,18a4.49,4.49,0,0,1-1.13,3.25,4,4,0,0,1-3,1.17A4.05,4.05,0,0,1,110,21.27,4.41,4.41,0,0,1,108.86,18.05Zm1.79-.05a3.21,3.21,0,0,0,.67,2.21A2.2,2.2,0,0,0,113,21a2.17,2.17,0,0,0,1.7-.75A3.31,3.31,0,0,0,115.4,18a3.23,3.23,0,0,0-.65-2.2,2.39,2.39,0,0,0-3.45,0A3.24,3.24,0,0,0,110.65,18Z" transform="translate(-0.88 -1.56)"/><path d="M118.49,22.3V13.71h1.73V22.3Z" transform="translate(-0.88 -1.56)"/><path d="M121.44,19.5l1.69-.16a2.06,2.06,0,0,0,.62,1.25A1.85,1.85,0,0,0,125,21a2,2,0,0,0,1.26-.35,1,1,0,0,0,.42-.83.78.78,0,0,0-.18-.52,1.43,1.43,0,0,0-.62-.37c-.2-.07-.67-.2-1.39-.38a4.7,4.7,0,0,1-2-.85,2.22,2.22,0,0,1-.79-1.73,2.19,2.19,0,0,1,.37-1.23,2.38,2.38,0,0,1,1.07-.87,4.26,4.26,0,0,1,1.69-.3,3.61,3.61,0,0,1,2.43.71,2.52,2.52,0,0,1,.86,1.89l-1.73.08a1.42,1.42,0,0,0-.48-.95,1.78,1.78,0,0,0-1.1-.29,2,2,0,0,0-1.18.31.63.63,0,0,0-.28.53.66.66,0,0,0,.26.52,4.48,4.48,0,0,0,1.59.57,8,8,0,0,1,1.87.62,2.42,2.42,0,0,1,.95.87,2.71,2.71,0,0,1-.07,2.75,2.45,2.45,0,0,1-1.16,1,4.84,4.84,0,0,1-1.87.31,3.71,3.71,0,0,1-2.5-.75A3.25,3.25,0,0,1,121.44,19.5Z" transform="translate(-0.88 -1.56)"/><path d="M129.88,22.3V13.71h6.37v1.45h-4.63v1.9h4.31v1.45h-4.31v2.34h4.8V22.3Z" transform="translate(-0.88 -1.56)"/><path d="M141.2,22.3V13.71h2.6l1.56,5.86,1.54-5.86h2.6V22.3h-1.61V15.54l-1.71,6.76h-1.67l-1.7-6.76V22.3Z" transform="translate(-0.88 -1.56)"/><path d="M150.87,18.05a5.45,5.45,0,0,1,.39-2.2,4.1,4.1,0,0,1,.8-1.18,3.23,3.23,0,0,1,1.11-.77,4.66,4.66,0,0,1,1.85-.34,4,4,0,0,1,3,1.18A4.53,4.53,0,0,1,159.2,18a4.49,4.49,0,0,1-1.13,3.25,4,4,0,0,1-3,1.17A4.05,4.05,0,0,1,152,21.27,4.41,4.41,0,0,1,150.87,18.05Zm1.78-.05a3.21,3.21,0,0,0,.67,2.21A2.2,2.2,0,0,0,155,21a2.17,2.17,0,0,0,1.7-.75A3.31,3.31,0,0,0,157.4,18a3.23,3.23,0,0,0-.65-2.2,2.39,2.39,0,0,0-3.45,0A3.24,3.24,0,0,0,152.65,18Z" transform="translate(-0.88 -1.56)"/><path d="M160.54,13.71h3.17a6.15,6.15,0,0,1,1.63.16,2.83,2.83,0,0,1,1.29.79,3.91,3.91,0,0,1,.82,1.39,6.3,6.3,0,0,1,.28,2,5.81,5.81,0,0,1-.26,1.83,3.78,3.78,0,0,1-.92,1.52,3.18,3.18,0,0,1-1.22.69,5.27,5.27,0,0,1-1.54.18h-3.26V13.71Zm1.74,1.45v5.69h1.29a5.15,5.15,0,0,0,1.05-.08,1.61,1.61,0,0,0,.7-.36,1.7,1.7,0,0,0,.45-.83A5.88,5.88,0,0,0,166,18a5.06,5.06,0,0,0-.18-1.53,2,2,0,0,0-.49-.83,1.64,1.64,0,0,0-.8-.4,8.4,8.4,0,0,0-1.42-.08h-.78Z" transform="translate(-0.88 -1.56)"/><path d="M169.22,22.3V13.71h6.37v1.45H171v1.9h4.31v1.45H171v2.34h4.8V22.3Z" transform="translate(-0.88 -1.56)"/><path d="M177.27,22.3V13.78H179v7.07h4.31V22.3Z" transform="translate(-0.88 -1.56)"/><path d="M52.88,213.3v-8.59h3.65a6.39,6.39,0,0,1,2,.23,2,2,0,0,1,1,.82,2.47,2.47,0,0,1,.38,1.35,2.31,2.31,0,0,1-.57,1.6,2.75,2.75,0,0,1-1.7.79,4.16,4.16,0,0,1,.93.72,10,10,0,0,1,1,1.39l1,1.68H58.54l-1.25-1.87a12.9,12.9,0,0,0-.91-1.26,1.44,1.44,0,0,0-.52-.36,2.63,2.63,0,0,0-.87-.1h-.35v3.59H52.88Zm1.73-5h1.28a6.59,6.59,0,0,0,1.56-.11,1,1,0,0,0,.49-.36,1.1,1.1,0,0,0,.18-.64,1,1,0,0,0-.88-1c-.14,0-.56,0-1.27,0H54.62v2.18Z" transform="translate(-0.88 -1.56)"/><path d="M61.54,213.3v-8.59h6.37v1.45H63.28v1.9h4.31v1.45H63.28v2.34h4.8v1.45Z" transform="translate(-0.88 -1.56)"/><path d="M69.1,210.5l1.69-.16a2.06,2.06,0,0,0,.62,1.25,1.85,1.85,0,0,0,1.26.4,2,2,0,0,0,1.26-.35,1,1,0,0,0,.42-.83.78.78,0,0,0-.18-.52,1.43,1.43,0,0,0-.62-.37c-.2-.07-.67-.2-1.39-.38a4.7,4.7,0,0,1-2-.85,2.22,2.22,0,0,1-.79-1.73,2.19,2.19,0,0,1,.37-1.23,2.38,2.38,0,0,1,1.07-.87,4.26,4.26,0,0,1,1.69-.3,3.61,3.61,0,0,1,2.43.71,2.52,2.52,0,0,1,.86,1.89l-1.73.08a1.42,1.42,0,0,0-.48-1,1.78,1.78,0,0,0-1.1-.29,2,2,0,0,0-1.18.31.63.63,0,0,0-.28.53.66.66,0,0,0,.26.52,4.48,4.48,0,0,0,1.59.57,8,8,0,0,1,1.87.62,2.42,2.42,0,0,1,1,.87,2.71,2.71,0,0,1-.07,2.75,2.45,2.45,0,0,1-1.16,1,4.84,4.84,0,0,1-1.87.31,3.71,3.71,0,0,1-2.5-.75A3.29,3.29,0,0,1,69.1,210.5Z" transform="translate(-0.88 -1.56)"/><path d="M77.49,213.3v-8.59h1.73v8.59Z" transform="translate(-0.88 -1.56)"/><path d="M80.44,210.5l1.69-.16a2.06,2.06,0,0,0,.62,1.25A1.85,1.85,0,0,0,84,212a2,2,0,0,0,1.26-.35,1,1,0,0,0,.42-.83.78.78,0,0,0-.18-.52,1.43,1.43,0,0,0-.62-.37c-.2-.07-.67-.2-1.39-.38a4.7,4.7,0,0,1-2-.85,2.22,2.22,0,0,1-.79-1.73,2.19,2.19,0,0,1,.37-1.23,2.38,2.38,0,0,1,1.07-.87,4.26,4.26,0,0,1,1.69-.3,3.61,3.61,0,0,1,2.43.71,2.52,2.52,0,0,1,.86,1.89l-1.73.08a1.42,1.42,0,0,0-.48-1,1.78,1.78,0,0,0-1.1-.29,2,2,0,0,0-1.18.31.63.63,0,0,0-.28.53.66.66,0,0,0,.26.52,4.48,4.48,0,0,0,1.59.57,8,8,0,0,1,1.87.62,2.42,2.42,0,0,1,.95.87,2.71,2.71,0,0,1-.07,2.75,2.45,2.45,0,0,1-1.16,1,4.84,4.84,0,0,1-1.87.31,3.71,3.71,0,0,1-2.5-.75A3.25,3.25,0,0,1,80.44,210.5Z" transform="translate(-0.88 -1.56)"/><path d="M90.82,213.3v-7.14H88.27v-1.45H95.1v1.45H92.56v7.14Z" transform="translate(-0.88 -1.56)"/><path d="M95.86,209.05a5.45,5.45,0,0,1,.39-2.2,4.1,4.1,0,0,1,.8-1.18,3.23,3.23,0,0,1,1.11-.77,4.66,4.66,0,0,1,1.85-.34,4,4,0,0,1,3,1.18,5.26,5.26,0,0,1,0,6.53,4,4,0,0,1-3,1.17A4.05,4.05,0,0,1,97,212.27,4.41,4.41,0,0,1,95.86,209.05Zm1.79-.05a3.21,3.21,0,0,0,.67,2.21A2.2,2.2,0,0,0,100,212a2.17,2.17,0,0,0,1.7-.75,3.31,3.31,0,0,0,.67-2.24,3.23,3.23,0,0,0-.65-2.2,2.39,2.39,0,0,0-3.45,0A3.24,3.24,0,0,0,97.65,209Z" transform="translate(-0.88 -1.56)"/><path d="M105.55,213.3v-8.59h3.65a6.39,6.39,0,0,1,2,.23,2,2,0,0,1,1,.82,2.47,2.47,0,0,1,.38,1.35,2.31,2.31,0,0,1-.57,1.6,2.75,2.75,0,0,1-1.7.79,4.16,4.16,0,0,1,.93.72,10,10,0,0,1,1,1.39l1,1.68h-2.07L110,211.42a12.9,12.9,0,0,0-.91-1.26,1.44,1.44,0,0,0-.52-.36,2.63,2.63,0,0,0-.87-.1h-.35v3.59h-1.76Zm1.74-5h1.28a6.59,6.59,0,0,0,1.56-.11,1,1,0,0,0,.49-.36,1.1,1.1,0,0,0,.18-.64,1,1,0,0,0-.88-1c-.14,0-.56,0-1.27,0H107.3v2.18Z" transform="translate(-0.88 -1.56)"/><path d="M76.89,225.3v-8.59h1.69l3.52,5.74v-5.74h1.61v8.59H82l-3.46-5.6v5.6Z" transform="translate(-0.88 -1.56)"/><path d="M85.19,221.05a5.45,5.45,0,0,1,.39-2.2,4.1,4.1,0,0,1,.8-1.18,3.23,3.23,0,0,1,1.11-.77,4.66,4.66,0,0,1,1.85-.34,4,4,0,0,1,3,1.18,5.26,5.26,0,0,1,0,6.53,4,4,0,0,1-3,1.17,4.05,4.05,0,0,1-3.05-1.17A4.41,4.41,0,0,1,85.19,221.05ZM87,221a3.21,3.21,0,0,0,.67,2.21,2.2,2.2,0,0,0,1.71.75,2.17,2.17,0,0,0,1.7-.75,3.31,3.31,0,0,0,.67-2.24,3.23,3.23,0,0,0-.65-2.2,2.39,2.39,0,0,0-3.45,0A3.24,3.24,0,0,0,87,221Z" transform="translate(-0.88 -1.56)"/><path d="M94.82,225.3v-8.59h1.73v8.59Z" transform="translate(-0.88 -1.56)"/><path d="M97.77,222.5l1.69-.16a2.06,2.06,0,0,0,.62,1.25,1.85,1.85,0,0,0,1.26.4,2,2,0,0,0,1.26-.35,1,1,0,0,0,.42-.83.78.78,0,0,0-.18-.52,1.43,1.43,0,0,0-.62-.37c-.2-.07-.67-.2-1.39-.38a4.7,4.7,0,0,1-2-.85,2.22,2.22,0,0,1-.79-1.73,2.19,2.19,0,0,1,.37-1.23,2.38,2.38,0,0,1,1.07-.87,4.26,4.26,0,0,1,1.69-.3,3.61,3.61,0,0,1,2.43.71,2.52,2.52,0,0,1,.86,1.89l-1.73.08a1.42,1.42,0,0,0-.48-1,1.78,1.78,0,0,0-1.1-.29,2,2,0,0,0-1.18.31.63.63,0,0,0-.28.53.66.66,0,0,0,.26.52,4.48,4.48,0,0,0,1.59.57,8,8,0,0,1,1.87.62,2.42,2.42,0,0,1,1,.87,2.71,2.71,0,0,1-.07,2.75,2.45,2.45,0,0,1-1.16,1,4.84,4.84,0,0,1-1.87.31,3.71,3.71,0,0,1-2.5-.75A3.25,3.25,0,0,1,97.77,222.5Z" transform="translate(-0.88 -1.56)"/><path d="M106.21,225.3v-8.59h6.37v1.45H108v1.9h4.31v1.45H108v2.34h4.8v1.45Z" transform="translate(-0.88 -1.56)"/><path d="M.88,98.3V89.71H4.53a6.39,6.39,0,0,1,2,.23,2,2,0,0,1,1,.82,2.47,2.47,0,0,1,.38,1.35,2.31,2.31,0,0,1-.57,1.6,2.75,2.75,0,0,1-1.7.79,4.16,4.16,0,0,1,.93.72,10,10,0,0,1,1,1.39l1,1.69H6.53L5.28,96.43a12.9,12.9,0,0,0-.91-1.26,1.44,1.44,0,0,0-.52-.36,2.63,2.63,0,0,0-.87-.1H2.61V98.3Zm1.73-5H3.9a6.59,6.59,0,0,0,1.56-.11A1,1,0,0,0,6,92.87a1.1,1.1,0,0,0,.18-.64,1,1,0,0,0-.88-1c-.14,0-.56,0-1.27,0H2.61Z" transform="translate(-0.88 -1.56)"/><path d="M9.54,98.3V89.71h6.37v1.45H11.28v1.9h4.31v1.45H11.28v2.34h4.8V98.3Z" transform="translate(-0.88 -1.56)"/><path d="M17.1,95.5l1.69-.16a2.06,2.06,0,0,0,.62,1.25,1.85,1.85,0,0,0,1.26.4,2,2,0,0,0,1.26-.35,1,1,0,0,0,.42-.83.78.78,0,0,0-.18-.52,1.43,1.43,0,0,0-.62-.37c-.2-.07-.67-.2-1.39-.38a4.7,4.7,0,0,1-2-.85A2.22,2.22,0,0,1,17.41,92a2.19,2.19,0,0,1,.37-1.23,2.38,2.38,0,0,1,1.07-.87,4.26,4.26,0,0,1,1.69-.3,3.61,3.61,0,0,1,2.43.71,2.52,2.52,0,0,1,.86,1.89l-1.73.08a1.42,1.42,0,0,0-.48-.95A1.75,1.75,0,0,0,20.53,91a2,2,0,0,0-1.18.31.63.63,0,0,0-.28.53.66.66,0,0,0,.26.52,4.48,4.48,0,0,0,1.59.57,8,8,0,0,1,1.87.62,2.42,2.42,0,0,1,.95.87,2.71,2.71,0,0,1-.07,2.75,2.45,2.45,0,0,1-1.16,1,4.84,4.84,0,0,1-1.87.31,3.71,3.71,0,0,1-2.5-.75A3.3,3.3,0,0,1,17.1,95.5Z" transform="translate(-0.88 -1.56)"/><path d="M25.49,98.3V89.71h1.73V98.3Z" transform="translate(-0.88 -1.56)"/><path d="M28.44,95.5l1.69-.16a2.06,2.06,0,0,0,.62,1.25A1.85,1.85,0,0,0,32,97a2,2,0,0,0,1.26-.35,1,1,0,0,0,.42-.83.78.78,0,0,0-.18-.52,1.43,1.43,0,0,0-.62-.37c-.2-.07-.67-.2-1.39-.38a4.7,4.7,0,0,1-2-.85A2.22,2.22,0,0,1,28.75,92a2.19,2.19,0,0,1,.37-1.23,2.38,2.38,0,0,1,1.07-.87,4.26,4.26,0,0,1,1.69-.3,3.61,3.61,0,0,1,2.43.71,2.52,2.52,0,0,1,.86,1.89l-1.73.08a1.42,1.42,0,0,0-.48-.95A1.75,1.75,0,0,0,31.87,91a2,2,0,0,0-1.18.31.63.63,0,0,0-.28.53.66.66,0,0,0,.26.52,4.48,4.48,0,0,0,1.59.57,8,8,0,0,1,1.87.62,2.42,2.42,0,0,1,.95.87A2.71,2.71,0,0,1,35,97.17a2.45,2.45,0,0,1-1.16,1,4.84,4.84,0,0,1-1.87.31,3.71,3.71,0,0,1-2.5-.75A3.25,3.25,0,0,1,28.44,95.5Z" transform="translate(-0.88 -1.56)"/><path d="M38.82,98.3V91.16H36.27V89.71H43.1v1.45H40.56V98.3Z" transform="translate(-0.88 -1.56)"/><path d="M43.86,94.05a5.45,5.45,0,0,1,.39-2.2,4.1,4.1,0,0,1,.8-1.18,3.23,3.23,0,0,1,1.11-.77A4.66,4.66,0,0,1,48,89.56a4,4,0,0,1,3,1.18,5.26,5.26,0,0,1,0,6.53,4,4,0,0,1-3,1.17,4.05,4.05,0,0,1-3-1.17A4.41,4.41,0,0,1,43.86,94.05Zm1.79,0a3.21,3.21,0,0,0,.67,2.21A2.2,2.2,0,0,0,48,97a2.17,2.17,0,0,0,1.7-.75A3.31,3.31,0,0,0,50.4,94a3.23,3.23,0,0,0-.65-2.2,2.39,2.39,0,0,0-3.45,0A3.24,3.24,0,0,0,45.65,94Z" transform="translate(-0.88 -1.56)"/><path d="M53.55,98.3V89.71H57.2a6.39,6.39,0,0,1,2,.23,2,2,0,0,1,1,.82,2.47,2.47,0,0,1,.38,1.35,2.31,2.31,0,0,1-.57,1.6,2.75,2.75,0,0,1-1.7.79,4.16,4.16,0,0,1,.93.72,10,10,0,0,1,1,1.39l1.05,1.68H59.2L58,96.42A12.9,12.9,0,0,0,57,95.16a1.44,1.44,0,0,0-.52-.36,2.63,2.63,0,0,0-.87-.1H55.3v3.59H53.55Zm1.74-5h1.28a6.59,6.59,0,0,0,1.56-.11,1,1,0,0,0,.49-.36,1.1,1.1,0,0,0,.18-.64,1,1,0,0,0-.88-1c-.14,0-.56,0-1.27,0H55.3v2.18Z" transform="translate(-0.88 -1.56)"/><path d="M24.89,110.3v-8.59h1.69l3.52,5.74v-5.74h1.61v8.59H30l-3.46-5.6v5.6Z" transform="translate(-0.88 -1.56)"/><path d="M33.19,106.05a5.45,5.45,0,0,1,.39-2.2,4.1,4.1,0,0,1,.8-1.18,3.23,3.23,0,0,1,1.11-.77,4.66,4.66,0,0,1,1.85-.34,4,4,0,0,1,3,1.18,5.26,5.26,0,0,1,0,6.53,4,4,0,0,1-3,1.17,4.05,4.05,0,0,1-3-1.17A4.41,4.41,0,0,1,33.19,106.05ZM35,106a3.21,3.21,0,0,0,.67,2.21,2.2,2.2,0,0,0,1.71.75,2.17,2.17,0,0,0,1.7-.75,3.31,3.31,0,0,0,.67-2.24,3.23,3.23,0,0,0-.65-2.2,2.39,2.39,0,0,0-3.45,0A3.24,3.24,0,0,0,35,106Z" transform="translate(-0.88 -1.56)"/><path d="M42.82,110.3v-8.59h1.73v8.59Z" transform="translate(-0.88 -1.56)"/><path d="M45.77,107.5l1.69-.16a2.06,2.06,0,0,0,.62,1.25,1.85,1.85,0,0,0,1.26.4,2,2,0,0,0,1.26-.35,1,1,0,0,0,.42-.83.78.78,0,0,0-.18-.52,1.43,1.43,0,0,0-.62-.37c-.2-.07-.67-.2-1.39-.38a4.7,4.7,0,0,1-2-.85,2.22,2.22,0,0,1-.79-1.73,2.19,2.19,0,0,1,.37-1.23,2.38,2.38,0,0,1,1.07-.87,4.26,4.26,0,0,1,1.69-.3,3.61,3.61,0,0,1,2.43.71,2.52,2.52,0,0,1,.86,1.89l-1.73.08a1.42,1.42,0,0,0-.48-.95A1.77,1.77,0,0,0,49.2,103a2,2,0,0,0-1.18.31.63.63,0,0,0-.28.53.66.66,0,0,0,.26.52,4.48,4.48,0,0,0,1.59.57,8,8,0,0,1,1.87.62,2.42,2.42,0,0,1,.95.87,2.71,2.71,0,0,1-.07,2.75,2.45,2.45,0,0,1-1.16,1,4.84,4.84,0,0,1-1.87.31,3.71,3.71,0,0,1-2.5-.75A3.25,3.25,0,0,1,45.77,107.5Z" transform="translate(-0.88 -1.56)"/><path d="M54.21,110.3v-8.59h6.37v1.45H56v1.9h4.31v1.45H56v2.34h4.8v1.45Z" transform="translate(-0.88 -1.56)"/><path d="M227.22,205.3v-8.59h3.65a6.39,6.39,0,0,1,2,.23,2,2,0,0,1,1,.82,2.47,2.47,0,0,1,.38,1.35,2.31,2.31,0,0,1-.57,1.6,2.75,2.75,0,0,1-1.7.79,4.16,4.16,0,0,1,.93.72,10,10,0,0,1,1,1.39l1,1.68h-2.07l-1.25-1.87a12.9,12.9,0,0,0-.91-1.26,1.44,1.44,0,0,0-.52-.36,2.63,2.63,0,0,0-.87-.1H229v3.59h-1.76Zm1.74-5h1.28a6.59,6.59,0,0,0,1.56-.11,1,1,0,0,0,.49-.36,1.1,1.1,0,0,0,.18-.64,1,1,0,0,0-.88-1c-.14,0-.56,0-1.27,0H229v2.18Z" transform="translate(-0.88 -1.56)"/><path d="M235.88,205.3v-8.59h6.37v1.45h-4.63v1.9h4.31v1.45h-4.31v2.34h4.8v1.45Z" transform="translate(-0.88 -1.56)"/><path d="M243.45,202.5l1.69-.16a2.06,2.06,0,0,0,.62,1.25,1.85,1.85,0,0,0,1.26.4,2,2,0,0,0,1.26-.35,1,1,0,0,0,.42-.83.78.78,0,0,0-.18-.52,1.43,1.43,0,0,0-.62-.37c-.2-.07-.67-.2-1.39-.38a4.7,4.7,0,0,1-2-.85,2.22,2.22,0,0,1-.79-1.73,2.19,2.19,0,0,1,.37-1.23,2.38,2.38,0,0,1,1.07-.87,4.26,4.26,0,0,1,1.69-.3,3.61,3.61,0,0,1,2.43.71,2.52,2.52,0,0,1,.86,1.89l-1.73.08a1.42,1.42,0,0,0-.48-1,1.78,1.78,0,0,0-1.1-.29,2,2,0,0,0-1.18.31.63.63,0,0,0-.28.53.66.66,0,0,0,.26.52,4.48,4.48,0,0,0,1.59.57,8,8,0,0,1,1.87.62,2.42,2.42,0,0,1,1,.87,2.71,2.71,0,0,1-.07,2.75,2.45,2.45,0,0,1-1.16,1,4.84,4.84,0,0,1-1.87.31,3.71,3.71,0,0,1-2.5-.75A3.25,3.25,0,0,1,243.45,202.5Z" transform="translate(-0.88 -1.56)"/><path d="M251.84,205.3v-8.59h1.73v8.59Z" transform="translate(-0.88 -1.56)"/><path d="M254.78,202.5l1.69-.16a2.06,2.06,0,0,0,.62,1.25,1.85,1.85,0,0,0,1.26.4,2,2,0,0,0,1.26-.35,1,1,0,0,0,.42-.83.78.78,0,0,0-.18-.52,1.43,1.43,0,0,0-.62-.37c-.2-.07-.67-.2-1.39-.38a4.7,4.7,0,0,1-2-.85,2.22,2.22,0,0,1-.79-1.73,2.19,2.19,0,0,1,.37-1.23,2.38,2.38,0,0,1,1.07-.87,4.26,4.26,0,0,1,1.69-.3,3.61,3.61,0,0,1,2.43.71,2.52,2.52,0,0,1,.86,1.89l-1.73.08a1.42,1.42,0,0,0-.48-1,1.78,1.78,0,0,0-1.1-.29,2,2,0,0,0-1.18.31.63.63,0,0,0-.28.53.66.66,0,0,0,.26.52,4.48,4.48,0,0,0,1.59.57,8,8,0,0,1,1.87.62,2.42,2.42,0,0,1,1,.87,2.71,2.71,0,0,1-.07,2.75,2.45,2.45,0,0,1-1.16,1,4.84,4.84,0,0,1-1.87.31,3.71,3.71,0,0,1-2.5-.75A3.29,3.29,0,0,1,254.78,202.5Z" transform="translate(-0.88 -1.56)"/><path d="M265.16,205.3v-7.14h-2.55v-1.45h6.83v1.45H266.9v7.14Z" transform="translate(-0.88 -1.56)"/><path d="M270.21,201.05a5.45,5.45,0,0,1,.39-2.2,4.1,4.1,0,0,1,.8-1.18,3.23,3.23,0,0,1,1.11-.77,4.66,4.66,0,0,1,1.85-.34,4,4,0,0,1,3,1.18,5.26,5.26,0,0,1,0,6.53,4,4,0,0,1-3,1.17,4.05,4.05,0,0,1-3.05-1.17A4.41,4.41,0,0,1,270.21,201.05ZM272,201a3.21,3.21,0,0,0,.67,2.21,2.2,2.2,0,0,0,1.71.75,2.17,2.17,0,0,0,1.7-.75,3.31,3.31,0,0,0,.67-2.24,3.23,3.23,0,0,0-.65-2.2,2.39,2.39,0,0,0-3.45,0A3.24,3.24,0,0,0,272,201Z" transform="translate(-0.88 -1.56)"/><path d="M279.9,205.3v-8.59h3.65a6.39,6.39,0,0,1,2,.23,2,2,0,0,1,1,.82,2.47,2.47,0,0,1,.38,1.35,2.31,2.31,0,0,1-.57,1.6,2.75,2.75,0,0,1-1.7.79,4.16,4.16,0,0,1,.93.72,10,10,0,0,1,1,1.39l1.05,1.68h-2.07l-1.25-1.87a12.9,12.9,0,0,0-.91-1.26,1.44,1.44,0,0,0-.52-.36,2.63,2.63,0,0,0-.87-.1h-.35v3.59H279.9Zm1.73-5h1.28a6.59,6.59,0,0,0,1.56-.11,1,1,0,0,0,.49-.36,1.1,1.1,0,0,0,.18-.64,1,1,0,0,0-.88-1c-.14,0-.56,0-1.27,0h-1.35v2.18Z" transform="translate(-0.88 -1.56)"/><path d="M227.23,217.3v-8.59h1.69l3.52,5.74v-5.74h1.61v8.59h-1.74l-3.46-5.6v5.6Z" transform="translate(-0.88 -1.56)"/><path d="M235.53,213.05a5.45,5.45,0,0,1,.39-2.2,4.1,4.1,0,0,1,.8-1.18,3.23,3.23,0,0,1,1.11-.77,4.66,4.66,0,0,1,1.85-.34,4,4,0,0,1,3,1.18,5.26,5.26,0,0,1,0,6.53,4,4,0,0,1-3,1.17,4.05,4.05,0,0,1-3.05-1.17A4.41,4.41,0,0,1,235.53,213.05Zm1.79-.05a3.21,3.21,0,0,0,.67,2.21,2.2,2.2,0,0,0,1.71.75,2.17,2.17,0,0,0,1.7-.75,3.31,3.31,0,0,0,.67-2.24,3.23,3.23,0,0,0-.65-2.2,2.39,2.39,0,0,0-3.45,0A3.24,3.24,0,0,0,237.32,213Z" transform="translate(-0.88 -1.56)"/><path d="M245.16,217.3v-8.59h1.73v8.59Z" transform="translate(-0.88 -1.56)"/><path d="M248.11,214.5l1.69-.16a2.06,2.06,0,0,0,.62,1.25,1.85,1.85,0,0,0,1.26.4,2,2,0,0,0,1.26-.35,1,1,0,0,0,.42-.83.78.78,0,0,0-.18-.52,1.43,1.43,0,0,0-.62-.37c-.2-.07-.67-.2-1.39-.38a4.7,4.7,0,0,1-2-.85,2.22,2.22,0,0,1-.79-1.73,2.19,2.19,0,0,1,.37-1.23,2.38,2.38,0,0,1,1.07-.87,4.26,4.26,0,0,1,1.69-.3,3.61,3.61,0,0,1,2.43.71,2.52,2.52,0,0,1,.86,1.89l-1.73.08a1.42,1.42,0,0,0-.48-1,1.78,1.78,0,0,0-1.1-.29,2,2,0,0,0-1.18.31.63.63,0,0,0-.28.53.66.66,0,0,0,.26.52,4.48,4.48,0,0,0,1.59.57,8,8,0,0,1,1.87.62,2.42,2.42,0,0,1,1,.87,2.71,2.71,0,0,1-.07,2.75,2.45,2.45,0,0,1-1.16,1,4.84,4.84,0,0,1-1.87.31,3.71,3.71,0,0,1-2.5-.75A3.25,3.25,0,0,1,248.11,214.5Z" transform="translate(-0.88 -1.56)"/><path d="M256.55,217.3v-8.59h6.37v1.45h-4.63v1.9h4.31v1.45h-4.31v2.34h4.8v1.45Z" transform="translate(-0.88 -1.56)"/><path d="M199,207v-8.59h3.65a6.39,6.39,0,0,1,2,.23,2,2,0,0,1,1,.82,2.47,2.47,0,0,1,.38,1.35,2.31,2.31,0,0,1-.57,1.6,2.75,2.75,0,0,1-1.7.79,4.16,4.16,0,0,1,.93.72,10,10,0,0,1,1,1.39l1.05,1.68h-2.07l-1.25-1.87a12.9,12.9,0,0,0-.91-1.26,1.44,1.44,0,0,0-.52-.36,2.63,2.63,0,0,0-.87-.1h-.35v3.59H199Zm1.74-5H202a6.59,6.59,0,0,0,1.56-.11,1,1,0,0,0,.49-.36,1.1,1.1,0,0,0,.18-.64,1,1,0,0,0-.88-1c-.14,0-.56,0-1.27,0h-1.35V202Z" transform="translate(-0.88 -1.56)"/><path d="M210.73,210h-1.37v-5.17a4.64,4.64,0,0,1-1.77,1v-1.25a4,4,0,0,0,1.17-.67,2.49,2.49,0,0,0,.86-1.15h1.11Z" transform="translate(-0.88 -1.56)"/><line x1="120.89" y1="236.4" x2="135.91" y2="236.4" fill="none" stroke="#000" stroke-miterlimit="14.3" stroke-width="1.5"/><line x1="133.79" y1="239.51" x2="123" y2="239.5" fill="none" stroke="#000" stroke-miterlimit="14.3" stroke-width="1.5"/><line x1="131.03" y1="242.61" x2="125.76" y2="242.61" fill="none" stroke="#000" stroke-miterlimit="14.3" stroke-width="1.5"/><polygon points="129.54 203.58 129.54 219.43 127.03 218.54 127.03 202.24 129.54 203.58" fill="#fff"/><polyline points="128.42 220.4 128.42 219.67 125.95 218.35 130.88 215.47 125.93 212.51 130.88 209.59 125.95 206.75 130.88 203.84 128.41 202.31 128.41 201.74" fill="none" stroke="#000" stroke-miterlimit="14.3" stroke-width="1.5"/><line x1="165.36" y1="150.45" x2="165.36" y2="145.86" fill="none" stroke="#000" stroke-miterlimit="14.3" stroke-width="1.5"/><path d="M117.83,83.4a10.67,10.67,0,1,1,10.58-10.67A10.67,10.67,0,0,1,117.83,83.4Z" transform="translate(-0.88 -1.56)" fill="#fff" stroke="#000" stroke-miterlimit="14.3" stroke-width="1.5"/><polygon points="158.48 150.46 172.22 150.48 165.28 161.5 158.48 150.46" fill="#fff" stroke="#000" stroke-width="1.5" fill-rule="evenodd"/><line x1="165.36" y1="101.47" x2="165.36" y2="98.26" fill="none" stroke="#000" stroke-miterlimit="14.3" stroke-width="1.5"/><path d="M166,99.69A10.67,10.67,0,1,1,176.53,89,10.67,10.67,0,0,1,166,99.69Z" transform="translate(-0.88 -1.56)" fill="#fff" stroke="#000" stroke-miterlimit="14.3" stroke-width="1.5"/><polygon points="165.25 81.76 162.61 89.05 167.87 89.06 165.25 81.76" stroke="#000" stroke-miterlimit="14.3" stroke-width="1.5"/><line x1="165.19" y1="86.72" x2="165.19" y2="94.67" fill="none" stroke="#000" stroke-miterlimit="14.3" stroke-width="1.5"/><path d="M166,147.63A10.67,10.67,0,1,1,176.53,137,10.67,10.67,0,0,1,166,147.63Z" transform="translate(-0.88 -1.56)" fill="#fff" stroke="#000" stroke-miterlimit="14.3" stroke-width="1.5"/><polygon points="165.25 129.7 162.61 136.99 167.87 136.99 165.25 129.7" stroke="#000" stroke-miterlimit="14.3" stroke-width="1.5"/><line x1="165.19" y1="134.66" x2="165.19" y2="142.61" fill="none" stroke="#000" stroke-miterlimit="14.3" stroke-width="1.5"/><polygon points="158.48 101.48 172.22 101.5 165.28 112.52 158.48 101.48" fill="#fff" stroke="#000" stroke-width="1.5" fill-rule="evenodd"/><path d="M145.1,83.33V81.1h-2.25V79.56h2.25V77.33h1.5v2.23h2.26V81.1H146.6v2.23Z" transform="translate(-0.88 -1.56)"/><path d="M142.33,129.44v-1.23H149v1.23Z" transform="translate(-0.88 -1.56)"/><path d="M442.1,81.83V79.6h-2.25V78.06h2.25V75.83h1.5v2.23h2.26V79.6H443.6v2.23Z" transform="translate(-0.88 -1.56)"/><path d="M439.33,127.94v-1.23H446v1.23Z" transform="translate(-0.88 -1.56)"/><path d="M121.75,76.45V74.22H119.5V72.68h2.25V70.45h1.5v2.23h2.26v1.54h-2.26v2.23Z" transform="translate(-0.88 -1.56)"/><path d="M110.21,73.75V72.52h6.67v1.23Z" transform="translate(-0.88 -1.56)"/><line x1="106.14" y1="71.76" x2="91.3" y2="71.76" fill="none" stroke="#000" stroke-width="1.5"/><path d="M132.15,190.77h0a2.88,2.88,0,1,0-2.88,2.81,2.84,2.84,0,0,0,2.88-2.81Z" transform="translate(-0.88 -1.56)" stroke="#000" stroke-miterlimit="14.3"/><polygon points="212.4 190.36 196.55 190.36 197.44 187.84 213.74 187.84 212.4 190.36" fill="#fff"/><polyline points="195.58 189.23 196.31 189.23 197.63 186.77 200.51 191.7 203.47 186.74 206.39 191.7 209.22 186.77 212.14 191.7 213.67 189.22 214.24 189.22" fill="none" stroke="#000" stroke-miterlimit="14.3" stroke-width="1.5"/><path d="M596,245.32a5.16,5.16,0,0,1-1.63-.21,2.14,2.14,0,0,1-1-.62,1.55,1.55,0,0,1-.34-1,1.62,1.62,0,0,1,.19-.81,1.55,1.55,0,0,1,.54-.57,3.15,3.15,0,0,1,.85-.36,5.43,5.43,0,0,1,1.35-.13,5.25,5.25,0,0,1,1.63.21,2,2,0,0,1,1,.62,1.74,1.74,0,0,1-.25,2.34A3.83,3.83,0,0,1,596,245.32Zm0-.73a3.6,3.6,0,0,0,1.88-.33.93.93,0,0,0,0-1.62,5.52,5.52,0,0,0-3.76,0,1,1,0,0,0-.46.82.9.9,0,0,0,.41.77A3.62,3.62,0,0,0,596,244.59Z" transform="translate(-0.88 -1.56)"/><path d="M593.84,240.82h-.68v-3.71h.55a7.56,7.56,0,0,0,1.55,1.08,10.27,10.27,0,0,0,2,.83,7.45,7.45,0,0,0,1.57.27V240a7,7,0,0,1-1.63-.27,8.79,8.79,0,0,1-1.85-.73,7.83,7.83,0,0,1-1.5-1v2.82Z" transform="translate(-0.88 -1.56)"/><path d="M596,236.42a5.16,5.16,0,0,1-1.63-.21,2.14,2.14,0,0,1-1-.62,1.55,1.55,0,0,1-.34-1,1.62,1.62,0,0,1,.19-.81,1.55,1.55,0,0,1,.54-.57,3.15,3.15,0,0,1,.85-.36,5.43,5.43,0,0,1,1.35-.13,5.25,5.25,0,0,1,1.63.21,2,2,0,0,1,1,.62,1.74,1.74,0,0,1-.25,2.34A3.83,3.83,0,0,1,596,236.42Zm0-.72a3.6,3.6,0,0,0,1.88-.33.93.93,0,0,0,0-1.62,5.52,5.52,0,0,0-3.76,0,1,1,0,0,0-.46.82.9.9,0,0,0,.41.77A3.62,3.62,0,0,0,596,235.7Z" transform="translate(-0.88 -1.56)"/><path d="M597.32,232l-.06-.74a1.29,1.29,0,0,0,.81-.38,1,1,0,0,0,.27-.72,1.15,1.15,0,0,0-.38-.86,1.41,1.41,0,0,0-1-.35,1.29,1.29,0,0,0-1,.34,1.19,1.19,0,0,0-.35.88,1.23,1.23,0,0,0,.15.61,1.19,1.19,0,0,0,.4.43l-.09.66-2.94-.55v-2.85h.67v2.29l1.54.31A1.84,1.84,0,0,1,595,230a1.72,1.72,0,0,1,.52-1.27,1.8,1.8,0,0,1,1.34-.52,2.07,2.07,0,0,1,1.34.45,1.83,1.83,0,0,1,.7,1.5,1.88,1.88,0,0,1-.44,1.28A1.7,1.7,0,0,1,597.32,232Z" transform="translate(-0.88 -1.56)"/><path d="M597.31,227.52l-.09-.7a1.54,1.54,0,0,0,.86-.41,1,1,0,0,0,.26-.71,1.16,1.16,0,0,0-1.19-1.18,1.08,1.08,0,0,0-1.11,1.12,2.21,2.21,0,0,0,.08.5l-.62-.08c0-.05,0-.08,0-.11a1.5,1.5,0,0,0-.23-.81.8.8,0,0,0-.72-.36.87.87,0,0,0-.64.26.92.92,0,0,0-.25.68,1,1,0,0,0,.26.68,1.29,1.29,0,0,0,.77.35l-.12.7a1.82,1.82,0,0,1-1.1-.59,1.7,1.7,0,0,1-.39-1.14,1.91,1.91,0,0,1,.2-.86,1.46,1.46,0,0,1,.55-.6,1.41,1.41,0,0,1,.74-.21,1.26,1.26,0,0,1,.68.2,1.3,1.3,0,0,1,.48.59,1.33,1.33,0,0,1,.49-.79,1.46,1.46,0,0,1,.92-.28,1.67,1.67,0,0,1,1.27.55,1.93,1.93,0,0,1,.52,1.38,1.75,1.75,0,0,1-1.63,1.82Z" transform="translate(-0.88 -1.56)"/><path d="M597.1,223.15h-.71V221h.71Z" transform="translate(-0.88 -1.56)"/><path d="M596,220.41a5.16,5.16,0,0,1-1.63-.21,2.14,2.14,0,0,1-1-.62,1.55,1.55,0,0,1-.34-1,1.62,1.62,0,0,1,.19-.81,1.55,1.55,0,0,1,.54-.57,3.15,3.15,0,0,1,.85-.36,5.43,5.43,0,0,1,1.35-.13,5.25,5.25,0,0,1,1.63.21,2,2,0,0,1,1,.62,1.74,1.74,0,0,1-.25,2.34A3.83,3.83,0,0,1,596,220.41Zm0-.73a3.6,3.6,0,0,0,1.88-.33.93.93,0,0,0,0-1.62,5.52,5.52,0,0,0-3.76,0,1,1,0,0,0-.46.82.9.9,0,0,0,.41.77A3.62,3.62,0,0,0,596,219.68Z" transform="translate(-0.88 -1.56)"/><path d="M596,216a5.16,5.16,0,0,1-1.63-.21,2.14,2.14,0,0,1-1-.62,1.55,1.55,0,0,1-.34-1,1.62,1.62,0,0,1,.19-.81,1.55,1.55,0,0,1,.54-.57,3.15,3.15,0,0,1,.85-.36,5.43,5.43,0,0,1,1.35-.13,5.25,5.25,0,0,1,1.63.21,2,2,0,0,1,1,.62,1.74,1.74,0,0,1-.25,2.34A3.83,3.83,0,0,1,596,216Zm0-.72a3.6,3.6,0,0,0,1.88-.33.93.93,0,0,0,0-1.62,5.52,5.52,0,0,0-3.76,0,1,1,0,0,0-.46.82.9.9,0,0,0,.41.77A3.72,3.72,0,0,0,596,215.24Z" transform="translate(-0.88 -1.56)"/><path d="M593.84,211.46h-.68v-3.71h.55a7.56,7.56,0,0,0,1.55,1.08,10.27,10.27,0,0,0,2,.83,7.45,7.45,0,0,0,1.57.27v.72a7,7,0,0,1-1.63-.27,8.79,8.79,0,0,1-1.85-.73,7.83,7.83,0,0,1-1.5-1v2.82Z" transform="translate(-0.88 -1.56)"/><rect x="102" y="25.19" width="76" height="123" fill="none" stroke="#aaa"/><rect x="65" y="85.86" width="33.33" height="27.67" fill="none" stroke="#aaa"/><rect x="117.67" y="198.52" width="33.33" height="27.67" fill="none" stroke="#aaa"/><rect x="190.5" y="179.69" width="27.67" height="33.33" fill="none" stroke="#aaa"/><polygon points="434.07 43.84 434.07 180.6 563.7 112.26 434.07 43.84" fill="none" stroke="#000" stroke-width="1.5"/><line x1="387.66" y1="70.91" x2="387.66" y2="125.82" fill="none" stroke="#000" stroke-width="1.5"/><line x1="424.08" y1="189.21" x2="578.36" y2="189.21" fill="none" stroke="#000" stroke-width="1.5"/><polyline points="562.77 112.41 577.73 112.41 577.73 189.91" fill="none" stroke="#000" stroke-width="1.5"/><line x1="424.05" y1="71.45" x2="434.34" y2="71.45" fill="none" stroke="#000" stroke-width="1.5"/><line x1="424.05" y1="121.24" x2="433.88" y2="121.24" fill="none" stroke="#000" stroke-width="1.5"/><line x1="380.15" y1="125.59" x2="395.17" y2="125.59" fill="none" stroke="#000" stroke-miterlimit="14.3" stroke-width="1.5"/><line x1="393.06" y1="128.7" x2="382.26" y2="128.69" fill="none" stroke="#000" stroke-miterlimit="14.3" stroke-width="1.5"/><line x1="390.3" y1="131.8" x2="385.02" y2="131.8" fill="none" stroke="#000" stroke-miterlimit="14.3" stroke-width="1.5"/><line x1="424.4" y1="121.13" x2="424.4" y2="236.64" fill="none" stroke="#000" stroke-width="1.5"/><path d="M433.55,216.3v-8.59h3.65a6.39,6.39,0,0,1,2,.23,2,2,0,0,1,1,.82,2.47,2.47,0,0,1,.38,1.35,2.31,2.31,0,0,1-.57,1.6,2.75,2.75,0,0,1-1.7.79,4.16,4.16,0,0,1,.93.72,10,10,0,0,1,1,1.39l1,1.68h-2.07L438,214.42a12.9,12.9,0,0,0-.91-1.26,1.44,1.44,0,0,0-.52-.36,2.63,2.63,0,0,0-.87-.1h-.35v3.59h-1.76Zm1.74-5h1.28a6.59,6.59,0,0,0,1.56-.11,1,1,0,0,0,.49-.36,1.1,1.1,0,0,0,.18-.64,1,1,0,0,0-.88-1c-.14,0-.56,0-1.27,0H435.3v2.18Z" transform="translate(-0.88 -1.56)"/><path d="M446.4,218v1.27h-4.81a3.29,3.29,0,0,1,.47-1.37,9.25,9.25,0,0,1,1.54-1.72,10.45,10.45,0,0,0,1.14-1.17,1.48,1.48,0,0,0,.28-.84,1,1,0,0,0-.25-.71,1,1,0,0,0-1.36,0,1.29,1.29,0,0,0-.29.86l-1.37-.14a2.24,2.24,0,0,1,.77-1.63,2.57,2.57,0,0,1,1.61-.49,2.35,2.35,0,0,1,1.67.57,1.85,1.85,0,0,1,.61,1.42,2.59,2.59,0,0,1-.17.92,3.66,3.66,0,0,1-.55.92,9.07,9.07,0,0,1-.9.91c-.43.39-.71.66-.82.79a2.82,2.82,0,0,0-.28.38h2.71Z" transform="translate(-0.88 -1.56)"/><path d="M357.71,21.14l1.68.53a3.8,3.8,0,0,1-1.29,2.09,3.63,3.63,0,0,1-2.28.68A3.68,3.68,0,0,1,353,23.27a4.49,4.49,0,0,1-1.1-3.2A4.68,4.68,0,0,1,353,16.74a3.81,3.81,0,0,1,2.91-1.19,3.58,3.58,0,0,1,2.56.93,3.43,3.43,0,0,1,.88,1.58l-1.72.41a1.73,1.73,0,0,0-.64-1,1.87,1.87,0,0,0-1.17-.39,2,2,0,0,0-1.55.69,3.35,3.35,0,0,0-.59,2.22,3.59,3.59,0,0,0,.59,2.32,1.9,1.9,0,0,0,1.52.69,1.75,1.75,0,0,0,1.19-.44A2.54,2.54,0,0,0,357.71,21.14Z" transform="translate(-0.88 -1.56)"/><path d="M360.53,20.05a5.45,5.45,0,0,1,.39-2.2,4.1,4.1,0,0,1,.8-1.18,3.23,3.23,0,0,1,1.11-.77,4.66,4.66,0,0,1,1.85-.34,4,4,0,0,1,3,1.18A4.53,4.53,0,0,1,368.86,20a4.49,4.49,0,0,1-1.13,3.25,4,4,0,0,1-3,1.17,4.05,4.05,0,0,1-3-1.17A4.41,4.41,0,0,1,360.53,20.05Zm1.78-.05a3.21,3.21,0,0,0,.67,2.21,2.2,2.2,0,0,0,1.71.75,2.17,2.17,0,0,0,1.7-.75,3.31,3.31,0,0,0,.67-2.24,3.23,3.23,0,0,0-.65-2.2,2.39,2.39,0,0,0-3.45,0A3.24,3.24,0,0,0,362.31,20Z" transform="translate(-0.88 -1.56)"/><path d="M370.19,24.3V15.71h2.6l1.56,5.86,1.54-5.86h2.6V24.3h-1.61V17.54l-1.71,6.76H373.5l-1.7-6.76V24.3Z" transform="translate(-0.88 -1.56)"/><path d="M380.21,15.71h3.43a11,11,0,0,1,1.52.08,2.14,2.14,0,0,1,1.56,1.07,1.89,1.89,0,0,1,.26,1,2,2,0,0,1-.33,1.11,2,2,0,0,1-.88.76,2.25,2.25,0,0,1,1.21.78,2.08,2.08,0,0,1,.42,1.29,2.58,2.58,0,0,1-.27,1.14,2.28,2.28,0,0,1-.74.88,2.43,2.43,0,0,1-1.16.41c-.29,0-1,.05-2.09.06h-2.92V15.71ZM382,17.14v2h1.14q1,0,1.26,0a1.17,1.17,0,0,0,.7-.31.9.9,0,0,0,.25-.67.93.93,0,0,0-.22-.65,1,1,0,0,0-.65-.3c-.17,0-.67,0-1.48,0Zm0,3.41v2.3h1.61a8.92,8.92,0,0,0,1.19-.05,1.08,1.08,0,0,0,.63-.34,1.05,1.05,0,0,0,.24-.73,1,1,0,0,0-.73-1.05,6,6,0,0,0-1.54-.12H382Z" transform="translate(-0.88 -1.56)"/><path d="M388.82,24.3V15.71h1.73V24.3Z" transform="translate(-0.88 -1.56)"/><path d="M392.23,24.3V15.71h1.69l3.52,5.74V15.71h1.61V24.3h-1.74l-3.46-5.6v5.6Z" transform="translate(-0.88 -1.56)"/><path d="M400.87,24.3V15.71h6.37v1.45h-4.63v1.9h4.31v1.45h-4.31v2.34h4.8V24.3Z" transform="translate(-0.88 -1.56)"/><path d="M408.87,15.71H412a6.15,6.15,0,0,1,1.63.16,2.83,2.83,0,0,1,1.29.79,3.91,3.91,0,0,1,.82,1.39,6.3,6.3,0,0,1,.28,2,5.81,5.81,0,0,1-.26,1.83,3.78,3.78,0,0,1-.92,1.52,3.18,3.18,0,0,1-1.22.69,5.27,5.27,0,0,1-1.54.18h-3.26V15.71Zm1.74,1.45v5.69h1.29a5.15,5.15,0,0,0,1.05-.08,1.61,1.61,0,0,0,.7-.36,1.7,1.7,0,0,0,.45-.83,5.88,5.88,0,0,0,.18-1.57,5.06,5.06,0,0,0-.18-1.53,2,2,0,0,0-.49-.83,1.64,1.64,0,0,0-.8-.4,8.4,8.4,0,0,0-1.42-.08h-.78Z" transform="translate(-0.88 -1.56)"/><path d="M420.88,24.3V15.71h3.65a6.39,6.39,0,0,1,2,.23,2,2,0,0,1,1,.82,2.47,2.47,0,0,1,.38,1.35,2.31,2.31,0,0,1-.57,1.6,2.75,2.75,0,0,1-1.7.79,4.16,4.16,0,0,1,.93.72,10,10,0,0,1,1,1.39l1.05,1.68h-2.07l-1.25-1.87a12.9,12.9,0,0,0-.91-1.26,1.44,1.44,0,0,0-.52-.36,2.63,2.63,0,0,0-.87-.1h-.35v3.59h-1.76Zm1.74-5h1.28a6.59,6.59,0,0,0,1.56-.11,1,1,0,0,0,.49-.36,1.1,1.1,0,0,0,.18-.64,1,1,0,0,0-.88-1c-.14,0-.56,0-1.27,0h-1.35v2.18Z" transform="translate(-0.88 -1.56)"/><path d="M431.48,24.3V17.16h-2.55V15.71h6.83v1.45h-2.54V24.3Z" transform="translate(-0.88 -1.56)"/><path d="M436.82,24.3V15.71h1.73V24.3Z" transform="translate(-0.88 -1.56)"/><path d="M443.56,24.3V15.71h1.69l3.52,5.74V15.71h1.61V24.3h-1.74l-3.46-5.6v5.6Z" transform="translate(-0.88 -1.56)"/><path d="M451.86,20.05a5.45,5.45,0,0,1,.39-2.2,4.1,4.1,0,0,1,.8-1.18,3.23,3.23,0,0,1,1.11-.77,4.66,4.66,0,0,1,1.85-.34,4,4,0,0,1,3,1.18A4.53,4.53,0,0,1,460.19,20a4.49,4.49,0,0,1-1.13,3.25,4,4,0,0,1-3,1.17A4.05,4.05,0,0,1,453,23.27,4.41,4.41,0,0,1,451.86,20.05Zm1.78-.05a3.21,3.21,0,0,0,.67,2.21A2.2,2.2,0,0,0,456,23a2.17,2.17,0,0,0,1.7-.75,3.31,3.31,0,0,0,.67-2.24,3.23,3.23,0,0,0-.65-2.2,2.39,2.39,0,0,0-3.45,0A3.24,3.24,0,0,0,453.64,20Z" transform="translate(-0.88 -1.56)"/><path d="M461.49,24.3V15.71h1.73V24.3Z" transform="translate(-0.88 -1.56)"/><path d="M464.44,21.5l1.69-.16a2.06,2.06,0,0,0,.62,1.25A1.85,1.85,0,0,0,468,23a2,2,0,0,0,1.26-.35,1,1,0,0,0,.42-.83.78.78,0,0,0-.18-.52,1.43,1.43,0,0,0-.62-.37c-.2-.07-.67-.2-1.39-.38a4.7,4.7,0,0,1-2-.85,2.22,2.22,0,0,1-.79-1.73,2.19,2.19,0,0,1,.37-1.23,2.38,2.38,0,0,1,1.07-.87,4.26,4.26,0,0,1,1.69-.3,3.61,3.61,0,0,1,2.43.71,2.52,2.52,0,0,1,.86,1.89l-1.73.08a1.42,1.42,0,0,0-.48-.95,1.78,1.78,0,0,0-1.1-.29,2,2,0,0,0-1.18.31.63.63,0,0,0-.28.53.66.66,0,0,0,.26.52,4.48,4.48,0,0,0,1.59.57,8,8,0,0,1,1.87.62,2.42,2.42,0,0,1,.95.87,2.71,2.71,0,0,1-.07,2.75,2.45,2.45,0,0,1-1.16,1,4.84,4.84,0,0,1-1.87.31,3.71,3.71,0,0,1-2.5-.75A3.25,3.25,0,0,1,464.44,21.5Z" transform="translate(-0.88 -1.56)"/><path d="M472.88,24.3V15.71h6.37v1.45h-4.63v1.9h4.31v1.45h-4.31v2.34h4.8V24.3Z" transform="translate(-0.88 -1.56)"/><path d="M387.38,38.82h-1.13A11.59,11.59,0,0,1,384.88,36a9,9,0,0,1-.47-2.82A8.83,8.83,0,0,1,385,30a11.17,11.17,0,0,1,1.28-2.42h1.12a17.1,17.1,0,0,0-1.1,3,11.37,11.37,0,0,0-.12,4.61,12.84,12.84,0,0,0,.49,1.92C386.8,37.5,387,38.08,387.38,38.82Z" transform="translate(-0.88 -1.56)"/><path d="M390.85,36.3l-3.07-8.59h1.88l2.17,6.36,2.1-6.36h1.84l-3.08,8.59Z" transform="translate(-0.88 -1.56)"/><path d="M401.23,39.3h-1.37V36.65a4.06,4.06,0,0,0-.09-1.09.7.7,0,0,0-.29-.38A.85.85,0,0,0,399,35a1,1,0,0,0-.64.2,1,1,0,0,0-.39.52,4.55,4.55,0,0,0-.1,1.19V39.3H396.5V34.11h1.27v.76a2.14,2.14,0,0,1,2.54-.72,1.42,1.42,0,0,1,.57.42,1.47,1.47,0,0,1,.27.58,4.27,4.27,0,0,1,.08.92V39.3Z" transform="translate(-0.88 -1.56)"/><path d="M402.62,33.41V32.14H404v1.27Zm0,5.89V34.11H404V39.3Z" transform="translate(-0.88 -1.56)"/><path d="M405.36,37.92h1.37v1a3.36,3.36,0,0,1-.1.94,1.42,1.42,0,0,1-.39.62,1.94,1.94,0,0,1-.73.43l-.27-.57a1,1,0,0,0,.78-1h-.66V37.92Z" transform="translate(-0.88 -1.56)"/><path d="M412.57,39.3V33.35h-2.12V32.14h5.69v1.21H414V39.3Z" transform="translate(-0.88 -1.56)"/><path d="M416.78,35.76a4.55,4.55,0,0,1,.33-1.84,3.23,3.23,0,0,1,.67-1,2.82,2.82,0,0,1,.93-.64,3.92,3.92,0,0,1,1.54-.28,3.37,3.37,0,0,1,2.53,1,3.76,3.76,0,0,1,1,2.73,3.72,3.72,0,0,1-.94,2.71,3.77,3.77,0,0,1-5.06,0A3.71,3.71,0,0,1,416.78,35.76Zm1.49,0a2.7,2.7,0,0,0,.56,1.84,1.94,1.94,0,0,0,2.85,0,2.73,2.73,0,0,0,.55-1.87,2.71,2.71,0,0,0-.54-1.84,1.81,1.81,0,0,0-1.43-.61,1.83,1.83,0,0,0-1.44.61A2.77,2.77,0,0,0,418.27,35.71Z" transform="translate(-0.88 -1.56)"/><path d="M426.46,39.3V33.35h-2.12V32.14H430v1.21h-2.12V39.3Z" transform="translate(-0.88 -1.56)"/><path d="M437.41,39.3h-1.57l-.62-1.63h-2.86l-.59,1.63h-1.53L433,32.14h1.53Zm-2.66-2.84-1-2.66-1,2.66Z" transform="translate(-0.88 -1.56)"/><path d="M438.22,39.3V32.2h1.45v5.89h3.59V39.3Z" transform="translate(-0.88 -1.56)"/><path d="M444,38.82c.32-.7.55-1.23.69-1.6a10,10,0,0,0,.37-1.28,12.63,12.63,0,0,0,.25-1.38,11.76,11.76,0,0,0,.08-1.34,11.24,11.24,0,0,0-.3-2.64,17.94,17.94,0,0,0-1.1-3h1.12a10.55,10.55,0,0,1,1.37,2.67,8.88,8.88,0,0,1,.49,2.87,9.73,9.73,0,0,1-.39,2.62,11,11,0,0,1-1.45,3.1Z" transform="translate(-0.88 -1.56)"/><path d="M495,207v-8.59h3.65a6.39,6.39,0,0,1,2,.23,2,2,0,0,1,1,.82,2.47,2.47,0,0,1,.38,1.35,2.31,2.31,0,0,1-.57,1.6,2.75,2.75,0,0,1-1.7.79,4.16,4.16,0,0,1,.93.72,10,10,0,0,1,1,1.39l1.05,1.68h-2.07l-1.25-1.87a12.9,12.9,0,0,0-.91-1.26,1.44,1.44,0,0,0-.52-.36,2.63,2.63,0,0,0-.87-.1h-.35v3.59H495Zm1.74-5H498a6.59,6.59,0,0,0,1.56-.11,1,1,0,0,0,.49-.36,1.1,1.1,0,0,0,.18-.64,1,1,0,0,0-.88-1c-.14,0-.56,0-1.27,0h-1.35V202Z" transform="translate(-0.88 -1.56)"/><path d="M506.73,210h-1.37v-5.17a4.64,4.64,0,0,1-1.77,1v-1.25a4,4,0,0,0,1.17-.67,2.49,2.49,0,0,0,.86-1.15h1.11Z" transform="translate(-0.88 -1.56)"/><line x1="416.89" y1="236.4" x2="431.91" y2="236.4" fill="none" stroke="#000" stroke-miterlimit="14.3" stroke-width="1.5"/><line x1="429.79" y1="239.51" x2="419" y2="239.5" fill="none" stroke="#000" stroke-miterlimit="14.3" stroke-width="1.5"/><line x1="427.03" y1="242.61" x2="421.76" y2="242.61" fill="none" stroke="#000" stroke-miterlimit="14.3" stroke-width="1.5"/><polygon points="425.54 203.58 425.54 219.43 423.03 218.54 423.03 202.24 425.54 203.58" fill="#fff"/><polyline points="424.42 220.4 424.42 219.67 421.95 218.35 426.88 215.47 421.93 212.51 426.88 209.59 421.95 206.75 426.88 203.84 424.41 202.31 424.41 201.74" fill="none" stroke="#000" stroke-miterlimit="14.3" stroke-width="1.5"/><path d="M413.83,83.4a10.67,10.67,0,1,1,10.58-10.67A10.67,10.67,0,0,1,413.83,83.4Z" transform="translate(-0.88 -1.56)" fill="#fff" stroke="#000" stroke-miterlimit="14.3" stroke-width="1.5"/><path d="M417.75,76.45V74.22H415.5V72.68h2.25V70.45h1.5v2.23h2.26v1.54h-2.26v2.23Z" transform="translate(-0.88 -1.56)"/><path d="M406.21,73.75V72.52h6.67v1.23Z" transform="translate(-0.88 -1.56)"/><line x1="402.14" y1="71.76" x2="387.3" y2="71.76" fill="none" stroke="#000" stroke-width="1.5"/><path d="M428.15,190.77h0a2.88,2.88,0,1,0-2.88,2.81,2.84,2.84,0,0,0,2.88-2.81Z" transform="translate(-0.88 -1.56)" stroke="#000" stroke-miterlimit="14.3"/><polygon points="508.4 190.36 492.55 190.36 493.44 187.84 509.74 187.84 508.4 190.36" fill="#fff"/><polyline points="491.58 189.23 492.31 189.23 493.63 186.77 496.51 191.7 499.47 186.74 502.39 191.7 505.22 186.77 508.14 191.7 509.67 189.22 510.24 189.22" fill="none" stroke="#000" stroke-miterlimit="14.3" stroke-width="1.5"/><rect x="398" y="44.19" width="31" height="47" fill="none" stroke="#aaa"/><line x1="305.34" y1="112.86" x2="345.34" y2="112.86" fill="none" stroke="#000" stroke-width="2"/><polygon points="342.9 116.39 356.23 112.81 342.9 109.24 342.9 116.39"/></svg>