<svg id="af1e8dad-074f-49af-8f63-42985e49a591" data-name="Layer 1" xmlns="http://www.w3.org/2000/svg" width="2.89in" height="2.79in" viewBox="0 0 207.86 201.15"><title>07053-001</title><polygon points="53.92 1.24 53.92 138 183.54 69.65 53.92 1.24" fill="none" stroke="#000" stroke-width="1.5"/><path d="M97.54,90.78V89h1.92v1.78Zm0,8.24V91.76h1.92V99Z" transform="translate(0 -1.9)"/><path d="M105.86,102h-1.37V99.37a4.06,4.06,0,0,0-.09-1.09.7.7,0,0,0-.29-.38.85.85,0,0,0-.48-.14,1,1,0,0,0-.64.2,1,1,0,0,0-.39.52,4.55,4.55,0,0,0-.1,1.19V102h-1.37V96.83h1.27v.76a2.14,2.14,0,0,1,2.54-.72,1.42,1.42,0,0,1,.57.42,1.47,1.47,0,0,1,.27.58,4.27,4.27,0,0,1,.08.92Z" transform="translate(0 -1.9)"/><path d="M99.15,44.2V42.42h1.92V44.2Zm0,8.25V45.19h1.92v7.26Z" transform="translate(0 -1.9)"/><path d="M107.47,55.45H106.1V52.8a4.06,4.06,0,0,0-.09-1.09.7.7,0,0,0-.29-.38.85.85,0,0,0-.48-.14,1,1,0,0,0-.64.2,1,1,0,0,0-.39.52,4.55,4.55,0,0,0-.1,1.19v2.35h-1.37V50.26H104V51a2.14,2.14,0,0,1,2.54-.72,1.42,1.42,0,0,1,.57.42,1.47,1.47,0,0,1,.27.58,4.27,4.27,0,0,1,.08.92Z" transform="translate(0 -1.9)"/><line x1="7.51" y1="28.31" x2="7.51" y2="83.22" fill="none" stroke="#000" stroke-width="1.5"/><line x1="43.93" y1="146.6" x2="198.21" y2="146.6" fill="none" stroke="#000" stroke-width="1.5"/><polyline points="182.62 69.8 197.57 69.8 197.57 147.31" fill="none" stroke="#000" stroke-width="1.5"/><path d="M30.75,9.7l1.91.32a3.09,3.09,0,0,1-1.17,1.6,3.41,3.41,0,0,1-2,.55,3.23,3.23,0,0,1-2.8-1.24A4.13,4.13,0,0,1,26,8.43a4,4,0,0,1,.94-2.83,3.11,3.11,0,0,1,2.39-1,3.25,3.25,0,0,1,2.56,1.07,4.8,4.8,0,0,1,.9,3.28H28a2,2,0,0,0,.46,1.33,1.45,1.45,0,0,0,1.11.48,1.16,1.16,0,0,0,.76-.25A1.51,1.51,0,0,0,30.75,9.7Zm.11-1.94a1.85,1.85,0,0,0-.43-1.27,1.39,1.39,0,0,0-2,0A1.77,1.77,0,0,0,28,7.76Z" transform="translate(0 -1.9)"/><path d="M38.76,15H37.39V12.36a4.06,4.06,0,0,0-.09-1.09.7.7,0,0,0-.29-.38.85.85,0,0,0-.48-.14,1,1,0,0,0-.64.2,1,1,0,0,0-.39.52,4.55,4.55,0,0,0-.1,1.19V15H34V9.83H35.3v.76a2.14,2.14,0,0,1,2.54-.72,1.42,1.42,0,0,1,.57.42,1.47,1.47,0,0,1,.27.58,4.27,4.27,0,0,1,.08.92Z" transform="translate(0 -1.9)"/><path d="M15.59,63.22V54.63h3.65a6.39,6.39,0,0,1,2,.23,2,2,0,0,1,1,.82A2.47,2.47,0,0,1,22.62,57a2.31,2.31,0,0,1-.57,1.6,2.75,2.75,0,0,1-1.7.79,4.16,4.16,0,0,1,.93.72,10,10,0,0,1,1,1.39l1.05,1.68H21.25L20,61.34a12.9,12.9,0,0,0-.91-1.26,1.44,1.44,0,0,0-.52-.36,2.63,2.63,0,0,0-.87-.1h-.35v3.59H15.59Zm1.73-5H18.6a6.59,6.59,0,0,0,1.56-.11,1,1,0,0,0,.49-.36,1.1,1.1,0,0,0,.18-.64,1,1,0,0,0-.88-1c-.14,0-.56,0-1.27,0H17.33v2.18Z" transform="translate(0 -1.9)"/><path d="M23.74,63.89l1.41-.14a1.69,1.69,0,0,0,.52,1,1.91,1.91,0,0,0,2.1,0,.9.9,0,0,0,.35-.69A.64.64,0,0,0,28,63.7a1.19,1.19,0,0,0-.52-.31c-.17-.06-.56-.16-1.16-.31a3.91,3.91,0,0,1-1.63-.71A1.85,1.85,0,0,1,24,60.93a1.8,1.8,0,0,1,.31-1,2,2,0,0,1,.89-.73,3.52,3.52,0,0,1,1.41-.25,3.05,3.05,0,0,1,2,.59,2.09,2.09,0,0,1,.72,1.58l-1.45.06a1.17,1.17,0,0,0-.4-.79,1.49,1.49,0,0,0-.92-.24,1.69,1.69,0,0,0-1,.26.53.53,0,0,0-.23.44.54.54,0,0,0,.21.43,3.87,3.87,0,0,0,1.33.48,7,7,0,0,1,1.56.52,2,2,0,0,1,.79.73,2.14,2.14,0,0,1,.29,1.14,2.1,2.1,0,0,1-1.31,2,4,4,0,0,1-1.56.26,3.08,3.08,0,0,1-2.08-.63A2.71,2.71,0,0,1,23.74,63.89Z" transform="translate(0 -1.9)"/><polyline points="43.9 28.85 80.94 28.85 80.94 34.43" fill="none" stroke="#000" stroke-width="1.5"/><polyline points="43.9 78.64 80.94 78.64 80.94 84.22" fill="none" stroke="#000" stroke-width="1.5"/><line y1="82.99" x2="15.02" y2="82.99" fill="none" stroke="#000" stroke-miterlimit="14.3" stroke-width="1.5"/><line x1="12.91" y1="86.09" x2="2.11" y2="86.09" fill="none" stroke="#000" stroke-miterlimit="14.3" stroke-width="1.5"/><line x1="10.15" y1="89.2" x2="4.87" y2="89.2" fill="none" stroke="#000" stroke-miterlimit="14.3" stroke-width="1.5"/><polygon points="8.63 50.16 8.63 66.01 6.12 65.12 6.12 48.82 8.63 50.16" fill="#fff"/><polyline points="7.51 66.98 7.51 66.25 5.04 64.93 9.97 62.05 5.01 59.09 9.97 56.17 5.04 53.34 9.97 50.42 7.5 48.89 7.5 48.32" fill="none" stroke="#000" stroke-miterlimit="14.3" stroke-width="1.5"/><line x1="44.24" y1="78.53" x2="44.24" y2="194.03" fill="none" stroke="#000" stroke-width="1.5"/><path d="M52.52,174v-8.59h3.65a6.39,6.39,0,0,1,2,.23,2,2,0,0,1,1,.82,2.47,2.47,0,0,1,.38,1.35,2.31,2.31,0,0,1-.57,1.6,2.75,2.75,0,0,1-1.7.79,4.16,4.16,0,0,1,.93.72,10,10,0,0,1,1,1.39l1,1.68H58.18l-1.25-1.87a12.9,12.9,0,0,0-.91-1.26,1.44,1.44,0,0,0-.52-.36,2.63,2.63,0,0,0-.87-.1h-.35V174H52.52Zm1.74-4.95h1.28A6.59,6.59,0,0,0,57.1,169a1,1,0,0,0,.49-.36,1.1,1.1,0,0,0,.18-.64,1,1,0,0,0-.88-1c-.14,0-.56,0-1.27,0H54.27v2.18Z" transform="translate(0 -1.9)"/><path d="M65.37,175.76V177H60.56a3.29,3.29,0,0,1,.47-1.37,9.25,9.25,0,0,1,1.54-1.72,10.45,10.45,0,0,0,1.14-1.17,1.48,1.48,0,0,0,.28-.84,1,1,0,0,0-.25-.71,1,1,0,0,0-1.36,0,1.29,1.29,0,0,0-.29.86L60.72,172a2.24,2.24,0,0,1,.77-1.63,2.57,2.57,0,0,1,1.61-.49,2.35,2.35,0,0,1,1.67.57,1.85,1.85,0,0,1,.61,1.42,2.59,2.59,0,0,1-.17.92,3.66,3.66,0,0,1-.55.92,9.07,9.07,0,0,1-.9.91c-.43.39-.71.66-.82.79a2.82,2.82,0,0,0-.28.38h2.71Z" transform="translate(0 -1.9)"/><path d="M114,164.68v-8.59h3.65a6.39,6.39,0,0,1,2,.23,2,2,0,0,1,1,.82,2.47,2.47,0,0,1,.38,1.35,2.31,2.31,0,0,1-.57,1.6,2.75,2.75,0,0,1-1.7.79,4.16,4.16,0,0,1,.93.72,10,10,0,0,1,1,1.39l1,1.68h-2.07l-1.25-1.87a12.9,12.9,0,0,0-.91-1.26,1.44,1.44,0,0,0-.52-.36,2.63,2.63,0,0,0-.87-.1h-.35v3.59H114Zm1.73-5H117a6.59,6.59,0,0,0,1.56-.11,1,1,0,0,0,.49-.36,1.1,1.1,0,0,0,.18-.64,1,1,0,0,0-.88-1c-.14,0-.56,0-1.27,0h-1.35v2.18Z" transform="translate(0 -1.9)"/><path d="M125.7,167.68h-1.37v-5.17a4.64,4.64,0,0,1-1.77,1V162.3a4,4,0,0,0,1.17-.67,2.49,2.49,0,0,0,.86-1.15h1.11Z" transform="translate(0 -1.9)"/><line x1="36.73" y1="193.8" x2="51.75" y2="193.8" fill="none" stroke="#000" stroke-miterlimit="14.3" stroke-width="1.5"/><line x1="49.64" y1="196.9" x2="38.84" y2="196.9" fill="none" stroke="#000" stroke-miterlimit="14.3" stroke-width="1.5"/><line x1="46.88" y1="200.01" x2="41.6" y2="200.01" fill="none" stroke="#000" stroke-miterlimit="14.3" stroke-width="1.5"/><polygon points="45.39 160.97 45.39 176.82 42.88 175.93 42.88 159.63 45.39 160.97" fill="#fff"/><polyline points="44.27 177.79 44.27 177.06 41.8 175.74 46.73 172.87 41.77 169.9 46.73 166.98 41.8 164.15 46.73 161.23 44.26 159.71 44.26 159.13" fill="none" stroke="#000" stroke-miterlimit="14.3" stroke-width="1.5"/><line x1="81.2" y1="107.85" x2="81.2" y2="104.64" fill="none" stroke="#000" stroke-miterlimit="14.3" stroke-width="1.5"/><path d="M32.79,41.13A10.67,10.67,0,1,1,43.37,30.46,10.67,10.67,0,0,1,32.79,41.13Z" transform="translate(0 -1.9)" fill="#fff" stroke="#000" stroke-miterlimit="14.3" stroke-width="1.5"/><polygon points="74.32 107.85 88.07 107.88 81.13 118.89 74.32 107.85" fill="#fff" stroke="#000" stroke-width="1.5" fill-rule="evenodd"/><line x1="81.2" y1="58.87" x2="81.2" y2="55.66" fill="none" stroke="#000" stroke-miterlimit="14.3" stroke-width="1.5"/><path d="M80.92,57.42A10.67,10.67,0,1,1,91.5,46.75,10.67,10.67,0,0,1,80.92,57.42Z" transform="translate(0 -1.9)" fill="#fff" stroke="#000" stroke-miterlimit="14.3" stroke-width="1.5"/><polygon points="81.1 39.16 78.46 46.45 83.71 46.45 81.1 39.16" stroke="#000" stroke-miterlimit="14.3" stroke-width="1.5"/><line x1="81.04" y1="44.11" x2="81.04" y2="52.07" fill="none" stroke="#000" stroke-miterlimit="14.3" stroke-width="1.5"/><path d="M80.92,106.86A10.67,10.67,0,1,1,91.5,96.19a10.67,10.67,0,0,1-10.58,10.67Z" transform="translate(0 -1.9)" fill="#fff" stroke="#000" stroke-miterlimit="14.3" stroke-width="1.5"/><polygon points="81.1 88.6 78.46 95.89 83.71 95.89 81.1 88.6" stroke="#000" stroke-miterlimit="14.3" stroke-width="1.5"/><line x1="81.04" y1="93.55" x2="81.04" y2="101.5" fill="none" stroke="#000" stroke-miterlimit="14.3" stroke-width="1.5"/><polygon points="74.32 58.87 88.07 58.89 81.13 69.91 74.32 58.87" fill="#fff" stroke="#000" stroke-width="1.5" fill-rule="evenodd"/><path d="M60.07,41.06V38.83H57.82V37.29h2.25V35.06h1.5v2.23h2.26v1.54H61.57v2.23Z" transform="translate(0 -1.9)"/><path d="M57.3,87.18V86H64v1.23Z" transform="translate(0 -1.9)"/><path d="M36.72,34.19V32H34.47V30.42h2.25V28.19h1.5v2.23h2.26V32H38.22v2.23Z" transform="translate(0 -1.9)"/><path d="M25.18,31.49V30.26h6.67v1.23Z" transform="translate(0 -1.9)"/><line x1="21.99" y1="29.16" x2="7.14" y2="29.16" fill="none" stroke="#000" stroke-width="1.5"/><path d="M47.11,148.5h0a2.88,2.88,0,1,0-2.88,2.81,2.84,2.84,0,0,0,2.88-2.81Z" transform="translate(0 -1.9)" stroke="#000" stroke-miterlimit="14.3"/><polygon points="128.25 147.75 112.4 147.75 113.29 145.24 129.59 145.24 128.25 147.75" fill="#fff"/><polyline points="111.43 146.63 112.15 146.63 113.47 144.16 116.35 149.09 119.31 144.13 122.24 149.09 125.07 144.16 127.99 149.09 129.51 146.62 130.08 146.62" fill="none" stroke="#000" stroke-miterlimit="14.3" stroke-width="1.5"/><path d="M204.92,203.05a5.16,5.16,0,0,1-1.63-.21,2.14,2.14,0,0,1-1-.62,1.55,1.55,0,0,1-.34-1,1.62,1.62,0,0,1,.19-.81,1.55,1.55,0,0,1,.54-.57,3.15,3.15,0,0,1,.85-.36,5.43,5.43,0,0,1,1.35-.13,5.25,5.25,0,0,1,1.63.21,2,2,0,0,1,1,.62,1.74,1.74,0,0,1-.25,2.34A3.81,3.81,0,0,1,204.92,203.05Zm0-.72a3.6,3.6,0,0,0,1.88-.33.93.93,0,0,0,0-1.62,5.52,5.52,0,0,0-3.76,0,1,1,0,0,0-.46.82.9.9,0,0,0,.41.77A3.62,3.62,0,0,0,204.92,202.33Z" transform="translate(0 -1.9)"/><path d="M202.77,198.56h-.68v-3.71h.55a7.56,7.56,0,0,0,1.55,1.08,10.27,10.27,0,0,0,2,.83,7.45,7.45,0,0,0,1.57.27v.72a7.13,7.13,0,0,1-1.63-.27,8.58,8.58,0,0,1-1.85-.73,7.83,7.83,0,0,1-1.5-1v2.82Z" transform="translate(0 -1.9)"/><path d="M204.92,194.15a5.16,5.16,0,0,1-1.63-.21,2.14,2.14,0,0,1-1-.62,1.55,1.55,0,0,1-.34-1,1.62,1.62,0,0,1,.19-.81,1.55,1.55,0,0,1,.54-.57,3.15,3.15,0,0,1,.85-.36,5.43,5.43,0,0,1,1.35-.13,5.25,5.25,0,0,1,1.63.21,2,2,0,0,1,1,.62,1.74,1.74,0,0,1-.25,2.34A3.75,3.75,0,0,1,204.92,194.15Zm0-.72a3.6,3.6,0,0,0,1.88-.33.93.93,0,0,0,0-1.62,5.52,5.52,0,0,0-3.76,0,1,1,0,0,0-.46.82.9.9,0,0,0,.41.77A3.62,3.62,0,0,0,204.92,193.43Z" transform="translate(0 -1.9)"/><path d="M206.24,189.71l-.06-.74a1.29,1.29,0,0,0,.81-.38,1,1,0,0,0,.27-.72,1.15,1.15,0,0,0-.38-.86,1.41,1.41,0,0,0-1-.35,1.29,1.29,0,0,0-1,.34,1.19,1.19,0,0,0-.35.88,1.23,1.23,0,0,0,.15.61,1.19,1.19,0,0,0,.4.43l-.09.66-2.94-.55v-2.85h.67v2.29l1.54.31a1.84,1.84,0,0,1-.36-1.08,1.72,1.72,0,0,1,.52-1.27,1.8,1.8,0,0,1,1.34-.52,2.07,2.07,0,0,1,1.34.45,1.83,1.83,0,0,1,.7,1.5,1.88,1.88,0,0,1-.44,1.28A1.68,1.68,0,0,1,206.24,189.71Z" transform="translate(0 -1.9)"/><path d="M206.23,185.25l-.09-.7a1.54,1.54,0,0,0,.86-.41,1,1,0,0,0,.26-.71,1.16,1.16,0,0,0-1.19-1.18,1.08,1.08,0,0,0-1.11,1.12,2.21,2.21,0,0,0,.08.5l-.62-.08a.49.49,0,0,0,0-.11,1.5,1.5,0,0,0-.23-.81.8.8,0,0,0-.72-.36.87.87,0,0,0-.64.26.92.92,0,0,0-.25.68,1,1,0,0,0,.26.68,1.29,1.29,0,0,0,.77.35l-.12.7a1.82,1.82,0,0,1-1.1-.59,1.7,1.7,0,0,1-.39-1.14,1.91,1.91,0,0,1,.2-.86,1.46,1.46,0,0,1,.55-.6,1.41,1.41,0,0,1,.74-.21,1.26,1.26,0,0,1,.68.2,1.3,1.3,0,0,1,.48.59,1.33,1.33,0,0,1,.49-.79,1.46,1.46,0,0,1,.92-.28,1.67,1.67,0,0,1,1.27.55,1.93,1.93,0,0,1,.52,1.38,1.79,1.79,0,0,1-.45,1.25A1.75,1.75,0,0,1,206.23,185.25Z" transform="translate(0 -1.9)"/><path d="M206,180.88h-.71v-2.16H206Z" transform="translate(0 -1.9)"/><path d="M204.92,178.14a5.16,5.16,0,0,1-1.63-.21,2.14,2.14,0,0,1-1-.62,1.55,1.55,0,0,1-.34-1,1.62,1.62,0,0,1,.19-.81,1.55,1.55,0,0,1,.54-.57,3.15,3.15,0,0,1,.85-.36,5.43,5.43,0,0,1,1.35-.13,5.25,5.25,0,0,1,1.63.21,2,2,0,0,1,1,.62,1.74,1.74,0,0,1-.25,2.34A3.81,3.81,0,0,1,204.92,178.14Zm0-.72a3.6,3.6,0,0,0,1.88-.33.93.93,0,0,0,0-1.62,5.52,5.52,0,0,0-3.76,0,1,1,0,0,0-.46.82.9.9,0,0,0,.41.77A3.62,3.62,0,0,0,204.92,177.42Z" transform="translate(0 -1.9)"/><path d="M204.92,173.69a5.16,5.16,0,0,1-1.63-.21,2.14,2.14,0,0,1-1-.62,1.55,1.55,0,0,1-.34-1,1.62,1.62,0,0,1,.19-.81,1.55,1.55,0,0,1,.54-.57,3.15,3.15,0,0,1,.85-.36,5.43,5.43,0,0,1,1.35-.13,5.25,5.25,0,0,1,1.63.21,2,2,0,0,1,1,.62,1.74,1.74,0,0,1-.25,2.34A3.81,3.81,0,0,1,204.92,173.69Zm0-.72a3.6,3.6,0,0,0,1.88-.33.93.93,0,0,0,0-1.62,5.52,5.52,0,0,0-3.76,0,1,1,0,0,0-.46.82.9.9,0,0,0,.41.77A3.62,3.62,0,0,0,204.92,173Z" transform="translate(0 -1.9)"/><path d="M207.74,166.6v.7h-4.48a3.52,3.52,0,0,1,.48.67,4.92,4.92,0,0,1,.36.74h-.68a4.46,4.46,0,0,0-.67-1,2.59,2.59,0,0,0-.77-.62v-.45h5.76Z" transform="translate(0 -1.9)"/></svg>