<svg id="b099808d-9205-440e-999d-162e5c713a90" data-name="Layer 1" xmlns="http://www.w3.org/2000/svg" width="4.01in" height="3.5in" viewBox="0 0 288.63 252.17"><title>07053-008</title><polygon points="136.95 32.15 136.95 168.91 266.58 100.57 136.95 32.15" fill="none" stroke="#000" stroke-width="1.5"/><line x1="84.54" y1="59.22" x2="84.54" y2="114.14" fill="none" stroke="#000" stroke-width="1.5"/><line x1="126.96" y1="177.52" x2="281.24" y2="177.52" fill="none" stroke="#000" stroke-width="1.5"/><polyline points="265.65 100.72 280.61 100.72 280.61 178.23" fill="none" stroke="#000" stroke-width="1.5"/><path d="M87.89,10.3V1.71h1.69L93.1,7.45V1.71h1.61V10.3H93L89.51,4.7v5.6Z" transform="translate(-0.43 -1.56)"/><path d="M96.19,6.05a5.45,5.45,0,0,1,.39-2.2,4.1,4.1,0,0,1,.8-1.18,3.23,3.23,0,0,1,1.11-.77,4.66,4.66,0,0,1,1.85-.34,4,4,0,0,1,3,1.18A4.53,4.53,0,0,1,104.52,6a4.49,4.49,0,0,1-1.13,3.25,4,4,0,0,1-3,1.17,4.05,4.05,0,0,1-3.05-1.17A4.41,4.41,0,0,1,96.19,6.05ZM98,6a3.21,3.21,0,0,0,.67,2.21,2.2,2.2,0,0,0,1.71.75,2.17,2.17,0,0,0,1.7-.75A3.31,3.31,0,0,0,102.72,6a3.23,3.23,0,0,0-.65-2.2,2.39,2.39,0,0,0-3.45,0A3.24,3.24,0,0,0,98,6Z" transform="translate(-0.43 -1.56)"/><path d="M105.82,10.3V1.71h1.73V10.3Z" transform="translate(-0.43 -1.56)"/><path d="M108.77,7.5l1.69-.16a2.06,2.06,0,0,0,.62,1.25,1.85,1.85,0,0,0,1.26.4,2,2,0,0,0,1.26-.35,1,1,0,0,0,.42-.83.78.78,0,0,0-.18-.52,1.43,1.43,0,0,0-.62-.37c-.2-.07-.67-.2-1.39-.38a4.7,4.7,0,0,1-2-.85A2.22,2.22,0,0,1,109.08,4a2.19,2.19,0,0,1,.37-1.23,2.38,2.38,0,0,1,1.07-.87,4.26,4.26,0,0,1,1.69-.3,3.61,3.61,0,0,1,2.43.71,2.52,2.52,0,0,1,.86,1.89l-1.73.08a1.42,1.42,0,0,0-.48-1,1.78,1.78,0,0,0-1.1-.29,2,2,0,0,0-1.18.31.63.63,0,0,0-.28.53.66.66,0,0,0,.26.52,4.48,4.48,0,0,0,1.59.57,8,8,0,0,1,1.87.62,2.42,2.42,0,0,1,1,.87,2.56,2.56,0,0,1,.34,1.37,2.56,2.56,0,0,1-.41,1.38,2.45,2.45,0,0,1-1.16,1,4.84,4.84,0,0,1-1.87.31,3.71,3.71,0,0,1-2.5-.75A3.25,3.25,0,0,1,108.77,7.5Z" transform="translate(-0.43 -1.56)"/><path d="M117.21,10.3V1.71h6.37V3.16H119v1.9h4.31V6.51H119V8.85h4.8V10.3Z" transform="translate(-0.43 -1.56)"/><path d="M80.43,19.5l1.69-.16a2.06,2.06,0,0,0,.62,1.25A1.85,1.85,0,0,0,84,21a2,2,0,0,0,1.26-.35,1,1,0,0,0,.42-.83.78.78,0,0,0-.18-.52,1.43,1.43,0,0,0-.62-.37c-.2-.07-.67-.2-1.39-.38a4.7,4.7,0,0,1-2-.85A2.22,2.22,0,0,1,80.74,16a2.19,2.19,0,0,1,.37-1.23,2.38,2.38,0,0,1,1.07-.87,4.26,4.26,0,0,1,1.69-.3,3.61,3.61,0,0,1,2.43.71,2.52,2.52,0,0,1,.86,1.89l-1.73.08a1.42,1.42,0,0,0-.48-.95A1.75,1.75,0,0,0,83.86,15a2,2,0,0,0-1.18.31.63.63,0,0,0-.28.53.66.66,0,0,0,.26.52,4.48,4.48,0,0,0,1.59.57,8,8,0,0,1,1.87.62,2.42,2.42,0,0,1,.95.87A2.71,2.71,0,0,1,87,21.17a2.45,2.45,0,0,1-1.16,1,4.84,4.84,0,0,1-1.87.31,3.71,3.71,0,0,1-2.5-.75A3.3,3.3,0,0,1,80.43,19.5Z" transform="translate(-0.43 -1.56)"/><path d="M88.53,18.05a5.45,5.45,0,0,1,.39-2.2,4.1,4.1,0,0,1,.8-1.18,3.23,3.23,0,0,1,1.11-.77,4.66,4.66,0,0,1,1.85-.34,4,4,0,0,1,3,1.18A4.53,4.53,0,0,1,96.86,18a4.49,4.49,0,0,1-1.13,3.25,4,4,0,0,1-3,1.17,4.05,4.05,0,0,1-3-1.17A4.41,4.41,0,0,1,88.53,18.05ZM90.31,18A3.21,3.21,0,0,0,91,20.21a2.2,2.2,0,0,0,1.71.75,2.17,2.17,0,0,0,1.7-.75A3.31,3.31,0,0,0,95.06,18a3.23,3.23,0,0,0-.65-2.2,2.39,2.39,0,0,0-3.45,0A3.24,3.24,0,0,0,90.31,18Z" transform="translate(-0.43 -1.56)"/><path d="M98.2,13.71h1.73v4.65A10.44,10.44,0,0,0,100,19.8a1.4,1.4,0,0,0,.53.85,1.81,1.81,0,0,0,1.15.32,1.75,1.75,0,0,0,1.11-.3,1.19,1.19,0,0,0,.45-.74,9.62,9.62,0,0,0,.08-1.46V13.72H105v4.51a12,12,0,0,1-.14,2.19,2.37,2.37,0,0,1-.52,1.08,2.61,2.61,0,0,1-1,.7,4.45,4.45,0,0,1-1.65.26,4.8,4.8,0,0,1-1.87-.28,2.59,2.59,0,0,1-1-.74,2.47,2.47,0,0,1-.49-1,10.66,10.66,0,0,1-.17-2.18v-4.6Z" transform="translate(-0.43 -1.56)"/><path d="M106.88,22.3V13.71h3.65a6.39,6.39,0,0,1,2,.23,2,2,0,0,1,1,.82,2.47,2.47,0,0,1,.38,1.35,2.31,2.31,0,0,1-.57,1.6,2.75,2.75,0,0,1-1.7.79,4.16,4.16,0,0,1,.93.72,10,10,0,0,1,1,1.39l1,1.68h-2.07l-1.25-1.87a12.9,12.9,0,0,0-.91-1.26,1.44,1.44,0,0,0-.52-.36,2.63,2.63,0,0,0-.87-.1h-.35v3.59h-1.76Zm1.74-5h1.28a6.59,6.59,0,0,0,1.56-.11,1,1,0,0,0,.49-.36,1.1,1.1,0,0,0,.18-.64,1,1,0,0,0-.88-1c-.14,0-.56,0-1.27,0h-1.35v2.18Z" transform="translate(-0.43 -1.56)"/><path d="M121,19.14l1.68.53a3.8,3.8,0,0,1-1.29,2.09,3.63,3.63,0,0,1-2.28.68,3.68,3.68,0,0,1-2.81-1.17,4.49,4.49,0,0,1-1.1-3.2,4.68,4.68,0,0,1,1.11-3.33,3.81,3.81,0,0,1,2.91-1.19,3.58,3.58,0,0,1,2.56.93,3.43,3.43,0,0,1,.88,1.58l-1.72.41a1.73,1.73,0,0,0-.64-1,1.87,1.87,0,0,0-1.17-.39,2,2,0,0,0-1.55.69,3.35,3.35,0,0,0-.59,2.22,3.59,3.59,0,0,0,.59,2.32,1.9,1.9,0,0,0,1.52.69,1.75,1.75,0,0,0,1.19-.44A2.54,2.54,0,0,0,121,19.14Z" transform="translate(-0.43 -1.56)"/><path d="M124.21,22.3V13.71h6.37v1.45H126v1.9h4.31v1.45H126v2.34h4.8V22.3Z" transform="translate(-0.43 -1.56)"/><path d="M8.37,79.14l1.68.53a3.8,3.8,0,0,1-1.29,2.09,3.63,3.63,0,0,1-2.28.68,3.68,3.68,0,0,1-2.81-1.17,4.49,4.49,0,0,1-1.1-3.2,4.68,4.68,0,0,1,1.11-3.33,3.81,3.81,0,0,1,2.91-1.19,3.58,3.58,0,0,1,2.56.93A3.43,3.43,0,0,1,10,76.06l-1.72.41a1.73,1.73,0,0,0-.64-1A1.87,1.87,0,0,0,6.5,75,2,2,0,0,0,5,75.72a3.35,3.35,0,0,0-.59,2.22A3.59,3.59,0,0,0,5,80.26,1.9,1.9,0,0,0,6.47,81a1.75,1.75,0,0,0,1.19-.44A2.54,2.54,0,0,0,8.37,79.14Z" transform="translate(-0.43 -1.56)"/><path d="M19.28,82.3H17.4l-.75-2H13.22l-.72,2H10.66L14,73.71h1.83Zm-3.19-3.4-1.18-3.19L13.75,78.9Z" transform="translate(-0.43 -1.56)"/><path d="M19.76,79.5l1.69-.16a2.06,2.06,0,0,0,.62,1.25,1.85,1.85,0,0,0,1.26.4,2,2,0,0,0,1.26-.35,1,1,0,0,0,.42-.83.78.78,0,0,0-.18-.52,1.43,1.43,0,0,0-.62-.37c-.2-.07-.67-.2-1.39-.38a4.7,4.7,0,0,1-2-.85A2.22,2.22,0,0,1,20.07,76a2.19,2.19,0,0,1,.37-1.23,2.38,2.38,0,0,1,1.07-.87,4.26,4.26,0,0,1,1.69-.3,3.61,3.61,0,0,1,2.43.71,2.52,2.52,0,0,1,.86,1.89l-1.73.08a1.42,1.42,0,0,0-.48-.95A1.75,1.75,0,0,0,23.19,75a2,2,0,0,0-1.18.31.63.63,0,0,0-.28.53.66.66,0,0,0,.26.52,4.48,4.48,0,0,0,1.59.57,8,8,0,0,1,1.87.62,2.42,2.42,0,0,1,.95.87,2.71,2.71,0,0,1-.07,2.75,2.45,2.45,0,0,1-1.16,1,4.84,4.84,0,0,1-1.87.31,3.71,3.71,0,0,1-2.5-.75A3.3,3.3,0,0,1,19.76,79.5Z" transform="translate(-0.43 -1.56)"/><path d="M28.21,82.3V73.71h6.37v1.45H30v1.9h4.31v1.45H30v2.34h4.8V82.3Z" transform="translate(-0.43 -1.56)"/><path d="M43.39,82.3H41.74V76.09a5.69,5.69,0,0,1-2.13,1.25V75.85a4.75,4.75,0,0,0,1.4-.8,3.09,3.09,0,0,0,1-1.37h1.34Z" transform="translate(-0.43 -1.56)"/><path d="M46.52,77.72V76.07h1.65v1.65Zm0,4.58V80.65h1.65V82.3Z" transform="translate(-0.43 -1.56)"/><path d="M3.44,91.5l1.69-.16a2.06,2.06,0,0,0,.62,1.25A1.85,1.85,0,0,0,7,93a2,2,0,0,0,1.26-.35,1,1,0,0,0,.42-.83.78.78,0,0,0-.18-.52,1.43,1.43,0,0,0-.62-.37c-.2-.07-.67-.2-1.39-.38a4.7,4.7,0,0,1-2-.85A2.22,2.22,0,0,1,3.75,88a2.19,2.19,0,0,1,.37-1.23,2.38,2.38,0,0,1,1.07-.87,4.26,4.26,0,0,1,1.69-.3,3.61,3.61,0,0,1,2.43.71,2.52,2.52,0,0,1,.86,1.89l-1.73.08A1.42,1.42,0,0,0,8,87.29,1.78,1.78,0,0,0,6.86,87a2,2,0,0,0-1.18.31.63.63,0,0,0-.28.53.66.66,0,0,0,.26.52,4.48,4.48,0,0,0,1.59.57,8,8,0,0,1,1.87.62,2.42,2.42,0,0,1,1,.87A2.71,2.71,0,0,1,10,93.17a2.45,2.45,0,0,1-1.16,1A4.84,4.84,0,0,1,7,94.44a3.71,3.71,0,0,1-2.5-.75A3.25,3.25,0,0,1,3.44,91.5Z" transform="translate(-0.43 -1.56)"/><path d="M11.83,94.3V85.71h1.73V94.3Z" transform="translate(-0.43 -1.56)"/><path d="M19.21,91.14V89.69H23v3.42a4.74,4.74,0,0,1-1.58.93,5.7,5.7,0,0,1-2.09.4,4.67,4.67,0,0,1-2.35-.57,3.64,3.64,0,0,1-1.51-1.62,5.15,5.15,0,0,1-.5-2.29,5,5,0,0,1,.56-2.38A3.76,3.76,0,0,1,17.13,86a4.39,4.39,0,0,1,2.06-.43,4.08,4.08,0,0,1,2.5.67,3,3,0,0,1,1.16,1.85l-1.72.32a1.86,1.86,0,0,0-.68-1A2,2,0,0,0,19.2,87a2.36,2.36,0,0,0-1.81.72,3,3,0,0,0-.67,2.14,3.37,3.37,0,0,0,.68,2.29,2.26,2.26,0,0,0,1.78.76,3,3,0,0,0,1.09-.21,3.82,3.82,0,0,0,.94-.52V91.11h-2Z" transform="translate(-0.43 -1.56)"/><path d="M24.57,94.3V85.71h1.69l3.52,5.74V85.71h1.61V94.3H29.65l-3.46-5.6v5.6Z" transform="translate(-0.43 -1.56)"/><path d="M41,94.3H39.07l-.75-2H34.89l-.71,2H32.34l3.35-8.59h1.83Zm-3.19-3.4-1.18-3.19L35.43,90.9Z" transform="translate(-0.43 -1.56)"/><path d="M41.93,94.3V85.78h1.73v7.07H48V94.3Z" transform="translate(-0.43 -1.56)"/><path d="M.43,103.5l1.69-.16a2.06,2.06,0,0,0,.62,1.25A1.85,1.85,0,0,0,4,105a2,2,0,0,0,1.26-.35,1,1,0,0,0,.42-.83.78.78,0,0,0-.18-.52,1.43,1.43,0,0,0-.62-.37c-.2-.07-.67-.2-1.39-.38a4.7,4.7,0,0,1-2-.85A2.22,2.22,0,0,1,.74,100a2.19,2.19,0,0,1,.37-1.23,2.38,2.38,0,0,1,1.07-.87,4.26,4.26,0,0,1,1.69-.3,3.61,3.61,0,0,1,2.43.71,2.52,2.52,0,0,1,.86,1.89l-1.73.08A1.42,1.42,0,0,0,5,99.29,1.75,1.75,0,0,0,3.86,99a2,2,0,0,0-1.18.31.63.63,0,0,0-.28.53.66.66,0,0,0,.26.52,4.48,4.48,0,0,0,1.59.57,8,8,0,0,1,1.87.62,2.42,2.42,0,0,1,1,.87A2.71,2.71,0,0,1,7,105.17a2.45,2.45,0,0,1-1.16,1,4.84,4.84,0,0,1-1.87.31,3.71,3.71,0,0,1-2.5-.75A3.3,3.3,0,0,1,.43,103.5Z" transform="translate(-0.43 -1.56)"/><path d="M8.53,102.05a5.45,5.45,0,0,1,.39-2.2,4.1,4.1,0,0,1,.8-1.18,3.23,3.23,0,0,1,1.11-.77,4.66,4.66,0,0,1,1.85-.34,4,4,0,0,1,3,1.18,5.26,5.26,0,0,1,0,6.53,4,4,0,0,1-3,1.17,4.05,4.05,0,0,1-3.05-1.17A4.41,4.41,0,0,1,8.53,102.05Zm1.78,0a3.21,3.21,0,0,0,.67,2.21,2.2,2.2,0,0,0,1.71.75,2.17,2.17,0,0,0,1.7-.75,3.31,3.31,0,0,0,.67-2.24,3.23,3.23,0,0,0-.65-2.2A2.2,2.2,0,0,0,12.69,99a2.21,2.21,0,0,0-1.73.74A3.24,3.24,0,0,0,10.31,102Z" transform="translate(-0.43 -1.56)"/><path d="M18.2,97.71h1.73v4.65A10.44,10.44,0,0,0,20,103.8a1.4,1.4,0,0,0,.53.85,1.81,1.81,0,0,0,1.15.32,1.75,1.75,0,0,0,1.11-.3,1.19,1.19,0,0,0,.45-.74,9.62,9.62,0,0,0,.08-1.46V97.72H25v4.51a12,12,0,0,1-.14,2.19,2.37,2.37,0,0,1-.52,1.08,2.61,2.61,0,0,1-1,.7,4.45,4.45,0,0,1-1.65.26,4.8,4.8,0,0,1-1.87-.28,2.59,2.59,0,0,1-1-.74,2.47,2.47,0,0,1-.49-1,10.66,10.66,0,0,1-.17-2.18v-4.6Z" transform="translate(-0.43 -1.56)"/><path d="M26.88,106.3V97.71h3.65a6.39,6.39,0,0,1,2,.23,2,2,0,0,1,1,.82,2.47,2.47,0,0,1,.38,1.35,2.31,2.31,0,0,1-.57,1.6,2.75,2.75,0,0,1-1.7.79,4.16,4.16,0,0,1,.93.72,10,10,0,0,1,1,1.39l1,1.68H32.54l-1.25-1.87a12.9,12.9,0,0,0-.91-1.26,1.44,1.44,0,0,0-.52-.36,2.63,2.63,0,0,0-.87-.1h-.35v3.59H26.88Zm1.74-5H29.9a6.59,6.59,0,0,0,1.56-.11,1,1,0,0,0,.49-.36,1.1,1.1,0,0,0,.18-.64,1,1,0,0,0-.88-1c-.14,0-.56,0-1.27,0H28.63v2.18Z" transform="translate(-0.43 -1.56)"/><path d="M41,103.14l1.68.53a3.8,3.8,0,0,1-1.29,2.09,3.63,3.63,0,0,1-2.28.68,3.68,3.68,0,0,1-2.81-1.17,4.49,4.49,0,0,1-1.1-3.2,4.68,4.68,0,0,1,1.11-3.33,3.81,3.81,0,0,1,2.91-1.19,3.58,3.58,0,0,1,2.56.93,3.43,3.43,0,0,1,.88,1.58l-1.72.41a1.73,1.73,0,0,0-.64-1A1.87,1.87,0,0,0,39.17,99a2,2,0,0,0-1.55.69,3.35,3.35,0,0,0-.59,2.22,3.59,3.59,0,0,0,.59,2.32,1.9,1.9,0,0,0,1.52.69,1.75,1.75,0,0,0,1.19-.44A2.54,2.54,0,0,0,41,103.14Z" transform="translate(-0.43 -1.56)"/><path d="M44.21,106.3V97.71h6.37v1.45H46v1.9h4.31v1.45H46v2.34h4.8v1.45Z" transform="translate(-0.43 -1.56)"/><path d="M51.17,217.14l1.68.53a3.8,3.8,0,0,1-1.29,2.09,3.63,3.63,0,0,1-2.28.68,3.68,3.68,0,0,1-2.81-1.17,4.49,4.49,0,0,1-1.1-3.2,4.68,4.68,0,0,1,1.11-3.33,3.81,3.81,0,0,1,2.91-1.19,3.58,3.58,0,0,1,2.56.93,3.43,3.43,0,0,1,.88,1.58l-1.72.41a1.73,1.73,0,0,0-.64-1.05A1.87,1.87,0,0,0,49.3,213a2,2,0,0,0-1.55.69,3.35,3.35,0,0,0-.59,2.22,3.59,3.59,0,0,0,.59,2.32,1.9,1.9,0,0,0,1.52.69,1.75,1.75,0,0,0,1.19-.44A2.48,2.48,0,0,0,51.17,217.14Z" transform="translate(-0.43 -1.56)"/><path d="M62.09,220.3H60.2l-.75-2H56l-.71,2H53.47l3.35-8.59h1.83Zm-3.2-3.4-1.18-3.19-1.16,3.19Z" transform="translate(-0.43 -1.56)"/><path d="M62.57,217.5l1.69-.16a2.06,2.06,0,0,0,.62,1.25,1.85,1.85,0,0,0,1.26.4,2,2,0,0,0,1.26-.35,1,1,0,0,0,.42-.83.78.78,0,0,0-.18-.52,1.43,1.43,0,0,0-.62-.37c-.2-.07-.67-.2-1.39-.38a4.7,4.7,0,0,1-2-.85,2.22,2.22,0,0,1-.79-1.73,2.19,2.19,0,0,1,.37-1.23,2.38,2.38,0,0,1,1.07-.87,4.26,4.26,0,0,1,1.69-.3,3.61,3.61,0,0,1,2.43.71,2.52,2.52,0,0,1,.86,1.89l-1.73.08a1.42,1.42,0,0,0-.48-1A1.77,1.77,0,0,0,66,213a2,2,0,0,0-1.18.31.63.63,0,0,0-.28.53.66.66,0,0,0,.26.52,4.48,4.48,0,0,0,1.59.57,8,8,0,0,1,1.87.62,2.42,2.42,0,0,1,.95.87,2.71,2.71,0,0,1-.07,2.75,2.45,2.45,0,0,1-1.16,1,4.84,4.84,0,0,1-1.87.31,3.71,3.71,0,0,1-2.5-.75A3.25,3.25,0,0,1,62.57,217.5Z" transform="translate(-0.43 -1.56)"/><path d="M71,220.3v-8.59h6.37v1.45H72.75v1.9h4.31v1.45H72.75v2.34h4.8v1.45Z" transform="translate(-0.43 -1.56)"/><path d="M87.55,218.77v1.53H81.78a3.91,3.91,0,0,1,.56-1.64,11.28,11.28,0,0,1,1.85-2.06,11.7,11.7,0,0,0,1.37-1.41,1.8,1.8,0,0,0,.34-1,1.14,1.14,0,0,0-.3-.85,1.1,1.1,0,0,0-.82-.3,1.09,1.09,0,0,0-.82.31,1.61,1.61,0,0,0-.35,1L82,214.21a2.66,2.66,0,0,1,.92-2,3.12,3.12,0,0,1,1.93-.59,2.79,2.79,0,0,1,2,.69,2.25,2.25,0,0,1,.73,1.71,2.91,2.91,0,0,1-.21,1.1,4.51,4.51,0,0,1-.66,1.1,11.38,11.38,0,0,1-1.08,1.1c-.52.48-.85.79-1,.95a3.18,3.18,0,0,0-.34.46h3.28Z" transform="translate(-0.43 -1.56)"/><path d="M89.33,215.72v-1.65H91v1.65Zm0,4.58v-1.65H91v1.65Z" transform="translate(-0.43 -1.56)"/><path d="M47.25,229.5l1.69-.16a2.06,2.06,0,0,0,.62,1.25,1.85,1.85,0,0,0,1.26.4,2,2,0,0,0,1.26-.35,1,1,0,0,0,.42-.83.78.78,0,0,0-.18-.52,1.43,1.43,0,0,0-.62-.37c-.2-.07-.67-.2-1.39-.38a4.7,4.7,0,0,1-2-.85,2.22,2.22,0,0,1-.79-1.73,2.19,2.19,0,0,1,.37-1.23,2.38,2.38,0,0,1,1.07-.87,4.26,4.26,0,0,1,1.69-.3,3.61,3.61,0,0,1,2.43.71,2.52,2.52,0,0,1,.86,1.89l-1.73.08a1.42,1.42,0,0,0-.48-1,1.78,1.78,0,0,0-1.1-.29,2,2,0,0,0-1.18.31.63.63,0,0,0-.28.53.66.66,0,0,0,.26.52,4.48,4.48,0,0,0,1.59.57,8,8,0,0,1,1.87.62,2.42,2.42,0,0,1,1,.87,2.71,2.71,0,0,1-.07,2.75,2.45,2.45,0,0,1-1.16,1,4.84,4.84,0,0,1-1.87.31,3.71,3.71,0,0,1-2.5-.75A3.25,3.25,0,0,1,47.25,229.5Z" transform="translate(-0.43 -1.56)"/><path d="M55.64,232.3v-8.59h1.73v8.59Z" transform="translate(-0.43 -1.56)"/><path d="M63,229.14v-1.45h3.74v3.42a4.74,4.74,0,0,1-1.58.93,5.7,5.7,0,0,1-2.09.4,4.67,4.67,0,0,1-2.35-.57,3.64,3.64,0,0,1-1.51-1.62,5.15,5.15,0,0,1-.5-2.29,5,5,0,0,1,.56-2.38,3.76,3.76,0,0,1,1.65-1.6,4.39,4.39,0,0,1,2.06-.43,4.08,4.08,0,0,1,2.5.67,3,3,0,0,1,1.16,1.85l-1.72.32a1.86,1.86,0,0,0-.68-1A2,2,0,0,0,63,225a2.36,2.36,0,0,0-1.81.72,3,3,0,0,0-.67,2.14,3.37,3.37,0,0,0,.68,2.29,2.26,2.26,0,0,0,1.78.76,3,3,0,0,0,1.09-.21,3.82,3.82,0,0,0,.94-.52v-1.09H63Z" transform="translate(-0.43 -1.56)"/><path d="M68.37,232.3v-8.59h1.69l3.52,5.74v-5.74h1.61v8.59H73.45L70,226.7v5.6Z" transform="translate(-0.43 -1.56)"/><path d="M84.77,232.3H82.88l-.75-2H78.7l-.71,2H76.15l3.35-8.59h1.83Zm-3.19-3.4-1.18-3.19-1.16,3.19Z" transform="translate(-0.43 -1.56)"/><path d="M85.74,232.3v-8.52h1.73v7.07h4.31v1.45Z" transform="translate(-0.43 -1.56)"/><path d="M41.24,241.5l1.69-.16a2.06,2.06,0,0,0,.62,1.25,1.85,1.85,0,0,0,1.26.4,2,2,0,0,0,1.26-.35,1,1,0,0,0,.42-.83.78.78,0,0,0-.18-.52,1.43,1.43,0,0,0-.62-.37c-.2-.07-.67-.2-1.39-.38a4.7,4.7,0,0,1-2-.85,2.22,2.22,0,0,1-.79-1.73,2.19,2.19,0,0,1,.37-1.23,2.38,2.38,0,0,1,1.07-.87,4.26,4.26,0,0,1,1.69-.3,3.61,3.61,0,0,1,2.43.71,2.52,2.52,0,0,1,.86,1.89l-1.73.08a1.42,1.42,0,0,0-.48-1,1.78,1.78,0,0,0-1.1-.29,2,2,0,0,0-1.18.31.63.63,0,0,0-.28.53.66.66,0,0,0,.26.52,4.48,4.48,0,0,0,1.59.57,8,8,0,0,1,1.87.62,2.42,2.42,0,0,1,.95.87,2.71,2.71,0,0,1-.07,2.75,2.45,2.45,0,0,1-1.16,1,4.84,4.84,0,0,1-1.87.31,3.71,3.71,0,0,1-2.5-.75A3.25,3.25,0,0,1,41.24,241.5Z" transform="translate(-0.43 -1.56)"/><path d="M49.33,240.05a5.45,5.45,0,0,1,.39-2.2,4.1,4.1,0,0,1,.8-1.18,3.23,3.23,0,0,1,1.11-.77,4.66,4.66,0,0,1,1.85-.34,4,4,0,0,1,3,1.18,5.26,5.26,0,0,1,0,6.53,4,4,0,0,1-3,1.17,4.05,4.05,0,0,1-3-1.17A4.41,4.41,0,0,1,49.33,240.05Zm1.79-.05a3.21,3.21,0,0,0,.67,2.21,2.2,2.2,0,0,0,1.71.75,2.17,2.17,0,0,0,1.7-.75,3.31,3.31,0,0,0,.67-2.24,3.23,3.23,0,0,0-.65-2.2,2.39,2.39,0,0,0-3.45,0A3.24,3.24,0,0,0,51.12,240Z" transform="translate(-0.43 -1.56)"/><path d="M59,235.71h1.73v4.65a10.44,10.44,0,0,0,.06,1.44,1.4,1.4,0,0,0,.53.85,1.81,1.81,0,0,0,1.15.32,1.75,1.75,0,0,0,1.11-.3,1.19,1.19,0,0,0,.45-.74,9.62,9.62,0,0,0,.08-1.46v-4.75h1.73v4.51a12,12,0,0,1-.14,2.19,2.37,2.37,0,0,1-.52,1.08,2.61,2.61,0,0,1-1,.7,4.45,4.45,0,0,1-1.65.26,4.8,4.8,0,0,1-1.87-.28,2.59,2.59,0,0,1-1-.74,2.47,2.47,0,0,1-.49-.95,10.66,10.66,0,0,1-.17-2.18v-4.6Z" transform="translate(-0.43 -1.56)"/><path d="M67.69,244.3v-8.59h3.65a6.39,6.39,0,0,1,2,.23,2,2,0,0,1,1,.82,2.47,2.47,0,0,1,.38,1.35,2.31,2.31,0,0,1-.57,1.6,2.75,2.75,0,0,1-1.7.79,4.16,4.16,0,0,1,.93.72,10,10,0,0,1,1,1.39l1,1.68H73.35l-1.25-1.87a12.9,12.9,0,0,0-.91-1.26,1.44,1.44,0,0,0-.52-.36,2.63,2.63,0,0,0-.87-.1h-.35v3.59H67.69Zm1.73-5H70.7a6.59,6.59,0,0,0,1.56-.11,1,1,0,0,0,.49-.36,1.1,1.1,0,0,0,.18-.64,1,1,0,0,0-.88-1c-.14,0-.56,0-1.27,0H69.43v2.18Z" transform="translate(-0.43 -1.56)"/><path d="M81.84,241.14l1.68.53a3.8,3.8,0,0,1-1.29,2.09,3.63,3.63,0,0,1-2.28.68,3.68,3.68,0,0,1-2.81-1.17,4.49,4.49,0,0,1-1.1-3.2,4.68,4.68,0,0,1,1.11-3.33,3.81,3.81,0,0,1,2.91-1.19,3.58,3.58,0,0,1,2.56.93,3.43,3.43,0,0,1,.88,1.58l-1.72.41a1.73,1.73,0,0,0-.64-1.05A1.87,1.87,0,0,0,80,237a2,2,0,0,0-1.55.69,3.35,3.35,0,0,0-.59,2.22,3.59,3.59,0,0,0,.59,2.32,1.9,1.9,0,0,0,1.52.69,1.75,1.75,0,0,0,1.19-.44A2.48,2.48,0,0,0,81.84,241.14Z" transform="translate(-0.43 -1.56)"/><path d="M85,244.3v-8.59h6.37v1.45H86.75v1.9h4.31v1.45H86.75v2.34h4.8v1.45Z" transform="translate(-0.43 -1.56)"/><line x1="117.93" y1="59.77" x2="137.15" y2="59.77" fill="none" stroke="#000" stroke-width="1.5"/><line x1="126.93" y1="109.55" x2="137.15" y2="109.55" fill="none" stroke="#000" stroke-width="1.5"/><line x1="77.03" y1="113.9" x2="92.05" y2="113.9" fill="none" stroke="#000" stroke-miterlimit="14.3" stroke-width="1.5"/><line x1="89.94" y1="117.01" x2="79.14" y2="117" fill="none" stroke="#000" stroke-miterlimit="14.3" stroke-width="1.5"/><line x1="87.18" y1="120.11" x2="81.9" y2="120.11" fill="none" stroke="#000" stroke-miterlimit="14.3" stroke-width="1.5"/><line x1="127.27" y1="109.44" x2="127.27" y2="245.45" fill="none" stroke="#000" stroke-width="1.5"/><path d="M136,204.61V196h3.65a6.39,6.39,0,0,1,2,.23,2,2,0,0,1,1,.82,2.47,2.47,0,0,1,.38,1.35,2.31,2.31,0,0,1-.57,1.6,2.75,2.75,0,0,1-1.7.79,4.16,4.16,0,0,1,.93.72,10,10,0,0,1,1,1.39l1.05,1.68h-2.07l-1.25-1.87a12.9,12.9,0,0,0-.91-1.26,1.44,1.44,0,0,0-.52-.36,2.63,2.63,0,0,0-.87-.1h-.35v3.59H136Zm1.74-5H139a6.59,6.59,0,0,0,1.56-.11,1,1,0,0,0,.49-.36,1.1,1.1,0,0,0,.18-.64,1,1,0,0,0-.88-1c-.14,0-.56,0-1.27,0h-1.35v2.18Z" transform="translate(-0.43 -1.56)"/><path d="M148.83,206.33v1.27H144a3.29,3.29,0,0,1,.47-1.37,9.25,9.25,0,0,1,1.54-1.72,10.45,10.45,0,0,0,1.14-1.17,1.48,1.48,0,0,0,.28-.84,1,1,0,0,0-.25-.71,1,1,0,0,0-1.36,0,1.29,1.29,0,0,0-.29.86l-1.37-.14a2.24,2.24,0,0,1,.77-1.63,2.57,2.57,0,0,1,1.61-.49,2.35,2.35,0,0,1,1.67.57,1.85,1.85,0,0,1,.61,1.42,2.59,2.59,0,0,1-.17.92,3.66,3.66,0,0,1-.55.92,9.07,9.07,0,0,1-.9.91c-.43.39-.71.66-.82.79a2.82,2.82,0,0,0-.28.38h2.71Z" transform="translate(-0.43 -1.56)"/><path d="M197.44,195.26v-8.59h3.65a6.39,6.39,0,0,1,2,.23,2,2,0,0,1,1,.82,2.47,2.47,0,0,1,.38,1.35,2.31,2.31,0,0,1-.57,1.6,2.75,2.75,0,0,1-1.7.79,4.16,4.16,0,0,1,.93.72,10,10,0,0,1,1,1.39l1,1.68H203.1l-1.25-1.87a12.9,12.9,0,0,0-.91-1.26,1.44,1.44,0,0,0-.52-.36,2.63,2.63,0,0,0-.87-.1h-.35v3.59h-1.76Zm1.73-5h1.28a6.59,6.59,0,0,0,1.56-.11,1,1,0,0,0,.49-.36,1.1,1.1,0,0,0,.18-.64,1,1,0,0,0-.88-1c-.14,0-.56,0-1.27,0h-1.35v2.18Z" transform="translate(-0.43 -1.56)"/><path d="M209.16,198.26h-1.37v-5.17a4.64,4.64,0,0,1-1.77,1v-1.25a4,4,0,0,0,1.17-.67,2.49,2.49,0,0,0,.86-1.15h1.11Z" transform="translate(-0.43 -1.56)"/><line x1="119.77" y1="245.21" x2="134.78" y2="245.21" fill="none" stroke="#000" stroke-miterlimit="14.3" stroke-width="1.5"/><line x1="132.67" y1="248.32" x2="121.88" y2="248.32" fill="none" stroke="#000" stroke-miterlimit="14.3" stroke-width="1.5"/><line x1="129.91" y1="251.42" x2="124.64" y2="251.42" fill="none" stroke="#000" stroke-miterlimit="14.3" stroke-width="1.5"/><polygon points="128.42 191.89 128.42 207.74 125.91 206.85 125.91 190.55 128.42 191.89" fill="#fff"/><polyline points="127.3 208.71 127.3 207.98 124.83 206.66 129.76 203.78 124.8 200.82 129.76 197.9 124.83 195.07 129.76 192.15 127.29 190.62 127.29 190.05" fill="none" stroke="#000" stroke-miterlimit="14.3" stroke-width="1.5"/><path d="M107.25,71.71A10.67,10.67,0,1,1,117.83,61a10.67,10.67,0,0,1-10.58,10.67Z" transform="translate(-0.43 -1.56)" fill="#fff" stroke="#000" stroke-miterlimit="14.3" stroke-width="1.5"/><path d="M85.25,100.21A10.67,10.67,0,1,1,95.83,89.54a10.67,10.67,0,0,1-10.58,10.67Z" transform="translate(-0.43 -1.56)" fill="#fff" stroke="#000" stroke-miterlimit="14.3" stroke-width="1.5"/><path d="M127.75,237.21a10.67,10.67,0,1,1,10.58-10.67,10.67,10.67,0,0,1-10.58,10.67Z" transform="translate(-0.43 -1.56)" fill="#fff" stroke="#000" stroke-miterlimit="14.3" stroke-width="1.5"/><line x1="96.02" y1="60.07" x2="84.18" y2="60.07" fill="none" stroke="#000" stroke-width="1.5"/><path d="M130.57,179.08h0a2.88,2.88,0,1,0-2.88,2.81,2.84,2.84,0,0,0,2.88-2.81Z" transform="translate(-0.43 -1.56)" stroke="#000" stroke-miterlimit="14.3"/><polygon points="211.28 178.67 195.43 178.67 196.32 176.15 212.62 176.15 211.28 178.67" fill="#fff"/><polyline points="194.46 177.55 195.19 177.55 196.51 175.08 199.39 180.01 202.35 175.05 205.27 180.01 208.1 175.08 211.02 180.01 212.55 177.53 213.12 177.53" fill="none" stroke="#000" stroke-miterlimit="14.3" stroke-width="1.5"/><path d="M286.12,251a5.16,5.16,0,0,1-1.63-.21,2.14,2.14,0,0,1-1-.62,1.55,1.55,0,0,1-.34-1,1.62,1.62,0,0,1,.19-.81,1.55,1.55,0,0,1,.54-.57,3.15,3.15,0,0,1,.85-.36,5.43,5.43,0,0,1,1.35-.13,5.25,5.25,0,0,1,1.63.21,2,2,0,0,1,1,.62,1.74,1.74,0,0,1-.25,2.34A3.83,3.83,0,0,1,286.12,251Zm0-.72a3.6,3.6,0,0,0,1.88-.33.93.93,0,0,0,0-1.62,5.52,5.52,0,0,0-3.76,0,1,1,0,0,0-.46.82.9.9,0,0,0,.41.77A3.62,3.62,0,0,0,286.12,250.27Z" transform="translate(-0.43 -1.56)"/><path d="M284,246.5h-.68v-3.71h.55a7.56,7.56,0,0,0,1.55,1.08,10.27,10.27,0,0,0,2,.83,7.45,7.45,0,0,0,1.57.27v.72a7.13,7.13,0,0,1-1.63-.27,8.58,8.58,0,0,1-1.85-.73,7.83,7.83,0,0,1-1.5-1v2.82Z" transform="translate(-0.43 -1.56)"/><path d="M286.12,242.09a5.16,5.16,0,0,1-1.63-.21,2.14,2.14,0,0,1-1-.62,1.55,1.55,0,0,1-.34-1,1.62,1.62,0,0,1,.19-.81,1.55,1.55,0,0,1,.54-.57,3.15,3.15,0,0,1,.85-.36,5.43,5.43,0,0,1,1.35-.13,5.25,5.25,0,0,1,1.63.21,2,2,0,0,1,1,.62,1.74,1.74,0,0,1-.25,2.34A3.83,3.83,0,0,1,286.12,242.09Zm0-.72A3.6,3.6,0,0,0,288,241a.93.93,0,0,0,0-1.62,5.52,5.52,0,0,0-3.76,0,1,1,0,0,0-.46.82.9.9,0,0,0,.41.77A3.62,3.62,0,0,0,286.12,241.37Z" transform="translate(-0.43 -1.56)"/><path d="M287.44,237.64l-.06-.74a1.29,1.29,0,0,0,.81-.38,1,1,0,0,0,.27-.72,1.15,1.15,0,0,0-.38-.86,1.41,1.41,0,0,0-1-.35,1.29,1.29,0,0,0-.95.34,1.19,1.19,0,0,0-.35.88,1.23,1.23,0,0,0,.15.61,1.19,1.19,0,0,0,.4.43l-.09.66-2.94-.55v-2.85H284v2.29l1.54.31a1.84,1.84,0,0,1-.36-1.08,1.72,1.72,0,0,1,.52-1.27,1.8,1.8,0,0,1,1.34-.52,2.07,2.07,0,0,1,1.34.45,1.83,1.83,0,0,1,.7,1.5,1.88,1.88,0,0,1-.44,1.28A1.66,1.66,0,0,1,287.44,237.64Z" transform="translate(-0.43 -1.56)"/><path d="M287.43,233.19l-.09-.7a1.54,1.54,0,0,0,.86-.41,1,1,0,0,0,.26-.71,1.16,1.16,0,0,0-1.19-1.18,1.08,1.08,0,0,0-1.11,1.12,2.21,2.21,0,0,0,.08.5l-.62-.08a.49.49,0,0,0,0-.11,1.5,1.5,0,0,0-.23-.81.8.8,0,0,0-.72-.36.87.87,0,0,0-.64.26.92.92,0,0,0-.25.68,1,1,0,0,0,.26.68,1.29,1.29,0,0,0,.77.35l-.12.7a1.82,1.82,0,0,1-1.1-.59,1.7,1.7,0,0,1-.39-1.14,1.91,1.91,0,0,1,.2-.86,1.46,1.46,0,0,1,.55-.6,1.41,1.41,0,0,1,.74-.21,1.26,1.26,0,0,1,.68.2,1.3,1.3,0,0,1,.48.59,1.33,1.33,0,0,1,.49-.79,1.46,1.46,0,0,1,.92-.28,1.67,1.67,0,0,1,1.27.55,1.93,1.93,0,0,1,.52,1.38,1.75,1.75,0,0,1-1.63,1.82Z" transform="translate(-0.43 -1.56)"/><path d="M287.22,228.82h-.71v-2.16h.71Z" transform="translate(-0.43 -1.56)"/><path d="M286.12,226.08a5.16,5.16,0,0,1-1.63-.21,2.14,2.14,0,0,1-1-.62,1.55,1.55,0,0,1-.34-1,1.62,1.62,0,0,1,.19-.81,1.55,1.55,0,0,1,.54-.57,3.15,3.15,0,0,1,.85-.36,5.43,5.43,0,0,1,1.35-.13,5.25,5.25,0,0,1,1.63.21,2,2,0,0,1,1,.62,1.74,1.74,0,0,1-.25,2.34A3.83,3.83,0,0,1,286.12,226.08Zm0-.72A3.6,3.6,0,0,0,288,225a.93.93,0,0,0,0-1.62,5.52,5.52,0,0,0-3.76,0,1,1,0,0,0-.46.82.9.9,0,0,0,.41.77A3.62,3.62,0,0,0,286.12,225.36Z" transform="translate(-0.43 -1.56)"/><path d="M286.12,221.63a5.16,5.16,0,0,1-1.63-.21,2.14,2.14,0,0,1-1-.62,1.55,1.55,0,0,1-.34-1,1.62,1.62,0,0,1,.19-.81,1.55,1.55,0,0,1,.54-.57,3.15,3.15,0,0,1,.85-.36,5.43,5.43,0,0,1,1.35-.13,5.25,5.25,0,0,1,1.63.21,2,2,0,0,1,1,.62,1.74,1.74,0,0,1-.25,2.34A3.83,3.83,0,0,1,286.12,221.63Zm0-.72a3.6,3.6,0,0,0,1.88-.33.93.93,0,0,0,0-1.62,5.52,5.52,0,0,0-3.76,0,1,1,0,0,0-.46.82.9.9,0,0,0,.41.77A3.62,3.62,0,0,0,286.12,220.91Z" transform="translate(-0.43 -1.56)"/><path d="M285.84,216.1a1.34,1.34,0,0,1-.46.65,1.21,1.21,0,0,1-.71.21,1.38,1.38,0,0,1-1.05-.45,1.89,1.89,0,0,1,0-2.41,1.39,1.39,0,0,1,1.06-.46,1.13,1.13,0,0,1,.69.21,1.4,1.4,0,0,1,.46.63,1.52,1.52,0,0,1,.55-.8,1.54,1.54,0,0,1,.91-.28,1.62,1.62,0,0,1,1.23.52,2.13,2.13,0,0,1,0,2.74,1.65,1.65,0,0,1-1.25.52,1.54,1.54,0,0,1-.94-.28A1.34,1.34,0,0,1,285.84,216.1Zm-1.2.14a.9.9,0,0,0,.66-.26,1,1,0,0,0,0-1.35.82.82,0,0,0-.63-.26.88.88,0,0,0-.65.27.9.9,0,0,0-.26.67.94.94,0,0,0,.26.67A.82.82,0,0,0,284.64,216.24Zm2.65.23a1.34,1.34,0,0,0,.58-.14,1,1,0,0,0,.44-.42,1.27,1.27,0,0,0-.17-1.44,1.09,1.09,0,0,0-.82-.33,1.11,1.11,0,0,0-.84.34,1.18,1.18,0,0,0-.33.85,1.11,1.11,0,0,0,.33.82A1.08,1.08,0,0,0,287.29,216.47Z" transform="translate(-0.43 -1.56)"/><line x1="105.69" y1="25.06" x2="105.69" y2="35.31" fill="none" stroke="#000" stroke-width="1.5"/><polygon points="102.16 32.87 105.73 46.21 109.3 32.87 102.16 32.87"/><line x1="50.66" y1="88.68" x2="60.91" y2="88.68" fill="none" stroke="#000" stroke-width="1.5"/><polygon points="58.47 92.21 71.81 88.63 58.47 85.06 58.47 92.21"/><line x1="95.16" y1="226.68" x2="105.41" y2="226.68" fill="none" stroke="#000" stroke-width="1.5"/><polygon points="102.97 230.21 116.31 226.63 102.97 223.06 102.97 230.21"/><path d="M146,69.62V67.39h-2.25V65.85H146V63.62h1.5v2.23h2.26v1.54H147.5v2.23Z" transform="translate(-0.43 -1.56)"/><path d="M143.23,115.74v-1.23h6.67v1.23Z" transform="translate(-0.43 -1.56)"/></svg>