  0
SECTION
  2
HEADER
  9
$ACADVER
  1
AC1009
  9
$INSUNITS
  70
4
  9
$EXTMIN
  10
-1.345
  20
-1.245
  9
$EXTMAX
  10
1.345
  20
1.245
  0
ENDSEC
  0
SECTION
  2
TABLES
  0
TABLE
  2
LTYPE
  70
1
  0
LTYPE
  2
CONTINUOUS
  70
64
  3
Solid line
  72
65
  73
0
  40
0
  0
ENDTAB
  0
TABLE
  2
LAYER
  70
10
  0
LAYER
  2
Default
  70
0
  62
1
  6
CONTINUOUS
  0
LAYER
  2
Package
  70
0
  62
1
  6
CONTINUOUS
  0
LAYER
  2
Leads
  70
0
  62
1
  6
CONTINUOUS
  0
LAYER
  2
Annotation
  70
0
  62
1
  6
CONTINUOUS
  0
LAYER
  2
Copper
  70
0
  62
1
  6
CONTINUOUS
  0
LAYER
  2
SolderMask
  70
0
  62
1
  6
CONTINUOUS
  0
LAYER
  2
SolderPaste
  70
0
  62
1
  6
CONTINUOUS
  0
LAYER
  2
SilkScreen
  70
0
  62
1
  6
CONTINUOUS
  0
LAYER
  2
KeepOut
  70
0
  62
1
  6
CONTINUOUS
  0
LAYER
  2
Docu
  70
0
  62
1
  6
CONTINUOUS
  0
ENDTAB
  0
ENDSEC
  0
SECTION
  2
BLOCKS
  0
BLOCK
  2
SOT323_v4_1_Rec_Pack
  3
SOT323_v4_1_Rec_Pack
  10
0
  20
0
  70
0
  0
POLYLINE
  8
Package
  70
1
  66
1
  0
VERTEX
  8
Package
  10
-0.675
  20
1.1
  0
VERTEX
  8
Package
  10
-0.675
  20
-1.1
  0
VERTEX
  8
Package
  10
0.675
  20
-1.1
  0
VERTEX
  8
Package
  10
0.675
  20
1.1
  0
SEQEND
  0
POLYLINE
  8
Leads
  70
1
  66
1
  0
VERTEX
  8
Leads
  10
0.95
  20
0.15
  0
VERTEX
  8
Leads
  10
0.95
  20
-0.15
  0
VERTEX
  8
Leads
  10
1.05
  20
-0.15
  0
VERTEX
  8
Leads
  10
1.05
  20
0.15
  0
SEQEND
  0
POLYLINE
  8
Leads
  70
1
  66
1
  0
VERTEX
  8
Leads
  10
-1.05
  20
0.8
  0
VERTEX
  8
Leads
  10
-1.05
  20
0.5
  0
VERTEX
  8
Leads
  10
-0.95
  20
0.5
  0
VERTEX
  8
Leads
  10
-0.95
  20
0.8
  0
SEQEND
  0
POLYLINE
  8
Leads
  70
1
  66
1
  0
VERTEX
  8
Leads
  10
-1.05
  20
-0.5
  0
VERTEX
  8
Leads
  10
-1.05
  20
-0.8
  0
VERTEX
  8
Leads
  10
-0.95
  20
-0.8
  0
VERTEX
  8
Leads
  10
-0.95
  20
-0.5
  0
SEQEND
  0
POLYLINE
  8
Annotation
  70
1
  66
1
  0
VERTEX
  8
Annotation
  10
0.675
  20
0.15
  0
VERTEX
  8
Annotation
  10
0.675
  20
-0.15
  0
VERTEX
  8
Annotation
  10
0.95
  20
-0.15
  0
VERTEX
  8
Annotation
  10
0.95
  20
0.15
  0
SEQEND
  0
POLYLINE
  8
Annotation
  70
1
  66
1
  0
VERTEX
  8
Annotation
  10
-0.95
  20
0.8
  0
VERTEX
  8
Annotation
  10
-0.95
  20
0.5
  0
VERTEX
  8
Annotation
  10
-0.675
  20
0.5
  0
VERTEX
  8
Annotation
  10
-0.675
  20
0.8
  0
SEQEND
  0
POLYLINE
  8
Annotation
  70
1
  66
1
  0
VERTEX
  8
Annotation
  10
-0.95
  20
-0.5
  0
VERTEX
  8
Annotation
  10
-0.95
  20
-0.8
  0
VERTEX
  8
Annotation
  10
-0.675
  20
-0.8
  0
VERTEX
  8
Annotation
  10
-0.675
  20
-0.5
  0
SEQEND
  0
ENDBLK
  0
BLOCK
  2
SOT323_v4_1_Rec
  3
SOT323_v4_1_Rec
  10
0
  20
0
  70
0
  0
INSERT
  8
Default
  2
SOT323_v4_1_Rec_Pack
  10
0
  20
0
  50
0
  41
1
  42
1
  0
POLYLINE
  8
Copper
  70
1
  66
1
  0
VERTEX
  8
Copper
  10
-0.4
  20
-0.35
  0
VERTEX
  8
Copper
  10
-0.4
  20
-0.95
  0
VERTEX
  8
Copper
  10
-1.2
  20
-0.95
  0
VERTEX
  8
Copper
  10
-1.2
  20
-0.35
  0
SEQEND
  0
POLYLINE
  8
Copper
  70
1
  66
1
  0
VERTEX
  8
Copper
  10
-0.4
  20
0.95
  0
VERTEX
  8
Copper
  10
-0.4
  20
0.35
  0
VERTEX
  8
Copper
  10
-1.2
  20
0.35
  0
VERTEX
  8
Copper
  10
-1.2
  20
0.95
  0
SEQEND
  0
POLYLINE
  8
Copper
  70
1
  66
1
  0
VERTEX
  8
Copper
  10
0.4
  20
-0.3
  0
VERTEX
  8
Copper
  10
0.4
  20
0.3
  0
VERTEX
  8
Copper
  10
1.2
  20
0.3
  0
VERTEX
  8
Copper
  10
1.2
  20
-0.3
  0
SEQEND
  0
POLYLINE
  8
SolderMask
  70
1
  66
1
  0
VERTEX
  8
SolderMask
  10
-0.3
  20
-0.25
  0
VERTEX
  8
SolderMask
  10
-0.3
  20
-1.05
  0
VERTEX
  8
SolderMask
  10
-1.3
  20
-1.05
  0
VERTEX
  8
SolderMask
  10
-1.3
  20
-0.25
  0
SEQEND
  0
POLYLINE
  8
SolderMask
  70
1
  66
1
  0
VERTEX
  8
SolderMask
  10
-0.3
  20
1.05
  0
VERTEX
  8
SolderMask
  10
-0.3
  20
0.25
  0
VERTEX
  8
SolderMask
  10
-1.3
  20
0.25
  0
VERTEX
  8
SolderMask
  10
-1.3
  20
1.05
  0
SEQEND
  0
POLYLINE
  8
SolderMask
  70
1
  66
1
  0
VERTEX
  8
SolderMask
  10
0.3
  20
-0.4
  0
VERTEX
  8
SolderMask
  10
0.3
  20
0.4
  0
VERTEX
  8
SolderMask
  10
1.3
  20
0.4
  0
VERTEX
  8
SolderMask
  10
1.3
  20
-0.4
  0
SEQEND
  0
POLYLINE
  8
SolderPaste
  70
1
  66
1
  0
VERTEX
  8
SolderPaste
  10
0.4
  20
-0.3
  0
VERTEX
  8
SolderPaste
  10
0.4
  20
0.3
  0
VERTEX
  8
SolderPaste
  10
1.2
  20
0.3
  0
VERTEX
  8
SolderPaste
  10
1.2
  20
-0.3
  0
SEQEND
  0
POLYLINE
  8
SolderPaste
  70
1
  66
1
  0
VERTEX
  8
SolderPaste
  10
-0.4
  20
0.95
  0
VERTEX
  8
SolderPaste
  10
-0.4
  20
0.35
  0
VERTEX
  8
SolderPaste
  10
-1.2
  20
0.35
  0
VERTEX
  8
SolderPaste
  10
-1.2
  20
0.95
  0
SEQEND
  0
POLYLINE
  8
SolderPaste
  70
1
  66
1
  0
VERTEX
  8
SolderPaste
  10
-0.4
  20
-0.35
  0
VERTEX
  8
SolderPaste
  10
-0.4
  20
-0.95
  0
VERTEX
  8
SolderPaste
  10
-1.2
  20
-0.95
  0
VERTEX
  8
SolderPaste
  10
-1.2
  20
-0.35
  0
SEQEND
  0
POLYLINE
  8
SilkScreen
  70
1
  66
1
  0
VERTEX
  8
SilkScreen
  10
0.686
  20
1.05
  0
VERTEX
  8
SilkScreen
  10
0.692
  20
1.052
  0
VERTEX
  8
SilkScreen
  10
0.695
  20
1.052
  0
VERTEX
  8
SilkScreen
  10
0.698
  20
1.054
  0
VERTEX
  8
SilkScreen
  10
0.704
  20
1.056
  0
VERTEX
  8
SilkScreen
  10
0.707
  20
1.058
  0
VERTEX
  8
SilkScreen
  10
0.709
  20
1.06
  0
VERTEX
  8
SilkScreen
  10
0.712
  20
1.061
  0
VERTEX
  8
SilkScreen
  10
0.714
  20
1.064
  0
VERTEX
  8
SilkScreen
  10
0.716
  20
1.066
  0
VERTEX
  8
SilkScreen
  10
0.719
  20
1.068
  0
VERTEX
  8
SilkScreen
  10
0.72
  20
1.071
  0
VERTEX
  8
SilkScreen
  10
0.722
  20
1.073
  0
VERTEX
  8
SilkScreen
  10
0.724
  20
1.076
  0
VERTEX
  8
SilkScreen
  10
0.726
  20
1.082
  0
VERTEX
  8
SilkScreen
  10
0.728
  20
1.085
  0
VERTEX
  8
SilkScreen
  10
0.728
  20
1.088
  0
VERTEX
  8
SilkScreen
  10
0.73
  20
1.094
  0
VERTEX
  8
SilkScreen
  10
0.73
  20
1.106
  0
VERTEX
  8
SilkScreen
  10
0.728
  20
1.112
  0
VERTEX
  8
SilkScreen
  10
0.728
  20
1.115
  0
VERTEX
  8
SilkScreen
  10
0.726
  20
1.118
  0
VERTEX
  8
SilkScreen
  10
0.724
  20
1.124
  0
VERTEX
  8
SilkScreen
  10
0.722
  20
1.127
  0
VERTEX
  8
SilkScreen
  10
0.72
  20
1.129
  0
VERTEX
  8
SilkScreen
  10
0.719
  20
1.132
  0
VERTEX
  8
SilkScreen
  10
0.716
  20
1.134
  0
VERTEX
  8
SilkScreen
  10
0.714
  20
1.136
  0
VERTEX
  8
SilkScreen
  10
0.712
  20
1.139
  0
VERTEX
  8
SilkScreen
  10
0.709
  20
1.14
  0
VERTEX
  8
SilkScreen
  10
0.707
  20
1.142
  0
VERTEX
  8
SilkScreen
  10
0.704
  20
1.144
  0
VERTEX
  8
SilkScreen
  10
0.698
  20
1.146
  0
VERTEX
  8
SilkScreen
  10
0.695
  20
1.148
  0
VERTEX
  8
SilkScreen
  10
0.692
  20
1.148
  0
VERTEX
  8
SilkScreen
  10
0.686
  20
1.15
  0
VERTEX
  8
SilkScreen
  10
-1.156
  20
1.15
  0
VERTEX
  8
SilkScreen
  10
-1.162
  20
1.148
  0
VERTEX
  8
SilkScreen
  10
-1.165
  20
1.148
  0
VERTEX
  8
SilkScreen
  10
-1.168
  20
1.146
  0
VERTEX
  8
SilkScreen
  10
-1.174
  20
1.144
  0
VERTEX
  8
SilkScreen
  10
-1.177
  20
1.142
  0
VERTEX
  8
SilkScreen
  10
-1.179
  20
1.14
  0
VERTEX
  8
SilkScreen
  10
-1.182
  20
1.139
  0
VERTEX
  8
SilkScreen
  10
-1.184
  20
1.136
  0
VERTEX
  8
SilkScreen
  10
-1.186
  20
1.134
  0
VERTEX
  8
SilkScreen
  10
-1.189
  20
1.132
  0
VERTEX
  8
SilkScreen
  10
-1.19
  20
1.129
  0
VERTEX
  8
SilkScreen
  10
-1.192
  20
1.127
  0
VERTEX
  8
SilkScreen
  10
-1.194
  20
1.124
  0
VERTEX
  8
SilkScreen
  10
-1.196
  20
1.118
  0
VERTEX
  8
SilkScreen
  10
-1.198
  20
1.115
  0
VERTEX
  8
SilkScreen
  10
-1.198
  20
1.112
  0
VERTEX
  8
SilkScreen
  10
-1.2
  20
1.106
  0
VERTEX
  8
SilkScreen
  10
-1.2
  20
1.094
  0
VERTEX
  8
SilkScreen
  10
-1.198
  20
1.088
  0
VERTEX
  8
SilkScreen
  10
-1.198
  20
1.085
  0
VERTEX
  8
SilkScreen
  10
-1.196
  20
1.082
  0
VERTEX
  8
SilkScreen
  10
-1.194
  20
1.076
  0
VERTEX
  8
SilkScreen
  10
-1.192
  20
1.073
  0
VERTEX
  8
SilkScreen
  10
-1.19
  20
1.071
  0
VERTEX
  8
SilkScreen
  10
-1.189
  20
1.068
  0
VERTEX
  8
SilkScreen
  10
-1.186
  20
1.066
  0
VERTEX
  8
SilkScreen
  10
-1.184
  20
1.064
  0
VERTEX
  8
SilkScreen
  10
-1.182
  20
1.061
  0
VERTEX
  8
SilkScreen
  10
-1.179
  20
1.06
  0
VERTEX
  8
SilkScreen
  10
-1.177
  20
1.058
  0
VERTEX
  8
SilkScreen
  10
-1.174
  20
1.056
  0
VERTEX
  8
SilkScreen
  10
-1.168
  20
1.054
  0
VERTEX
  8
SilkScreen
  10
-1.165
  20
1.052
  0
VERTEX
  8
SilkScreen
  10
-1.162
  20
1.052
  0
VERTEX
  8
SilkScreen
  10
-1.156
  20
1.05
  0
SEQEND
  0
POLYLINE
  8
SilkScreen
  70
1
  66
1
  0
VERTEX
  8
SilkScreen
  10
0.686
  20
-1.15
  0
VERTEX
  8
SilkScreen
  10
0.692
  20
-1.148
  0
VERTEX
  8
SilkScreen
  10
0.695
  20
-1.148
  0
VERTEX
  8
SilkScreen
  10
0.698
  20
-1.146
  0
VERTEX
  8
SilkScreen
  10
0.704
  20
-1.144
  0
VERTEX
  8
SilkScreen
  10
0.707
  20
-1.142
  0
VERTEX
  8
SilkScreen
  10
0.709
  20
-1.14
  0
VERTEX
  8
SilkScreen
  10
0.712
  20
-1.139
  0
VERTEX
  8
SilkScreen
  10
0.714
  20
-1.136
  0
VERTEX
  8
SilkScreen
  10
0.716
  20
-1.134
  0
VERTEX
  8
SilkScreen
  10
0.719
  20
-1.132
  0
VERTEX
  8
SilkScreen
  10
0.72
  20
-1.129
  0
VERTEX
  8
SilkScreen
  10
0.722
  20
-1.127
  0
VERTEX
  8
SilkScreen
  10
0.724
  20
-1.124
  0
VERTEX
  8
SilkScreen
  10
0.726
  20
-1.118
  0
VERTEX
  8
SilkScreen
  10
0.728
  20
-1.115
  0
VERTEX
  8
SilkScreen
  10
0.728
  20
-1.112
  0
VERTEX
  8
SilkScreen
  10
0.73
  20
-1.106
  0
VERTEX
  8
SilkScreen
  10
0.73
  20
-1.094
  0
VERTEX
  8
SilkScreen
  10
0.728
  20
-1.088
  0
VERTEX
  8
SilkScreen
  10
0.728
  20
-1.085
  0
VERTEX
  8
SilkScreen
  10
0.726
  20
-1.082
  0
VERTEX
  8
SilkScreen
  10
0.724
  20
-1.076
  0
VERTEX
  8
SilkScreen
  10
0.722
  20
-1.073
  0
VERTEX
  8
SilkScreen
  10
0.72
  20
-1.071
  0
VERTEX
  8
SilkScreen
  10
0.719
  20
-1.068
  0
VERTEX
  8
SilkScreen
  10
0.716
  20
-1.066
  0
VERTEX
  8
SilkScreen
  10
0.714
  20
-1.064
  0
VERTEX
  8
SilkScreen
  10
0.712
  20
-1.061
  0
VERTEX
  8
SilkScreen
  10
0.709
  20
-1.06
  0
VERTEX
  8
SilkScreen
  10
0.707
  20
-1.058
  0
VERTEX
  8
SilkScreen
  10
0.704
  20
-1.056
  0
VERTEX
  8
SilkScreen
  10
0.698
  20
-1.054
  0
VERTEX
  8
SilkScreen
  10
0.695
  20
-1.052
  0
VERTEX
  8
SilkScreen
  10
0.692
  20
-1.052
  0
VERTEX
  8
SilkScreen
  10
0.686
  20
-1.05
  0
VERTEX
  8
SilkScreen
  10
-0.686
  20
-1.05
  0
VERTEX
  8
SilkScreen
  10
-0.692
  20
-1.052
  0
VERTEX
  8
SilkScreen
  10
-0.695
  20
-1.052
  0
VERTEX
  8
SilkScreen
  10
-0.698
  20
-1.054
  0
VERTEX
  8
SilkScreen
  10
-0.704
  20
-1.056
  0
VERTEX
  8
SilkScreen
  10
-0.707
  20
-1.058
  0
VERTEX
  8
SilkScreen
  10
-0.709
  20
-1.06
  0
VERTEX
  8
SilkScreen
  10
-0.712
  20
-1.061
  0
VERTEX
  8
SilkScreen
  10
-0.714
  20
-1.064
  0
VERTEX
  8
SilkScreen
  10
-0.716
  20
-1.066
  0
VERTEX
  8
SilkScreen
  10
-0.719
  20
-1.068
  0
VERTEX
  8
SilkScreen
  10
-0.72
  20
-1.071
  0
VERTEX
  8
SilkScreen
  10
-0.722
  20
-1.073
  0
VERTEX
  8
SilkScreen
  10
-0.724
  20
-1.076
  0
VERTEX
  8
SilkScreen
  10
-0.726
  20
-1.082
  0
VERTEX
  8
SilkScreen
  10
-0.728
  20
-1.085
  0
VERTEX
  8
SilkScreen
  10
-0.728
  20
-1.088
  0
VERTEX
  8
SilkScreen
  10
-0.73
  20
-1.094
  0
VERTEX
  8
SilkScreen
  10
-0.73
  20
-1.106
  0
VERTEX
  8
SilkScreen
  10
-0.728
  20
-1.112
  0
VERTEX
  8
SilkScreen
  10
-0.728
  20
-1.115
  0
VERTEX
  8
SilkScreen
  10
-0.726
  20
-1.118
  0
VERTEX
  8
SilkScreen
  10
-0.724
  20
-1.124
  0
VERTEX
  8
SilkScreen
  10
-0.722
  20
-1.127
  0
VERTEX
  8
SilkScreen
  10
-0.72
  20
-1.129
  0
VERTEX
  8
SilkScreen
  10
-0.719
  20
-1.132
  0
VERTEX
  8
SilkScreen
  10
-0.716
  20
-1.134
  0
VERTEX
  8
SilkScreen
  10
-0.714
  20
-1.136
  0
VERTEX
  8
SilkScreen
  10
-0.712
  20
-1.139
  0
VERTEX
  8
SilkScreen
  10
-0.709
  20
-1.14
  0
VERTEX
  8
SilkScreen
  10
-0.707
  20
-1.142
  0
VERTEX
  8
SilkScreen
  10
-0.704
  20
-1.144
  0
VERTEX
  8
SilkScreen
  10
-0.698
  20
-1.146
  0
VERTEX
  8
SilkScreen
  10
-0.695
  20
-1.148
  0
VERTEX
  8
SilkScreen
  10
-0.692
  20
-1.148
  0
VERTEX
  8
SilkScreen
  10
-0.686
  20
-1.15
  0
SEQEND
  0
POLYLINE
  8
SilkScreen
  70
1
  66
1
  0
VERTEX
  8
SilkScreen
  10
0.73
  20
-0.444
  0
VERTEX
  8
SilkScreen
  10
0.728
  20
-0.438
  0
VERTEX
  8
SilkScreen
  10
0.728
  20
-0.435
  0
VERTEX
  8
SilkScreen
  10
0.726
  20
-0.432
  0
VERTEX
  8
SilkScreen
  10
0.724
  20
-0.426
  0
VERTEX
  8
SilkScreen
  10
0.722
  20
-0.423
  0
VERTEX
  8
SilkScreen
  10
0.72
  20
-0.421
  0
VERTEX
  8
SilkScreen
  10
0.719
  20
-0.418
  0
VERTEX
  8
SilkScreen
  10
0.716
  20
-0.416
  0
VERTEX
  8
SilkScreen
  10
0.714
  20
-0.414
  0
VERTEX
  8
SilkScreen
  10
0.712
  20
-0.411
  0
VERTEX
  8
SilkScreen
  10
0.709
  20
-0.41
  0
VERTEX
  8
SilkScreen
  10
0.707
  20
-0.408
  0
VERTEX
  8
SilkScreen
  10
0.704
  20
-0.406
  0
VERTEX
  8
SilkScreen
  10
0.698
  20
-0.404
  0
VERTEX
  8
SilkScreen
  10
0.695
  20
-0.402
  0
VERTEX
  8
SilkScreen
  10
0.692
  20
-0.402
  0
VERTEX
  8
SilkScreen
  10
0.686
  20
-0.4
  0
VERTEX
  8
SilkScreen
  10
0.674
  20
-0.4
  0
VERTEX
  8
SilkScreen
  10
0.668
  20
-0.402
  0
VERTEX
  8
SilkScreen
  10
0.665
  20
-0.402
  0
VERTEX
  8
SilkScreen
  10
0.662
  20
-0.404
  0
VERTEX
  8
SilkScreen
  10
0.656
  20
-0.406
  0
VERTEX
  8
SilkScreen
  10
0.653
  20
-0.408
  0
VERTEX
  8
SilkScreen
  10
0.651
  20
-0.41
  0
VERTEX
  8
SilkScreen
  10
0.648
  20
-0.411
  0
VERTEX
  8
SilkScreen
  10
0.646
  20
-0.414
  0
VERTEX
  8
SilkScreen
  10
0.644
  20
-0.416
  0
VERTEX
  8
SilkScreen
  10
0.641
  20
-0.418
  0
VERTEX
  8
SilkScreen
  10
0.64
  20
-0.421
  0
VERTEX
  8
SilkScreen
  10
0.638
  20
-0.423
  0
VERTEX
  8
SilkScreen
  10
0.636
  20
-0.426
  0
VERTEX
  8
SilkScreen
  10
0.634
  20
-0.432
  0
VERTEX
  8
SilkScreen
  10
0.632
  20
-0.435
  0
VERTEX
  8
SilkScreen
  10
0.632
  20
-0.438
  0
VERTEX
  8
SilkScreen
  10
0.63
  20
-0.444
  0
VERTEX
  8
SilkScreen
  10
0.63
  20
-1.106
  0
VERTEX
  8
SilkScreen
  10
0.632
  20
-1.112
  0
VERTEX
  8
SilkScreen
  10
0.632
  20
-1.115
  0
VERTEX
  8
SilkScreen
  10
0.634
  20
-1.118
  0
VERTEX
  8
SilkScreen
  10
0.636
  20
-1.124
  0
VERTEX
  8
SilkScreen
  10
0.638
  20
-1.127
  0
VERTEX
  8
SilkScreen
  10
0.64
  20
-1.129
  0
VERTEX
  8
SilkScreen
  10
0.641
  20
-1.132
  0
VERTEX
  8
SilkScreen
  10
0.644
  20
-1.134
  0
VERTEX
  8
SilkScreen
  10
0.646
  20
-1.136
  0
VERTEX
  8
SilkScreen
  10
0.648
  20
-1.139
  0
VERTEX
  8
SilkScreen
  10
0.651
  20
-1.14
  0
VERTEX
  8
SilkScreen
  10
0.653
  20
-1.142
  0
VERTEX
  8
SilkScreen
  10
0.656
  20
-1.144
  0
VERTEX
  8
SilkScreen
  10
0.662
  20
-1.146
  0
VERTEX
  8
SilkScreen
  10
0.665
  20
-1.148
  0
VERTEX
  8
SilkScreen
  10
0.668
  20
-1.148
  0
VERTEX
  8
SilkScreen
  10
0.674
  20
-1.15
  0
VERTEX
  8
SilkScreen
  10
0.686
  20
-1.15
  0
VERTEX
  8
SilkScreen
  10
0.692
  20
-1.148
  0
VERTEX
  8
SilkScreen
  10
0.695
  20
-1.148
  0
VERTEX
  8
SilkScreen
  10
0.698
  20
-1.146
  0
VERTEX
  8
SilkScreen
  10
0.704
  20
-1.144
  0
VERTEX
  8
SilkScreen
  10
0.707
  20
-1.142
  0
VERTEX
  8
SilkScreen
  10
0.709
  20
-1.14
  0
VERTEX
  8
SilkScreen
  10
0.712
  20
-1.139
  0
VERTEX
  8
SilkScreen
  10
0.714
  20
-1.136
  0
VERTEX
  8
SilkScreen
  10
0.716
  20
-1.134
  0
VERTEX
  8
SilkScreen
  10
0.719
  20
-1.132
  0
VERTEX
  8
SilkScreen
  10
0.72
  20
-1.129
  0
VERTEX
  8
SilkScreen
  10
0.722
  20
-1.127
  0
VERTEX
  8
SilkScreen
  10
0.724
  20
-1.124
  0
VERTEX
  8
SilkScreen
  10
0.726
  20
-1.118
  0
VERTEX
  8
SilkScreen
  10
0.728
  20
-1.115
  0
VERTEX
  8
SilkScreen
  10
0.728
  20
-1.112
  0
VERTEX
  8
SilkScreen
  10
0.73
  20
-1.106
  0
SEQEND
  0
POLYLINE
  8
SilkScreen
  70
1
  66
1
  0
VERTEX
  8
SilkScreen
  10
0.63
  20
0.444
  0
VERTEX
  8
SilkScreen
  10
0.632
  20
0.438
  0
VERTEX
  8
SilkScreen
  10
0.632
  20
0.435
  0
VERTEX
  8
SilkScreen
  10
0.634
  20
0.432
  0
VERTEX
  8
SilkScreen
  10
0.636
  20
0.426
  0
VERTEX
  8
SilkScreen
  10
0.638
  20
0.423
  0
VERTEX
  8
SilkScreen
  10
0.64
  20
0.421
  0
VERTEX
  8
SilkScreen
  10
0.641
  20
0.418
  0
VERTEX
  8
SilkScreen
  10
0.644
  20
0.416
  0
VERTEX
  8
SilkScreen
  10
0.646
  20
0.414
  0
VERTEX
  8
SilkScreen
  10
0.648
  20
0.411
  0
VERTEX
  8
SilkScreen
  10
0.651
  20
0.41
  0
VERTEX
  8
SilkScreen
  10
0.653
  20
0.408
  0
VERTEX
  8
SilkScreen
  10
0.656
  20
0.406
  0
VERTEX
  8
SilkScreen
  10
0.662
  20
0.404
  0
VERTEX
  8
SilkScreen
  10
0.665
  20
0.402
  0
VERTEX
  8
SilkScreen
  10
0.668
  20
0.402
  0
VERTEX
  8
SilkScreen
  10
0.674
  20
0.4
  0
VERTEX
  8
SilkScreen
  10
0.686
  20
0.4
  0
VERTEX
  8
SilkScreen
  10
0.692
  20
0.402
  0
VERTEX
  8
SilkScreen
  10
0.695
  20
0.402
  0
VERTEX
  8
SilkScreen
  10
0.698
  20
0.404
  0
VERTEX
  8
SilkScreen
  10
0.704
  20
0.406
  0
VERTEX
  8
SilkScreen
  10
0.707
  20
0.408
  0
VERTEX
  8
SilkScreen
  10
0.709
  20
0.41
  0
VERTEX
  8
SilkScreen
  10
0.712
  20
0.411
  0
VERTEX
  8
SilkScreen
  10
0.714
  20
0.414
  0
VERTEX
  8
SilkScreen
  10
0.716
  20
0.416
  0
VERTEX
  8
SilkScreen
  10
0.719
  20
0.418
  0
VERTEX
  8
SilkScreen
  10
0.72
  20
0.421
  0
VERTEX
  8
SilkScreen
  10
0.722
  20
0.423
  0
VERTEX
  8
SilkScreen
  10
0.724
  20
0.426
  0
VERTEX
  8
SilkScreen
  10
0.726
  20
0.432
  0
VERTEX
  8
SilkScreen
  10
0.728
  20
0.435
  0
VERTEX
  8
SilkScreen
  10
0.728
  20
0.438
  0
VERTEX
  8
SilkScreen
  10
0.73
  20
0.444
  0
VERTEX
  8
SilkScreen
  10
0.73
  20
1.106
  0
VERTEX
  8
SilkScreen
  10
0.728
  20
1.112
  0
VERTEX
  8
SilkScreen
  10
0.728
  20
1.115
  0
VERTEX
  8
SilkScreen
  10
0.726
  20
1.118
  0
VERTEX
  8
SilkScreen
  10
0.724
  20
1.124
  0
VERTEX
  8
SilkScreen
  10
0.722
  20
1.127
  0
VERTEX
  8
SilkScreen
  10
0.72
  20
1.129
  0
VERTEX
  8
SilkScreen
  10
0.719
  20
1.132
  0
VERTEX
  8
SilkScreen
  10
0.716
  20
1.134
  0
VERTEX
  8
SilkScreen
  10
0.714
  20
1.136
  0
VERTEX
  8
SilkScreen
  10
0.712
  20
1.139
  0
VERTEX
  8
SilkScreen
  10
0.709
  20
1.14
  0
VERTEX
  8
SilkScreen
  10
0.707
  20
1.142
  0
VERTEX
  8
SilkScreen
  10
0.704
  20
1.144
  0
VERTEX
  8
SilkScreen
  10
0.698
  20
1.146
  0
VERTEX
  8
SilkScreen
  10
0.695
  20
1.148
  0
VERTEX
  8
SilkScreen
  10
0.692
  20
1.148
  0
VERTEX
  8
SilkScreen
  10
0.686
  20
1.15
  0
VERTEX
  8
SilkScreen
  10
0.674
  20
1.15
  0
VERTEX
  8
SilkScreen
  10
0.668
  20
1.148
  0
VERTEX
  8
SilkScreen
  10
0.665
  20
1.148
  0
VERTEX
  8
SilkScreen
  10
0.662
  20
1.146
  0
VERTEX
  8
SilkScreen
  10
0.656
  20
1.144
  0
VERTEX
  8
SilkScreen
  10
0.653
  20
1.142
  0
VERTEX
  8
SilkScreen
  10
0.651
  20
1.14
  0
VERTEX
  8
SilkScreen
  10
0.648
  20
1.139
  0
VERTEX
  8
SilkScreen
  10
0.646
  20
1.136
  0
VERTEX
  8
SilkScreen
  10
0.644
  20
1.134
  0
VERTEX
  8
SilkScreen
  10
0.641
  20
1.132
  0
VERTEX
  8
SilkScreen
  10
0.64
  20
1.129
  0
VERTEX
  8
SilkScreen
  10
0.638
  20
1.127
  0
VERTEX
  8
SilkScreen
  10
0.636
  20
1.124
  0
VERTEX
  8
SilkScreen
  10
0.634
  20
1.118
  0
VERTEX
  8
SilkScreen
  10
0.632
  20
1.115
  0
VERTEX
  8
SilkScreen
  10
0.632
  20
1.112
  0
VERTEX
  8
SilkScreen
  10
0.63
  20
1.106
  0
SEQEND
  0
POLYLINE
  8
KeepOut
  70
1
  66
1
  0
VERTEX
  8
KeepOut
  10
1.325
  20
1.195
  0
VERTEX
  8
KeepOut
  10
1.326
  20
1.196
  0
VERTEX
  8
KeepOut
  10
1.328
  20
1.196
  0
VERTEX
  8
KeepOut
  10
1.329
  20
1.197
  0
VERTEX
  8
KeepOut
  10
1.331
  20
1.197
  0
VERTEX
  8
KeepOut
  10
1.333
  20
1.199
  0
VERTEX
  8
KeepOut
  10
1.335
  20
1.2
  0
VERTEX
  8
KeepOut
  10
1.34
  20
1.205
  0
VERTEX
  8
KeepOut
  10
1.341
  20
1.207
  0
VERTEX
  8
KeepOut
  10
1.343
  20
1.209
  0
VERTEX
  8
KeepOut
  10
1.343
  20
1.211
  0
VERTEX
  8
KeepOut
  10
1.344
  20
1.212
  0
VERTEX
  8
KeepOut
  10
1.344
  20
1.214
  0
VERTEX
  8
KeepOut
  10
1.345
  20
1.215
  0
VERTEX
  8
KeepOut
  10
1.345
  20
1.225
  0
VERTEX
  8
KeepOut
  10
1.344
  20
1.226
  0
VERTEX
  8
KeepOut
  10
1.344
  20
1.228
  0
VERTEX
  8
KeepOut
  10
1.343
  20
1.229
  0
VERTEX
  8
KeepOut
  10
1.343
  20
1.231
  0
VERTEX
  8
KeepOut
  10
1.341
  20
1.233
  0
VERTEX
  8
KeepOut
  10
1.34
  20
1.235
  0
VERTEX
  8
KeepOut
  10
1.335
  20
1.24
  0
VERTEX
  8
KeepOut
  10
1.333
  20
1.241
  0
VERTEX
  8
KeepOut
  10
1.331
  20
1.243
  0
VERTEX
  8
KeepOut
  10
1.329
  20
1.243
  0
VERTEX
  8
KeepOut
  10
1.328
  20
1.244
  0
VERTEX
  8
KeepOut
  10
1.326
  20
1.244
  0
VERTEX
  8
KeepOut
  10
1.325
  20
1.245
  0
VERTEX
  8
KeepOut
  10
-1.325
  20
1.245
  0
VERTEX
  8
KeepOut
  10
-1.326
  20
1.244
  0
VERTEX
  8
KeepOut
  10
-1.328
  20
1.244
  0
VERTEX
  8
KeepOut
  10
-1.329
  20
1.243
  0
VERTEX
  8
KeepOut
  10
-1.331
  20
1.243
  0
VERTEX
  8
KeepOut
  10
-1.333
  20
1.241
  0
VERTEX
  8
KeepOut
  10
-1.335
  20
1.24
  0
VERTEX
  8
KeepOut
  10
-1.34
  20
1.235
  0
VERTEX
  8
KeepOut
  10
-1.341
  20
1.233
  0
VERTEX
  8
KeepOut
  10
-1.343
  20
1.231
  0
VERTEX
  8
KeepOut
  10
-1.343
  20
1.229
  0
VERTEX
  8
KeepOut
  10
-1.344
  20
1.228
  0
VERTEX
  8
KeepOut
  10
-1.344
  20
1.226
  0
VERTEX
  8
KeepOut
  10
-1.345
  20
1.225
  0
VERTEX
  8
KeepOut
  10
-1.345
  20
1.215
  0
VERTEX
  8
KeepOut
  10
-1.344
  20
1.214
  0
VERTEX
  8
KeepOut
  10
-1.344
  20
1.212
  0
VERTEX
  8
KeepOut
  10
-1.343
  20
1.211
  0
VERTEX
  8
KeepOut
  10
-1.343
  20
1.209
  0
VERTEX
  8
KeepOut
  10
-1.341
  20
1.207
  0
VERTEX
  8
KeepOut
  10
-1.34
  20
1.205
  0
VERTEX
  8
KeepOut
  10
-1.335
  20
1.2
  0
VERTEX
  8
KeepOut
  10
-1.333
  20
1.199
  0
VERTEX
  8
KeepOut
  10
-1.331
  20
1.197
  0
VERTEX
  8
KeepOut
  10
-1.329
  20
1.197
  0
VERTEX
  8
KeepOut
  10
-1.328
  20
1.196
  0
VERTEX
  8
KeepOut
  10
-1.326
  20
1.196
  0
VERTEX
  8
KeepOut
  10
-1.325
  20
1.195
  0
SEQEND
  0
POLYLINE
  8
KeepOut
  70
1
  66
1
  0
VERTEX
  8
KeepOut
  10
-1.325
  20
-1.195
  0
VERTEX
  8
KeepOut
  10
-1.326
  20
-1.196
  0
VERTEX
  8
KeepOut
  10
-1.328
  20
-1.196
  0
VERTEX
  8
KeepOut
  10
-1.329
  20
-1.197
  0
VERTEX
  8
KeepOut
  10
-1.331
  20
-1.197
  0
VERTEX
  8
KeepOut
  10
-1.333
  20
-1.199
  0
VERTEX
  8
KeepOut
  10
-1.335
  20
-1.2
  0
VERTEX
  8
KeepOut
  10
-1.34
  20
-1.205
  0
VERTEX
  8
KeepOut
  10
-1.341
  20
-1.207
  0
VERTEX
  8
KeepOut
  10
-1.343
  20
-1.209
  0
VERTEX
  8
KeepOut
  10
-1.343
  20
-1.211
  0
VERTEX
  8
KeepOut
  10
-1.344
  20
-1.212
  0
VERTEX
  8
KeepOut
  10
-1.344
  20
-1.214
  0
VERTEX
  8
KeepOut
  10
-1.345
  20
-1.215
  0
VERTEX
  8
KeepOut
  10
-1.345
  20
-1.225
  0
VERTEX
  8
KeepOut
  10
-1.344
  20
-1.226
  0
VERTEX
  8
KeepOut
  10
-1.344
  20
-1.228
  0
VERTEX
  8
KeepOut
  10
-1.343
  20
-1.229
  0
VERTEX
  8
KeepOut
  10
-1.343
  20
-1.231
  0
VERTEX
  8
KeepOut
  10
-1.341
  20
-1.233
  0
VERTEX
  8
KeepOut
  10
-1.34
  20
-1.235
  0
VERTEX
  8
KeepOut
  10
-1.335
  20
-1.24
  0
VERTEX
  8
KeepOut
  10
-1.333
  20
-1.241
  0
VERTEX
  8
KeepOut
  10
-1.331
  20
-1.243
  0
VERTEX
  8
KeepOut
  10
-1.329
  20
-1.243
  0
VERTEX
  8
KeepOut
  10
-1.328
  20
-1.244
  0
VERTEX
  8
KeepOut
  10
-1.326
  20
-1.244
  0
VERTEX
  8
KeepOut
  10
-1.325
  20
-1.245
  0
VERTEX
  8
KeepOut
  10
1.325
  20
-1.245
  0
VERTEX
  8
KeepOut
  10
1.326
  20
-1.244
  0
VERTEX
  8
KeepOut
  10
1.328
  20
-1.244
  0
VERTEX
  8
KeepOut
  10
1.329
  20
-1.243
  0
VERTEX
  8
KeepOut
  10
1.331
  20
-1.243
  0
VERTEX
  8
KeepOut
  10
1.333
  20
-1.241
  0
VERTEX
  8
KeepOut
  10
1.335
  20
-1.24
  0
VERTEX
  8
KeepOut
  10
1.34
  20
-1.235
  0
VERTEX
  8
KeepOut
  10
1.341
  20
-1.233
  0
VERTEX
  8
KeepOut
  10
1.343
  20
-1.231
  0
VERTEX
  8
KeepOut
  10
1.343
  20
-1.229
  0
VERTEX
  8
KeepOut
  10
1.344
  20
-1.228
  0
VERTEX
  8
KeepOut
  10
1.344
  20
-1.226
  0
VERTEX
  8
KeepOut
  10
1.345
  20
-1.225
  0
VERTEX
  8
KeepOut
  10
1.345
  20
-1.215
  0
VERTEX
  8
KeepOut
  10
1.344
  20
-1.214
  0
VERTEX
  8
KeepOut
  10
1.344
  20
-1.212
  0
VERTEX
  8
KeepOut
  10
1.343
  20
-1.211
  0
VERTEX
  8
KeepOut
  10
1.343
  20
-1.209
  0
VERTEX
  8
KeepOut
  10
1.341
  20
-1.207
  0
VERTEX
  8
KeepOut
  10
1.34
  20
-1.205
  0
VERTEX
  8
KeepOut
  10
1.335
  20
-1.2
  0
VERTEX
  8
KeepOut
  10
1.333
  20
-1.199
  0
VERTEX
  8
KeepOut
  10
1.331
  20
-1.197
  0
VERTEX
  8
KeepOut
  10
1.329
  20
-1.197
  0
VERTEX
  8
KeepOut
  10
1.328
  20
-1.196
  0
VERTEX
  8
KeepOut
  10
1.326
  20
-1.196
  0
VERTEX
  8
KeepOut
  10
1.325
  20
-1.195
  0
SEQEND
  0
POLYLINE
  8
KeepOut
  70
1
  66
1
  0
VERTEX
  8
KeepOut
  10
-1.295
  20
1.225
  0
VERTEX
  8
KeepOut
  10
-1.296
  20
1.226
  0
VERTEX
  8
KeepOut
  10
-1.296
  20
1.228
  0
VERTEX
  8
KeepOut
  10
-1.297
  20
1.229
  0
VERTEX
  8
KeepOut
  10
-1.297
  20
1.231
  0
VERTEX
  8
KeepOut
  10
-1.299
  20
1.233
  0
VERTEX
  8
KeepOut
  10
-1.3
  20
1.235
  0
VERTEX
  8
KeepOut
  10
-1.305
  20
1.24
  0
VERTEX
  8
KeepOut
  10
-1.307
  20
1.241
  0
VERTEX
  8
KeepOut
  10
-1.309
  20
1.243
  0
VERTEX
  8
KeepOut
  10
-1.311
  20
1.243
  0
VERTEX
  8
KeepOut
  10
-1.312
  20
1.244
  0
VERTEX
  8
KeepOut
  10
-1.314
  20
1.244
  0
VERTEX
  8
KeepOut
  10
-1.315
  20
1.245
  0
VERTEX
  8
KeepOut
  10
-1.325
  20
1.245
  0
VERTEX
  8
KeepOut
  10
-1.326
  20
1.244
  0
VERTEX
  8
KeepOut
  10
-1.328
  20
1.244
  0
VERTEX
  8
KeepOut
  10
-1.329
  20
1.243
  0
VERTEX
  8
KeepOut
  10
-1.331
  20
1.243
  0
VERTEX
  8
KeepOut
  10
-1.333
  20
1.241
  0
VERTEX
  8
KeepOut
  10
-1.335
  20
1.24
  0
VERTEX
  8
KeepOut
  10
-1.34
  20
1.235
  0
VERTEX
  8
KeepOut
  10
-1.341
  20
1.233
  0
VERTEX
  8
KeepOut
  10
-1.343
  20
1.231
  0
VERTEX
  8
KeepOut
  10
-1.343
  20
1.229
  0
VERTEX
  8
KeepOut
  10
-1.344
  20
1.228
  0
VERTEX
  8
KeepOut
  10
-1.344
  20
1.226
  0
VERTEX
  8
KeepOut
  10
-1.345
  20
1.225
  0
VERTEX
  8
KeepOut
  10
-1.345
  20
-1.225
  0
VERTEX
  8
KeepOut
  10
-1.344
  20
-1.226
  0
VERTEX
  8
KeepOut
  10
-1.344
  20
-1.228
  0
VERTEX
  8
KeepOut
  10
-1.343
  20
-1.229
  0
VERTEX
  8
KeepOut
  10
-1.343
  20
-1.231
  0
VERTEX
  8
KeepOut
  10
-1.341
  20
-1.233
  0
VERTEX
  8
KeepOut
  10
-1.34
  20
-1.235
  0
VERTEX
  8
KeepOut
  10
-1.335
  20
-1.24
  0
VERTEX
  8
KeepOut
  10
-1.333
  20
-1.241
  0
VERTEX
  8
KeepOut
  10
-1.331
  20
-1.243
  0
VERTEX
  8
KeepOut
  10
-1.329
  20
-1.243
  0
VERTEX
  8
KeepOut
  10
-1.328
  20
-1.244
  0
VERTEX
  8
KeepOut
  10
-1.326
  20
-1.244
  0
VERTEX
  8
KeepOut
  10
-1.325
  20
-1.245
  0
VERTEX
  8
KeepOut
  10
-1.315
  20
-1.245
  0
VERTEX
  8
KeepOut
  10
-1.314
  20
-1.244
  0
VERTEX
  8
KeepOut
  10
-1.312
  20
-1.244
  0
VERTEX
  8
KeepOut
  10
-1.311
  20
-1.243
  0
VERTEX
  8
KeepOut
  10
-1.309
  20
-1.243
  0
VERTEX
  8
KeepOut
  10
-1.307
  20
-1.241
  0
VERTEX
  8
KeepOut
  10
-1.305
  20
-1.24
  0
VERTEX
  8
KeepOut
  10
-1.3
  20
-1.235
  0
VERTEX
  8
KeepOut
  10
-1.299
  20
-1.233
  0
VERTEX
  8
KeepOut
  10
-1.297
  20
-1.231
  0
VERTEX
  8
KeepOut
  10
-1.297
  20
-1.229
  0
VERTEX
  8
KeepOut
  10
-1.296
  20
-1.228
  0
VERTEX
  8
KeepOut
  10
-1.296
  20
-1.226
  0
VERTEX
  8
KeepOut
  10
-1.295
  20
-1.225
  0
SEQEND
  0
POLYLINE
  8
KeepOut
  70
1
  66
1
  0
VERTEX
  8
KeepOut
  10
1.295
  20
-1.225
  0
VERTEX
  8
KeepOut
  10
1.296
  20
-1.226
  0
VERTEX
  8
KeepOut
  10
1.296
  20
-1.228
  0
VERTEX
  8
KeepOut
  10
1.297
  20
-1.229
  0
VERTEX
  8
KeepOut
  10
1.297
  20
-1.231
  0
VERTEX
  8
KeepOut
  10
1.299
  20
-1.233
  0
VERTEX
  8
KeepOut
  10
1.3
  20
-1.235
  0
VERTEX
  8
KeepOut
  10
1.305
  20
-1.24
  0
VERTEX
  8
KeepOut
  10
1.307
  20
-1.241
  0
VERTEX
  8
KeepOut
  10
1.309
  20
-1.243
  0
VERTEX
  8
KeepOut
  10
1.311
  20
-1.243
  0
VERTEX
  8
KeepOut
  10
1.312
  20
-1.244
  0
VERTEX
  8
KeepOut
  10
1.314
  20
-1.244
  0
VERTEX
  8
KeepOut
  10
1.315
  20
-1.245
  0
VERTEX
  8
KeepOut
  10
1.325
  20
-1.245
  0
VERTEX
  8
KeepOut
  10
1.326
  20
-1.244
  0
VERTEX
  8
KeepOut
  10
1.328
  20
-1.244
  0
VERTEX
  8
KeepOut
  10
1.329
  20
-1.243
  0
VERTEX
  8
KeepOut
  10
1.331
  20
-1.243
  0
VERTEX
  8
KeepOut
  10
1.333
  20
-1.241
  0
VERTEX
  8
KeepOut
  10
1.335
  20
-1.24
  0
VERTEX
  8
KeepOut
  10
1.34
  20
-1.235
  0
VERTEX
  8
KeepOut
  10
1.341
  20
-1.233
  0
VERTEX
  8
KeepOut
  10
1.343
  20
-1.231
  0
VERTEX
  8
KeepOut
  10
1.343
  20
-1.229
  0
VERTEX
  8
KeepOut
  10
1.344
  20
-1.228
  0
VERTEX
  8
KeepOut
  10
1.344
  20
-1.226
  0
VERTEX
  8
KeepOut
  10
1.345
  20
-1.225
  0
VERTEX
  8
KeepOut
  10
1.345
  20
1.225
  0
VERTEX
  8
KeepOut
  10
1.344
  20
1.226
  0
VERTEX
  8
KeepOut
  10
1.344
  20
1.228
  0
VERTEX
  8
KeepOut
  10
1.343
  20
1.229
  0
VERTEX
  8
KeepOut
  10
1.343
  20
1.231
  0
VERTEX
  8
KeepOut
  10
1.341
  20
1.233
  0
VERTEX
  8
KeepOut
  10
1.34
  20
1.235
  0
VERTEX
  8
KeepOut
  10
1.335
  20
1.24
  0
VERTEX
  8
KeepOut
  10
1.333
  20
1.241
  0
VERTEX
  8
KeepOut
  10
1.331
  20
1.243
  0
VERTEX
  8
KeepOut
  10
1.329
  20
1.243
  0
VERTEX
  8
KeepOut
  10
1.328
  20
1.244
  0
VERTEX
  8
KeepOut
  10
1.326
  20
1.244
  0
VERTEX
  8
KeepOut
  10
1.325
  20
1.245
  0
VERTEX
  8
KeepOut
  10
1.315
  20
1.245
  0
VERTEX
  8
KeepOut
  10
1.314
  20
1.244
  0
VERTEX
  8
KeepOut
  10
1.312
  20
1.244
  0
VERTEX
  8
KeepOut
  10
1.311
  20
1.243
  0
VERTEX
  8
KeepOut
  10
1.309
  20
1.243
  0
VERTEX
  8
KeepOut
  10
1.307
  20
1.241
  0
VERTEX
  8
KeepOut
  10
1.305
  20
1.24
  0
VERTEX
  8
KeepOut
  10
1.3
  20
1.235
  0
VERTEX
  8
KeepOut
  10
1.299
  20
1.233
  0
VERTEX
  8
KeepOut
  10
1.297
  20
1.231
  0
VERTEX
  8
KeepOut
  10
1.297
  20
1.229
  0
VERTEX
  8
KeepOut
  10
1.296
  20
1.228
  0
VERTEX
  8
KeepOut
  10
1.296
  20
1.226
  0
VERTEX
  8
KeepOut
  10
1.295
  20
1.225
  0
SEQEND
  0
POLYLINE
  8
KeepOut
  70
1
  66
1
  0
VERTEX
  8
KeepOut
  10
-0.355
  20
0.025
  0
VERTEX
  8
KeepOut
  10
-0.356
  20
0.024
  0
VERTEX
  8
KeepOut
  10
-0.358
  20
0.024
  0
VERTEX
  8
KeepOut
  10
-0.359
  20
0.023
  0
VERTEX
  8
KeepOut
  10
-0.361
  20
0.023
  0
VERTEX
  8
KeepOut
  10
-0.363
  20
0.021
  0
VERTEX
  8
KeepOut
  10
-0.365
  20
0.02
  0
VERTEX
  8
KeepOut
  10
-0.37
  20
0.015
  0
VERTEX
  8
KeepOut
  10
-0.371
  20
0.013
  0
VERTEX
  8
KeepOut
  10
-0.373
  20
0.011
  0
VERTEX
  8
KeepOut
  10
-0.373
  20
0.009
  0
VERTEX
  8
KeepOut
  10
-0.374
  20
0.008
  0
VERTEX
  8
KeepOut
  10
-0.374
  20
0.006
  0
VERTEX
  8
KeepOut
  10
-0.375
  20
0.005
  0
VERTEX
  8
KeepOut
  10
-0.375
  20
-0.005
  0
VERTEX
  8
KeepOut
  10
-0.374
  20
-0.006
  0
VERTEX
  8
KeepOut
  10
-0.374
  20
-0.008
  0
VERTEX
  8
KeepOut
  10
-0.373
  20
-0.009
  0
VERTEX
  8
KeepOut
  10
-0.373
  20
-0.011
  0
VERTEX
  8
KeepOut
  10
-0.371
  20
-0.013
  0
VERTEX
  8
KeepOut
  10
-0.37
  20
-0.015
  0
VERTEX
  8
KeepOut
  10
-0.365
  20
-0.02
  0
VERTEX
  8
KeepOut
  10
-0.363
  20
-0.021
  0
VERTEX
  8
KeepOut
  10
-0.361
  20
-0.023
  0
VERTEX
  8
KeepOut
  10
-0.359
  20
-0.023
  0
VERTEX
  8
KeepOut
  10
-0.358
  20
-0.024
  0
VERTEX
  8
KeepOut
  10
-0.356
  20
-0.024
  0
VERTEX
  8
KeepOut
  10
-0.355
  20
-0.025
  0
VERTEX
  8
KeepOut
  10
0.355
  20
-0.025
  0
VERTEX
  8
KeepOut
  10
0.356
  20
-0.024
  0
VERTEX
  8
KeepOut
  10
0.358
  20
-0.024
  0
VERTEX
  8
KeepOut
  10
0.359
  20
-0.023
  0
VERTEX
  8
KeepOut
  10
0.361
  20
-0.023
  0
VERTEX
  8
KeepOut
  10
0.363
  20
-0.021
  0
VERTEX
  8
KeepOut
  10
0.365
  20
-0.02
  0
VERTEX
  8
KeepOut
  10
0.37
  20
-0.015
  0
VERTEX
  8
KeepOut
  10
0.371
  20
-0.013
  0
VERTEX
  8
KeepOut
  10
0.373
  20
-0.011
  0
VERTEX
  8
KeepOut
  10
0.373
  20
-0.009
  0
VERTEX
  8
KeepOut
  10
0.374
  20
-0.008
  0
VERTEX
  8
KeepOut
  10
0.374
  20
-0.006
  0
VERTEX
  8
KeepOut
  10
0.375
  20
-0.005
  0
VERTEX
  8
KeepOut
  10
0.375
  20
0.005
  0
VERTEX
  8
KeepOut
  10
0.374
  20
0.006
  0
VERTEX
  8
KeepOut
  10
0.374
  20
0.008
  0
VERTEX
  8
KeepOut
  10
0.373
  20
0.009
  0
VERTEX
  8
KeepOut
  10
0.373
  20
0.011
  0
VERTEX
  8
KeepOut
  10
0.371
  20
0.013
  0
VERTEX
  8
KeepOut
  10
0.37
  20
0.015
  0
VERTEX
  8
KeepOut
  10
0.365
  20
0.02
  0
VERTEX
  8
KeepOut
  10
0.363
  20
0.021
  0
VERTEX
  8
KeepOut
  10
0.361
  20
0.023
  0
VERTEX
  8
KeepOut
  10
0.359
  20
0.023
  0
VERTEX
  8
KeepOut
  10
0.358
  20
0.024
  0
VERTEX
  8
KeepOut
  10
0.356
  20
0.024
  0
VERTEX
  8
KeepOut
  10
0.355
  20
0.025
  0
SEQEND
  0
POLYLINE
  8
KeepOut
  70
1
  66
1
  0
VERTEX
  8
KeepOut
  10
-0.025
  20
-0.355
  0
VERTEX
  8
KeepOut
  10
-0.024
  20
-0.356
  0
VERTEX
  8
KeepOut
  10
-0.024
  20
-0.358
  0
VERTEX
  8
KeepOut
  10
-0.023
  20
-0.359
  0
VERTEX
  8
KeepOut
  10
-0.023
  20
-0.361
  0
VERTEX
  8
KeepOut
  10
-0.021
  20
-0.363
  0
VERTEX
  8
KeepOut
  10
-0.02
  20
-0.365
  0
VERTEX
  8
KeepOut
  10
-0.015
  20
-0.37
  0
VERTEX
  8
KeepOut
  10
-0.013
  20
-0.371
  0
VERTEX
  8
KeepOut
  10
-0.011
  20
-0.373
  0
VERTEX
  8
KeepOut
  10
-0.009
  20
-0.373
  0
VERTEX
  8
KeepOut
  10
-0.008
  20
-0.374
  0
VERTEX
  8
KeepOut
  10
-0.006
  20
-0.374
  0
VERTEX
  8
KeepOut
  10
-0.005
  20
-0.375
  0
VERTEX
  8
KeepOut
  10
0.005
  20
-0.375
  0
VERTEX
  8
KeepOut
  10
0.006
  20
-0.374
  0
VERTEX
  8
KeepOut
  10
0.008
  20
-0.374
  0
VERTEX
  8
KeepOut
  10
0.009
  20
-0.373
  0
VERTEX
  8
KeepOut
  10
0.011
  20
-0.373
  0
VERTEX
  8
KeepOut
  10
0.013
  20
-0.371
  0
VERTEX
  8
KeepOut
  10
0.015
  20
-0.37
  0
VERTEX
  8
KeepOut
  10
0.02
  20
-0.365
  0
VERTEX
  8
KeepOut
  10
0.021
  20
-0.363
  0
VERTEX
  8
KeepOut
  10
0.023
  20
-0.361
  0
VERTEX
  8
KeepOut
  10
0.023
  20
-0.359
  0
VERTEX
  8
KeepOut
  10
0.024
  20
-0.358
  0
VERTEX
  8
KeepOut
  10
0.024
  20
-0.356
  0
VERTEX
  8
KeepOut
  10
0.025
  20
-0.355
  0
VERTEX
  8
KeepOut
  10
0.025
  20
0.355
  0
VERTEX
  8
KeepOut
  10
0.024
  20
0.356
  0
VERTEX
  8
KeepOut
  10
0.024
  20
0.358
  0
VERTEX
  8
KeepOut
  10
0.023
  20
0.359
  0
VERTEX
  8
KeepOut
  10
0.023
  20
0.361
  0
VERTEX
  8
KeepOut
  10
0.021
  20
0.363
  0
VERTEX
  8
KeepOut
  10
0.02
  20
0.365
  0
VERTEX
  8
KeepOut
  10
0.015
  20
0.37
  0
VERTEX
  8
KeepOut
  10
0.013
  20
0.371
  0
VERTEX
  8
KeepOut
  10
0.011
  20
0.373
  0
VERTEX
  8
KeepOut
  10
0.009
  20
0.373
  0
VERTEX
  8
KeepOut
  10
0.008
  20
0.374
  0
VERTEX
  8
KeepOut
  10
0.006
  20
0.374
  0
VERTEX
  8
KeepOut
  10
0.005
  20
0.375
  0
VERTEX
  8
KeepOut
  10
-0.005
  20
0.375
  0
VERTEX
  8
KeepOut
  10
-0.006
  20
0.374
  0
VERTEX
  8
KeepOut
  10
-0.008
  20
0.374
  0
VERTEX
  8
KeepOut
  10
-0.009
  20
0.373
  0
VERTEX
  8
KeepOut
  10
-0.011
  20
0.373
  0
VERTEX
  8
KeepOut
  10
-0.013
  20
0.371
  0
VERTEX
  8
KeepOut
  10
-0.015
  20
0.37
  0
VERTEX
  8
KeepOut
  10
-0.02
  20
0.365
  0
VERTEX
  8
KeepOut
  10
-0.021
  20
0.363
  0
VERTEX
  8
KeepOut
  10
-0.023
  20
0.361
  0
VERTEX
  8
KeepOut
  10
-0.023
  20
0.359
  0
VERTEX
  8
KeepOut
  10
-0.024
  20
0.358
  0
VERTEX
  8
KeepOut
  10
-0.024
  20
0.356
  0
VERTEX
  8
KeepOut
  10
-0.025
  20
0.355
  0
SEQEND
  0
POLYLINE
  8
Docu
  70
1
  66
1
  0
VERTEX
  8
Docu
  10
0.62
  20
-1.108
  0
VERTEX
  8
Docu
  10
0.621
  20
-1.111
  0
VERTEX
  8
Docu
  10
0.623
  20
-1.119
  0
VERTEX
  8
Docu
  10
0.624
  20
-1.122
  0
VERTEX
  8
Docu
  10
0.626
  20
-1.126
  0
VERTEX
  8
Docu
  10
0.627
  20
-1.129
  0
VERTEX
  8
Docu
  10
0.631
  20
-1.135
  0
VERTEX
  8
Docu
  10
0.634
  20
-1.138
  0
VERTEX
  8
Docu
  10
0.636
  20
-1.141
  0
VERTEX
  8
Docu
  10
0.639
  20
-1.144
  0
VERTEX
  8
Docu
  10
0.642
  20
-1.146
  0
VERTEX
  8
Docu
  10
0.645
  20
-1.149
  0
VERTEX
  8
Docu
  10
0.651
  20
-1.153
  0
VERTEX
  8
Docu
  10
0.654
  20
-1.154
  0
VERTEX
  8
Docu
  10
0.658
  20
-1.156
  0
VERTEX
  8
Docu
  10
0.661
  20
-1.157
  0
VERTEX
  8
Docu
  10
0.669
  20
-1.159
  0
VERTEX
  8
Docu
  10
0.672
  20
-1.16
  0
VERTEX
  8
Docu
  10
0.688
  20
-1.16
  0
VERTEX
  8
Docu
  10
0.691
  20
-1.159
  0
VERTEX
  8
Docu
  10
0.699
  20
-1.157
  0
VERTEX
  8
Docu
  10
0.702
  20
-1.156
  0
VERTEX
  8
Docu
  10
0.706
  20
-1.154
  0
VERTEX
  8
Docu
  10
0.709
  20
-1.153
  0
VERTEX
  8
Docu
  10
0.715
  20
-1.149
  0
VERTEX
  8
Docu
  10
0.718
  20
-1.146
  0
VERTEX
  8
Docu
  10
0.721
  20
-1.144
  0
VERTEX
  8
Docu
  10
0.724
  20
-1.141
  0
VERTEX
  8
Docu
  10
0.726
  20
-1.138
  0
VERTEX
  8
Docu
  10
0.729
  20
-1.135
  0
VERTEX
  8
Docu
  10
0.733
  20
-1.129
  0
VERTEX
  8
Docu
  10
0.734
  20
-1.126
  0
VERTEX
  8
Docu
  10
0.736
  20
-1.122
  0
VERTEX
  8
Docu
  10
0.737
  20
-1.119
  0
VERTEX
  8
Docu
  10
0.739
  20
-1.111
  0
VERTEX
  8
Docu
  10
0.74
  20
-1.108
  0
VERTEX
  8
Docu
  10
0.74
  20
1.108
  0
VERTEX
  8
Docu
  10
0.739
  20
1.111
  0
VERTEX
  8
Docu
  10
0.737
  20
1.119
  0
VERTEX
  8
Docu
  10
0.736
  20
1.122
  0
VERTEX
  8
Docu
  10
0.734
  20
1.126
  0
VERTEX
  8
Docu
  10
0.733
  20
1.129
  0
VERTEX
  8
Docu
  10
0.729
  20
1.135
  0
VERTEX
  8
Docu
  10
0.726
  20
1.138
  0
VERTEX
  8
Docu
  10
0.724
  20
1.141
  0
VERTEX
  8
Docu
  10
0.721
  20
1.144
  0
VERTEX
  8
Docu
  10
0.718
  20
1.146
  0
VERTEX
  8
Docu
  10
0.715
  20
1.149
  0
VERTEX
  8
Docu
  10
0.709
  20
1.153
  0
VERTEX
  8
Docu
  10
0.706
  20
1.154
  0
VERTEX
  8
Docu
  10
0.702
  20
1.156
  0
VERTEX
  8
Docu
  10
0.699
  20
1.157
  0
VERTEX
  8
Docu
  10
0.691
  20
1.159
  0
VERTEX
  8
Docu
  10
0.688
  20
1.16
  0
VERTEX
  8
Docu
  10
0.672
  20
1.16
  0
VERTEX
  8
Docu
  10
0.669
  20
1.159
  0
VERTEX
  8
Docu
  10
0.661
  20
1.157
  0
VERTEX
  8
Docu
  10
0.658
  20
1.156
  0
VERTEX
  8
Docu
  10
0.654
  20
1.154
  0
VERTEX
  8
Docu
  10
0.651
  20
1.153
  0
VERTEX
  8
Docu
  10
0.645
  20
1.149
  0
VERTEX
  8
Docu
  10
0.642
  20
1.146
  0
VERTEX
  8
Docu
  10
0.639
  20
1.144
  0
VERTEX
  8
Docu
  10
0.636
  20
1.141
  0
VERTEX
  8
Docu
  10
0.634
  20
1.138
  0
VERTEX
  8
Docu
  10
0.631
  20
1.135
  0
VERTEX
  8
Docu
  10
0.627
  20
1.129
  0
VERTEX
  8
Docu
  10
0.626
  20
1.126
  0
VERTEX
  8
Docu
  10
0.624
  20
1.122
  0
VERTEX
  8
Docu
  10
0.623
  20
1.119
  0
VERTEX
  8
Docu
  10
0.621
  20
1.111
  0
VERTEX
  8
Docu
  10
0.62
  20
1.108
  0
SEQEND
  0
POLYLINE
  8
Docu
  70
1
  66
1
  0
VERTEX
  8
Docu
  10
-0.62
  20
0.654
  0
VERTEX
  8
Docu
  10
-0.622
  20
0.662
  0
VERTEX
  8
Docu
  10
-0.623
  20
0.665
  0
VERTEX
  8
Docu
  10
-0.624
  20
0.669
  0
VERTEX
  8
Docu
  10
-0.626
  20
0.672
  0
VERTEX
  8
Docu
  10
-0.627
  20
0.676
  0
VERTEX
  8
Docu
  10
-0.631
  20
0.682
  0
VERTEX
  8
Docu
  10
-0.634
  20
0.685
  0
VERTEX
  8
Docu
  10
-0.636
  20
0.688
  0
VERTEX
  8
Docu
  10
-0.639
  20
0.69
  0
VERTEX
  8
Docu
  10
-0.642
  20
0.693
  0
VERTEX
  8
Docu
  10
-0.654
  20
0.701
  0
VERTEX
  8
Docu
  10
-0.658
  20
0.702
  0
VERTEX
  8
Docu
  10
-0.661
  20
0.704
  0
VERTEX
  8
Docu
  10
-0.669
  20
0.706
  0
VERTEX
  8
Docu
  10
-0.672
  20
0.706
  0
VERTEX
  8
Docu
  10
-0.676
  20
0.707
  0
VERTEX
  8
Docu
  10
-0.684
  20
0.707
  0
VERTEX
  8
Docu
  10
-0.688
  20
0.706
  0
VERTEX
  8
Docu
  10
-0.691
  20
0.706
  0
VERTEX
  8
Docu
  10
-0.699
  20
0.704
  0
VERTEX
  8
Docu
  10
-0.702
  20
0.702
  0
VERTEX
  8
Docu
  10
-0.706
  20
0.701
  0
VERTEX
  8
Docu
  10
-0.718
  20
0.693
  0
VERTEX
  8
Docu
  10
-0.721
  20
0.69
  0
VERTEX
  8
Docu
  10
-0.724
  20
0.688
  0
VERTEX
  8
Docu
  10
-0.726
  20
0.685
  0
VERTEX
  8
Docu
  10
-0.729
  20
0.682
  0
VERTEX
  8
Docu
  10
-0.733
  20
0.676
  0
VERTEX
  8
Docu
  10
-0.734
  20
0.672
  0
VERTEX
  8
Docu
  10
-0.736
  20
0.669
  0
VERTEX
  8
Docu
  10
-0.737
  20
0.665
  0
VERTEX
  8
Docu
  10
-0.738
  20
0.662
  0
VERTEX
  8
Docu
  10
-0.74
  20
0.654
  0
VERTEX
  8
Docu
  10
-0.74
  20
-1.108
  0
VERTEX
  8
Docu
  10
-0.739
  20
-1.111
  0
VERTEX
  8
Docu
  10
-0.737
  20
-1.119
  0
VERTEX
  8
Docu
  10
-0.736
  20
-1.122
  0
VERTEX
  8
Docu
  10
-0.734
  20
-1.126
  0
VERTEX
  8
Docu
  10
-0.733
  20
-1.129
  0
VERTEX
  8
Docu
  10
-0.729
  20
-1.135
  0
VERTEX
  8
Docu
  10
-0.726
  20
-1.138
  0
VERTEX
  8
Docu
  10
-0.724
  20
-1.141
  0
VERTEX
  8
Docu
  10
-0.721
  20
-1.144
  0
VERTEX
  8
Docu
  10
-0.718
  20
-1.146
  0
VERTEX
  8
Docu
  10
-0.715
  20
-1.149
  0
VERTEX
  8
Docu
  10
-0.709
  20
-1.153
  0
VERTEX
  8
Docu
  10
-0.706
  20
-1.154
  0
VERTEX
  8
Docu
  10
-0.702
  20
-1.156
  0
VERTEX
  8
Docu
  10
-0.699
  20
-1.157
  0
VERTEX
  8
Docu
  10
-0.691
  20
-1.159
  0
VERTEX
  8
Docu
  10
-0.688
  20
-1.16
  0
VERTEX
  8
Docu
  10
-0.672
  20
-1.16
  0
VERTEX
  8
Docu
  10
-0.669
  20
-1.159
  0
VERTEX
  8
Docu
  10
-0.661
  20
-1.157
  0
VERTEX
  8
Docu
  10
-0.658
  20
-1.156
  0
VERTEX
  8
Docu
  10
-0.654
  20
-1.154
  0
VERTEX
  8
Docu
  10
-0.651
  20
-1.153
  0
VERTEX
  8
Docu
  10
-0.645
  20
-1.149
  0
VERTEX
  8
Docu
  10
-0.642
  20
-1.146
  0
VERTEX
  8
Docu
  10
-0.639
  20
-1.144
  0
VERTEX
  8
Docu
  10
-0.636
  20
-1.141
  0
VERTEX
  8
Docu
  10
-0.634
  20
-1.138
  0
VERTEX
  8
Docu
  10
-0.631
  20
-1.135
  0
VERTEX
  8
Docu
  10
-0.627
  20
-1.129
  0
VERTEX
  8
Docu
  10
-0.626
  20
-1.126
  0
VERTEX
  8
Docu
  10
-0.624
  20
-1.122
  0
VERTEX
  8
Docu
  10
-0.623
  20
-1.119
  0
VERTEX
  8
Docu
  10
-0.621
  20
-1.111
  0
VERTEX
  8
Docu
  10
-0.62
  20
-1.108
  0
SEQEND
  0
POLYLINE
  8
Docu
  70
1
  66
1
  0
VERTEX
  8
Docu
  10
-0.688
  20
-1.04
  0
VERTEX
  8
Docu
  10
-0.691
  20
-1.041
  0
VERTEX
  8
Docu
  10
-0.699
  20
-1.043
  0
VERTEX
  8
Docu
  10
-0.702
  20
-1.044
  0
VERTEX
  8
Docu
  10
-0.706
  20
-1.046
  0
VERTEX
  8
Docu
  10
-0.709
  20
-1.047
  0
VERTEX
  8
Docu
  10
-0.715
  20
-1.051
  0
VERTEX
  8
Docu
  10
-0.718
  20
-1.054
  0
VERTEX
  8
Docu
  10
-0.721
  20
-1.056
  0
VERTEX
  8
Docu
  10
-0.724
  20
-1.059
  0
VERTEX
  8
Docu
  10
-0.726
  20
-1.062
  0
VERTEX
  8
Docu
  10
-0.729
  20
-1.065
  0
VERTEX
  8
Docu
  10
-0.733
  20
-1.071
  0
VERTEX
  8
Docu
  10
-0.734
  20
-1.074
  0
VERTEX
  8
Docu
  10
-0.736
  20
-1.078
  0
VERTEX
  8
Docu
  10
-0.737
  20
-1.081
  0
VERTEX
  8
Docu
  10
-0.739
  20
-1.089
  0
VERTEX
  8
Docu
  10
-0.74
  20
-1.092
  0
VERTEX
  8
Docu
  10
-0.74
  20
-1.108
  0
VERTEX
  8
Docu
  10
-0.739
  20
-1.111
  0
VERTEX
  8
Docu
  10
-0.737
  20
-1.119
  0
VERTEX
  8
Docu
  10
-0.736
  20
-1.122
  0
VERTEX
  8
Docu
  10
-0.734
  20
-1.126
  0
VERTEX
  8
Docu
  10
-0.733
  20
-1.129
  0
VERTEX
  8
Docu
  10
-0.729
  20
-1.135
  0
VERTEX
  8
Docu
  10
-0.726
  20
-1.138
  0
VERTEX
  8
Docu
  10
-0.724
  20
-1.141
  0
VERTEX
  8
Docu
  10
-0.721
  20
-1.144
  0
VERTEX
  8
Docu
  10
-0.718
  20
-1.146
  0
VERTEX
  8
Docu
  10
-0.715
  20
-1.149
  0
VERTEX
  8
Docu
  10
-0.709
  20
-1.153
  0
VERTEX
  8
Docu
  10
-0.706
  20
-1.154
  0
VERTEX
  8
Docu
  10
-0.702
  20
-1.156
  0
VERTEX
  8
Docu
  10
-0.699
  20
-1.157
  0
VERTEX
  8
Docu
  10
-0.691
  20
-1.159
  0
VERTEX
  8
Docu
  10
-0.688
  20
-1.16
  0
VERTEX
  8
Docu
  10
0.688
  20
-1.16
  0
VERTEX
  8
Docu
  10
0.691
  20
-1.159
  0
VERTEX
  8
Docu
  10
0.699
  20
-1.157
  0
VERTEX
  8
Docu
  10
0.702
  20
-1.156
  0
VERTEX
  8
Docu
  10
0.706
  20
-1.154
  0
VERTEX
  8
Docu
  10
0.709
  20
-1.153
  0
VERTEX
  8
Docu
  10
0.715
  20
-1.149
  0
VERTEX
  8
Docu
  10
0.718
  20
-1.146
  0
VERTEX
  8
Docu
  10
0.721
  20
-1.144
  0
VERTEX
  8
Docu
  10
0.724
  20
-1.141
  0
VERTEX
  8
Docu
  10
0.726
  20
-1.138
  0
VERTEX
  8
Docu
  10
0.729
  20
-1.135
  0
VERTEX
  8
Docu
  10
0.733
  20
-1.129
  0
VERTEX
  8
Docu
  10
0.734
  20
-1.126
  0
VERTEX
  8
Docu
  10
0.736
  20
-1.122
  0
VERTEX
  8
Docu
  10
0.737
  20
-1.119
  0
VERTEX
  8
Docu
  10
0.739
  20
-1.111
  0
VERTEX
  8
Docu
  10
0.74
  20
-1.108
  0
VERTEX
  8
Docu
  10
0.74
  20
-1.092
  0
VERTEX
  8
Docu
  10
0.739
  20
-1.089
  0
VERTEX
  8
Docu
  10
0.737
  20
-1.081
  0
VERTEX
  8
Docu
  10
0.736
  20
-1.078
  0
VERTEX
  8
Docu
  10
0.734
  20
-1.074
  0
VERTEX
  8
Docu
  10
0.733
  20
-1.071
  0
VERTEX
  8
Docu
  10
0.729
  20
-1.065
  0
VERTEX
  8
Docu
  10
0.726
  20
-1.062
  0
VERTEX
  8
Docu
  10
0.724
  20
-1.059
  0
VERTEX
  8
Docu
  10
0.721
  20
-1.056
  0
VERTEX
  8
Docu
  10
0.718
  20
-1.054
  0
VERTEX
  8
Docu
  10
0.715
  20
-1.051
  0
VERTEX
  8
Docu
  10
0.709
  20
-1.047
  0
VERTEX
  8
Docu
  10
0.706
  20
-1.046
  0
VERTEX
  8
Docu
  10
0.702
  20
-1.044
  0
VERTEX
  8
Docu
  10
0.699
  20
-1.043
  0
VERTEX
  8
Docu
  10
0.691
  20
-1.041
  0
VERTEX
  8
Docu
  10
0.688
  20
-1.04
  0
SEQEND
  0
POLYLINE
  8
Docu
  70
1
  66
1
  0
VERTEX
  8
Docu
  10
0.688
  20
1.04
  0
VERTEX
  8
Docu
  10
0.691
  20
1.041
  0
VERTEX
  8
Docu
  10
0.699
  20
1.043
  0
VERTEX
  8
Docu
  10
0.702
  20
1.044
  0
VERTEX
  8
Docu
  10
0.706
  20
1.046
  0
VERTEX
  8
Docu
  10
0.709
  20
1.047
  0
VERTEX
  8
Docu
  10
0.715
  20
1.051
  0
VERTEX
  8
Docu
  10
0.718
  20
1.054
  0
VERTEX
  8
Docu
  10
0.721
  20
1.056
  0
VERTEX
  8
Docu
  10
0.724
  20
1.059
  0
VERTEX
  8
Docu
  10
0.726
  20
1.062
  0
VERTEX
  8
Docu
  10
0.729
  20
1.065
  0
VERTEX
  8
Docu
  10
0.733
  20
1.071
  0
VERTEX
  8
Docu
  10
0.734
  20
1.074
  0
VERTEX
  8
Docu
  10
0.736
  20
1.078
  0
VERTEX
  8
Docu
  10
0.737
  20
1.081
  0
VERTEX
  8
Docu
  10
0.739
  20
1.089
  0
VERTEX
  8
Docu
  10
0.74
  20
1.092
  0
VERTEX
  8
Docu
  10
0.74
  20
1.108
  0
VERTEX
  8
Docu
  10
0.739
  20
1.111
  0
VERTEX
  8
Docu
  10
0.737
  20
1.119
  0
VERTEX
  8
Docu
  10
0.736
  20
1.122
  0
VERTEX
  8
Docu
  10
0.734
  20
1.126
  0
VERTEX
  8
Docu
  10
0.733
  20
1.129
  0
VERTEX
  8
Docu
  10
0.729
  20
1.135
  0
VERTEX
  8
Docu
  10
0.726
  20
1.138
  0
VERTEX
  8
Docu
  10
0.724
  20
1.141
  0
VERTEX
  8
Docu
  10
0.721
  20
1.144
  0
VERTEX
  8
Docu
  10
0.718
  20
1.146
  0
VERTEX
  8
Docu
  10
0.715
  20
1.149
  0
VERTEX
  8
Docu
  10
0.709
  20
1.153
  0
VERTEX
  8
Docu
  10
0.706
  20
1.154
  0
VERTEX
  8
Docu
  10
0.702
  20
1.156
  0
VERTEX
  8
Docu
  10
0.699
  20
1.157
  0
VERTEX
  8
Docu
  10
0.691
  20
1.159
  0
VERTEX
  8
Docu
  10
0.688
  20
1.16
  0
VERTEX
  8
Docu
  10
-0.234
  20
1.16
  0
VERTEX
  8
Docu
  10
-0.242
  20
1.158
  0
VERTEX
  8
Docu
  10
-0.245
  20
1.157
  0
VERTEX
  8
Docu
  10
-0.249
  20
1.156
  0
VERTEX
  8
Docu
  10
-0.252
  20
1.154
  0
VERTEX
  8
Docu
  10
-0.256
  20
1.153
  0
VERTEX
  8
Docu
  10
-0.262
  20
1.149
  0
VERTEX
  8
Docu
  10
-0.265
  20
1.146
  0
VERTEX
  8
Docu
  10
-0.268
  20
1.144
  0
VERTEX
  8
Docu
  10
-0.27
  20
1.141
  0
VERTEX
  8
Docu
  10
-0.273
  20
1.138
  0
VERTEX
  8
Docu
  10
-0.281
  20
1.126
  0
VERTEX
  8
Docu
  10
-0.282
  20
1.122
  0
VERTEX
  8
Docu
  10
-0.284
  20
1.119
  0
VERTEX
  8
Docu
  10
-0.286
  20
1.111
  0
VERTEX
  8
Docu
  10
-0.286
  20
1.108
  0
VERTEX
  8
Docu
  10
-0.287
  20
1.104
  0
VERTEX
  8
Docu
  10
-0.287
  20
1.096
  0
VERTEX
  8
Docu
  10
-0.286
  20
1.092
  0
VERTEX
  8
Docu
  10
-0.286
  20
1.089
  0
VERTEX
  8
Docu
  10
-0.284
  20
1.081
  0
VERTEX
  8
Docu
  10
-0.282
  20
1.078
  0
VERTEX
  8
Docu
  10
-0.281
  20
1.074
  0
VERTEX
  8
Docu
  10
-0.273
  20
1.062
  0
VERTEX
  8
Docu
  10
-0.27
  20
1.059
  0
VERTEX
  8
Docu
  10
-0.268
  20
1.056
  0
VERTEX
  8
Docu
  10
-0.265
  20
1.054
  0
VERTEX
  8
Docu
  10
-0.262
  20
1.051
  0
VERTEX
  8
Docu
  10
-0.256
  20
1.047
  0
VERTEX
  8
Docu
  10
-0.252
  20
1.046
  0
VERTEX
  8
Docu
  10
-0.249
  20
1.044
  0
VERTEX
  8
Docu
  10
-0.245
  20
1.043
  0
VERTEX
  8
Docu
  10
-0.242
  20
1.042
  0
VERTEX
  8
Docu
  10
-0.234
  20
1.04
  0
SEQEND
  0
POLYLINE
  8
Docu
  70
1
  66
1
  0
VERTEX
  8
Docu
  10
-0.179
  20
1.063
  0
VERTEX
  8
Docu
  10
-0.175
  20
1.069
  0
VERTEX
  8
Docu
  10
-0.173
  20
1.073
  0
VERTEX
  8
Docu
  10
-0.172
  20
1.076
  0
VERTEX
  8
Docu
  10
-0.17
  20
1.08
  0
VERTEX
  8
Docu
  10
-0.169
  20
1.083
  0
VERTEX
  8
Docu
  10
-0.167
  20
1.091
  0
VERTEX
  8
Docu
  10
-0.167
  20
1.109
  0
VERTEX
  8
Docu
  10
-0.169
  20
1.117
  0
VERTEX
  8
Docu
  10
-0.17
  20
1.12
  0
VERTEX
  8
Docu
  10
-0.172
  20
1.124
  0
VERTEX
  8
Docu
  10
-0.173
  20
1.127
  0
VERTEX
  8
Docu
  10
-0.175
  20
1.131
  0
VERTEX
  8
Docu
  10
-0.179
  20
1.137
  0
VERTEX
  8
Docu
  10
-0.187
  20
1.145
  0
VERTEX
  8
Docu
  10
-0.19
  20
1.147
  0
VERTEX
  8
Docu
  10
-0.193
  20
1.15
  0
VERTEX
  8
Docu
  10
-0.196
  20
1.152
  0
VERTEX
  8
Docu
  10
-0.199
  20
1.153
  0
VERTEX
  8
Docu
  10
-0.203
  20
1.155
  0
VERTEX
  8
Docu
  10
-0.206
  20
1.156
  0
VERTEX
  8
Docu
  10
-0.21
  20
1.158
  0
VERTEX
  8
Docu
  10
-0.214
  20
1.159
  0
VERTEX
  8
Docu
  10
-0.217
  20
1.159
  0
VERTEX
  8
Docu
  10
-0.221
  20
1.16
  0
VERTEX
  8
Docu
  10
-0.232
  20
1.16
  0
VERTEX
  8
Docu
  10
-0.236
  20
1.159
  0
VERTEX
  8
Docu
  10
-0.24
  20
1.159
  0
VERTEX
  8
Docu
  10
-0.243
  20
1.158
  0
VERTEX
  8
Docu
  10
-0.247
  20
1.156
  0
VERTEX
  8
Docu
  10
-0.251
  20
1.155
  0
VERTEX
  8
Docu
  10
-0.254
  20
1.153
  0
VERTEX
  8
Docu
  10
-0.257
  20
1.152
  0
VERTEX
  8
Docu
  10
-0.26
  20
1.15
  0
VERTEX
  8
Docu
  10
-0.263
  20
1.147
  0
VERTEX
  8
Docu
  10
-0.266
  20
1.145
  0
VERTEX
  8
Docu
  10
-0.725
  20
0.686
  0
VERTEX
  8
Docu
  10
-0.727
  20
0.683
  0
VERTEX
  8
Docu
  10
-0.73
  20
0.68
  0
VERTEX
  8
Docu
  10
-0.732
  20
0.677
  0
VERTEX
  8
Docu
  10
-0.733
  20
0.674
  0
VERTEX
  8
Docu
  10
-0.735
  20
0.671
  0
VERTEX
  8
Docu
  10
-0.736
  20
0.667
  0
VERTEX
  8
Docu
  10
-0.738
  20
0.663
  0
VERTEX
  8
Docu
  10
-0.739
  20
0.66
  0
VERTEX
  8
Docu
  10
-0.739
  20
0.656
  0
VERTEX
  8
Docu
  10
-0.74
  20
0.652
  0
VERTEX
  8
Docu
  10
-0.74
  20
0.641
  0
VERTEX
  8
Docu
  10
-0.739
  20
0.637
  0
VERTEX
  8
Docu
  10
-0.739
  20
0.634
  0
VERTEX
  8
Docu
  10
-0.738
  20
0.63
  0
VERTEX
  8
Docu
  10
-0.736
  20
0.626
  0
VERTEX
  8
Docu
  10
-0.735
  20
0.623
  0
VERTEX
  8
Docu
  10
-0.733
  20
0.619
  0
VERTEX
  8
Docu
  10
-0.732
  20
0.616
  0
VERTEX
  8
Docu
  10
-0.73
  20
0.613
  0
VERTEX
  8
Docu
  10
-0.727
  20
0.61
  0
VERTEX
  8
Docu
  10
-0.725
  20
0.607
  0
VERTEX
  8
Docu
  10
-0.717
  20
0.599
  0
VERTEX
  8
Docu
  10
-0.711
  20
0.595
  0
VERTEX
  8
Docu
  10
-0.707
  20
0.593
  0
VERTEX
  8
Docu
  10
-0.704
  20
0.592
  0
VERTEX
  8
Docu
  10
-0.7
  20
0.59
  0
VERTEX
  8
Docu
  10
-0.697
  20
0.589
  0
VERTEX
  8
Docu
  10
-0.689
  20
0.587
  0
VERTEX
  8
Docu
  10
-0.671
  20
0.587
  0
VERTEX
  8
Docu
  10
-0.663
  20
0.589
  0
VERTEX
  8
Docu
  10
-0.66
  20
0.59
  0
VERTEX
  8
Docu
  10
-0.656
  20
0.592
  0
VERTEX
  8
Docu
  10
-0.653
  20
0.593
  0
VERTEX
  8
Docu
  10
-0.649
  20
0.595
  0
VERTEX
  8
Docu
  10
-0.643
  20
0.599
  0
SEQEND
  0
POLYLINE
  8
99_1_0
  70
0
  66
1
  0
VERTEX
  8
Copper
  10
-1
  20
0.35
  0
VERTEX
  8
Copper
  10
-1
  20
0.95
  0
SEQEND
  0
POLYLINE
  8
99_3_0
  70
0
  66
1
  0
VERTEX
  8
Copper
  10
1
  20
0.3
  0
VERTEX
  8
Copper
  10
1
  20
-0.3
  0
SEQEND
  0
POLYLINE
  8
99_2_0
  70
0
  66
1
  0
VERTEX
  8
Copper
  10
-1
  20
-0.95
  0
VERTEX
  8
Copper
  10
-1
  20
-0.35
  0
SEQEND
  0
ENDBLK
  0
ENDSEC
  0
SECTION
  2
ENTITIES
  0
INSERT
  8
Default
  2
SOT323_v4_1_Rec
  10
0
  20
0
  50
0
  41
1
  42
1
  0
ENDSEC
  0
EOF
