G04*
G04 #@! TF.GenerationSoftware,Altium Limited,Altium Designer,21.4.1 (30)*
G04*
G04 Layer_Color=16711935*
%FSLAX25Y25*%
%MOIN*%
G70*
G04*
G04 #@! TF.SameCoordinates,4F7A37CA-CC0D-4B0B-ADC5-D258E3024ECD*
G04*
G04*
G04 #@! TF.FilePolarity,Positive*
G04*
G01*
G75*
%ADD12C,0.00600*%
%ADD14C,0.01000*%
%ADD15C,0.00500*%
%ADD62C,0.01500*%
%ADD124C,0.00100*%
D12*
X536608Y-172879D02*
X535608Y-171879D01*
Y-169880D01*
X536608Y-168880D01*
X537608D01*
X538608Y-169880D01*
X539607Y-168880D01*
X540607D01*
X541607Y-169880D01*
Y-171879D01*
X540607Y-172879D01*
X539607D01*
X538608Y-171879D01*
X537608Y-172879D01*
X536608D01*
X538608Y-171879D02*
Y-169880D01*
X536608Y-166881D02*
X535608Y-165881D01*
Y-163882D01*
X536608Y-162882D01*
X540607D01*
X541607Y-163882D01*
Y-165881D01*
X540607Y-166881D01*
X536608D01*
X542606Y-159883D02*
X541607Y-158884D01*
X540607D01*
Y-159883D01*
X541607D01*
Y-158884D01*
X542606Y-159883D01*
X543606Y-160883D01*
X536608Y-154885D02*
X535608Y-153885D01*
Y-151886D01*
X536608Y-150886D01*
X540607D01*
X541607Y-151886D01*
Y-153885D01*
X540607Y-154885D01*
X536608D01*
Y-148887D02*
X535608Y-147887D01*
Y-145888D01*
X536608Y-144888D01*
X540607D01*
X541607Y-145888D01*
Y-147887D01*
X540607Y-148887D01*
X536608D01*
X227968Y-357748D02*
X229968D01*
X228968D01*
Y-351750D01*
X227968Y-352750D01*
X236965Y-357748D02*
X232967D01*
X236965Y-353750D01*
Y-352750D01*
X235966Y-351750D01*
X233966D01*
X232967Y-352750D01*
X242964Y-351750D02*
X238965D01*
Y-354749D01*
X240964Y-353750D01*
X241964D01*
X242964Y-354749D01*
Y-356749D01*
X241964Y-357748D01*
X239964D01*
X238965Y-356749D01*
X245963Y-358748D02*
X246962Y-357748D01*
Y-356749D01*
X245963D01*
Y-357748D01*
X246962D01*
X245963Y-358748D01*
X244963Y-359748D01*
X250961Y-352750D02*
X251961Y-351750D01*
X253960D01*
X254960Y-352750D01*
Y-356749D01*
X253960Y-357748D01*
X251961D01*
X250961Y-356749D01*
Y-352750D01*
X256959D02*
X257959Y-351750D01*
X259958D01*
X260958Y-352750D01*
Y-356749D01*
X259958Y-357748D01*
X257959D01*
X256959Y-356749D01*
Y-352750D01*
D14*
X537008Y197D02*
X539008Y-5803D01*
X535008D02*
X537008Y197D01*
X535008Y-308764D02*
X537008Y-314764D01*
X539008Y-308764D01*
X537008Y-143288D02*
Y197D01*
Y-314764D02*
Y-174479D01*
X492126Y197D02*
X538008D01*
X492126Y-314764D02*
X538008D01*
X0Y-353150D02*
X6000Y-351150D01*
X0Y-353150D02*
X6000Y-355150D01*
X486126D02*
X492126Y-353150D01*
X486126Y-351150D02*
X492126Y-353150D01*
X0D02*
X226368D01*
X262558D02*
X492126D01*
X0Y-354150D02*
Y-314961D01*
X492126Y-354150D02*
Y-314961D01*
X610213Y49848D02*
Y43850D01*
X614211D01*
X617210Y47849D02*
X619210D01*
X620209Y46849D01*
Y43850D01*
X617210D01*
X616211Y44850D01*
X617210Y45850D01*
X620209D01*
X622209Y47849D02*
Y44850D01*
X623208Y43850D01*
X626207D01*
Y42851D01*
X625208Y41851D01*
X624208D01*
X626207Y43850D02*
Y47849D01*
X631206Y43850D02*
X629206D01*
X628207Y44850D01*
Y46849D01*
X629206Y47849D01*
X631206D01*
X632205Y46849D01*
Y45850D01*
X628207D01*
X634205Y47849D02*
Y43850D01*
Y45850D01*
X635205Y46849D01*
X636204Y47849D01*
X637204D01*
X613212Y-76150D02*
Y-70152D01*
X610213Y-73151D01*
X614211D01*
X610213Y-47151D02*
X611212Y-46152D01*
X613212D01*
X614211Y-47151D01*
Y-48151D01*
X613212Y-49151D01*
X612212D01*
X613212D01*
X614211Y-50150D01*
Y-51150D01*
X613212Y-52150D01*
X611212D01*
X610213Y-51150D01*
X614211Y-28150D02*
X610213D01*
X614211Y-24151D01*
Y-23151D01*
X613212Y-22152D01*
X611212D01*
X610213Y-23151D01*
Y-4150D02*
X612212D01*
X611212D01*
Y1849D01*
X610213Y849D01*
X651204Y43850D02*
Y49848D01*
X655202Y43850D01*
Y49848D01*
X658202Y47849D02*
X660201D01*
X661201Y46849D01*
Y43850D01*
X658202D01*
X657202Y44850D01*
X658202Y45850D01*
X661201D01*
X663200Y43850D02*
Y47849D01*
X664200D01*
X665199Y46849D01*
Y43850D01*
Y46849D01*
X666199Y47849D01*
X667199Y46849D01*
Y43850D01*
X672197D02*
X670198D01*
X669198Y44850D01*
Y46849D01*
X670198Y47849D01*
X672197D01*
X673197Y46849D01*
Y45850D01*
X669198D01*
X651204Y-106151D02*
Y-112150D01*
X654203D01*
X655202Y-111150D01*
Y-110150D01*
X654203Y-109151D01*
X651204D01*
X654203D01*
X655202Y-108151D01*
Y-107151D01*
X654203Y-106151D01*
X651204D01*
X658202Y-112150D02*
X660201D01*
X661201Y-111150D01*
Y-109151D01*
X660201Y-108151D01*
X658202D01*
X657202Y-109151D01*
Y-111150D01*
X658202Y-112150D01*
X664200Y-107151D02*
Y-108151D01*
X663200D01*
X665199D01*
X664200D01*
Y-111150D01*
X665199Y-112150D01*
X669198Y-107151D02*
Y-108151D01*
X668198D01*
X670198D01*
X669198D01*
Y-111150D01*
X670198Y-112150D01*
X674196D02*
X676196D01*
X677195Y-111150D01*
Y-109151D01*
X676196Y-108151D01*
X674196D01*
X673197Y-109151D01*
Y-111150D01*
X674196Y-112150D01*
X679195D02*
Y-108151D01*
X680195D01*
X681194Y-109151D01*
Y-112150D01*
Y-109151D01*
X682194Y-108151D01*
X683193Y-109151D01*
Y-112150D01*
X694190Y-106151D02*
X692191D01*
X691191Y-107151D01*
Y-111150D01*
X692191Y-112150D01*
X694190D01*
X695190Y-111150D01*
Y-107151D01*
X694190Y-106151D01*
X697189Y-108151D02*
X699188Y-112150D01*
X701188Y-108151D01*
X706186Y-112150D02*
X704187D01*
X703187Y-111150D01*
Y-109151D01*
X704187Y-108151D01*
X706186D01*
X707186Y-109151D01*
Y-110150D01*
X703187D01*
X709185Y-108151D02*
Y-112150D01*
Y-110150D01*
X710185Y-109151D01*
X711184Y-108151D01*
X712184D01*
X715183Y-112150D02*
X717182D01*
X716183D01*
Y-106151D01*
X715183D01*
X721181Y-108151D02*
X723181D01*
X724180Y-109151D01*
Y-112150D01*
X721181D01*
X720182Y-111150D01*
X721181Y-110150D01*
X724180D01*
X726180Y-108151D02*
Y-111150D01*
X727179Y-112150D01*
X730178D01*
Y-113149D01*
X729179Y-114149D01*
X728179D01*
X730178Y-112150D02*
Y-108151D01*
X651204Y-94152D02*
Y-100150D01*
X654203D01*
X655202Y-99150D01*
Y-98150D01*
X654203Y-97151D01*
X651204D01*
X654203D01*
X655202Y-96151D01*
Y-95151D01*
X654203Y-94152D01*
X651204D01*
X658202Y-100150D02*
X660201D01*
X661201Y-99150D01*
Y-97151D01*
X660201Y-96151D01*
X658202D01*
X657202Y-97151D01*
Y-99150D01*
X658202Y-100150D01*
X664200Y-95151D02*
Y-96151D01*
X663200D01*
X665199D01*
X664200D01*
Y-99150D01*
X665199Y-100150D01*
X669198Y-95151D02*
Y-96151D01*
X668198D01*
X670198D01*
X669198D01*
Y-99150D01*
X670198Y-100150D01*
X674196D02*
X676196D01*
X677195Y-99150D01*
Y-97151D01*
X676196Y-96151D01*
X674196D01*
X673197Y-97151D01*
Y-99150D01*
X674196Y-100150D01*
X679195D02*
Y-96151D01*
X680195D01*
X681194Y-97151D01*
Y-100150D01*
Y-97151D01*
X682194Y-96151D01*
X683193Y-97151D01*
Y-100150D01*
X695190Y-95151D02*
X694190Y-94152D01*
X692191D01*
X691191Y-95151D01*
Y-96151D01*
X692191Y-97151D01*
X694190D01*
X695190Y-98150D01*
Y-99150D01*
X694190Y-100150D01*
X692191D01*
X691191Y-99150D01*
X698189Y-100150D02*
X700188D01*
X701188Y-99150D01*
Y-97151D01*
X700188Y-96151D01*
X698189D01*
X697189Y-97151D01*
Y-99150D01*
X698189Y-100150D01*
X703187D02*
X705186D01*
X704187D01*
Y-94152D01*
X703187D01*
X712184D02*
Y-100150D01*
X709185D01*
X708185Y-99150D01*
Y-97151D01*
X709185Y-96151D01*
X712184D01*
X717182Y-100150D02*
X715183D01*
X714184Y-99150D01*
Y-97151D01*
X715183Y-96151D01*
X717182D01*
X718182Y-97151D01*
Y-98150D01*
X714184D01*
X720182Y-96151D02*
Y-100150D01*
Y-98150D01*
X721181Y-97151D01*
X722181Y-96151D01*
X723181D01*
X651204Y-82152D02*
Y-88150D01*
X654203D01*
X655202Y-87150D01*
Y-86150D01*
X654203Y-85151D01*
X651204D01*
X654203D01*
X655202Y-84151D01*
Y-83151D01*
X654203Y-82152D01*
X651204D01*
X658202Y-88150D02*
X660201D01*
X661201Y-87150D01*
Y-85151D01*
X660201Y-84151D01*
X658202D01*
X657202Y-85151D01*
Y-87150D01*
X658202Y-88150D01*
X664200Y-83151D02*
Y-84151D01*
X663200D01*
X665199D01*
X664200D01*
Y-87150D01*
X665199Y-88150D01*
X669198Y-83151D02*
Y-84151D01*
X668198D01*
X670198D01*
X669198D01*
Y-87150D01*
X670198Y-88150D01*
X674196D02*
X676196D01*
X677195Y-87150D01*
Y-85151D01*
X676196Y-84151D01*
X674196D01*
X673197Y-85151D01*
Y-87150D01*
X674196Y-88150D01*
X679195D02*
Y-84151D01*
X680195D01*
X681194Y-85151D01*
Y-88150D01*
Y-85151D01*
X682194Y-84151D01*
X683193Y-85151D01*
Y-88150D01*
X695190Y-83151D02*
X694190Y-82152D01*
X692191D01*
X691191Y-83151D01*
Y-84151D01*
X692191Y-85151D01*
X694190D01*
X695190Y-86150D01*
Y-87150D01*
X694190Y-88150D01*
X692191D01*
X691191Y-87150D01*
X697189Y-84151D02*
Y-87150D01*
X698189Y-88150D01*
X701188D01*
Y-84151D01*
X703187D02*
Y-88150D01*
Y-86150D01*
X704187Y-85151D01*
X705186Y-84151D01*
X706186D01*
X710185Y-88150D02*
Y-83151D01*
Y-85151D01*
X709185D01*
X711184D01*
X710185D01*
Y-83151D01*
X711184Y-82152D01*
X715183Y-84151D02*
X717182D01*
X718182Y-85151D01*
Y-88150D01*
X715183D01*
X714184Y-87150D01*
X715183Y-86150D01*
X718182D01*
X724180Y-84151D02*
X721181D01*
X720182Y-85151D01*
Y-87150D01*
X721181Y-88150D01*
X724180D01*
X729179D02*
X727179D01*
X726180Y-87150D01*
Y-85151D01*
X727179Y-84151D01*
X729179D01*
X730178Y-85151D01*
Y-86150D01*
X726180D01*
X742174Y-82152D02*
X738176D01*
Y-85151D01*
X740175D01*
X738176D01*
Y-88150D01*
X744174D02*
X746173D01*
X745173D01*
Y-84151D01*
X744174D01*
X749172Y-88150D02*
Y-84151D01*
X752171D01*
X753171Y-85151D01*
Y-88150D01*
X755170D02*
X757169D01*
X756170D01*
Y-84151D01*
X755170D01*
X760169Y-88150D02*
X763168D01*
X764167Y-87150D01*
X763168Y-86150D01*
X761168D01*
X760169Y-85151D01*
X761168Y-84151D01*
X764167D01*
X766167Y-82152D02*
Y-88150D01*
Y-85151D01*
X767166Y-84151D01*
X769166D01*
X770165Y-85151D01*
Y-88150D01*
X651204Y-70152D02*
Y-76150D01*
X654203D01*
X655202Y-75150D01*
Y-74150D01*
X654203Y-73151D01*
X651204D01*
X654203D01*
X655202Y-72151D01*
Y-71151D01*
X654203Y-70152D01*
X651204D01*
X658202Y-76150D02*
X660201D01*
X661201Y-75150D01*
Y-73151D01*
X660201Y-72151D01*
X658202D01*
X657202Y-73151D01*
Y-75150D01*
X658202Y-76150D01*
X664200Y-71151D02*
Y-72151D01*
X663200D01*
X665199D01*
X664200D01*
Y-75150D01*
X665199Y-76150D01*
X669198Y-71151D02*
Y-72151D01*
X668198D01*
X670198D01*
X669198D01*
Y-75150D01*
X670198Y-76150D01*
X674196D02*
X676196D01*
X677195Y-75150D01*
Y-73151D01*
X676196Y-72151D01*
X674196D01*
X673197Y-73151D01*
Y-75150D01*
X674196Y-76150D01*
X679195D02*
Y-72151D01*
X680195D01*
X681194Y-73151D01*
Y-76150D01*
Y-73151D01*
X682194Y-72151D01*
X683193Y-73151D01*
Y-76150D01*
X691191Y-70152D02*
Y-76150D01*
X695190D01*
X698189Y-72151D02*
X700188D01*
X701188Y-73151D01*
Y-76150D01*
X698189D01*
X697189Y-75150D01*
X698189Y-74150D01*
X701188D01*
X703187Y-72151D02*
Y-75150D01*
X704187Y-76150D01*
X707186D01*
Y-77149D01*
X706186Y-78149D01*
X705186D01*
X707186Y-76150D02*
Y-72151D01*
X712184Y-76150D02*
X710185D01*
X709185Y-75150D01*
Y-73151D01*
X710185Y-72151D01*
X712184D01*
X713184Y-73151D01*
Y-74150D01*
X709185D01*
X715183Y-72151D02*
Y-76150D01*
Y-74150D01*
X716183Y-73151D01*
X717182Y-72151D01*
X718182D01*
X727179Y-73151D02*
X731178D01*
X739175Y-76150D02*
Y-70152D01*
X742174D01*
X743174Y-71151D01*
Y-73151D01*
X742174Y-74150D01*
X739175D01*
X745173Y-70152D02*
Y-76150D01*
X747173Y-74150D01*
X749172Y-76150D01*
Y-70152D01*
X751171Y-76150D02*
Y-70152D01*
X754171D01*
X755170Y-71151D01*
Y-73151D01*
X754171Y-74150D01*
X751171D01*
X753171D02*
X755170Y-76150D01*
X651204Y-64150D02*
Y-58152D01*
X654203D01*
X655202Y-59151D01*
Y-61151D01*
X654203Y-62150D01*
X651204D01*
X657202Y-60151D02*
Y-64150D01*
Y-62150D01*
X658202Y-61151D01*
X659201Y-60151D01*
X660201D01*
X666199Y-64150D02*
X664200D01*
X663200Y-63150D01*
Y-61151D01*
X664200Y-60151D01*
X666199D01*
X667199Y-61151D01*
Y-62150D01*
X663200D01*
X669198Y-66149D02*
Y-60151D01*
X672197D01*
X673197Y-61151D01*
Y-63150D01*
X672197Y-64150D01*
X669198D01*
X678195D02*
X676196D01*
X675196Y-63150D01*
Y-61151D01*
X676196Y-60151D01*
X678195D01*
X679195Y-61151D01*
Y-62150D01*
X675196D01*
X683193Y-66149D02*
X684193D01*
X685193Y-65149D01*
Y-60151D01*
X682194D01*
X681194Y-61151D01*
Y-63150D01*
X682194Y-64150D01*
X685193D01*
X697189D02*
X693190D01*
X697189Y-60151D01*
Y-59151D01*
X696189Y-58152D01*
X694190D01*
X693190Y-59151D01*
X651204Y-46152D02*
Y-52150D01*
X655202D01*
X658202Y-48151D02*
X660201D01*
X661201Y-49151D01*
Y-52150D01*
X658202D01*
X657202Y-51150D01*
X658202Y-50150D01*
X661201D01*
X663200Y-48151D02*
Y-51150D01*
X664200Y-52150D01*
X667199D01*
Y-53149D01*
X666199Y-54149D01*
X665199D01*
X667199Y-52150D02*
Y-48151D01*
X672197Y-52150D02*
X670198D01*
X669198Y-51150D01*
Y-49151D01*
X670198Y-48151D01*
X672197D01*
X673197Y-49151D01*
Y-50150D01*
X669198D01*
X675196Y-48151D02*
Y-52150D01*
Y-50150D01*
X676196Y-49151D01*
X677195Y-48151D01*
X678195D01*
X691191Y-52150D02*
X687192D01*
X691191Y-48151D01*
Y-47151D01*
X690191Y-46152D01*
X688192D01*
X687192Y-47151D01*
X699188Y-49151D02*
X703187D01*
X715183Y-47151D02*
X714184Y-46152D01*
X712184D01*
X711184Y-47151D01*
Y-51150D01*
X712184Y-52150D01*
X714184D01*
X715183Y-51150D01*
Y-49151D01*
X713184D01*
X717182Y-52150D02*
Y-46152D01*
X721181Y-52150D01*
Y-46152D01*
X723181D02*
Y-52150D01*
X726180D01*
X727179Y-51150D01*
Y-47151D01*
X726180Y-46152D01*
X723181D01*
X651204Y-34152D02*
Y-40150D01*
X654203D01*
X655202Y-39150D01*
Y-35151D01*
X654203Y-34152D01*
X651204D01*
X657202Y-40150D02*
X659201D01*
X658202D01*
Y-36151D01*
X657202D01*
X665199Y-40150D02*
X663200D01*
X662200Y-39150D01*
Y-37151D01*
X663200Y-36151D01*
X665199D01*
X666199Y-37151D01*
Y-38150D01*
X662200D01*
X668198Y-40150D02*
X670198D01*
X669198D01*
Y-34152D01*
X668198D01*
X676196Y-40150D02*
X674196D01*
X673197Y-39150D01*
Y-37151D01*
X674196Y-36151D01*
X676196D01*
X677195Y-37151D01*
Y-38150D01*
X673197D01*
X683193Y-36151D02*
X680195D01*
X679195Y-37151D01*
Y-39150D01*
X680195Y-40150D01*
X683193D01*
X686193Y-35151D02*
Y-36151D01*
X685193D01*
X687192D01*
X686193D01*
Y-39150D01*
X687192Y-40150D01*
X690191Y-36151D02*
Y-40150D01*
Y-38150D01*
X691191Y-37151D01*
X692191Y-36151D01*
X693190D01*
X696189Y-40150D02*
X698189D01*
X697189D01*
Y-36151D01*
X696189D01*
X705186D02*
X702187D01*
X701188Y-37151D01*
Y-39150D01*
X702187Y-40150D01*
X705186D01*
X713184D02*
X715183D01*
X714184D01*
Y-34152D01*
X713184Y-35151D01*
X651204Y-22152D02*
Y-28150D01*
X655202D01*
X658202Y-24151D02*
X660201D01*
X661201Y-25151D01*
Y-28150D01*
X658202D01*
X657202Y-27150D01*
X658202Y-26150D01*
X661201D01*
X663200Y-24151D02*
Y-27150D01*
X664200Y-28150D01*
X667199D01*
Y-29149D01*
X666199Y-30149D01*
X665199D01*
X667199Y-28150D02*
Y-24151D01*
X672197Y-28150D02*
X670198D01*
X669198Y-27150D01*
Y-25151D01*
X670198Y-24151D01*
X672197D01*
X673197Y-25151D01*
Y-26150D01*
X669198D01*
X675196Y-24151D02*
Y-28150D01*
Y-26150D01*
X676196Y-25151D01*
X677195Y-24151D01*
X678195D01*
X687192Y-28150D02*
X689192D01*
X688192D01*
Y-22152D01*
X687192Y-23151D01*
X698189Y-25151D02*
X702187D01*
X714184Y-23151D02*
X713184Y-22152D01*
X711184D01*
X710185Y-23151D01*
Y-27150D01*
X711184Y-28150D01*
X713184D01*
X714184Y-27150D01*
Y-25151D01*
X712184D01*
X716183Y-28150D02*
Y-22152D01*
X720182Y-28150D01*
Y-22152D01*
X722181D02*
Y-28150D01*
X725180D01*
X726180Y-27150D01*
Y-23151D01*
X725180Y-22152D01*
X722181D01*
X651204Y-16150D02*
Y-10152D01*
X654203D01*
X655202Y-11151D01*
Y-13151D01*
X654203Y-14150D01*
X651204D01*
X657202Y-12151D02*
Y-16150D01*
Y-14150D01*
X658202Y-13151D01*
X659201Y-12151D01*
X660201D01*
X666199Y-16150D02*
X664200D01*
X663200Y-15150D01*
Y-13151D01*
X664200Y-12151D01*
X666199D01*
X667199Y-13151D01*
Y-14150D01*
X663200D01*
X669198Y-18149D02*
Y-12151D01*
X672197D01*
X673197Y-13151D01*
Y-15150D01*
X672197Y-16150D01*
X669198D01*
X678195D02*
X676196D01*
X675196Y-15150D01*
Y-13151D01*
X676196Y-12151D01*
X678195D01*
X679195Y-13151D01*
Y-14150D01*
X675196D01*
X683193Y-18149D02*
X684193D01*
X685193Y-17149D01*
Y-12151D01*
X682194D01*
X681194Y-13151D01*
Y-15150D01*
X682194Y-16150D01*
X685193D01*
X693190D02*
X695190D01*
X694190D01*
Y-10152D01*
X693190Y-11151D01*
X651204Y1849D02*
X655202D01*
X653203D01*
Y-4150D01*
X658202D02*
X660201D01*
X661201Y-3150D01*
Y-1151D01*
X660201Y-151D01*
X658202D01*
X657202Y-1151D01*
Y-3150D01*
X658202Y-4150D01*
X663200Y-6149D02*
Y-151D01*
X666199D01*
X667199Y-1151D01*
Y-3150D01*
X666199Y-4150D01*
X663200D01*
X675196Y1849D02*
Y-4150D01*
X679195D01*
X682194Y-151D02*
X684193D01*
X685193Y-1151D01*
Y-4150D01*
X682194D01*
X681194Y-3150D01*
X682194Y-2150D01*
X685193D01*
X687192Y-151D02*
Y-3150D01*
X688192Y-4150D01*
X691191D01*
Y-5149D01*
X690191Y-6149D01*
X689192D01*
X691191Y-4150D02*
Y-151D01*
X696189Y-4150D02*
X694190D01*
X693190Y-3150D01*
Y-1151D01*
X694190Y-151D01*
X696189D01*
X697189Y-1151D01*
Y-2150D01*
X693190D01*
X699188Y-151D02*
Y-4150D01*
Y-2150D01*
X700188Y-1151D01*
X701188Y-151D01*
X702187D01*
X711184Y-1151D02*
X715183D01*
X723181Y-4150D02*
Y1849D01*
X726180D01*
X727179Y849D01*
Y-1151D01*
X726180Y-2150D01*
X723181D01*
X725180D02*
X727179Y-4150D01*
X733177Y1849D02*
X729179D01*
Y-1151D01*
X731178D01*
X729179D01*
Y-4150D01*
X651204Y13848D02*
X655202D01*
X653203D01*
Y7850D01*
X658202D02*
X660201D01*
X661201Y8850D01*
Y10849D01*
X660201Y11849D01*
X658202D01*
X657202Y10849D01*
Y8850D01*
X658202Y7850D01*
X663200Y5851D02*
Y11849D01*
X666199D01*
X667199Y10849D01*
Y8850D01*
X666199Y7850D01*
X663200D01*
X679195Y12849D02*
X678195Y13848D01*
X676196D01*
X675196Y12849D01*
Y11849D01*
X676196Y10849D01*
X678195D01*
X679195Y9850D01*
Y8850D01*
X678195Y7850D01*
X676196D01*
X675196Y8850D01*
X681194Y11849D02*
Y8850D01*
X682194Y7850D01*
X685193D01*
Y11849D01*
X687192D02*
Y7850D01*
Y9850D01*
X688192Y10849D01*
X689192Y11849D01*
X690191D01*
X694190Y7850D02*
Y12849D01*
Y10849D01*
X693190D01*
X695190D01*
X694190D01*
Y12849D01*
X695190Y13848D01*
X699188Y11849D02*
X701188D01*
X702187Y10849D01*
Y7850D01*
X699188D01*
X698189Y8850D01*
X699188Y9850D01*
X702187D01*
X708185Y11849D02*
X705186D01*
X704187Y10849D01*
Y8850D01*
X705186Y7850D01*
X708185D01*
X713184D02*
X711184D01*
X710185Y8850D01*
Y10849D01*
X711184Y11849D01*
X713184D01*
X714184Y10849D01*
Y9850D01*
X710185D01*
X726180Y13848D02*
X722181D01*
Y10849D01*
X724180D01*
X722181D01*
Y7850D01*
X728179D02*
X730178D01*
X729179D01*
Y11849D01*
X728179D01*
X733177Y7850D02*
Y11849D01*
X736176D01*
X737176Y10849D01*
Y7850D01*
X739175D02*
X741175D01*
X740175D01*
Y11849D01*
X739175D01*
X744174Y7850D02*
X747173D01*
X748173Y8850D01*
X747173Y9850D01*
X745173D01*
X744174Y10849D01*
X745173Y11849D01*
X748173D01*
X750172Y13848D02*
Y7850D01*
Y10849D01*
X751171Y11849D01*
X753171D01*
X754171Y10849D01*
Y7850D01*
X651204Y25848D02*
X655202D01*
X653203D01*
Y19850D01*
X658202D02*
X660201D01*
X661201Y20850D01*
Y22849D01*
X660201Y23849D01*
X658202D01*
X657202Y22849D01*
Y20850D01*
X658202Y19850D01*
X663200Y17851D02*
Y23849D01*
X666199D01*
X667199Y22849D01*
Y20850D01*
X666199Y19850D01*
X663200D01*
X679195Y24849D02*
X678195Y25848D01*
X676196D01*
X675196Y24849D01*
Y23849D01*
X676196Y22849D01*
X678195D01*
X679195Y21850D01*
Y20850D01*
X678195Y19850D01*
X676196D01*
X675196Y20850D01*
X682194Y19850D02*
X684193D01*
X685193Y20850D01*
Y22849D01*
X684193Y23849D01*
X682194D01*
X681194Y22849D01*
Y20850D01*
X682194Y19850D01*
X687192D02*
X689192D01*
X688192D01*
Y25848D01*
X687192D01*
X696189D02*
Y19850D01*
X693190D01*
X692191Y20850D01*
Y22849D01*
X693190Y23849D01*
X696189D01*
X701188Y19850D02*
X699188D01*
X698189Y20850D01*
Y22849D01*
X699188Y23849D01*
X701188D01*
X702187Y22849D01*
Y21850D01*
X698189D01*
X704187Y23849D02*
Y19850D01*
Y21850D01*
X705186Y22849D01*
X706186Y23849D01*
X707186D01*
X651204Y37848D02*
X655202D01*
X653203D01*
Y31850D01*
X658202D02*
X660201D01*
X661201Y32850D01*
Y34849D01*
X660201Y35849D01*
X658202D01*
X657202Y34849D01*
Y32850D01*
X658202Y31850D01*
X663200Y29851D02*
Y35849D01*
X666199D01*
X667199Y34849D01*
Y32850D01*
X666199Y31850D01*
X663200D01*
X678195Y37848D02*
X676196D01*
X675196Y36849D01*
Y32850D01*
X676196Y31850D01*
X678195D01*
X679195Y32850D01*
Y36849D01*
X678195Y37848D01*
X681194Y35849D02*
X683193Y31850D01*
X685193Y35849D01*
X690191Y31850D02*
X688192D01*
X687192Y32850D01*
Y34849D01*
X688192Y35849D01*
X690191D01*
X691191Y34849D01*
Y33850D01*
X687192D01*
X693190Y35849D02*
Y31850D01*
Y33850D01*
X694190Y34849D01*
X695190Y35849D01*
X696189D01*
X699188Y31850D02*
X701188D01*
X700188D01*
Y37848D01*
X699188D01*
X705186Y35849D02*
X707186D01*
X708185Y34849D01*
Y31850D01*
X705186D01*
X704187Y32850D01*
X705186Y33850D01*
X708185D01*
X710185Y35849D02*
Y32850D01*
X711184Y31850D01*
X714184D01*
Y30851D01*
X713184Y29851D01*
X712184D01*
X714184Y31850D02*
Y35849D01*
X784165Y43850D02*
Y49848D01*
X786165Y47849D01*
X788164Y49848D01*
Y43850D01*
X791163Y47849D02*
X793162D01*
X794162Y46849D01*
Y43850D01*
X791163D01*
X790163Y44850D01*
X791163Y45850D01*
X794162D01*
X797161Y48849D02*
Y47849D01*
X796162D01*
X798161D01*
X797161D01*
Y44850D01*
X798161Y43850D01*
X804159D02*
X802160D01*
X801160Y44850D01*
Y46849D01*
X802160Y47849D01*
X804159D01*
X805159Y46849D01*
Y45850D01*
X801160D01*
X807158Y47849D02*
Y43850D01*
Y45850D01*
X808158Y46849D01*
X809157Y47849D01*
X810157D01*
X813156Y43850D02*
X815155D01*
X814156D01*
Y47849D01*
X813156D01*
X819154D02*
X821153D01*
X822153Y46849D01*
Y43850D01*
X819154D01*
X818154Y44850D01*
X819154Y45850D01*
X822153D01*
X824152Y43850D02*
X826152D01*
X825152D01*
Y49848D01*
X824152D01*
X788164Y-95151D02*
X787164Y-94152D01*
X785165D01*
X784165Y-95151D01*
Y-96151D01*
X785165Y-97151D01*
X787164D01*
X788164Y-98150D01*
Y-99150D01*
X787164Y-100150D01*
X785165D01*
X784165Y-99150D01*
X790163Y-100150D02*
Y-94152D01*
X792163Y-96151D01*
X794162Y-94152D01*
Y-100150D01*
X796162Y-97151D02*
X800160D01*
X802160Y-95151D02*
X803159Y-94152D01*
X805159D01*
X806158Y-95151D01*
Y-99150D01*
X805159Y-100150D01*
X803159D01*
X802160Y-99150D01*
Y-95151D01*
X808158D02*
X809157Y-94152D01*
X811157D01*
X812156Y-95151D01*
Y-99150D01*
X811157Y-100150D01*
X809157D01*
X808158Y-99150D01*
Y-95151D01*
X814156Y-100150D02*
X816155D01*
X815155D01*
Y-94152D01*
X814156Y-95151D01*
X784165Y-82152D02*
Y-88150D01*
X788164D01*
X793162D02*
X791163D01*
X790163Y-87150D01*
Y-85151D01*
X791163Y-84151D01*
X793162D01*
X794162Y-85151D01*
Y-86150D01*
X790163D01*
X797161Y-84151D02*
X799160D01*
X800160Y-85151D01*
Y-88150D01*
X797161D01*
X796162Y-87150D01*
X797161Y-86150D01*
X800160D01*
X806158Y-82152D02*
Y-88150D01*
X803159D01*
X802160Y-87150D01*
Y-85151D01*
X803159Y-84151D01*
X806158D01*
X808158Y-85151D02*
X812156D01*
X818154Y-82152D02*
X814156D01*
Y-85151D01*
X816155D01*
X814156D01*
Y-88150D01*
X820154Y-84151D02*
Y-88150D01*
Y-86150D01*
X821153Y-85151D01*
X822153Y-84151D01*
X823153D01*
X829151Y-88150D02*
X827151D01*
X826152Y-87150D01*
Y-85151D01*
X827151Y-84151D01*
X829151D01*
X830151Y-85151D01*
Y-86150D01*
X826152D01*
X835149Y-88150D02*
X833150D01*
X832150Y-87150D01*
Y-85151D01*
X833150Y-84151D01*
X835149D01*
X836148Y-85151D01*
Y-86150D01*
X832150D01*
X788164Y-71151D02*
X787164Y-70152D01*
X785165D01*
X784165Y-71151D01*
Y-75150D01*
X785165Y-76150D01*
X787164D01*
X788164Y-75150D01*
X791163Y-76150D02*
X793162D01*
X794162Y-75150D01*
Y-73151D01*
X793162Y-72151D01*
X791163D01*
X790163Y-73151D01*
Y-75150D01*
X791163Y-76150D01*
X796162Y-78149D02*
Y-72151D01*
X799160D01*
X800160Y-73151D01*
Y-75150D01*
X799160Y-76150D01*
X796162D01*
X802160Y-78149D02*
Y-72151D01*
X805159D01*
X806158Y-73151D01*
Y-75150D01*
X805159Y-76150D01*
X802160D01*
X811157D02*
X809157D01*
X808158Y-75150D01*
Y-73151D01*
X809157Y-72151D01*
X811157D01*
X812156Y-73151D01*
Y-74150D01*
X808158D01*
X814156Y-72151D02*
Y-76150D01*
Y-74150D01*
X815155Y-73151D01*
X816155Y-72151D01*
X817155D01*
X784165Y-64150D02*
Y-58152D01*
X787164D01*
X788164Y-59151D01*
Y-61151D01*
X787164Y-62150D01*
X784165D01*
X790163Y-64150D02*
Y-58152D01*
X793162D01*
X794162Y-59151D01*
Y-61151D01*
X793162Y-62150D01*
X790163D01*
X796162Y-61151D02*
X800160D01*
X802160Y-59151D02*
X803159Y-58152D01*
X805159D01*
X806158Y-59151D01*
Y-63150D01*
X805159Y-64150D01*
X803159D01*
X802160Y-63150D01*
Y-59151D01*
X808158D02*
X809157Y-58152D01*
X811157D01*
X812156Y-59151D01*
Y-63150D01*
X811157Y-64150D01*
X809157D01*
X808158Y-63150D01*
Y-59151D01*
X818154Y-58152D02*
X816155Y-59151D01*
X814156Y-61151D01*
Y-63150D01*
X815155Y-64150D01*
X817155D01*
X818154Y-63150D01*
Y-62150D01*
X817155Y-61151D01*
X814156D01*
X788164Y-47151D02*
X787164Y-46152D01*
X785165D01*
X784165Y-47151D01*
Y-51150D01*
X785165Y-52150D01*
X787164D01*
X788164Y-51150D01*
X794162Y-46152D02*
X790163D01*
Y-49151D01*
X792163D01*
X790163D01*
Y-52150D01*
X796162Y-49151D02*
X800160D01*
X802160Y-47151D02*
X803159Y-46152D01*
X805159D01*
X806158Y-47151D01*
Y-51150D01*
X805159Y-52150D01*
X803159D01*
X802160Y-51150D01*
Y-47151D01*
X808158D02*
X809157Y-46152D01*
X811157D01*
X812156Y-47151D01*
Y-51150D01*
X811157Y-52150D01*
X809157D01*
X808158Y-51150D01*
Y-47151D01*
X817155Y-52150D02*
Y-46152D01*
X814156Y-49151D01*
X818154D01*
X788164Y-34152D02*
X784165D01*
Y-37151D01*
X786165D01*
X784165D01*
Y-40150D01*
X790163D02*
Y-34152D01*
X793162D01*
X794162Y-35151D01*
Y-37151D01*
X793162Y-38150D01*
X790163D01*
X792163D02*
X794162Y-40150D01*
X799160D02*
Y-34152D01*
X796162Y-37151D01*
X800160D01*
X788164Y-23151D02*
X787164Y-22152D01*
X785165D01*
X784165Y-23151D01*
Y-27150D01*
X785165Y-28150D01*
X787164D01*
X788164Y-27150D01*
X794162Y-22152D02*
X790163D01*
Y-25151D01*
X792163D01*
X790163D01*
Y-28150D01*
X796162Y-25151D02*
X800160D01*
X802160Y-23151D02*
X803159Y-22152D01*
X805159D01*
X806158Y-23151D01*
Y-27150D01*
X805159Y-28150D01*
X803159D01*
X802160Y-27150D01*
Y-23151D01*
X808158D02*
X809157Y-22152D01*
X811157D01*
X812156Y-23151D01*
Y-27150D01*
X811157Y-28150D01*
X809157D01*
X808158Y-27150D01*
Y-23151D01*
X817155Y-28150D02*
Y-22152D01*
X814156Y-25151D01*
X818154D01*
X784165Y-16150D02*
Y-10152D01*
X787164D01*
X788164Y-11151D01*
Y-13151D01*
X787164Y-14150D01*
X784165D01*
X790163Y-16150D02*
Y-10152D01*
X793162D01*
X794162Y-11151D01*
Y-13151D01*
X793162Y-14150D01*
X790163D01*
X796162Y-13151D02*
X800160D01*
X802160Y-11151D02*
X803159Y-10152D01*
X805159D01*
X806158Y-11151D01*
Y-15150D01*
X805159Y-16150D01*
X803159D01*
X802160Y-15150D01*
Y-11151D01*
X808158D02*
X809157Y-10152D01*
X811157D01*
X812156Y-11151D01*
Y-15150D01*
X811157Y-16150D01*
X809157D01*
X808158Y-15150D01*
Y-11151D01*
X818154Y-10152D02*
X816155Y-11151D01*
X814156Y-13151D01*
Y-15150D01*
X815155Y-16150D01*
X817155D01*
X818154Y-15150D01*
Y-14150D01*
X817155Y-13151D01*
X814156D01*
X788164Y849D02*
X787164Y1849D01*
X785165D01*
X784165Y849D01*
Y-3150D01*
X785165Y-4150D01*
X787164D01*
X788164Y-3150D01*
X791163Y-4150D02*
X793162D01*
X794162Y-3150D01*
Y-1151D01*
X793162Y-151D01*
X791163D01*
X790163Y-1151D01*
Y-3150D01*
X791163Y-4150D01*
X796162Y-6149D02*
Y-151D01*
X799160D01*
X800160Y-1151D01*
Y-3150D01*
X799160Y-4150D01*
X796162D01*
X802160Y-6149D02*
Y-151D01*
X805159D01*
X806158Y-1151D01*
Y-3150D01*
X805159Y-4150D01*
X802160D01*
X811157D02*
X809157D01*
X808158Y-3150D01*
Y-1151D01*
X809157Y-151D01*
X811157D01*
X812156Y-1151D01*
Y-2150D01*
X808158D01*
X814156Y-151D02*
Y-4150D01*
Y-2150D01*
X815155Y-1151D01*
X816155Y-151D01*
X817155D01*
X784165Y13848D02*
Y7850D01*
X788164D01*
X793162D02*
X791163D01*
X790163Y8850D01*
Y10849D01*
X791163Y11849D01*
X793162D01*
X794162Y10849D01*
Y9850D01*
X790163D01*
X797161Y11849D02*
X799160D01*
X800160Y10849D01*
Y7850D01*
X797161D01*
X796162Y8850D01*
X797161Y9850D01*
X800160D01*
X806158Y13848D02*
Y7850D01*
X803159D01*
X802160Y8850D01*
Y10849D01*
X803159Y11849D01*
X806158D01*
X808158Y10849D02*
X812156D01*
X818154Y13848D02*
X814156D01*
Y10849D01*
X816155D01*
X814156D01*
Y7850D01*
X820154Y11849D02*
Y7850D01*
Y9850D01*
X821153Y10849D01*
X822153Y11849D01*
X823153D01*
X829151Y7850D02*
X827151D01*
X826152Y8850D01*
Y10849D01*
X827151Y11849D01*
X829151D01*
X830151Y10849D01*
Y9850D01*
X826152D01*
X835149Y7850D02*
X833150D01*
X832150Y8850D01*
Y10849D01*
X833150Y11849D01*
X835149D01*
X836148Y10849D01*
Y9850D01*
X832150D01*
X788164Y24849D02*
X787164Y25848D01*
X785165D01*
X784165Y24849D01*
Y23849D01*
X785165Y22849D01*
X787164D01*
X788164Y21850D01*
Y20850D01*
X787164Y19850D01*
X785165D01*
X784165Y20850D01*
X790163Y19850D02*
Y25848D01*
X792163Y23849D01*
X794162Y25848D01*
Y19850D01*
X796162Y22849D02*
X800160D01*
X802160Y24849D02*
X803159Y25848D01*
X805159D01*
X806158Y24849D01*
Y20850D01*
X805159Y19850D01*
X803159D01*
X802160Y20850D01*
Y24849D01*
X808158D02*
X809157Y25848D01*
X811157D01*
X812156Y24849D01*
Y20850D01*
X811157Y19850D01*
X809157D01*
X808158Y20850D01*
Y24849D01*
X814156Y19850D02*
X816155D01*
X815155D01*
Y25848D01*
X814156Y24849D01*
X850148Y49848D02*
X854147D01*
X852148D01*
Y43850D01*
X856147Y49848D02*
Y43850D01*
Y46849D01*
X857146Y47849D01*
X859146D01*
X860145Y46849D01*
Y43850D01*
X862145D02*
X864144D01*
X863144D01*
Y47849D01*
X862145D01*
X871142D02*
X868143D01*
X867143Y46849D01*
Y44850D01*
X868143Y43850D01*
X871142D01*
X873141D02*
Y49848D01*
Y45850D02*
X876140Y47849D01*
X873141Y45850D02*
X876140Y43850D01*
X879139D02*
Y47849D01*
X882138D01*
X883138Y46849D01*
Y43850D01*
X888136D02*
X886137D01*
X885137Y44850D01*
Y46849D01*
X886137Y47849D01*
X888136D01*
X889136Y46849D01*
Y45850D01*
X885137D01*
X891135Y43850D02*
X894134D01*
X895134Y44850D01*
X894134Y45850D01*
X892135D01*
X891135Y46849D01*
X892135Y47849D01*
X895134D01*
X897133Y43850D02*
X900132D01*
X901132Y44850D01*
X900132Y45850D01*
X898133D01*
X897133Y46849D01*
X898133Y47849D01*
X901132D01*
X850148Y-95151D02*
X851148Y-94152D01*
X853148D01*
X854147Y-95151D01*
Y-99150D01*
X853148Y-100150D01*
X851148D01*
X850148Y-99150D01*
Y-95151D01*
X857146Y-101149D02*
X858146Y-100150D01*
Y-99150D01*
X857146D01*
Y-100150D01*
X858146D01*
X857146Y-101149D01*
X856147Y-102149D01*
X862145Y-95151D02*
X863144Y-94152D01*
X865144D01*
X866143Y-95151D01*
Y-99150D01*
X865144Y-100150D01*
X863144D01*
X862145Y-99150D01*
Y-95151D01*
X872141Y-100150D02*
X868143D01*
X872141Y-96151D01*
Y-95151D01*
X871142Y-94152D01*
X869142D01*
X868143Y-95151D01*
X878139Y-94152D02*
X874141D01*
Y-97151D01*
X876140Y-96151D01*
X877140D01*
X878139Y-97151D01*
Y-99150D01*
X877140Y-100150D01*
X875140D01*
X874141Y-99150D01*
X880139Y-100150D02*
Y-96151D01*
X881139D01*
X882138Y-97151D01*
Y-100150D01*
Y-97151D01*
X883138Y-96151D01*
X884138Y-97151D01*
Y-100150D01*
X886137D02*
Y-96151D01*
X887137D01*
X888136Y-97151D01*
Y-100150D01*
Y-97151D01*
X889136Y-96151D01*
X890136Y-97151D01*
Y-100150D01*
X850148Y-83151D02*
X851148Y-82152D01*
X853148D01*
X854147Y-83151D01*
Y-87150D01*
X853148Y-88150D01*
X851148D01*
X850148Y-87150D01*
Y-83151D01*
X857146Y-89149D02*
X858146Y-88150D01*
Y-87150D01*
X857146D01*
Y-88150D01*
X858146D01*
X857146Y-89149D01*
X856147Y-90149D01*
X862145Y-83151D02*
X863144Y-82152D01*
X865144D01*
X866143Y-83151D01*
Y-87150D01*
X865144Y-88150D01*
X863144D01*
X862145Y-87150D01*
Y-83151D01*
X872141Y-88150D02*
X868143D01*
X872141Y-84151D01*
Y-83151D01*
X871142Y-82152D01*
X869142D01*
X868143Y-83151D01*
X874141D02*
X875140Y-82152D01*
X877140D01*
X878139Y-83151D01*
Y-87150D01*
X877140Y-88150D01*
X875140D01*
X874141Y-87150D01*
Y-83151D01*
X880139Y-88150D02*
Y-84151D01*
X881139D01*
X882138Y-85151D01*
Y-88150D01*
Y-85151D01*
X883138Y-84151D01*
X884138Y-85151D01*
Y-88150D01*
X886137D02*
Y-84151D01*
X887137D01*
X888136Y-85151D01*
Y-88150D01*
Y-85151D01*
X889136Y-84151D01*
X890136Y-85151D01*
Y-88150D01*
X850148Y-71151D02*
X851148Y-70152D01*
X853148D01*
X854147Y-71151D01*
Y-75150D01*
X853148Y-76150D01*
X851148D01*
X850148Y-75150D01*
Y-71151D01*
X857146Y-77149D02*
X858146Y-76150D01*
Y-75150D01*
X857146D01*
Y-76150D01*
X858146D01*
X857146Y-77149D01*
X856147Y-78149D01*
X862145Y-71151D02*
X863144Y-70152D01*
X865144D01*
X866143Y-71151D01*
Y-75150D01*
X865144Y-76150D01*
X863144D01*
X862145Y-75150D01*
Y-71151D01*
X868143D02*
X869142Y-70152D01*
X871142D01*
X872141Y-71151D01*
Y-72151D01*
X871142Y-73151D01*
X870142D01*
X871142D01*
X872141Y-74150D01*
Y-75150D01*
X871142Y-76150D01*
X869142D01*
X868143Y-75150D01*
X878139Y-70152D02*
X874141D01*
Y-73151D01*
X876140Y-72151D01*
X877140D01*
X878139Y-73151D01*
Y-75150D01*
X877140Y-76150D01*
X875140D01*
X874141Y-75150D01*
X880139Y-76150D02*
Y-72151D01*
X881139D01*
X882138Y-73151D01*
Y-76150D01*
Y-73151D01*
X883138Y-72151D01*
X884138Y-73151D01*
Y-76150D01*
X886137D02*
Y-72151D01*
X887137D01*
X888136Y-73151D01*
Y-76150D01*
Y-73151D01*
X889136Y-72151D01*
X890136Y-73151D01*
Y-76150D01*
X850148Y-59151D02*
X851148Y-58152D01*
X853148D01*
X854147Y-59151D01*
Y-63150D01*
X853148Y-64150D01*
X851148D01*
X850148Y-63150D01*
Y-59151D01*
X857146Y-65149D02*
X858146Y-64150D01*
Y-63150D01*
X857146D01*
Y-64150D01*
X858146D01*
X857146Y-65149D01*
X856147Y-66149D01*
X866143Y-64150D02*
X862145D01*
X866143Y-60151D01*
Y-59151D01*
X865144Y-58152D01*
X863144D01*
X862145Y-59151D01*
X868143Y-64150D02*
X870142D01*
X869142D01*
Y-58152D01*
X868143Y-59151D01*
X873141D02*
X874141Y-58152D01*
X876140D01*
X877140Y-59151D01*
Y-63150D01*
X876140Y-64150D01*
X874141D01*
X873141Y-63150D01*
Y-59151D01*
X879139Y-64150D02*
Y-60151D01*
X880139D01*
X881139Y-61151D01*
Y-64150D01*
Y-61151D01*
X882138Y-60151D01*
X883138Y-61151D01*
Y-64150D01*
X885137D02*
Y-60151D01*
X886137D01*
X887137Y-61151D01*
Y-64150D01*
Y-61151D01*
X888136Y-60151D01*
X889136Y-61151D01*
Y-64150D01*
X850148Y-47151D02*
X851148Y-46152D01*
X853148D01*
X854147Y-47151D01*
Y-51150D01*
X853148Y-52150D01*
X851148D01*
X850148Y-51150D01*
Y-47151D01*
X857146Y-53149D02*
X858146Y-52150D01*
Y-51150D01*
X857146D01*
Y-52150D01*
X858146D01*
X857146Y-53149D01*
X856147Y-54149D01*
X862145Y-47151D02*
X863144Y-46152D01*
X865144D01*
X866143Y-47151D01*
Y-51150D01*
X865144Y-52150D01*
X863144D01*
X862145Y-51150D01*
Y-47151D01*
X868143Y-52150D02*
X870142D01*
X869142D01*
Y-46152D01*
X868143Y-47151D01*
X873141D02*
X874141Y-46152D01*
X876140D01*
X877140Y-47151D01*
Y-48151D01*
X876140Y-49151D01*
X877140Y-50150D01*
Y-51150D01*
X876140Y-52150D01*
X874141D01*
X873141Y-51150D01*
Y-50150D01*
X874141Y-49151D01*
X873141Y-48151D01*
Y-47151D01*
X874141Y-49151D02*
X876140D01*
X879139Y-52150D02*
Y-48151D01*
X880139D01*
X881139Y-49151D01*
Y-52150D01*
Y-49151D01*
X882138Y-48151D01*
X883138Y-49151D01*
Y-52150D01*
X885137D02*
Y-48151D01*
X886137D01*
X887137Y-49151D01*
Y-52150D01*
Y-49151D01*
X888136Y-48151D01*
X889136Y-49151D01*
Y-52150D01*
X850148Y-40150D02*
X852148D01*
X851148D01*
Y-34152D01*
X850148Y-35151D01*
X856147Y-41149D02*
X857146Y-40150D01*
Y-39150D01*
X856147D01*
Y-40150D01*
X857146D01*
X856147Y-41149D01*
X855147Y-42149D01*
X861145Y-35151D02*
X862145Y-34152D01*
X864144D01*
X865144Y-35151D01*
Y-39150D01*
X864144Y-40150D01*
X862145D01*
X861145Y-39150D01*
Y-35151D01*
X871142Y-34152D02*
X869142Y-35151D01*
X867143Y-37151D01*
Y-39150D01*
X868143Y-40150D01*
X870142D01*
X871142Y-39150D01*
Y-38150D01*
X870142Y-37151D01*
X867143D01*
X877140Y-34152D02*
X873141D01*
Y-37151D01*
X875140Y-36151D01*
X876140D01*
X877140Y-37151D01*
Y-39150D01*
X876140Y-40150D01*
X874141D01*
X873141Y-39150D01*
X879139Y-40150D02*
Y-36151D01*
X880139D01*
X881139Y-37151D01*
Y-40150D01*
Y-37151D01*
X882138Y-36151D01*
X883138Y-37151D01*
Y-40150D01*
X885137D02*
Y-36151D01*
X886137D01*
X887137Y-37151D01*
Y-40150D01*
Y-37151D01*
X888136Y-36151D01*
X889136Y-37151D01*
Y-40150D01*
X850148Y-23151D02*
X851148Y-22152D01*
X853148D01*
X854147Y-23151D01*
Y-27150D01*
X853148Y-28150D01*
X851148D01*
X850148Y-27150D01*
Y-23151D01*
X857146Y-29149D02*
X858146Y-28150D01*
Y-27150D01*
X857146D01*
Y-28150D01*
X858146D01*
X857146Y-29149D01*
X856147Y-30149D01*
X862145Y-23151D02*
X863144Y-22152D01*
X865144D01*
X866143Y-23151D01*
Y-27150D01*
X865144Y-28150D01*
X863144D01*
X862145Y-27150D01*
Y-23151D01*
X868143Y-28150D02*
X870142D01*
X869142D01*
Y-22152D01*
X868143Y-23151D01*
X873141D02*
X874141Y-22152D01*
X876140D01*
X877140Y-23151D01*
Y-24151D01*
X876140Y-25151D01*
X877140Y-26150D01*
Y-27150D01*
X876140Y-28150D01*
X874141D01*
X873141Y-27150D01*
Y-26150D01*
X874141Y-25151D01*
X873141Y-24151D01*
Y-23151D01*
X874141Y-25151D02*
X876140D01*
X879139Y-28150D02*
Y-24151D01*
X880139D01*
X881139Y-25151D01*
Y-28150D01*
Y-25151D01*
X882138Y-24151D01*
X883138Y-25151D01*
Y-28150D01*
X885137D02*
Y-24151D01*
X886137D01*
X887137Y-25151D01*
Y-28150D01*
Y-25151D01*
X888136Y-24151D01*
X889136Y-25151D01*
Y-28150D01*
X850148Y-11151D02*
X851148Y-10152D01*
X853148D01*
X854147Y-11151D01*
Y-15150D01*
X853148Y-16150D01*
X851148D01*
X850148Y-15150D01*
Y-11151D01*
X857146Y-17149D02*
X858146Y-16150D01*
Y-15150D01*
X857146D01*
Y-16150D01*
X858146D01*
X857146Y-17149D01*
X856147Y-18149D01*
X866143Y-16150D02*
X862145D01*
X866143Y-12151D01*
Y-11151D01*
X865144Y-10152D01*
X863144D01*
X862145Y-11151D01*
X868143Y-16150D02*
X870142D01*
X869142D01*
Y-10152D01*
X868143Y-11151D01*
X873141D02*
X874141Y-10152D01*
X876140D01*
X877140Y-11151D01*
Y-15150D01*
X876140Y-16150D01*
X874141D01*
X873141Y-15150D01*
Y-11151D01*
X879139Y-16150D02*
Y-12151D01*
X880139D01*
X881139Y-13151D01*
Y-16150D01*
Y-13151D01*
X882138Y-12151D01*
X883138Y-13151D01*
Y-16150D01*
X885137D02*
Y-12151D01*
X886137D01*
X887137Y-13151D01*
Y-16150D01*
Y-13151D01*
X888136Y-12151D01*
X889136Y-13151D01*
Y-16150D01*
X850148Y849D02*
X851148Y1849D01*
X853148D01*
X854147Y849D01*
Y-3150D01*
X853148Y-4150D01*
X851148D01*
X850148Y-3150D01*
Y849D01*
X857146Y-5149D02*
X858146Y-4150D01*
Y-3150D01*
X857146D01*
Y-4150D01*
X858146D01*
X857146Y-5149D01*
X856147Y-6149D01*
X862145Y849D02*
X863144Y1849D01*
X865144D01*
X866143Y849D01*
Y-3150D01*
X865144Y-4150D01*
X863144D01*
X862145Y-3150D01*
Y849D01*
X868143D02*
X869142Y1849D01*
X871142D01*
X872141Y849D01*
Y-151D01*
X871142Y-1151D01*
X870142D01*
X871142D01*
X872141Y-2150D01*
Y-3150D01*
X871142Y-4150D01*
X869142D01*
X868143Y-3150D01*
X878139Y1849D02*
X874141D01*
Y-1151D01*
X876140Y-151D01*
X877140D01*
X878139Y-1151D01*
Y-3150D01*
X877140Y-4150D01*
X875140D01*
X874141Y-3150D01*
X880139Y-4150D02*
Y-151D01*
X881139D01*
X882138Y-1151D01*
Y-4150D01*
Y-1151D01*
X883138Y-151D01*
X884138Y-1151D01*
Y-4150D01*
X886137D02*
Y-151D01*
X887137D01*
X888136Y-1151D01*
Y-4150D01*
Y-1151D01*
X889136Y-151D01*
X890136Y-1151D01*
Y-4150D01*
X850148Y12849D02*
X851148Y13848D01*
X853148D01*
X854147Y12849D01*
Y8850D01*
X853148Y7850D01*
X851148D01*
X850148Y8850D01*
Y12849D01*
X857146Y6851D02*
X858146Y7850D01*
Y8850D01*
X857146D01*
Y7850D01*
X858146D01*
X857146Y6851D01*
X856147Y5851D01*
X862145Y12849D02*
X863144Y13848D01*
X865144D01*
X866143Y12849D01*
Y8850D01*
X865144Y7850D01*
X863144D01*
X862145Y8850D01*
Y12849D01*
X872141Y7850D02*
X868143D01*
X872141Y11849D01*
Y12849D01*
X871142Y13848D01*
X869142D01*
X868143Y12849D01*
X874141D02*
X875140Y13848D01*
X877140D01*
X878139Y12849D01*
Y8850D01*
X877140Y7850D01*
X875140D01*
X874141Y8850D01*
Y12849D01*
X880139Y7850D02*
Y11849D01*
X881139D01*
X882138Y10849D01*
Y7850D01*
Y10849D01*
X883138Y11849D01*
X884138Y10849D01*
Y7850D01*
X886137D02*
Y11849D01*
X887137D01*
X888136Y10849D01*
Y7850D01*
Y10849D01*
X889136Y11849D01*
X890136Y10849D01*
Y7850D01*
X850148Y24849D02*
X851148Y25848D01*
X853148D01*
X854147Y24849D01*
Y20850D01*
X853148Y19850D01*
X851148D01*
X850148Y20850D01*
Y24849D01*
X857146Y18851D02*
X858146Y19850D01*
Y20850D01*
X857146D01*
Y19850D01*
X858146D01*
X857146Y18851D01*
X856147Y17851D01*
X862145Y24849D02*
X863144Y25848D01*
X865144D01*
X866143Y24849D01*
Y20850D01*
X865144Y19850D01*
X863144D01*
X862145Y20850D01*
Y24849D01*
X872141Y19850D02*
X868143D01*
X872141Y23849D01*
Y24849D01*
X871142Y25848D01*
X869142D01*
X868143Y24849D01*
X878139Y25848D02*
X874141D01*
Y22849D01*
X876140Y23849D01*
X877140D01*
X878139Y22849D01*
Y20850D01*
X877140Y19850D01*
X875140D01*
X874141Y20850D01*
X880139Y19850D02*
Y23849D01*
X881139D01*
X882138Y22849D01*
Y19850D01*
Y22849D01*
X883138Y23849D01*
X884138Y22849D01*
Y19850D01*
X886137D02*
Y23849D01*
X887137D01*
X888136Y22849D01*
Y19850D01*
Y22849D01*
X889136Y23849D01*
X890136Y22849D01*
Y19850D01*
X919131Y48849D02*
X918131Y49848D01*
X916132D01*
X915132Y48849D01*
Y44850D01*
X916132Y43850D01*
X918131D01*
X919131Y44850D01*
X922130Y43850D02*
X924129D01*
X925129Y44850D01*
Y46849D01*
X924129Y47849D01*
X922130D01*
X921130Y46849D01*
Y44850D01*
X922130Y43850D01*
X927128D02*
Y47849D01*
X930127D01*
X931127Y46849D01*
Y43850D01*
X933126D02*
X936125D01*
X937125Y44850D01*
X936125Y45850D01*
X934126D01*
X933126Y46849D01*
X934126Y47849D01*
X937125D01*
X940124Y48849D02*
Y47849D01*
X939124D01*
X941124D01*
X940124D01*
Y44850D01*
X941124Y43850D01*
X945122Y47849D02*
X947122D01*
X948121Y46849D01*
Y43850D01*
X945122D01*
X944123Y44850D01*
X945122Y45850D01*
X948121D01*
X950121Y43850D02*
Y47849D01*
X953120D01*
X954119Y46849D01*
Y43850D01*
X957119Y48849D02*
Y47849D01*
X956119D01*
X958118D01*
X957119D01*
Y44850D01*
X958118Y43850D01*
X918131Y-100150D02*
Y-94152D01*
X915132Y-97151D01*
X919131D01*
X918131Y-64150D02*
Y-58152D01*
X915132Y-61151D01*
X919131D01*
X921130Y-64150D02*
Y-63150D01*
X922130D01*
Y-64150D01*
X921130D01*
X929128D02*
Y-58152D01*
X926128Y-61151D01*
X930127D01*
X918131Y-40150D02*
Y-34152D01*
X915132Y-37151D01*
X919131D01*
X921130Y-40150D02*
Y-39150D01*
X922130D01*
Y-40150D01*
X921130D01*
X930127Y-34152D02*
X928128Y-35151D01*
X926128Y-37151D01*
Y-39150D01*
X927128Y-40150D01*
X929128D01*
X930127Y-39150D01*
Y-38150D01*
X929128Y-37151D01*
X926128D01*
X918131Y-16150D02*
Y-10152D01*
X915132Y-13151D01*
X919131D01*
X921130Y-16150D02*
Y-15150D01*
X922130D01*
Y-16150D01*
X921130D01*
X929128D02*
Y-10152D01*
X926128Y-13151D01*
X930127D01*
X918131Y19850D02*
Y25848D01*
X915132Y22849D01*
X919131D01*
D15*
X113878Y-289764D02*
X144272D01*
Y-242126D01*
X113878D02*
X144272D01*
X113878Y-289764D02*
Y-242126D01*
X-6476Y-25197D02*
X23917D01*
X-6476Y-72835D02*
Y-25197D01*
Y-72835D02*
X23917D01*
Y-25197D01*
X269685Y-200295D02*
Y-169902D01*
X222047D02*
X269685D01*
X222047Y-200295D02*
Y-169902D01*
Y-200295D02*
X269685D01*
X114272Y-72441D02*
X144665D01*
Y-24803D01*
X114272D02*
X144665D01*
X114272Y-72441D02*
Y-24803D01*
X358661Y-321831D02*
Y-291437D01*
X311024Y-321831D02*
Y-291437D01*
Y-321831D02*
X358661D01*
X311024Y-291437D02*
X358661D01*
X133465Y-322224D02*
Y-291831D01*
Y-322224D02*
X181102D01*
Y-291831D01*
X133465D02*
X181102D01*
X310630Y-23524D02*
X358268D01*
X310630D02*
Y6870D01*
X358268D01*
Y-23524D02*
Y6870D01*
X133465Y-23130D02*
X181102D01*
X133465D02*
Y7264D01*
X181102D01*
Y-23130D02*
Y7264D01*
X23524Y-290158D02*
Y-242520D01*
X-6870Y-290158D02*
X23524D01*
X-6870D02*
Y-242520D01*
X23524D01*
X222441Y-113878D02*
X270079D01*
Y-144272D02*
Y-113878D01*
X222441Y-144272D02*
X270079D01*
X222441D02*
Y-113878D01*
X291437Y-72441D02*
Y-24803D01*
X321831D01*
Y-72441D02*
Y-24803D01*
X291437Y-72441D02*
X321831D01*
X467815Y-289764D02*
Y-242126D01*
X498209D01*
Y-289764D02*
Y-242126D01*
X467815Y-289764D02*
X498209D01*
X377461Y-72835D02*
Y-25197D01*
X347067Y-72835D02*
X377461D01*
X347067D02*
Y-25197D01*
X377461D01*
X291437Y-289764D02*
Y-242126D01*
X321831D01*
Y-289764D02*
Y-242126D01*
X291437Y-289764D02*
X321831D01*
X378248Y-290158D02*
Y-242520D01*
X347854Y-290158D02*
X378248D01*
X347854D02*
Y-242520D01*
X378248D01*
X468209Y-72441D02*
Y-24803D01*
X498602D01*
Y-72441D02*
Y-24803D01*
X468209Y-72441D02*
X498602D01*
X200295Y-290158D02*
Y-242520D01*
X169902Y-290158D02*
X200295D01*
X169902D02*
Y-242520D01*
X200295D01*
X200689Y-72835D02*
Y-25197D01*
X170295Y-72835D02*
X200689D01*
X170295D02*
Y-25197D01*
X200689D01*
X115650Y-237008D02*
Y-237664D01*
X115978Y-237992D01*
X117290D01*
X117618Y-237664D01*
Y-237008D01*
X117290Y-236680D01*
X115978D01*
X115650Y-237008D01*
Y-236024D02*
X117290D01*
X117618Y-235696D01*
Y-235040D01*
X117290Y-234712D01*
X115650D01*
Y-234056D02*
Y-232745D01*
Y-233401D01*
X117618D01*
X117946Y-232088D02*
Y-230777D01*
X115650Y-230121D02*
X116962D01*
X117618Y-229465D01*
X116962Y-228809D01*
X115650D01*
X115978Y-226841D02*
X115650Y-227169D01*
Y-227825D01*
X115978Y-228153D01*
X117290D01*
X117618Y-227825D01*
Y-227169D01*
X117290Y-226841D01*
X115650Y-225201D02*
Y-225857D01*
X115978Y-226185D01*
X117290D01*
X117618Y-225857D01*
Y-225201D01*
X117290Y-224873D01*
X115978D01*
X115650Y-225201D01*
X22145Y-77952D02*
Y-77297D01*
X21817Y-76968D01*
X20505D01*
X20177Y-77297D01*
Y-77952D01*
X20505Y-78280D01*
X21817D01*
X22145Y-77952D01*
Y-78936D02*
X20505D01*
X20177Y-79264D01*
Y-79920D01*
X20505Y-80248D01*
X22145D01*
Y-80904D02*
Y-82216D01*
Y-81560D01*
X20177D01*
X19849Y-82872D02*
Y-84184D01*
X22145Y-84840D02*
Y-85496D01*
Y-85168D01*
X20177D01*
Y-84840D01*
Y-85496D01*
X22145Y-87792D02*
Y-86480D01*
X21161D01*
Y-87136D01*
Y-86480D01*
X20177D01*
X216929Y-198523D02*
X217585D01*
X217913Y-198195D01*
Y-196883D01*
X217585Y-196555D01*
X216929D01*
X216601Y-196883D01*
Y-198195D01*
X216929Y-198523D01*
X215946D02*
Y-196883D01*
X215617Y-196555D01*
X214962D01*
X214634Y-196883D01*
Y-198523D01*
X213978D02*
X212666D01*
X213322D01*
Y-196555D01*
X212010Y-196227D02*
X210698D01*
X208730Y-198523D02*
X210042D01*
Y-197539D01*
X209386D01*
X210042D01*
Y-196555D01*
X116044Y-20669D02*
Y-20013D01*
Y-20341D01*
X118012D01*
Y-20669D01*
Y-20013D01*
Y-19029D02*
X116044D01*
X118012Y-17718D01*
X116044D01*
X118340Y-17062D02*
Y-15750D01*
X116044Y-15094D02*
Y-14438D01*
Y-14766D01*
X118012D01*
Y-15094D01*
Y-14438D01*
X116044Y-12142D02*
Y-13454D01*
X117028D01*
Y-12798D01*
Y-13454D01*
X118012D01*
X362795Y-293209D02*
X364107D01*
X363451D01*
Y-295177D01*
X366075D02*
X364763D01*
X366075Y-293865D01*
Y-293537D01*
X365747Y-293209D01*
X365091D01*
X364763Y-293537D01*
X185236Y-293603D02*
X186548D01*
X185892D01*
Y-295571D01*
X187204D02*
X187860D01*
X187532D01*
Y-293603D01*
X187204Y-293931D01*
X306496Y-21751D02*
X305184D01*
X305840D01*
Y-19783D01*
X303544D02*
Y-21751D01*
X304528Y-20767D01*
X303216D01*
X129331Y-21358D02*
X128019D01*
X128675D01*
Y-19390D01*
X126051Y-21358D02*
X127363D01*
Y-20374D01*
X126707Y-20702D01*
X126379D01*
X126051Y-20374D01*
Y-19718D01*
X126379Y-19390D01*
X127035D01*
X127363Y-19718D01*
X21751Y-294291D02*
X20439D01*
X19783Y-294947D01*
X20439Y-295603D01*
X21751D01*
X21423Y-296587D02*
X21095D01*
Y-296259D01*
Y-296915D01*
Y-296587D01*
X20111D01*
X19783Y-296915D01*
X21095Y-297899D02*
X20111D01*
X19783Y-298227D01*
Y-299211D01*
X21095D01*
X19783Y-299867D02*
X21095D01*
Y-300851D01*
X20767Y-301179D01*
X19783D01*
Y-302819D02*
Y-302163D01*
X20111Y-301835D01*
X20767D01*
X21095Y-302163D01*
Y-302819D01*
X20767Y-303147D01*
X20439D01*
Y-301835D01*
X274213Y-115650D02*
Y-116962D01*
X274869Y-117618D01*
X275524Y-116962D01*
Y-115650D01*
X276181D02*
Y-117618D01*
X277492D01*
X279132Y-115650D02*
X278476D01*
X278148Y-115978D01*
Y-117290D01*
X278476Y-117618D01*
X279132D01*
X279460Y-117290D01*
Y-115978D01*
X279132Y-115650D01*
X295177Y-20669D02*
X293209D01*
Y-19685D01*
X293537Y-19357D01*
X294193D01*
X294521Y-19685D01*
Y-20669D01*
Y-20013D02*
X295177Y-19357D01*
X293209Y-17390D02*
Y-18701D01*
X294193D01*
Y-18045D01*
Y-18701D01*
X295177D01*
X469587Y-237008D02*
Y-237664D01*
X469915Y-237992D01*
X471227D01*
X471555Y-237664D01*
Y-237008D01*
X471227Y-236680D01*
X469915D01*
X469587Y-237008D01*
Y-236024D02*
X471227D01*
X471555Y-235696D01*
Y-235040D01*
X471227Y-234712D01*
X469587D01*
Y-234056D02*
Y-232745D01*
Y-233401D01*
X471555D01*
X471883Y-232088D02*
Y-230777D01*
X471555Y-230121D02*
X469587D01*
Y-229137D01*
X469915Y-228809D01*
X470571D01*
X470899Y-229137D01*
Y-230121D01*
X471555Y-228153D02*
X470243D01*
X469587Y-227497D01*
X470243Y-226841D01*
X471555D01*
X470571D01*
Y-228153D01*
X375688Y-77952D02*
Y-77297D01*
X375360Y-76968D01*
X374048D01*
X373721Y-77297D01*
Y-77952D01*
X374048Y-78280D01*
X375360D01*
X375688Y-77952D01*
Y-78936D02*
X374048D01*
X373721Y-79264D01*
Y-79920D01*
X374048Y-80248D01*
X375688D01*
Y-80904D02*
Y-82216D01*
Y-81560D01*
X373721D01*
X373393Y-82872D02*
Y-84184D01*
X375688Y-84840D02*
X373721D01*
Y-86152D01*
Y-86808D02*
X375688D01*
X373721Y-88120D01*
X375688D01*
X373721Y-88776D02*
X375032D01*
X375688Y-89432D01*
X375032Y-90088D01*
X373721D01*
X374704D01*
Y-88776D01*
X293209Y-237008D02*
Y-237664D01*
X293537Y-237992D01*
X294849D01*
X295177Y-237664D01*
Y-237008D01*
X294849Y-236680D01*
X293537D01*
X293209Y-237008D01*
Y-236024D02*
X294849D01*
X295177Y-235696D01*
Y-235040D01*
X294849Y-234712D01*
X293209D01*
Y-234056D02*
Y-232745D01*
Y-233401D01*
X295177D01*
X295505Y-232088D02*
Y-230777D01*
X293537Y-228809D02*
X293209Y-229137D01*
Y-229793D01*
X293537Y-230121D01*
X294849D01*
X295177Y-229793D01*
Y-229137D01*
X294849Y-228809D01*
X376476Y-294291D02*
Y-294947D01*
Y-294619D01*
X374508D01*
Y-294291D01*
Y-294947D01*
Y-295931D02*
X376476D01*
X374508Y-297243D01*
X376476D01*
X374180Y-297899D02*
Y-299211D01*
X374508Y-299867D02*
X376476D01*
Y-300851D01*
X376148Y-301179D01*
X375492D01*
X375164Y-300851D01*
Y-299867D01*
X374508Y-301835D02*
X375820D01*
X376476Y-302491D01*
X375820Y-303147D01*
X374508D01*
X375492D01*
Y-301835D01*
X469981Y-20669D02*
Y-20013D01*
Y-20341D01*
X471949D01*
Y-20669D01*
Y-20013D01*
Y-19029D02*
X469981D01*
X471949Y-17718D01*
X469981D01*
X472277Y-17062D02*
Y-15750D01*
X469981Y-15094D02*
X471949D01*
Y-13782D01*
Y-13126D02*
X469981D01*
X471949Y-11814D01*
X469981D01*
X471949Y-11158D02*
X470637D01*
X469981Y-10502D01*
X470637Y-9846D01*
X471949D01*
X470965D01*
Y-11158D01*
X198523Y-294291D02*
Y-294947D01*
Y-294619D01*
X196555D01*
Y-294291D01*
Y-294947D01*
Y-295931D02*
X198523D01*
X196555Y-297243D01*
X198523D01*
X196227Y-297899D02*
Y-299211D01*
X198195Y-301179D02*
X198523Y-300851D01*
Y-300195D01*
X198195Y-299867D01*
X196883D01*
X196555Y-300195D01*
Y-300851D01*
X196883Y-301179D01*
X198917Y-76968D02*
Y-77624D01*
Y-77297D01*
X196949D01*
Y-76968D01*
Y-77624D01*
X198917Y-79920D02*
Y-78608D01*
X197933D01*
Y-79264D01*
Y-78608D01*
X196949D01*
D62*
X603213Y40850D02*
X1016106D01*
X603213Y52850D02*
X1016106D01*
X603213Y-115150D02*
Y52850D01*
Y-115150D02*
X644204D01*
X603213Y-103150D02*
X644204D01*
X603213Y-91150D02*
X644204D01*
X603213Y-79150D02*
X644204D01*
X603213Y-67150D02*
X644204D01*
X603213Y-55150D02*
X644204D01*
X603213Y-43150D02*
X644204D01*
X603213Y-31150D02*
X644204D01*
X603213Y-19150D02*
X644204D01*
X603213Y-7150D02*
X644204D01*
X603213Y4850D02*
X644204D01*
X603213Y16850D02*
X644204D01*
X603213Y28850D02*
X644204D01*
Y-115150D02*
Y52850D01*
Y-115150D02*
X777165D01*
X644204Y-103150D02*
X777165D01*
X644204Y-91150D02*
X777165D01*
X644204Y-79150D02*
X777165D01*
X644204Y-67150D02*
X777165D01*
X644204Y-55150D02*
X777165D01*
X644204Y-43150D02*
X777165D01*
X644204Y-31150D02*
X777165D01*
X644204Y-19150D02*
X777165D01*
X644204Y-7150D02*
X777165D01*
X644204Y4850D02*
X777165D01*
X644204Y16850D02*
X777165D01*
X644204Y28850D02*
X777165D01*
Y-115150D02*
Y52850D01*
Y-115150D02*
X843149D01*
X777165Y-103150D02*
X843149D01*
X777165Y-91150D02*
X843149D01*
X777165Y-79150D02*
X843149D01*
X777165Y-67150D02*
X843149D01*
X777165Y-55150D02*
X843149D01*
X777165Y-43150D02*
X843149D01*
X777165Y-31150D02*
X843149D01*
X777165Y-19150D02*
X843149D01*
X777165Y-7150D02*
X843149D01*
X777165Y4850D02*
X843149D01*
X777165Y16850D02*
X843149D01*
X777165Y28850D02*
X843149D01*
Y-115150D02*
Y52850D01*
Y-115150D02*
X908132D01*
X843149Y-103150D02*
X908132D01*
X843149Y-91150D02*
X908132D01*
X843149Y-79150D02*
X908132D01*
X843149Y-67150D02*
X908132D01*
X843149Y-55150D02*
X908132D01*
X843149Y-43150D02*
X908132D01*
X843149Y-31150D02*
X908132D01*
X843149Y-19150D02*
X908132D01*
X843149Y-7150D02*
X908132D01*
X843149Y4850D02*
X908132D01*
X843149Y16850D02*
X908132D01*
X843149Y28850D02*
X908132D01*
Y-115150D02*
Y52850D01*
Y-115150D02*
X965118D01*
X908132Y-103150D02*
X965118D01*
X908132Y-91150D02*
X965118D01*
X908132Y-79150D02*
X965118D01*
X908132Y-67150D02*
X965118D01*
X908132Y-55150D02*
X965118D01*
X908132Y-43150D02*
X965118D01*
X908132Y-31150D02*
X965118D01*
X908132Y-19150D02*
X965118D01*
X908132Y-7150D02*
X965118D01*
X908132Y4850D02*
X965118D01*
X908132Y16850D02*
X965118D01*
X908132Y28850D02*
X965118D01*
Y-115150D02*
Y52850D01*
Y-115150D02*
X1016106D01*
X965118Y-103150D02*
X1016106D01*
X965118Y-91150D02*
X1016106D01*
X965118Y-79150D02*
X1016106D01*
X965118Y-67150D02*
X1016106D01*
X965118Y-55150D02*
X1016106D01*
X965118Y-43150D02*
X1016106D01*
X965118Y-31150D02*
X1016106D01*
X965118Y-19150D02*
X1016106D01*
X965118Y-7150D02*
X1016106D01*
X965118Y4850D02*
X1016106D01*
X965118Y16850D02*
X1016106D01*
X965118Y28850D02*
X1016106D01*
Y-115150D02*
Y52850D01*
D124*
X1010106Y-115150D02*
X1016106Y-109150D01*
X1004106Y-115150D02*
X1016106Y-103150D01*
X998106Y-115150D02*
X1010106Y-103150D01*
X992106Y-115150D02*
X1004106Y-103150D01*
X986106Y-115150D02*
X998106Y-103150D01*
X980106Y-115150D02*
X992106Y-103150D01*
X974106Y-115150D02*
X986106Y-103150D01*
X968106Y-115150D02*
X980106Y-103150D01*
X965118Y-112138D02*
X974106Y-103150D01*
X965118Y-106138D02*
X968106Y-103150D01*
X1010106D02*
X1016106Y-97150D01*
X1004106Y-103150D02*
X1016106Y-91150D01*
X998106Y-103150D02*
X1010106Y-91150D01*
X992106Y-103150D02*
X1004106Y-91150D01*
X986106Y-103150D02*
X998106Y-91150D01*
X980106Y-103150D02*
X992106Y-91150D01*
X974106Y-103150D02*
X986106Y-91150D01*
X968106Y-103150D02*
X980106Y-91150D01*
X965118Y-100138D02*
X974106Y-91150D01*
X965118Y-94138D02*
X968106Y-91150D01*
X1010106D02*
X1016106Y-85150D01*
X1004106Y-91150D02*
X1016106Y-79150D01*
X998106Y-91150D02*
X1010106Y-79150D01*
X992106Y-91150D02*
X1004106Y-79150D01*
X986106Y-91150D02*
X998106Y-79150D01*
X980106Y-91150D02*
X992106Y-79150D01*
X974106Y-91150D02*
X986106Y-79150D01*
X968106Y-91150D02*
X980106Y-79150D01*
X965118Y-88138D02*
X974106Y-79150D01*
X965118Y-82138D02*
X968106Y-79150D01*
X1010106D02*
X1016106Y-73150D01*
X1004106Y-79150D02*
X1016106Y-67150D01*
X998106Y-79150D02*
X1010106Y-67150D01*
X992106Y-79150D02*
X1004106Y-67150D01*
X986106Y-79150D02*
X998106Y-67150D01*
X980106Y-79150D02*
X992106Y-67150D01*
X974106Y-79150D02*
X986106Y-67150D01*
X968106Y-79150D02*
X980106Y-67150D01*
X965118Y-76138D02*
X974106Y-67150D01*
X965118Y-70138D02*
X968106Y-67150D01*
X1010106D02*
X1016106Y-61150D01*
X1004106Y-67150D02*
X1016106Y-55150D01*
X998106Y-67150D02*
X1010106Y-55150D01*
X992106Y-67150D02*
X1004106Y-55150D01*
X986106Y-67150D02*
X998106Y-55150D01*
X980106Y-67150D02*
X992106Y-55150D01*
X974106Y-67150D02*
X986106Y-55150D01*
X968106Y-67150D02*
X980106Y-55150D01*
X965118Y-64138D02*
X974106Y-55150D01*
X965118Y-58138D02*
X968106Y-55150D01*
X1010106D02*
X1016106Y-49150D01*
X1004106Y-55150D02*
X1016106Y-43150D01*
X998106Y-55150D02*
X1010106Y-43150D01*
X992106Y-55150D02*
X1004106Y-43150D01*
X986106Y-55150D02*
X998106Y-43150D01*
X980106Y-55150D02*
X992106Y-43150D01*
X974106Y-55150D02*
X986106Y-43150D01*
X968106Y-55150D02*
X980106Y-43150D01*
X965118Y-52138D02*
X974106Y-43150D01*
X965118Y-46138D02*
X968106Y-43150D01*
X1010106D02*
X1016106Y-37150D01*
X1004106Y-43150D02*
X1016106Y-31150D01*
X998106Y-43150D02*
X1010106Y-31150D01*
X992106Y-43150D02*
X1004106Y-31150D01*
X986106Y-43150D02*
X998106Y-31150D01*
X980106Y-43150D02*
X992106Y-31150D01*
X974106Y-43150D02*
X986106Y-31150D01*
X968106Y-43150D02*
X980106Y-31150D01*
X965118Y-40138D02*
X974106Y-31150D01*
X965118Y-34138D02*
X968106Y-31150D01*
X1010106D02*
X1016106Y-25150D01*
X1004106Y-31150D02*
X1016106Y-19150D01*
X998106Y-31150D02*
X1010106Y-19150D01*
X992106Y-31150D02*
X1004106Y-19150D01*
X986106Y-31150D02*
X998106Y-19150D01*
X980106Y-31150D02*
X992106Y-19150D01*
X974106Y-31150D02*
X986106Y-19150D01*
X968106Y-31150D02*
X980106Y-19150D01*
X965118Y-28138D02*
X974106Y-19150D01*
X965118Y-22138D02*
X968106Y-19150D01*
X1010106D02*
X1016106Y-13150D01*
X1004106Y-19150D02*
X1016106Y-7150D01*
X998106Y-19150D02*
X1010106Y-7150D01*
X992106Y-19150D02*
X1004106Y-7150D01*
X986106Y-19150D02*
X998106Y-7150D01*
X980106Y-19150D02*
X992106Y-7150D01*
X974106Y-19150D02*
X986106Y-7150D01*
X968106Y-19150D02*
X980106Y-7150D01*
X965118Y-16138D02*
X974106Y-7150D01*
X965118Y-10138D02*
X968106Y-7150D01*
X1010106D02*
X1016106Y-1150D01*
X1004106Y-7150D02*
X1016106Y4850D01*
X998106Y-7150D02*
X1010106Y4850D01*
X992106Y-7150D02*
X1004106Y4850D01*
X986106Y-7150D02*
X998106Y4850D01*
X980106Y-7150D02*
X992106Y4850D01*
X974106Y-7150D02*
X986106Y4850D01*
X968106Y-7150D02*
X980106Y4850D01*
X965118Y-4138D02*
X974106Y4850D01*
X965118Y1862D02*
X968106Y4850D01*
X1010106D02*
X1016106Y10850D01*
X1004106Y4850D02*
X1016106Y16850D01*
X998106Y4850D02*
X1010106Y16850D01*
X992106Y4850D02*
X1004106Y16850D01*
X986106Y4850D02*
X998106Y16850D01*
X980106Y4850D02*
X992106Y16850D01*
X974106Y4850D02*
X986106Y16850D01*
X968106Y4850D02*
X980106Y16850D01*
X965118Y7862D02*
X974106Y16850D01*
X965118Y13862D02*
X968106Y16850D01*
X1010106D02*
X1016106Y22850D01*
X1004106Y16850D02*
X1016106Y28850D01*
X998106Y16850D02*
X1010106Y28850D01*
X992106Y16850D02*
X1004106Y28850D01*
X986106Y16850D02*
X998106Y28850D01*
X980106Y16850D02*
X992106Y28850D01*
X974106Y16850D02*
X986106Y28850D01*
X968106Y16850D02*
X980106Y28850D01*
X965118Y19862D02*
X974106Y28850D01*
X965118Y25862D02*
X968106Y28850D01*
X1010106D02*
X1016106Y34850D01*
X1004106Y28850D02*
X1016106Y40850D01*
X998106Y28850D02*
X1010106Y40850D01*
X992106Y28850D02*
X1004106Y40850D01*
X986106Y28850D02*
X998106Y40850D01*
X980106Y28850D02*
X992106Y40850D01*
X974106Y28850D02*
X986106Y40850D01*
X968106Y28850D02*
X980106Y40850D01*
X965118Y31862D02*
X974106Y40850D01*
X965118Y37862D02*
X968106Y40850D01*
M02*
