G04*
G04 #@! TF.GenerationSoftware,Altium Limited,Altium Designer,21.4.1 (30)*
G04*
G04 Layer_Physical_Order=1*
G04 Layer_Color=255*
%FSLAX25Y25*%
%MOIN*%
G70*
G04*
G04 #@! TF.SameCoordinates,4F7A37CA-CC0D-4B0B-ADC5-D258E3024ECD*
G04*
G04*
G04 #@! TF.FilePolarity,Positive*
G04*
G01*
G75*
%ADD14C,0.01000*%
%ADD18R,0.03937X0.03543*%
%ADD19R,0.03543X0.03937*%
%ADD20R,0.16535X0.04724*%
%ADD21R,0.16535X0.07874*%
%ADD22R,0.08268X0.03543*%
%ADD23R,0.08268X0.12598*%
%ADD24R,0.05512X0.04724*%
%ADD25R,0.04724X0.05512*%
%ADD26R,0.03100X0.01400*%
%ADD27R,0.04724X0.16535*%
%ADD28R,0.07874X0.16535*%
G04:AMPARAMS|DCode=29|XSize=57.87mil|YSize=11.02mil|CornerRadius=1.38mil|HoleSize=0mil|Usage=FLASHONLY|Rotation=180.000|XOffset=0mil|YOffset=0mil|HoleType=Round|Shape=RoundedRectangle|*
%AMROUNDEDRECTD29*
21,1,0.05787,0.00827,0,0,180.0*
21,1,0.05512,0.01102,0,0,180.0*
1,1,0.00276,-0.02756,0.00413*
1,1,0.00276,0.02756,0.00413*
1,1,0.00276,0.02756,-0.00413*
1,1,0.00276,-0.02756,-0.00413*
%
%ADD29ROUNDEDRECTD29*%
%ADD30R,0.01400X0.03100*%
%ADD31R,0.01200X0.02000*%
%ADD32R,0.04500X0.01800*%
%ADD33R,0.04528X0.02362*%
%ADD34R,0.04528X0.01968*%
%ADD35R,0.04528X0.03150*%
%ADD36R,0.04016X0.03504*%
%ADD58C,0.01450*%
%ADD59R,0.05600X0.01700*%
%ADD60C,0.03937*%
%ADD61C,0.01575*%
%ADD62C,0.01500*%
%ADD63C,0.01968*%
%ADD64R,1.33858X0.33268*%
%ADD65R,0.20473X0.74606*%
%ADD66R,0.02953X0.09874*%
%ADD67R,0.02953X0.13780*%
%ADD68R,0.10630X0.30512*%
%ADD69R,0.03937X0.15354*%
%ADD70R,0.08268X0.04724*%
%ADD71R,0.03150X0.05906*%
%ADD72R,1.33858X0.19685*%
%ADD73R,0.10630X0.16535*%
%ADD74R,0.20177X0.74606*%
%ADD75R,0.54331X0.19685*%
%ADD76R,0.20472X0.34843*%
%ADD77R,0.20177X0.34843*%
%ADD78R,1.33563X0.18406*%
%ADD79R,0.53819X0.19685*%
%ADD80R,0.20177X0.74606*%
%ADD81R,0.20374X0.34843*%
%ADD82R,0.20768X0.34843*%
%ADD83R,0.19784X0.74606*%
%ADD84R,0.20329X0.74455*%
%ADD85R,1.33858X0.18852*%
%ADD86R,0.20231X0.34994*%
%ADD87R,0.20124X0.36175*%
%ADD88R,0.20124X0.73274*%
%ADD89R,0.19882X0.75000*%
%ADD90R,0.19685X0.34449*%
%ADD91R,0.19685X0.75000*%
%ADD92R,0.19882X0.34055*%
%ADD93R,0.19685X0.35433*%
%ADD94R,0.19685X0.35433*%
%ADD95R,0.55512X0.19685*%
%ADD96R,0.20768X0.75590*%
%ADD97R,0.20374X0.74016*%
%ADD98R,0.54724X0.19685*%
%ADD99R,0.11024X0.08268*%
%ADD100R,0.20276X0.73622*%
%ADD101R,0.20177X0.74803*%
%ADD102R,0.20276X0.34646*%
%ADD103R,0.19685X0.34646*%
%ADD104C,0.05906*%
%ADD105R,0.05906X0.05906*%
%ADD106R,0.06024X0.06024*%
%ADD107C,0.06024*%
%ADD108C,0.09843*%
%ADD109C,0.02362*%
%ADD110C,0.03937*%
%ADD111C,0.13780*%
G36*
X178528Y-65961D02*
X180315D01*
Y-134252D01*
X228921D01*
Y-136039D01*
X232283D01*
Y-148622D01*
X216431D01*
X216020Y-148122D01*
X216078Y-147835D01*
X210236D01*
X204395D01*
X204452Y-148122D01*
X204042Y-148622D01*
X202756D01*
Y-151266D01*
X202256Y-151579D01*
X201107Y-151272D01*
X199680D01*
X198301Y-151641D01*
X197065Y-152355D01*
X196056Y-153364D01*
X195342Y-154600D01*
X194972Y-155979D01*
Y-157407D01*
X195342Y-158785D01*
X196056Y-160022D01*
X197065Y-161031D01*
X198301Y-161745D01*
X199680Y-162114D01*
X201107D01*
X202256Y-161806D01*
X202756Y-162120D01*
Y-165354D01*
X204040D01*
X204201Y-165551D01*
X210236D01*
X216271D01*
X216433Y-165354D01*
X232283D01*
Y-178134D01*
X228921D01*
Y-179921D01*
X181102D01*
Y-249000D01*
X178134D01*
Y-252756D01*
X136039D01*
Y-249000D01*
X134646D01*
Y-180315D01*
X1969D01*
Y-133858D01*
X134646D01*
Y-65961D01*
X136433D01*
Y-62598D01*
X178528D01*
Y-65961D01*
D02*
G37*
G36*
X355299D02*
X357480D01*
Y-134449D01*
X490158D01*
Y-180905D01*
X357480D01*
Y-249000D01*
X356087D01*
Y-252165D01*
X313598D01*
Y-249000D01*
X311811D01*
Y-180512D01*
X263205D01*
Y-178134D01*
X259055D01*
Y-136039D01*
X263205D01*
Y-134843D01*
X311024D01*
Y-65961D01*
X313598D01*
Y-62008D01*
X355299D01*
Y-65961D01*
D02*
G37*
%LPC*%
G36*
X211221Y-141009D02*
Y-145866D01*
X216078D01*
X215930Y-145123D01*
X215484Y-144046D01*
X214836Y-143076D01*
X214011Y-142251D01*
X213041Y-141603D01*
X211963Y-141157D01*
X211221Y-141009D01*
D02*
G37*
G36*
X191535D02*
Y-145866D01*
X196393D01*
X196245Y-145123D01*
X195799Y-144046D01*
X195150Y-143076D01*
X194326Y-142251D01*
X193356Y-141603D01*
X192278Y-141157D01*
X191535Y-141009D01*
D02*
G37*
G36*
X209252Y-141009D02*
X208509Y-141157D01*
X207431Y-141603D01*
X206462Y-142251D01*
X205637Y-143076D01*
X204989Y-144046D01*
X204542Y-145123D01*
X204395Y-145866D01*
X209252D01*
Y-141009D01*
D02*
G37*
G36*
X189567D02*
X188824Y-141157D01*
X187746Y-141603D01*
X186777Y-142251D01*
X185952Y-143076D01*
X185304Y-144046D01*
X184857Y-145123D01*
X184710Y-145866D01*
X189567D01*
Y-141009D01*
D02*
G37*
G36*
X196393Y-147835D02*
X191535D01*
Y-152692D01*
X192278Y-152544D01*
X193356Y-152098D01*
X194326Y-151450D01*
X195150Y-150625D01*
X195799Y-149655D01*
X196245Y-148578D01*
X196393Y-147835D01*
D02*
G37*
G36*
X189567D02*
X184710D01*
X184857Y-148578D01*
X185304Y-149655D01*
X185952Y-150625D01*
X186777Y-151450D01*
X187746Y-152098D01*
X188824Y-152544D01*
X189567Y-152692D01*
Y-147835D01*
D02*
G37*
G36*
X191535Y-160694D02*
Y-165551D01*
X196393D01*
X196245Y-164808D01*
X195799Y-163731D01*
X195150Y-162761D01*
X194326Y-161936D01*
X193356Y-161288D01*
X192278Y-160842D01*
X191535Y-160694D01*
D02*
G37*
G36*
X189567Y-160694D02*
X188824Y-160842D01*
X187746Y-161288D01*
X186777Y-161936D01*
X185952Y-162761D01*
X185304Y-163731D01*
X184857Y-164808D01*
X184710Y-165551D01*
X189567D01*
Y-160694D01*
D02*
G37*
G36*
X196393Y-167520D02*
X191535D01*
Y-172377D01*
X192278Y-172229D01*
X193356Y-171783D01*
X194326Y-171135D01*
X195150Y-170310D01*
X195799Y-169340D01*
X196245Y-168263D01*
X196393Y-167520D01*
D02*
G37*
G36*
X216078D02*
X211221D01*
Y-172377D01*
X211963Y-172229D01*
X213041Y-171783D01*
X214011Y-171135D01*
X214836Y-170310D01*
X215484Y-169340D01*
X215930Y-168263D01*
X216078Y-167520D01*
D02*
G37*
G36*
X209252D02*
X204395D01*
X204542Y-168263D01*
X204989Y-169340D01*
X205637Y-170310D01*
X206462Y-171135D01*
X207431Y-171783D01*
X208509Y-172229D01*
X209252Y-172377D01*
Y-167520D01*
D02*
G37*
G36*
X189567D02*
X184710D01*
X184857Y-168263D01*
X185304Y-169340D01*
X185952Y-170310D01*
X186777Y-171135D01*
X187746Y-171783D01*
X188824Y-172229D01*
X189567Y-172377D01*
Y-167520D01*
D02*
G37*
%LPD*%
D14*
X87200Y-27461D02*
X90256D01*
X86614Y-37343D02*
Y-28046D01*
X87200Y-27461D01*
X100000Y-39764D02*
X101181Y-40945D01*
X105905D01*
X100000Y-39764D02*
Y-36614D01*
X251665Y-269201D02*
Y-266291D01*
X251575Y-269291D02*
X251665Y-269201D01*
X271484Y-257435D02*
X271530Y-257390D01*
X267882Y-257435D02*
X271484D01*
X251620Y-261522D02*
X251665Y-261567D01*
X251620Y-261522D02*
Y-257919D01*
X111213Y-36417D02*
X113189D01*
Y-48819D02*
X127165D01*
X113189D02*
Y-36417D01*
X109941Y-36614D02*
X111213Y-36417D01*
X86028Y-40638D02*
X86614Y-40052D01*
Y-37343D02*
X89429D01*
X78898Y-40638D02*
X86028D01*
X86614Y-40052D02*
Y-37343D01*
X89429D02*
X90158Y-36614D01*
X100000D02*
X103051D01*
X97047D02*
X100000D01*
X105905Y-40945D02*
X106791Y-41831D01*
Y-44685D02*
Y-41831D01*
X85126Y-42606D02*
X87008Y-44488D01*
X78898Y-42606D02*
X85126D01*
X87008Y-44488D02*
X89862D01*
X89961Y-44587D01*
X49311Y-41634D02*
X54429D01*
X55425Y-40638D02*
X61968D01*
X54429Y-41634D02*
X55425Y-40638D01*
X49426Y-48409D02*
X52194D01*
X57996Y-42606D01*
X61968D01*
X49311Y-48524D02*
X49426Y-48409D01*
X83378Y-36220D02*
Y-29835D01*
Y-38083D02*
Y-36220D01*
X78898Y-36701D02*
X82898D01*
X83378Y-36220D01*
X78898Y-38669D02*
X82792D01*
X82579Y-29035D02*
X83378Y-29835D01*
X82792Y-38669D02*
X83378Y-38083D01*
X58268Y-52362D02*
X58563Y-52067D01*
X61417Y-44575D02*
X61968D01*
X59713Y-44626D02*
X59764Y-44575D01*
X49213Y-35236D02*
X49803Y-35827D01*
X51968D01*
X54811Y-38669D01*
X61968D01*
X55216Y-35138D02*
Y-33071D01*
Y-35138D02*
X56779Y-36701D01*
X61968D01*
X269685Y-33858D02*
Y-25591D01*
X265485Y-38058D02*
X269685Y-33858D01*
X265485Y-42094D02*
Y-38058D01*
Y-48622D02*
Y-42094D01*
X245663Y-51772D02*
X246063Y-52172D01*
Y-61024D02*
Y-52172D01*
X245626Y-51772D02*
X245663D01*
X246063Y-68898D02*
Y-61024D01*
Y-76772D02*
Y-68898D01*
Y-83661D02*
Y-76772D01*
X127165Y-48819D02*
X146949D01*
D18*
X392126Y-77461D02*
D03*
Y-70571D02*
D03*
X403543Y-238681D02*
D03*
Y-231791D02*
D03*
X406496Y-259350D02*
D03*
Y-252461D02*
D03*
X38386Y-251969D02*
D03*
Y-258858D02*
D03*
X265748Y-62008D02*
D03*
Y-68898D02*
D03*
X246063Y-160335D02*
D03*
Y-167224D02*
D03*
X259842Y-98425D02*
D03*
Y-105315D02*
D03*
X100394Y-246949D02*
D03*
Y-240059D02*
D03*
X25591Y-273622D02*
D03*
Y-266732D02*
D03*
X246063Y-153051D02*
D03*
Y-146161D02*
D03*
X83858Y-284744D02*
D03*
Y-291634D02*
D03*
X80709Y-240256D02*
D03*
Y-247146D02*
D03*
X55118Y-258366D02*
D03*
Y-251476D02*
D03*
X64961D02*
D03*
Y-258366D02*
D03*
X410433Y-231791D02*
D03*
Y-238681D02*
D03*
X404724Y-77461D02*
D03*
Y-70571D02*
D03*
X97146Y-44685D02*
D03*
Y-51575D02*
D03*
X89961Y-51476D02*
D03*
Y-44587D02*
D03*
X49311Y-48524D02*
D03*
Y-41634D02*
D03*
X49902Y-71653D02*
D03*
Y-64764D02*
D03*
X108169Y-74902D02*
D03*
Y-68012D02*
D03*
X49213Y-35236D02*
D03*
Y-28346D02*
D03*
X49803Y-85236D02*
D03*
Y-78347D02*
D03*
X89764Y-88976D02*
D03*
Y-82087D02*
D03*
X97539Y-81988D02*
D03*
Y-88878D02*
D03*
X233071Y-270965D02*
D03*
Y-277854D02*
D03*
X218165Y-271122D02*
D03*
Y-278012D02*
D03*
X83858Y-272441D02*
D03*
Y-279331D02*
D03*
X253937Y-46457D02*
D03*
Y-39567D02*
D03*
Y-68898D02*
D03*
Y-62008D02*
D03*
X246063Y-83661D02*
D03*
Y-90551D02*
D03*
X108169Y-81988D02*
D03*
Y-88878D02*
D03*
X106791Y-44685D02*
D03*
Y-51575D02*
D03*
X240158Y-217028D02*
D03*
Y-223917D02*
D03*
X246063Y-246161D02*
D03*
X246063Y-253051D02*
D03*
X253150Y-230020D02*
D03*
Y-236910D02*
D03*
X226378Y-270965D02*
D03*
Y-277854D02*
D03*
X211165Y-271122D02*
D03*
Y-278012D02*
D03*
X462992Y-48819D02*
D03*
Y-41929D02*
D03*
X382283Y-48720D02*
D03*
Y-41831D02*
D03*
X440945Y-48819D02*
D03*
Y-41929D02*
D03*
X424803Y-63681D02*
D03*
Y-56791D02*
D03*
X414961Y-63681D02*
D03*
Y-56791D02*
D03*
X385433Y-70571D02*
D03*
Y-77461D02*
D03*
X392717Y-266240D02*
D03*
Y-273130D02*
D03*
X69291Y-284744D02*
D03*
Y-291634D02*
D03*
Y-271457D02*
D03*
Y-278346D02*
D03*
X90059Y-240059D02*
D03*
Y-246949D02*
D03*
X204724Y-49213D02*
D03*
Y-56102D02*
D03*
X224410Y-49213D02*
D03*
Y-56102D02*
D03*
D19*
X423524Y-77559D02*
D03*
X416634D02*
D03*
X399705Y-265748D02*
D03*
X406595D02*
D03*
X460925Y-266339D02*
D03*
X467815D02*
D03*
X452067Y-266929D02*
D03*
X445177D02*
D03*
X451083Y-257087D02*
D03*
X444193D02*
D03*
X379232Y-266142D02*
D03*
X386122D02*
D03*
X451279Y-250000D02*
D03*
X458169D02*
D03*
X266732Y-98425D02*
D03*
X273622D02*
D03*
X287795Y-48819D02*
D03*
X280906D02*
D03*
X239173Y-106299D02*
D03*
X246063D02*
D03*
X252953Y-98425D02*
D03*
X246063D02*
D03*
X338287Y-266142D02*
D03*
X345177D02*
D03*
X324114D02*
D03*
X331004D02*
D03*
X79823Y-227953D02*
D03*
X86713D02*
D03*
X38386Y-266732D02*
D03*
X31496D02*
D03*
X338287Y-48819D02*
D03*
X345177D02*
D03*
X324114D02*
D03*
X331004D02*
D03*
X160728Y-266142D02*
D03*
X167618D02*
D03*
X146555D02*
D03*
X153445D02*
D03*
X168012Y-48819D02*
D03*
X161122D02*
D03*
X153839D02*
D03*
X146949D02*
D03*
X100492Y-227559D02*
D03*
X93602D02*
D03*
X416634Y-70866D02*
D03*
X423524D02*
D03*
X439272Y-77559D02*
D03*
X432382D02*
D03*
X392421Y-88189D02*
D03*
X385531D02*
D03*
X260728Y-257480D02*
D03*
X267618D02*
D03*
X41236Y-42638D02*
D03*
X34347D02*
D03*
X56890Y-65354D02*
D03*
X63779D02*
D03*
X89468Y-75098D02*
D03*
X96358D02*
D03*
X57973Y-28642D02*
D03*
X64862D02*
D03*
X90158Y-36614D02*
D03*
X97047D02*
D03*
X103051D02*
D03*
X109941D02*
D03*
X41929Y-79626D02*
D03*
X35039D02*
D03*
X52658Y-266732D02*
D03*
X45768D02*
D03*
X211122Y-49213D02*
D03*
X218012D02*
D03*
X239173Y-61024D02*
D03*
X246063D02*
D03*
X252953Y-76772D02*
D03*
X246063D02*
D03*
X82579Y-29035D02*
D03*
X75689D02*
D03*
X58465Y-90256D02*
D03*
X65354D02*
D03*
X58563Y-52067D02*
D03*
X65453D02*
D03*
X81988Y-66240D02*
D03*
X75098D02*
D03*
X41831Y-64665D02*
D03*
X34941D02*
D03*
X41236Y-28638D02*
D03*
X34347D02*
D03*
X41929Y-72342D02*
D03*
X35039D02*
D03*
X89567Y-67224D02*
D03*
X96457D02*
D03*
X41236Y-35638D02*
D03*
X34347D02*
D03*
X90256Y-27461D02*
D03*
X97146D02*
D03*
X240453Y-266142D02*
D03*
X233563D02*
D03*
X225098D02*
D03*
X218209D02*
D03*
X210138D02*
D03*
X203248D02*
D03*
X448524Y-48819D02*
D03*
X455413D02*
D03*
X389862D02*
D03*
X396752D02*
D03*
X432283Y-70472D02*
D03*
X439173D02*
D03*
X432283Y-63386D02*
D03*
X439173D02*
D03*
X406496Y-88189D02*
D03*
X399606D02*
D03*
X407087Y-246063D02*
D03*
X400197D02*
D03*
X102461Y-266142D02*
D03*
X109350D02*
D03*
X58563Y-266732D02*
D03*
X65453D02*
D03*
X281496Y-98425D02*
D03*
X288386D02*
D03*
X280512Y-68898D02*
D03*
X273622D02*
D03*
X239173D02*
D03*
X246063D02*
D03*
X265485Y-42094D02*
D03*
X272375D02*
D03*
D20*
X126772Y-266142D02*
D03*
X11024Y-48819D02*
D03*
X127165D02*
D03*
X10630Y-266142D02*
D03*
X304331Y-48819D02*
D03*
X480709Y-266142D02*
D03*
X364567Y-48819D02*
D03*
X304331Y-266142D02*
D03*
X365354D02*
D03*
X481102Y-48819D02*
D03*
X187402Y-266142D02*
D03*
X187795Y-48819D02*
D03*
D21*
X126772Y-278346D02*
D03*
Y-253937D02*
D03*
X11024Y-36614D02*
D03*
Y-61024D02*
D03*
X127165D02*
D03*
Y-36614D02*
D03*
X10630Y-278346D02*
D03*
Y-253937D02*
D03*
X304331Y-36614D02*
D03*
Y-61024D02*
D03*
X480709Y-253937D02*
D03*
Y-278346D02*
D03*
X364567Y-61024D02*
D03*
Y-36614D02*
D03*
X304331Y-253937D02*
D03*
Y-278346D02*
D03*
X365354D02*
D03*
Y-253937D02*
D03*
X481102Y-36614D02*
D03*
Y-61024D02*
D03*
X187402Y-278346D02*
D03*
Y-253937D02*
D03*
X187795Y-61024D02*
D03*
Y-36614D02*
D03*
D22*
X414961Y-256693D02*
D03*
Y-265748D02*
D03*
Y-274803D02*
D03*
D23*
X437402Y-265748D02*
D03*
D24*
X441732Y-286024D02*
D03*
Y-293110D02*
D03*
X45276Y-282087D02*
D03*
Y-275000D02*
D03*
D25*
X458268Y-242126D02*
D03*
X451181D02*
D03*
X77165Y-100394D02*
D03*
X84252D02*
D03*
X79626Y-221161D02*
D03*
X86713D02*
D03*
X44587Y-97835D02*
D03*
X37500D02*
D03*
X399606Y-96063D02*
D03*
X406693D02*
D03*
X399410Y-224410D02*
D03*
X406496D02*
D03*
D26*
X265485Y-48622D02*
D03*
Y-51181D02*
D03*
Y-53740D02*
D03*
X273885D02*
D03*
Y-51181D02*
D03*
Y-48622D02*
D03*
D27*
X246063Y-187402D02*
D03*
X334646Y-304331D02*
D03*
X157087Y-304724D02*
D03*
X334646Y-10630D02*
D03*
X157480Y-10236D02*
D03*
X246063Y-126772D02*
D03*
D28*
X258268Y-187402D02*
D03*
X233858D02*
D03*
X322441Y-304331D02*
D03*
X346850D02*
D03*
X144882Y-304724D02*
D03*
X169291D02*
D03*
X322441Y-10630D02*
D03*
X346850D02*
D03*
X145276Y-10236D02*
D03*
X169685D02*
D03*
X258268Y-126772D02*
D03*
X233858D02*
D03*
D29*
X78898Y-44575D02*
D03*
Y-42606D02*
D03*
Y-40638D02*
D03*
Y-38669D02*
D03*
Y-36701D02*
D03*
X61968D02*
D03*
Y-38669D02*
D03*
Y-40638D02*
D03*
Y-42606D02*
D03*
Y-44575D02*
D03*
D30*
X245866Y-240027D02*
D03*
X243307D02*
D03*
X240748D02*
D03*
Y-231627D02*
D03*
X243307D02*
D03*
X245866D02*
D03*
D31*
X249500Y-261567D02*
D03*
X251665D02*
D03*
X253831D02*
D03*
Y-265504D02*
D03*
X251665D02*
D03*
X249500D02*
D03*
D32*
X238626Y-49213D02*
D03*
X245626Y-46654D02*
D03*
Y-51772D02*
D03*
D33*
X415079Y-44882D02*
D03*
X425079Y-40882D02*
D03*
Y-48882D02*
D03*
D34*
X80315Y-266142D02*
D03*
X73032Y-261024D02*
D03*
Y-266142D02*
D03*
D35*
X80315Y-261614D02*
D03*
D36*
X404724Y-48764D02*
D03*
Y-55173D02*
D03*
X432283Y-55228D02*
D03*
Y-48819D02*
D03*
D58*
X242845Y-207155D02*
X242160Y-207922D01*
X241565Y-208760D01*
X241068Y-209659D01*
X240674Y-210609D01*
X240389Y-211596D01*
X240216Y-212609D01*
X240158Y-213635D01*
X242845Y-207155D02*
X243492Y-206449D01*
X244076Y-205690D01*
X244591Y-204882D01*
X245034Y-204032D01*
X245400Y-203148D01*
X245689Y-202234D01*
X245896Y-201299D01*
X246021Y-200349D01*
X246063Y-199392D01*
X26964Y-28346D02*
X34252D01*
X25591Y-29720D02*
X26964Y-28346D01*
X425197Y-40764D02*
Y-37402D01*
X425110Y-40913D02*
X429496D01*
X429528Y-40945D01*
X425079Y-40882D02*
X425110Y-40913D01*
X425079Y-40882D02*
X425197Y-40764D01*
X409606Y-117677D02*
X409842Y-117913D01*
X389370Y-120079D02*
X389606Y-119843D01*
X389370Y-121260D02*
X389606Y-121024D01*
X406693Y-96063D02*
X411811D01*
X406496Y-88189D02*
X410630D01*
X392126Y-70571D02*
Y-66535D01*
X385433Y-70571D02*
Y-66535D01*
X382283Y-41831D02*
Y-37795D01*
X462992Y-41929D02*
Y-37795D01*
X440945Y-41929D02*
Y-37795D01*
X439173Y-63386D02*
X443307D01*
X439173Y-70472D02*
X443307D01*
X439272Y-77559D02*
X443307D01*
X415748Y-69980D02*
Y-63681D01*
X414961Y-62894D02*
X415748Y-63681D01*
Y-69980D02*
X416634Y-70866D01*
X424570Y-63914D02*
X424803Y-63681D01*
X424570Y-69819D02*
Y-63914D01*
X423524Y-70866D02*
X424570Y-69819D01*
X432382Y-77559D02*
X432382Y-77559D01*
X423524Y-77559D02*
X432382D01*
X432283Y-77461D02*
X432382Y-77559D01*
X432283Y-77461D02*
Y-70472D01*
Y-63386D01*
X424803Y-49158D02*
X425079Y-48882D01*
X424803Y-56791D02*
Y-49158D01*
X432283Y-63386D02*
Y-55228D01*
X406007Y-47688D02*
X408813Y-44882D01*
X415079D01*
X425110Y-48850D02*
X432252D01*
X432283Y-48819D01*
X425079Y-48882D02*
X425110Y-48850D01*
X432283Y-48819D02*
X440945D01*
X448524D01*
X448492Y-48850D02*
X448524Y-48819D01*
X455413D02*
X462992D01*
X481102D01*
X404980Y-48764D02*
X406007Y-47737D01*
Y-47688D01*
X404724Y-48764D02*
X404980D01*
X414961Y-48819D02*
Y-45370D01*
Y-56004D02*
Y-48819D01*
X414906Y-48764D02*
X414961Y-48819D01*
X414803Y-45213D02*
X414961Y-45370D01*
X404724Y-70571D02*
Y-55173D01*
X404697Y-48791D02*
X404724Y-48764D01*
X396752Y-48819D02*
X396779Y-48791D01*
X404697D01*
X364567Y-48819D02*
X389862D01*
X416585Y-77510D02*
X416634Y-77559D01*
X404724Y-77461D02*
X404774Y-77510D01*
X416585D01*
X392126Y-77461D02*
X404724D01*
X385433D02*
X392126D01*
X392421Y-88189D02*
X399606D01*
X385482Y-88140D02*
Y-77510D01*
Y-88140D02*
X385531Y-88189D01*
X385433Y-77461D02*
X385482Y-77510D01*
X399606Y-96063D02*
Y-88189D01*
Y-106102D02*
Y-96063D01*
X126772Y-266142D02*
X146555D01*
X109350D02*
X126772D01*
X480512Y-266339D02*
X480709Y-266142D01*
X467815Y-266339D02*
X480512D01*
X452362Y-266634D02*
X460630D01*
X460925Y-266339D01*
X452067Y-266929D02*
X452362Y-266634D01*
X406595Y-265748D02*
Y-259449D01*
Y-265748D02*
X414961D01*
X399459Y-265994D02*
X399705Y-265748D01*
X392963Y-265994D02*
X399459D01*
X392717Y-266240D02*
X392963Y-265994D01*
X446693Y-216772D02*
X451181Y-221260D01*
X446693Y-216772D02*
Y-206496D01*
X451181Y-242126D02*
Y-221260D01*
X451279Y-250000D02*
Y-242224D01*
X451181Y-242126D02*
X451279Y-242224D01*
X451181Y-256988D02*
Y-250098D01*
X451083Y-257087D02*
X451181Y-256988D01*
Y-250098D02*
X451279Y-250000D01*
X414961Y-256693D02*
Y-252756D01*
X408661Y-274803D02*
X421654D01*
X414961Y-256693D02*
X422047D01*
X396063Y-246063D02*
X400197D01*
X75640Y-28986D02*
X75664Y-28962D01*
X399764Y-212756D02*
X406496Y-219488D01*
Y-224410D02*
Y-219488D01*
X399764Y-212756D02*
Y-206496D01*
X403543Y-231791D02*
X410433D01*
X404035Y-239173D02*
X408465D01*
X403543Y-238681D02*
X404035Y-239173D01*
X392667Y-266191D02*
X392717Y-266240D01*
X409449Y-230807D02*
X410433Y-231791D01*
X393701Y-224213D02*
X399213D01*
X399410Y-224410D01*
X386171Y-266191D02*
X392667D01*
X386122Y-266142D02*
X386171Y-266191D01*
X365354Y-266142D02*
X379232D01*
X458169Y-250000D02*
X462992D01*
X458661Y-241732D02*
X463287D01*
X458268Y-242126D02*
X458661Y-241732D01*
X458169Y-242224D02*
X458268Y-242126D01*
X392717Y-277953D02*
Y-273130D01*
X253831Y-265504D02*
X303693D01*
X304331Y-266142D01*
X265059Y-230020D02*
X275590Y-219488D01*
Y-204724D01*
X253150Y-230020D02*
X265059D01*
X12795Y-49213D02*
X21654D01*
X25787Y-63976D02*
Y-53347D01*
X21654Y-49213D02*
X25787Y-53347D01*
X70079Y-85827D02*
Y-81890D01*
Y-85827D02*
X78248Y-93996D01*
X89764D01*
X68898Y-260827D02*
X68996Y-260925D01*
X72933D02*
X73032Y-261024D01*
X68996Y-260925D02*
X72933D01*
X64961Y-242126D02*
X66831Y-240256D01*
X64961Y-251476D02*
Y-242126D01*
X65138Y-265436D02*
Y-258366D01*
X66310Y-265953D02*
X66499Y-266142D01*
X66310Y-265953D02*
Y-265751D01*
X66831Y-240256D02*
X80709D01*
X55118Y-258366D02*
X64961D01*
X45768Y-274508D02*
Y-266732D01*
X45276Y-275000D02*
X45768Y-274508D01*
X38386Y-266732D02*
X38386Y-266732D01*
Y-258858D01*
X38386Y-266732D02*
X45768D01*
X38386Y-251969D02*
Y-247736D01*
X45276Y-286319D02*
Y-282087D01*
X246063Y-199392D02*
X246063Y-199385D01*
Y-187402D01*
X240158Y-213635D02*
X240158Y-215981D01*
Y-217028D02*
Y-215981D01*
X41528Y-28346D02*
X57677D01*
X41236Y-28638D02*
X41528Y-28346D01*
X57677D02*
X57973Y-28642D01*
X70866Y-48819D02*
X79134D01*
X69968Y-47921D02*
X70866Y-48819D01*
X69968Y-47921D02*
Y-44488D01*
X75664Y-28962D02*
Y-24779D01*
X75640Y-24754D02*
X75664Y-24779D01*
X45177Y-79626D02*
X46457Y-78347D01*
X41929Y-79626D02*
X45177D01*
X46457Y-78347D02*
X49803D01*
X53543D02*
X54823Y-77067D01*
X49803Y-78347D02*
X53543D01*
X54823Y-77067D02*
X61824D01*
X41929Y-72342D02*
X42618Y-71653D01*
X49902D01*
X53543D01*
X56398Y-74508D01*
X61824D01*
X75148Y-62254D02*
X75197Y-62205D01*
X75098Y-66240D02*
X75148Y-66191D01*
Y-62254D01*
X70079Y-81890D02*
Y-67716D01*
Y-81890D02*
X70374Y-82185D01*
X78924D01*
X89764Y-93996D02*
X106693D01*
X89764D02*
X89764Y-93996D01*
X69968Y-44488D02*
Y-30138D01*
Y-44488D02*
X70055Y-44575D01*
X78898D01*
X90158Y-55905D02*
X105512D01*
X86221D02*
X90158D01*
X89961Y-55709D02*
Y-51476D01*
Y-55709D02*
X90158Y-55905D01*
X79134Y-48819D02*
X86221Y-55905D01*
X105512D02*
X106693Y-54724D01*
Y-51673D01*
X106791Y-51575D01*
X49163Y-56053D02*
X52559Y-59449D01*
X104626D01*
X108071Y-62894D01*
X12205Y-48622D02*
X12795Y-49213D01*
X78924Y-82185D02*
X78987Y-82248D01*
X80967D01*
X41236Y-42638D02*
X44764D01*
X45768Y-41634D01*
X49311D01*
X27510Y-48376D02*
X49163D01*
X25591Y-46457D02*
X27510Y-48376D01*
X49163Y-56053D02*
Y-48376D01*
X72146Y-100492D02*
X72195Y-100443D01*
X77116D01*
X77165Y-100394D01*
X37303Y-98032D02*
X37500Y-97835D01*
X32283Y-98032D02*
X37303D01*
X69242Y-90207D02*
X69291Y-90158D01*
X65354Y-90256D02*
X65403Y-90207D01*
X69242D01*
X64173Y-65626D02*
X67988D01*
X70079Y-67716D01*
X65453Y-52067D02*
X65600Y-52215D01*
X70325D01*
X25787Y-64665D02*
Y-63976D01*
X26476Y-64665D01*
X34941D01*
X30114Y-42638D02*
X34347D01*
X40945Y-65354D02*
X56890D01*
X25591Y-46457D02*
Y-29720D01*
X30114Y-35638D02*
X34347D01*
X41236D02*
X41638Y-35236D01*
X49213D01*
X64862Y-28638D02*
X68468D01*
X78924Y-77067D02*
X83563D01*
X78924Y-79626D02*
X83957D01*
X83563Y-77067D02*
X85532Y-75098D01*
X83957Y-79626D02*
X86356Y-82025D01*
X85532Y-75098D02*
X89468D01*
X86356Y-82025D02*
X89702D01*
X89468Y-75098D02*
Y-67323D01*
X89702Y-82025D02*
X89764Y-82087D01*
Y-93996D02*
Y-88976D01*
Y-82087D02*
X89862Y-81988D01*
X97539D01*
X96358Y-75098D02*
X96555Y-74902D01*
X97539Y-88878D02*
X102264D01*
X89468Y-67323D02*
X89567Y-67224D01*
X89961Y-44587D02*
X97047D01*
X97146Y-44685D01*
X96457Y-67224D02*
X100689D01*
X97146Y-51575D02*
X101378D01*
X96555Y-74902D02*
X108169D01*
X106693Y-93996D02*
X108169Y-92520D01*
X108071Y-67913D02*
X108169Y-68012D01*
Y-92520D02*
Y-88878D01*
Y-81988D02*
Y-74902D01*
X97146Y-27461D02*
X101378D01*
X108071Y-67913D02*
Y-62894D01*
X25787Y-83563D02*
Y-64665D01*
Y-83563D02*
X27461Y-85236D01*
X30807Y-79626D02*
X35039D01*
X30807Y-72342D02*
X35039D01*
X27461Y-85236D02*
X48228D01*
X48228Y-85532D02*
X53150D01*
X54724Y-83957D01*
Y-81102D01*
X56201Y-79626D01*
X61824D01*
X75098Y-66240D02*
Y-66043D01*
X78898Y-44575D02*
X80472D01*
X80524Y-44626D01*
X68468Y-28638D02*
X69968Y-30138D01*
X75640Y-28986D02*
X75689Y-29035D01*
X246063Y-257980D02*
Y-253051D01*
Y-257980D02*
X249500Y-261417D01*
Y-261567D02*
Y-261417D01*
X246063Y-187402D02*
Y-167224D01*
X245866Y-231627D02*
X247566D01*
X249173Y-230020D01*
X253150D01*
X247521Y-235445D02*
X248985Y-236910D01*
X253150D01*
X243307Y-235445D02*
X247521D01*
X245891Y-245989D02*
Y-240052D01*
X245866Y-240027D02*
X245891Y-240052D01*
Y-245989D02*
X246063Y-246161D01*
X243307Y-231627D02*
Y-227953D01*
X240158Y-223917D02*
X240748Y-224964D01*
Y-231627D02*
Y-224964D01*
X256628Y-257480D02*
X260728D01*
X253831Y-261567D02*
Y-260277D01*
X256628Y-257480D01*
X187402Y-266142D02*
X203248D01*
X240453D02*
X241090Y-265504D01*
X249500D01*
X86614Y-221063D02*
Y-204724D01*
Y-221063D02*
X86713Y-221161D01*
X253937Y-39567D02*
Y-34646D01*
X272375Y-42094D02*
X277296D01*
X253937Y-62008D02*
Y-53150D01*
Y-68898D02*
X265748D01*
X245626Y-46654D02*
X253740D01*
X253937Y-46457D01*
X277559Y-98425D02*
X281496D01*
X273622D02*
X277559D01*
X253937Y-53150D02*
Y-46457D01*
X259842Y-98425D02*
X266732D01*
X280512Y-68898D02*
X285433D01*
X265748D02*
X273622D01*
X252953Y-76772D02*
X253445Y-76279D01*
Y-69390D01*
X253937Y-68898D01*
X259842Y-110236D02*
Y-105315D01*
X265592Y-53740D02*
X265616Y-53765D01*
Y-61876D02*
X265748Y-62008D01*
X265485Y-53740D02*
X265592D01*
X265616Y-61876D02*
Y-53765D01*
X273885Y-53740D02*
Y-51181D01*
X269685D02*
X273885D01*
X265485D02*
X269685D01*
X274685Y-48622D02*
X274882Y-48819D01*
X280906D01*
X273885Y-48622D02*
X274685D01*
X287795Y-48819D02*
X304331D01*
X224410Y-61024D02*
Y-56102D01*
X204724Y-61024D02*
Y-56102D01*
X234252Y-61024D02*
X239173D01*
X234252Y-68898D02*
X239173D01*
X246063Y-98425D02*
Y-90551D01*
X224410Y-49213D02*
X238626D01*
X218012D02*
X224410D01*
X204724D02*
X211122D01*
X188189D02*
X204724D01*
X187795Y-48819D02*
X188189Y-49213D01*
X234252Y-106299D02*
X239173D01*
X288386Y-98425D02*
X299016D01*
X299213Y-98228D01*
X252953Y-98425D02*
X259842D01*
X246063Y-106299D02*
Y-98425D01*
Y-126772D02*
Y-106299D01*
Y-126772D02*
X246063Y-126772D01*
X246063Y-146161D02*
Y-126772D01*
X246063Y-126772D01*
X246063Y-156693D02*
Y-153051D01*
Y-160335D02*
Y-156693D01*
X200394D02*
X246063D01*
X334646Y-48819D02*
X338287D01*
X331004D02*
X334646D01*
Y-10630D01*
Y-266142D02*
X338287D01*
X331004D02*
X334646D01*
Y-304331D02*
Y-266142D01*
X157087D02*
X160728D01*
X153445D02*
X157087D01*
X157087Y-304724D02*
X157087Y-304724D01*
Y-266142D01*
X157480Y-48819D02*
X161122D01*
X153839D02*
X157480D01*
Y-10236D01*
X157480Y-10236D02*
X157480Y-10236D01*
X345177Y-266142D02*
X365354D01*
X304331D02*
X324114D01*
X345177Y-48819D02*
X364567D01*
X304331D02*
X324114D01*
X168012D02*
X187795D01*
X167618Y-266142D02*
X187402D01*
X100394Y-240059D02*
X100443Y-240010D01*
Y-227608D02*
X100492Y-227559D01*
X100443Y-240010D02*
Y-227608D01*
X93405Y-227756D02*
X93602Y-227559D01*
X86713Y-227953D02*
X86910Y-227756D01*
X93405D01*
X86713Y-227953D02*
Y-221161D01*
X75590Y-227953D02*
X79823D01*
X75394Y-221161D02*
X79626D01*
X68898Y-266142D02*
X73032D01*
X66499D02*
X68898D01*
X69291Y-266535D01*
Y-271457D02*
Y-266535D01*
X80315Y-266142D02*
X84252D01*
X102461D01*
X84252Y-267520D02*
Y-266142D01*
X80709Y-261221D02*
Y-247146D01*
X80315Y-261614D02*
X80709Y-261221D01*
X80709Y-247146D02*
X80709Y-247146D01*
X80807Y-240158D02*
X89961D01*
X90059Y-240059D01*
X80709Y-240256D02*
X80807Y-240158D01*
X90059Y-240059D02*
X100394D01*
Y-251181D02*
Y-246949D01*
X101673Y-265354D02*
X102461Y-266142D01*
X74016Y-278346D02*
X79921Y-272441D01*
X83858D01*
X69291Y-278346D02*
X74016D01*
X69291Y-284744D02*
Y-278346D01*
X83858Y-284744D02*
Y-279331D01*
X25591Y-277854D02*
Y-273622D01*
X90059Y-251181D02*
Y-246949D01*
X55118Y-251476D02*
Y-247244D01*
X52658Y-266732D02*
X58563D01*
X25591D02*
X31496D01*
X10630Y-266142D02*
X11220Y-266732D01*
X25591D01*
D59*
X78924Y-82185D02*
D03*
Y-79626D02*
D03*
Y-77067D02*
D03*
Y-74508D02*
D03*
X61824D02*
D03*
Y-77067D02*
D03*
Y-79626D02*
D03*
Y-82185D02*
D03*
D60*
X409606Y-117677D02*
Y-106102D01*
X389606Y-119843D02*
Y-106102D01*
D61*
X239173Y-240158D02*
X240748D01*
X240879Y-240027D01*
X243307Y-235445D02*
Y-231627D01*
Y-239264D02*
Y-235445D01*
X240879Y-240027D02*
X243220D01*
D62*
X58563Y-52067D02*
Y-45776D01*
X59713Y-44626D01*
X82114Y-61981D02*
X82240Y-61855D01*
X82114Y-66114D02*
Y-61981D01*
X81988Y-66240D02*
X82114Y-66114D01*
X89567Y-100394D02*
X92520Y-103347D01*
Y-110236D02*
Y-103347D01*
X84252Y-100394D02*
X89567D01*
X45374Y-110138D02*
Y-98622D01*
X45276Y-110236D02*
X45374Y-110138D01*
X44587Y-97835D02*
X45374Y-98622D01*
X57633Y-90207D02*
X58024Y-89815D01*
X53937Y-90158D02*
X53986Y-90207D01*
X57633D01*
X58024Y-89815D02*
Y-84035D01*
X59874Y-82185D02*
X61824D01*
X58024Y-84035D02*
X59874Y-82185D01*
X81087Y-74408D02*
X81966Y-73529D01*
Y-66262D01*
X79024Y-74408D02*
X81087D01*
X78924Y-74508D02*
X79024Y-74408D01*
X54331Y-52362D02*
X58268D01*
X59764Y-44575D02*
X61417D01*
D63*
X211165Y-282244D02*
Y-278012D01*
X218165Y-282244D02*
Y-278012D01*
X226378Y-282087D02*
Y-277854D01*
X233071Y-282087D02*
Y-277854D01*
D64*
X246063Y-295965D02*
D03*
D65*
X479921Y-98327D02*
D03*
D66*
X406957Y-227346D02*
D03*
D67*
X406988Y-246063D02*
D03*
D68*
X441339Y-270374D02*
D03*
D69*
X409961Y-199114D02*
D03*
X456890Y-200295D02*
D03*
X436811Y-199114D02*
D03*
X389961D02*
D03*
D70*
X239173Y-240158D02*
D03*
D71*
X84252Y-267913D02*
D03*
D72*
X423228Y-11614D02*
D03*
X423228Y-125787D02*
D03*
X69049Y-125636D02*
D03*
X423228Y-188779D02*
D03*
X423228Y-302953D02*
D03*
X68898Y-188976D02*
D03*
X68898Y-303150D02*
D03*
D73*
X352165Y-304331D02*
D03*
X317126Y-304331D02*
D03*
X351378Y-10630D02*
D03*
X317126D02*
D03*
X175000Y-10236D02*
D03*
X139961D02*
D03*
X174606Y-304724D02*
D03*
X139567Y-304724D02*
D03*
D74*
X302904Y-98327D02*
D03*
D75*
X285827Y-125787D02*
D03*
D76*
X189370Y-19193D02*
D03*
D77*
X302904Y-19193D02*
D03*
D78*
X246211Y-10974D02*
D03*
D79*
X206043Y-125787D02*
D03*
D80*
X189223Y-98327D02*
D03*
D81*
X366486Y-19193D02*
D03*
D82*
X479774Y-19193D02*
D03*
D83*
X366191Y-98327D02*
D03*
D84*
X125814Y-98251D02*
D03*
D85*
X69049Y-11046D02*
D03*
D86*
X125863Y-19117D02*
D03*
D87*
X12182Y-19708D02*
D03*
D88*
X12182Y-98842D02*
D03*
D89*
X480217Y-216437D02*
D03*
D90*
X366142Y-295571D02*
D03*
D91*
X366142Y-216437D02*
D03*
D92*
X480217Y-295768D02*
D03*
D93*
X303150Y-294882D02*
D03*
D94*
X188976Y-294882D02*
D03*
D95*
X206890Y-188583D02*
D03*
D96*
X302608Y-216535D02*
D03*
D97*
X189321Y-215748D02*
D03*
D98*
X285630Y-188583D02*
D03*
D99*
X214567Y-268307D02*
D03*
X229539Y-268020D02*
D03*
D100*
X12106Y-215945D02*
D03*
D101*
X125738Y-216535D02*
D03*
D102*
X12106Y-295669D02*
D03*
D103*
X125984Y-295669D02*
D03*
D104*
X409606Y-106102D02*
D03*
X399606D02*
D03*
X265591Y-204724D02*
D03*
X275590D02*
D03*
X446693Y-206496D02*
D03*
X436693D02*
D03*
X399764D02*
D03*
X409764D02*
D03*
X92520Y-110236D02*
D03*
X82520D02*
D03*
X45276D02*
D03*
X55276D02*
D03*
D105*
X389606Y-106102D02*
D03*
X285591Y-204724D02*
D03*
X456693Y-206496D02*
D03*
X389764D02*
D03*
X102520Y-110236D02*
D03*
X35276D02*
D03*
D106*
X259685Y-25591D02*
D03*
X96614Y-204724D02*
D03*
D107*
X269685Y-25591D02*
D03*
X279685D02*
D03*
X76614Y-204724D02*
D03*
X86614D02*
D03*
D108*
X200394Y-156693D02*
D03*
X190551Y-146850D02*
D03*
Y-166535D02*
D03*
X210236D02*
D03*
Y-146850D02*
D03*
D109*
X251620Y-257919D02*
D03*
X251575Y-269291D02*
D03*
X271530Y-257390D02*
D03*
X425197Y-37402D02*
D03*
X429528Y-40945D02*
D03*
X411811Y-96063D02*
D03*
X385433Y-66535D02*
D03*
X392126D02*
D03*
X414961Y-252756D02*
D03*
X421654Y-274803D02*
D03*
X408661D02*
D03*
X422047Y-256693D02*
D03*
X396063Y-246063D02*
D03*
X393701Y-224213D02*
D03*
X463287Y-241732D02*
D03*
X462992Y-250000D02*
D03*
X68898Y-260827D02*
D03*
X38386Y-247736D02*
D03*
X82240Y-61855D02*
D03*
X75640Y-24754D02*
D03*
X32283Y-98032D02*
D03*
X83378Y-33028D02*
D03*
X70325Y-52215D02*
D03*
X237402Y-240551D02*
D03*
X243307Y-235445D02*
D03*
X243307Y-227953D02*
D03*
X253937Y-34646D02*
D03*
X277296Y-42094D02*
D03*
X257480Y-53150D02*
D03*
X277559Y-101575D02*
D03*
X253937Y-53150D02*
D03*
X277559Y-98425D02*
D03*
X285433Y-68898D02*
D03*
X259842Y-110236D02*
D03*
X269685Y-51181D02*
D03*
X224410Y-61024D02*
D03*
X204724D02*
D03*
X234252D02*
D03*
Y-68898D02*
D03*
Y-106299D02*
D03*
X75590Y-227953D02*
D03*
X75394Y-221161D02*
D03*
X84252Y-266142D02*
D03*
X45276Y-286319D02*
D03*
X25591Y-277854D02*
D03*
X68898Y-257874D02*
D03*
X85827Y-262992D02*
D03*
X75197Y-62205D02*
D03*
X54331Y-52362D02*
D03*
X72146Y-100492D02*
D03*
X69291Y-90158D02*
D03*
X53937D02*
D03*
X30114Y-42638D02*
D03*
X55216Y-33071D02*
D03*
X30114Y-35638D02*
D03*
X101378Y-27461D02*
D03*
Y-51575D02*
D03*
X100689Y-67224D02*
D03*
X102264Y-88878D02*
D03*
X30807Y-72342D02*
D03*
Y-79626D02*
D03*
X410630Y-88189D02*
D03*
X443307Y-63386D02*
D03*
Y-77559D02*
D03*
Y-70472D02*
D03*
X462992Y-37795D02*
D03*
X440945D02*
D03*
X382283D02*
D03*
X392717Y-277953D02*
D03*
X55118Y-247244D02*
D03*
X90059Y-251181D02*
D03*
X100394D02*
D03*
D110*
X98425Y-299213D02*
D03*
X88583D02*
D03*
X39370D02*
D03*
X49213D02*
D03*
X29528D02*
D03*
X108268D02*
D03*
X68898D02*
D03*
X59055D02*
D03*
X78740D02*
D03*
X275591Y-15551D02*
D03*
X216535D02*
D03*
X236221D02*
D03*
X226378D02*
D03*
X206693D02*
D03*
X265748D02*
D03*
X246063D02*
D03*
X255906D02*
D03*
X285433D02*
D03*
Y-121850D02*
D03*
X49364Y-15400D02*
D03*
X39522D02*
D03*
X29679D02*
D03*
X59207D02*
D03*
X69049D02*
D03*
X78892D02*
D03*
X88735D02*
D03*
X108420D02*
D03*
X98577D02*
D03*
X122199Y-88235D02*
D03*
Y-98077D02*
D03*
Y-107920D02*
D03*
Y-78392D02*
D03*
X206693Y-121850D02*
D03*
X192913Y-98228D02*
D03*
Y-88386D02*
D03*
X216535Y-121850D02*
D03*
X192913Y-78543D02*
D03*
X299213Y-78543D02*
D03*
X275591Y-121850D02*
D03*
X192913Y-108071D02*
D03*
X299213Y-108071D02*
D03*
Y-88386D02*
D03*
Y-98228D02*
D03*
X29679Y-121699D02*
D03*
X39522D02*
D03*
X49364D02*
D03*
X69049D02*
D03*
X78892D02*
D03*
X108420D02*
D03*
X88735D02*
D03*
X98577D02*
D03*
X59207D02*
D03*
X15900Y-78392D02*
D03*
Y-88235D02*
D03*
Y-98077D02*
D03*
Y-107920D02*
D03*
X370079Y-98228D02*
D03*
Y-108071D02*
D03*
X476378Y-78543D02*
D03*
Y-108071D02*
D03*
Y-98228D02*
D03*
Y-88386D02*
D03*
X383858Y-121850D02*
D03*
X452756D02*
D03*
X423228D02*
D03*
X403543D02*
D03*
X413386D02*
D03*
X433071D02*
D03*
X442913D02*
D03*
X393701D02*
D03*
X462598D02*
D03*
X462598Y-15551D02*
D03*
X433071D02*
D03*
X423228D02*
D03*
X442913D02*
D03*
X383858D02*
D03*
X403543D02*
D03*
X413386D02*
D03*
X393701D02*
D03*
X452756D02*
D03*
X370079Y-88386D02*
D03*
Y-78543D02*
D03*
X442913Y-299016D02*
D03*
X452756D02*
D03*
X462599D02*
D03*
X476378Y-236024D02*
D03*
Y-226181D02*
D03*
X370079Y-236024D02*
D03*
Y-226181D02*
D03*
Y-216339D02*
D03*
Y-206496D02*
D03*
X383858Y-192717D02*
D03*
X393701D02*
D03*
X403543D02*
D03*
X413386D02*
D03*
X423228D02*
D03*
X433071D02*
D03*
X442913D02*
D03*
X452756D02*
D03*
X462598D02*
D03*
X476378Y-206496D02*
D03*
Y-216339D02*
D03*
X393701Y-299016D02*
D03*
X403543D02*
D03*
X413386D02*
D03*
X423228D02*
D03*
X433071D02*
D03*
X383858D02*
D03*
X299213Y-225984D02*
D03*
Y-206299D02*
D03*
Y-235827D02*
D03*
Y-216142D02*
D03*
X192913Y-225984D02*
D03*
Y-206299D02*
D03*
Y-216142D02*
D03*
Y-235827D02*
D03*
X275590Y-298819D02*
D03*
X246063D02*
D03*
X236221D02*
D03*
X255906D02*
D03*
X285433D02*
D03*
X216535D02*
D03*
X206693D02*
D03*
X226378D02*
D03*
X265748D02*
D03*
X216535Y-192520D02*
D03*
X206693D02*
D03*
X275590D02*
D03*
X285433D02*
D03*
X211165Y-282244D02*
D03*
X218165D02*
D03*
X226378Y-282087D02*
D03*
X233071D02*
D03*
X49213Y-192913D02*
D03*
X88583D02*
D03*
X108268D02*
D03*
X98425D02*
D03*
X29528D02*
D03*
X59055D02*
D03*
X78740D02*
D03*
X68898D02*
D03*
X39370D02*
D03*
X15748Y-236221D02*
D03*
Y-216535D02*
D03*
Y-206693D02*
D03*
Y-226378D02*
D03*
X122047Y-216535D02*
D03*
Y-236221D02*
D03*
Y-206693D02*
D03*
Y-226378D02*
D03*
D111*
X125984Y-303150D02*
D03*
X11811D02*
D03*
X188976Y-125787D02*
D03*
Y-11614D02*
D03*
X126136Y-11463D02*
D03*
X11963D02*
D03*
X303150Y-11614D02*
D03*
Y-125787D02*
D03*
X126136Y-125636D02*
D03*
X11963D02*
D03*
X480315Y-125787D02*
D03*
X366142D02*
D03*
Y-11614D02*
D03*
X480315D02*
D03*
X480315Y-302953D02*
D03*
X366142Y-188779D02*
D03*
X480315D02*
D03*
X366142Y-302953D02*
D03*
X188976Y-302756D02*
D03*
X303150D02*
D03*
Y-188583D02*
D03*
X188976D02*
D03*
X11811Y-188976D02*
D03*
X125984D02*
D03*
M02*
