G04*
G04 #@! TF.GenerationSoftware,Altium Limited,Altium Designer,21.4.1 (30)*
G04*
G04 Layer_Color=32768*
%FSLAX25Y25*%
%MOIN*%
G70*
G04*
G04 #@! TF.SameCoordinates,4F7A37CA-CC0D-4B0B-ADC5-D258E3024ECD*
G04*
G04*
G04 #@! TF.FilePolarity,Positive*
G04*
G01*
G75*
%ADD12C,0.00600*%
%ADD123C,0.00394*%
%ADD125C,0.00197*%
G36*
X255015Y-261785D02*
Y-265285D01*
X248315D01*
Y-261785D01*
X255015D01*
D02*
G37*
G36*
X239048Y-232177D02*
Y-229077D01*
X247566D01*
Y-232177D01*
X248657D01*
Y-239477D01*
X247566D01*
Y-242577D01*
X239048D01*
Y-239477D01*
X237957D01*
Y-232177D01*
X239048D01*
D02*
G37*
G36*
X58024Y-71246D02*
X82724D01*
Y-85446D01*
X58024D01*
Y-71246D01*
D02*
G37*
G36*
X266035Y-55440D02*
X262935D01*
Y-46922D01*
X266035D01*
Y-45831D01*
X273335D01*
Y-46922D01*
X276435D01*
Y-55440D01*
X273335D01*
Y-56531D01*
X266035D01*
Y-55440D01*
D02*
G37*
D12*
X262935D02*
Y-46922D01*
X266035D01*
Y-45831D01*
X273335D01*
Y-46922D02*
Y-45831D01*
Y-46922D02*
X276435D01*
Y-53740D02*
Y-46922D01*
X273335Y-53740D02*
X276435D01*
X273335Y-56531D02*
Y-53740D01*
X266035Y-56531D02*
X273335D01*
X266035D02*
Y-55440D01*
X262935D02*
X266035D01*
X82724Y-85446D02*
Y-71246D01*
X58024Y-85446D02*
X82724D01*
X58024D02*
Y-71246D01*
X82724D01*
X239048Y-232177D02*
Y-229077D01*
X237957Y-232177D02*
X239048D01*
X237957Y-239477D02*
Y-232177D01*
Y-239477D02*
X239048D01*
Y-242577D02*
Y-239477D01*
Y-242577D02*
X247566D01*
Y-239477D01*
X248657D01*
Y-232177D01*
X247566D02*
X248657D01*
X247566D02*
Y-229077D01*
X239048D02*
X247566D01*
X256015Y-267504D02*
Y-259567D01*
X247315D02*
X256015D01*
X247315Y-267504D02*
Y-259567D01*
Y-267504D02*
X256015D01*
X248876Y-53572D02*
Y-44854D01*
X245776Y-53572D02*
X248876D01*
X245776Y-44854D02*
X248876D01*
X245776Y-54563D02*
Y-53572D01*
Y-44854D02*
Y-43863D01*
X238476D02*
X245776D01*
X238476Y-47413D02*
Y-43863D01*
X235376Y-47413D02*
X238476D01*
X235376Y-51013D02*
Y-47413D01*
Y-51013D02*
X238476D01*
Y-54563D02*
Y-51013D01*
Y-54563D02*
X245776D01*
D123*
X410433Y-279331D02*
Y-252165D01*
X441929Y-279331D02*
Y-252165D01*
X410433D02*
X441929D01*
X410433Y-279331D02*
X441929D01*
X424213Y-265748D02*
X428150D01*
X426181Y-267717D02*
Y-263779D01*
X437992Y-282677D02*
X445472D01*
X437992Y-296457D02*
X445472D01*
Y-282677D01*
X437992Y-296457D02*
Y-282677D01*
X441732Y-291535D02*
Y-287598D01*
X439764Y-289567D02*
X443701D01*
X454724Y-244094D02*
Y-240158D01*
X452756Y-242126D02*
X456693D01*
X447835Y-245866D02*
X461614D01*
X447835Y-238386D02*
X461614D01*
Y-245866D02*
Y-238386D01*
X447835Y-245866D02*
Y-238386D01*
X80709Y-102362D02*
Y-98425D01*
X78740Y-100394D02*
X82677D01*
X73819Y-96654D02*
X87598D01*
X73819Y-104134D02*
X87598D01*
X73819D02*
Y-96654D01*
X87598Y-104134D02*
Y-96654D01*
X83169Y-223130D02*
Y-219193D01*
X81201Y-221161D02*
X85138D01*
X76279Y-217421D02*
X90059D01*
X76279Y-224902D02*
X90059D01*
X76279D02*
Y-217421D01*
X90059Y-224902D02*
Y-217421D01*
X420079Y-46850D02*
Y-42913D01*
X418110Y-44882D02*
X422047D01*
X412402Y-37992D02*
X427756D01*
X412402Y-51772D02*
X427756D01*
X412402D02*
Y-37992D01*
X427756Y-51772D02*
Y-37992D01*
X41535Y-285433D02*
X49016D01*
X41535Y-271654D02*
X49016D01*
X41535Y-285433D02*
Y-271654D01*
X49016Y-285433D02*
Y-271654D01*
X45276Y-280512D02*
Y-276575D01*
X43307Y-278543D02*
X47244D01*
X47933Y-101575D02*
Y-94095D01*
X34154Y-101575D02*
Y-94095D01*
Y-101575D02*
X47933D01*
X34154Y-94095D02*
X47933D01*
X39075Y-97835D02*
X43012D01*
X41043Y-99803D02*
Y-95866D01*
X396260Y-99803D02*
Y-92323D01*
X410039Y-99803D02*
Y-92323D01*
X396260D02*
X410039D01*
X396260Y-99803D02*
X410039D01*
X401181Y-96063D02*
X405118D01*
X403150Y-98032D02*
Y-94095D01*
X83563Y-268898D02*
Y-258268D01*
X69784Y-268898D02*
Y-258268D01*
Y-268898D02*
X83563D01*
X69784Y-258268D02*
X83563D01*
X74705Y-263583D02*
X78642D01*
X76673Y-265551D02*
Y-261614D01*
X402953Y-226378D02*
Y-222441D01*
X400984Y-224410D02*
X404921D01*
X396063Y-220669D02*
X409842D01*
X396063Y-228150D02*
X409842D01*
X396063D02*
Y-220669D01*
X409842Y-228150D02*
Y-220669D01*
D125*
X394941Y-79783D02*
Y-68248D01*
X389311Y-79783D02*
Y-68248D01*
Y-79783D02*
X394941D01*
X389311Y-68248D02*
X394941D01*
X414331Y-74665D02*
X425827D01*
X414331Y-80453D02*
X425827D01*
Y-74665D01*
X414331Y-80453D02*
Y-74665D01*
X116732Y-280906D02*
X135236D01*
Y-279587D01*
X144095D01*
Y-252697D01*
X135236D02*
X144095D01*
X135236D02*
Y-251378D01*
X116732D02*
X135236D01*
X116732Y-280906D02*
Y-251378D01*
X397213Y-268732D02*
X409087D01*
X397213Y-262764D02*
X409087D01*
X397213Y-268732D02*
Y-262764D01*
X409087Y-268732D02*
Y-262764D01*
X406528Y-241173D02*
Y-229299D01*
X400559Y-241173D02*
Y-229299D01*
Y-241173D02*
X406528D01*
X400559Y-229299D02*
X406528D01*
X409480Y-261842D02*
Y-249969D01*
X403512Y-261842D02*
Y-249969D01*
Y-261842D02*
X409480D01*
X403512Y-249969D02*
X409480D01*
X458602Y-269153D02*
X470138D01*
X458602Y-263524D02*
X470138D01*
X458602Y-269153D02*
Y-263524D01*
X470138Y-269153D02*
Y-263524D01*
X454559Y-269913D02*
Y-263945D01*
X442685Y-269913D02*
Y-263945D01*
X454559D01*
X442685Y-269913D02*
X454559D01*
X453575Y-260071D02*
Y-254102D01*
X441701Y-260071D02*
Y-254102D01*
X453575D01*
X441701Y-260071D02*
X453575D01*
X376909Y-268957D02*
X388445D01*
X376909Y-263327D02*
X388445D01*
X376909Y-268957D02*
Y-263327D01*
X388445Y-268957D02*
Y-263327D01*
X448957Y-252815D02*
X460492D01*
X448957Y-247185D02*
X460492D01*
X448957Y-252815D02*
Y-247185D01*
X460492Y-252815D02*
Y-247185D01*
X35571Y-249646D02*
X41201D01*
X35571Y-261181D02*
X41201D01*
X35571D02*
Y-249646D01*
X41201Y-261181D02*
Y-249646D01*
X2559Y-34055D02*
X21063D01*
X2559Y-35374D02*
Y-34055D01*
X-6299Y-35374D02*
X2559D01*
X-6299Y-62264D02*
Y-35374D01*
Y-62264D02*
X2559D01*
Y-63583D02*
Y-62264D01*
Y-63583D02*
X21063D01*
Y-34055D01*
X264409Y-101240D02*
X275945D01*
X264409Y-95610D02*
X275945D01*
X264409Y-101240D02*
Y-95610D01*
X275945Y-101240D02*
Y-95610D01*
X262933Y-71220D02*
Y-59685D01*
X268563Y-71220D02*
Y-59685D01*
X262933D02*
X268563D01*
X262933Y-71220D02*
X268563D01*
X278583Y-46004D02*
X290118D01*
X278583Y-51634D02*
X290118D01*
Y-46004D01*
X278583Y-51634D02*
Y-46004D01*
X253701Y-31474D02*
X285669D01*
X253701D02*
Y-19707D01*
X285669D01*
Y-31474D02*
Y-19707D01*
X243169Y-158031D02*
X248957D01*
X243169Y-169528D02*
X248957D01*
X243169D02*
Y-158031D01*
X248957Y-169528D02*
Y-158031D01*
X236850Y-109114D02*
X248386D01*
X236850Y-103484D02*
X248386D01*
X236850Y-109114D02*
Y-103484D01*
X248386Y-109114D02*
Y-103484D01*
X335984Y-269035D02*
X347480D01*
X335984Y-263248D02*
X347480D01*
X335984Y-269035D02*
Y-263248D01*
X347480Y-269035D02*
Y-263248D01*
X321811Y-269035D02*
X333307D01*
X321811Y-263248D02*
X333307D01*
X321811Y-269035D02*
Y-263248D01*
X333307Y-269035D02*
Y-263248D01*
X260827Y-197441D02*
Y-178937D01*
X259508D02*
X260827D01*
X259508D02*
Y-170079D01*
X232618D02*
X259508D01*
X232618Y-178937D02*
Y-170079D01*
X231299Y-178937D02*
X232618D01*
X231299Y-197441D02*
Y-178937D01*
Y-197441D02*
X260827D01*
X77500Y-230768D02*
X89035D01*
X77500Y-225138D02*
X89035D01*
X77500Y-230768D02*
Y-225138D01*
X89035Y-230768D02*
Y-225138D01*
X103209Y-249272D02*
Y-237736D01*
X97579Y-249272D02*
Y-237736D01*
Y-249272D02*
X103209D01*
X97579Y-237736D02*
X103209D01*
X28405Y-275945D02*
Y-264409D01*
X22776Y-275945D02*
Y-264409D01*
Y-275945D02*
X28405D01*
X22776Y-264409D02*
X28405D01*
X29193Y-263839D02*
X40689D01*
X29193Y-269626D02*
X40689D01*
Y-263839D01*
X29193Y-269626D02*
Y-263839D01*
X70630Y-210608D02*
Y-198841D01*
Y-210608D02*
X102598D01*
Y-198841D01*
X70630D02*
X102598D01*
X117126Y-63583D02*
X135630D01*
Y-62264D01*
X144488D01*
Y-35374D01*
X135630D02*
X144488D01*
X135630D02*
Y-34055D01*
X117126D02*
X135630D01*
X117126Y-63583D02*
Y-34055D01*
X335984Y-51713D02*
X347480D01*
X335984Y-45925D02*
X347480D01*
X335984Y-51713D02*
Y-45925D01*
X347480Y-51713D02*
Y-45925D01*
X321811Y-51713D02*
X333307D01*
X321811Y-45925D02*
X333307D01*
X321811Y-51713D02*
Y-45925D01*
X333307Y-51713D02*
Y-45925D01*
X248957Y-155354D02*
Y-143858D01*
X243169Y-155354D02*
Y-143858D01*
Y-155354D02*
X248957D01*
X243169Y-143858D02*
X248957D01*
X158425Y-269035D02*
X169921D01*
X158425Y-263248D02*
X169921D01*
X158425Y-269035D02*
Y-263248D01*
X169921Y-269035D02*
Y-263248D01*
X144252Y-269035D02*
X155748D01*
X144252Y-263248D02*
X155748D01*
X144252Y-269035D02*
Y-263248D01*
X155748Y-269035D02*
Y-263248D01*
X319882Y-312795D02*
Y-294291D01*
Y-312795D02*
X321201D01*
Y-321654D02*
Y-312795D01*
Y-321654D02*
X348091D01*
Y-312795D01*
X349410D01*
Y-294291D01*
X319882D02*
X349410D01*
X142323Y-313189D02*
Y-294685D01*
Y-313189D02*
X143642D01*
Y-322047D02*
Y-313189D01*
Y-322047D02*
X170531D01*
Y-313189D01*
X171850D01*
Y-294685D01*
X142323D02*
X171850D01*
X170315Y-51713D02*
Y-45925D01*
X158819Y-51713D02*
Y-45925D01*
X170315D01*
X158819Y-51713D02*
X170315D01*
X156142D02*
Y-45925D01*
X144646Y-51713D02*
Y-45925D01*
X156142D01*
X144646Y-51713D02*
X156142D01*
X319882Y-20669D02*
X349410D01*
X319882D02*
Y-2165D01*
X321201D01*
Y6693D01*
X348091D01*
Y-2165D02*
Y6693D01*
Y-2165D02*
X349410D01*
Y-20669D02*
Y-2165D01*
X142717Y-20276D02*
X172244D01*
X142717D02*
Y-1772D01*
X144035D01*
Y7087D01*
X170925D01*
Y-1772D02*
Y7087D01*
Y-1772D02*
X172244D01*
Y-20276D02*
Y-1772D01*
X80965Y-282441D02*
X86752D01*
X80965Y-293937D02*
X86752D01*
X80965D02*
Y-282441D01*
X86752Y-293937D02*
Y-282441D01*
X77815Y-237953D02*
X83602D01*
X77815Y-249449D02*
X83602D01*
X77815D02*
Y-237953D01*
X83602Y-249449D02*
Y-237953D01*
X52224Y-260669D02*
X58012D01*
X52224Y-249173D02*
X58012D01*
Y-260669D02*
Y-249173D01*
X52224Y-260669D02*
Y-249173D01*
X62067D02*
X67854D01*
X62067Y-260669D02*
X67854D01*
X62067D02*
Y-249173D01*
X67854Y-260669D02*
Y-249173D01*
X102795Y-230453D02*
Y-224665D01*
X91299Y-230453D02*
Y-224665D01*
X102795D01*
X91299Y-230453D02*
X102795D01*
X407539Y-229488D02*
X413327D01*
X407539Y-240984D02*
X413327D01*
X407539D02*
Y-229488D01*
X413327Y-240984D02*
Y-229488D01*
X414331Y-73760D02*
Y-67972D01*
X425827Y-73760D02*
Y-67972D01*
X414331Y-73760D02*
X425827D01*
X414331Y-67972D02*
X425827D01*
X441575Y-80453D02*
Y-74665D01*
X430079Y-80453D02*
Y-74665D01*
X441575D01*
X430079Y-80453D02*
X441575D01*
X401831Y-79764D02*
X407618D01*
X401831Y-68268D02*
X407618D01*
Y-79764D02*
Y-68268D01*
X401831Y-79764D02*
Y-68268D01*
X394724Y-91083D02*
Y-85295D01*
X383228Y-91083D02*
Y-85295D01*
X394724D01*
X383228Y-91083D02*
X394724D01*
X258425Y-260374D02*
Y-254587D01*
X269921Y-260374D02*
Y-254587D01*
X258425Y-260374D02*
X269921D01*
X258425Y-254587D02*
X269921D01*
X94252Y-42382D02*
X100039D01*
X94252Y-53878D02*
X100039D01*
X94252D02*
Y-42382D01*
X100039Y-53878D02*
Y-42382D01*
X87067Y-53780D02*
X92854D01*
X87067Y-42283D02*
X92854D01*
Y-53780D02*
Y-42283D01*
X87067Y-53780D02*
Y-42283D01*
X43539Y-45531D02*
Y-39744D01*
X32043Y-45531D02*
Y-39744D01*
X43539D01*
X32043Y-45531D02*
X43539D01*
X46417Y-50827D02*
X52205D01*
X46417Y-39331D02*
X52205D01*
Y-50827D02*
Y-39331D01*
X46417Y-50827D02*
Y-39331D01*
X47008Y-73957D02*
X52795D01*
X47008Y-62461D02*
X52795D01*
Y-73957D02*
Y-62461D01*
X47008Y-73957D02*
Y-62461D01*
X54587Y-68248D02*
Y-62461D01*
X66083Y-68248D02*
Y-62461D01*
X54587Y-68248D02*
X66083D01*
X54587Y-62461D02*
X66083D01*
X87165Y-77992D02*
Y-72205D01*
X98661Y-77992D02*
Y-72205D01*
X87165Y-77992D02*
X98661D01*
X87165Y-72205D02*
X98661D01*
X105276Y-77205D02*
X111063D01*
X105276Y-65709D02*
X111063D01*
Y-77205D02*
Y-65709D01*
X105276Y-77205D02*
Y-65709D01*
X46319Y-37539D02*
X52106D01*
X46319Y-26043D02*
X52106D01*
Y-37539D02*
Y-26043D01*
X46319Y-37539D02*
Y-26043D01*
X55669Y-31535D02*
Y-25748D01*
X67165Y-31535D02*
Y-25748D01*
X55669Y-31535D02*
X67165D01*
X55669Y-25748D02*
X67165D01*
X87854Y-39508D02*
Y-33720D01*
X99350Y-39508D02*
Y-33720D01*
X87854Y-39508D02*
X99350D01*
X87854Y-33720D02*
X99350D01*
X100748Y-39508D02*
Y-33720D01*
X112244Y-39508D02*
Y-33720D01*
X100748Y-39508D02*
X112244D01*
X100748Y-33720D02*
X112244D01*
X46909Y-87539D02*
X52697D01*
X46909Y-76043D02*
X52697D01*
Y-87539D02*
Y-76043D01*
X46909Y-87539D02*
Y-76043D01*
X44232Y-82520D02*
Y-76732D01*
X32736Y-82520D02*
Y-76732D01*
X44232D01*
X32736Y-82520D02*
X44232D01*
X86870Y-91280D02*
X92658D01*
X86870Y-79783D02*
X92658D01*
Y-91280D02*
Y-79783D01*
X86870Y-91280D02*
Y-79783D01*
X94646Y-79685D02*
X100433D01*
X94646Y-91181D02*
X100433D01*
X94646D02*
Y-79685D01*
X100433Y-91181D02*
Y-79685D01*
X20669Y-280906D02*
Y-251378D01*
X2165Y-280906D02*
X20669D01*
X2165D02*
Y-279587D01*
X-6693D02*
X2165D01*
X-6693D02*
Y-252697D01*
X2165D01*
Y-251378D01*
X20669D01*
X231299Y-116732D02*
X260827D01*
Y-135236D02*
Y-116732D01*
X259508Y-135236D02*
X260827D01*
X259508Y-144095D02*
Y-135236D01*
X232618Y-144095D02*
X259508D01*
X232618D02*
Y-135236D01*
X231299D02*
X232618D01*
X231299D02*
Y-116732D01*
X58091Y-47528D02*
X82776D01*
X58091Y-33748D02*
X82776D01*
Y-47528D02*
Y-33748D01*
X58091Y-47528D02*
Y-33748D01*
X294291Y-63583D02*
Y-34055D01*
X312795D01*
Y-35374D02*
Y-34055D01*
Y-35374D02*
X321654D01*
Y-62264D02*
Y-35374D01*
X312795Y-62264D02*
X321654D01*
X312795Y-63583D02*
Y-62264D01*
X294291Y-63583D02*
X312795D01*
X470669Y-280906D02*
Y-251378D01*
X489173D01*
Y-252697D02*
Y-251378D01*
Y-252697D02*
X498032D01*
Y-279587D02*
Y-252697D01*
X489173Y-279587D02*
X498032D01*
X489173Y-280906D02*
Y-279587D01*
X470669Y-280906D02*
X489173D01*
X374606Y-63583D02*
Y-34055D01*
X356102Y-63583D02*
X374606D01*
X356102D02*
Y-62264D01*
X347244D02*
X356102D01*
X347244D02*
Y-35374D01*
X356102D01*
Y-34055D01*
X374606D01*
X294291Y-280906D02*
Y-251378D01*
X312795D01*
Y-252697D02*
Y-251378D01*
Y-252697D02*
X321654D01*
Y-279587D02*
Y-252697D01*
X312795Y-279587D02*
X321654D01*
X312795Y-280906D02*
Y-279587D01*
X294291Y-280906D02*
X312795D01*
X230087Y-268472D02*
X236055D01*
X230087Y-280346D02*
X236055D01*
X230087D02*
Y-268472D01*
X236055Y-280346D02*
Y-268472D01*
X215181Y-268630D02*
X221150D01*
X215181Y-280504D02*
X221150D01*
X215181D02*
Y-268630D01*
X221150Y-280504D02*
Y-268630D01*
X80874Y-269949D02*
X86843D01*
X80874Y-281823D02*
X86843D01*
X80874D02*
Y-269949D01*
X86843Y-281823D02*
Y-269949D01*
X55150Y-269717D02*
Y-263748D01*
X43276Y-269717D02*
Y-263748D01*
X55150D01*
X43276Y-269717D02*
X55150D01*
X250953Y-48949D02*
X256921D01*
X250953Y-37075D02*
X256921D01*
Y-48949D02*
Y-37075D01*
X250953Y-48949D02*
Y-37075D01*
X256858Y-95933D02*
X262827D01*
X256858Y-107807D02*
X262827D01*
X256858D02*
Y-95933D01*
X262827Y-107807D02*
Y-95933D01*
X208630Y-52197D02*
Y-46228D01*
X220504Y-52197D02*
Y-46228D01*
X208630Y-52197D02*
X220504D01*
X208630Y-46228D02*
X220504D01*
X236681Y-64008D02*
Y-58039D01*
X248555Y-64008D02*
Y-58039D01*
X236681Y-64008D02*
X248555D01*
X236681Y-58039D02*
X248555D01*
X250953Y-71390D02*
X256921D01*
X250953Y-59516D02*
X256921D01*
Y-71390D02*
Y-59516D01*
X250953Y-71390D02*
Y-59516D01*
X243079Y-81169D02*
X249047D01*
X243079Y-93043D02*
X249047D01*
X243079D02*
Y-81169D01*
X249047Y-93043D02*
Y-81169D01*
X255445Y-79756D02*
Y-73787D01*
X243571Y-79756D02*
Y-73787D01*
X255445D01*
X243571Y-79756D02*
X255445D01*
X375394Y-280906D02*
Y-251378D01*
X356890Y-280906D02*
X375394D01*
X356890D02*
Y-279587D01*
X348031D02*
X356890D01*
X348031D02*
Y-252697D01*
X356890D01*
Y-251378D01*
X375394D01*
X471063Y-63583D02*
Y-34055D01*
X489567D01*
Y-35374D02*
Y-34055D01*
Y-35374D02*
X498425D01*
Y-62264D02*
Y-35374D01*
X489567Y-62264D02*
X498425D01*
X489567Y-63583D02*
Y-62264D01*
X471063Y-63583D02*
X489567D01*
X197441Y-280906D02*
Y-251378D01*
X178937Y-280906D02*
X197441D01*
X178937D02*
Y-279587D01*
X170079D02*
X178937D01*
X170079D02*
Y-252697D01*
X178937D01*
Y-251378D01*
X197441D01*
X197835Y-63583D02*
Y-34055D01*
X179331Y-63583D02*
X197835D01*
X179331D02*
Y-62264D01*
X170473D02*
X179331D01*
X170473D02*
Y-35374D01*
X179331D01*
Y-34055D01*
X197835D01*
X84902Y-31850D02*
Y-26220D01*
X73366Y-31850D02*
Y-26220D01*
X84902D01*
X73366Y-31850D02*
X84902D01*
X56142Y-93071D02*
Y-87441D01*
X67677Y-93071D02*
Y-87441D01*
X56142Y-93071D02*
X67677D01*
X56142Y-87441D02*
X67677D01*
X56240Y-54882D02*
Y-49252D01*
X67776Y-54882D02*
Y-49252D01*
X56240Y-54882D02*
X67776D01*
X56240Y-49252D02*
X67776D01*
X84311Y-69055D02*
Y-63425D01*
X72776Y-69055D02*
Y-63425D01*
X84311D01*
X72776Y-69055D02*
X84311D01*
X44154Y-67480D02*
Y-61850D01*
X32618Y-67480D02*
Y-61850D01*
X44154D01*
X32618Y-67480D02*
X44154D01*
X105354Y-79665D02*
X110984D01*
X105354Y-91201D02*
X110984D01*
X105354D02*
Y-79665D01*
X110984Y-91201D02*
Y-79665D01*
X43559Y-31453D02*
Y-25823D01*
X32024Y-31453D02*
Y-25823D01*
X43559D01*
X32024Y-31453D02*
X43559D01*
X103976Y-42362D02*
X109606D01*
X103976Y-53898D02*
X109606D01*
X103976D02*
Y-42362D01*
X109606Y-53898D02*
Y-42362D01*
X44252Y-75157D02*
Y-69528D01*
X32717Y-75157D02*
Y-69528D01*
X44252D01*
X32717Y-75157D02*
X44252D01*
X87244Y-70039D02*
Y-64409D01*
X98779Y-70039D02*
Y-64409D01*
X87244Y-70039D02*
X98779D01*
X87244Y-64409D02*
X98779D01*
X43559Y-38453D02*
Y-32823D01*
X32024Y-38453D02*
Y-32823D01*
X43559D01*
X32024Y-38453D02*
X43559D01*
X87933Y-30276D02*
Y-24646D01*
X99468Y-30276D02*
Y-24646D01*
X87933Y-30276D02*
X99468D01*
X87933Y-24646D02*
X99468D01*
X237343Y-214705D02*
X242972D01*
X237343Y-226240D02*
X242972D01*
X237343D02*
Y-214705D01*
X242972Y-226240D02*
Y-214705D01*
X243248Y-243839D02*
X248878Y-243839D01*
X243248Y-255374D02*
X248878Y-255374D01*
X243248Y-255374D02*
X243248Y-243839D01*
X248878Y-255374D02*
X248878Y-243839D01*
X250335Y-227697D02*
X255965D01*
X250335Y-239232D02*
X255965D01*
X250335D02*
Y-227697D01*
X255965Y-239232D02*
Y-227697D01*
X223563Y-268642D02*
X229193D01*
X223563Y-280177D02*
X229193D01*
X223563D02*
Y-268642D01*
X229193Y-280177D02*
Y-268642D01*
X208350Y-268799D02*
X213980D01*
X208350Y-280335D02*
X213980D01*
X208350D02*
Y-268799D01*
X213980Y-280335D02*
Y-268799D01*
X242776Y-268957D02*
Y-263327D01*
X231240Y-268957D02*
Y-263327D01*
X242776D01*
X231240Y-268957D02*
X242776D01*
X227421D02*
Y-263327D01*
X215886Y-268957D02*
Y-263327D01*
X227421D01*
X215886Y-268957D02*
X227421D01*
X212461D02*
Y-263327D01*
X200925Y-268957D02*
Y-263327D01*
X212461D01*
X200925Y-268957D02*
X212461D01*
X460177Y-51142D02*
X465807D01*
X460177Y-39606D02*
X465807D01*
Y-51142D02*
Y-39606D01*
X460177Y-51142D02*
Y-39606D01*
X379468Y-51043D02*
X385098D01*
X379468Y-39508D02*
X385098D01*
Y-51043D02*
Y-39508D01*
X379468Y-51043D02*
Y-39508D01*
X438130Y-51142D02*
X443760D01*
X438130Y-39606D02*
X443760D01*
Y-51142D02*
Y-39606D01*
X438130Y-51142D02*
Y-39606D01*
X446201Y-51634D02*
Y-46004D01*
X457736Y-51634D02*
Y-46004D01*
X446201Y-51634D02*
X457736D01*
X446201Y-46004D02*
X457736D01*
X421988Y-66004D02*
X427618D01*
X421988Y-54469D02*
X427618D01*
Y-66004D02*
Y-54469D01*
X421988Y-66004D02*
Y-54469D01*
X387539Y-51634D02*
Y-46004D01*
X399075Y-51634D02*
Y-46004D01*
X387539Y-51634D02*
X399075D01*
X387539Y-46004D02*
X399075D01*
X412146Y-66004D02*
X417776D01*
X412146Y-54469D02*
X417776D01*
Y-66004D02*
Y-54469D01*
X412146Y-66004D02*
Y-54469D01*
X429961Y-73287D02*
Y-67658D01*
X441496Y-73287D02*
Y-67658D01*
X429961Y-73287D02*
X441496D01*
X429961Y-67658D02*
X441496D01*
X429961Y-66201D02*
Y-60571D01*
X441496Y-66201D02*
Y-60571D01*
X429961Y-66201D02*
X441496D01*
X429961Y-60571D02*
X441496D01*
X382618Y-68248D02*
X388248D01*
X382618Y-79783D02*
X388248D01*
X382618D02*
Y-68248D01*
X388248Y-79783D02*
Y-68248D01*
X408819Y-91004D02*
Y-85374D01*
X397284Y-91004D02*
Y-85374D01*
X408819D01*
X397284Y-91004D02*
X408819D01*
X389902Y-263917D02*
X395532D01*
X389902Y-275453D02*
X395532D01*
X389902D02*
Y-263917D01*
X395532Y-275453D02*
Y-263917D01*
X409410Y-248878D02*
Y-243248D01*
X397874Y-248878D02*
Y-243248D01*
X409410D01*
X397874Y-248878D02*
X409410D01*
X66476Y-282421D02*
X72106D01*
X66476Y-293957D02*
X72106D01*
X66476D02*
Y-282421D01*
X72106Y-293957D02*
Y-282421D01*
X100138Y-268957D02*
Y-263327D01*
X111673Y-268957D02*
Y-263327D01*
X100138Y-268957D02*
X111673D01*
X100138Y-263327D02*
X111673D01*
X66476Y-269134D02*
X72106D01*
X66476Y-280669D02*
X72106D01*
X66476D02*
Y-269134D01*
X72106Y-280669D02*
Y-269134D01*
X56240Y-269547D02*
Y-263917D01*
X67776Y-269547D02*
Y-263917D01*
X56240Y-269547D02*
X67776D01*
X56240Y-263917D02*
X67776D01*
X87244Y-237736D02*
X92874D01*
X87244Y-249272D02*
X92874D01*
X87244D02*
Y-237736D01*
X92874Y-249272D02*
Y-237736D01*
X279173Y-101240D02*
Y-95610D01*
X290709Y-101240D02*
Y-95610D01*
X279173Y-101240D02*
X290709D01*
X279173Y-95610D02*
X290709D01*
X201909Y-46890D02*
X207539D01*
X201909Y-58425D02*
X207539D01*
X201909D02*
Y-46890D01*
X207539Y-58425D02*
Y-46890D01*
X221595D02*
X227224D01*
X221595Y-58425D02*
X227224D01*
X221595D02*
Y-46890D01*
X227224Y-58425D02*
Y-46890D01*
X255276Y-101240D02*
Y-95610D01*
X243740Y-101240D02*
Y-95610D01*
X255276D01*
X243740Y-101240D02*
X255276D01*
X282835Y-71713D02*
Y-66083D01*
X271299Y-71713D02*
Y-66083D01*
X282835D01*
X271299Y-71713D02*
X282835D01*
X236850D02*
Y-66083D01*
X248386Y-71713D02*
Y-66083D01*
X236850Y-71713D02*
X248386D01*
X236850Y-66083D02*
X248386D01*
X263162Y-44909D02*
Y-39279D01*
X274698Y-44909D02*
Y-39279D01*
X263162Y-44909D02*
X274698D01*
X263162Y-39279D02*
X274698D01*
X401740Y-57906D02*
Y-46031D01*
X407709Y-57906D02*
Y-46031D01*
X401740D02*
X407709D01*
X401740Y-57906D02*
X407709D01*
X429299Y-57961D02*
X435268D01*
X429299Y-46087D02*
X435268D01*
Y-57961D02*
Y-46087D01*
X429299Y-57961D02*
Y-46087D01*
M02*
