G04*
G04 #@! TF.GenerationSoftware,Altium Limited,Altium Designer,21.4.1 (30)*
G04*
G04 Layer_Color=8421504*
%FSLAX25Y25*%
%MOIN*%
G70*
G04*
G04 #@! TF.SameCoordinates,4F7A37CA-CC0D-4B0B-ADC5-D258E3024ECD*
G04*
G04*
G04 #@! TF.FilePolarity,Positive*
G04*
G01*
G75*
%ADD18R,0.03937X0.03543*%
%ADD19R,0.03543X0.03937*%
%ADD20R,0.16535X0.04724*%
%ADD21R,0.16535X0.07874*%
%ADD22R,0.08268X0.03543*%
%ADD23R,0.08268X0.12598*%
%ADD24R,0.05512X0.04724*%
%ADD25R,0.04724X0.05512*%
%ADD26R,0.03100X0.01400*%
%ADD27R,0.04724X0.16535*%
%ADD28R,0.07874X0.16535*%
G04:AMPARAMS|DCode=29|XSize=57.87mil|YSize=11.02mil|CornerRadius=1.38mil|HoleSize=0mil|Usage=FLASHONLY|Rotation=180.000|XOffset=0mil|YOffset=0mil|HoleType=Round|Shape=RoundedRectangle|*
%AMROUNDEDRECTD29*
21,1,0.05787,0.00827,0,0,180.0*
21,1,0.05512,0.01102,0,0,180.0*
1,1,0.00276,-0.02756,0.00413*
1,1,0.00276,0.02756,0.00413*
1,1,0.00276,0.02756,-0.00413*
1,1,0.00276,-0.02756,-0.00413*
%
%ADD29ROUNDEDRECTD29*%
%ADD30R,0.01400X0.03100*%
%ADD31R,0.01200X0.02000*%
%ADD32R,0.04500X0.01800*%
%ADD33R,0.04528X0.02362*%
%ADD34R,0.04528X0.01968*%
%ADD35R,0.04528X0.03150*%
%ADD36R,0.04016X0.03504*%
D18*
X392126Y-77461D02*
D03*
Y-70571D02*
D03*
X403543Y-238681D02*
D03*
Y-231791D02*
D03*
X406496Y-259350D02*
D03*
Y-252461D02*
D03*
X38386Y-251969D02*
D03*
Y-258858D02*
D03*
X265748Y-62008D02*
D03*
Y-68898D02*
D03*
X246063Y-160335D02*
D03*
Y-167224D02*
D03*
X259842Y-98425D02*
D03*
Y-105315D02*
D03*
X100394Y-246949D02*
D03*
Y-240059D02*
D03*
X25591Y-273622D02*
D03*
Y-266732D02*
D03*
X246063Y-153051D02*
D03*
Y-146161D02*
D03*
X83858Y-284744D02*
D03*
Y-291634D02*
D03*
X80709Y-240256D02*
D03*
Y-247146D02*
D03*
X55118Y-258366D02*
D03*
Y-251476D02*
D03*
X64961D02*
D03*
Y-258366D02*
D03*
X410433Y-231791D02*
D03*
Y-238681D02*
D03*
X404724Y-77461D02*
D03*
Y-70571D02*
D03*
X97146Y-44685D02*
D03*
Y-51575D02*
D03*
X89961Y-51476D02*
D03*
Y-44587D02*
D03*
X49311Y-48524D02*
D03*
Y-41634D02*
D03*
X49902Y-71653D02*
D03*
Y-64764D02*
D03*
X108169Y-74902D02*
D03*
Y-68012D02*
D03*
X49213Y-35236D02*
D03*
Y-28346D02*
D03*
X49803Y-85236D02*
D03*
Y-78347D02*
D03*
X89764Y-88976D02*
D03*
Y-82087D02*
D03*
X97539Y-81988D02*
D03*
Y-88878D02*
D03*
X233071Y-270965D02*
D03*
Y-277854D02*
D03*
X218165Y-271122D02*
D03*
Y-278012D02*
D03*
X83858Y-272441D02*
D03*
Y-279331D02*
D03*
X253937Y-46457D02*
D03*
Y-39567D02*
D03*
Y-68898D02*
D03*
Y-62008D02*
D03*
X246063Y-83661D02*
D03*
Y-90551D02*
D03*
X108169Y-81988D02*
D03*
Y-88878D02*
D03*
X106791Y-44685D02*
D03*
Y-51575D02*
D03*
X240158Y-217028D02*
D03*
Y-223917D02*
D03*
X246063Y-246161D02*
D03*
X246063Y-253051D02*
D03*
X253150Y-230020D02*
D03*
Y-236910D02*
D03*
X226378Y-270965D02*
D03*
Y-277854D02*
D03*
X211165Y-271122D02*
D03*
Y-278012D02*
D03*
X462992Y-48819D02*
D03*
Y-41929D02*
D03*
X382283Y-48720D02*
D03*
Y-41831D02*
D03*
X440945Y-48819D02*
D03*
Y-41929D02*
D03*
X424803Y-63681D02*
D03*
Y-56791D02*
D03*
X414961Y-63681D02*
D03*
Y-56791D02*
D03*
X385433Y-70571D02*
D03*
Y-77461D02*
D03*
X392717Y-266240D02*
D03*
Y-273130D02*
D03*
X69291Y-284744D02*
D03*
Y-291634D02*
D03*
Y-271457D02*
D03*
Y-278346D02*
D03*
X90059Y-240059D02*
D03*
Y-246949D02*
D03*
X204724Y-49213D02*
D03*
Y-56102D02*
D03*
X224410Y-49213D02*
D03*
Y-56102D02*
D03*
D19*
X423524Y-77559D02*
D03*
X416634D02*
D03*
X399705Y-265748D02*
D03*
X406595D02*
D03*
X460925Y-266339D02*
D03*
X467815D02*
D03*
X452067Y-266929D02*
D03*
X445177D02*
D03*
X451083Y-257087D02*
D03*
X444193D02*
D03*
X379232Y-266142D02*
D03*
X386122D02*
D03*
X451279Y-250000D02*
D03*
X458169D02*
D03*
X266732Y-98425D02*
D03*
X273622D02*
D03*
X287795Y-48819D02*
D03*
X280906D02*
D03*
X239173Y-106299D02*
D03*
X246063D02*
D03*
X252953Y-98425D02*
D03*
X246063D02*
D03*
X338287Y-266142D02*
D03*
X345177D02*
D03*
X324114D02*
D03*
X331004D02*
D03*
X79823Y-227953D02*
D03*
X86713D02*
D03*
X38386Y-266732D02*
D03*
X31496D02*
D03*
X338287Y-48819D02*
D03*
X345177D02*
D03*
X324114D02*
D03*
X331004D02*
D03*
X160728Y-266142D02*
D03*
X167618D02*
D03*
X146555D02*
D03*
X153445D02*
D03*
X168012Y-48819D02*
D03*
X161122D02*
D03*
X153839D02*
D03*
X146949D02*
D03*
X100492Y-227559D02*
D03*
X93602D02*
D03*
X416634Y-70866D02*
D03*
X423524D02*
D03*
X439272Y-77559D02*
D03*
X432382D02*
D03*
X392421Y-88189D02*
D03*
X385531D02*
D03*
X260728Y-257480D02*
D03*
X267618D02*
D03*
X41236Y-42638D02*
D03*
X34347D02*
D03*
X56890Y-65354D02*
D03*
X63779D02*
D03*
X89468Y-75098D02*
D03*
X96358D02*
D03*
X57973Y-28642D02*
D03*
X64862D02*
D03*
X90158Y-36614D02*
D03*
X97047D02*
D03*
X103051D02*
D03*
X109941D02*
D03*
X41929Y-79626D02*
D03*
X35039D02*
D03*
X52658Y-266732D02*
D03*
X45768D02*
D03*
X211122Y-49213D02*
D03*
X218012D02*
D03*
X239173Y-61024D02*
D03*
X246063D02*
D03*
X252953Y-76772D02*
D03*
X246063D02*
D03*
X82579Y-29035D02*
D03*
X75689D02*
D03*
X58465Y-90256D02*
D03*
X65354D02*
D03*
X58563Y-52067D02*
D03*
X65453D02*
D03*
X81988Y-66240D02*
D03*
X75098D02*
D03*
X41831Y-64665D02*
D03*
X34941D02*
D03*
X41236Y-28638D02*
D03*
X34347D02*
D03*
X41929Y-72342D02*
D03*
X35039D02*
D03*
X89567Y-67224D02*
D03*
X96457D02*
D03*
X41236Y-35638D02*
D03*
X34347D02*
D03*
X90256Y-27461D02*
D03*
X97146D02*
D03*
X240453Y-266142D02*
D03*
X233563D02*
D03*
X225098D02*
D03*
X218209D02*
D03*
X210138D02*
D03*
X203248D02*
D03*
X448524Y-48819D02*
D03*
X455413D02*
D03*
X389862D02*
D03*
X396752D02*
D03*
X432283Y-70472D02*
D03*
X439173D02*
D03*
X432283Y-63386D02*
D03*
X439173D02*
D03*
X406496Y-88189D02*
D03*
X399606D02*
D03*
X407087Y-246063D02*
D03*
X400197D02*
D03*
X102461Y-266142D02*
D03*
X109350D02*
D03*
X58563Y-266732D02*
D03*
X65453D02*
D03*
X281496Y-98425D02*
D03*
X288386D02*
D03*
X280512Y-68898D02*
D03*
X273622D02*
D03*
X239173D02*
D03*
X246063D02*
D03*
X265485Y-42094D02*
D03*
X272375D02*
D03*
D20*
X126772Y-266142D02*
D03*
X11024Y-48819D02*
D03*
X127165D02*
D03*
X10630Y-266142D02*
D03*
X304331Y-48819D02*
D03*
X480709Y-266142D02*
D03*
X364567Y-48819D02*
D03*
X304331Y-266142D02*
D03*
X365354D02*
D03*
X481102Y-48819D02*
D03*
X187402Y-266142D02*
D03*
X187795Y-48819D02*
D03*
D21*
X126772Y-278346D02*
D03*
Y-253937D02*
D03*
X11024Y-36614D02*
D03*
Y-61024D02*
D03*
X127165D02*
D03*
Y-36614D02*
D03*
X10630Y-278346D02*
D03*
Y-253937D02*
D03*
X304331Y-36614D02*
D03*
Y-61024D02*
D03*
X480709Y-253937D02*
D03*
Y-278346D02*
D03*
X364567Y-61024D02*
D03*
Y-36614D02*
D03*
X304331Y-253937D02*
D03*
Y-278346D02*
D03*
X365354D02*
D03*
Y-253937D02*
D03*
X481102Y-36614D02*
D03*
Y-61024D02*
D03*
X187402Y-278346D02*
D03*
Y-253937D02*
D03*
X187795Y-61024D02*
D03*
Y-36614D02*
D03*
D22*
X414961Y-256693D02*
D03*
Y-265748D02*
D03*
Y-274803D02*
D03*
D23*
X437402Y-265748D02*
D03*
D24*
X441732Y-286024D02*
D03*
Y-293110D02*
D03*
X45276Y-282087D02*
D03*
Y-275000D02*
D03*
D25*
X458268Y-242126D02*
D03*
X451181D02*
D03*
X77165Y-100394D02*
D03*
X84252D02*
D03*
X79626Y-221161D02*
D03*
X86713D02*
D03*
X44587Y-97835D02*
D03*
X37500D02*
D03*
X399606Y-96063D02*
D03*
X406693D02*
D03*
X399410Y-224410D02*
D03*
X406496D02*
D03*
D26*
X265485Y-48622D02*
D03*
Y-51181D02*
D03*
Y-53740D02*
D03*
X273885D02*
D03*
Y-51181D02*
D03*
Y-48622D02*
D03*
D27*
X246063Y-187402D02*
D03*
X334646Y-304331D02*
D03*
X157087Y-304724D02*
D03*
X334646Y-10630D02*
D03*
X157480Y-10236D02*
D03*
X246063Y-126772D02*
D03*
D28*
X258268Y-187402D02*
D03*
X233858D02*
D03*
X322441Y-304331D02*
D03*
X346850D02*
D03*
X144882Y-304724D02*
D03*
X169291D02*
D03*
X322441Y-10630D02*
D03*
X346850D02*
D03*
X145276Y-10236D02*
D03*
X169685D02*
D03*
X258268Y-126772D02*
D03*
X233858D02*
D03*
D29*
X78898Y-44575D02*
D03*
Y-42606D02*
D03*
Y-40638D02*
D03*
Y-38669D02*
D03*
Y-36701D02*
D03*
X61968D02*
D03*
Y-38669D02*
D03*
Y-40638D02*
D03*
Y-42606D02*
D03*
Y-44575D02*
D03*
D30*
X245866Y-240027D02*
D03*
X243307D02*
D03*
X240748D02*
D03*
Y-231627D02*
D03*
X243307D02*
D03*
X245866D02*
D03*
D31*
X249500Y-261567D02*
D03*
X251665D02*
D03*
X253831D02*
D03*
Y-265504D02*
D03*
X251665D02*
D03*
X249500D02*
D03*
D32*
X238626Y-49213D02*
D03*
X245626Y-46654D02*
D03*
Y-51772D02*
D03*
D33*
X415079Y-44882D02*
D03*
X425079Y-40882D02*
D03*
Y-48882D02*
D03*
D34*
X80315Y-266142D02*
D03*
X73032Y-261024D02*
D03*
Y-266142D02*
D03*
D35*
X80315Y-261614D02*
D03*
D36*
X404724Y-48764D02*
D03*
Y-55173D02*
D03*
X432283Y-55228D02*
D03*
Y-48819D02*
D03*
M02*
