M48
;Layer_Color=9474304
;FILE_FORMAT=2:5
INCH,TZ
;TYPE=PLATED
T1F00S00C0.01181
T2F00S00C0.02362
T3F00S00C0.03543
T4F00S00C0.04016
T5F00S00C0.05906
T6F00S00C0.13780
%
T01
X462992Y-250000
X463287Y-241732
X422047Y-256693
X414961Y-252756
X396063Y-246063
X393701Y-224213
X392717Y-277953
X408661Y-274803
X421654
X271530Y-257390
X251620Y-257919
X251575Y-269291
X243307Y-235445
X243307Y-227953
X237402Y-240551
X100394Y-251181
X90059
X85827Y-262992
X84252Y-266142
X68898Y-260827
Y-257874
X55118Y-247244
X38386Y-247736
X25591Y-277854
X45276Y-286319
X75590Y-227953
X75394Y-221161
X72146Y-100492
X69291Y-90158
X53937
X32283Y-98032
X30807Y-79626
Y-72342
X30114Y-42638
Y-35638
X55216Y-33071
X54331Y-52362
X70325Y-52215
X75197Y-62205
X82240Y-61855
X100689Y-67224
X101378Y-51575
Y-27461
X83378Y-33028
X75640Y-24754
X102264Y-88878
X204724Y-61024
X224410
X234252
Y-68898
X253937Y-53150
X257480
X269685Y-51181
X277296Y-42094
X253937Y-34646
X285433Y-68898
X277559Y-98425
Y-101575
X259842Y-110236
X234252Y-106299
X411811Y-96063
X410630Y-88189
X392126Y-66535
X385433
X382283Y-37795
X425197Y-37402
X429528Y-40945
X440945Y-37795
X443307Y-63386
Y-70472
Y-77559
X462992Y-37795
T02
X462599Y-299016
X476378Y-236024
Y-226181
Y-216339
Y-206496
X462598Y-192717
X452756
X442913
X433071
X423228
X413386
X403543
X393701
X383858
X370079Y-206496
Y-216339
Y-226181
Y-236024
X383858Y-299016
X393701
X403543
X413386
X423228
X433071
X442913
X452756
X285433Y-298819
X275590
X265748
X255906
X246063
X236221
X226378
X216535
X206693
X211165Y-282244
X218165
X226378Y-282087
X233071
X192913Y-235827
Y-225984
Y-216142
Y-206299
X206693Y-192520
X216535
X275590
X285433
X299213Y-206299
Y-216142
Y-225984
Y-235827
X122047Y-236221
Y-226378
Y-216535
Y-206693
X108268Y-192913
X98425
X88583
X78740
X68898
X59055
X49213
X39370
X29528
X15748Y-206693
Y-216535
Y-226378
Y-236221
X29528Y-299213
X39370
X49213
X59055
X68898
X78740
X88583
X98425
X108268
X108420Y-121699
X98577
X88735
X78892
X69049
X59207
X49364
X39522
X29679
X15900Y-107920
Y-98077
Y-88235
Y-78392
X29679Y-15400
X39522
X49364
X59207
X69049
X78892
X88735
X98577
X108420
X122199Y-78392
Y-88235
Y-98077
Y-107920
X192913Y-108071
Y-98228
Y-88386
Y-78543
X206693Y-121850
X216535
X275591
X285433
X299213Y-108071
Y-98228
Y-88386
Y-78543
X285433Y-15551
X275591
X265748
X255906
X246063
X236221
X226378
X216535
X206693
X383858Y-15551
X393701
X403543
X413386
X423228
X433071
X442913
X452756
X452756Y-121850
X442913
X433071
X423228
X413386
X403543
X393701
X383858
X370079Y-108071
Y-98228
Y-88386
Y-78543
X476378Y-78543
Y-88386
Y-98228
Y-108071
X462598Y-121850
X462598Y-15551
T03
X389764Y-206496
X399764
X409764
X436693
X446693
X456693
X285591Y-204724
X275590
X265591
X102520Y-110236
X92520
X82520
X55276
X45276
X35276
X389606Y-106102
X399606
X409606
T04
X76614Y-204724
X86614
X96614
X259685Y-25591
X269685
X279685
T05
X190551Y-166535
X200394Y-156693
X190551Y-146850
X210236
Y-166535
T06
X480315Y-302953
Y-188779
X366142
Y-302953
X303150Y-302756
X188976
Y-188583
X303150
X125984Y-188976
Y-303150
X11811
Y-188976
X11963Y-125636
X126136
X188976Y-125787
X303150
X366142Y-125787
X480315
Y-11614
X366142
X303150Y-11614
X188976
X126136Y-11463
X11963
M30
