G04*
G04 #@! TF.GenerationSoftware,Altium Limited,Altium Designer,21.4.1 (30)*
G04*
G04 Layer_Color=16711935*
%FSLAX25Y25*%
%MOIN*%
G70*
G04*
G04 #@! TF.SameCoordinates,4F7A37CA-CC0D-4B0B-ADC5-D258E3024ECD*
G04*
G04*
G04 #@! TF.FilePolarity,Positive*
G04*
G01*
G75*
%ADD11C,0.00787*%
%ADD12C,0.00600*%
%ADD14C,0.01000*%
%ADD15C,0.00500*%
%ADD16C,0.00300*%
%ADD121C,0.00000*%
%ADD122C,0.00400*%
%ADD123C,0.00394*%
%ADD124C,0.00100*%
D11*
X252638Y-25591D02*
X251850D01*
X252638D01*
X104449Y-204724D02*
X103661D01*
X104449D01*
X84606Y-45559D02*
X83819D01*
X84606D01*
D12*
X135772Y-240142D02*
Y-242541D01*
X134572D01*
X134172Y-242141D01*
Y-241341D01*
X134572Y-240942D01*
X135772D01*
X131773Y-242141D02*
X132173Y-242541D01*
X132973D01*
X133372Y-242141D01*
Y-240542D01*
X132973Y-240142D01*
X132173D01*
X131773Y-240542D01*
X130973Y-242541D02*
Y-240142D01*
X129774D01*
X129374Y-240542D01*
Y-240942D01*
X129774Y-241341D01*
X130973D01*
X129774D01*
X129374Y-241741D01*
Y-242141D01*
X129774Y-242541D01*
X130973D01*
X124575D02*
X126175D01*
Y-240142D01*
X124575D01*
X126175Y-241341D02*
X125375D01*
X123775Y-242541D02*
Y-240142D01*
X122576D01*
X122176Y-240542D01*
Y-242141D01*
X122576Y-242541D01*
X123775D01*
X119777Y-242141D02*
X120177Y-242541D01*
X120976D01*
X121376Y-242141D01*
Y-240542D01*
X120976Y-240142D01*
X120177D01*
X119777Y-240542D01*
Y-241341D01*
X120577D01*
X117378Y-242541D02*
X118977D01*
Y-240142D01*
X117378D01*
X118977Y-241341D02*
X118177D01*
X2024Y-74819D02*
Y-72420D01*
X3223D01*
X3623Y-72820D01*
Y-73619D01*
X3223Y-74019D01*
X2024D01*
X6022Y-72820D02*
X5622Y-72420D01*
X4823D01*
X4423Y-72820D01*
Y-74419D01*
X4823Y-74819D01*
X5622D01*
X6022Y-74419D01*
X6822Y-72420D02*
Y-74819D01*
X8022D01*
X8422Y-74419D01*
Y-74019D01*
X8022Y-73619D01*
X6822D01*
X8022D01*
X8422Y-73219D01*
Y-72820D01*
X8022Y-72420D01*
X6822D01*
X13220D02*
X11620D01*
Y-74819D01*
X13220D01*
X11620Y-73619D02*
X12420D01*
X14020Y-72420D02*
Y-74819D01*
X15219D01*
X15619Y-74419D01*
Y-72820D01*
X15219Y-72420D01*
X14020D01*
X18018Y-72820D02*
X17618Y-72420D01*
X16819D01*
X16419Y-72820D01*
Y-74419D01*
X16819Y-74819D01*
X17618D01*
X18018Y-74419D01*
Y-73619D01*
X17219D01*
X20418Y-72420D02*
X18818D01*
Y-74819D01*
X20418D01*
X18818Y-73619D02*
X19618D01*
X220063Y-178402D02*
X222462D01*
Y-179601D01*
X222062Y-180001D01*
X221263D01*
X220863Y-179601D01*
Y-178402D01*
X222062Y-182400D02*
X222462Y-182000D01*
Y-181201D01*
X222062Y-180801D01*
X220463D01*
X220063Y-181201D01*
Y-182000D01*
X220463Y-182400D01*
X222462Y-183200D02*
X220063D01*
Y-184400D01*
X220463Y-184800D01*
X220863D01*
X221263Y-184400D01*
Y-183200D01*
Y-184400D01*
X221662Y-184800D01*
X222062D01*
X222462Y-184400D01*
Y-183200D01*
Y-189598D02*
Y-187998D01*
X220063D01*
Y-189598D01*
X221263Y-187998D02*
Y-188798D01*
X222462Y-190398D02*
X220063D01*
Y-191597D01*
X220463Y-191997D01*
X222062D01*
X222462Y-191597D01*
Y-190398D01*
X222062Y-194396D02*
X222462Y-193997D01*
Y-193197D01*
X222062Y-192797D01*
X220463D01*
X220063Y-193197D01*
Y-193997D01*
X220463Y-194396D01*
X221263D01*
Y-193597D01*
X222462Y-196796D02*
Y-195196D01*
X220063D01*
Y-196796D01*
X221263Y-195196D02*
Y-195996D01*
X136165Y-22819D02*
Y-25218D01*
X134966D01*
X134566Y-24818D01*
Y-24018D01*
X134966Y-23619D01*
X136165D01*
X132167Y-24818D02*
X132566Y-25218D01*
X133366D01*
X133766Y-24818D01*
Y-23219D01*
X133366Y-22819D01*
X132566D01*
X132167Y-23219D01*
X131367Y-25218D02*
Y-22819D01*
X130167D01*
X129767Y-23219D01*
Y-23619D01*
X130167Y-24018D01*
X131367D01*
X130167D01*
X129767Y-24418D01*
Y-24818D01*
X130167Y-25218D01*
X131367D01*
X124969D02*
X126568D01*
Y-22819D01*
X124969D01*
X126568Y-24018D02*
X125769D01*
X124169Y-25218D02*
Y-22819D01*
X122970D01*
X122570Y-23219D01*
Y-24818D01*
X122970Y-25218D01*
X124169D01*
X120171Y-24818D02*
X120570Y-25218D01*
X121370D01*
X121770Y-24818D01*
Y-23219D01*
X121370Y-22819D01*
X120570D01*
X120171Y-23219D01*
Y-24018D01*
X120970D01*
X117771Y-25218D02*
X119371D01*
Y-22819D01*
X117771D01*
X119371Y-24018D02*
X118571D01*
X360646Y-313331D02*
X358246D01*
Y-312131D01*
X358646Y-311731D01*
X359446D01*
X359846Y-312131D01*
Y-313331D01*
X358646Y-309332D02*
X358246Y-309732D01*
Y-310532D01*
X358646Y-310931D01*
X360246D01*
X360646Y-310532D01*
Y-309732D01*
X360246Y-309332D01*
X358246Y-308532D02*
X360646D01*
Y-307333D01*
X360246Y-306933D01*
X359846D01*
X359446Y-307333D01*
Y-308532D01*
Y-307333D01*
X359046Y-306933D01*
X358646D01*
X358246Y-307333D01*
Y-308532D01*
Y-302134D02*
Y-303734D01*
X360646D01*
Y-302134D01*
X359446Y-303734D02*
Y-302934D01*
X358246Y-301335D02*
X360646D01*
Y-300135D01*
X360246Y-299735D01*
X358646D01*
X358246Y-300135D01*
Y-301335D01*
X358646Y-297336D02*
X358246Y-297736D01*
Y-298535D01*
X358646Y-298935D01*
X360246D01*
X360646Y-298535D01*
Y-297736D01*
X360246Y-297336D01*
X359446D01*
Y-298136D01*
X358246Y-294937D02*
Y-296536D01*
X360646D01*
Y-294937D01*
X359446Y-296536D02*
Y-295736D01*
X183087Y-313724D02*
X180687D01*
Y-312525D01*
X181087Y-312125D01*
X181887D01*
X182287Y-312525D01*
Y-313724D01*
X181087Y-309726D02*
X180687Y-310126D01*
Y-310925D01*
X181087Y-311325D01*
X182687D01*
X183087Y-310925D01*
Y-310126D01*
X182687Y-309726D01*
X180687Y-308926D02*
X183087D01*
Y-307726D01*
X182687Y-307327D01*
X182287D01*
X181887Y-307726D01*
Y-308926D01*
Y-307726D01*
X181487Y-307327D01*
X181087D01*
X180687Y-307726D01*
Y-308926D01*
Y-302528D02*
Y-304128D01*
X183087D01*
Y-302528D01*
X181887Y-304128D02*
Y-303328D01*
X180687Y-301728D02*
X183087D01*
Y-300529D01*
X182687Y-300129D01*
X181087D01*
X180687Y-300529D01*
Y-301728D01*
X181087Y-297730D02*
X180687Y-298130D01*
Y-298929D01*
X181087Y-299329D01*
X182687D01*
X183087Y-298929D01*
Y-298130D01*
X182687Y-297730D01*
X181887D01*
Y-298529D01*
X180687Y-295330D02*
Y-296930D01*
X183087D01*
Y-295330D01*
X181887Y-296930D02*
Y-296130D01*
X308646Y-1630D02*
X311045D01*
Y-2829D01*
X310645Y-3229D01*
X309845D01*
X309445Y-2829D01*
Y-1630D01*
X310645Y-5629D02*
X311045Y-5229D01*
Y-4429D01*
X310645Y-4029D01*
X309046D01*
X308646Y-4429D01*
Y-5229D01*
X309046Y-5629D01*
X311045Y-6428D02*
X308646D01*
Y-7628D01*
X309046Y-8028D01*
X309445D01*
X309845Y-7628D01*
Y-6428D01*
Y-7628D01*
X310245Y-8028D01*
X310645D01*
X311045Y-7628D01*
Y-6428D01*
Y-12826D02*
Y-11227D01*
X308646D01*
Y-12826D01*
X309845Y-11227D02*
Y-12026D01*
X311045Y-13626D02*
X308646D01*
Y-14826D01*
X309046Y-15225D01*
X310645D01*
X311045Y-14826D01*
Y-13626D01*
X310645Y-17625D02*
X311045Y-17225D01*
Y-16425D01*
X310645Y-16025D01*
X309046D01*
X308646Y-16425D01*
Y-17225D01*
X309046Y-17625D01*
X309845D01*
Y-16825D01*
X311045Y-20024D02*
Y-18425D01*
X308646D01*
Y-20024D01*
X309845Y-18425D02*
Y-19224D01*
X131480Y-1236D02*
X133879D01*
Y-2436D01*
X133480Y-2836D01*
X132680D01*
X132280Y-2436D01*
Y-1236D01*
X133480Y-5235D02*
X133879Y-4835D01*
Y-4035D01*
X133480Y-3635D01*
X131880D01*
X131480Y-4035D01*
Y-4835D01*
X131880Y-5235D01*
X133879Y-6035D02*
X131480D01*
Y-7234D01*
X131880Y-7634D01*
X132280D01*
X132680Y-7234D01*
Y-6035D01*
Y-7234D01*
X133080Y-7634D01*
X133480D01*
X133879Y-7234D01*
Y-6035D01*
Y-12433D02*
Y-10833D01*
X131480D01*
Y-12433D01*
X132680Y-10833D02*
Y-11633D01*
X133879Y-13232D02*
X131480D01*
Y-14432D01*
X131880Y-14832D01*
X133480D01*
X133879Y-14432D01*
Y-13232D01*
X133480Y-17231D02*
X133879Y-16831D01*
Y-16031D01*
X133480Y-15631D01*
X131880D01*
X131480Y-16031D01*
Y-16831D01*
X131880Y-17231D01*
X132680D01*
Y-16431D01*
X133879Y-19630D02*
Y-18031D01*
X131480D01*
Y-19630D01*
X132680Y-18031D02*
Y-18831D01*
X1630Y-292142D02*
Y-289742D01*
X2829D01*
X3229Y-290142D01*
Y-290942D01*
X2829Y-291342D01*
X1630D01*
X5629Y-290142D02*
X5229Y-289742D01*
X4429D01*
X4029Y-290142D01*
Y-291742D01*
X4429Y-292142D01*
X5229D01*
X5629Y-291742D01*
X6428Y-289742D02*
Y-292142D01*
X7628D01*
X8028Y-291742D01*
Y-291342D01*
X7628Y-290942D01*
X6428D01*
X7628D01*
X8028Y-290542D01*
Y-290142D01*
X7628Y-289742D01*
X6428D01*
X12826D02*
X11227D01*
Y-292142D01*
X12826D01*
X11227Y-290942D02*
X12026D01*
X13626Y-289742D02*
Y-292142D01*
X14826D01*
X15225Y-291742D01*
Y-290142D01*
X14826Y-289742D01*
X13626D01*
X17625Y-290142D02*
X17225Y-289742D01*
X16425D01*
X16025Y-290142D01*
Y-291742D01*
X16425Y-292142D01*
X17225D01*
X17625Y-291742D01*
Y-290942D01*
X16825D01*
X20024Y-289742D02*
X18425D01*
Y-292142D01*
X20024D01*
X18425Y-290942D02*
X19224D01*
X272063Y-135772D02*
X269664D01*
Y-134572D01*
X270064Y-134172D01*
X270863D01*
X271263Y-134572D01*
Y-135772D01*
X270064Y-131773D02*
X269664Y-132173D01*
Y-132973D01*
X270064Y-133372D01*
X271663D01*
X272063Y-132973D01*
Y-132173D01*
X271663Y-131773D01*
X269664Y-130973D02*
X272063D01*
Y-129774D01*
X271663Y-129374D01*
X271263D01*
X270863Y-129774D01*
Y-130973D01*
Y-129774D01*
X270463Y-129374D01*
X270064D01*
X269664Y-129774D01*
Y-130973D01*
Y-124575D02*
Y-126175D01*
X272063D01*
Y-124575D01*
X270863Y-126175D02*
Y-125375D01*
X269664Y-123775D02*
X272063D01*
Y-122576D01*
X271663Y-122176D01*
X270064D01*
X269664Y-122576D01*
Y-123775D01*
X270064Y-119777D02*
X269664Y-120177D01*
Y-120976D01*
X270064Y-121376D01*
X271663D01*
X272063Y-120976D01*
Y-120177D01*
X271663Y-119777D01*
X270863D01*
Y-120577D01*
X269664Y-117378D02*
Y-118977D01*
X272063D01*
Y-117378D01*
X270863Y-118977D02*
Y-118177D01*
X313331Y-22819D02*
Y-25218D01*
X312131D01*
X311731Y-24818D01*
Y-24018D01*
X312131Y-23619D01*
X313331D01*
X309332Y-24818D02*
X309732Y-25218D01*
X310532D01*
X310931Y-24818D01*
Y-23219D01*
X310532Y-22819D01*
X309732D01*
X309332Y-23219D01*
X308532Y-25218D02*
Y-22819D01*
X307333D01*
X306933Y-23219D01*
Y-23619D01*
X307333Y-24018D01*
X308532D01*
X307333D01*
X306933Y-24418D01*
Y-24818D01*
X307333Y-25218D01*
X308532D01*
X302134D02*
X303734D01*
Y-22819D01*
X302134D01*
X303734Y-24018D02*
X302934D01*
X301335Y-25218D02*
Y-22819D01*
X300135D01*
X299735Y-23219D01*
Y-24818D01*
X300135Y-25218D01*
X301335D01*
X297336Y-24818D02*
X297736Y-25218D01*
X298535D01*
X298935Y-24818D01*
Y-23219D01*
X298535Y-22819D01*
X297736D01*
X297336Y-23219D01*
Y-24018D01*
X298136D01*
X294937Y-25218D02*
X296536D01*
Y-22819D01*
X294937D01*
X296536Y-24018D02*
X295736D01*
X489709Y-240142D02*
Y-242541D01*
X488509D01*
X488109Y-242141D01*
Y-241341D01*
X488509Y-240942D01*
X489709D01*
X485710Y-242141D02*
X486110Y-242541D01*
X486910D01*
X487309Y-242141D01*
Y-240542D01*
X486910Y-240142D01*
X486110D01*
X485710Y-240542D01*
X484910Y-242541D02*
Y-240142D01*
X483711D01*
X483311Y-240542D01*
Y-240942D01*
X483711Y-241341D01*
X484910D01*
X483711D01*
X483311Y-241741D01*
Y-242141D01*
X483711Y-242541D01*
X484910D01*
X478512D02*
X480112D01*
Y-240142D01*
X478512D01*
X480112Y-241341D02*
X479312D01*
X477713Y-242541D02*
Y-240142D01*
X476513D01*
X476113Y-240542D01*
Y-242141D01*
X476513Y-242541D01*
X477713D01*
X473714Y-242141D02*
X474114Y-242541D01*
X474914D01*
X475313Y-242141D01*
Y-240542D01*
X474914Y-240142D01*
X474114D01*
X473714Y-240542D01*
Y-241341D01*
X474514D01*
X471315Y-242541D02*
X472914D01*
Y-240142D01*
X471315D01*
X472914Y-241341D02*
X472114D01*
X355567Y-74819D02*
Y-72420D01*
X356767D01*
X357166Y-72820D01*
Y-73619D01*
X356767Y-74019D01*
X355567D01*
X359566Y-72820D02*
X359166Y-72420D01*
X358366D01*
X357966Y-72820D01*
Y-74419D01*
X358366Y-74819D01*
X359166D01*
X359566Y-74419D01*
X360365Y-72420D02*
Y-74819D01*
X361565D01*
X361965Y-74419D01*
Y-74019D01*
X361565Y-73619D01*
X360365D01*
X361565D01*
X361965Y-73219D01*
Y-72820D01*
X361565Y-72420D01*
X360365D01*
X366763D02*
X365164D01*
Y-74819D01*
X366763D01*
X365164Y-73619D02*
X365964D01*
X367563Y-72420D02*
Y-74819D01*
X368763D01*
X369163Y-74419D01*
Y-72820D01*
X368763Y-72420D01*
X367563D01*
X371562Y-72820D02*
X371162Y-72420D01*
X370362D01*
X369962Y-72820D01*
Y-74419D01*
X370362Y-74819D01*
X371162D01*
X371562Y-74419D01*
Y-73619D01*
X370762D01*
X373961Y-72420D02*
X372361D01*
Y-74819D01*
X373961D01*
X372361Y-73619D02*
X373161D01*
X313331Y-240142D02*
Y-242541D01*
X312131D01*
X311731Y-242141D01*
Y-241341D01*
X312131Y-240942D01*
X313331D01*
X309332Y-242141D02*
X309732Y-242541D01*
X310532D01*
X310931Y-242141D01*
Y-240542D01*
X310532Y-240142D01*
X309732D01*
X309332Y-240542D01*
X308532Y-242541D02*
Y-240142D01*
X307333D01*
X306933Y-240542D01*
Y-240942D01*
X307333Y-241341D01*
X308532D01*
X307333D01*
X306933Y-241741D01*
Y-242141D01*
X307333Y-242541D01*
X308532D01*
X302134D02*
X303734D01*
Y-240142D01*
X302134D01*
X303734Y-241341D02*
X302934D01*
X301335Y-242541D02*
Y-240142D01*
X300135D01*
X299735Y-240542D01*
Y-242141D01*
X300135Y-242541D01*
X301335D01*
X297336Y-242141D02*
X297736Y-242541D01*
X298535D01*
X298935Y-242141D01*
Y-240542D01*
X298535Y-240142D01*
X297736D01*
X297336Y-240542D01*
Y-241341D01*
X298136D01*
X294937Y-242541D02*
X296536D01*
Y-240142D01*
X294937D01*
X296536Y-241341D02*
X295736D01*
X356354Y-292142D02*
Y-289742D01*
X357554D01*
X357954Y-290142D01*
Y-290942D01*
X357554Y-291342D01*
X356354D01*
X360353Y-290142D02*
X359953Y-289742D01*
X359153D01*
X358753Y-290142D01*
Y-291742D01*
X359153Y-292142D01*
X359953D01*
X360353Y-291742D01*
X361153Y-289742D02*
Y-292142D01*
X362352D01*
X362752Y-291742D01*
Y-291342D01*
X362352Y-290942D01*
X361153D01*
X362352D01*
X362752Y-290542D01*
Y-290142D01*
X362352Y-289742D01*
X361153D01*
X367551D02*
X365951D01*
Y-292142D01*
X367551D01*
X365951Y-290942D02*
X366751D01*
X368350Y-289742D02*
Y-292142D01*
X369550D01*
X369950Y-291742D01*
Y-290142D01*
X369550Y-289742D01*
X368350D01*
X372349Y-290142D02*
X371949Y-289742D01*
X371149D01*
X370750Y-290142D01*
Y-291742D01*
X371149Y-292142D01*
X371949D01*
X372349Y-291742D01*
Y-290942D01*
X371549D01*
X374748Y-289742D02*
X373149D01*
Y-292142D01*
X374748D01*
X373149Y-290942D02*
X373949D01*
X490102Y-22819D02*
Y-25218D01*
X488903D01*
X488503Y-24818D01*
Y-24018D01*
X488903Y-23619D01*
X490102D01*
X486104Y-24818D02*
X486504Y-25218D01*
X487303D01*
X487703Y-24818D01*
Y-23219D01*
X487303Y-22819D01*
X486504D01*
X486104Y-23219D01*
X485304Y-25218D02*
Y-22819D01*
X484104D01*
X483704Y-23219D01*
Y-23619D01*
X484104Y-24018D01*
X485304D01*
X484104D01*
X483704Y-24418D01*
Y-24818D01*
X484104Y-25218D01*
X485304D01*
X478906D02*
X480506D01*
Y-22819D01*
X478906D01*
X480506Y-24018D02*
X479706D01*
X478106Y-25218D02*
Y-22819D01*
X476907D01*
X476507Y-23219D01*
Y-24818D01*
X476907Y-25218D01*
X478106D01*
X474108Y-24818D02*
X474507Y-25218D01*
X475307D01*
X475707Y-24818D01*
Y-23219D01*
X475307Y-22819D01*
X474507D01*
X474108Y-23219D01*
Y-24018D01*
X474907D01*
X471708Y-25218D02*
X473308D01*
Y-22819D01*
X471708D01*
X473308Y-24018D02*
X472508D01*
X178402Y-292142D02*
Y-289742D01*
X179601D01*
X180001Y-290142D01*
Y-290942D01*
X179601Y-291342D01*
X178402D01*
X182400Y-290142D02*
X182000Y-289742D01*
X181201D01*
X180801Y-290142D01*
Y-291742D01*
X181201Y-292142D01*
X182000D01*
X182400Y-291742D01*
X183200Y-289742D02*
Y-292142D01*
X184400D01*
X184800Y-291742D01*
Y-291342D01*
X184400Y-290942D01*
X183200D01*
X184400D01*
X184800Y-290542D01*
Y-290142D01*
X184400Y-289742D01*
X183200D01*
X189598D02*
X187998D01*
Y-292142D01*
X189598D01*
X187998Y-290942D02*
X188798D01*
X190398Y-289742D02*
Y-292142D01*
X191597D01*
X191997Y-291742D01*
Y-290142D01*
X191597Y-289742D01*
X190398D01*
X194396Y-290142D02*
X193997Y-289742D01*
X193197D01*
X192797Y-290142D01*
Y-291742D01*
X193197Y-292142D01*
X193997D01*
X194396Y-291742D01*
Y-290942D01*
X193597D01*
X196796Y-289742D02*
X195196D01*
Y-292142D01*
X196796D01*
X195196Y-290942D02*
X195996D01*
X178795Y-74819D02*
Y-72420D01*
X179995D01*
X180395Y-72820D01*
Y-73619D01*
X179995Y-74019D01*
X178795D01*
X182794Y-72820D02*
X182394Y-72420D01*
X181594D01*
X181194Y-72820D01*
Y-74419D01*
X181594Y-74819D01*
X182394D01*
X182794Y-74419D01*
X183594Y-72420D02*
Y-74819D01*
X184793D01*
X185193Y-74419D01*
Y-74019D01*
X184793Y-73619D01*
X183594D01*
X184793D01*
X185193Y-73219D01*
Y-72820D01*
X184793Y-72420D01*
X183594D01*
X189992D02*
X188392D01*
Y-74819D01*
X189992D01*
X188392Y-73619D02*
X189192D01*
X190791Y-72420D02*
Y-74819D01*
X191991D01*
X192391Y-74419D01*
Y-72820D01*
X191991Y-72420D01*
X190791D01*
X194790Y-72820D02*
X194390Y-72420D01*
X193590D01*
X193191Y-72820D01*
Y-74419D01*
X193590Y-74819D01*
X194390D01*
X194790Y-74419D01*
Y-73619D01*
X193990D01*
X197189Y-72420D02*
X195590D01*
Y-74819D01*
X197189D01*
X195590Y-73619D02*
X196390D01*
D14*
X118071Y-284892D02*
X144193D01*
X118071D02*
Y-247391D01*
X144193D01*
Y-284892D02*
Y-247391D01*
X-6398Y-30069D02*
X19724D01*
Y-67569D02*
Y-30069D01*
X-6398Y-67569D02*
X19724D01*
X-6398D02*
Y-30069D01*
X264813Y-196102D02*
Y-169980D01*
X227313Y-196102D02*
X264813D01*
X227313D02*
Y-169980D01*
X264813D01*
X118465Y-67569D02*
X144587D01*
X118465D02*
Y-30068D01*
X144587D01*
Y-67569D02*
Y-30068D01*
X315896Y-321752D02*
Y-295630D01*
X353396D01*
Y-321752D02*
Y-295630D01*
X315896Y-321752D02*
X353396D01*
X138337Y-322146D02*
Y-296024D01*
X175837D01*
Y-322146D02*
Y-296024D01*
X138337Y-322146D02*
X175837D01*
X315895Y6791D02*
X353395D01*
X315895Y-19330D02*
Y6791D01*
Y-19330D02*
X353395D01*
Y6791D01*
X138730Y7185D02*
X176230D01*
X138730Y-18937D02*
Y7185D01*
Y-18937D02*
X176230D01*
Y7185D01*
X-6791Y-284892D02*
Y-247392D01*
Y-284892D02*
X19330D01*
Y-247392D01*
X-6791D02*
X19330D01*
X227313Y-144193D02*
X264813D01*
Y-118071D01*
X227313D02*
X264813D01*
X227313Y-144193D02*
Y-118071D01*
X321752Y-67569D02*
Y-30068D01*
X295630D02*
X321752D01*
X295630Y-67569D02*
Y-30068D01*
Y-67569D02*
X321752D01*
X498130Y-284892D02*
Y-247391D01*
X472008D02*
X498130D01*
X472008Y-284892D02*
Y-247391D01*
Y-284892D02*
X498130D01*
X347146Y-67569D02*
Y-30069D01*
Y-67569D02*
X373267D01*
Y-30069D01*
X347146D02*
X373267D01*
X321752Y-284892D02*
Y-247391D01*
X295630D02*
X321752D01*
X295630Y-284892D02*
Y-247391D01*
Y-284892D02*
X321752D01*
X347933Y-284892D02*
Y-247392D01*
Y-284892D02*
X374055D01*
Y-247392D01*
X347933D02*
X374055D01*
X498524Y-67569D02*
Y-30068D01*
X472402D02*
X498524D01*
X472402Y-67569D02*
Y-30068D01*
Y-67569D02*
X498524D01*
X169980Y-284892D02*
Y-247392D01*
Y-284892D02*
X196102D01*
Y-247392D01*
X169980D02*
X196102D01*
X170374Y-67569D02*
Y-30069D01*
Y-67569D02*
X196496D01*
Y-30069D01*
X170374D02*
X196496D01*
D15*
X393898Y-77362D02*
Y-70669D01*
X390354Y-77362D02*
Y-70669D01*
X393898D01*
X390354Y-77362D02*
X393898D01*
X416732Y-75669D02*
X423425D01*
X416732Y-79449D02*
X423425D01*
X416732D02*
Y-75669D01*
X423425Y-79449D02*
Y-75669D01*
X399606Y-267717D02*
X406693D01*
X399606Y-263779D02*
X406693D01*
Y-267717D02*
Y-263779D01*
X399606Y-267717D02*
Y-263779D01*
X405512Y-238779D02*
Y-231693D01*
X401575Y-238779D02*
Y-231693D01*
X405512D01*
X401575Y-238779D02*
X405512D01*
X408465Y-259449D02*
Y-252362D01*
X404528Y-259449D02*
Y-252362D01*
X408465D01*
X404528Y-259449D02*
X408465D01*
X461024Y-268110D02*
X467717D01*
X461024Y-264567D02*
X467717D01*
Y-268110D02*
Y-264567D01*
X461024Y-268110D02*
Y-264567D01*
X445079Y-268898D02*
Y-264961D01*
X452165Y-268898D02*
Y-264961D01*
X445079D02*
X452165D01*
X445079Y-268898D02*
X452165D01*
X444095Y-259055D02*
Y-255118D01*
X451181Y-259055D02*
Y-255118D01*
X444095D02*
X451181D01*
X444095Y-259055D02*
X451181D01*
X379331Y-267913D02*
X386024D01*
X379331Y-264370D02*
X386024D01*
Y-267913D02*
Y-264370D01*
X379331Y-267913D02*
Y-264370D01*
X451378Y-251772D02*
X458071D01*
X451378Y-248228D02*
X458071D01*
Y-251772D02*
Y-248228D01*
X451378Y-251772D02*
Y-248228D01*
X36614Y-258760D02*
X40157D01*
X36614Y-252067D02*
X40157D01*
X36614Y-258760D02*
Y-252067D01*
X40157Y-258760D02*
Y-252067D01*
X266831Y-100197D02*
X273524D01*
X266831Y-96653D02*
X273524D01*
Y-100197D02*
Y-96653D01*
X266831Y-100197D02*
Y-96653D01*
X263976Y-68799D02*
Y-62106D01*
X267520Y-68799D02*
Y-62106D01*
X263976Y-68799D02*
X267520D01*
X263976Y-62106D02*
X267520D01*
X281004Y-47047D02*
X287697D01*
X281004Y-50591D02*
X287697D01*
X281004D02*
Y-47047D01*
X287697Y-50591D02*
Y-47047D01*
X244173Y-167126D02*
X247953D01*
X244173Y-160433D02*
X247953D01*
X244173Y-167126D02*
Y-160433D01*
X247953Y-167126D02*
Y-160433D01*
X239272Y-108071D02*
X245965D01*
X239272Y-104528D02*
X245965D01*
Y-108071D02*
Y-104528D01*
X239272Y-108071D02*
Y-104528D01*
X338386Y-268032D02*
X345079D01*
X338386Y-264252D02*
X345079D01*
Y-268032D02*
Y-264252D01*
X338386Y-268032D02*
Y-264252D01*
X324213Y-268032D02*
X330906D01*
X324213Y-264252D02*
X330906D01*
Y-268032D02*
Y-264252D01*
X324213Y-268032D02*
Y-264252D01*
X79921Y-229724D02*
X86614D01*
X79921Y-226181D02*
X86614D01*
Y-229724D02*
Y-226181D01*
X79921Y-229724D02*
Y-226181D01*
X102165Y-246850D02*
Y-240158D01*
X98622Y-246850D02*
Y-240158D01*
X102165D01*
X98622Y-246850D02*
X102165D01*
X27362Y-273524D02*
Y-266831D01*
X23819Y-273524D02*
Y-266831D01*
X27362D01*
X23819Y-273524D02*
X27362D01*
X31594Y-264843D02*
X38287D01*
X31594Y-268622D02*
X38287D01*
X31594D02*
Y-264843D01*
X38287Y-268622D02*
Y-264843D01*
X338386Y-50709D02*
X345079D01*
X338386Y-46929D02*
X345079D01*
Y-50709D02*
Y-46929D01*
X338386Y-50709D02*
Y-46929D01*
X324213Y-50709D02*
X330906D01*
X324213Y-46929D02*
X330906D01*
Y-50709D02*
Y-46929D01*
X324213Y-50709D02*
Y-46929D01*
X247953Y-152953D02*
Y-146260D01*
X244173Y-152953D02*
Y-146260D01*
X247953D01*
X244173Y-152953D02*
X247953D01*
X160827Y-268032D02*
X167520D01*
X160827Y-264252D02*
X167520D01*
Y-268032D02*
Y-264252D01*
X160827Y-268032D02*
Y-264252D01*
X146653Y-268032D02*
X153347D01*
X146653Y-264252D02*
X153347D01*
Y-268032D02*
Y-264252D01*
X146653Y-268032D02*
Y-264252D01*
X161221Y-50709D02*
Y-46929D01*
X167913Y-50709D02*
Y-46929D01*
X161221D02*
X167913D01*
X161221Y-50709D02*
X167913D01*
X147047D02*
Y-46929D01*
X153740Y-50709D02*
Y-46929D01*
X147047D02*
X153740D01*
X147047Y-50709D02*
X153740D01*
X81968Y-291535D02*
X85748D01*
X81968Y-284842D02*
X85748D01*
X81968Y-291535D02*
Y-284842D01*
X85748Y-291535D02*
Y-284842D01*
X78819Y-247047D02*
X82598D01*
X78819Y-240354D02*
X82598D01*
X78819Y-247047D02*
Y-240354D01*
X82598Y-247047D02*
Y-240354D01*
X53228Y-251575D02*
X57008D01*
X53228Y-258268D02*
X57008D01*
Y-251575D01*
X53228Y-258268D02*
Y-251575D01*
X63071Y-258268D02*
X66850D01*
X63071Y-251575D02*
X66850D01*
X63071Y-258268D02*
Y-251575D01*
X66850Y-258268D02*
Y-251575D01*
X93701Y-229449D02*
Y-225669D01*
X100394Y-229449D02*
Y-225669D01*
X93701D02*
X100394D01*
X93701Y-229449D02*
X100394D01*
X408543Y-238583D02*
X412323D01*
X408543Y-231890D02*
X412323D01*
X408543Y-238583D02*
Y-231890D01*
X412323Y-238583D02*
Y-231890D01*
X423425Y-72756D02*
Y-68976D01*
X416732Y-72756D02*
Y-68976D01*
Y-72756D02*
X423425D01*
X416732Y-68976D02*
X423425D01*
X432480Y-79449D02*
Y-75669D01*
X439173Y-79449D02*
Y-75669D01*
X432480D02*
X439173D01*
X432480Y-79449D02*
X439173D01*
X402835Y-70669D02*
X406614D01*
X402835Y-77362D02*
X406614D01*
Y-70669D01*
X402835Y-77362D02*
Y-70669D01*
X385630Y-90079D02*
Y-86299D01*
X392323Y-90079D02*
Y-86299D01*
X385630D02*
X392323D01*
X385630Y-90079D02*
X392323D01*
X267520Y-259370D02*
Y-255591D01*
X260827Y-259370D02*
Y-255591D01*
Y-259370D02*
X267520D01*
X260827Y-255591D02*
X267520D01*
X95256Y-51476D02*
X99035D01*
X95256Y-44783D02*
X99035D01*
X95256Y-51476D02*
Y-44783D01*
X99035Y-51476D02*
Y-44783D01*
X88071Y-44685D02*
X91850D01*
X88071Y-51378D02*
X91850D01*
Y-44685D01*
X88071Y-51378D02*
Y-44685D01*
X34445Y-44528D02*
Y-40748D01*
X41138Y-44528D02*
Y-40748D01*
X34445D02*
X41138D01*
X34445Y-44528D02*
X41138D01*
X47421Y-41732D02*
X51201D01*
X47421Y-48425D02*
X51201D01*
Y-41732D01*
X47421Y-48425D02*
Y-41732D01*
X48012Y-64862D02*
X51791D01*
X48012Y-71555D02*
X51791D01*
Y-64862D01*
X48012Y-71555D02*
Y-64862D01*
X63681Y-67244D02*
Y-63465D01*
X56988Y-67244D02*
Y-63465D01*
Y-67244D02*
X63681D01*
X56988Y-63465D02*
X63681D01*
X96260Y-76988D02*
Y-73209D01*
X89567Y-76988D02*
Y-73209D01*
Y-76988D02*
X96260D01*
X89567Y-73209D02*
X96260D01*
X106280Y-68110D02*
X110059D01*
X106280Y-74803D02*
X110059D01*
Y-68110D01*
X106280Y-74803D02*
Y-68110D01*
X47323Y-28445D02*
X51102D01*
X47323Y-35138D02*
X51102D01*
Y-28445D01*
X47323Y-35138D02*
Y-28445D01*
X64764Y-30531D02*
Y-26752D01*
X58071Y-30531D02*
Y-26752D01*
Y-30531D02*
X64764D01*
X58071Y-26752D02*
X64764D01*
X96949Y-38504D02*
Y-34724D01*
X90256Y-38504D02*
Y-34724D01*
Y-38504D02*
X96949D01*
X90256Y-34724D02*
X96949D01*
X109843Y-38504D02*
Y-34724D01*
X103150Y-38504D02*
Y-34724D01*
Y-38504D02*
X109843D01*
X103150Y-34724D02*
X109843D01*
X47913Y-78445D02*
X51693D01*
X47913Y-85138D02*
X51693D01*
Y-78445D01*
X47913Y-85138D02*
Y-78445D01*
X35138Y-81516D02*
Y-77736D01*
X41831Y-81516D02*
Y-77736D01*
X35138D02*
X41831D01*
X35138Y-81516D02*
X41831D01*
X87874Y-82185D02*
X91654D01*
X87874Y-88878D02*
X91654D01*
Y-82185D01*
X87874Y-88878D02*
Y-82185D01*
X95650Y-88779D02*
X99429D01*
X95650Y-82087D02*
X99429D01*
X95650Y-88779D02*
Y-82087D01*
X99429Y-88779D02*
Y-82087D01*
X64528Y-46543D02*
X76339D01*
X64528Y-34732D02*
X76339D01*
Y-46543D02*
Y-34732D01*
X64528Y-46543D02*
Y-34732D01*
X231102Y-277953D02*
X235039D01*
X231102Y-270866D02*
X235039D01*
X231102Y-277953D02*
Y-270866D01*
X235039Y-277953D02*
Y-270866D01*
X216197Y-278110D02*
X220134D01*
X216197Y-271024D02*
X220134D01*
X216197Y-278110D02*
Y-271024D01*
X220134Y-278110D02*
Y-271024D01*
X81890Y-279429D02*
X85827D01*
X81890Y-272342D02*
X85827D01*
X81890Y-279429D02*
Y-272342D01*
X85827Y-279429D02*
Y-272342D01*
X45669Y-268701D02*
Y-264764D01*
X52756Y-268701D02*
Y-264764D01*
X45669D02*
X52756D01*
X45669Y-268701D02*
X52756D01*
X251969Y-39469D02*
X255906D01*
X251969Y-46555D02*
X255906D01*
Y-39469D01*
X251969Y-46555D02*
Y-39469D01*
X257874Y-105413D02*
X261811D01*
X257874Y-98327D02*
X261811D01*
X257874Y-105413D02*
Y-98327D01*
X261811Y-105413D02*
Y-98327D01*
X218110Y-51181D02*
Y-47244D01*
X211024Y-51181D02*
Y-47244D01*
Y-51181D02*
X218110D01*
X211024Y-47244D02*
X218110D01*
X246161Y-62992D02*
Y-59055D01*
X239075Y-62992D02*
Y-59055D01*
Y-62992D02*
X246161D01*
X239075Y-59055D02*
X246161D01*
X251969Y-61910D02*
X255906D01*
X251969Y-68996D02*
X255906D01*
Y-61910D01*
X251969Y-68996D02*
Y-61910D01*
X244094Y-90650D02*
X248031D01*
X244094Y-83563D02*
X248031D01*
X244094Y-90650D02*
Y-83563D01*
X248031Y-90650D02*
Y-83563D01*
X245965Y-78740D02*
Y-74803D01*
X253051Y-78740D02*
Y-74803D01*
X245965D02*
X253051D01*
X245965Y-78740D02*
X253051D01*
X75787Y-30807D02*
Y-27264D01*
X82480Y-30807D02*
Y-27264D01*
X75787D02*
X82480D01*
X75787Y-30807D02*
X82480D01*
X65256Y-92027D02*
Y-88484D01*
X58563Y-92027D02*
Y-88484D01*
Y-92027D02*
X65256D01*
X58563Y-88484D02*
X65256D01*
X65354Y-53839D02*
Y-50295D01*
X58661Y-53839D02*
Y-50295D01*
Y-53839D02*
X65354D01*
X58661Y-50295D02*
X65354D01*
X75197Y-68012D02*
Y-64468D01*
X81890Y-68012D02*
Y-64468D01*
X75197D02*
X81890D01*
X75197Y-68012D02*
X81890D01*
X35039Y-66437D02*
Y-62894D01*
X41732Y-66437D02*
Y-62894D01*
X35039D02*
X41732D01*
X35039Y-66437D02*
X41732D01*
X106398Y-88779D02*
X109941D01*
X106398Y-82087D02*
X109941D01*
X106398Y-88779D02*
Y-82087D01*
X109941Y-88779D02*
Y-82087D01*
X34445Y-30409D02*
Y-26866D01*
X41138Y-30409D02*
Y-26866D01*
X34445D02*
X41138D01*
X34445Y-30409D02*
X41138D01*
X105020Y-51476D02*
X108563D01*
X105020Y-44783D02*
X108563D01*
X105020Y-51476D02*
Y-44783D01*
X108563Y-51476D02*
Y-44783D01*
X35138Y-74114D02*
Y-70571D01*
X41831Y-74114D02*
Y-70571D01*
X35138D02*
X41831D01*
X35138Y-74114D02*
X41831D01*
X96358Y-68996D02*
Y-65453D01*
X89665Y-68996D02*
Y-65453D01*
Y-68996D02*
X96358D01*
X89665Y-65453D02*
X96358D01*
X34445Y-37409D02*
Y-33866D01*
X41138Y-37409D02*
Y-33866D01*
X34445D02*
X41138D01*
X34445Y-37409D02*
X41138D01*
X97047Y-29232D02*
Y-25689D01*
X90354Y-29232D02*
Y-25689D01*
Y-29232D02*
X97047D01*
X90354Y-25689D02*
X97047D01*
X238386Y-223819D02*
X241929D01*
X238386Y-217126D02*
X241929D01*
X238386Y-223819D02*
Y-217126D01*
X241929Y-223819D02*
Y-217126D01*
X244291Y-252953D02*
X247835D01*
X244291Y-246260D02*
X247835D01*
X244291Y-252953D02*
Y-246260D01*
X247835Y-252953D02*
Y-246260D01*
X251378Y-236811D02*
X254921D01*
X251378Y-230118D02*
X254921D01*
X251378Y-236811D02*
Y-230118D01*
X254921Y-236811D02*
Y-230118D01*
X224606Y-277756D02*
X228150D01*
X224606Y-271063D02*
X228150D01*
X224606Y-277756D02*
Y-271063D01*
X228150Y-277756D02*
Y-271063D01*
X209394Y-277913D02*
X212937D01*
X209394Y-271220D02*
X212937D01*
X209394Y-277913D02*
Y-271220D01*
X212937Y-277913D02*
Y-271220D01*
X233661Y-267913D02*
Y-264370D01*
X240354Y-267913D02*
Y-264370D01*
X233661D02*
X240354D01*
X233661Y-267913D02*
X240354D01*
X218307D02*
Y-264370D01*
X225000Y-267913D02*
Y-264370D01*
X218307D02*
X225000D01*
X218307Y-267913D02*
X225000D01*
X203346D02*
Y-264370D01*
X210039Y-267913D02*
Y-264370D01*
X203346D02*
X210039D01*
X203346Y-267913D02*
X210039D01*
X461221Y-42028D02*
X464764D01*
X461221Y-48720D02*
X464764D01*
Y-42028D01*
X461221Y-48720D02*
Y-42028D01*
X380512Y-41929D02*
X384055D01*
X380512Y-48622D02*
X384055D01*
Y-41929D01*
X380512Y-48622D02*
Y-41929D01*
X439173Y-42028D02*
X442717D01*
X439173Y-48720D02*
X442717D01*
Y-42028D01*
X439173Y-48720D02*
Y-42028D01*
X455315Y-50591D02*
Y-47047D01*
X448622Y-50591D02*
Y-47047D01*
Y-50591D02*
X455315D01*
X448622Y-47047D02*
X455315D01*
X423032Y-56890D02*
X426575D01*
X423032Y-63583D02*
X426575D01*
Y-56890D01*
X423032Y-63583D02*
Y-56890D01*
X396654Y-50591D02*
Y-47047D01*
X389961Y-50591D02*
Y-47047D01*
Y-50591D02*
X396654D01*
X389961Y-47047D02*
X396654D01*
X413189Y-56890D02*
X416732D01*
X413189Y-63583D02*
X416732D01*
Y-56890D01*
X413189Y-63583D02*
Y-56890D01*
X439075Y-72244D02*
Y-68701D01*
X432382Y-72244D02*
Y-68701D01*
Y-72244D02*
X439075D01*
X432382Y-68701D02*
X439075D01*
Y-65158D02*
Y-61614D01*
X432382Y-65158D02*
Y-61614D01*
Y-65158D02*
X439075D01*
X432382Y-61614D02*
X439075D01*
X383661Y-77362D02*
X387205D01*
X383661Y-70669D02*
X387205D01*
X383661Y-77362D02*
Y-70669D01*
X387205Y-77362D02*
Y-70669D01*
X399705Y-89961D02*
Y-86417D01*
X406398Y-89961D02*
Y-86417D01*
X399705D02*
X406398D01*
X399705Y-89961D02*
X406398D01*
X390945Y-273031D02*
X394488D01*
X390945Y-266339D02*
X394488D01*
X390945Y-273031D02*
Y-266339D01*
X394488Y-273031D02*
Y-266339D01*
X400295Y-247835D02*
Y-244291D01*
X406988Y-247835D02*
Y-244291D01*
X400295D02*
X406988D01*
X400295Y-247835D02*
X406988D01*
X67520Y-291535D02*
X71063D01*
X67520Y-284842D02*
X71063D01*
X67520Y-291535D02*
Y-284842D01*
X71063Y-291535D02*
Y-284842D01*
X109252Y-267913D02*
Y-264370D01*
X102559Y-267913D02*
Y-264370D01*
Y-267913D02*
X109252D01*
X102559Y-264370D02*
X109252D01*
X67520Y-278248D02*
X71063D01*
X67520Y-271555D02*
X71063D01*
X67520Y-278248D02*
Y-271555D01*
X71063Y-278248D02*
Y-271555D01*
X65354Y-268504D02*
Y-264961D01*
X58661Y-268504D02*
Y-264961D01*
Y-268504D02*
X65354D01*
X58661Y-264961D02*
X65354D01*
X88287Y-246850D02*
X91831D01*
X88287Y-240158D02*
X91831D01*
X88287Y-246850D02*
Y-240158D01*
X91831Y-246850D02*
Y-240158D01*
X288287Y-100197D02*
Y-96653D01*
X281594Y-100197D02*
Y-96653D01*
Y-100197D02*
X288287D01*
X281594Y-96653D02*
X288287D01*
X202953Y-56004D02*
X206496D01*
X202953Y-49311D02*
X206496D01*
X202953Y-56004D02*
Y-49311D01*
X206496Y-56004D02*
Y-49311D01*
X222638Y-56004D02*
X226181D01*
X222638Y-49311D02*
X226181D01*
X222638Y-56004D02*
Y-49311D01*
X226181Y-56004D02*
Y-49311D01*
X246161Y-100197D02*
Y-96653D01*
X252854Y-100197D02*
Y-96653D01*
X246161D02*
X252854D01*
X246161Y-100197D02*
X252854D01*
X273721Y-70669D02*
Y-67126D01*
X280413Y-70669D02*
Y-67126D01*
X273721D02*
X280413D01*
X273721Y-70669D02*
X280413D01*
X245965D02*
Y-67126D01*
X239272Y-70669D02*
Y-67126D01*
Y-70669D02*
X245965D01*
X239272Y-67126D02*
X245965D01*
X272276Y-43865D02*
Y-40322D01*
X265583Y-43865D02*
Y-40322D01*
Y-43865D02*
X272276D01*
X265583Y-40322D02*
X272276D01*
X402756Y-55512D02*
Y-48425D01*
X406693Y-55512D02*
Y-48425D01*
X402756Y-55512D02*
X406693D01*
X402756Y-48425D02*
X406693D01*
X430315Y-48480D02*
X434252D01*
X430315Y-55567D02*
X434252D01*
Y-48480D01*
X430315Y-55567D02*
Y-48480D01*
D16*
X267285Y-47966D02*
X270617Y-51298D01*
X267285D02*
X270617Y-47966D01*
X267285Y-49632D02*
X270617D01*
X268951Y-51298D02*
Y-47966D01*
X81174Y-87550D02*
X77842Y-84218D01*
X81174D02*
X77842Y-87550D01*
X81174Y-85884D02*
X77842D01*
X79508Y-84218D02*
Y-87550D01*
X246522Y-233427D02*
X243190Y-236759D01*
Y-233427D02*
X246522Y-236759D01*
X244856Y-233427D02*
Y-236759D01*
X243190Y-235093D02*
X246522D01*
D121*
X268485Y-46831D02*
X268836Y-47680D01*
X269685Y-48031D01*
X270534Y-47680D01*
X270885Y-46831D01*
X71574Y-84446D02*
X71223Y-83598D01*
X70374Y-83246D01*
X69525Y-83598D01*
X69174Y-84446D01*
X247657Y-234627D02*
X246809Y-234978D01*
X246457Y-235827D01*
X246809Y-236675D01*
X247657Y-237027D01*
X244076Y-51772D02*
X243476D01*
X244076D01*
D122*
X136772Y-293642D02*
Y-238642D01*
X1024Y-76319D02*
Y-21319D01*
X218563Y-177402D02*
X273563D01*
X137165Y-76319D02*
Y-21319D01*
X307146Y-314331D02*
X362146D01*
X129587Y-314724D02*
X184587D01*
X307146Y-630D02*
X362146D01*
X129980Y-236D02*
X184980D01*
X630Y-293642D02*
Y-238642D01*
X218563Y-136772D02*
X273563D01*
X314331Y-76319D02*
Y-21319D01*
X490709Y-293642D02*
Y-238642D01*
X354567Y-76319D02*
Y-21319D01*
X314331Y-293642D02*
Y-238642D01*
X355354Y-293642D02*
Y-238642D01*
X491102Y-76319D02*
Y-21319D01*
X177402Y-293642D02*
Y-238642D01*
X177795Y-76319D02*
Y-21319D01*
D123*
X418898Y-278937D02*
Y-252559D01*
X433465Y-278937D02*
Y-252559D01*
X418898D02*
X433465D01*
X418898Y-278937D02*
X433465D01*
X438976Y-285335D02*
X444488D01*
X438976Y-293799D02*
X444488D01*
Y-285335D01*
X438976Y-293799D02*
Y-285335D01*
X450492Y-244882D02*
X458957D01*
X450492Y-239370D02*
X458957D01*
Y-244882D02*
Y-239370D01*
X450492Y-244882D02*
Y-239370D01*
X76476Y-97638D02*
X84941D01*
X76476Y-103150D02*
X84941D01*
X76476D02*
Y-97638D01*
X84941Y-103150D02*
Y-97638D01*
X254685Y-30490D02*
X284685D01*
X254685D02*
Y-20691D01*
X284685D01*
Y-30490D02*
Y-20691D01*
X78937Y-218406D02*
X87402D01*
X78937Y-223917D02*
X87402D01*
X78937D02*
Y-218406D01*
X87402Y-223917D02*
Y-218406D01*
X71614Y-209624D02*
Y-199825D01*
Y-209624D02*
X101614D01*
Y-199825D01*
X71614D02*
X101614D01*
X417323Y-38976D02*
X422835D01*
X417323Y-50787D02*
X422835D01*
X417323D02*
Y-38976D01*
X422835Y-50787D02*
Y-38976D01*
X42520Y-282776D02*
X48031D01*
X42520Y-274311D02*
X48031D01*
X42520Y-282776D02*
Y-274311D01*
X48031Y-282776D02*
Y-274311D01*
X45276Y-100591D02*
Y-95079D01*
X36811Y-100591D02*
Y-95079D01*
Y-100591D02*
X45276D01*
X36811Y-95079D02*
X45276D01*
X398917Y-98819D02*
Y-93307D01*
X407382Y-98819D02*
Y-93307D01*
X398917D02*
X407382D01*
X398917Y-98819D02*
X407382D01*
X79429Y-267913D02*
Y-259252D01*
X73917Y-267913D02*
Y-259252D01*
Y-267913D02*
X79429D01*
X73917Y-259252D02*
X79429D01*
X398721Y-221654D02*
X407185D01*
X398721Y-227165D02*
X407185D01*
X398721D02*
Y-221654D01*
X407185Y-227165D02*
Y-221654D01*
D124*
X267035Y-49222D02*
Y-48022D01*
X265335D02*
X267035D01*
X265335Y-49222D02*
Y-48022D01*
Y-49222D02*
X267035D01*
Y-51781D02*
Y-50581D01*
X265335D02*
X267035D01*
X265335Y-51781D02*
Y-50581D01*
Y-51781D02*
X267035D01*
Y-54340D02*
Y-53140D01*
X265335D02*
X267035D01*
X265335Y-54340D02*
Y-53140D01*
Y-54340D02*
X267035D01*
X272335D02*
Y-53140D01*
Y-54340D02*
X274035D01*
Y-53140D01*
X272335D02*
X274035D01*
X272335Y-51781D02*
Y-50581D01*
Y-51781D02*
X274035D01*
Y-50581D01*
X272335D02*
X274035D01*
X272335Y-49222D02*
Y-48022D01*
Y-49222D02*
X274035D01*
Y-48022D01*
X272335D02*
X274035D01*
X267035Y-55531D02*
X272335D01*
Y-46831D01*
X267035D02*
X272335D01*
X267035Y-55531D02*
Y-46831D01*
X76474Y-82935D02*
Y-81435D01*
Y-82935D02*
X80324D01*
Y-81435D01*
X76474D02*
X80324D01*
X76474Y-80376D02*
Y-78876D01*
Y-80376D02*
X80324D01*
Y-78876D01*
X76474D02*
X80324D01*
X76474Y-77817D02*
Y-76317D01*
Y-77817D02*
X80324D01*
Y-76317D01*
X76474D02*
X80324D01*
X76474Y-75258D02*
Y-73758D01*
Y-75258D02*
X80324D01*
Y-73758D01*
X76474D02*
X80324D01*
X64274Y-75258D02*
Y-73758D01*
X60424D02*
X64274D01*
X60424Y-75258D02*
Y-73758D01*
Y-75258D02*
X64274D01*
Y-77817D02*
Y-76317D01*
X60424D02*
X64274D01*
X60424Y-77817D02*
Y-76317D01*
Y-77817D02*
X64274D01*
Y-80376D02*
Y-78876D01*
X60424D02*
X64274D01*
X60424Y-80376D02*
Y-78876D01*
Y-80376D02*
X64274D01*
Y-82935D02*
Y-81435D01*
X60424D02*
X64274D01*
X60424Y-82935D02*
Y-81435D01*
Y-82935D02*
X64274D01*
Y-72246D02*
X76474D01*
X64274Y-84446D02*
Y-72246D01*
Y-84446D02*
X76474D01*
Y-72246D01*
X238957Y-233177D02*
X247657D01*
Y-238477D02*
Y-233177D01*
X238957Y-238477D02*
X247657D01*
X238957D02*
Y-233177D01*
X246466Y-240177D02*
Y-238477D01*
X245266Y-240177D02*
X246466D01*
X245266D02*
Y-238477D01*
X246466D01*
X243907Y-240177D02*
Y-238477D01*
X242707Y-240177D02*
X243907D01*
X242707D02*
Y-238477D01*
X243907D01*
X241348Y-240177D02*
Y-238477D01*
X240148Y-240177D02*
X241348D01*
X240148D02*
Y-238477D01*
X241348D01*
X240148Y-233177D02*
Y-231477D01*
X241348D01*
Y-233177D02*
Y-231477D01*
X240148Y-233177D02*
X241348D01*
X242707D02*
Y-231477D01*
X243907D01*
Y-233177D02*
Y-231477D01*
X242707Y-233177D02*
X243907D01*
X245266D02*
Y-231477D01*
X246466D01*
Y-233177D02*
Y-231477D01*
X245266Y-233177D02*
X246466D01*
X248315Y-265285D02*
X255015D01*
X248315D02*
Y-261785D01*
X255015D01*
Y-265285D02*
Y-261785D01*
X248315Y-264285D02*
X249315Y-265285D01*
X239476Y-53563D02*
X244776D01*
X239476D02*
Y-44863D01*
X244776D01*
Y-53563D02*
Y-44863D01*
X237776Y-50013D02*
X239476D01*
X237776D02*
Y-48413D01*
X239476D01*
Y-50013D02*
Y-48413D01*
X244776Y-45854D02*
X246476D01*
Y-47454D02*
Y-45854D01*
X244776Y-47454D02*
X246476D01*
X244776D02*
Y-45854D01*
Y-50972D02*
X246476D01*
Y-52572D02*
Y-50972D01*
X244776Y-52572D02*
X246476D01*
X244776D02*
Y-50972D01*
M02*
