G04*
G04 #@! TF.GenerationSoftware,Altium Limited,Altium Designer,21.4.1 (30)*
G04*
G04 Layer_Color=16711935*
%FSLAX25Y25*%
%MOIN*%
G70*
G04*
G04 #@! TF.SameCoordinates,4F7A37CA-CC0D-4B0B-ADC5-D258E3024ECD*
G04*
G04*
G04 #@! TF.FilePolarity,Positive*
G04*
G01*
G75*
%ADD120C,0.00098*%
D120*
X201181Y-156693D02*
X200637Y-155944D01*
X199757Y-156230D01*
Y-157156D01*
X200637Y-157442D01*
X201181Y-156693D01*
X204528D02*
X204407Y-155704D01*
X204054Y-154772D01*
X203488Y-153952D01*
X202742Y-153291D01*
X201860Y-152828D01*
X200892Y-152589D01*
X199895D01*
X198928Y-152828D01*
X198045Y-153291D01*
X197300Y-153952D01*
X196733Y-154772D01*
X196380Y-155704D01*
X196260Y-156693D01*
X196380Y-157682D01*
X196733Y-158614D01*
X197300Y-159434D01*
X198045Y-160095D01*
X198928Y-160558D01*
X199895Y-160797D01*
X200892D01*
X201860Y-160558D01*
X202742Y-160095D01*
X203488Y-159434D01*
X204054Y-158614D01*
X204407Y-157682D01*
X204528Y-156693D01*
X207480D02*
X207411Y-155707D01*
X207206Y-154740D01*
X206868Y-153811D01*
X206403Y-152938D01*
X205822Y-152138D01*
X205136Y-151426D01*
X204357Y-150818D01*
X203500Y-150323D01*
X202584Y-149953D01*
X201624Y-149714D01*
X200641Y-149611D01*
X199653Y-149645D01*
X198679Y-149817D01*
X197739Y-150122D01*
X196850Y-150556D01*
X196031Y-151109D01*
X195296Y-151770D01*
X194660Y-152527D01*
X194137Y-153366D01*
X193735Y-154269D01*
X193462Y-155219D01*
X193324Y-156199D01*
Y-157187D01*
X193462Y-158166D01*
X193735Y-159117D01*
X194137Y-160020D01*
X194660Y-160858D01*
X195296Y-161616D01*
X196031Y-162277D01*
X196850Y-162830D01*
X197739Y-163263D01*
X198679Y-163569D01*
X199653Y-163741D01*
X200641Y-163775D01*
X201624Y-163672D01*
X202584Y-163433D01*
X203500Y-163062D01*
X204357Y-162568D01*
X205136Y-161959D01*
X205822Y-161248D01*
X206403Y-160448D01*
X206868Y-159575D01*
X207206Y-158646D01*
X207411Y-157679D01*
X207480Y-156693D01*
M02*
