G04*
G04 #@! TF.GenerationSoftware,Altium Limited,Altium Designer,21.4.1 (30)*
G04*
G04 Layer_Physical_Order=4*
G04 Layer_Color=16711680*
%FSLAX25Y25*%
%MOIN*%
G70*
G04*
G04 #@! TF.SameCoordinates,4F7A37CA-CC0D-4B0B-ADC5-D258E3024ECD*
G04*
G04*
G04 #@! TF.FilePolarity,Positive*
G04*
G01*
G75*
%ADD21R,0.16535X0.07874*%
%ADD28R,0.07874X0.16535*%
%ADD58C,0.01450*%
%ADD104C,0.05906*%
%ADD105R,0.05906X0.05906*%
%ADD106R,0.06024X0.06024*%
%ADD107C,0.06024*%
%ADD108C,0.09843*%
%ADD109C,0.02362*%
%ADD110C,0.03937*%
%ADD111C,0.13780*%
G36*
X136221Y-1575D02*
X140339D01*
Y-9252D01*
X145276D01*
X150213D01*
Y-1575D01*
X164748D01*
Y-9252D01*
X174622D01*
Y-1575D01*
X180315D01*
Y-1732D01*
X313032D01*
Y-1969D01*
X317504D01*
Y-9646D01*
X322441D01*
X327378D01*
Y-1969D01*
X341913D01*
Y-9646D01*
X351787D01*
Y-1969D01*
X356299D01*
Y-1772D01*
X490158D01*
Y-31677D01*
X482087D01*
Y-36614D01*
Y-41551D01*
X490158D01*
Y-56087D01*
X482087D01*
Y-61024D01*
Y-65961D01*
X490158D01*
Y-134449D01*
X490158D01*
Y-178937D01*
X490158D01*
Y-248575D01*
X489976Y-249000D01*
X489657Y-249000D01*
X481693D01*
Y-253937D01*
Y-258874D01*
X489657D01*
X489976Y-258874D01*
X490158Y-259299D01*
Y-272985D01*
X489976Y-273409D01*
X489657Y-273409D01*
X481693D01*
Y-278346D01*
Y-283283D01*
X489657D01*
X489976Y-283283D01*
X490158Y-283708D01*
Y-312795D01*
X356299D01*
Y-312598D01*
X351787D01*
Y-305315D01*
X341913D01*
Y-312598D01*
X327378D01*
Y-305315D01*
X322441D01*
X317504D01*
Y-312598D01*
X312953D01*
Y-312638D01*
X179095D01*
Y-312598D01*
X174228D01*
Y-305709D01*
X164354D01*
Y-312598D01*
X149819D01*
Y-305709D01*
X144882D01*
X139945D01*
Y-312598D01*
X135827D01*
Y-312992D01*
X1969D01*
Y-283283D01*
X9646D01*
Y-278346D01*
Y-273409D01*
X1969D01*
Y-258874D01*
X9646D01*
Y-253937D01*
Y-249000D01*
X1969D01*
Y-180315D01*
X1969D01*
Y-133858D01*
X2362D01*
Y-65961D01*
X10039D01*
Y-61024D01*
Y-56087D01*
X2362D01*
Y-41551D01*
X10039D01*
Y-36614D01*
Y-31677D01*
X2362D01*
Y-1476D01*
X136221D01*
Y-1575D01*
D02*
G37*
%LPC*%
G36*
X86578Y-16694D02*
X81049D01*
X80919Y-16720D01*
X80787Y-16711D01*
X80538Y-16795D01*
X80281Y-16847D01*
X80170Y-16920D01*
X80045Y-16963D01*
X79637Y-17198D01*
X79146Y-17330D01*
X78638D01*
X78147Y-17198D01*
X77739Y-16963D01*
X77614Y-16920D01*
X77503Y-16847D01*
X77246Y-16795D01*
X76997Y-16711D01*
X76865Y-16720D01*
X76735Y-16694D01*
X71206D01*
X71076Y-16720D01*
X70944Y-16711D01*
X70695Y-16795D01*
X70438Y-16847D01*
X70328Y-16920D01*
X70202Y-16963D01*
X69794Y-17198D01*
X69304Y-17330D01*
X68795D01*
X68305Y-17198D01*
X67896Y-16963D01*
X67771Y-16920D01*
X67661Y-16847D01*
X67403Y-16795D01*
X67155Y-16711D01*
X67023Y-16720D01*
X66893Y-16694D01*
X61364D01*
X61234Y-16720D01*
X61102Y-16711D01*
X60853Y-16795D01*
X60595Y-16847D01*
X60485Y-16920D01*
X60360Y-16963D01*
X59952Y-17198D01*
X59461Y-17330D01*
X58953D01*
X58462Y-17198D01*
X58054Y-16963D01*
X57929Y-16920D01*
X57818Y-16847D01*
X57561Y-16795D01*
X57312Y-16711D01*
X57180Y-16720D01*
X57050Y-16694D01*
X51521D01*
X51391Y-16720D01*
X51259Y-16711D01*
X51010Y-16795D01*
X50753Y-16847D01*
X50643Y-16920D01*
X50517Y-16963D01*
X50109Y-17198D01*
X49619Y-17330D01*
X49110D01*
X48619Y-17198D01*
X48211Y-16963D01*
X48086Y-16920D01*
X47976Y-16847D01*
X47718Y-16795D01*
X47470Y-16711D01*
X47338Y-16720D01*
X47208Y-16694D01*
X45276D01*
X45166Y-16716D01*
X45054Y-16706D01*
X44785Y-16791D01*
X44508Y-16847D01*
X44414Y-16909D01*
X44307Y-16943D01*
X44091Y-17125D01*
X43856Y-17282D01*
X43794Y-17375D01*
X43708Y-17447D01*
X38787Y-23599D01*
X38657Y-23849D01*
X38500Y-24084D01*
X38478Y-24194D01*
X38427Y-24294D01*
X38402Y-24575D01*
X38347Y-24852D01*
Y-106283D01*
X36260D01*
Y-110236D01*
Y-114189D01*
X38350D01*
X38500Y-114941D01*
X38935Y-115592D01*
X39586Y-116027D01*
X40354Y-116180D01*
X43189D01*
X43319Y-116155D01*
X43451Y-116163D01*
X43700Y-116079D01*
X43957Y-116027D01*
X44067Y-115954D01*
X44193Y-115911D01*
X44390Y-115738D01*
X44608Y-115592D01*
X44682Y-115482D01*
X44782Y-115395D01*
X44898Y-115160D01*
X45008Y-114994D01*
X45276Y-114966D01*
X45543Y-114994D01*
X45654Y-115160D01*
X45770Y-115395D01*
X45869Y-115482D01*
X45943Y-115592D01*
X46161Y-115738D01*
X46358Y-115911D01*
X46484Y-115954D01*
X46594Y-116027D01*
X46852Y-116079D01*
X47100Y-116163D01*
X47232Y-116155D01*
X47362Y-116180D01*
X50197D01*
X50965Y-116027D01*
X51616Y-115592D01*
X52051Y-114941D01*
X52204Y-114173D01*
Y-113408D01*
X52666Y-113216D01*
X52849Y-113399D01*
X53750Y-113920D01*
X54291Y-114065D01*
Y-110236D01*
Y-106408D01*
X53750Y-106553D01*
X52849Y-107073D01*
X52666Y-107256D01*
X52204Y-107065D01*
Y-106146D01*
X56537Y-101813D01*
X56972Y-101162D01*
X57125Y-100394D01*
Y-88189D01*
X86703D01*
Y-108644D01*
X86203Y-108711D01*
X85683Y-107809D01*
X84947Y-107073D01*
X84045Y-106553D01*
X83504Y-106408D01*
Y-110236D01*
Y-114065D01*
X84045Y-113920D01*
X84947Y-113399D01*
X85683Y-112663D01*
X86203Y-111762D01*
X86703Y-111828D01*
Y-114173D01*
X86861Y-114556D01*
X87244Y-114714D01*
X90433D01*
X90564Y-114660D01*
X90704Y-114642D01*
X90748Y-114584D01*
X90816Y-114556D01*
X90870Y-114425D01*
X90956Y-114313D01*
X91066Y-113904D01*
X91090Y-113813D01*
X91474Y-113581D01*
X91575Y-113558D01*
X92065Y-113689D01*
X92974D01*
X93465Y-113558D01*
X93565Y-113581D01*
X93949Y-113813D01*
X93974Y-113904D01*
X94083Y-114313D01*
X94169Y-114425D01*
X94223Y-114556D01*
X94291Y-114584D01*
X94336Y-114642D01*
X94476Y-114660D01*
X94606Y-114714D01*
X97441D01*
X97824Y-114556D01*
X97982Y-114173D01*
Y-62008D01*
X97824Y-61625D01*
X97824Y-61625D01*
X86354Y-50156D01*
X86561Y-49656D01*
X87067D01*
Y-35755D01*
X90551D01*
X91319Y-35602D01*
X91970Y-35167D01*
X92405Y-34516D01*
X92558Y-33748D01*
Y-20669D01*
X92405Y-19901D01*
X91970Y-19250D01*
X90638Y-17918D01*
X89987Y-17483D01*
X89219Y-17330D01*
X88480D01*
X87989Y-17198D01*
X87581Y-16963D01*
X87456Y-16920D01*
X87346Y-16847D01*
X87089Y-16795D01*
X86840Y-16711D01*
X86708Y-16720D01*
X86578Y-16694D01*
D02*
G37*
G36*
X174622Y-11220D02*
X170669D01*
Y-19504D01*
X174622D01*
Y-11220D01*
D02*
G37*
G36*
X168701D02*
X164748D01*
Y-19504D01*
X168701D01*
Y-11220D01*
D02*
G37*
G36*
X150213Y-11220D02*
X146260D01*
Y-19504D01*
X150213D01*
Y-11220D01*
D02*
G37*
G36*
X144291D02*
X140339D01*
Y-19504D01*
X144291D01*
Y-11220D01*
D02*
G37*
G36*
X351787Y-11614D02*
X347835D01*
Y-19898D01*
X351787D01*
Y-11614D01*
D02*
G37*
G36*
X345866D02*
X341913D01*
Y-19898D01*
X345866D01*
Y-11614D01*
D02*
G37*
G36*
X327378D02*
X323425D01*
Y-19898D01*
X327378D01*
Y-11614D01*
D02*
G37*
G36*
X321457D02*
X317504D01*
Y-19898D01*
X321457D01*
Y-11614D01*
D02*
G37*
G36*
X280669Y-21701D02*
Y-24606D01*
X283575D01*
X283423Y-24042D01*
X282895Y-23127D01*
X282148Y-22380D01*
X281234Y-21852D01*
X280669Y-21701D01*
D02*
G37*
G36*
X263697Y-21579D02*
X260669D01*
Y-24606D01*
X263697D01*
Y-21579D01*
D02*
G37*
G36*
X278701Y-21701D02*
X278136Y-21852D01*
X277222Y-22380D01*
X276475Y-23127D01*
X275947Y-24042D01*
X275795Y-24606D01*
X278701D01*
Y-21701D01*
D02*
G37*
G36*
X258701Y-21579D02*
X255673D01*
Y-24606D01*
X258701D01*
Y-21579D01*
D02*
G37*
G36*
X270147Y-22079D02*
X269223D01*
X268330Y-22318D01*
X267529Y-22780D01*
X266875Y-23434D01*
X266413Y-24235D01*
X266173Y-25128D01*
Y-26053D01*
X266413Y-26946D01*
X266875Y-27747D01*
X267529Y-28401D01*
X268330Y-28863D01*
X269223Y-29102D01*
X270147D01*
X271041Y-28863D01*
X271841Y-28401D01*
X272495Y-27747D01*
X272957Y-26946D01*
X273197Y-26053D01*
Y-25128D01*
X272957Y-24235D01*
X272495Y-23434D01*
X271841Y-22780D01*
X271041Y-22318D01*
X270147Y-22079D01*
D02*
G37*
G36*
X283575Y-26575D02*
X280669D01*
Y-29480D01*
X281234Y-29329D01*
X282148Y-28801D01*
X282895Y-28054D01*
X283423Y-27139D01*
X283575Y-26575D01*
D02*
G37*
G36*
X278701D02*
X275795D01*
X275947Y-27139D01*
X276475Y-28054D01*
X277222Y-28801D01*
X278136Y-29329D01*
X278701Y-29480D01*
Y-26575D01*
D02*
G37*
G36*
X263697D02*
X260669D01*
Y-29602D01*
X263697D01*
Y-26575D01*
D02*
G37*
G36*
X258701D02*
X255673D01*
Y-29602D01*
X258701D01*
Y-26575D01*
D02*
G37*
G36*
X480118Y-31677D02*
X471835D01*
Y-35630D01*
X480118D01*
Y-31677D01*
D02*
G37*
G36*
X20291D02*
X12008D01*
Y-35630D01*
X20291D01*
Y-31677D01*
D02*
G37*
G36*
X197063D02*
X188780D01*
Y-35630D01*
X197063D01*
Y-31677D01*
D02*
G37*
G36*
X186811D02*
X178528D01*
Y-35630D01*
X186811D01*
Y-31677D01*
D02*
G37*
G36*
X313598D02*
X305315D01*
Y-35630D01*
X313598D01*
Y-31677D01*
D02*
G37*
G36*
X136433D02*
X128150D01*
Y-35630D01*
X136433D01*
Y-31677D01*
D02*
G37*
G36*
X303346D02*
X295063D01*
Y-35630D01*
X303346D01*
Y-31677D01*
D02*
G37*
G36*
X126181D02*
X117898D01*
Y-35630D01*
X126181D01*
Y-31677D01*
D02*
G37*
G36*
X373835D02*
X365551D01*
Y-35630D01*
X373835D01*
Y-31677D01*
D02*
G37*
G36*
X363583D02*
X355299D01*
Y-35630D01*
X363583D01*
Y-31677D01*
D02*
G37*
G36*
X480118Y-37598D02*
X471835D01*
Y-41551D01*
X480118D01*
Y-37598D01*
D02*
G37*
G36*
X373835Y-37598D02*
X365551D01*
Y-41551D01*
X373835D01*
Y-37598D01*
D02*
G37*
G36*
X363583D02*
X355299D01*
Y-41551D01*
X363583D01*
Y-37598D01*
D02*
G37*
G36*
X313598Y-37598D02*
X305315D01*
Y-41551D01*
X313598D01*
Y-37598D01*
D02*
G37*
G36*
X303346D02*
X295063D01*
Y-41551D01*
X303346D01*
Y-37598D01*
D02*
G37*
G36*
X197063Y-37598D02*
X188780D01*
Y-41551D01*
X197063D01*
Y-37598D01*
D02*
G37*
G36*
X186811D02*
X178528D01*
Y-41551D01*
X186811D01*
Y-37598D01*
D02*
G37*
G36*
X136433Y-37598D02*
X128150D01*
Y-41551D01*
X136433D01*
Y-37598D01*
D02*
G37*
G36*
X126181D02*
X117898D01*
Y-41551D01*
X126181D01*
Y-37598D01*
D02*
G37*
G36*
X20291Y-37598D02*
X12008D01*
Y-41551D01*
X20291D01*
Y-37598D01*
D02*
G37*
G36*
X373835Y-56087D02*
X365551D01*
Y-60039D01*
X373835D01*
Y-56087D01*
D02*
G37*
G36*
X363583D02*
X355299D01*
Y-60039D01*
X363583D01*
Y-56087D01*
D02*
G37*
G36*
X313598D02*
X305315D01*
Y-60039D01*
X313598D01*
Y-56087D01*
D02*
G37*
G36*
X136433D02*
X128150D01*
Y-60039D01*
X136433D01*
Y-56087D01*
D02*
G37*
G36*
X303346D02*
X295063D01*
Y-60039D01*
X303346D01*
Y-56087D01*
D02*
G37*
G36*
X126181D02*
X117898D01*
Y-60039D01*
X126181D01*
Y-56087D01*
D02*
G37*
G36*
X197063D02*
X188779D01*
Y-60039D01*
X197063D01*
Y-56087D01*
D02*
G37*
G36*
X186811D02*
X178528D01*
Y-60039D01*
X186811D01*
Y-56087D01*
D02*
G37*
G36*
X20291D02*
X12008D01*
Y-60039D01*
X20291D01*
Y-56087D01*
D02*
G37*
G36*
X480118D02*
X471835D01*
Y-60039D01*
X480118D01*
Y-56087D01*
D02*
G37*
G36*
Y-62008D02*
X471835D01*
Y-65961D01*
X480118D01*
Y-62008D01*
D02*
G37*
G36*
X373835Y-62008D02*
X365551D01*
Y-65961D01*
X373835D01*
Y-62008D01*
D02*
G37*
G36*
X363583D02*
X355299D01*
Y-65961D01*
X363583D01*
Y-62008D01*
D02*
G37*
G36*
X313598Y-62008D02*
X305315D01*
Y-65961D01*
X313598D01*
Y-62008D01*
D02*
G37*
G36*
X303346D02*
X295063D01*
Y-65961D01*
X303346D01*
Y-62008D01*
D02*
G37*
G36*
X197063Y-62008D02*
X188779D01*
Y-65961D01*
X197063D01*
Y-62008D01*
D02*
G37*
G36*
X186811D02*
X178528D01*
Y-65961D01*
X186811D01*
Y-62008D01*
D02*
G37*
G36*
X136433Y-62008D02*
X128150D01*
Y-65961D01*
X136433D01*
Y-62008D01*
D02*
G37*
G36*
X126181D02*
X117898D01*
Y-65961D01*
X126181D01*
Y-62008D01*
D02*
G37*
G36*
X20291Y-62008D02*
X12008D01*
Y-65961D01*
X20291D01*
Y-62008D01*
D02*
G37*
G36*
X254271Y-51468D02*
X253603D01*
X252985Y-51724D01*
X252512Y-52197D01*
X252256Y-52815D01*
Y-53484D01*
X252512Y-54102D01*
X252688Y-54278D01*
Y-74803D01*
X252688Y-74803D01*
X252783Y-75281D01*
X253054Y-75686D01*
X275878Y-98510D01*
Y-98760D01*
X276134Y-99378D01*
X276607Y-99850D01*
X277225Y-100106D01*
X277893D01*
X278511Y-99850D01*
X278984Y-99378D01*
X279240Y-98760D01*
Y-98091D01*
X278984Y-97473D01*
X278511Y-97000D01*
X277893Y-96744D01*
X277644D01*
X255186Y-74286D01*
Y-54278D01*
X255362Y-54102D01*
X255618Y-53484D01*
Y-52815D01*
X255362Y-52197D01*
X254889Y-51724D01*
X254271Y-51468D01*
D02*
G37*
G36*
X410591Y-102274D02*
Y-105118D01*
X413435D01*
X413290Y-104577D01*
X412769Y-103675D01*
X412033Y-102939D01*
X411132Y-102419D01*
X410591Y-102274D01*
D02*
G37*
G36*
X408622D02*
X408081Y-102419D01*
X407179Y-102939D01*
X406443Y-103675D01*
X405923Y-104577D01*
X405778Y-105118D01*
X408622D01*
Y-102274D01*
D02*
G37*
G36*
X393559Y-102150D02*
X390591D01*
Y-105118D01*
X393559D01*
Y-102150D01*
D02*
G37*
G36*
X388622D02*
X385653D01*
Y-105118D01*
X388622D01*
Y-102150D01*
D02*
G37*
G36*
X56260Y-106408D02*
Y-109252D01*
X59104D01*
X58959Y-108711D01*
X58439Y-107809D01*
X57703Y-107073D01*
X56801Y-106553D01*
X56260Y-106408D01*
D02*
G37*
G36*
X34291Y-106283D02*
X31323D01*
Y-109252D01*
X34291D01*
Y-106283D01*
D02*
G37*
G36*
X106472D02*
X103504D01*
Y-109252D01*
X106472D01*
Y-106283D01*
D02*
G37*
G36*
X81535Y-106408D02*
X80994Y-106553D01*
X80093Y-107073D01*
X79357Y-107809D01*
X78836Y-108711D01*
X78691Y-109252D01*
X81535D01*
Y-106408D01*
D02*
G37*
G36*
X101535Y-106283D02*
X98567D01*
Y-109252D01*
X101535D01*
Y-106283D01*
D02*
G37*
G36*
X400061Y-102650D02*
X399152D01*
X398274Y-102885D01*
X397486Y-103340D01*
X396843Y-103982D01*
X396389Y-104770D01*
X396153Y-105648D01*
Y-106557D01*
X396389Y-107435D01*
X396843Y-108222D01*
X397486Y-108865D01*
X398274Y-109320D01*
X399152Y-109555D01*
X400061D01*
X400939Y-109320D01*
X401726Y-108865D01*
X402369Y-108222D01*
X402824Y-107435D01*
X403059Y-106557D01*
Y-105648D01*
X402824Y-104770D01*
X402369Y-103982D01*
X401726Y-103340D01*
X400939Y-102885D01*
X400061Y-102650D01*
D02*
G37*
G36*
X413435Y-107087D02*
X410591D01*
Y-109931D01*
X411132Y-109786D01*
X412033Y-109265D01*
X412769Y-108529D01*
X413290Y-107628D01*
X413435Y-107087D01*
D02*
G37*
G36*
X408622D02*
X405778D01*
X405923Y-107628D01*
X406443Y-108529D01*
X407179Y-109265D01*
X408081Y-109786D01*
X408622Y-109931D01*
Y-107087D01*
D02*
G37*
G36*
X393559D02*
X390591D01*
Y-110055D01*
X393559D01*
Y-107087D01*
D02*
G37*
G36*
X388622D02*
X385653D01*
Y-110055D01*
X388622D01*
Y-107087D01*
D02*
G37*
G36*
X59104Y-111221D02*
X56260D01*
Y-114065D01*
X56801Y-113920D01*
X57703Y-113399D01*
X58439Y-112663D01*
X58959Y-111762D01*
X59104Y-111221D01*
D02*
G37*
G36*
X81535Y-111221D02*
X78691D01*
X78836Y-111762D01*
X79357Y-112663D01*
X80093Y-113399D01*
X80994Y-113920D01*
X81535Y-114065D01*
Y-111221D01*
D02*
G37*
G36*
X106472D02*
X103504D01*
Y-114189D01*
X106472D01*
Y-111221D01*
D02*
G37*
G36*
X101535D02*
X98567D01*
Y-114189D01*
X101535D01*
Y-111221D01*
D02*
G37*
G36*
X34291Y-111221D02*
X31323D01*
Y-114189D01*
X34291D01*
Y-111221D01*
D02*
G37*
G36*
X238795Y-117504D02*
X234842D01*
Y-125787D01*
X238795D01*
Y-117504D01*
D02*
G37*
G36*
X232874D02*
X228921D01*
Y-125787D01*
X232874D01*
Y-117504D01*
D02*
G37*
G36*
X263205D02*
X259252D01*
Y-125787D01*
X263205D01*
Y-117504D01*
D02*
G37*
G36*
X257283D02*
X253331D01*
Y-125787D01*
X257283D01*
Y-117504D01*
D02*
G37*
G36*
X263205Y-127756D02*
X259252D01*
Y-136039D01*
X263205D01*
Y-135591D01*
Y-127756D01*
D02*
G37*
G36*
X257283D02*
X253331D01*
Y-135591D01*
Y-136039D01*
X257283D01*
Y-127756D01*
D02*
G37*
G36*
X238795Y-127756D02*
X234842D01*
Y-136039D01*
X238795D01*
Y-135591D01*
Y-127756D01*
D02*
G37*
G36*
X232874D02*
X228921D01*
Y-135591D01*
Y-136039D01*
X232874D01*
Y-127756D01*
D02*
G37*
G36*
X211221Y-141009D02*
Y-145866D01*
X216078D01*
X215930Y-145123D01*
X215484Y-144046D01*
X214836Y-143076D01*
X214011Y-142251D01*
X213041Y-141603D01*
X211963Y-141157D01*
X211221Y-141009D01*
D02*
G37*
G36*
X191535D02*
Y-145866D01*
X196393D01*
X196245Y-145123D01*
X195799Y-144046D01*
X195150Y-143076D01*
X194326Y-142251D01*
X193356Y-141603D01*
X192278Y-141157D01*
X191535Y-141009D01*
D02*
G37*
G36*
X209252Y-141009D02*
X208509Y-141157D01*
X207431Y-141603D01*
X206462Y-142251D01*
X205637Y-143076D01*
X204989Y-144046D01*
X204542Y-145123D01*
X204395Y-145866D01*
X209252D01*
Y-141009D01*
D02*
G37*
G36*
X189567D02*
X188824Y-141157D01*
X187746Y-141603D01*
X186777Y-142251D01*
X185952Y-143076D01*
X185304Y-144046D01*
X184857Y-145123D01*
X184710Y-145866D01*
X189567D01*
Y-141009D01*
D02*
G37*
G36*
X196393Y-147835D02*
X191535D01*
Y-152692D01*
X192278Y-152544D01*
X193356Y-152098D01*
X194326Y-151450D01*
X195150Y-150625D01*
X195799Y-149655D01*
X196245Y-148578D01*
X196393Y-147835D01*
D02*
G37*
G36*
X216078D02*
X211221D01*
Y-152692D01*
X211963Y-152544D01*
X213041Y-152098D01*
X214011Y-151450D01*
X214836Y-150625D01*
X215484Y-149655D01*
X215930Y-148578D01*
X216078Y-147835D01*
D02*
G37*
G36*
X209252D02*
X204395D01*
X204542Y-148578D01*
X204989Y-149655D01*
X205637Y-150625D01*
X206462Y-151450D01*
X207431Y-152098D01*
X208509Y-152544D01*
X209252Y-152692D01*
Y-147835D01*
D02*
G37*
G36*
X189567D02*
X184710D01*
X184857Y-148578D01*
X185304Y-149655D01*
X185952Y-150625D01*
X186777Y-151450D01*
X187746Y-152098D01*
X188824Y-152544D01*
X189567Y-152692D01*
Y-147835D01*
D02*
G37*
G36*
X201107Y-151272D02*
X199680D01*
X198301Y-151641D01*
X197065Y-152355D01*
X196056Y-153364D01*
X195342Y-154600D01*
X194972Y-155979D01*
Y-157407D01*
X195342Y-158785D01*
X196056Y-160022D01*
X197065Y-161031D01*
X198301Y-161745D01*
X199680Y-162114D01*
X201107D01*
X202486Y-161745D01*
X203722Y-161031D01*
X204732Y-160022D01*
X205446Y-158785D01*
X205815Y-157407D01*
Y-155979D01*
X205446Y-154600D01*
X204732Y-153364D01*
X203722Y-152355D01*
X202486Y-151641D01*
X201107Y-151272D01*
D02*
G37*
G36*
X211221Y-160694D02*
Y-165551D01*
X216078D01*
X215930Y-164808D01*
X215484Y-163731D01*
X214836Y-162761D01*
X214011Y-161936D01*
X213041Y-161288D01*
X211963Y-160842D01*
X211221Y-160694D01*
D02*
G37*
G36*
X191535D02*
Y-165551D01*
X196393D01*
X196245Y-164808D01*
X195799Y-163731D01*
X195150Y-162761D01*
X194326Y-161936D01*
X193356Y-161288D01*
X192278Y-160842D01*
X191535Y-160694D01*
D02*
G37*
G36*
X209252Y-160694D02*
X208509Y-160842D01*
X207431Y-161288D01*
X206462Y-161936D01*
X205637Y-162761D01*
X204989Y-163731D01*
X204542Y-164808D01*
X204395Y-165551D01*
X209252D01*
Y-160694D01*
D02*
G37*
G36*
X189567D02*
X188824Y-160842D01*
X187746Y-161288D01*
X186777Y-161936D01*
X185952Y-162761D01*
X185304Y-163731D01*
X184857Y-164808D01*
X184710Y-165551D01*
X189567D01*
Y-160694D01*
D02*
G37*
G36*
X196393Y-167520D02*
X191535D01*
Y-172377D01*
X192278Y-172229D01*
X193356Y-171783D01*
X194326Y-171135D01*
X195150Y-170310D01*
X195799Y-169340D01*
X196245Y-168263D01*
X196393Y-167520D01*
D02*
G37*
G36*
X216078D02*
X211221D01*
Y-172377D01*
X211963Y-172229D01*
X213041Y-171783D01*
X214011Y-171135D01*
X214836Y-170310D01*
X215484Y-169340D01*
X215930Y-168263D01*
X216078Y-167520D01*
D02*
G37*
G36*
X209252D02*
X204395D01*
X204542Y-168263D01*
X204989Y-169340D01*
X205637Y-170310D01*
X206462Y-171135D01*
X207431Y-171783D01*
X208509Y-172229D01*
X209252Y-172377D01*
Y-167520D01*
D02*
G37*
G36*
X189567D02*
X184710D01*
X184857Y-168263D01*
X185304Y-169340D01*
X185952Y-170310D01*
X186777Y-171135D01*
X187746Y-171783D01*
X188824Y-172229D01*
X189567Y-172377D01*
Y-167520D01*
D02*
G37*
G36*
X238795Y-178134D02*
X234842D01*
Y-186417D01*
X238795D01*
Y-180512D01*
Y-179921D01*
Y-178134D01*
D02*
G37*
G36*
X232874D02*
X228921D01*
Y-179921D01*
Y-186417D01*
X232874D01*
Y-178134D01*
D02*
G37*
G36*
X263205D02*
X259252D01*
Y-186417D01*
X263205D01*
Y-180512D01*
Y-178134D01*
D02*
G37*
G36*
X257283D02*
X253331D01*
Y-179921D01*
Y-180512D01*
Y-186417D01*
X257283D01*
Y-178134D01*
D02*
G37*
G36*
X263205Y-188386D02*
X259252D01*
Y-196669D01*
X263205D01*
Y-188386D01*
D02*
G37*
G36*
X257283D02*
X253331D01*
Y-196669D01*
X257283D01*
Y-188386D01*
D02*
G37*
G36*
X238795Y-188386D02*
X234842D01*
Y-196669D01*
X238795D01*
Y-188386D01*
D02*
G37*
G36*
X232874D02*
X228921D01*
Y-196669D01*
X232874D01*
Y-188386D01*
D02*
G37*
G36*
X289543Y-200772D02*
X286575D01*
Y-203740D01*
X289543D01*
Y-200772D01*
D02*
G37*
G36*
X266575Y-200896D02*
Y-203740D01*
X269419D01*
X269274Y-203199D01*
X268754Y-202297D01*
X268018Y-201561D01*
X267116Y-201041D01*
X266575Y-200896D01*
D02*
G37*
G36*
X264606Y-200896D02*
X264065Y-201041D01*
X263163Y-201561D01*
X262428Y-202297D01*
X261907Y-203199D01*
X261762Y-203740D01*
X264606D01*
Y-200896D01*
D02*
G37*
G36*
X284606Y-200772D02*
X281638D01*
Y-203740D01*
X284606D01*
Y-200772D01*
D02*
G37*
G36*
X100626Y-200713D02*
X97598D01*
Y-203740D01*
X100626D01*
Y-200713D01*
D02*
G37*
G36*
X95630D02*
X92602D01*
Y-203740D01*
X95630D01*
Y-200713D01*
D02*
G37*
G36*
X77598Y-200835D02*
Y-203740D01*
X80504D01*
X80353Y-203176D01*
X79824Y-202261D01*
X79078Y-201514D01*
X78163Y-200986D01*
X77598Y-200835D01*
D02*
G37*
G36*
X75630D02*
X75066Y-200986D01*
X74151Y-201514D01*
X73404Y-202261D01*
X72876Y-203176D01*
X72725Y-203740D01*
X75630D01*
Y-200835D01*
D02*
G37*
G36*
X410748Y-202668D02*
Y-205512D01*
X413592D01*
X413447Y-204970D01*
X412927Y-204069D01*
X412191Y-203333D01*
X411290Y-202813D01*
X410748Y-202668D01*
D02*
G37*
G36*
X408780D02*
X408238Y-202813D01*
X407337Y-203333D01*
X406601Y-204069D01*
X406080Y-204970D01*
X405935Y-205512D01*
X408780D01*
Y-202668D01*
D02*
G37*
G36*
X393717Y-202543D02*
X390748D01*
Y-205512D01*
X393717D01*
Y-202543D01*
D02*
G37*
G36*
X388780D02*
X385811D01*
Y-205512D01*
X388780D01*
Y-202543D01*
D02*
G37*
G36*
X460646D02*
X457677D01*
Y-205512D01*
X460646D01*
Y-202543D01*
D02*
G37*
G36*
X437677Y-202668D02*
Y-205512D01*
X440521D01*
X440376Y-204970D01*
X439856Y-204069D01*
X439120Y-203333D01*
X438219Y-202813D01*
X437677Y-202668D01*
D02*
G37*
G36*
X435709Y-202668D02*
X435167Y-202813D01*
X434266Y-203333D01*
X433530Y-204069D01*
X433010Y-204970D01*
X432865Y-205512D01*
X435709D01*
Y-202668D01*
D02*
G37*
G36*
X455709Y-202543D02*
X452740D01*
Y-205512D01*
X455709D01*
Y-202543D01*
D02*
G37*
G36*
X276045Y-201272D02*
X275136D01*
X274258Y-201507D01*
X273470Y-201961D01*
X272828Y-202604D01*
X272373Y-203392D01*
X272138Y-204270D01*
Y-205179D01*
X272373Y-206057D01*
X272828Y-206844D01*
X273470Y-207487D01*
X274258Y-207942D01*
X275136Y-208177D01*
X276045D01*
X276923Y-207942D01*
X277711Y-207487D01*
X278353Y-206844D01*
X278808Y-206057D01*
X279043Y-205179D01*
Y-204270D01*
X278808Y-203392D01*
X278353Y-202604D01*
X277711Y-201961D01*
X276923Y-201507D01*
X276045Y-201272D01*
D02*
G37*
G36*
X87076Y-201213D02*
X86152D01*
X85259Y-201452D01*
X84458Y-201914D01*
X83804Y-202568D01*
X83342Y-203369D01*
X83102Y-204262D01*
Y-205187D01*
X83342Y-206080D01*
X83804Y-206881D01*
X84458Y-207535D01*
X85259Y-207997D01*
X86152Y-208236D01*
X87076D01*
X87970Y-207997D01*
X88771Y-207535D01*
X89424Y-206881D01*
X89887Y-206080D01*
X90126Y-205187D01*
Y-204262D01*
X89887Y-203369D01*
X89424Y-202568D01*
X88771Y-201914D01*
X87970Y-201452D01*
X87076Y-201213D01*
D02*
G37*
G36*
X269419Y-205709D02*
X266575D01*
Y-208553D01*
X267116Y-208408D01*
X268018Y-207887D01*
X268754Y-207152D01*
X269274Y-206250D01*
X269419Y-205709D01*
D02*
G37*
G36*
X264606D02*
X261762D01*
X261907Y-206250D01*
X262428Y-207152D01*
X263163Y-207887D01*
X264065Y-208408D01*
X264606Y-208553D01*
Y-205709D01*
D02*
G37*
G36*
X80504Y-205709D02*
X77598D01*
Y-208614D01*
X78163Y-208463D01*
X79078Y-207935D01*
X79824Y-207188D01*
X80353Y-206273D01*
X80504Y-205709D01*
D02*
G37*
G36*
X75630D02*
X72725D01*
X72876Y-206273D01*
X73404Y-207188D01*
X74151Y-207935D01*
X75066Y-208463D01*
X75630Y-208614D01*
Y-205709D01*
D02*
G37*
G36*
X289543Y-205709D02*
X286575D01*
Y-208677D01*
X289543D01*
Y-205709D01*
D02*
G37*
G36*
X284606D02*
X281638D01*
Y-208677D01*
X284606D01*
Y-205709D01*
D02*
G37*
G36*
X100626Y-205709D02*
X97598D01*
Y-208736D01*
X100626D01*
Y-205709D01*
D02*
G37*
G36*
X95630D02*
X92602D01*
Y-208736D01*
X95630D01*
Y-205709D01*
D02*
G37*
G36*
X447148Y-203043D02*
X446238D01*
X445360Y-203279D01*
X444573Y-203733D01*
X443930Y-204376D01*
X443475Y-205163D01*
X443240Y-206042D01*
Y-206951D01*
X443475Y-207829D01*
X443930Y-208616D01*
X444573Y-209259D01*
X445360Y-209714D01*
X446238Y-209949D01*
X447148D01*
X448026Y-209714D01*
X448813Y-209259D01*
X449456Y-208616D01*
X449910Y-207829D01*
X450146Y-206951D01*
Y-206042D01*
X449910Y-205163D01*
X449456Y-204376D01*
X448813Y-203733D01*
X448026Y-203279D01*
X447148Y-203043D01*
D02*
G37*
G36*
X400218D02*
X399309D01*
X398431Y-203279D01*
X397644Y-203733D01*
X397001Y-204376D01*
X396546Y-205163D01*
X396311Y-206042D01*
Y-206951D01*
X396546Y-207829D01*
X397001Y-208616D01*
X397644Y-209259D01*
X398431Y-209714D01*
X399309Y-209949D01*
X400218D01*
X401096Y-209714D01*
X401884Y-209259D01*
X402527Y-208616D01*
X402981Y-207829D01*
X403217Y-206951D01*
Y-206042D01*
X402981Y-205163D01*
X402527Y-204376D01*
X401884Y-203733D01*
X401096Y-203279D01*
X400218Y-203043D01*
D02*
G37*
G36*
X435709Y-207480D02*
X432865D01*
X433010Y-208022D01*
X433530Y-208923D01*
X434266Y-209659D01*
X435167Y-210179D01*
X435709Y-210325D01*
Y-207480D01*
D02*
G37*
G36*
X413592Y-207480D02*
X410748D01*
Y-210325D01*
X411290Y-210179D01*
X412191Y-209659D01*
X412927Y-208923D01*
X413447Y-208022D01*
X413592Y-207480D01*
D02*
G37*
G36*
X408780D02*
X405935D01*
X406080Y-208022D01*
X406601Y-208923D01*
X407337Y-209659D01*
X408238Y-210179D01*
X408780Y-210325D01*
Y-207480D01*
D02*
G37*
G36*
X440521Y-207480D02*
X437677D01*
Y-210325D01*
X438219Y-210179D01*
X439120Y-209659D01*
X439856Y-208923D01*
X440376Y-208022D01*
X440521Y-207480D01*
D02*
G37*
G36*
X460646D02*
X457677D01*
Y-210449D01*
X460646D01*
Y-207480D01*
D02*
G37*
G36*
X455709D02*
X452740D01*
Y-210449D01*
X455709D01*
Y-207480D01*
D02*
G37*
G36*
X393717Y-207480D02*
X390748D01*
Y-210449D01*
X393717D01*
Y-207480D01*
D02*
G37*
G36*
X388780D02*
X385811D01*
Y-210449D01*
X388780D01*
Y-207480D01*
D02*
G37*
G36*
X196669Y-249000D02*
X188386D01*
Y-252953D01*
X196669D01*
Y-249000D01*
D02*
G37*
G36*
X136039D02*
X127756D01*
Y-252953D01*
X136039D01*
Y-249000D01*
D02*
G37*
G36*
X186417D02*
X178134D01*
Y-252953D01*
X186417D01*
Y-249000D01*
D02*
G37*
G36*
X125787D02*
X117504D01*
Y-252953D01*
X125787D01*
Y-249000D01*
D02*
G37*
G36*
X374622D02*
X366339D01*
Y-252953D01*
X374622D01*
Y-249000D01*
D02*
G37*
G36*
X364370D02*
X356087D01*
Y-252953D01*
X364370D01*
Y-249000D01*
D02*
G37*
G36*
X19898D02*
X11614D01*
Y-252953D01*
X19898D01*
Y-249000D01*
D02*
G37*
G36*
X313598D02*
X305315D01*
Y-252953D01*
X313598D01*
Y-249000D01*
D02*
G37*
G36*
X303346D02*
X295063D01*
Y-252953D01*
X303346D01*
Y-249000D01*
D02*
G37*
G36*
X479725D02*
X471441D01*
Y-252953D01*
X479725D01*
Y-249000D01*
D02*
G37*
G36*
X374622Y-254921D02*
X366339D01*
Y-258874D01*
X374622D01*
Y-254921D01*
D02*
G37*
G36*
X364370D02*
X356087D01*
Y-258874D01*
X364370D01*
Y-254921D01*
D02*
G37*
G36*
X313598Y-254921D02*
X305315D01*
Y-258874D01*
X313598D01*
Y-254921D01*
D02*
G37*
G36*
X303346D02*
X295063D01*
Y-258874D01*
X303346D01*
Y-254921D01*
D02*
G37*
G36*
X196669Y-254921D02*
X188386D01*
Y-258874D01*
X196669D01*
Y-254921D01*
D02*
G37*
G36*
X186417D02*
X178134D01*
Y-258874D01*
X186417D01*
Y-254921D01*
D02*
G37*
G36*
X136039D02*
X127756D01*
Y-258874D01*
X136039D01*
Y-254921D01*
D02*
G37*
G36*
X125787D02*
X117504D01*
Y-258874D01*
X125787D01*
Y-254921D01*
D02*
G37*
G36*
X19898Y-254921D02*
X11614D01*
Y-258874D01*
X19898D01*
Y-254921D01*
D02*
G37*
G36*
X479725Y-254921D02*
X471441D01*
Y-258874D01*
X479725D01*
Y-254921D01*
D02*
G37*
G36*
X69232Y-259146D02*
X68563D01*
X67945Y-259402D01*
X67472Y-259875D01*
X67216Y-260492D01*
Y-261161D01*
X67472Y-261779D01*
X67945Y-262252D01*
X68563Y-262508D01*
X69232D01*
X69552Y-262375D01*
X82767Y-266949D01*
X82827Y-267094D01*
X83300Y-267567D01*
X83918Y-267823D01*
X84586D01*
X85204Y-267567D01*
X85677Y-267094D01*
X85933Y-266476D01*
Y-265807D01*
X85677Y-265190D01*
X85204Y-264717D01*
X84586Y-264461D01*
X83918D01*
X83597Y-264593D01*
X70383Y-260019D01*
X70323Y-259875D01*
X69850Y-259402D01*
X69232Y-259146D01*
D02*
G37*
G36*
X479725Y-273409D02*
X471441D01*
Y-277362D01*
X479725D01*
Y-273409D01*
D02*
G37*
G36*
X313598D02*
X305315D01*
Y-277362D01*
X313598D01*
Y-273409D01*
D02*
G37*
G36*
X303346D02*
X295063D01*
Y-277362D01*
X303346D01*
Y-273409D01*
D02*
G37*
G36*
X19898D02*
X11614D01*
Y-277362D01*
X19898D01*
Y-273409D01*
D02*
G37*
G36*
X374622D02*
X366339D01*
Y-277362D01*
X374622D01*
Y-273409D01*
D02*
G37*
G36*
X364370D02*
X356087D01*
Y-277362D01*
X364370D01*
Y-273409D01*
D02*
G37*
G36*
X196669D02*
X188386D01*
Y-277362D01*
X196669D01*
Y-273409D01*
D02*
G37*
G36*
X136039D02*
X127756D01*
Y-277362D01*
X136039D01*
Y-273409D01*
D02*
G37*
G36*
X186417D02*
X178134D01*
Y-277362D01*
X186417D01*
Y-273409D01*
D02*
G37*
G36*
X125787D02*
X117504D01*
Y-277362D01*
X125787D01*
Y-273409D01*
D02*
G37*
G36*
X374622Y-279331D02*
X366339D01*
Y-283283D01*
X374622D01*
Y-279331D01*
D02*
G37*
G36*
X364370D02*
X356087D01*
Y-283283D01*
X364370D01*
Y-279331D01*
D02*
G37*
G36*
X313598Y-279331D02*
X305315D01*
Y-283283D01*
X313598D01*
Y-279331D01*
D02*
G37*
G36*
X303346D02*
X295063D01*
Y-283283D01*
X303346D01*
Y-279331D01*
D02*
G37*
G36*
X196669Y-279331D02*
X188386D01*
Y-283283D01*
X196669D01*
Y-279331D01*
D02*
G37*
G36*
X186417D02*
X178134D01*
Y-283283D01*
X186417D01*
Y-279331D01*
D02*
G37*
G36*
X136039D02*
X127756D01*
Y-283283D01*
X136039D01*
Y-279331D01*
D02*
G37*
G36*
X125787D02*
X117504D01*
Y-283283D01*
X125787D01*
Y-279331D01*
D02*
G37*
G36*
X19898Y-279331D02*
X11614D01*
Y-283283D01*
X19898D01*
Y-279331D01*
D02*
G37*
G36*
X479725Y-279331D02*
X471441D01*
Y-283283D01*
X479725D01*
Y-279331D01*
D02*
G37*
G36*
X351787Y-295063D02*
X347835D01*
Y-303346D01*
X351787D01*
Y-295063D01*
D02*
G37*
G36*
X345866D02*
X341913D01*
Y-303346D01*
X345866D01*
Y-295063D01*
D02*
G37*
G36*
X327378D02*
X323425D01*
Y-303346D01*
X327378D01*
Y-295063D01*
D02*
G37*
G36*
X321457D02*
X317504D01*
Y-303346D01*
X321457D01*
Y-295063D01*
D02*
G37*
G36*
X149819Y-295457D02*
X145866D01*
Y-303740D01*
X149819D01*
Y-295457D01*
D02*
G37*
G36*
X143898D02*
X139945D01*
Y-303740D01*
X143898D01*
Y-295457D01*
D02*
G37*
G36*
X174228D02*
X170276D01*
Y-303740D01*
X174228D01*
Y-295457D01*
D02*
G37*
G36*
X168307D02*
X164354D01*
Y-303740D01*
X168307D01*
Y-295457D01*
D02*
G37*
%LPD*%
G36*
X87215Y-19069D02*
X88216Y-19337D01*
X89219D01*
X90551Y-20669D01*
Y-33748D01*
X50701Y-33748D01*
X49557Y-34892D01*
Y-61368D01*
X55118Y-66929D01*
Y-100394D01*
X50197Y-105315D01*
Y-114173D01*
X47362D01*
X47228Y-113673D01*
X47703Y-113399D01*
X48439Y-112663D01*
X48959Y-111762D01*
X49104Y-111221D01*
X41447D01*
X41592Y-111762D01*
X42113Y-112663D01*
X42849Y-113399D01*
X43323Y-113673D01*
X43189Y-114173D01*
X40354D01*
Y-24852D01*
X45276Y-18701D01*
X47208D01*
X47845Y-19069D01*
X48846Y-19337D01*
X49883D01*
X50884Y-19069D01*
X51521Y-18701D01*
X57050D01*
X57687Y-19069D01*
X58689Y-19337D01*
X59725D01*
X60726Y-19069D01*
X61364Y-18701D01*
X66893D01*
X67530Y-19069D01*
X68531Y-19337D01*
X69568D01*
X70569Y-19069D01*
X71206Y-18701D01*
X76735D01*
X77372Y-19069D01*
X78374Y-19337D01*
X79410D01*
X80412Y-19069D01*
X81049Y-18701D01*
X86578D01*
X87215Y-19069D01*
D02*
G37*
G36*
X97441Y-62008D02*
Y-114173D01*
X94606D01*
X94472Y-113673D01*
X94947Y-113399D01*
X95683Y-112663D01*
X96203Y-111762D01*
X96348Y-111221D01*
X92520D01*
X88691D01*
X88836Y-111762D01*
X89357Y-112663D01*
X90093Y-113399D01*
X90567Y-113673D01*
X90433Y-114173D01*
X87244D01*
Y-70039D01*
X85827Y-68622D01*
Y-67716D01*
X84921D01*
X84134Y-66929D01*
X57125D01*
X56972Y-66161D01*
X56537Y-65510D01*
X51564Y-60537D01*
Y-50197D01*
X69497D01*
X69596Y-50697D01*
X69372Y-50789D01*
X68900Y-51262D01*
X68644Y-51880D01*
Y-52549D01*
X68900Y-53167D01*
X69372Y-53640D01*
X69990Y-53896D01*
X70659D01*
X71277Y-53640D01*
X71750Y-53167D01*
X72006Y-52549D01*
Y-51880D01*
X71750Y-51262D01*
X71277Y-50789D01*
X71054Y-50697D01*
X71153Y-50197D01*
X85630D01*
X97441Y-62008D01*
D02*
G37*
%LPC*%
G36*
X76054Y-21604D02*
X75225D01*
X74424Y-21819D01*
X73706Y-22234D01*
X73119Y-22820D01*
X72705Y-23538D01*
X72490Y-24339D01*
Y-25168D01*
X72705Y-25970D01*
X73119Y-26688D01*
X73706Y-27274D01*
X74424Y-27689D01*
X75225Y-27904D01*
X76054D01*
X76855Y-27689D01*
X77574Y-27274D01*
X78160Y-26688D01*
X78575Y-25970D01*
X78789Y-25168D01*
Y-24339D01*
X78575Y-23538D01*
X78160Y-22820D01*
X77574Y-22234D01*
X76855Y-21819D01*
X76054Y-21604D01*
D02*
G37*
G36*
X46260Y-106408D02*
Y-109252D01*
X49104D01*
X48959Y-108711D01*
X48439Y-107809D01*
X47703Y-107073D01*
X46801Y-106553D01*
X46260Y-106408D01*
D02*
G37*
G36*
X44291D02*
X43750Y-106553D01*
X42849Y-107073D01*
X42113Y-107809D01*
X41592Y-108711D01*
X41447Y-109252D01*
X44291D01*
Y-106408D01*
D02*
G37*
G36*
X75531Y-60524D02*
X74862D01*
X74245Y-60780D01*
X73772Y-61252D01*
X73516Y-61870D01*
Y-62539D01*
X73772Y-63157D01*
X74245Y-63630D01*
X74862Y-63886D01*
X75531D01*
X76149Y-63630D01*
X76622Y-63157D01*
X76878Y-62539D01*
Y-61870D01*
X76622Y-61252D01*
X76149Y-60780D01*
X75531Y-60524D01*
D02*
G37*
G36*
X93504Y-106408D02*
Y-109252D01*
X96348D01*
X96203Y-108711D01*
X95683Y-107809D01*
X94947Y-107073D01*
X94045Y-106553D01*
X93504Y-106408D01*
D02*
G37*
G36*
X91535D02*
X90994Y-106553D01*
X90093Y-107073D01*
X89357Y-107809D01*
X88836Y-108711D01*
X88691Y-109252D01*
X91535D01*
Y-106408D01*
D02*
G37*
%LPD*%
D21*
X126772Y-278346D02*
D03*
Y-253937D02*
D03*
X11024Y-36614D02*
D03*
Y-61024D02*
D03*
X127165D02*
D03*
Y-36614D02*
D03*
X10630Y-278346D02*
D03*
Y-253937D02*
D03*
X304331Y-36614D02*
D03*
Y-61024D02*
D03*
X480709Y-253937D02*
D03*
Y-278346D02*
D03*
X364567Y-61024D02*
D03*
Y-36614D02*
D03*
X304331Y-253937D02*
D03*
Y-278346D02*
D03*
X365354D02*
D03*
Y-253937D02*
D03*
X481102Y-36614D02*
D03*
Y-61024D02*
D03*
X187402Y-278346D02*
D03*
Y-253937D02*
D03*
X187795Y-61024D02*
D03*
Y-36614D02*
D03*
D28*
X258268Y-187402D02*
D03*
X233858D02*
D03*
X322441Y-304331D02*
D03*
X346850D02*
D03*
X144882Y-304724D02*
D03*
X169291D02*
D03*
X322441Y-10630D02*
D03*
X346850D02*
D03*
X145276Y-10236D02*
D03*
X169685D02*
D03*
X258268Y-126772D02*
D03*
X233858D02*
D03*
D58*
X68898Y-260827D02*
X84252Y-266142D01*
X253937Y-74803D02*
X277559Y-98425D01*
X253937Y-74803D02*
Y-53150D01*
D104*
X409606Y-106102D02*
D03*
X399606D02*
D03*
X265591Y-204724D02*
D03*
X275590D02*
D03*
X446693Y-206496D02*
D03*
X436693D02*
D03*
X399764D02*
D03*
X409764D02*
D03*
X92520Y-110236D02*
D03*
X82520D02*
D03*
X45276D02*
D03*
X55276D02*
D03*
D105*
X389606Y-106102D02*
D03*
X285591Y-204724D02*
D03*
X456693Y-206496D02*
D03*
X389764D02*
D03*
X102520Y-110236D02*
D03*
X35276D02*
D03*
D106*
X259685Y-25591D02*
D03*
X96614Y-204724D02*
D03*
D107*
X269685Y-25591D02*
D03*
X279685D02*
D03*
X76614Y-204724D02*
D03*
X86614D02*
D03*
D108*
X200394Y-156693D02*
D03*
X190551Y-146850D02*
D03*
Y-166535D02*
D03*
X210236D02*
D03*
Y-146850D02*
D03*
D109*
X251620Y-257919D02*
D03*
X251575Y-269291D02*
D03*
X271530Y-257390D02*
D03*
X425197Y-37402D02*
D03*
X429528Y-40945D02*
D03*
X411811Y-96063D02*
D03*
X385433Y-66535D02*
D03*
X392126D02*
D03*
X414961Y-252756D02*
D03*
X421654Y-274803D02*
D03*
X408661D02*
D03*
X422047Y-256693D02*
D03*
X396063Y-246063D02*
D03*
X393701Y-224213D02*
D03*
X463287Y-241732D02*
D03*
X462992Y-250000D02*
D03*
X68898Y-260827D02*
D03*
X38386Y-247736D02*
D03*
X82240Y-61855D02*
D03*
X75640Y-24754D02*
D03*
X32283Y-98032D02*
D03*
X83378Y-33028D02*
D03*
X70325Y-52215D02*
D03*
X237402Y-240551D02*
D03*
X243307Y-235445D02*
D03*
X243307Y-227953D02*
D03*
X253937Y-34646D02*
D03*
X277296Y-42094D02*
D03*
X257480Y-53150D02*
D03*
X277559Y-101575D02*
D03*
X253937Y-53150D02*
D03*
X277559Y-98425D02*
D03*
X285433Y-68898D02*
D03*
X259842Y-110236D02*
D03*
X269685Y-51181D02*
D03*
X224410Y-61024D02*
D03*
X204724D02*
D03*
X234252D02*
D03*
Y-68898D02*
D03*
Y-106299D02*
D03*
X75590Y-227953D02*
D03*
X75394Y-221161D02*
D03*
X84252Y-266142D02*
D03*
X45276Y-286319D02*
D03*
X25591Y-277854D02*
D03*
X68898Y-257874D02*
D03*
X85827Y-262992D02*
D03*
X75197Y-62205D02*
D03*
X54331Y-52362D02*
D03*
X72146Y-100492D02*
D03*
X69291Y-90158D02*
D03*
X53937D02*
D03*
X30114Y-42638D02*
D03*
X55216Y-33071D02*
D03*
X30114Y-35638D02*
D03*
X101378Y-27461D02*
D03*
Y-51575D02*
D03*
X100689Y-67224D02*
D03*
X102264Y-88878D02*
D03*
X30807Y-72342D02*
D03*
Y-79626D02*
D03*
X410630Y-88189D02*
D03*
X443307Y-63386D02*
D03*
Y-77559D02*
D03*
Y-70472D02*
D03*
X462992Y-37795D02*
D03*
X440945D02*
D03*
X382283D02*
D03*
X392717Y-277953D02*
D03*
X55118Y-247244D02*
D03*
X90059Y-251181D02*
D03*
X100394D02*
D03*
D110*
X98425Y-299213D02*
D03*
X88583D02*
D03*
X39370D02*
D03*
X49213D02*
D03*
X29528D02*
D03*
X108268D02*
D03*
X68898D02*
D03*
X59055D02*
D03*
X78740D02*
D03*
X275591Y-15551D02*
D03*
X216535D02*
D03*
X236221D02*
D03*
X226378D02*
D03*
X206693D02*
D03*
X265748D02*
D03*
X246063D02*
D03*
X255906D02*
D03*
X285433D02*
D03*
Y-121850D02*
D03*
X49364Y-15400D02*
D03*
X39522D02*
D03*
X29679D02*
D03*
X59207D02*
D03*
X69049D02*
D03*
X78892D02*
D03*
X88735D02*
D03*
X108420D02*
D03*
X98577D02*
D03*
X122199Y-88235D02*
D03*
Y-98077D02*
D03*
Y-107920D02*
D03*
Y-78392D02*
D03*
X206693Y-121850D02*
D03*
X192913Y-98228D02*
D03*
Y-88386D02*
D03*
X216535Y-121850D02*
D03*
X192913Y-78543D02*
D03*
X299213Y-78543D02*
D03*
X275591Y-121850D02*
D03*
X192913Y-108071D02*
D03*
X299213Y-108071D02*
D03*
Y-88386D02*
D03*
Y-98228D02*
D03*
X29679Y-121699D02*
D03*
X39522D02*
D03*
X49364D02*
D03*
X69049D02*
D03*
X78892D02*
D03*
X108420D02*
D03*
X88735D02*
D03*
X98577D02*
D03*
X59207D02*
D03*
X15900Y-78392D02*
D03*
Y-88235D02*
D03*
Y-98077D02*
D03*
Y-107920D02*
D03*
X370079Y-98228D02*
D03*
Y-108071D02*
D03*
X476378Y-78543D02*
D03*
Y-108071D02*
D03*
Y-98228D02*
D03*
Y-88386D02*
D03*
X383858Y-121850D02*
D03*
X452756D02*
D03*
X423228D02*
D03*
X403543D02*
D03*
X413386D02*
D03*
X433071D02*
D03*
X442913D02*
D03*
X393701D02*
D03*
X462598D02*
D03*
X462598Y-15551D02*
D03*
X433071D02*
D03*
X423228D02*
D03*
X442913D02*
D03*
X383858D02*
D03*
X403543D02*
D03*
X413386D02*
D03*
X393701D02*
D03*
X452756D02*
D03*
X370079Y-88386D02*
D03*
Y-78543D02*
D03*
X442913Y-299016D02*
D03*
X452756D02*
D03*
X462599D02*
D03*
X476378Y-236024D02*
D03*
Y-226181D02*
D03*
X370079Y-236024D02*
D03*
Y-226181D02*
D03*
Y-216339D02*
D03*
Y-206496D02*
D03*
X383858Y-192717D02*
D03*
X393701D02*
D03*
X403543D02*
D03*
X413386D02*
D03*
X423228D02*
D03*
X433071D02*
D03*
X442913D02*
D03*
X452756D02*
D03*
X462598D02*
D03*
X476378Y-206496D02*
D03*
Y-216339D02*
D03*
X393701Y-299016D02*
D03*
X403543D02*
D03*
X413386D02*
D03*
X423228D02*
D03*
X433071D02*
D03*
X383858D02*
D03*
X299213Y-225984D02*
D03*
Y-206299D02*
D03*
Y-235827D02*
D03*
Y-216142D02*
D03*
X192913Y-225984D02*
D03*
Y-206299D02*
D03*
Y-216142D02*
D03*
Y-235827D02*
D03*
X275590Y-298819D02*
D03*
X246063D02*
D03*
X236221D02*
D03*
X255906D02*
D03*
X285433D02*
D03*
X216535D02*
D03*
X206693D02*
D03*
X226378D02*
D03*
X265748D02*
D03*
X216535Y-192520D02*
D03*
X206693D02*
D03*
X275590D02*
D03*
X285433D02*
D03*
X211165Y-282244D02*
D03*
X218165D02*
D03*
X226378Y-282087D02*
D03*
X233071D02*
D03*
X49213Y-192913D02*
D03*
X88583D02*
D03*
X108268D02*
D03*
X98425D02*
D03*
X29528D02*
D03*
X59055D02*
D03*
X78740D02*
D03*
X68898D02*
D03*
X39370D02*
D03*
X15748Y-236221D02*
D03*
Y-216535D02*
D03*
Y-206693D02*
D03*
Y-226378D02*
D03*
X122047Y-216535D02*
D03*
Y-236221D02*
D03*
Y-206693D02*
D03*
Y-226378D02*
D03*
D111*
X125984Y-303150D02*
D03*
X11811D02*
D03*
X188976Y-125787D02*
D03*
Y-11614D02*
D03*
X126136Y-11463D02*
D03*
X11963D02*
D03*
X303150Y-11614D02*
D03*
Y-125787D02*
D03*
X126136Y-125636D02*
D03*
X11963D02*
D03*
X480315Y-125787D02*
D03*
X366142D02*
D03*
Y-11614D02*
D03*
X480315D02*
D03*
X480315Y-302953D02*
D03*
X366142Y-188779D02*
D03*
X480315D02*
D03*
X366142Y-302953D02*
D03*
X188976Y-302756D02*
D03*
X303150D02*
D03*
Y-188583D02*
D03*
X188976D02*
D03*
X11811Y-188976D02*
D03*
X125984D02*
D03*
M02*
