G04*
G04 #@! TF.GenerationSoftware,Altium Limited,Altium Designer,21.4.1 (30)*
G04*
G04 Layer_Color=16711935*
%FSLAX25Y25*%
%MOIN*%
G70*
G04*
G04 #@! TF.SameCoordinates,4F7A37CA-CC0D-4B0B-ADC5-D258E3024ECD*
G04*
G04*
G04 #@! TF.FilePolarity,Negative*
G04*
G01*
G75*
%ADD40R,0.17335X0.08674*%
%ADD46R,0.08674X0.17335*%
%ADD52C,0.06706*%
%ADD53R,0.06706X0.06706*%
%ADD54R,0.06824X0.06824*%
%ADD55C,0.06824*%
%ADD56C,0.10642*%
%ADD57C,0.14580*%
D40*
X126772Y-278346D02*
D03*
Y-253937D02*
D03*
X11024Y-36614D02*
D03*
Y-61024D02*
D03*
X127165D02*
D03*
Y-36614D02*
D03*
X10630Y-278346D02*
D03*
Y-253937D02*
D03*
X304331Y-36614D02*
D03*
Y-61024D02*
D03*
X480709Y-253937D02*
D03*
Y-278346D02*
D03*
X364567Y-61024D02*
D03*
Y-36614D02*
D03*
X304331Y-253937D02*
D03*
Y-278346D02*
D03*
X365354D02*
D03*
Y-253937D02*
D03*
X481102Y-36614D02*
D03*
Y-61024D02*
D03*
X187402Y-278346D02*
D03*
Y-253937D02*
D03*
X187795Y-61024D02*
D03*
Y-36614D02*
D03*
D46*
X258268Y-187402D02*
D03*
X233858D02*
D03*
X322441Y-304331D02*
D03*
X346850D02*
D03*
X144882Y-304724D02*
D03*
X169291D02*
D03*
X322441Y-10630D02*
D03*
X346850D02*
D03*
X145276Y-10236D02*
D03*
X169685D02*
D03*
X258268Y-126772D02*
D03*
X233858D02*
D03*
D52*
X409606Y-106102D02*
D03*
X399606D02*
D03*
X265591Y-204724D02*
D03*
X275590D02*
D03*
X446693Y-206496D02*
D03*
X436693D02*
D03*
X399764D02*
D03*
X409764D02*
D03*
X92520Y-110236D02*
D03*
X82520D02*
D03*
X45276D02*
D03*
X55276D02*
D03*
D53*
X389606Y-106102D02*
D03*
X285591Y-204724D02*
D03*
X456693Y-206496D02*
D03*
X389764D02*
D03*
X102520Y-110236D02*
D03*
X35276D02*
D03*
D54*
X259685Y-25591D02*
D03*
X96614Y-204724D02*
D03*
D55*
X269685Y-25591D02*
D03*
X279685D02*
D03*
X76614Y-204724D02*
D03*
X86614D02*
D03*
D56*
X200394Y-156693D02*
D03*
X190551Y-146850D02*
D03*
Y-166535D02*
D03*
X210236D02*
D03*
Y-146850D02*
D03*
D57*
X125984Y-303150D02*
D03*
X11811D02*
D03*
X188976Y-125787D02*
D03*
Y-11614D02*
D03*
X126136Y-11463D02*
D03*
X11963D02*
D03*
X303150Y-11614D02*
D03*
Y-125787D02*
D03*
X126136Y-125636D02*
D03*
X11963D02*
D03*
X480315Y-125787D02*
D03*
X366142D02*
D03*
Y-11614D02*
D03*
X480315D02*
D03*
X480315Y-302953D02*
D03*
X366142Y-188779D02*
D03*
X480315D02*
D03*
X366142Y-302953D02*
D03*
X188976Y-302756D02*
D03*
X303150D02*
D03*
Y-188583D02*
D03*
X188976D02*
D03*
X11811Y-188976D02*
D03*
X125984D02*
D03*
M02*
