/* XPM */
static char *BFQ19S[] = {
/* columns rows colors chars-per-pixel */
"48 48 2 1 ",
"  c #0E150E150E0A",
". c #BDCDBDCDBCCE",
/* pixels */
"..     .........................................",
"..  .   ........................................",
"..  ..  ........................................",
"..     .........................................",
"..     .........................................",
"..  ..  ........................................",
"..  ..  .......................  ...............",
"..  ..  ......................   ...............",
"..     ..............  ......   ................",
".....................  .....   .................",
".....................  ....   ..................",
"..     ..............  ...   ...................",
"..  . ...............  ..   ....................",
"..  .................  .   .....................",
"..     ..............     ......................",
"..    ...............    .......................",
"..  ........            ........................",
"..  ........           .........................",
"..  ........            ........................",
"..  .................    .......................",
".....................     ......................",
".....................  .   .....................",
"....    .............  ..   ....................",
"...  .   ............  ...   ...................",
"... .... ............  ....   .. ...............",
"..  ....  ...........  .....   . ...............",
"..  ....  ...........  ......    ...............",
"..  ....  ....................   ...............",
"...  ...  ..................     ...............",
"...   .  .......................................",
"....    ........................................",
".......  .......................................",
"................................................",
"................................................",
"......   ......    .....    ....................",
"....     .....      ...       ..................",
"....  .  ....  ...  ..  .... ...................",
".......  ....  ....  .  ........................",
".......  ....  ....  .  ........................",
".......  ....  ....  ..   ......................",
".......  ....  ...   ...     ...................",
".......  .....       ......  ...................",
".......  ......      .......  ..................",
".......  ..........  .......  ..................",
".......  .........  .. .....  ..................",
".....      ...      ..       ...................",
".....      ...     ....     ....................",
"................................................"
};
