/* XPM */
static char *BFR193W_SPARA[] = {
/* columns rows colors chars-per-pixel */
"48 48 2 1 ",
"  c #118D118D1181",
". c #BD53BD53BC56",
/* pixels */
"..     .........................................",
"..  .   ........................................",
"..  ..  ........................................",
"..     .........................................",
"..     .........................................",
"..  ..  ........................................",
"..  ..  .......................  ...............",
"..  ..  ......................   ...............",
"..     ..............  ......   ................",
".....................  .....   .................",
".....................  ....   ..................",
"..     ..............  ...   ...................",
"..  . ...............  ..   ...    .............",
"..  .................  .   ...   . .............",
"..     ..............     ....  ................",
"..    ...............    .....   ...............",
"..  ........            .......    .............",
"..  ........           ...........  ............",
"..  ........            ..........  ............",
"..  .................    .....  .  .............",
".....................     .....    .............",
".....................  .   .....................",
"..     ..............  ..   ....................",
"..  ..  .............  ...   ...................",
"..  ..  .............  ....   .. ...............",
"..  ..  .............  .....   . ...............",
"..      .............  ......    ...............",
"..     .......................   ...............",
"..  ..  ....................     ...............",
"..  ... ........................................",
"..  ...  .......................................",
"................................................",
"................................................",
"................................................",
"......   ......    .....     ..  ....  .... ....",
"....     .....      ..       ..  ....  ...  ....",
"....  .  ....  ....  .......  .  ...   ...  ....",
".......  ....  ....  .......  ..  ..   ...  ....",
".......  ....  ....  .......  ..  ..    ..  ....",
".......  ....  ....  ...     ...  ..    .   ....",
".......  ....  ...   ...     ...  .  .  .  .....",
".......  .....       ......   ... .  .  .  .....",
".......  ......      .......  ...    ..    .....",
".......  ..........  .......  ...    ..   ......",
".......  .........  .. .....  ...   ...   ......",
".....       ..      ..       ....   ...   ......",
".....      ...     ....     ......  ...   ......",
"................................................"
};
