%FSTAX44Y44*%
%MOMM*%
%SFA1B1*%

%IPPOS*%
%ADD10C,0.368299*%
%ADD14R,4.199992X1.999996*%
%ADD21R,1.999996X4.199992*%
%ADD76C,1.499997*%
%ADD77R,1.499997X1.499997*%
%ADD78R,1.529997X1.529997*%
%ADD79C,1.529997*%
%ADD80C,2.499995*%
%ADD81C,0.599999*%
%ADD82C,0.999998*%
%ADD83C,3.499993*%
%LNradar_1ghz_copper_signal_bot-1*%
%LPD*%
G36*
X00345999Y-00003999D02*
X00356459D01*
Y-000235*
X00369*
X00381539*
Y-00003999*
X00418459*
Y-00023499*
X00443539*
Y-00003999*
X00457999*
Y-00004399*
X007951*
Y-00004999*
X00806459*
Y-00024499*
X00818999*
X00831539*
Y-00004999*
X00868459*
Y-00024499*
X00893539*
Y-00004999*
X00904999*
Y-00004499*
X01244999*
Y-00080459*
X01224499*
Y-00092999*
Y-00105539*
X01244999*
Y-00142459*
X01224499*
Y-00154999*
Y-00167539*
X01244999*
Y-00341499*
X01245*
Y-00454499*
Y-0063138*
X01244539Y-0063246*
X0124373*
X01223499*
Y-00644999*
Y-00657539*
X0124373*
X01244539*
X01245Y-00658619*
Y-0069338*
X01244539Y-00694459*
X0124373*
X01223499*
Y-00706999*
Y-00719539*
X0124373*
X01244539*
X01245Y-00720619*
Y-00794499*
X00904999*
Y-00793999*
X00893539*
Y-00775499*
X00868459*
Y-00793999*
X00831539*
Y-00775499*
X00818999*
X00806459*
Y-00793999*
X00794899*
Y-00794099*
X00454899*
Y-00793999*
X00442539*
Y-00776499*
X00417459*
Y-00793999*
X00380539*
Y-00776499*
X00367999*
X00355459*
Y-00793999*
X00344999*
Y-00794999*
X00004999*
Y-00719539*
X00024499*
Y-00706999*
Y-00694459*
X00004999*
Y-00657539*
X000245*
Y-00644999*
Y-0063246*
X00004999*
Y-00457999*
Y-00339999*
X00005999*
Y-00167539*
X00025499*
Y-00154999*
Y-00142459*
X00005999*
Y-00105539*
X00025499*
Y-00092999*
Y-00080459*
X00005999*
Y-00003749*
X00345999*
Y-00003999*
G37*
%LNradar_1ghz_copper_signal_bot-2*%
%LPC*%
G36*
X00219907Y-00042401D02*
X00205863D01*
X00205533Y-00042467*
X00205197Y-00042445*
X00204566Y-00042659*
X00203912Y-00042789*
X00203632Y-00042976*
X00203314Y-00043085*
X00202277Y-00043683*
X0020103Y-00044017*
X0019974*
X00198493Y-00043683*
X00197456Y-00043085*
X00197138Y-00042976*
X00196858Y-00042789*
X00196204Y-00042659*
X00195573Y-00042445*
X00195237Y-00042467*
X00194907Y-00042401*
X00180863*
X00180533Y-00042467*
X00180197Y-00042445*
X00179566Y-00042659*
X00178912Y-00042789*
X00178632Y-00042976*
X00178314Y-00043085*
X00177277Y-00043683*
X0017603Y-00044017*
X0017474*
X00173493Y-00043683*
X00172456Y-00043085*
X00172138Y-00042976*
X00171858Y-00042789*
X00171204Y-00042659*
X00170573Y-00042445*
X00170237Y-00042467*
X00169907Y-00042401*
X00155863*
X00155533Y-00042467*
X00155197Y-00042445*
X00154566Y-00042659*
X00153912Y-00042789*
X00153632Y-00042976*
X00153314Y-00043085*
X00152277Y-00043683*
X0015103Y-00044017*
X0014974*
X00148493Y-00043683*
X00147456Y-00043085*
X00147138Y-00042976*
X00146858Y-00042789*
X00146204Y-00042659*
X00145573Y-00042445*
X00145237Y-00042467*
X00144907Y-00042401*
X00130863*
X00130533Y-00042467*
X00130197Y-00042445*
X00129566Y-00042659*
X00128912Y-00042789*
X00128632Y-00042976*
X00128314Y-00043085*
X00127277Y-00043683*
X0012603Y-00044017*
X0012474*
X00123493Y-00043683*
X00122456Y-00043085*
X00122138Y-00042976*
X00121858Y-00042789*
X00121204Y-00042659*
X00120573Y-00042445*
X00120237Y-00042467*
X00119907Y-00042401*
X00114999*
X0011472Y-00042457*
X00114436Y-00042432*
X00113752Y-00042649*
X00113049Y-00042789*
X00112812Y-00042948*
X0011254Y-00043034*
X00111991Y-00043496*
X00111395Y-00043895*
X00111236Y-00044131*
X00111019Y-00044315*
X00098518Y-0005994*
X00098188Y-00060577*
X0009779Y-00061173*
X00097734Y-00061453*
X00097603Y-00061705*
X00097541Y-00062421*
X00097401Y-00063124*
Y-00269959*
X00092099*
Y-00279999*
Y-00290039*
X00097409*
X0009779Y-0029195*
X00098895Y-00293604*
X00100548Y-00294709*
X00102499Y-00295097*
X001097*
X0011003Y-00295032*
X00110365Y-00295054*
X00110997Y-00294839*
X00111651Y-00294709*
X0011193Y-00294522*
X00112249Y-00294414*
X0011275Y-00293975*
X00113305Y-00293604*
X00113492Y-00293325*
X00113744Y-00293103*
X00114039Y-00292505*
X00114321Y-00292084*
X00114999Y-00292012*
X00115678Y-00292084*
X00115959Y-00292505*
X00116255Y-00293103*
X00116507Y-00293325*
X00116694Y-00293604*
X00117249Y-00293975*
X0011775Y-00294414*
X00118068Y-00294522*
X00118348Y-00294709*
X00119002Y-00294839*
X00119634Y-00295054*
X00119969Y-00295032*
X00120299Y-00295097*
X00127499*
X0012945Y-00294709*
X00131104Y-00293604*
X00132209Y-0029195*
X00132597Y-00289999*
Y-00288055*
X00133771Y-00287569*
X00134235Y-00288033*
X00136524Y-00289355*
X00137899Y-00289724*
Y-00279999*
Y-00270275*
X00136524Y-00270644*
X00134235Y-00271965*
X00133771Y-00272429*
X00132597Y-00271943*
Y-00269611*
X00143604Y-00258604*
X00144709Y-0025695*
X00145097Y-00254999*
Y-00223999*
X00220225*
Y-00275955*
X00218955Y-00276124*
X00217633Y-00273835*
X00215764Y-00271965*
X00213475Y-00270644*
X00212099Y-00270275*
Y-00279999*
Y-00289724*
X00213475Y-00289355*
X00215764Y-00288033*
X00217633Y-00286164*
X00218955Y-00283875*
X00220225Y-00284043*
Y-00289999*
X00220627Y-00290971*
X00221599Y-00291374*
X002297*
X00230031Y-00291237*
X00230387Y-0029119*
X002305Y-00291042*
X00230672Y-00290971*
X00230809Y-0029064*
X00231028Y-00290355*
X00231306Y-00289315*
X00231368Y-00289085*
X00232344Y-00288494*
X00232599Y-00288436*
X00233845Y-00288769*
X00236154*
X00237399Y-00288436*
X00237655Y-00288494*
X0023863Y-00289085*
X00238692Y-00289315*
X00238971Y-00290355*
X0023919Y-0029064*
X00239327Y-00290971*
X00239498Y-00291042*
X00239612Y-0029119*
X00239967Y-00291237*
X00240299Y-00291374*
X00247499*
X00248471Y-00290971*
X00248874Y-00289999*
Y-00157499*
X00248471Y-00156527*
X00219339Y-00127395*
X00219865Y-00126125*
X00221149*
Y-00090817*
X00229999*
X0023195Y-00090429*
X00233604Y-00089324*
X00234709Y-0008767*
X00235097Y-00085719*
Y-00052499*
X00234709Y-00050549*
X00233604Y-00048895*
X0023022Y-0004551*
X00228566Y-00044405*
X00226615Y-00044017*
X00224739*
X00223493Y-00043683*
X00222456Y-00043085*
X00222138Y-00042976*
X00221858Y-00042789*
X00221204Y-00042659*
X00220573Y-00042445*
X00220237Y-00042467*
X00219907Y-00042401*
G37*
G36*
X00443539Y-00028499D02*
X00433499D01*
Y-00049539*
X00443539*
Y-00028499*
G37*
G36*
X00428499D02*
X00418459D01*
Y-00049539*
X00428499*
Y-00028499*
G37*
G36*
X00381539Y-000285D02*
X00371499D01*
Y-00049539*
X00381539*
Y-000285*
G37*
G36*
X00366499D02*
X00356459D01*
Y-00049539*
X00366499*
Y-000285*
G37*
G36*
X00893539Y-00029499D02*
X00883499D01*
Y-00050539*
X00893539*
Y-00029499*
G37*
G36*
X00878499D02*
X00868459D01*
Y-00050539*
X00878499*
Y-00029499*
G37*
G36*
X00831539D02*
X008215D01*
Y-00050539*
X00831539*
Y-00029499*
G37*
G36*
X008165D02*
X00806459D01*
Y-00050539*
X008165*
Y-00029499*
G37*
G36*
X00712899Y-0005512D02*
Y-000625D01*
X00720279*
X00719895Y-00061066*
X00718553Y-00058743*
X00716656Y-00056845*
X00714333Y-00055504*
X00712899Y-0005512*
G37*
G36*
X00669789Y-00054809D02*
X00662099D01*
Y-000625*
X00669789*
Y-00054809*
G37*
G36*
X007079Y-0005512D02*
X00706466Y-00055504D01*
X00704143Y-00056845*
X00702245Y-00058743*
X00700904Y-00061066*
X0070052Y-000625*
X007079*
Y-0005512*
G37*
G36*
X006571Y-00054809D02*
X00649409D01*
Y-000625*
X006571*
Y-00054809*
G37*
G36*
X00686174Y-00056079D02*
X00683825D01*
X00681556Y-00056687*
X00679522Y-00057861*
X00677861Y-00059522*
X00676687Y-00061556*
X00676079Y-00063825*
Y-00066174*
X00676687Y-00068442*
X00677861Y-00070476*
X00679522Y-00072137*
X00681556Y-00073312*
X00683825Y-00073919*
X00686174*
X00688442Y-00073312*
X00690476Y-00072137*
X00692137Y-00070476*
X00693312Y-00068442*
X00693919Y-00066174*
Y-00063825*
X00693312Y-00061556*
X00692137Y-00059522*
X00690476Y-00057861*
X00688442Y-00056687*
X00686174Y-00056079*
G37*
G36*
X00720279Y-00067499D02*
X00712899D01*
Y-00074879*
X00714333Y-00074495*
X00716656Y-00073153*
X00718553Y-00071256*
X00719895Y-00068933*
X00720279Y-00067499*
G37*
G36*
X007079D02*
X0070052D01*
X00700904Y-00068933*
X00702245Y-00071256*
X00704143Y-00073153*
X00706466Y-00074495*
X007079Y-00074879*
Y-00067499*
G37*
G36*
X00669789D02*
X00662099D01*
Y-00075189*
X00669789*
Y-00067499*
G37*
G36*
X006571D02*
X00649409D01*
Y-00075189*
X006571*
Y-00067499*
G37*
G36*
X01219499Y-00080459D02*
X01198459D01*
Y-00090499*
X01219499*
Y-00080459*
G37*
G36*
X00051539D02*
X00030499D01*
Y-00090499*
X00051539*
Y-00080459*
G37*
G36*
X00500539D02*
X00479499D01*
Y-00090499*
X00500539*
Y-00080459*
G37*
G36*
X00474499D02*
X00453459D01*
Y-00090499*
X00474499*
Y-00080459*
G37*
G36*
X00796539D02*
X007755D01*
Y-00090499*
X00796539*
Y-00080459*
G37*
G36*
X00346539D02*
X00325499D01*
Y-00090499*
X00346539*
Y-00080459*
G37*
G36*
X00770499D02*
X00749459D01*
Y-00090499*
X00770499*
Y-00080459*
G37*
G36*
X00320499D02*
X00299459D01*
Y-00090499*
X00320499*
Y-00080459*
G37*
G36*
X00949539D02*
X009285D01*
Y-00090499*
X00949539*
Y-00080459*
G37*
G36*
X009235D02*
X00902459D01*
Y-00090499*
X009235*
Y-00080459*
G37*
G36*
X01219499Y-00095499D02*
X01198459D01*
Y-00105539*
X01219499*
Y-00095499*
G37*
G36*
X00949539Y-00095499D02*
X009285D01*
Y-00105539*
X00949539*
Y-00095499*
G37*
G36*
X009235D02*
X00902459D01*
Y-00105539*
X009235*
Y-00095499*
G37*
G36*
X00796539D02*
X007755D01*
Y-00105539*
X00796539*
Y-00095499*
G37*
G36*
X00770499D02*
X00749459D01*
Y-00105539*
X00770499*
Y-00095499*
G37*
G36*
X00500539D02*
X00479499D01*
Y-00105539*
X00500539*
Y-00095499*
G37*
G36*
X00474499D02*
X00453459D01*
Y-00105539*
X00474499*
Y-00095499*
G37*
G36*
X00346539D02*
X00325499D01*
Y-00105539*
X00346539*
Y-00095499*
G37*
G36*
X00320499D02*
X00299459D01*
Y-00105539*
X00320499*
Y-00095499*
G37*
G36*
X00051539Y-00095499D02*
X00030499D01*
Y-00105539*
X00051539*
Y-00095499*
G37*
G36*
X00949539Y-00142459D02*
X00928499D01*
Y-00152499*
X00949539*
Y-00142459*
G37*
G36*
X009235D02*
X00902459D01*
Y-00152499*
X009235*
Y-00142459*
G37*
G36*
X00796539D02*
X00775499D01*
Y-00152499*
X00796539*
Y-00142459*
G37*
G36*
X00346539D02*
X00325499D01*
Y-00152499*
X00346539*
Y-00142459*
G37*
G36*
X00770499D02*
X00749459D01*
Y-00152499*
X00770499*
Y-00142459*
G37*
G36*
X00320499D02*
X00299459D01*
Y-00152499*
X00320499*
Y-00142459*
G37*
G36*
X00500539D02*
X00479499D01*
Y-00152499*
X00500539*
Y-00142459*
G37*
G36*
X00474499D02*
X00453459D01*
Y-00152499*
X00474499*
Y-00142459*
G37*
G36*
X00051539D02*
X00030499D01*
Y-00152499*
X00051539*
Y-00142459*
G37*
G36*
X01219499D02*
X01198459D01*
Y-00152499*
X01219499*
Y-00142459*
G37*
G36*
Y-00157499D02*
X01198459D01*
Y-00167539*
X01219499*
Y-00157499*
G37*
G36*
X00949539Y-00157499D02*
X00928499D01*
Y-00167539*
X00949539*
Y-00157499*
G37*
G36*
X009235D02*
X00902459D01*
Y-00167539*
X009235*
Y-00157499*
G37*
G36*
X00796539Y-00157499D02*
X00775499D01*
Y-00167539*
X00796539*
Y-00157499*
G37*
G36*
X00770499D02*
X00749459D01*
Y-00167539*
X00770499*
Y-00157499*
G37*
G36*
X00500539D02*
X00479499D01*
Y-00167539*
X00500539*
Y-00157499*
G37*
G36*
X00474499D02*
X00453459D01*
Y-00167539*
X00474499*
Y-00157499*
G37*
G36*
X00346539D02*
X00325499D01*
Y-00167539*
X00346539*
Y-00157499*
G37*
G36*
X00320499D02*
X00299459D01*
Y-00167539*
X00320499*
Y-00157499*
G37*
G36*
X00051539D02*
X00030499D01*
Y-00167539*
X00051539*
Y-00157499*
G37*
G36*
X00645849Y-00130729D02*
X0064415D01*
X00642581Y-00131379*
X00641379Y-00132581*
X00640729Y-0013415*
Y-00135849*
X00641379Y-00137418*
X00641827Y-00137866*
Y-00189999*
X00642068Y-00191213*
X00642756Y-00192243*
X00700729Y-00250216*
Y-00250849*
X00701379Y-00252418*
X00702581Y-00253619*
X0070415Y-00254269*
X00705849*
X00707418Y-00253619*
X00708619Y-00252418*
X00709269Y-00250849*
Y-0024915*
X00708619Y-00247581*
X00707418Y-0024638*
X00705849Y-00245729*
X00705216*
X00648172Y-00188685*
Y-00137866*
X00648619Y-00137418*
X00649269Y-00135849*
Y-0013415*
X00648619Y-00132581*
X00647418Y-00131379*
X00645849Y-00130729*
G37*
G36*
X01042899Y-00259775D02*
Y-00266999D01*
X01050124*
X01049755Y-00265624*
X01048433Y-00263335*
X01046564Y-00261465*
X01044275Y-00260144*
X01042899Y-00259775*
G37*
G36*
X01037899D02*
X01036524Y-00260144D01*
X01034235Y-00261465*
X01032365Y-00263335*
X01031044Y-00265624*
X01030675Y-00266999*
X01037899*
Y-00259775*
G37*
G36*
X00999639Y-00259459D02*
X00992099D01*
Y-00266999*
X00999639*
Y-00259459*
G37*
G36*
X00987099D02*
X00979559D01*
Y-00266999*
X00987099*
Y-00259459*
G37*
G36*
X00142899Y-00270275D02*
Y-00277499D01*
X00150124*
X00149755Y-00276124*
X00148433Y-00273835*
X00146564Y-00271965*
X00144275Y-00270644*
X00142899Y-00270275*
G37*
G36*
X00087099Y-00269959D02*
X00079559D01*
Y-00277499*
X00087099*
Y-00269959*
G37*
G36*
X00270439D02*
X00262899D01*
Y-002775*
X00270439*
Y-00269959*
G37*
G36*
X00207099Y-00270275D02*
X00205724Y-00270644D01*
X00203435Y-00271965*
X00201565Y-00273835*
X00200243Y-00276124*
X00199875Y-002775*
X00207099*
Y-00270275*
G37*
G36*
X00257899Y-00269959D02*
X00250359D01*
Y-002775*
X00257899*
Y-00269959*
G37*
G36*
X01016154Y-00260729D02*
X01013845D01*
X01011614Y-00261327*
X01009614Y-00262482*
X01007982Y-00264115*
X01006827Y-00266114*
X01006229Y-00268345*
Y-00270654*
X01006827Y-00272884*
X01007982Y-00274884*
X01009614Y-00276517*
X01011614Y-00277672*
X01013845Y-00278269*
X01016154*
X01018385Y-00277672*
X01020384Y-00276517*
X01022017Y-00274884*
X01023172Y-00272884*
X01023769Y-00270654*
Y-00268345*
X01023172Y-00266114*
X01022017Y-00264115*
X01020384Y-00262482*
X01018385Y-00261327*
X01016154Y-00260729*
G37*
G36*
X01050124Y-00271999D02*
X01042899D01*
Y-00279224*
X01044275Y-00278855*
X01046564Y-00277533*
X01048433Y-00275664*
X01049755Y-00273375*
X01050124Y-00271999*
G37*
G36*
X01037899D02*
X01030675D01*
X01031044Y-00273375*
X01032365Y-00275664*
X01034235Y-00277533*
X01036524Y-00278855*
X01037899Y-00279224*
Y-00271999*
G37*
G36*
X00999639D02*
X00992099D01*
Y-00279539*
X00999639*
Y-00271999*
G37*
G36*
X00987099D02*
X00979559D01*
Y-00279539*
X00987099*
Y-00271999*
G37*
G36*
X00150124Y-00282499D02*
X00142899D01*
Y-00289724*
X00144275Y-00289355*
X00146564Y-00288033*
X00148433Y-00286164*
X00149755Y-00283875*
X00150124Y-00282499*
G37*
G36*
X00207099Y-002825D02*
X00199875D01*
X00200243Y-00283875*
X00201565Y-00286164*
X00203435Y-00288033*
X00205724Y-00289355*
X00207099Y-00289724*
Y-002825*
G37*
G36*
X00270439D02*
X00262899D01*
Y-00290039*
X00270439*
Y-002825*
G37*
G36*
X00257899D02*
X00250359D01*
Y-00290039*
X00257899*
Y-002825*
G37*
G36*
X00087099Y-00282499D02*
X00079559D01*
Y-00290039*
X00087099*
Y-00282499*
G37*
G36*
X00606539Y-00298459D02*
X00596499D01*
Y-00319499*
X00606539*
Y-00298459*
G37*
G36*
X00591499D02*
X00581459D01*
Y-00319499*
X00591499*
Y-00298459*
G37*
G36*
X00668539D02*
X00658499D01*
Y-00319499*
X00668539*
Y-00298459*
G37*
G36*
X00653499D02*
X00643459D01*
Y-00319499*
X00653499*
Y-00298459*
G37*
G36*
X00668539Y-00324499D02*
X00658499D01*
Y-00345539*
X00668539*
Y-00344399*
Y-00324499*
G37*
G36*
X00653499D02*
X00643459D01*
Y-00344399*
Y-00345539*
X00653499*
Y-00324499*
G37*
G36*
X00606539Y-00324499D02*
X00596499D01*
Y-00345539*
X00606539*
Y-00344399*
Y-00324499*
G37*
G36*
X00591499D02*
X00581459D01*
Y-00344399*
Y-00345539*
X00591499*
Y-00324499*
G37*
G36*
X00536499Y-00358162D02*
Y-00370499D01*
X00548837*
X00548461Y-00368612*
X00547328Y-00365875*
X00545682Y-00363412*
X00543587Y-00361317*
X00541123Y-00359671*
X00538386Y-00358537*
X00536499Y-00358162*
G37*
G36*
X00486499D02*
Y-00370499D01*
X00498837*
X00498461Y-00368612*
X00497328Y-00365875*
X00495682Y-00363412*
X00493587Y-00361317*
X00491123Y-00359671*
X00488386Y-00358537*
X00486499Y-00358162*
G37*
G36*
X005315D02*
X00529612Y-00358537D01*
X00526875Y-00359671*
X00524412Y-00361317*
X00522317Y-00363412*
X00520671Y-00365875*
X00519537Y-00368612*
X00519162Y-00370499*
X005315*
Y-00358162*
G37*
G36*
X00481499D02*
X00479612Y-00358537D01*
X00476875Y-00359671*
X00474412Y-00361317*
X00472317Y-00363412*
X00470671Y-00365875*
X00469537Y-00368612*
X00469162Y-00370499*
X00481499*
Y-00358162*
G37*
G36*
X00498837Y-00375499D02*
X00486499D01*
Y-00387837*
X00488386Y-00387461*
X00491123Y-00386328*
X00493587Y-00384682*
X00495682Y-00382587*
X00497328Y-00380123*
X00498461Y-00377386*
X00498837Y-00375499*
G37*
G36*
X00548837D02*
X00536499D01*
Y-00387837*
X00538386Y-00387461*
X00541123Y-00386328*
X00543587Y-00384682*
X00545682Y-00382587*
X00547328Y-00380123*
X00548461Y-00377386*
X00548837Y-00375499*
G37*
G36*
X005315D02*
X00519162D01*
X00519537Y-00377386*
X00520671Y-00380123*
X00522317Y-00382587*
X00524412Y-00384682*
X00526875Y-00386328*
X00529612Y-00387461*
X005315Y-00387837*
Y-00375499*
G37*
G36*
X00481499D02*
X00469162D01*
X00469537Y-00377386*
X00470671Y-00380123*
X00472317Y-00382587*
X00474412Y-00384682*
X00476875Y-00386328*
X00479612Y-00387461*
X00481499Y-00387837*
Y-00375499*
G37*
G36*
X00510812Y-00384229D02*
X00507186D01*
X00503684Y-00385168*
X00500544Y-00386981*
X0049798Y-00389544*
X00496168Y-00392684*
X00495229Y-00396186*
Y-00399812*
X00496168Y-00403314*
X0049798Y-00406454*
X00500544Y-00409018*
X00503684Y-00410831*
X00507186Y-00411769*
X00510812*
X00514314Y-00410831*
X00517454Y-00409018*
X00520018Y-00406454*
X00521831Y-00403314*
X00522769Y-00399812*
Y-00396186*
X00521831Y-00392684*
X00520018Y-00389544*
X00517454Y-00386981*
X00514314Y-00385168*
X00510812Y-00384229*
G37*
G36*
X00536499Y-00408162D02*
Y-004205D01*
X00548837*
X00548461Y-00418612*
X00547328Y-00415875*
X00545682Y-00413412*
X00543587Y-00411317*
X00541123Y-00409671*
X00538386Y-00408537*
X00536499Y-00408162*
G37*
G36*
X00486499D02*
Y-004205D01*
X00498837*
X00498461Y-00418612*
X00497328Y-00415875*
X00495682Y-00413412*
X00493587Y-00411317*
X00491123Y-00409671*
X00488386Y-00408537*
X00486499Y-00408162*
G37*
G36*
X005315D02*
X00529612Y-00408537D01*
X00526875Y-00409671*
X00524412Y-00411317*
X00522317Y-00413412*
X00520671Y-00415875*
X00519537Y-00418612*
X00519162Y-004205*
X005315*
Y-00408162*
G37*
G36*
X00481499D02*
X00479612Y-00408537D01*
X00476875Y-00409671*
X00474412Y-00411317*
X00472317Y-00413412*
X00470671Y-00415875*
X00469537Y-00418612*
X00469162Y-004205*
X00481499*
Y-00408162*
G37*
G36*
X00498837Y-004255D02*
X00486499D01*
Y-00437837*
X00488386Y-00437461*
X00491123Y-00436328*
X00493587Y-00434682*
X00495682Y-00432587*
X00497328Y-00430123*
X00498461Y-00427386*
X00498837Y-004255*
G37*
G36*
X00548837D02*
X00536499D01*
Y-00437837*
X00538386Y-00437461*
X00541123Y-00436328*
X00543587Y-00434682*
X00545682Y-00432587*
X00547328Y-00430123*
X00548461Y-00427386*
X00548837Y-004255*
G37*
G36*
X005315D02*
X00519162D01*
X00519537Y-00427386*
X00520671Y-00430123*
X00522317Y-00432587*
X00524412Y-00434682*
X00526875Y-00436328*
X00529612Y-00437461*
X005315Y-00437837*
Y-004255*
G37*
G36*
X00481499D02*
X00469162D01*
X00469537Y-00427386*
X00470671Y-00430123*
X00472317Y-00432587*
X00474412Y-00434682*
X00476875Y-00436328*
X00479612Y-00437461*
X00481499Y-00437837*
Y-004255*
G37*
G36*
X00606539Y-00452459D02*
X00596499D01*
Y-00473499*
X00606539*
Y-00458499*
Y-00456999*
Y-00452459*
G37*
G36*
X00591499D02*
X00581459D01*
Y-00456999*
Y-00473499*
X00591499*
Y-00452459*
G37*
G36*
X00668539D02*
X00658499D01*
Y-00473499*
X00668539*
Y-00458499*
Y-00452459*
G37*
G36*
X00653499D02*
X00643459D01*
Y-00456999*
Y-00458499*
Y-00473499*
X00653499*
Y-00452459*
G37*
G36*
X00668539Y-00478499D02*
X00658499D01*
Y-00499539*
X00668539*
Y-00478499*
G37*
G36*
X00653499D02*
X00643459D01*
Y-00499539*
X00653499*
Y-00478499*
G37*
G36*
X00606539Y-00478499D02*
X00596499D01*
Y-00499539*
X00606539*
Y-00478499*
G37*
G36*
X00591499D02*
X00581459D01*
Y-00499539*
X00591499*
Y-00478499*
G37*
G36*
X00735439Y-00509959D02*
X00727899D01*
Y-00517499*
X00735439*
Y-00509959*
G37*
G36*
X00677099Y-00510275D02*
Y-00517499D01*
X00684324*
X00683955Y-00516124*
X00682633Y-00513835*
X00680764Y-00511965*
X00678475Y-00510644*
X00677099Y-00510275*
G37*
G36*
X006721D02*
X00670724Y-00510644D01*
X00668435Y-00511965*
X00666565Y-00513835*
X00665244Y-00516124*
X00664875Y-00517499*
X006721*
Y-00510275*
G37*
G36*
X007229Y-00509959D02*
X00715359D01*
Y-00517499*
X007229*
Y-00509959*
G37*
G36*
X00255589Y-00509809D02*
X00247899D01*
Y-00517499*
X00255589*
Y-00509809*
G37*
G36*
X00242899D02*
X00235209D01*
Y-00517499*
X00242899*
Y-00509809*
G37*
G36*
X00197099Y-0051012D02*
Y-00517499D01*
X00204479*
X00204095Y-00516066*
X00202753Y-00513743*
X00200856Y-00511845*
X00198533Y-00510504*
X00197099Y-0051012*
G37*
G36*
X00192099D02*
X00190666Y-00510504D01*
X00188343Y-00511845*
X00186445Y-00513743*
X00185104Y-00516066*
X0018472Y-00517499*
X00192099*
Y-0051012*
G37*
G36*
X01043299Y-00514775D02*
Y-00521999D01*
X01050524*
X01050155Y-00520624*
X01048834Y-00518335*
X01046964Y-00516465*
X01044675Y-00515144*
X01043299Y-00514775*
G37*
G36*
X01038299D02*
X01036924Y-00515144D01*
X01034635Y-00516465*
X01032766Y-00518335*
X01031444Y-00520624*
X01031075Y-00521999*
X01038299*
Y-00514775*
G37*
G36*
X01000039Y-00514459D02*
X00992499D01*
Y-00521999*
X01000039*
Y-00514459*
G37*
G36*
X00987499D02*
X00979959D01*
Y-00521999*
X00987499*
Y-00514459*
G37*
G36*
X0117004D02*
X01162499D01*
Y-00521999*
X0117004*
Y-00514459*
G37*
G36*
X01111699Y-00514775D02*
Y-00521999D01*
X01118924*
X01118555Y-00520624*
X01117233Y-00518335*
X01115364Y-00516465*
X01113075Y-00515144*
X01111699Y-00514775*
G37*
G36*
X01106699Y-00514775D02*
X01105324Y-00515144D01*
X01103035Y-00516465*
X01101165Y-00518335*
X01099844Y-00520624*
X01099475Y-00521999*
X01106699*
Y-00514775*
G37*
G36*
X01157499Y-00514459D02*
X01149959D01*
Y-00521999*
X01157499*
Y-00514459*
G37*
G36*
X00701154Y-00511229D02*
X00698845D01*
X00696614Y-00511827*
X00694615Y-00512982*
X00692982Y-00514614*
X00691827Y-00516614*
X00691229Y-00518845*
Y-00521154*
X00691827Y-00523385*
X00692982Y-00525384*
X00694615Y-00527017*
X00696614Y-00528172*
X00698845Y-00528769*
X00701154*
X00703384Y-00528172*
X00705384Y-00527017*
X00707017Y-00525384*
X00708172Y-00523385*
X00708769Y-00521154*
Y-00518845*
X00708172Y-00516614*
X00707017Y-00514614*
X00705384Y-00512982*
X00703384Y-00511827*
X00701154Y-00511229*
G37*
G36*
X00221174Y-00511079D02*
X00218825D01*
X00216556Y-00511687*
X00214522Y-00512862*
X00212862Y-00514522*
X00211687Y-00516556*
X00211079Y-00518825*
Y-00521174*
X00211687Y-00523442*
X00212862Y-00525476*
X00214522Y-00527137*
X00216556Y-00528311*
X00218825Y-00528919*
X00221174*
X00223442Y-00528311*
X00225476Y-00527137*
X00227137Y-00525476*
X00228311Y-00523442*
X00228919Y-00521174*
Y-00518825*
X00228311Y-00516556*
X00227137Y-00514522*
X00225476Y-00512862*
X00223442Y-00511687*
X00221174Y-00511079*
G37*
G36*
X00684324Y-00522499D02*
X00677099D01*
Y-00529724*
X00678475Y-00529355*
X00680764Y-00528033*
X00682633Y-00526164*
X00683955Y-00523875*
X00684324Y-00522499*
G37*
G36*
X006721D02*
X00664875D01*
X00665244Y-00523875*
X00666565Y-00526164*
X00668435Y-00528033*
X00670724Y-00529355*
X006721Y-00529724*
Y-00522499*
G37*
G36*
X00204479D02*
X00197099D01*
Y-00529879*
X00198533Y-00529495*
X00200856Y-00528153*
X00202753Y-00526256*
X00204095Y-00523933*
X00204479Y-00522499*
G37*
G36*
X00192099D02*
X0018472D01*
X00185104Y-00523933*
X00186445Y-00526256*
X00188343Y-00528153*
X00190666Y-00529495*
X00192099Y-00529879*
Y-00522499*
G37*
G36*
X00735439D02*
X00727899D01*
Y-00530039*
X00735439*
Y-00522499*
G37*
G36*
X007229D02*
X00715359D01*
Y-00530039*
X007229*
Y-00522499*
G37*
G36*
X00255589D02*
X00247899D01*
Y-00530189*
X00255589*
Y-00522499*
G37*
G36*
X00242899D02*
X00235209D01*
Y-00530189*
X00242899*
Y-00522499*
G37*
G36*
X01135754Y-00515729D02*
X01133445D01*
X01131214Y-00516327*
X01129215Y-00517482*
X01127582Y-00519115*
X01126427Y-00521114*
X01125829Y-00523345*
Y-00525654*
X01126427Y-00527884*
X01127582Y-00529884*
X01129215Y-00531517*
X01131214Y-00532672*
X01133445Y-00533269*
X01135754*
X01137985Y-00532672*
X01139984Y-00531517*
X01141617Y-00529884*
X01142772Y-00527884*
X0114337Y-00525654*
Y-00523345*
X01142772Y-00521114*
X01141617Y-00519115*
X01139984Y-00517482*
X01137985Y-00516327*
X01135754Y-00515729*
G37*
G36*
X01016554D02*
X01014245D01*
X01012014Y-00516327*
X01010014Y-00517482*
X01008382Y-00519115*
X01007227Y-00521114*
X01006629Y-00523345*
Y-00525654*
X01007227Y-00527884*
X01008382Y-00529884*
X01010014Y-00531517*
X01012014Y-00532672*
X01014245Y-00533269*
X01016554*
X01018785Y-00532672*
X01020784Y-00531517*
X01022417Y-00529884*
X01023572Y-00527884*
X01024169Y-00525654*
Y-00523345*
X01023572Y-00521114*
X01022417Y-00519115*
X01020784Y-00517482*
X01018785Y-00516327*
X01016554Y-00515729*
G37*
G36*
X01106699Y-00526999D02*
X01099475D01*
X01099844Y-00528375*
X01101165Y-00530664*
X01103035Y-00532533*
X01105324Y-00533855*
X01106699Y-00534223*
Y-00526999*
G37*
G36*
X01050524D02*
X01043299D01*
Y-00534224*
X01044675Y-00533855*
X01046964Y-00532533*
X01048834Y-00530664*
X01050155Y-00528375*
X01050524Y-00526999*
G37*
G36*
X01038299D02*
X01031075D01*
X01031444Y-00528375*
X01032766Y-00530664*
X01034635Y-00532533*
X01036924Y-00533855*
X01038299Y-00534224*
Y-00526999*
G37*
G36*
X01118924D02*
X01111699D01*
Y-00534224*
X01113075Y-00533855*
X01115364Y-00532533*
X01117233Y-00530664*
X01118555Y-00528375*
X01118924Y-00526999*
G37*
G36*
X0117004D02*
X01162499D01*
Y-00534539*
X0117004*
Y-00526999*
G37*
G36*
X01157499D02*
X01149959D01*
Y-00534539*
X01157499*
Y-00526999*
G37*
G36*
X01000039D02*
X00992499D01*
Y-00534539*
X01000039*
Y-00526999*
G37*
G36*
X00987499D02*
X00979959D01*
Y-00534539*
X00987499*
Y-00526999*
G37*
G36*
X00499539Y-0063246D02*
X00478499D01*
Y-00642499*
X00499539*
Y-0063246*
G37*
G36*
X00345539D02*
X00324499D01*
Y-00642499*
X00345539*
Y-0063246*
G37*
G36*
X00473499D02*
X00452459D01*
Y-00642499*
X00473499*
Y-0063246*
G37*
G36*
X00319499D02*
X00298459D01*
Y-00642499*
X00319499*
Y-0063246*
G37*
G36*
X00951539D02*
X00930499D01*
Y-00642499*
X00951539*
Y-0063246*
G37*
G36*
X00925499D02*
X00904459D01*
Y-00642499*
X00925499*
Y-0063246*
G37*
G36*
X00050539D02*
X00029499D01*
Y-00642499*
X00050539*
Y-0063246*
G37*
G36*
X00796539D02*
X007755D01*
Y-00642499*
X00796539*
Y-0063246*
G37*
G36*
X00770499D02*
X00749459D01*
Y-00642499*
X00770499*
Y-0063246*
G37*
G36*
X01218499D02*
X01197459D01*
Y-006425*
X01218499*
Y-0063246*
G37*
G36*
X00951539Y-00647499D02*
X00930499D01*
Y-00657539*
X00951539*
Y-00647499*
G37*
G36*
X00925499D02*
X00904459D01*
Y-00657539*
X00925499*
Y-00647499*
G37*
G36*
X00796539D02*
X007755D01*
Y-00657539*
X00796539*
Y-00647499*
G37*
G36*
X00770499D02*
X00749459D01*
Y-00657539*
X00770499*
Y-00647499*
G37*
G36*
X00499539D02*
X00478499D01*
Y-00657539*
X00499539*
Y-00647499*
G37*
G36*
X00473499D02*
X00452459D01*
Y-00657539*
X00473499*
Y-00647499*
G37*
G36*
X00345539D02*
X00324499D01*
Y-00657539*
X00345539*
Y-00647499*
G37*
G36*
X00319499D02*
X00298459D01*
Y-00657539*
X00319499*
Y-00647499*
G37*
G36*
X00050539D02*
X00029499D01*
Y-00657539*
X00050539*
Y-00647499*
G37*
G36*
X01218499Y-006475D02*
X01197459D01*
Y-00657539*
X01218499*
Y-006475*
G37*
G36*
X00175849Y-00658229D02*
X0017415D01*
X00172581Y-0065888*
X00171379Y-00660081*
X00170729Y-0066165*
Y-00663349*
X00171379Y-00664918*
X00172581Y-00666119*
X0017415Y-00666769*
X00175849*
X00176663Y-00666432*
X00210227Y-00678051*
X0021038Y-00678418*
X00211581Y-00679619*
X0021315Y-00680269*
X00214849*
X00216418Y-00679619*
X00217619Y-00678418*
X00218269Y-00676849*
Y-0067515*
X00217619Y-00673581*
X00216418Y-00672379*
X00214849Y-00671729*
X0021315*
X00212336Y-00672066*
X00178772Y-00660448*
X00178619Y-00660081*
X00177418Y-0065888*
X00175849Y-00658229*
G37*
G36*
X01218499Y-00694459D02*
X01197459D01*
Y-00704499*
X01218499*
Y-00694459*
G37*
G36*
X00796539D02*
X00775499D01*
Y-00704499*
X00796539*
Y-00694459*
G37*
G36*
X00770499D02*
X00749459D01*
Y-00704499*
X00770499*
Y-00694459*
G37*
G36*
X00050539D02*
X00029499D01*
Y-00704499*
X00050539*
Y-00694459*
G37*
G36*
X00951539D02*
X00930499D01*
Y-00704499*
X00951539*
Y-00694459*
G37*
G36*
X00925499D02*
X00904459D01*
Y-00704499*
X00925499*
Y-00694459*
G37*
G36*
X00499539D02*
X00478499D01*
Y-00704499*
X00499539*
Y-00694459*
G37*
G36*
X00345539D02*
X00324499D01*
Y-00704499*
X00345539*
Y-00694459*
G37*
G36*
X00473499D02*
X00452459D01*
Y-00704499*
X00473499*
Y-00694459*
G37*
G36*
X00319499D02*
X00298459D01*
Y-00704499*
X00319499*
Y-00694459*
G37*
G36*
X00951539Y-00709499D02*
X00930499D01*
Y-00719539*
X00951539*
Y-00709499*
G37*
G36*
X00925499D02*
X00904459D01*
Y-00719539*
X00925499*
Y-00709499*
G37*
G36*
X00796539Y-00709499D02*
X00775499D01*
Y-00719539*
X00796539*
Y-00709499*
G37*
G36*
X00770499D02*
X00749459D01*
Y-00719539*
X00770499*
Y-00709499*
G37*
G36*
X00499539Y-00709499D02*
X00478499D01*
Y-00719539*
X00499539*
Y-00709499*
G37*
G36*
X00473499D02*
X00452459D01*
Y-00719539*
X00473499*
Y-00709499*
G37*
G36*
X00345539D02*
X00324499D01*
Y-00719539*
X00345539*
Y-00709499*
G37*
G36*
X00319499D02*
X00298459D01*
Y-00719539*
X00319499*
Y-00709499*
G37*
G36*
X00050539Y-00709499D02*
X00029499D01*
Y-00719539*
X00050539*
Y-00709499*
G37*
G36*
X01218499D02*
X01197459D01*
Y-00719539*
X01218499*
Y-00709499*
G37*
G36*
X00893539Y-00749459D02*
X00883499D01*
Y-00770499*
X00893539*
Y-00749459*
G37*
G36*
X00878499D02*
X00868459D01*
Y-00770499*
X00878499*
Y-00749459*
G37*
G36*
X00831539D02*
X008215D01*
Y-00770499*
X00831539*
Y-00749459*
G37*
G36*
X008165D02*
X00806459D01*
Y-00770499*
X008165*
Y-00749459*
G37*
G36*
X00380539Y-00750459D02*
X00370499D01*
Y-00771499*
X00380539*
Y-00750459*
G37*
G36*
X00365499D02*
X00355459D01*
Y-00771499*
X00365499*
Y-00750459*
G37*
G36*
X00442539D02*
X00432499D01*
Y-00771499*
X00442539*
Y-00750459*
G37*
G36*
X00427499D02*
X00417459D01*
Y-00771499*
X00427499*
Y-00750459*
G37*
%LNradar_1ghz_copper_signal_bot-3*%
%LPD*%
G36*
X00221525Y-00048433D02*
X00224068Y-00049115D01*
X00226615*
X00229999Y-00052499*
Y-00085719*
X00128779*
X00125874Y-00088624*
Y-00155874*
X00139999Y-00169999*
Y-00254999*
X00127499Y-00267499*
Y-00289999*
X00120299*
X00119959Y-00288729*
X00121164Y-00288033*
X00123033Y-00286164*
X00124355Y-00283875*
X00124724Y-00282499*
X00105275*
X00105644Y-00283875*
X00106965Y-00286164*
X00108835Y-00288033*
X0011004Y-00288729*
X001097Y-00289999*
X00102499*
Y-00063124*
X00114999Y-00047499*
X00119907*
X00121525Y-00048433*
X00124068Y-00049115*
X00126702*
X00129245Y-00048433*
X00130863Y-00047499*
X00144907*
X00146525Y-00048433*
X00149068Y-00049115*
X00151702*
X00154245Y-00048433*
X00155863Y-00047499*
X00169907*
X00171525Y-00048433*
X00174068Y-00049115*
X00176701*
X00179245Y-00048433*
X00180863Y-00047499*
X00194907*
X00196525Y-00048433*
X00199068Y-00049115*
X00201701*
X00204245Y-00048433*
X00205863Y-00047499*
X00219907*
X00221525Y-00048433*
G37*
G36*
X00247499Y-00157499D02*
Y-00289999D01*
X00240299*
X00239959Y-00288729*
X00241164Y-00288033*
X00243033Y-00286164*
X00244355Y-00283875*
X00244724Y-002825*
X00234999*
X00225275*
X00225643Y-00283875*
X00226965Y-00286164*
X00228835Y-00288033*
X0023004Y-00288729*
X002297Y-00289999*
X00221599*
Y-00177899*
X00217999Y-00174299*
Y-00171999*
X00215699*
X00213699Y-00169999*
X00145097*
X00144709Y-00168048*
X00143604Y-00166395*
X00130972Y-00153763*
Y-00127499*
X0017652*
X00176773Y-00128769*
X00176206Y-00129005*
X00175004Y-00130205*
X00174354Y-00131775*
Y-00133474*
X00175004Y-00135043*
X00176206Y-00136244*
X00177775Y-00136894*
X00179474*
X00181043Y-00136244*
X00182244Y-00135043*
X00182894Y-00133474*
Y-00131775*
X00182244Y-00130205*
X00181043Y-00129005*
X00180476Y-00128769*
X00180728Y-00127499*
X00217499*
X00247499Y-00157499*
G37*
%LNradar_1ghz_copper_signal_bot-4*%
%LPC*%
G36*
X00193178Y-00054874D02*
X00191071D01*
X00189036Y-0005542*
X00187212Y-00056473*
X00185723Y-00057962*
X0018467Y-00059786*
X00184124Y-00061821*
Y-00063927*
X0018467Y-00065962*
X00185723Y-00067786*
X00187212Y-00069276*
X00189036Y-00070329*
X00191071Y-00070874*
X00193178*
X00195212Y-00070329*
X00197036Y-00069276*
X00198526Y-00067786*
X00199579Y-00065962*
X00200124Y-00063927*
Y-00061821*
X00199579Y-00059786*
X00198526Y-00057962*
X00197036Y-00056473*
X00195212Y-0005542*
X00193178Y-00054874*
G37*
G36*
X00117499Y-00270275D02*
Y-00277499D01*
X00124724*
X00124355Y-00276124*
X00123033Y-00273835*
X00121164Y-00271965*
X00118875Y-00270644*
X00117499Y-00270275*
G37*
G36*
X00112499D02*
X00111124Y-00270644D01*
X00108835Y-00271965*
X00106965Y-00273835*
X00105644Y-00276124*
X00105275Y-00277499*
X00112499*
Y-00270275*
G37*
G36*
X00191849Y-00153729D02*
X0019015D01*
X00188581Y-00154379*
X00187379Y-00155581*
X00186729Y-0015715*
Y-00158849*
X00187379Y-00160418*
X00188581Y-00161619*
X0019015Y-00162269*
X00191849*
X00193418Y-00161619*
X00194619Y-00160418*
X00195269Y-00158849*
Y-0015715*
X00194619Y-00155581*
X00193418Y-00154379*
X00191849Y-00153729*
G37*
G36*
X00237499Y-00270275D02*
Y-002775D01*
X00244724*
X00244355Y-00276124*
X00243033Y-00273835*
X00241164Y-00271965*
X00238875Y-00270644*
X00237499Y-00270275*
G37*
G36*
X00232499D02*
X00231124Y-00270644D01*
X00228835Y-00271965*
X00226965Y-00273835*
X00225643Y-00276124*
X00225275Y-002775*
X00232499*
Y-00270275*
G37*
%LNradar_1ghz_copper_signal_bot-5*%
%LPD*%
G54D10*
X00174999Y-00662499D02*
X00213999Y-00675999D01*
X00644999Y-00189999D02*
X00704999Y-00249999D01*
X00644999Y-00189999D02*
Y-00134999D01*
G54D14*
X00321999Y-00706999D03*
Y-00644999D03*
X00027999Y-00092999D03*
Y-00154999D03*
X00322999D03*
Y-00092999D03*
X00026999Y-00706999D03*
Y-00644999D03*
X00772999Y-00092999D03*
Y-00154999D03*
X01220999Y-00644999D03*
Y-00706999D03*
X00925999Y-00154999D03*
Y-00092999D03*
X00772999Y-00644999D03*
Y-00706999D03*
X00927999D03*
Y-00644999D03*
X01221999Y-00092999D03*
Y-00154999D03*
X00475999Y-00706999D03*
Y-00644999D03*
X00476999Y-00154999D03*
Y-00092999D03*
G54D21*
X00655999Y-00475999D03*
X00593999D03*
X00818999Y-00772999D03*
X00880999D03*
X00367999Y-00773999D03*
X00429999D03*
X00818999Y-00026999D03*
X00880999D03*
X00368999Y-00025999D03*
X00430999D03*
X00655999Y-00321999D03*
X00593999D03*
G54D76*
X01040399Y-00269499D03*
X01014999D03*
X00674599Y-00519999D03*
X00699999D03*
X01134599Y-00524499D03*
X01109199D03*
X010154D03*
X010408D03*
X00234999Y-00279999D03*
X00209599D03*
X00114999D03*
X00140399D03*
G54D77*
X00989599Y-00269499D03*
X00725399Y-00519999D03*
X01159999Y-00524499D03*
X0099D03*
X00260399Y-00279999D03*
X00089599D03*
G54D78*
X00659599Y-00064999D03*
X00245399Y-00519999D03*
G54D79*
X00684999Y-00064999D03*
X00710399D03*
X00194599Y-00519999D03*
X00219999D03*
G54D80*
X00508999Y-00397999D03*
X00483999Y-00372999D03*
Y-00422999D03*
X00533999D03*
Y-00372999D03*
G54D81*
X00639114Y-00655114D03*
X00638999Y-00683999D03*
X00689684Y-00653769D03*
X01079999Y-00094999D03*
X01090999Y-00103999D03*
X01045999Y-00243999D03*
X00978999Y-00168999D03*
X00995999D03*
X01053999Y-00641999D03*
X01070999Y-00697999D03*
X01037999D03*
X01071999Y-00651999D03*
X01005999Y-00624999D03*
X00999999Y-00569499D03*
X01176749Y-00613999D03*
X01175999Y-00635D03*
X00174999Y-00662499D03*
X00097499Y-00629249D03*
X00208888Y-00157111D03*
X00192124Y-00062874D03*
X00081999Y-00248999D03*
X00211779Y-00083889D03*
X00178624Y-00132624D03*
X00602999Y-00610999D03*
X00617999Y-00598031D03*
Y-00578999D03*
X00644999Y-00087999D03*
X00704331Y-00106917D03*
X00653999Y-00134999D03*
X00704999Y-00257999D03*
X00644999Y-00134999D03*
X00704999Y-00249999D03*
X00724999Y-00174999D03*
X00659999Y-00279999D03*
X00684999Y-00129999D03*
X00569999Y-00154999D03*
X00519999D03*
X00594999D03*
Y-00174999D03*
Y-00269999D03*
X00191999Y-00578999D03*
X00191499Y-00561749D03*
X00213999Y-00675999D03*
X00114999Y-00727249D03*
X00064999Y-00705749D03*
X00174999Y-00654999D03*
X00217999Y-00667999D03*
X00190999Y-00157999D03*
X00137999Y-00132999D03*
X00183249Y-00255249D03*
X00175999Y-00228999D03*
X00136999D03*
X00076489Y-00108299D03*
X00140249Y-00083999D03*
X00076489Y-00090519D03*
X00257499Y-00073749D03*
Y-00130999D03*
X0025575Y-00170749D03*
X00259749Y-00225749D03*
X00078249Y-00183749D03*
Y-00202249D03*
X01042999Y-00223999D03*
X01125999Y-00160999D03*
Y-00196999D03*
Y-00178999D03*
X01175999Y-00095999D03*
X01119999D03*
X00970999D03*
X00997499Y-00705999D03*
X00139999Y-00627999D03*
X00228749Y-00637999D03*
X00254999D03*
G54D82*
X00249999Y-00759999D03*
X00224999D03*
X00099999D03*
X00124999D03*
X00074999D03*
X00274999D03*
X00174999D03*
X00149999D03*
X00199999D03*
X00699999Y-00039499D03*
X00549999D03*
X00599999D03*
X00574999D03*
X00524999D03*
X00674999D03*
X00624999D03*
X00649999D03*
X00724999D03*
Y-00309499D03*
X00125385Y-00039115D03*
X00100385D03*
X00075385D03*
X00150385D03*
X00175385D03*
X00200385D03*
X00225385D03*
X00275385D03*
X00250385D03*
X00310385Y-00224115D03*
Y-00249115D03*
Y-00274115D03*
Y-00199115D03*
X00524999Y-00309499D03*
X00489999Y-00249499D03*
Y-00224499D03*
X00549999Y-00309499D03*
X00489999Y-00199499D03*
X00759999D03*
X00699999Y-00309499D03*
X00489999Y-00274499D03*
X00759999D03*
Y-00224499D03*
Y-00249499D03*
X00075385Y-00309115D03*
X00100385D03*
X00125385D03*
X00175385D03*
X00200385D03*
X00275385D03*
X00225385D03*
X00250385D03*
X00150385D03*
X00040385Y-00199115D03*
Y-00224115D03*
Y-00249115D03*
Y-00274115D03*
X00939999Y-00249499D03*
Y-00274499D03*
X01209999Y-00199499D03*
Y-00274499D03*
Y-00249499D03*
Y-00224499D03*
X00974999Y-00309499D03*
X01149999D03*
X01074999D03*
X01024999D03*
X01049999D03*
X01099999D03*
X01124999D03*
X00999999D03*
X01174999D03*
Y-00039499D03*
X01099999D03*
X01074999D03*
X01124999D03*
X00974999D03*
X01024999D03*
X01049999D03*
X00999999D03*
X01149999D03*
X00939999Y-00224499D03*
Y-00199499D03*
X01125Y-00759499D03*
X01149999D03*
X01174999D03*
X01209999Y-00599499D03*
Y-00574499D03*
X00939999Y-00599499D03*
Y-00574499D03*
Y-00549499D03*
Y-00524499D03*
X00975Y-00489499D03*
X01D03*
X01024999D03*
X01049999D03*
X01074999D03*
X011D03*
X01125D03*
X01149999D03*
X01174999D03*
X01209999Y-00524499D03*
Y-00549499D03*
X01Y-00759499D03*
X01024999D03*
X01049999D03*
X01074999D03*
X011D03*
X00975D03*
X00759999Y-00573999D03*
Y-00523999D03*
Y-00598999D03*
Y-00548999D03*
X00489999Y-00573999D03*
Y-00523999D03*
Y-00548999D03*
Y-00598999D03*
X00699999Y-00758999D03*
X00624999D03*
X00599999D03*
X00649999D03*
X00724999D03*
X00549999D03*
X00524999D03*
X00574999D03*
X00674999D03*
X00549999Y-00488999D03*
X00524999D03*
X00699999D03*
X00724999D03*
X00536359Y-00716899D03*
X00554139D03*
X00574999Y-00716499D03*
X00591999D03*
X00124999Y-00489999D03*
X00224999D03*
X00274999D03*
X00249999D03*
X00074999D03*
X00149999D03*
X00199999D03*
X00174999D03*
X00099999D03*
X00039999Y-00599999D03*
Y-00549999D03*
Y-00524999D03*
Y-00574999D03*
X00309999Y-00549999D03*
Y-00599999D03*
Y-00524999D03*
Y-00574999D03*
G54D83*
X00319999Y-00769999D03*
X00029999D03*
X00479999Y-00319499D03*
Y-00029499D03*
X00320385Y-00029115D03*
X00030385D03*
X00769999Y-00029499D03*
Y-00319499D03*
X00320385Y-00319115D03*
X00030385D03*
X01219999Y-00319499D03*
X00929999D03*
Y-00029499D03*
X01219999D03*
Y-00769499D03*
X00929999Y-00479499D03*
X01219999D03*
X00929999Y-00769499D03*
X00479999Y-00768999D03*
X00769999D03*
Y-00478999D03*
X00479999D03*
X00029999Y-00479999D03*
X00319999D03*
M02*