%FSTAX44Y44*%
%MOMM*%
%SFA1B1*%

%IPPOS*%
%AMD110*
4,1,8,-0.701040,-0.241300,0.701040,-0.241300,0.835660,-0.104140,0.835660,0.104140,0.701040,0.241300,-0.701040,0.241300,-0.835660,0.104140,-0.835660,-0.104140,-0.701040,-0.241300,0.0*
1,1,0.273200,-0.701040,-0.104140*
1,1,0.273200,0.701040,-0.104140*
1,1,0.273200,0.701040,0.104140*
1,1,0.273200,-0.701040,0.104140*
%
%ADD19R,0.787398X0.355599*%
%ADD24R,0.355599X0.787398*%
%ADD25R,0.304799X0.507999*%
%ADD26R,1.142998X0.457199*%
%ADD100R,1.203198X1.103198*%
%ADD101R,1.103198X1.203198*%
%ADD102R,4.403191X1.403197*%
%ADD103R,4.403191X2.203196*%
%ADD104R,2.303195X1.103198*%
%ADD105R,2.303195X3.403193*%
%ADD106R,1.603197X1.403197*%
%ADD107R,1.403197X1.603197*%
%ADD108R,1.403197X4.403191*%
%ADD109R,2.203196X4.403191*%
G04~CAMADD=110~8~0.0~0.0~658.7~190.2~53.8~0.0~15~0.0~0.0~0.0~0.0~0~0.0~0.0~0.0~0.0~0~0.0~0.0~0.0~180.0~658.0~190.0*
%ADD110D110*%
%ADD111R,1.353197X0.803198*%
%ADD112R,1.353197X0.703199*%
%ADD113R,1.353197X1.003198*%
%ADD114R,1.223198X1.093198*%
%ADD115C,1.703197*%
%ADD116R,1.703197X1.703197*%
%ADD117R,1.733197X1.733197*%
%ADD118C,1.733197*%
%ADD119C,2.703195*%
%ADD120C,3.703193*%
%LNradar_1ghz_soldermask_top-1*%
%LPD*%
G54D19*
X00674331Y-00123499D03*
Y-00129999D03*
Y-00136499D03*
X00695667D03*
Y-00129999D03*
Y-00123499D03*
G54D24*
X00624499Y-00609667D03*
X00617999D03*
X00611499D03*
Y-00588331D03*
X00617999D03*
X00624499D03*
G54D25*
X0063373Y-00664379D03*
X00639229D03*
X00644729D03*
Y-00674379D03*
X00639229D03*
X0063373D03*
G54D26*
X00606109Y-00124999D03*
X00623889Y-00118499D03*
Y-00131499D03*
G54D100*
X00995999Y-00196749D03*
Y-00179249D03*
X01024999Y-00606249D03*
Y-00588749D03*
X01032499Y-00658749D03*
Y-00641249D03*
X00097499Y-00639999D03*
Y-00657499D03*
X00674999Y-00157499D03*
Y-00174999D03*
X00624999Y-00407249D03*
Y-00424749D03*
X00659999Y-00249999D03*
Y-00267499D03*
X00254999Y-00627249D03*
Y-00609749D03*
X00064999Y-00694999D03*
Y-00677499D03*
X00624999Y-00388749D03*
Y-00371249D03*
X00212999Y-00723249D03*
Y-00740749D03*
X00204999Y-00610249D03*
Y-00627749D03*
X00139999Y-00656249D03*
Y-00638749D03*
X00164999D03*
Y-00656249D03*
X01042499Y-00588749D03*
Y-00606249D03*
X01027999Y-00196749D03*
Y-00179249D03*
X00246749Y-00113499D03*
Y-00130999D03*
X00228499Y-00130749D03*
Y-00113249D03*
X00125249Y-00123249D03*
Y-00105749D03*
X00126749Y-00181999D03*
Y-00164499D03*
X00274749Y-00190249D03*
Y-00172749D03*
X00124999Y-00089499D03*
Y-00071999D03*
X00126499Y-00216499D03*
Y-00198999D03*
X00227999Y-00225999D03*
Y-00208499D03*
X00247749Y-00208249D03*
Y-00225749D03*
X00591999Y-00688249D03*
Y-00705749D03*
X00554139Y-00688649D03*
Y-00706149D03*
X00212999Y-00691999D03*
Y-00709499D03*
X00644999Y-00117999D03*
Y-00100499D03*
Y-00174999D03*
Y-00157499D03*
X00624999Y-00212499D03*
Y-00229999D03*
X00274749Y-00208249D03*
Y-00225749D03*
X00271249Y-00113499D03*
Y-00130999D03*
X00609999Y-00551249D03*
Y-00568749D03*
X00624999Y-00625249D03*
Y-00642749D03*
X00642999Y-00584249D03*
Y-00601749D03*
X00574999Y-00688249D03*
Y-00705749D03*
X00536359Y-00688649D03*
Y-00706149D03*
X01175999Y-00123999D03*
Y-00106499D03*
X00970999Y-00123749D03*
Y-00106249D03*
X01119999Y-00123999D03*
Y-00106499D03*
X01078999Y-00161749D03*
Y-00144249D03*
X01053999Y-00161749D03*
Y-00144249D03*
X00978999Y-00179249D03*
Y-00196749D03*
X00997499Y-00676249D03*
Y-00693749D03*
X00175999Y-00723249D03*
Y-00740749D03*
Y-00689499D03*
Y-00706999D03*
X00228749Y-00609749D03*
Y-00627249D03*
X00519999Y-00124999D03*
Y-00142499D03*
X00569999Y-00124999D03*
Y-00142499D03*
G54D101*
X01075749Y-00196999D03*
X01058249D03*
X01015249Y-00674999D03*
X01032749D03*
X01170749Y-00676499D03*
X01188249D03*
X01148249Y-00677999D03*
X01130749D03*
X01145749Y-00652999D03*
X01128249D03*
X00963249Y-00675999D03*
X00980749D03*
X01146249Y-00635D03*
X01163749D03*
X00677499Y-00249999D03*
X00694999D03*
X00730999Y-00123999D03*
X00713499D03*
X00607499Y-00269999D03*
X00624999D03*
X00642499Y-00249999D03*
X00624999D03*
X00859249Y-00675999D03*
X00876749D03*
X00823249D03*
X00840749D03*
X00202749Y-00578999D03*
X00220249D03*
X00097499Y-00677499D03*
X00079999D03*
X00859249Y-00123999D03*
X00876749D03*
X00823249D03*
X00840749D03*
X00408249Y-00675999D03*
X00425749D03*
X00372249D03*
X00389749D03*
X00426749Y-00123999D03*
X00409249D03*
X00390749D03*
X00373249D03*
X00255249Y-00577999D03*
X00237749D03*
X01058249Y-00179999D03*
X01075749D03*
X01115749Y-00196999D03*
X01098249D03*
X00996749Y-00223999D03*
X00979249D03*
X00662249Y-00653999D03*
X00679749D03*
X00104739Y-00108299D03*
X00087239D03*
X00144499Y-00165999D03*
X00161999D03*
X00227249Y-00190749D03*
X00244749D03*
X00147249Y-00072749D03*
X00164749D03*
X00228999Y-00092999D03*
X00246499D03*
X00261749D03*
X00279249D03*
X00106499Y-00202249D03*
X00088999D03*
X00133749Y-00677499D03*
X00116249D03*
X00536249Y-00124999D03*
X00553749D03*
X00607499Y-00154999D03*
X00624999D03*
X00642499Y-00194999D03*
X00624999D03*
X00209749Y-00073749D03*
X00192249D03*
X00148499Y-00229249D03*
X00165999D03*
X00148749Y-00132249D03*
X00166249D03*
X00208249Y-00168249D03*
X00190749D03*
X00106249Y-00164249D03*
X00088749D03*
X00104739Y-00072739D03*
X00087239D03*
X00106499Y-00183749D03*
X00088999D03*
X00227499Y-00170749D03*
X00244999D03*
X00104739Y-00090519D03*
X00087239D03*
X00229249Y-00073749D03*
X00246749D03*
X00610749Y-00675999D03*
X00593249D03*
X00571749D03*
X00554249D03*
X00533749D03*
X00516249D03*
X01139249Y-00123999D03*
X01156749D03*
X00990249D03*
X01007749D03*
X01097999Y-00178999D03*
X01115499D03*
X01097999Y-00160999D03*
X01115499D03*
X01032499Y-00223999D03*
X01014999D03*
X01033999Y-00624999D03*
X01016499D03*
X00260249Y-00675999D03*
X00277749D03*
X00148749Y-00677499D03*
X00166249D03*
X00714999Y-00249999D03*
X00732499D03*
X00712499Y-00174999D03*
X00694999D03*
X00607499D03*
X00624999D03*
X00674331Y-00106917D03*
X00691831D03*
G54D102*
X00321999Y-00675999D03*
X00027999Y-00123999D03*
X00322999D03*
X00026999Y-00675999D03*
X00772999Y-00123999D03*
X01220999Y-00675999D03*
X00925999Y-00123999D03*
X00772999Y-00675999D03*
X00927999D03*
X01221999Y-00123999D03*
X00475999Y-00675999D03*
X00476999Y-00123999D03*
G54D103*
X00321999Y-00706999D03*
Y-00644999D03*
X00027999Y-00092999D03*
Y-00154999D03*
X00322999D03*
Y-00092999D03*
X00026999Y-00706999D03*
Y-00644999D03*
X00772999Y-00092999D03*
Y-00154999D03*
X01220999Y-00644999D03*
Y-00706999D03*
X00925999Y-00154999D03*
Y-00092999D03*
X00772999Y-00644999D03*
Y-00706999D03*
X00927999D03*
Y-00644999D03*
X01221999Y-00092999D03*
Y-00154999D03*
X00475999Y-00706999D03*
Y-00644999D03*
X00476999Y-00154999D03*
Y-00092999D03*
G54D104*
X01053999Y-00651999D03*
Y-00674999D03*
Y-00697999D03*
G54D105*
X01110999Y-00674999D03*
G54D106*
X01121999Y-00726499D03*
Y-00744499D03*
X00114999Y-00716499D03*
Y-006985D03*
G54D107*
X01163999Y-00614999D03*
X01145999D03*
X00195999Y-00254999D03*
X00213999D03*
X00202249Y-00561749D03*
X00220249D03*
X00113249Y-00248499D03*
X0009525D03*
X01014999Y-00243999D03*
X01032999D03*
X01014499Y-00569999D03*
X01032499D03*
G54D108*
X00624999Y-00475999D03*
X00849999Y-00772999D03*
X00398999Y-00773999D03*
X00849999Y-00026999D03*
X00399999Y-00025999D03*
X00624999Y-00321999D03*
G54D109*
X00655999Y-00475999D03*
X00593999D03*
X00818999Y-00772999D03*
X00880999D03*
X00367999Y-00773999D03*
X00429999D03*
X00818999Y-00026999D03*
X00880999D03*
X00368999Y-00025999D03*
X00430999D03*
X00655999Y-00321999D03*
X00593999D03*
G54D110*
X00200399Y-00113219D03*
Y-00108219D03*
Y-00103219D03*
Y-00098219D03*
Y-00093219D03*
X00157399D03*
Y-00098219D03*
Y-00103219D03*
Y-00108219D03*
Y-00113219D03*
G54D111*
X01054299Y-00113999D03*
X01079699Y-00103839D03*
Y-00124159D03*
G54D112*
X00203999Y-00675999D03*
X00185499Y-00662999D03*
Y-00675999D03*
G54D113*
X00203999Y-00664499D03*
G54D114*
X01027999Y-00123859D03*
Y-00140139D03*
X01097999Y-00140279D03*
Y-00123999D03*
G54D115*
X01040399Y-00269499D03*
X01014999D03*
X00674599Y-00519999D03*
X00699999D03*
X01134599Y-00524499D03*
X01109199D03*
X010154D03*
X010408D03*
X00234999Y-00279999D03*
X00209599D03*
X00114999D03*
X00140399D03*
G54D116*
X00989599Y-00269499D03*
X00725399Y-00519999D03*
X01159999Y-00524499D03*
X0099D03*
X00260399Y-00279999D03*
X00089599D03*
G54D117*
X00659599Y-00064999D03*
X00245399Y-00519999D03*
G54D118*
X00684999Y-00064999D03*
X00710399D03*
X00194599Y-00519999D03*
X00219999D03*
G54D119*
X00508999Y-00397999D03*
X00483999Y-00372999D03*
Y-00422999D03*
X00533999D03*
Y-00372999D03*
G54D120*
X00319999Y-00769999D03*
X00029999D03*
X00479999Y-00319499D03*
Y-00029499D03*
X00320385Y-00029115D03*
X00030385D03*
X00769999Y-00029499D03*
Y-00319499D03*
X00320385Y-00319115D03*
X00030385D03*
X01219999Y-00319499D03*
X00929999D03*
Y-00029499D03*
X01219999D03*
Y-00769499D03*
X00929999Y-00479499D03*
X01219999D03*
X00929999Y-00769499D03*
X00479999Y-00768999D03*
X00769999D03*
Y-00478999D03*
X00479999D03*
X00029999Y-00479999D03*
X00319999D03*
M02*