%FSTAX44Y44*%
%MOMM*%
%SFA1B1*%

%IPPOS*%
%ADD97C,0.127000*%
%LNradar_1ghz_drillmap_1-1*%
%LPD*%
G54D97*
X01035899Y-00269499D02*
X01044899D01*
X01040399Y-00273999D02*
Y-00264999D01*
X01010499Y-00269499D02*
X01019499D01*
X01014999Y-00273999D02*
Y-00264999D01*
X00985099Y-00269499D02*
X00994099D01*
X00989599Y-00273999D02*
Y-00264999D01*
X00670099Y-00519999D02*
X00679099D01*
X00674599Y-00524499D02*
Y-00515499D01*
X00695499Y-00519999D02*
X00704499D01*
X00699999Y-00524499D02*
Y-00515499D01*
X00720899Y-00519999D02*
X00729899D01*
X00725399Y-00524499D02*
Y-00515499D01*
X00654499Y-00064999D02*
X00664699D01*
X00659599Y-00070099D02*
Y-00059899D01*
X00679899Y-00064999D02*
X00690099D01*
X00684999Y-00070099D02*
Y-00059899D01*
X00705299Y-00064999D02*
X00715499D01*
X00710399Y-00070099D02*
Y-00059899D01*
X00189499Y-00519999D02*
X00199699D01*
X00194599Y-00525099D02*
Y-00514899D01*
X00214899Y-00519999D02*
X00225099D01*
X00219999Y-00525099D02*
Y-00514899D01*
X00240299Y-00519999D02*
X00250499D01*
X00245399Y-00525099D02*
Y-00514899D01*
X00501499Y-00397999D02*
X00516499D01*
X00508999Y-00405499D02*
Y-00390499D01*
X00476499Y-00372999D02*
X00491499D01*
X00483999Y-00380499D02*
Y-00365499D01*
X00476499Y-00422999D02*
X00491499D01*
X00483999Y-00430499D02*
Y-00415499D01*
X00526499Y-00422999D02*
X00541499D01*
X00533999Y-00430499D02*
Y-00415499D01*
X00526499Y-00372999D02*
X00541499D01*
X00533999Y-00380499D02*
Y-00365499D01*
X01155499Y-00524499D02*
X011645D01*
X01159999Y-00528999D02*
Y-00519999D01*
X01130099Y-00524499D02*
X011391D01*
X01134599Y-00528999D02*
Y-00519999D01*
X01104699Y-00524499D02*
X011137D01*
X01109199Y-00528999D02*
Y-00519999D01*
X00985499Y-00524499D02*
X00994499D01*
X0099Y-00528999D02*
Y-00519999D01*
X01010899Y-00524499D02*
X01019899D01*
X010154Y-00528999D02*
Y-00519999D01*
X01036299Y-00524499D02*
X01045299D01*
X010408Y-00528999D02*
Y-00519999D01*
X00255899Y-00279999D02*
X00264899D01*
X00260399Y-00284499D02*
Y-00275499D01*
X00230499Y-00279999D02*
X00239499D01*
X00234999Y-00284499D02*
Y-00275499D01*
X00205099Y-00279999D02*
X00214099D01*
X00209599Y-00284499D02*
Y-00275499D01*
X00085099Y-00279999D02*
X00094099D01*
X00089599Y-00284499D02*
Y-00275499D01*
X00110499Y-00279999D02*
X00119499D01*
X00114999Y-00284499D02*
Y-00275499D01*
X00135899Y-00279999D02*
X00144899D01*
X00140399Y-00284499D02*
Y-00275499D01*
X00637614Y-00655114D02*
X00640614D01*
X00639114Y-00656614D02*
Y-00653614D01*
X00637499Y-00683999D02*
X00640499D01*
X00638999Y-00685499D02*
Y-00682499D01*
X00688184Y-00653769D02*
X00691184D01*
X00689684Y-00655269D02*
Y-00652269D01*
X01078499Y-00094999D02*
X01081499D01*
X01079999Y-00096499D02*
Y-00093499D01*
X01089499Y-00103999D02*
X01092499D01*
X01090999Y-00105499D02*
Y-00102499D01*
X01044499Y-00243999D02*
X01047499D01*
X01045999Y-00245499D02*
Y-00242499D01*
X00977499Y-00168999D02*
X00980499D01*
X00978999Y-00170499D02*
Y-00167499D01*
X00994499Y-00168999D02*
X00997499D01*
X00995999Y-00170499D02*
Y-00167499D01*
X01052499Y-00641999D02*
X01055499D01*
X01053999Y-00643499D02*
Y-00640499D01*
X01069499Y-00697999D02*
X01072499D01*
X01070999Y-00699499D02*
Y-00696499D01*
X01036499Y-00697999D02*
X01039499D01*
X01037999Y-00699499D02*
Y-00696499D01*
X01070499Y-00651999D02*
X01073499D01*
X01071999Y-00653499D02*
Y-00650499D01*
X01004499Y-00624999D02*
X01007499D01*
X01005999Y-00626499D02*
Y-00623499D01*
X00998499Y-00569499D02*
X01001499D01*
X00999999Y-00570999D02*
Y-00567999D01*
X01175249Y-00613999D02*
X01178249D01*
X01176749Y-00615499D02*
Y-00612499D01*
X01174499Y-00635D02*
X01177499D01*
X01175999Y-00636499D02*
Y-00633499D01*
X00173499Y-00662499D02*
X00176499D01*
X00174999Y-00663999D02*
Y-00660999D01*
X00095999Y-00629249D02*
X00098999D01*
X00097499Y-00630749D02*
Y-00627749D01*
X00207388Y-00157111D02*
X00210388D01*
X00208888Y-00158611D02*
Y-00155611D01*
X00190624Y-00062874D02*
X00193624D01*
X00192124Y-00064374D02*
Y-00061374D01*
X00080499Y-00248999D02*
X00083499D01*
X00081999Y-00250499D02*
Y-00247499D01*
X00210279Y-00083889D02*
X00213279D01*
X00211779Y-00085389D02*
Y-00082389D01*
X00177124Y-00132624D02*
X00180124D01*
X00178624Y-00134124D02*
Y-00131124D01*
X00601499Y-00610999D02*
X00604499D01*
X00602999Y-00612499D02*
Y-00609499D01*
X00616499Y-00598031D02*
X00619499D01*
X00617999Y-00599531D02*
Y-00596531D01*
X00616499Y-00578999D02*
X00619499D01*
X00617999Y-00580499D02*
Y-00577499D01*
X00643499Y-00087999D02*
X00646499D01*
X00644999Y-00089499D02*
Y-00086499D01*
X00702831Y-00106917D02*
X00705831D01*
X00704331Y-00108417D02*
Y-00105417D01*
X00652499Y-00134999D02*
X00655499D01*
X00653999Y-00136499D02*
Y-00133499D01*
X00703499Y-00257999D02*
X00706499D01*
X00704999Y-00259499D02*
Y-00256499D01*
X00643499Y-00134999D02*
X00646499D01*
X00644999Y-00136499D02*
Y-00133499D01*
X00703499Y-00249999D02*
X00706499D01*
X00704999Y-00251499D02*
Y-00248499D01*
X00723499Y-00174999D02*
X00726499D01*
X00724999Y-00176499D02*
Y-00173499D01*
X00658499Y-00279999D02*
X00661499D01*
X00659999Y-00281499D02*
Y-00278499D01*
X00683499Y-00129999D02*
X00686499D01*
X00684999Y-00131499D02*
Y-00128499D01*
X00568499Y-00154999D02*
X005715D01*
X00569999Y-00156499D02*
Y-00153499D01*
X00518499Y-00154999D02*
X00521499D01*
X00519999Y-00156499D02*
Y-00153499D01*
X00593499Y-00154999D02*
X00596499D01*
X00594999Y-00156499D02*
Y-00153499D01*
X00593499Y-00174999D02*
X00596499D01*
X00594999Y-00176499D02*
Y-00173499D01*
X00593499Y-00269999D02*
X00596499D01*
X00594999Y-00271499D02*
Y-00268499D01*
X001905Y-00578999D02*
X00193499D01*
X00191999Y-00580499D02*
Y-00577499D01*
X00189999Y-00561749D02*
X00192999D01*
X00191499Y-00563249D02*
Y-00560249D01*
X00212499Y-00675999D02*
X00215499D01*
X00213999Y-00677499D02*
Y-00674499D01*
X00113499Y-00727249D02*
X00116499D01*
X00114999Y-00728749D02*
Y-00725749D01*
X000635Y-00705749D02*
X00066499D01*
X00064999Y-00707249D02*
Y-00704249D01*
X00173499Y-00654999D02*
X00176499D01*
X00174999Y-00656499D02*
Y-00653499D01*
X00216499Y-00667999D02*
X00219499D01*
X00217999Y-00669499D02*
Y-00666499D01*
X00246999Y-00759999D02*
X00252999D01*
X00249999Y-00762999D02*
Y-00756999D01*
X00221999Y-00759999D02*
X00227999D01*
X00224999Y-00762999D02*
Y-00756999D01*
X00096999Y-00759999D02*
X00102999D01*
X00099999Y-00762999D02*
Y-00756999D01*
X003025Y-00769999D02*
X00337499D01*
X00319999Y-00787499D02*
Y-00752499D01*
X00121999Y-00759999D02*
X00127999D01*
X00124999Y-00762999D02*
Y-00756999D01*
X00071999Y-00759999D02*
X00077999D01*
X00074999Y-00762999D02*
Y-00756999D01*
X00012499Y-00769999D02*
X00047499D01*
X00029999Y-00787499D02*
Y-00752499D01*
X00271999Y-00759999D02*
X00277999D01*
X00274999Y-00762999D02*
Y-00756999D01*
X00171999Y-00759999D02*
X00177999D01*
X00174999Y-00762999D02*
Y-00756999D01*
X00146999Y-00759999D02*
X00152999D01*
X00149999Y-00762999D02*
Y-00756999D01*
X00196999Y-00759999D02*
X00202999D01*
X00199999Y-00762999D02*
Y-00756999D01*
X00189499Y-00157999D02*
X00192499D01*
X00190999Y-00159499D02*
Y-00156499D01*
X00136499Y-00132999D02*
X00139499D01*
X00137999Y-00134499D02*
Y-00131499D01*
X00181749Y-00255249D02*
X00184749D01*
X00183249Y-0025675D02*
Y-0025375D01*
X00174499Y-00228999D02*
X00177499D01*
X00175999Y-00230499D02*
Y-00227499D01*
X00135499Y-00228999D02*
X00138499D01*
X00136999Y-00230499D02*
Y-00227499D01*
X00696999Y-00039499D02*
X00702999D01*
X00699999Y-00042499D02*
Y-00036499D01*
X00546999Y-00039499D02*
X00552999D01*
X00549999Y-00042499D02*
Y-00036499D01*
X00597Y-00039499D02*
X00602999D01*
X00599999Y-00042499D02*
Y-00036499D01*
X00571999Y-00039499D02*
X00577999D01*
X00574999Y-00042499D02*
Y-00036499D01*
X00521999Y-00039499D02*
X00527999D01*
X00524999Y-00042499D02*
Y-00036499D01*
X00671999Y-00039499D02*
X00677999D01*
X00674999Y-00042499D02*
Y-00036499D01*
X00622Y-00039499D02*
X00627999D01*
X00624999Y-00042499D02*
Y-00036499D01*
X00646999Y-00039499D02*
X00652999D01*
X00649999Y-00042499D02*
Y-00036499D01*
X00722Y-00039499D02*
X00727999D01*
X00724999Y-00042499D02*
Y-00036499D01*
X00462499Y-00319499D02*
X00497499D01*
X00479999Y-00336999D02*
Y-00301999D01*
X00462499Y-00029499D02*
X00497499D01*
X00479999Y-00046999D02*
Y-00011999D01*
X00722Y-00309499D02*
X00727999D01*
X00724999Y-00312499D02*
Y-00306499D01*
X00074989Y-00108299D02*
X00077989D01*
X00076489Y-00109799D02*
Y-00106799D01*
X00138749Y-00083999D02*
X00141749D01*
X00140249Y-00085499D02*
Y-00082499D01*
X00122385Y-00039115D02*
X00128385D01*
X00125385Y-00042115D02*
Y-00036115D01*
X00074989Y-00090519D02*
X00077989D01*
X00076489Y-00092019D02*
Y-00089019D01*
X00097385Y-00039115D02*
X00103385D01*
X00100385Y-00042115D02*
Y-00036115D01*
X00255999Y-00073749D02*
X00258999D01*
X00257499Y-00075249D02*
Y-00072249D01*
X00255999Y-00130999D02*
X00258999D01*
X00257499Y-00132499D02*
Y-00129499D01*
X00254249Y-00170749D02*
X00257249D01*
X0025575Y-00172249D02*
Y-00169249D01*
X00072385Y-00039115D02*
X00078385D01*
X00075385Y-00042115D02*
Y-00036115D01*
X00147385Y-00039115D02*
X00153385D01*
X00150385Y-00042115D02*
Y-00036115D01*
X00172385Y-00039115D02*
X00178385D01*
X00175385Y-00042115D02*
Y-00036115D01*
X00302885Y-00029115D02*
X00337885D01*
X00320385Y-00046615D02*
Y-00011615D01*
X00197385Y-00039115D02*
X00203385D01*
X00200385Y-00042115D02*
Y-00036115D01*
X00222385Y-00039115D02*
X00228385D01*
X00225385Y-00042115D02*
Y-00036115D01*
X00272385Y-00039115D02*
X00278385D01*
X00275385Y-00042115D02*
Y-00036115D01*
X00247385Y-00039115D02*
X00253385D01*
X00250385Y-00042115D02*
Y-00036115D01*
X00012885Y-00029115D02*
X00047885D01*
X00030385Y-00046615D02*
Y-00011615D01*
X00258249Y-00225749D02*
X00261249D01*
X00259749Y-00227249D02*
Y-00224249D01*
X00307385Y-00224115D02*
X00313385D01*
X00310385Y-00227115D02*
Y-00221115D01*
X00307385Y-00249115D02*
X00313385D01*
X00310385Y-00252115D02*
Y-00246115D01*
X00307385Y-00274115D02*
X00313385D01*
X00310385Y-00277115D02*
Y-00271115D01*
X00307385Y-00199115D02*
X00313385D01*
X00310385Y-00202115D02*
Y-00196115D01*
X00521999Y-00309499D02*
X00527999D01*
X00524999Y-00312499D02*
Y-00306499D01*
X00486999Y-00249499D02*
X00492999D01*
X00489999Y-00252499D02*
Y-00246499D01*
X00486999Y-00224499D02*
X00492999D01*
X00489999Y-00227499D02*
Y-00221499D01*
X00546999Y-00309499D02*
X00552999D01*
X00549999Y-00312499D02*
Y-00306499D01*
X00486999Y-00199499D02*
X00492999D01*
X00489999Y-00202499D02*
Y-00196499D01*
X00756999Y-00199499D02*
X00762999D01*
X00759999Y-00202499D02*
Y-00196499D01*
X00696999Y-00309499D02*
X00702999D01*
X00699999Y-00312499D02*
Y-00306499D01*
X00752499Y-00029499D02*
X00787499D01*
X00769999Y-00046999D02*
Y-00011999D01*
X00752499Y-00319499D02*
X00787499D01*
X00769999Y-00336999D02*
Y-00301999D01*
X00486999Y-00274499D02*
X00492999D01*
X00489999Y-00277499D02*
Y-00271499D01*
X00756999Y-00274499D02*
X00762999D01*
X00759999Y-00277499D02*
Y-00271499D01*
X00756999Y-00224499D02*
X00762999D01*
X00759999Y-00227499D02*
Y-00221499D01*
X00756999Y-00249499D02*
X00762999D01*
X00759999Y-00252499D02*
Y-00246499D01*
X00072385Y-00309115D02*
X00078385D01*
X00075385Y-00312115D02*
Y-00306115D01*
X00097385Y-00309115D02*
X00103385D01*
X00100385Y-00312115D02*
Y-00306115D01*
X00122385Y-00309115D02*
X00128385D01*
X00125385Y-00312115D02*
Y-00306115D01*
X00172385Y-00309115D02*
X00178385D01*
X00175385Y-00312115D02*
Y-00306115D01*
X00197385Y-00309115D02*
X00203385D01*
X00200385Y-00312115D02*
Y-00306115D01*
X00272385Y-00309115D02*
X00278385D01*
X00275385Y-00312115D02*
Y-00306115D01*
X00302885Y-00319115D02*
X00337885D01*
X00320385Y-00336615D02*
Y-00301615D01*
X00222385Y-00309115D02*
X00228385D01*
X00225385Y-00312115D02*
Y-00306115D01*
X00247385Y-00309115D02*
X00253385D01*
X00250385Y-00312115D02*
Y-00306115D01*
X00012885Y-00319115D02*
X00047885D01*
X00030385Y-00336615D02*
Y-00301615D01*
X00147385Y-00309115D02*
X00153385D01*
X00150385Y-00312115D02*
Y-00306115D01*
X00037385Y-00199115D02*
X00043385D01*
X00040385Y-00202115D02*
Y-00196115D01*
X00037385Y-00224115D02*
X00043385D01*
X00040385Y-00227115D02*
Y-00221115D01*
X00076749Y-00183749D02*
X00079749D01*
X00078249Y-00185249D02*
Y-00182249D01*
X00037385Y-00249115D02*
X00043385D01*
X00040385Y-00252115D02*
Y-00246115D01*
X00076749Y-00202249D02*
X00079749D01*
X00078249Y-00203749D02*
Y-00200749D01*
X00037385Y-00274115D02*
X00043385D01*
X00040385Y-00277115D02*
Y-00271115D01*
X00936999Y-00249499D02*
X00942999D01*
X00939999Y-00252499D02*
Y-00246499D01*
X00936999Y-00274499D02*
X00942999D01*
X00939999Y-00277499D02*
Y-00271499D01*
X01041499Y-00223999D02*
X01044499D01*
X01042999Y-00225499D02*
Y-00222499D01*
X01124499Y-00160999D02*
X01127499D01*
X01125999Y-00162499D02*
Y-00159499D01*
X01206999Y-00199499D02*
X01212999D01*
X01209999Y-00202499D02*
Y-00196499D01*
X01206999Y-00274499D02*
X01212999D01*
X01209999Y-00277499D02*
Y-00271499D01*
X01206999Y-00249499D02*
X01212999D01*
X01209999Y-00252499D02*
Y-00246499D01*
X01206999Y-00224499D02*
X01212999D01*
X01209999Y-00227499D02*
Y-00221499D01*
X01124499Y-00196999D02*
X01127499D01*
X01125999Y-00198499D02*
Y-00195499D01*
X01124499Y-00178999D02*
X01127499D01*
X01125999Y-00180499D02*
Y-00177499D01*
X00971999Y-00309499D02*
X00977999D01*
X00974999Y-00312499D02*
Y-00306499D01*
X01202499Y-00319499D02*
X01237499D01*
X01219999Y-00336999D02*
Y-00301999D01*
X01146999Y-00309499D02*
X01152999D01*
X01149999Y-00312499D02*
Y-00306499D01*
X01071999Y-00309499D02*
X01077999D01*
X01074999Y-00312499D02*
Y-00306499D01*
X01021999Y-00309499D02*
X01027999D01*
X01024999Y-00312499D02*
Y-00306499D01*
X01046999Y-00309499D02*
X01052999D01*
X01049999Y-00312499D02*
Y-00306499D01*
X01096999Y-00309499D02*
X01102999D01*
X01099999Y-00312499D02*
Y-00306499D01*
X01121999Y-00309499D02*
X01127999D01*
X01124999Y-00312499D02*
Y-00306499D01*
X00912499Y-00319499D02*
X00947499D01*
X00929999Y-00336999D02*
Y-00301999D01*
X00996999Y-00309499D02*
X01002999D01*
X00999999Y-00312499D02*
Y-00306499D01*
X01171999Y-00309499D02*
X01177999D01*
X01174999Y-00312499D02*
Y-00306499D01*
X01171999Y-00039499D02*
X01177999D01*
X01174999Y-00042499D02*
Y-00036499D01*
X01174499Y-00095999D02*
X01177499D01*
X01175999Y-00097499D02*
Y-00094499D01*
X01118499Y-00095999D02*
X01121499D01*
X01119999Y-00097499D02*
Y-00094499D01*
X01096999Y-00039499D02*
X01102999D01*
X01099999Y-00042499D02*
Y-00036499D01*
X01071999Y-00039499D02*
X01077999D01*
X01074999Y-00042499D02*
Y-00036499D01*
X00969499Y-00095999D02*
X00972499D01*
X00970999Y-00097499D02*
Y-00094499D01*
X01121999Y-00039499D02*
X01127999D01*
X01124999Y-00042499D02*
Y-00036499D01*
X00912499Y-00029499D02*
X00947499D01*
X00929999Y-00046999D02*
Y-00011999D01*
X00971999Y-00039499D02*
X00977999D01*
X00974999Y-00042499D02*
Y-00036499D01*
X01021999Y-00039499D02*
X01027999D01*
X01024999Y-00042499D02*
Y-00036499D01*
X01046999Y-00039499D02*
X01052999D01*
X01049999Y-00042499D02*
Y-00036499D01*
X00996999Y-00039499D02*
X01002999D01*
X00999999Y-00042499D02*
Y-00036499D01*
X01202499Y-00029499D02*
X01237499D01*
X01219999Y-00046999D02*
Y-00011999D01*
X01146999Y-00039499D02*
X01152999D01*
X01149999Y-00042499D02*
Y-00036499D01*
X00936999Y-00224499D02*
X00942999D01*
X00939999Y-00227499D02*
Y-00221499D01*
X00936999Y-00199499D02*
X00942999D01*
X00939999Y-00202499D02*
Y-00196499D01*
X01122Y-00759499D02*
X01128D01*
X01125Y-00762499D02*
Y-00756499D01*
X01146999Y-00759499D02*
X01152999D01*
X01149999Y-00762499D02*
Y-00756499D01*
X01171999Y-00759499D02*
X01177999D01*
X01174999Y-00762499D02*
Y-00756499D01*
X01206999Y-00599499D02*
X01212999D01*
X01209999Y-00602499D02*
Y-00596499D01*
X01206999Y-00574499D02*
X01212999D01*
X01209999Y-00577499D02*
Y-005715D01*
X012025Y-00769499D02*
X01237499D01*
X01219999Y-00786999D02*
Y-00751999D01*
X009125Y-00479499D02*
X00947499D01*
X00929999Y-00496999D02*
Y-00461999D01*
X00936999Y-00599499D02*
X00942999D01*
X00939999Y-00602499D02*
Y-00596499D01*
X00936999Y-00574499D02*
X00942999D01*
X00939999Y-00577499D02*
Y-005715D01*
X00936999Y-00549499D02*
X00942999D01*
X00939999Y-00552499D02*
Y-00546499D01*
X00936999Y-00524499D02*
X00942999D01*
X00939999Y-00527499D02*
Y-00521499D01*
X00972Y-00489499D02*
X00978D01*
X00975Y-00492499D02*
Y-00486499D01*
X00997Y-00489499D02*
X01003D01*
X01Y-00492499D02*
Y-00486499D01*
X01021999Y-00489499D02*
X01027999D01*
X01024999Y-00492499D02*
Y-00486499D01*
X01046999Y-00489499D02*
X01052999D01*
X01049999Y-00492499D02*
Y-00486499D01*
X01071999Y-00489499D02*
X01077999D01*
X01074999Y-00492499D02*
Y-00486499D01*
X01097Y-00489499D02*
X01103D01*
X011Y-00492499D02*
Y-00486499D01*
X01122Y-00489499D02*
X01128D01*
X01125Y-00492499D02*
Y-00486499D01*
X01146999Y-00489499D02*
X01152999D01*
X01149999Y-00492499D02*
Y-00486499D01*
X01171999Y-00489499D02*
X01177999D01*
X01174999Y-00492499D02*
Y-00486499D01*
X01206999Y-00524499D02*
X01212999D01*
X01209999Y-00527499D02*
Y-00521499D01*
X01206999Y-00549499D02*
X01212999D01*
X01209999Y-00552499D02*
Y-00546499D01*
X012025Y-00479499D02*
X01237499D01*
X01219999Y-00496999D02*
Y-00461999D01*
X00997Y-00759499D02*
X01003D01*
X01Y-00762499D02*
Y-00756499D01*
X00995999Y-00705999D02*
X00998999D01*
X00997499Y-00707499D02*
Y-00704499D01*
X01021999Y-00759499D02*
X01027999D01*
X01024999Y-00762499D02*
Y-00756499D01*
X01046999Y-00759499D02*
X01052999D01*
X01049999Y-00762499D02*
Y-00756499D01*
X01071999Y-00759499D02*
X01077999D01*
X01074999Y-00762499D02*
Y-00756499D01*
X01097Y-00759499D02*
X01103D01*
X011Y-00762499D02*
Y-00756499D01*
X00972Y-00759499D02*
X00978D01*
X00975Y-00762499D02*
Y-00756499D01*
X009125Y-00769499D02*
X00947499D01*
X00929999Y-00786999D02*
Y-00751999D01*
X00462499Y-00768999D02*
X00497499D01*
X00479999Y-00786499D02*
Y-00751499D01*
X00752499Y-00768999D02*
X00787499D01*
X00769999Y-00786499D02*
Y-00751499D01*
X00752499Y-00478999D02*
X00787499D01*
X00769999Y-00496499D02*
Y-00461499D01*
X00462499Y-00478999D02*
X00497499D01*
X00479999Y-00496499D02*
Y-00461499D01*
X00756999Y-00573999D02*
X00762999D01*
X00759999Y-00576999D02*
Y-00570999D01*
X00756999Y-00523999D02*
X00762999D01*
X00759999Y-00526999D02*
Y-00520999D01*
X00756999Y-00598999D02*
X00762999D01*
X00759999Y-00601999D02*
Y-00595999D01*
X00756999Y-00548999D02*
X00762999D01*
X00759999Y-00551999D02*
Y-00545999D01*
X00486999Y-00573999D02*
X00492999D01*
X00489999Y-00576999D02*
Y-00570999D01*
X00486999Y-00523999D02*
X00492999D01*
X00489999Y-00526999D02*
Y-00520999D01*
X00486999Y-00548999D02*
X00492999D01*
X00489999Y-00551999D02*
Y-00545999D01*
X00486999Y-00598999D02*
X00492999D01*
X00489999Y-00601999D02*
Y-00595999D01*
X00696999Y-00758999D02*
X00702999D01*
X00699999Y-00762D02*
Y-00755999D01*
X00621999Y-00758999D02*
X00627999D01*
X00624999Y-00762D02*
Y-00755999D01*
X00596999Y-00758999D02*
X00602999D01*
X00599999Y-00762D02*
Y-00755999D01*
X00646999Y-00758999D02*
X00652999D01*
X00649999Y-00762D02*
Y-00755999D01*
X00721999Y-00758999D02*
X00727999D01*
X00724999Y-00762D02*
Y-00755999D01*
X00546999Y-00758999D02*
X00552999D01*
X00549999Y-00762D02*
Y-00755999D01*
X00521999Y-00758999D02*
X00527999D01*
X00524999Y-00762D02*
Y-00755999D01*
X00571999Y-00758999D02*
X00577999D01*
X00574999Y-00762D02*
Y-00755999D01*
X00671999Y-00758999D02*
X00677999D01*
X00674999Y-00762D02*
Y-00755999D01*
X00546999Y-00488999D02*
X00552999D01*
X00549999Y-00491999D02*
Y-00485999D01*
X00521999Y-00488999D02*
X00527999D01*
X00524999Y-00491999D02*
Y-00485999D01*
X00696999Y-00488999D02*
X00702999D01*
X00699999Y-00491999D02*
Y-00485999D01*
X00721999Y-00488999D02*
X00727999D01*
X00724999Y-00491999D02*
Y-00485999D01*
X00533359Y-00716899D02*
X00539359D01*
X00536359Y-00719899D02*
Y-00713899D01*
X00551139Y-00716899D02*
X00557139D01*
X00554139Y-00719899D02*
Y-00713899D01*
X00571999Y-00716499D02*
X00577999D01*
X00574999Y-00719499D02*
Y-00713499D01*
X00588999Y-00716499D02*
X00594999D01*
X00591999Y-00719499D02*
Y-00713499D01*
X00138499Y-00627999D02*
X00141499D01*
X00139999Y-00629499D02*
Y-00626499D01*
X00227249Y-00637999D02*
X00230249D01*
X00228749Y-00639499D02*
Y-00636499D01*
X00253499Y-00637999D02*
X00256499D01*
X00254999Y-00639499D02*
Y-00636499D01*
X00121999Y-00489999D02*
X00127999D01*
X00124999Y-00492999D02*
Y-00486999D01*
X00221999Y-00489999D02*
X00227999D01*
X00224999Y-00492999D02*
Y-00486999D01*
X00271999Y-00489999D02*
X00277999D01*
X00274999Y-00492999D02*
Y-00486999D01*
X00246999Y-00489999D02*
X00252999D01*
X00249999Y-00492999D02*
Y-00486999D01*
X00071999Y-00489999D02*
X00077999D01*
X00074999Y-00492999D02*
Y-00486999D01*
X00146999Y-00489999D02*
X00152999D01*
X00149999Y-00492999D02*
Y-00486999D01*
X00196999Y-00489999D02*
X00202999D01*
X00199999Y-00492999D02*
Y-00486999D01*
X00171999Y-00489999D02*
X00177999D01*
X00174999Y-00492999D02*
Y-00486999D01*
X00096999Y-00489999D02*
X00102999D01*
X00099999Y-00492999D02*
Y-00486999D01*
X00036999Y-00599999D02*
X00042999D01*
X00039999Y-00602999D02*
Y-00596999D01*
X00036999Y-00549999D02*
X00042999D01*
X00039999Y-00552999D02*
Y-00546999D01*
X00036999Y-00524999D02*
X00042999D01*
X00039999Y-00527999D02*
Y-00521999D01*
X00036999Y-00574999D02*
X00042999D01*
X00039999Y-00577999D02*
Y-00571999D01*
X00306999Y-00549999D02*
X00312999D01*
X00309999Y-00552999D02*
Y-00546999D01*
X00306999Y-00599999D02*
X00312999D01*
X00309999Y-00602999D02*
Y-00596999D01*
X00306999Y-00524999D02*
X00312999D01*
X00309999Y-00527999D02*
Y-00521999D01*
X00306999Y-00574999D02*
X00312999D01*
X00309999Y-00577999D02*
Y-00571999D01*
X00012499Y-00479999D02*
X00047499D01*
X00029999Y-00497499D02*
Y-00462499D01*
X003025Y-00479999D02*
X00337499D01*
X00319999Y-00497499D02*
Y-00462499D01*
M02*