%FSTAX44Y44*%
%MOMM*%
%SFA1B1*%

%IPPOS*%
%ADD14R,4.199992X1.999996*%
%ADD21R,1.999996X4.199992*%
%ADD76C,1.499997*%
%ADD77R,1.499997X1.499997*%
%ADD78R,1.529997X1.529997*%
%ADD79C,1.529997*%
%ADD80C,2.499995*%
%LNradar_1ghz_pads_bot-1*%
%LPD*%
G54D14*
X00321999Y-00706999D03*
Y-00644999D03*
X00027999Y-00092999D03*
Y-00154999D03*
X00322999D03*
Y-00092999D03*
X00026999Y-00706999D03*
Y-00644999D03*
X00772999Y-00092999D03*
Y-00154999D03*
X01220999Y-00644999D03*
Y-00706999D03*
X00925999Y-00154999D03*
Y-00092999D03*
X00772999Y-00644999D03*
Y-00706999D03*
X00927999D03*
Y-00644999D03*
X01221999Y-00092999D03*
Y-00154999D03*
X00475999Y-00706999D03*
Y-00644999D03*
X00476999Y-00154999D03*
Y-00092999D03*
G54D21*
X00655999Y-00475999D03*
X00593999D03*
X00818999Y-00772999D03*
X00880999D03*
X00367999Y-00773999D03*
X00429999D03*
X00818999Y-00026999D03*
X00880999D03*
X00368999Y-00025999D03*
X00430999D03*
X00655999Y-00321999D03*
X00593999D03*
G54D76*
X01040399Y-00269499D03*
X01014999D03*
X00674599Y-00519999D03*
X00699999D03*
X01134599Y-00524499D03*
X01109199D03*
X010154D03*
X010408D03*
X00234999Y-00279999D03*
X00209599D03*
X00114999D03*
X00140399D03*
G54D77*
X00989599Y-00269499D03*
X00725399Y-00519999D03*
X01159999Y-00524499D03*
X0099D03*
X00260399Y-00279999D03*
X00089599D03*
G54D78*
X00659599Y-00064999D03*
X00245399Y-00519999D03*
G54D79*
X00684999Y-00064999D03*
X00710399D03*
X00194599Y-00519999D03*
X00219999D03*
G54D80*
X00508999Y-00397999D03*
X00483999Y-00372999D03*
Y-00422999D03*
X00533999D03*
Y-00372999D03*
M02*