%FSTAX44Y44*%
%MOMM*%
%SFA1B1*%

%IPPOS*%
%ADD129C,0.899998*%
%ADD130C,1.019998*%
%ADD131C,1.499997*%
%ADD132C,0.299999*%
%ADD133C,0.599999*%
%ADD134C,3.499993*%
%LNradar_1ghz_pth_drill-1*%
%LPD*%
G54D129*
X01040399Y-00269499D03*
X01014999D03*
X00989599D03*
X00674599Y-00519999D03*
X00699999D03*
X00725399D03*
X01159999Y-00524499D03*
X01134599D03*
X01109199D03*
X0099D03*
X010154D03*
X010408D03*
X00260399Y-00279999D03*
X00234999D03*
X00209599D03*
X00089599D03*
X00114999D03*
X00140399D03*
G54D130*
X00659599Y-00064999D03*
X00684999D03*
X00710399D03*
X00194599Y-00519999D03*
X00219999D03*
X00245399D03*
G54D131*
X00508999Y-00397999D03*
X00483999Y-00372999D03*
Y-00422999D03*
X00533999D03*
Y-00372999D03*
G54D132*
X00639114Y-00655114D03*
X00638999Y-00683999D03*
X00689684Y-00653769D03*
X01079999Y-00094999D03*
X01090999Y-00103999D03*
X01045999Y-00243999D03*
X00978999Y-00168999D03*
X00995999D03*
X01053999Y-00641999D03*
X01070999Y-00697999D03*
X01037999D03*
X01071999Y-00651999D03*
X01005999Y-00624999D03*
X00999999Y-00569499D03*
X01176749Y-00613999D03*
X01175999Y-00635D03*
X00174999Y-00662499D03*
X00097499Y-00629249D03*
X00208888Y-00157111D03*
X00192124Y-00062874D03*
X00081999Y-00248999D03*
X00211779Y-00083889D03*
X00178624Y-00132624D03*
X00602999Y-00610999D03*
X00617999Y-00598031D03*
Y-00578999D03*
X00644999Y-00087999D03*
X00704331Y-00106917D03*
X00653999Y-00134999D03*
X00704999Y-00257999D03*
X00644999Y-00134999D03*
X00704999Y-00249999D03*
X00724999Y-00174999D03*
X00659999Y-00279999D03*
X00684999Y-00129999D03*
X00569999Y-00154999D03*
X00519999D03*
X00594999D03*
Y-00174999D03*
Y-00269999D03*
X00191999Y-00578999D03*
X00191499Y-00561749D03*
X00213999Y-00675999D03*
X00114999Y-00727249D03*
X00064999Y-00705749D03*
X00174999Y-00654999D03*
X00217999Y-00667999D03*
X00190999Y-00157999D03*
X00137999Y-00132999D03*
X00183249Y-00255249D03*
X00175999Y-00228999D03*
X00136999D03*
X00076489Y-00108299D03*
X00140249Y-00083999D03*
X00076489Y-00090519D03*
X00257499Y-00073749D03*
Y-00130999D03*
X0025575Y-00170749D03*
X00259749Y-00225749D03*
X00078249Y-00183749D03*
Y-00202249D03*
X01042999Y-00223999D03*
X01125999Y-00160999D03*
Y-00196999D03*
Y-00178999D03*
X01175999Y-00095999D03*
X01119999D03*
X00970999D03*
X00997499Y-00705999D03*
X00139999Y-00627999D03*
X00228749Y-00637999D03*
X00254999D03*
G54D133*
X00249999Y-00759999D03*
X00224999D03*
X00099999D03*
X00124999D03*
X00074999D03*
X00274999D03*
X00174999D03*
X00149999D03*
X00199999D03*
X00699999Y-00039499D03*
X00549999D03*
X00599999D03*
X00574999D03*
X00524999D03*
X00674999D03*
X00624999D03*
X00649999D03*
X00724999D03*
Y-00309499D03*
X00125385Y-00039115D03*
X00100385D03*
X00075385D03*
X00150385D03*
X00175385D03*
X00200385D03*
X00225385D03*
X00275385D03*
X00250385D03*
X00310385Y-00224115D03*
Y-00249115D03*
Y-00274115D03*
Y-00199115D03*
X00524999Y-00309499D03*
X00489999Y-00249499D03*
Y-00224499D03*
X00549999Y-00309499D03*
X00489999Y-00199499D03*
X00759999D03*
X00699999Y-00309499D03*
X00489999Y-00274499D03*
X00759999D03*
Y-00224499D03*
Y-00249499D03*
X00075385Y-00309115D03*
X00100385D03*
X00125385D03*
X00175385D03*
X00200385D03*
X00275385D03*
X00225385D03*
X00250385D03*
X00150385D03*
X00040385Y-00199115D03*
Y-00224115D03*
Y-00249115D03*
Y-00274115D03*
X00939999Y-00249499D03*
Y-00274499D03*
X01209999Y-00199499D03*
Y-00274499D03*
Y-00249499D03*
Y-00224499D03*
X00974999Y-00309499D03*
X01149999D03*
X01074999D03*
X01024999D03*
X01049999D03*
X01099999D03*
X01124999D03*
X00999999D03*
X01174999D03*
Y-00039499D03*
X01099999D03*
X01074999D03*
X01124999D03*
X00974999D03*
X01024999D03*
X01049999D03*
X00999999D03*
X01149999D03*
X00939999Y-00224499D03*
Y-00199499D03*
X01125Y-00759499D03*
X01149999D03*
X01174999D03*
X01209999Y-00599499D03*
Y-00574499D03*
X00939999Y-00599499D03*
Y-00574499D03*
Y-00549499D03*
Y-00524499D03*
X00975Y-00489499D03*
X01D03*
X01024999D03*
X01049999D03*
X01074999D03*
X011D03*
X01125D03*
X01149999D03*
X01174999D03*
X01209999Y-00524499D03*
Y-00549499D03*
X01Y-00759499D03*
X01024999D03*
X01049999D03*
X01074999D03*
X011D03*
X00975D03*
X00759999Y-00573999D03*
Y-00523999D03*
Y-00598999D03*
Y-00548999D03*
X00489999Y-00573999D03*
Y-00523999D03*
Y-00548999D03*
Y-00598999D03*
X00699999Y-00758999D03*
X00624999D03*
X00599999D03*
X00649999D03*
X00724999D03*
X00549999D03*
X00524999D03*
X00574999D03*
X00674999D03*
X00549999Y-00488999D03*
X00524999D03*
X00699999D03*
X00724999D03*
X00536359Y-00716899D03*
X00554139D03*
X00574999Y-00716499D03*
X00591999D03*
X00124999Y-00489999D03*
X00224999D03*
X00274999D03*
X00249999D03*
X00074999D03*
X00149999D03*
X00199999D03*
X00174999D03*
X00099999D03*
X00039999Y-00599999D03*
Y-00549999D03*
Y-00524999D03*
Y-00574999D03*
X00309999Y-00549999D03*
Y-00599999D03*
Y-00524999D03*
Y-00574999D03*
G54D134*
X00319999Y-00769999D03*
X00029999D03*
X00479999Y-00319499D03*
Y-00029499D03*
X00320385Y-00029115D03*
X00030385D03*
X00769999Y-00029499D03*
Y-00319499D03*
X00320385Y-00319115D03*
X00030385D03*
X01219999Y-00319499D03*
X00929999D03*
Y-00029499D03*
X01219999D03*
Y-00769499D03*
X00929999Y-00479499D03*
X01219999D03*
X00929999Y-00769499D03*
X00479999Y-00768999D03*
X00769999D03*
Y-00478999D03*
X00479999D03*
X00029999Y-00479999D03*
X00319999D03*
M02*