%FSTAX44Y44*%
%MOMM*%
%SFA1B1*%

%IPPOS*%
%ADD97C,0.127000*%
%ADD136C,0.169330*%
%LNradar_1ghz_drawing_1-1*%
%LPD*%
G54D97*
X01035319Y-00274579D02*
Y-00264419D01*
X01045479*
Y-00274579*
X01035319*
X01009919D02*
Y-00264419D01*
X01020079*
Y-00274579*
X01009919*
X00984519D02*
Y-00264419D01*
X00994679*
Y-00274579*
X00984519*
X00669519Y-00525079D02*
Y-00514919D01*
X00679679*
Y-00525079*
X00669519*
X00694919D02*
Y-00514919D01*
X00705079*
Y-00525079*
X00694919*
X00720319D02*
Y-00514919D01*
X00730479*
Y-00525079*
X00720319*
X00508999Y-00403079D02*
X00503919Y-00392919D01*
X00514079*
X00508999Y-00403079*
X00483999Y-00378079D02*
X00478919Y-00367919D01*
X00489079*
X00483999Y-00378079*
Y-00428079D02*
X00478919Y-00417919D01*
X00489079*
X00483999Y-00428079*
X00533999D02*
X00528919Y-00417919D01*
X00539079*
X00533999Y-00428079*
Y-00378079D02*
X00528919Y-00367919D01*
X00539079*
X00533999Y-00378079*
X01154919Y-00529579D02*
Y-00519419D01*
X01165079*
Y-00529579*
X01154919*
X01129519D02*
Y-00519419D01*
X01139679*
Y-00529579*
X01129519*
X01104119D02*
Y-00519419D01*
X01114279*
Y-00529579*
X01104119*
X0098492D02*
Y-00519419D01*
X0099508*
Y-00529579*
X0098492*
X0101032D02*
Y-00519419D01*
X0102048*
Y-00529579*
X0101032*
X0103572D02*
Y-00519419D01*
X0104588*
Y-00529579*
X0103572*
X00255319Y-00285079D02*
Y-00274919D01*
X00265479*
Y-00285079*
X00255319*
X00229919D02*
Y-00274919D01*
X00240079*
Y-00285079*
X00229919*
X00204519D02*
Y-00274919D01*
X00214679*
Y-00285079*
X00204519*
X00084519D02*
Y-00274919D01*
X00094679*
Y-00285079*
X00084519*
X00109919D02*
Y-00274919D01*
X00120079*
Y-00285079*
X00109919*
X00135319D02*
Y-00274919D01*
X00145479*
Y-00285079*
X00135319*
X00639114Y-00660194D02*
X00641654Y-00657654D01*
X00644194*
X00641654Y-00655114*
X00644194Y-00652574*
X00641654*
X00639114Y-00650034*
X00636574Y-00652574*
X00634034*
X00636574Y-00655114*
X00634034Y-00657654*
X00636574*
X00639114Y-00660194*
X00638999Y-00689079D02*
X00641539Y-00686539D01*
X00644079*
X00641539Y-00683999*
X00644079Y-00681459*
X00641539*
X00638999Y-00678919*
X00636459Y-00681459*
X00633919*
X00636459Y-00683999*
X00633919Y-00686539*
X00636459*
X00638999Y-00689079*
X00689684Y-00658849D02*
X00692224Y-00656309D01*
X00694764*
X00692224Y-00653769*
X00694764Y-00651229*
X00692224*
X00689684Y-00648689*
X00687144Y-00651229*
X00684604*
X00687144Y-00653769*
X00684604Y-00656309*
X00687144*
X00689684Y-00658849*
X01079999Y-00100079D02*
X01082539Y-00097539D01*
X01085079*
X01082539Y-00094999*
X01085079Y-00092459*
X01082539*
X01079999Y-00089919*
X01077459Y-00092459*
X01074919*
X01077459Y-00094999*
X01074919Y-00097539*
X01077459*
X01079999Y-00100079*
X01090999Y-00109079D02*
X01093539Y-00106539D01*
X01096079*
X01093539Y-00103999*
X01096079Y-00101459*
X01093539*
X01090999Y-00098919*
X01088459Y-00101459*
X01085919*
X01088459Y-00103999*
X01085919Y-00106539*
X01088459*
X01090999Y-00109079*
X01045999Y-00249079D02*
X01048539Y-00246539D01*
X01051079*
X01048539Y-00243999*
X01051079Y-00241459*
X01048539*
X01045999Y-00238919*
X01043459Y-00241459*
X01040919*
X01043459Y-00243999*
X01040919Y-00246539*
X01043459*
X01045999Y-00249079*
X00978999Y-00174079D02*
X00981539Y-00171539D01*
X00984079*
X00981539Y-00168999*
X00984079Y-00166459*
X00981539*
X00978999Y-00163919*
X00976459Y-00166459*
X00973919*
X00976459Y-00168999*
X00973919Y-00171539*
X00976459*
X00978999Y-00174079*
X00995999D02*
X00998539Y-00171539D01*
X01001079*
X00998539Y-00168999*
X01001079Y-00166459*
X00998539*
X00995999Y-00163919*
X00993459Y-00166459*
X00990919*
X00993459Y-00168999*
X00990919Y-00171539*
X00993459*
X00995999Y-00174079*
X01053999Y-00647079D02*
X01056539Y-00644539D01*
X01059079*
X01056539Y-00641999*
X01059079Y-00639459*
X01056539*
X01053999Y-00636919*
X01051459Y-00639459*
X01048919*
X01051459Y-00641999*
X01048919Y-00644539*
X01051459*
X01053999Y-00647079*
X01070999Y-00703079D02*
X01073539Y-00700539D01*
X01076079*
X01073539Y-00697999*
X01076079Y-00695459*
X01073539*
X01070999Y-00692919*
X01068459Y-00695459*
X01065919*
X01068459Y-00697999*
X01065919Y-00700539*
X01068459*
X01070999Y-00703079*
X01037999D02*
X01040539Y-00700539D01*
X01043079*
X01040539Y-00697999*
X01043079Y-00695459*
X01040539*
X01037999Y-00692919*
X01035459Y-00695459*
X01032919*
X01035459Y-00697999*
X01032919Y-00700539*
X01035459*
X01037999Y-00703079*
X01071999Y-00657079D02*
X01074539Y-00654539D01*
X01077079*
X01074539Y-00651999*
X01077079Y-00649459*
X01074539*
X01071999Y-00646919*
X01069459Y-00649459*
X01066919*
X01069459Y-00651999*
X01066919Y-00654539*
X01069459*
X01071999Y-00657079*
X01005999Y-00630079D02*
X01008539Y-00627539D01*
X01011079*
X01008539Y-00624999*
X01011079Y-00622459*
X01008539*
X01005999Y-00619919*
X01003459Y-00622459*
X01000919*
X01003459Y-00624999*
X01000919Y-00627539*
X01003459*
X01005999Y-00630079*
X00999999Y-00574579D02*
X01002539Y-00572039D01*
X01005079*
X01002539Y-00569499*
X01005079Y-00566959*
X01002539*
X00999999Y-00564419*
X00997459Y-00566959*
X00994919*
X00997459Y-00569499*
X00994919Y-00572039*
X00997459*
X00999999Y-00574579*
X01176749Y-00619079D02*
X01179289Y-00616539D01*
X01181829*
X01179289Y-00613999*
X01181829Y-00611459*
X01179289*
X01176749Y-00608919*
X01174209Y-00611459*
X01171669*
X01174209Y-00613999*
X01171669Y-00616539*
X01174209*
X01176749Y-00619079*
X01175999Y-0064008D02*
X01178539Y-0063754D01*
X01181079*
X01178539Y-00635*
X01181079Y-0063246*
X01178539*
X01175999Y-0062992*
X01173459Y-0063246*
X01170919*
X01173459Y-00635*
X01170919Y-0063754*
X01173459*
X01175999Y-0064008*
X00174999Y-00667579D02*
X00177539Y-00665039D01*
X00180079*
X00177539Y-00662499*
X00180079Y-00659959*
X00177539*
X00174999Y-00657419*
X00172459Y-00659959*
X00169919*
X00172459Y-00662499*
X00169919Y-00665039*
X00172459*
X00174999Y-00667579*
X00097499Y-00634329D02*
X00100039Y-00631789D01*
X00102579*
X00100039Y-00629249*
X00102579Y-00626709*
X00100039*
X00097499Y-00624169*
X00094959Y-00626709*
X00092419*
X00094959Y-00629249*
X00092419Y-00631789*
X00094959*
X00097499Y-00634329*
X00208888Y-00162191D02*
X00211428Y-00159651D01*
X00213968*
X00211428Y-00157111*
X00213968Y-00154571*
X00211428*
X00208888Y-00152031*
X00206348Y-00154571*
X00203808*
X00206348Y-00157111*
X00203808Y-00159651*
X00206348*
X00208888Y-00162191*
X00192124Y-00067954D02*
X00194664Y-00065414D01*
X00197204*
X00194664Y-00062874*
X00197204Y-00060334*
X00194664*
X00192124Y-00057794*
X00189584Y-00060334*
X00187044*
X00189584Y-00062874*
X00187044Y-00065414*
X00189584*
X00192124Y-00067954*
X00081999Y-00254079D02*
X00084539Y-00251539D01*
X00087079*
X00084539Y-00248999*
X00087079Y-00246459*
X00084539*
X00081999Y-00243919*
X00079459Y-00246459*
X00076919*
X00079459Y-00248999*
X00076919Y-00251539*
X00079459*
X00081999Y-00254079*
X00211779Y-00088969D02*
X00214319Y-00086429D01*
X00216859*
X00214319Y-00083889*
X00216859Y-00081349*
X00214319*
X00211779Y-00078809*
X00209239Y-00081349*
X00206699*
X00209239Y-00083889*
X00206699Y-00086429*
X00209239*
X00211779Y-00088969*
X00178624Y-00137704D02*
X00181164Y-00135164D01*
X00183704*
X00181164Y-00132624*
X00183704Y-00130084*
X00181164*
X00178624Y-00127544*
X00176084Y-00130084*
X00173544*
X00176084Y-00132624*
X00173544Y-00135164*
X00176084*
X00178624Y-00137704*
X00602999Y-00616079D02*
X00605539Y-00613539D01*
X00608079*
X00605539Y-00610999*
X00608079Y-00608459*
X00605539*
X00602999Y-00605919*
X00600459Y-00608459*
X00597919*
X00600459Y-00610999*
X00597919Y-00613539*
X00600459*
X00602999Y-00616079*
X00617999Y-00603111D02*
X00620539Y-00600571D01*
X00623079*
X00620539Y-00598031*
X00623079Y-00595491*
X00620539*
X00617999Y-00592951*
X00615459Y-00595491*
X00612919*
X00615459Y-00598031*
X00612919Y-00600571*
X00615459*
X00617999Y-00603111*
Y-00584079D02*
X00620539Y-00581539D01*
X00623079*
X00620539Y-00578999*
X00623079Y-00576459*
X00620539*
X00617999Y-00573919*
X00615459Y-00576459*
X00612919*
X00615459Y-00578999*
X00612919Y-00581539*
X00615459*
X00617999Y-00584079*
X00644999Y-00093079D02*
X00647539Y-00090539D01*
X00650079*
X00647539Y-00087999*
X00650079Y-00085459*
X00647539*
X00644999Y-00082919*
X00642459Y-00085459*
X00639919*
X00642459Y-00087999*
X00639919Y-00090539*
X00642459*
X00644999Y-00093079*
X00704331Y-00111997D02*
X00706871Y-00109457D01*
X00709411*
X00706871Y-00106917*
X00709411Y-00104377*
X00706871*
X00704331Y-00101837*
X00701791Y-00104377*
X00699251*
X00701791Y-00106917*
X00699251Y-00109457*
X00701791*
X00704331Y-00111997*
X00653999Y-00140079D02*
X00656539Y-00137539D01*
X00659079*
X00656539Y-00134999*
X00659079Y-00132459*
X00656539*
X00653999Y-00129919*
X00651459Y-00132459*
X00648919*
X00651459Y-00134999*
X00648919Y-00137539*
X00651459*
X00653999Y-00140079*
X00704999Y-00263079D02*
X00707539Y-00260539D01*
X00710079*
X00707539Y-00257999*
X00710079Y-00255459*
X00707539*
X00704999Y-00252919*
X00702459Y-00255459*
X00699919*
X00702459Y-00257999*
X00699919Y-00260539*
X00702459*
X00704999Y-00263079*
X00644999Y-00140079D02*
X00647539Y-00137539D01*
X00650079*
X00647539Y-00134999*
X00650079Y-00132459*
X00647539*
X00644999Y-00129919*
X00642459Y-00132459*
X00639919*
X00642459Y-00134999*
X00639919Y-00137539*
X00642459*
X00644999Y-00140079*
X00704999Y-00255079D02*
X00707539Y-00252539D01*
X00710079*
X00707539Y-00249999*
X00710079Y-00247459*
X00707539*
X00704999Y-00244919*
X00702459Y-00247459*
X00699919*
X00702459Y-00249999*
X00699919Y-00252539*
X00702459*
X00704999Y-00255079*
X00724999Y-00180079D02*
X00727539Y-00177539D01*
X00730079*
X00727539Y-00174999*
X00730079Y-00172459*
X00727539*
X00724999Y-00169919*
X00722459Y-00172459*
X00719919*
X00722459Y-00174999*
X00719919Y-00177539*
X00722459*
X00724999Y-00180079*
X00659999Y-00285079D02*
X00662539Y-00282539D01*
X00665079*
X00662539Y-00279999*
X00665079Y-00277459*
X00662539*
X00659999Y-00274919*
X00657459Y-00277459*
X00654919*
X00657459Y-00279999*
X00654919Y-00282539*
X00657459*
X00659999Y-00285079*
X00684999Y-00135079D02*
X00687539Y-00132539D01*
X00690079*
X00687539Y-00129999*
X00690079Y-00127459*
X00687539*
X00684999Y-00124919*
X00682459Y-00127459*
X00679919*
X00682459Y-00129999*
X00679919Y-00132539*
X00682459*
X00684999Y-00135079*
X00569999Y-00160079D02*
X00572539Y-00157539D01*
X00575079*
X00572539Y-00154999*
X00575079Y-00152459*
X00572539*
X00569999Y-00149919*
X00567459Y-00152459*
X00564919*
X00567459Y-00154999*
X00564919Y-00157539*
X00567459*
X00569999Y-00160079*
X00519999D02*
X00522539Y-00157539D01*
X00525079*
X00522539Y-00154999*
X00525079Y-00152459*
X00522539*
X00519999Y-00149919*
X00517459Y-00152459*
X00514919*
X00517459Y-00154999*
X00514919Y-00157539*
X00517459*
X00519999Y-00160079*
X00594999D02*
X00597539Y-00157539D01*
X00600079*
X00597539Y-00154999*
X00600079Y-00152459*
X00597539*
X00594999Y-00149919*
X00592459Y-00152459*
X00589919*
X00592459Y-00154999*
X00589919Y-00157539*
X00592459*
X00594999Y-00160079*
Y-00180079D02*
X00597539Y-00177539D01*
X00600079*
X00597539Y-00174999*
X00600079Y-00172459*
X00597539*
X00594999Y-00169919*
X00592459Y-00172459*
X00589919*
X00592459Y-00174999*
X00589919Y-00177539*
X00592459*
X00594999Y-00180079*
Y-00275079D02*
X00597539Y-00272539D01*
X00600079*
X00597539Y-00269999*
X00600079Y-00267459*
X00597539*
X00594999Y-00264919*
X00592459Y-00267459*
X00589919*
X00592459Y-00269999*
X00589919Y-00272539*
X00592459*
X00594999Y-00275079*
X00191999Y-00584079D02*
X00194539Y-00581539D01*
X00197079*
X00194539Y-00578999*
X00197079Y-00576459*
X00194539*
X00191999Y-00573919*
X00189459Y-00576459*
X00186919*
X00189459Y-00578999*
X00186919Y-00581539*
X00189459*
X00191999Y-00584079*
X00191499Y-00566829D02*
X00194039Y-00564289D01*
X00196579*
X00194039Y-00561749*
X00196579Y-00559209*
X00194039*
X00191499Y-00556669*
X00188959Y-00559209*
X00186419*
X00188959Y-00561749*
X00186419Y-00564289*
X00188959*
X00191499Y-00566829*
X00213999Y-00681079D02*
X00216539Y-00678539D01*
X00219079*
X00216539Y-00675999*
X00219079Y-00673459*
X00216539*
X00213999Y-00670919*
X00211459Y-00673459*
X00208919*
X00211459Y-00675999*
X00208919Y-00678539*
X00211459*
X00213999Y-00681079*
X00114999Y-00732329D02*
X00117539Y-00729789D01*
X00120079*
X00117539Y-00727249*
X00120079Y-00724709*
X00117539*
X00114999Y-00722169*
X00112459Y-00724709*
X00109919*
X00112459Y-00727249*
X00109919Y-00729789*
X00112459*
X00114999Y-00732329*
X00064999Y-00710829D02*
X00067539Y-00708289D01*
X00070079*
X00067539Y-00705749*
X00070079Y-00703209*
X00067539*
X00064999Y-00700669*
X00062459Y-00703209*
X00059919*
X00062459Y-00705749*
X00059919Y-00708289*
X00062459*
X00064999Y-00710829*
X00174999Y-00660079D02*
X00177539Y-00657539D01*
X00180079*
X00177539Y-00654999*
X00180079Y-00652459*
X00177539*
X00174999Y-00649919*
X00172459Y-00652459*
X00169919*
X00172459Y-00654999*
X00169919Y-00657539*
X00172459*
X00174999Y-00660079*
X00217999Y-00673079D02*
X00220539Y-00670539D01*
X00223079*
X00220539Y-00667999*
X00223079Y-00665459*
X00220539*
X00217999Y-00662919*
X00215459Y-00665459*
X00212919*
X00215459Y-00667999*
X00212919Y-00670539*
X00215459*
X00217999Y-00673079*
X00244919Y-00765079D02*
X00247459Y-00759999D01*
X00244919Y-00754919*
X00249999Y-00757459*
X00255079Y-00754919*
X00252539Y-00759999*
X00255079Y-00765079*
X00249999Y-00762539*
X00244919Y-00765079*
X00219919D02*
X00222459Y-00759999D01*
X00219919Y-00754919*
X00224999Y-00757459*
X00230079Y-00754919*
X00227539Y-00759999*
X00230079Y-00765079*
X00224999Y-00762539*
X00219919Y-00765079*
X00094919D02*
X00097459Y-00759999D01*
X00094919Y-00754919*
X00099999Y-00757459*
X00105079Y-00754919*
X00102539Y-00759999*
X00105079Y-00765079*
X00099999Y-00762539*
X00094919Y-00765079*
X00317459Y-00772539D02*
Y-00775079D01*
X00322539*
Y-00772539*
X00325079*
Y-00767459*
X00322539*
Y-00764919*
X00317459*
Y-00767459*
X00314919*
Y-00772539*
X00317459*
X00119919Y-00765079D02*
X00122459Y-00759999D01*
X00119919Y-00754919*
X00124999Y-00757459*
X00130079Y-00754919*
X00127539Y-00759999*
X00130079Y-00765079*
X00124999Y-00762539*
X00119919Y-00765079*
X00069919D02*
X00072459Y-00759999D01*
X00069919Y-00754919*
X00074999Y-00757459*
X00080079Y-00754919*
X00077539Y-00759999*
X00080079Y-00765079*
X00074999Y-00762539*
X00069919Y-00765079*
X00027459Y-00772539D02*
Y-00775079D01*
X00032539*
Y-00772539*
X00035079*
Y-00767459*
X00032539*
Y-00764919*
X00027459*
Y-00767459*
X00024919*
Y-00772539*
X00027459*
X00269919Y-00765079D02*
X00272459Y-00759999D01*
X00269919Y-00754919*
X00274999Y-00757459*
X00280079Y-00754919*
X00277539Y-00759999*
X00280079Y-00765079*
X00274999Y-00762539*
X00269919Y-00765079*
X00169919D02*
X00172459Y-00759999D01*
X00169919Y-00754919*
X00174999Y-00757459*
X00180079Y-00754919*
X00177539Y-00759999*
X00180079Y-00765079*
X00174999Y-00762539*
X00169919Y-00765079*
X00144919D02*
X00147459Y-00759999D01*
X00144919Y-00754919*
X00149999Y-00757459*
X00155079Y-00754919*
X00152539Y-00759999*
X00155079Y-00765079*
X00149999Y-00762539*
X00144919Y-00765079*
X00194919D02*
X00197459Y-00759999D01*
X00194919Y-00754919*
X00199999Y-00757459*
X00205079Y-00754919*
X00202539Y-00759999*
X00205079Y-00765079*
X00199999Y-00762539*
X00194919Y-00765079*
X00190999Y-00163079D02*
X00193539Y-00160539D01*
X00196079*
X00193539Y-00157999*
X00196079Y-00155459*
X00193539*
X00190999Y-00152919*
X00188459Y-00155459*
X00185919*
X00188459Y-00157999*
X00185919Y-00160539*
X00188459*
X00190999Y-00163079*
X00137999Y-00138079D02*
X00140539Y-00135539D01*
X00143079*
X00140539Y-00132999*
X00143079Y-00130459*
X00140539*
X00137999Y-00127919*
X00135459Y-00130459*
X00132919*
X00135459Y-00132999*
X00132919Y-00135539*
X00135459*
X00137999Y-00138079*
X00183249Y-00260329D02*
X00185789Y-00257789D01*
X00188329*
X00185789Y-00255249*
X00188329Y-00252709*
X00185789*
X00183249Y-00250169*
X00180709Y-00252709*
X00178169*
X00180709Y-00255249*
X00178169Y-00257789*
X00180709*
X00183249Y-00260329*
X00175999Y-00234079D02*
X00178539Y-00231539D01*
X00181079*
X00178539Y-00228999*
X00181079Y-00226459*
X00178539*
X00175999Y-00223919*
X00173459Y-00226459*
X00170919*
X00173459Y-00228999*
X00170919Y-00231539*
X00173459*
X00175999Y-00234079*
X00136999D02*
X00139539Y-00231539D01*
X00142079*
X00139539Y-00228999*
X00142079Y-00226459*
X00139539*
X00136999Y-00223919*
X00134459Y-00226459*
X00131919*
X00134459Y-00228999*
X00131919Y-00231539*
X00134459*
X00136999Y-00234079*
X00694919Y-00044579D02*
X00697459Y-00039499D01*
X00694919Y-00034419*
X00699999Y-00036959*
X00705079Y-00034419*
X00702539Y-00039499*
X00705079Y-00044579*
X00699999Y-00042039*
X00694919Y-00044579*
X00544919D02*
X00547459Y-00039499D01*
X00544919Y-00034419*
X00549999Y-00036959*
X00555079Y-00034419*
X00552539Y-00039499*
X00555079Y-00044579*
X00549999Y-00042039*
X00544919Y-00044579*
X00594919D02*
X00597459Y-00039499D01*
X00594919Y-00034419*
X00599999Y-00036959*
X00605079Y-00034419*
X00602539Y-00039499*
X00605079Y-00044579*
X00599999Y-00042039*
X00594919Y-00044579*
X00569919D02*
X00572459Y-00039499D01*
X00569919Y-00034419*
X00574999Y-00036959*
X00580079Y-00034419*
X00577539Y-00039499*
X00580079Y-00044579*
X00574999Y-00042039*
X00569919Y-00044579*
X00519919D02*
X00522459Y-00039499D01*
X00519919Y-00034419*
X00524999Y-00036959*
X00530079Y-00034419*
X00527539Y-00039499*
X00530079Y-00044579*
X00524999Y-00042039*
X00519919Y-00044579*
X00669919D02*
X00672459Y-00039499D01*
X00669919Y-00034419*
X00674999Y-00036959*
X00680079Y-00034419*
X00677539Y-00039499*
X00680079Y-00044579*
X00674999Y-00042039*
X00669919Y-00044579*
X00619919D02*
X00622459Y-00039499D01*
X00619919Y-00034419*
X00624999Y-00036959*
X00630079Y-00034419*
X00627539Y-00039499*
X00630079Y-00044579*
X00624999Y-00042039*
X00619919Y-00044579*
X00644919D02*
X00647459Y-00039499D01*
X00644919Y-00034419*
X00649999Y-00036959*
X00655079Y-00034419*
X00652539Y-00039499*
X00655079Y-00044579*
X00649999Y-00042039*
X00644919Y-00044579*
X00719919D02*
X00722459Y-00039499D01*
X00719919Y-00034419*
X00724999Y-00036959*
X00730079Y-00034419*
X00727539Y-00039499*
X00730079Y-00044579*
X00724999Y-00042039*
X00719919Y-00044579*
X00477459Y-00322039D02*
Y-00324579D01*
X00482539*
Y-00322039*
X00485079*
Y-00316959*
X00482539*
Y-00314419*
X00477459*
Y-00316959*
X00474919*
Y-00322039*
X00477459*
Y-00032039D02*
Y-00034579D01*
X00482539*
Y-00032039*
X00485079*
Y-00026959*
X00482539*
Y-00024419*
X00477459*
Y-00026959*
X00474919*
Y-00032039*
X00477459*
X00719919Y-00314579D02*
X00722459Y-00309499D01*
X00719919Y-00304419*
X00724999Y-00306959*
X00730079Y-00304419*
X00727539Y-00309499*
X00730079Y-00314579*
X00724999Y-00312039*
X00719919Y-00314579*
X00076489Y-00113379D02*
X00079029Y-00110839D01*
X00081569*
X00079029Y-00108299*
X00081569Y-00105759*
X00079029*
X00076489Y-00103219*
X00073949Y-00105759*
X00071409*
X00073949Y-00108299*
X00071409Y-00110839*
X00073949*
X00076489Y-00113379*
X00140249Y-00089079D02*
X00142789Y-00086539D01*
X00145329*
X00142789Y-00083999*
X00145329Y-00081459*
X00142789*
X00140249Y-00078919*
X00137709Y-00081459*
X00135169*
X00137709Y-00083999*
X00135169Y-00086539*
X00137709*
X00140249Y-00089079*
X00120305Y-00044195D02*
X00122845Y-00039115D01*
X00120305Y-00034035*
X00125385Y-00036575*
X00130465Y-00034035*
X00127925Y-00039115*
X00130465Y-00044195*
X00125385Y-00041655*
X00120305Y-00044195*
X00076489Y-00095599D02*
X00079029Y-00093059D01*
X00081569*
X00079029Y-00090519*
X00081569Y-00087979*
X00079029*
X00076489Y-00085439*
X00073949Y-00087979*
X00071409*
X00073949Y-00090519*
X00071409Y-00093059*
X00073949*
X00076489Y-00095599*
X00095305Y-00044195D02*
X00097845Y-00039115D01*
X00095305Y-00034035*
X00100385Y-00036575*
X00105465Y-00034035*
X00102925Y-00039115*
X00105465Y-00044195*
X00100385Y-00041655*
X00095305Y-00044195*
X00257499Y-00078829D02*
X00260039Y-00076289D01*
X00262579*
X00260039Y-00073749*
X00262579Y-00071209*
X00260039*
X00257499Y-00068669*
X00254959Y-00071209*
X00252419*
X00254959Y-00073749*
X00252419Y-00076289*
X00254959*
X00257499Y-00078829*
Y-00136079D02*
X00260039Y-00133539D01*
X00262579*
X00260039Y-00130999*
X00262579Y-00128459*
X00260039*
X00257499Y-00125919*
X00254959Y-00128459*
X00252419*
X00254959Y-00130999*
X00252419Y-00133539*
X00254959*
X00257499Y-00136079*
X0025575Y-00175829D02*
X0025829Y-00173289D01*
X0026083*
X0025829Y-00170749*
X0026083Y-00168209*
X0025829*
X0025575Y-00165669*
X0025321Y-00168209*
X0025067*
X0025321Y-00170749*
X0025067Y-00173289*
X0025321*
X0025575Y-00175829*
X00070305Y-00044195D02*
X00072845Y-00039115D01*
X00070305Y-00034035*
X00075385Y-00036575*
X00080465Y-00034035*
X00077925Y-00039115*
X00080465Y-00044195*
X00075385Y-00041655*
X00070305Y-00044195*
X00145305D02*
X00147845Y-00039115D01*
X00145305Y-00034035*
X00150385Y-00036575*
X00155465Y-00034035*
X00152925Y-00039115*
X00155465Y-00044195*
X00150385Y-00041655*
X00145305Y-00044195*
X00170305D02*
X00172845Y-00039115D01*
X00170305Y-00034035*
X00175385Y-00036575*
X00180465Y-00034035*
X00177925Y-00039115*
X00180465Y-00044195*
X00175385Y-00041655*
X00170305Y-00044195*
X00317845Y-00031655D02*
Y-00034195D01*
X00322925*
Y-00031655*
X00325465*
Y-00026575*
X00322925*
Y-00024035*
X00317845*
Y-00026575*
X00315305*
Y-00031655*
X00317845*
X00195305Y-00044195D02*
X00197845Y-00039115D01*
X00195305Y-00034035*
X00200385Y-00036575*
X00205465Y-00034035*
X00202925Y-00039115*
X00205465Y-00044195*
X00200385Y-00041655*
X00195305Y-00044195*
X00220305D02*
X00222845Y-00039115D01*
X00220305Y-00034035*
X00225385Y-00036575*
X00230465Y-00034035*
X00227925Y-00039115*
X00230465Y-00044195*
X00225385Y-00041655*
X00220305Y-00044195*
X00270305D02*
X00272845Y-00039115D01*
X00270305Y-00034035*
X00275385Y-00036575*
X00280465Y-00034035*
X00277925Y-00039115*
X00280465Y-00044195*
X00275385Y-00041655*
X00270305Y-00044195*
X00245305D02*
X00247845Y-00039115D01*
X00245305Y-00034035*
X00250385Y-00036575*
X00255465Y-00034035*
X00252925Y-00039115*
X00255465Y-00044195*
X00250385Y-00041655*
X00245305Y-00044195*
X00027845Y-00031655D02*
Y-00034195D01*
X00032925*
Y-00031655*
X00035465*
Y-00026575*
X00032925*
Y-00024035*
X00027845*
Y-00026575*
X00025305*
Y-00031655*
X00027845*
X00259749Y-00230829D02*
X00262289Y-00228289D01*
X00264829*
X00262289Y-00225749*
X00264829Y-00223209*
X00262289*
X00259749Y-00220669*
X00257209Y-00223209*
X00254669*
X00257209Y-00225749*
X00254669Y-00228289*
X00257209*
X00259749Y-00230829*
X00305305Y-00229195D02*
X00307845Y-00224115D01*
X00305305Y-00219035*
X00310385Y-00221575*
X00315465Y-00219035*
X00312925Y-00224115*
X00315465Y-00229195*
X00310385Y-00226655*
X00305305Y-00229195*
Y-00254195D02*
X00307845Y-00249115D01*
X00305305Y-00244035*
X00310385Y-00246575*
X00315465Y-00244035*
X00312925Y-00249115*
X00315465Y-00254195*
X00310385Y-00251655*
X00305305Y-00254195*
Y-00279195D02*
X00307845Y-00274115D01*
X00305305Y-00269035*
X00310385Y-00271575*
X00315465Y-00269035*
X00312925Y-00274115*
X00315465Y-00279195*
X00310385Y-00276655*
X00305305Y-00279195*
Y-00204195D02*
X00307845Y-00199115D01*
X00305305Y-00194035*
X00310385Y-00196575*
X00315465Y-00194035*
X00312925Y-00199115*
X00315465Y-00204195*
X00310385Y-00201655*
X00305305Y-00204195*
X00519919Y-00314579D02*
X00522459Y-00309499D01*
X00519919Y-00304419*
X00524999Y-00306959*
X00530079Y-00304419*
X00527539Y-00309499*
X00530079Y-00314579*
X00524999Y-00312039*
X00519919Y-00314579*
X00484919Y-00254579D02*
X00487459Y-00249499D01*
X00484919Y-00244419*
X00489999Y-00246959*
X00495079Y-00244419*
X00492539Y-00249499*
X00495079Y-00254579*
X00489999Y-00252039*
X00484919Y-00254579*
Y-00229579D02*
X00487459Y-00224499D01*
X00484919Y-00219419*
X00489999Y-00221959*
X00495079Y-00219419*
X00492539Y-00224499*
X00495079Y-00229579*
X00489999Y-00227039*
X00484919Y-00229579*
X00544919Y-00314579D02*
X00547459Y-00309499D01*
X00544919Y-00304419*
X00549999Y-00306959*
X00555079Y-00304419*
X00552539Y-00309499*
X00555079Y-00314579*
X00549999Y-00312039*
X00544919Y-00314579*
X00484919Y-00204579D02*
X00487459Y-00199499D01*
X00484919Y-00194419*
X00489999Y-00196959*
X00495079Y-00194419*
X00492539Y-00199499*
X00495079Y-00204579*
X00489999Y-00202039*
X00484919Y-00204579*
X00754919D02*
X00757459Y-00199499D01*
X00754919Y-00194419*
X00759999Y-00196959*
X00765079Y-00194419*
X00762539Y-00199499*
X00765079Y-00204579*
X00759999Y-00202039*
X00754919Y-00204579*
X00694919Y-00314579D02*
X00697459Y-00309499D01*
X00694919Y-00304419*
X00699999Y-00306959*
X00705079Y-00304419*
X00702539Y-00309499*
X00705079Y-00314579*
X00699999Y-00312039*
X00694919Y-00314579*
X00767459Y-00032039D02*
Y-00034579D01*
X00772539*
Y-00032039*
X00775079*
Y-00026959*
X00772539*
Y-00024419*
X00767459*
Y-00026959*
X00764919*
Y-00032039*
X00767459*
Y-00322039D02*
Y-00324579D01*
X00772539*
Y-00322039*
X00775079*
Y-00316959*
X00772539*
Y-00314419*
X00767459*
Y-00316959*
X00764919*
Y-00322039*
X00767459*
X00484919Y-00279579D02*
X00487459Y-00274499D01*
X00484919Y-00269419*
X00489999Y-00271959*
X00495079Y-00269419*
X00492539Y-00274499*
X00495079Y-00279579*
X00489999Y-00277039*
X00484919Y-00279579*
X00754919D02*
X00757459Y-00274499D01*
X00754919Y-00269419*
X00759999Y-00271959*
X00765079Y-00269419*
X00762539Y-00274499*
X00765079Y-00279579*
X00759999Y-00277039*
X00754919Y-00279579*
Y-00229579D02*
X00757459Y-00224499D01*
X00754919Y-00219419*
X00759999Y-00221959*
X00765079Y-00219419*
X00762539Y-00224499*
X00765079Y-00229579*
X00759999Y-00227039*
X00754919Y-00229579*
Y-00254579D02*
X00757459Y-00249499D01*
X00754919Y-00244419*
X00759999Y-00246959*
X00765079Y-00244419*
X00762539Y-00249499*
X00765079Y-00254579*
X00759999Y-00252039*
X00754919Y-00254579*
X00070305Y-00314195D02*
X00072845Y-00309115D01*
X00070305Y-00304035*
X00075385Y-00306575*
X00080465Y-00304035*
X00077925Y-00309115*
X00080465Y-00314195*
X00075385Y-00311655*
X00070305Y-00314195*
X00095305D02*
X00097845Y-00309115D01*
X00095305Y-00304035*
X00100385Y-00306575*
X00105465Y-00304035*
X00102925Y-00309115*
X00105465Y-00314195*
X00100385Y-00311655*
X00095305Y-00314195*
X00120305D02*
X00122845Y-00309115D01*
X00120305Y-00304035*
X00125385Y-00306575*
X00130465Y-00304035*
X00127925Y-00309115*
X00130465Y-00314195*
X00125385Y-00311655*
X00120305Y-00314195*
X00170305D02*
X00172845Y-00309115D01*
X00170305Y-00304035*
X00175385Y-00306575*
X00180465Y-00304035*
X00177925Y-00309115*
X00180465Y-00314195*
X00175385Y-00311655*
X00170305Y-00314195*
X00195305D02*
X00197845Y-00309115D01*
X00195305Y-00304035*
X00200385Y-00306575*
X00205465Y-00304035*
X00202925Y-00309115*
X00205465Y-00314195*
X00200385Y-00311655*
X00195305Y-00314195*
X00270305D02*
X00272845Y-00309115D01*
X00270305Y-00304035*
X00275385Y-00306575*
X00280465Y-00304035*
X00277925Y-00309115*
X00280465Y-00314195*
X00275385Y-00311655*
X00270305Y-00314195*
X00317845Y-00321655D02*
Y-00324195D01*
X00322925*
Y-00321655*
X00325465*
Y-00316575*
X00322925*
Y-00314035*
X00317845*
Y-00316575*
X00315305*
Y-00321655*
X00317845*
X00220305Y-00314195D02*
X00222845Y-00309115D01*
X00220305Y-00304035*
X00225385Y-00306575*
X00230465Y-00304035*
X00227925Y-00309115*
X00230465Y-00314195*
X00225385Y-00311655*
X00220305Y-00314195*
X00245305D02*
X00247845Y-00309115D01*
X00245305Y-00304035*
X00250385Y-00306575*
X00255465Y-00304035*
X00252925Y-00309115*
X00255465Y-00314195*
X00250385Y-00311655*
X00245305Y-00314195*
X00027845Y-00321655D02*
Y-00324195D01*
X00032925*
Y-00321655*
X00035465*
Y-00316575*
X00032925*
Y-00314035*
X00027845*
Y-00316575*
X00025305*
Y-00321655*
X00027845*
X00145305Y-00314195D02*
X00147845Y-00309115D01*
X00145305Y-00304035*
X00150385Y-00306575*
X00155465Y-00304035*
X00152925Y-00309115*
X00155465Y-00314195*
X00150385Y-00311655*
X00145305Y-00314195*
X00035305Y-00204195D02*
X00037845Y-00199115D01*
X00035305Y-00194035*
X00040385Y-00196575*
X00045465Y-00194035*
X00042925Y-00199115*
X00045465Y-00204195*
X00040385Y-00201655*
X00035305Y-00204195*
Y-00229195D02*
X00037845Y-00224115D01*
X00035305Y-00219035*
X00040385Y-00221575*
X00045465Y-00219035*
X00042925Y-00224115*
X00045465Y-00229195*
X00040385Y-00226655*
X00035305Y-00229195*
X00078249Y-00188829D02*
X00080789Y-00186289D01*
X00083329*
X00080789Y-00183749*
X00083329Y-00181209*
X00080789*
X00078249Y-00178669*
X00075709Y-00181209*
X00073169*
X00075709Y-00183749*
X00073169Y-00186289*
X00075709*
X00078249Y-00188829*
X00035305Y-00254195D02*
X00037845Y-00249115D01*
X00035305Y-00244035*
X00040385Y-00246575*
X00045465Y-00244035*
X00042925Y-00249115*
X00045465Y-00254195*
X00040385Y-00251655*
X00035305Y-00254195*
X00078249Y-00207329D02*
X00080789Y-00204789D01*
X00083329*
X00080789Y-00202249*
X00083329Y-00199709*
X00080789*
X00078249Y-00197169*
X00075709Y-00199709*
X00073169*
X00075709Y-00202249*
X00073169Y-00204789*
X00075709*
X00078249Y-00207329*
X00035305Y-00279195D02*
X00037845Y-00274115D01*
X00035305Y-00269035*
X00040385Y-00271575*
X00045465Y-00269035*
X00042925Y-00274115*
X00045465Y-00279195*
X00040385Y-00276655*
X00035305Y-00279195*
X00934919Y-00254579D02*
X00937459Y-00249499D01*
X00934919Y-00244419*
X00939999Y-00246959*
X00945079Y-00244419*
X00942539Y-00249499*
X00945079Y-00254579*
X00939999Y-00252039*
X00934919Y-00254579*
Y-00279579D02*
X00937459Y-00274499D01*
X00934919Y-00269419*
X00939999Y-00271959*
X00945079Y-00269419*
X00942539Y-00274499*
X00945079Y-00279579*
X00939999Y-00277039*
X00934919Y-00279579*
X01042999Y-00229079D02*
X01045539Y-00226539D01*
X01048079*
X01045539Y-00223999*
X01048079Y-00221459*
X01045539*
X01042999Y-00218919*
X01040459Y-00221459*
X01037919*
X01040459Y-00223999*
X01037919Y-00226539*
X01040459*
X01042999Y-00229079*
X01125999Y-00166079D02*
X01128539Y-00163539D01*
X01131079*
X01128539Y-00160999*
X01131079Y-00158459*
X01128539*
X01125999Y-00155919*
X01123459Y-00158459*
X01120919*
X01123459Y-00160999*
X01120919Y-00163539*
X01123459*
X01125999Y-00166079*
X01204919Y-00204579D02*
X01207459Y-00199499D01*
X01204919Y-00194419*
X01209999Y-00196959*
X01215079Y-00194419*
X01212539Y-00199499*
X01215079Y-00204579*
X01209999Y-00202039*
X01204919Y-00204579*
Y-00279579D02*
X01207459Y-00274499D01*
X01204919Y-00269419*
X01209999Y-00271959*
X01215079Y-00269419*
X01212539Y-00274499*
X01215079Y-00279579*
X01209999Y-00277039*
X01204919Y-00279579*
Y-00254579D02*
X01207459Y-00249499D01*
X01204919Y-00244419*
X01209999Y-00246959*
X01215079Y-00244419*
X01212539Y-00249499*
X01215079Y-00254579*
X01209999Y-00252039*
X01204919Y-00254579*
Y-00229579D02*
X01207459Y-00224499D01*
X01204919Y-00219419*
X01209999Y-00221959*
X01215079Y-00219419*
X01212539Y-00224499*
X01215079Y-00229579*
X01209999Y-00227039*
X01204919Y-00229579*
X01125999Y-00202079D02*
X01128539Y-00199539D01*
X01131079*
X01128539Y-00196999*
X01131079Y-00194459*
X01128539*
X01125999Y-00191919*
X01123459Y-00194459*
X01120919*
X01123459Y-00196999*
X01120919Y-00199539*
X01123459*
X01125999Y-00202079*
Y-00184079D02*
X01128539Y-00181539D01*
X01131079*
X01128539Y-00178999*
X01131079Y-00176459*
X01128539*
X01125999Y-00173919*
X01123459Y-00176459*
X01120919*
X01123459Y-00178999*
X01120919Y-00181539*
X01123459*
X01125999Y-00184079*
X00969919Y-00314579D02*
X00972459Y-00309499D01*
X00969919Y-00304419*
X00974999Y-00306959*
X00980079Y-00304419*
X00977539Y-00309499*
X00980079Y-00314579*
X00974999Y-00312039*
X00969919Y-00314579*
X01217459Y-00322039D02*
Y-00324579D01*
X01222539*
Y-00322039*
X01225079*
Y-00316959*
X01222539*
Y-00314419*
X01217459*
Y-00316959*
X01214919*
Y-00322039*
X01217459*
X01144919Y-00314579D02*
X01147459Y-00309499D01*
X01144919Y-00304419*
X01149999Y-00306959*
X01155079Y-00304419*
X01152539Y-00309499*
X01155079Y-00314579*
X01149999Y-00312039*
X01144919Y-00314579*
X01069919D02*
X01072459Y-00309499D01*
X01069919Y-00304419*
X01074999Y-00306959*
X01080079Y-00304419*
X01077539Y-00309499*
X01080079Y-00314579*
X01074999Y-00312039*
X01069919Y-00314579*
X01019919D02*
X01022459Y-00309499D01*
X01019919Y-00304419*
X01024999Y-00306959*
X01030079Y-00304419*
X01027539Y-00309499*
X01030079Y-00314579*
X01024999Y-00312039*
X01019919Y-00314579*
X01044919D02*
X01047459Y-00309499D01*
X01044919Y-00304419*
X01049999Y-00306959*
X01055079Y-00304419*
X01052539Y-00309499*
X01055079Y-00314579*
X01049999Y-00312039*
X01044919Y-00314579*
X01094919D02*
X01097459Y-00309499D01*
X01094919Y-00304419*
X01099999Y-00306959*
X01105079Y-00304419*
X01102539Y-00309499*
X01105079Y-00314579*
X01099999Y-00312039*
X01094919Y-00314579*
X01119919D02*
X01122459Y-00309499D01*
X01119919Y-00304419*
X01124999Y-00306959*
X01130079Y-00304419*
X01127539Y-00309499*
X01130079Y-00314579*
X01124999Y-00312039*
X01119919Y-00314579*
X00927459Y-00322039D02*
Y-00324579D01*
X00932539*
Y-00322039*
X00935079*
Y-00316959*
X00932539*
Y-00314419*
X00927459*
Y-00316959*
X00924919*
Y-00322039*
X00927459*
X00994919Y-00314579D02*
X00997459Y-00309499D01*
X00994919Y-00304419*
X00999999Y-00306959*
X01005079Y-00304419*
X01002539Y-00309499*
X01005079Y-00314579*
X00999999Y-00312039*
X00994919Y-00314579*
X01169919D02*
X01172459Y-00309499D01*
X01169919Y-00304419*
X01174999Y-00306959*
X01180079Y-00304419*
X01177539Y-00309499*
X01180079Y-00314579*
X01174999Y-00312039*
X01169919Y-00314579*
Y-00044579D02*
X01172459Y-00039499D01*
X01169919Y-00034419*
X01174999Y-00036959*
X01180079Y-00034419*
X01177539Y-00039499*
X01180079Y-00044579*
X01174999Y-00042039*
X01169919Y-00044579*
X01175999Y-00101079D02*
X01178539Y-00098539D01*
X01181079*
X01178539Y-00095999*
X01181079Y-00093459*
X01178539*
X01175999Y-00090919*
X01173459Y-00093459*
X01170919*
X01173459Y-00095999*
X01170919Y-00098539*
X01173459*
X01175999Y-00101079*
X01119999D02*
X01122539Y-00098539D01*
X01125079*
X01122539Y-00095999*
X01125079Y-00093459*
X01122539*
X01119999Y-00090919*
X01117459Y-00093459*
X01114919*
X01117459Y-00095999*
X01114919Y-00098539*
X01117459*
X01119999Y-00101079*
X01094919Y-00044579D02*
X01097459Y-00039499D01*
X01094919Y-00034419*
X01099999Y-00036959*
X01105079Y-00034419*
X01102539Y-00039499*
X01105079Y-00044579*
X01099999Y-00042039*
X01094919Y-00044579*
X01069919D02*
X01072459Y-00039499D01*
X01069919Y-00034419*
X01074999Y-00036959*
X01080079Y-00034419*
X01077539Y-00039499*
X01080079Y-00044579*
X01074999Y-00042039*
X01069919Y-00044579*
X00970999Y-00101079D02*
X00973539Y-00098539D01*
X00976079*
X00973539Y-00095999*
X00976079Y-00093459*
X00973539*
X00970999Y-00090919*
X00968459Y-00093459*
X00965919*
X00968459Y-00095999*
X00965919Y-00098539*
X00968459*
X00970999Y-00101079*
X01119919Y-00044579D02*
X01122459Y-00039499D01*
X01119919Y-00034419*
X01124999Y-00036959*
X01130079Y-00034419*
X01127539Y-00039499*
X01130079Y-00044579*
X01124999Y-00042039*
X01119919Y-00044579*
X00927459Y-00032039D02*
Y-00034579D01*
X00932539*
Y-00032039*
X00935079*
Y-00026959*
X00932539*
Y-00024419*
X00927459*
Y-00026959*
X00924919*
Y-00032039*
X00927459*
X00969919Y-00044579D02*
X00972459Y-00039499D01*
X00969919Y-00034419*
X00974999Y-00036959*
X00980079Y-00034419*
X00977539Y-00039499*
X00980079Y-00044579*
X00974999Y-00042039*
X00969919Y-00044579*
X01019919D02*
X01022459Y-00039499D01*
X01019919Y-00034419*
X01024999Y-00036959*
X01030079Y-00034419*
X01027539Y-00039499*
X01030079Y-00044579*
X01024999Y-00042039*
X01019919Y-00044579*
X01044919D02*
X01047459Y-00039499D01*
X01044919Y-00034419*
X01049999Y-00036959*
X01055079Y-00034419*
X01052539Y-00039499*
X01055079Y-00044579*
X01049999Y-00042039*
X01044919Y-00044579*
X00994919D02*
X00997459Y-00039499D01*
X00994919Y-00034419*
X00999999Y-00036959*
X01005079Y-00034419*
X01002539Y-00039499*
X01005079Y-00044579*
X00999999Y-00042039*
X00994919Y-00044579*
X01217459Y-00032039D02*
Y-00034579D01*
X01222539*
Y-00032039*
X01225079*
Y-00026959*
X01222539*
Y-00024419*
X01217459*
Y-00026959*
X01214919*
Y-00032039*
X01217459*
X01144919Y-00044579D02*
X01147459Y-00039499D01*
X01144919Y-00034419*
X01149999Y-00036959*
X01155079Y-00034419*
X01152539Y-00039499*
X01155079Y-00044579*
X01149999Y-00042039*
X01144919Y-00044579*
X00934919Y-00229579D02*
X00937459Y-00224499D01*
X00934919Y-00219419*
X00939999Y-00221959*
X00945079Y-00219419*
X00942539Y-00224499*
X00945079Y-00229579*
X00939999Y-00227039*
X00934919Y-00229579*
Y-00204579D02*
X00937459Y-00199499D01*
X00934919Y-00194419*
X00939999Y-00196959*
X00945079Y-00194419*
X00942539Y-00199499*
X00945079Y-00204579*
X00939999Y-00202039*
X00934919Y-00204579*
X0111992Y-00764579D02*
X0112246Y-00759499D01*
X0111992Y-00754419*
X01125Y-00756959*
X0113008Y-00754419*
X0112754Y-00759499*
X0113008Y-00764579*
X01125Y-00762039*
X0111992Y-00764579*
X01144919D02*
X01147459Y-00759499D01*
X01144919Y-00754419*
X01149999Y-00756959*
X01155079Y-00754419*
X01152539Y-00759499*
X01155079Y-00764579*
X01149999Y-00762039*
X01144919Y-00764579*
X01169919D02*
X01172459Y-00759499D01*
X01169919Y-00754419*
X01174999Y-00756959*
X01180079Y-00754419*
X01177539Y-00759499*
X01180079Y-00764579*
X01174999Y-00762039*
X01169919Y-00764579*
X01204919Y-00604579D02*
X01207459Y-00599499D01*
X01204919Y-00594419*
X01209999Y-00596959*
X01215079Y-00594419*
X01212539Y-00599499*
X01215079Y-00604579*
X01209999Y-00602039*
X01204919Y-00604579*
Y-00579579D02*
X01207459Y-00574499D01*
X01204919Y-00569419*
X01209999Y-00571959*
X01215079Y-00569419*
X01212539Y-00574499*
X01215079Y-00579579*
X01209999Y-00577039*
X01204919Y-00579579*
X01217459Y-00772039D02*
Y-00774579D01*
X01222539*
Y-00772039*
X01225079*
Y-00766959*
X01222539*
Y-00764419*
X01217459*
Y-00766959*
X01214919*
Y-00772039*
X01217459*
X00927459Y-00482039D02*
Y-00484579D01*
X00932539*
Y-00482039*
X00935079*
Y-00476959*
X00932539*
Y-00474419*
X00927459*
Y-00476959*
X00924919*
Y-00482039*
X00927459*
X00934919Y-00604579D02*
X00937459Y-00599499D01*
X00934919Y-00594419*
X00939999Y-00596959*
X00945079Y-00594419*
X00942539Y-00599499*
X00945079Y-00604579*
X00939999Y-00602039*
X00934919Y-00604579*
Y-00579579D02*
X00937459Y-00574499D01*
X00934919Y-00569419*
X00939999Y-00571959*
X00945079Y-00569419*
X00942539Y-00574499*
X00945079Y-00579579*
X00939999Y-00577039*
X00934919Y-00579579*
Y-00554579D02*
X00937459Y-00549499D01*
X00934919Y-00544419*
X00939999Y-00546959*
X00945079Y-00544419*
X00942539Y-00549499*
X00945079Y-00554579*
X00939999Y-00552039*
X00934919Y-00554579*
Y-00529579D02*
X00937459Y-00524499D01*
X00934919Y-00519419*
X00939999Y-00521959*
X00945079Y-00519419*
X00942539Y-00524499*
X00945079Y-00529579*
X00939999Y-00527039*
X00934919Y-00529579*
X0096992Y-00494579D02*
X0097246Y-00489499D01*
X0096992Y-00484419*
X00975Y-00486959*
X0098008Y-00484419*
X0097754Y-00489499*
X0098008Y-00494579*
X00975Y-00492039*
X0096992Y-00494579*
X0099492D02*
X0099746Y-00489499D01*
X0099492Y-00484419*
X01Y-00486959*
X0100508Y-00484419*
X0100254Y-00489499*
X0100508Y-00494579*
X01Y-00492039*
X0099492Y-00494579*
X01019919D02*
X01022459Y-00489499D01*
X01019919Y-00484419*
X01024999Y-00486959*
X01030079Y-00484419*
X01027539Y-00489499*
X01030079Y-00494579*
X01024999Y-00492039*
X01019919Y-00494579*
X01044919D02*
X01047459Y-00489499D01*
X01044919Y-00484419*
X01049999Y-00486959*
X01055079Y-00484419*
X01052539Y-00489499*
X01055079Y-00494579*
X01049999Y-00492039*
X01044919Y-00494579*
X01069919D02*
X01072459Y-00489499D01*
X01069919Y-00484419*
X01074999Y-00486959*
X01080079Y-00484419*
X01077539Y-00489499*
X01080079Y-00494579*
X01074999Y-00492039*
X01069919Y-00494579*
X0109492D02*
X0109746Y-00489499D01*
X0109492Y-00484419*
X011Y-00486959*
X0110508Y-00484419*
X0110254Y-00489499*
X0110508Y-00494579*
X011Y-00492039*
X0109492Y-00494579*
X0111992D02*
X0112246Y-00489499D01*
X0111992Y-00484419*
X01125Y-00486959*
X0113008Y-00484419*
X0112754Y-00489499*
X0113008Y-00494579*
X01125Y-00492039*
X0111992Y-00494579*
X01144919D02*
X01147459Y-00489499D01*
X01144919Y-00484419*
X01149999Y-00486959*
X01155079Y-00484419*
X01152539Y-00489499*
X01155079Y-00494579*
X01149999Y-00492039*
X01144919Y-00494579*
X01169919D02*
X01172459Y-00489499D01*
X01169919Y-00484419*
X01174999Y-00486959*
X01180079Y-00484419*
X01177539Y-00489499*
X01180079Y-00494579*
X01174999Y-00492039*
X01169919Y-00494579*
X01204919Y-00529579D02*
X01207459Y-00524499D01*
X01204919Y-00519419*
X01209999Y-00521959*
X01215079Y-00519419*
X01212539Y-00524499*
X01215079Y-00529579*
X01209999Y-00527039*
X01204919Y-00529579*
Y-00554579D02*
X01207459Y-00549499D01*
X01204919Y-00544419*
X01209999Y-00546959*
X01215079Y-00544419*
X01212539Y-00549499*
X01215079Y-00554579*
X01209999Y-00552039*
X01204919Y-00554579*
X01217459Y-00482039D02*
Y-00484579D01*
X01222539*
Y-00482039*
X01225079*
Y-00476959*
X01222539*
Y-00474419*
X01217459*
Y-00476959*
X01214919*
Y-00482039*
X01217459*
X0099492Y-00764579D02*
X0099746Y-00759499D01*
X0099492Y-00754419*
X01Y-00756959*
X0100508Y-00754419*
X0100254Y-00759499*
X0100508Y-00764579*
X01Y-00762039*
X0099492Y-00764579*
X00997499Y-00711079D02*
X01000039Y-00708539D01*
X01002579*
X01000039Y-00705999*
X01002579Y-00703459*
X01000039*
X00997499Y-00700919*
X00994959Y-00703459*
X00992419*
X00994959Y-00705999*
X00992419Y-00708539*
X00994959*
X00997499Y-00711079*
X01019919Y-00764579D02*
X01022459Y-00759499D01*
X01019919Y-00754419*
X01024999Y-00756959*
X01030079Y-00754419*
X01027539Y-00759499*
X01030079Y-00764579*
X01024999Y-00762039*
X01019919Y-00764579*
X01044919D02*
X01047459Y-00759499D01*
X01044919Y-00754419*
X01049999Y-00756959*
X01055079Y-00754419*
X01052539Y-00759499*
X01055079Y-00764579*
X01049999Y-00762039*
X01044919Y-00764579*
X01069919D02*
X01072459Y-00759499D01*
X01069919Y-00754419*
X01074999Y-00756959*
X01080079Y-00754419*
X01077539Y-00759499*
X01080079Y-00764579*
X01074999Y-00762039*
X01069919Y-00764579*
X0109492D02*
X0109746Y-00759499D01*
X0109492Y-00754419*
X011Y-00756959*
X0110508Y-00754419*
X0110254Y-00759499*
X0110508Y-00764579*
X011Y-00762039*
X0109492Y-00764579*
X0096992D02*
X0097246Y-00759499D01*
X0096992Y-00754419*
X00975Y-00756959*
X0098008Y-00754419*
X0097754Y-00759499*
X0098008Y-00764579*
X00975Y-00762039*
X0096992Y-00764579*
X00927459Y-00772039D02*
Y-00774579D01*
X00932539*
Y-00772039*
X00935079*
Y-00766959*
X00932539*
Y-00764419*
X00927459*
Y-00766959*
X00924919*
Y-00772039*
X00927459*
X00477459Y-00771539D02*
Y-00774079D01*
X00482539*
Y-00771539*
X00485079*
Y-00766459*
X00482539*
Y-00763919*
X00477459*
Y-00766459*
X00474919*
Y-00771539*
X00477459*
X00767459D02*
Y-00774079D01*
X00772539*
Y-00771539*
X00775079*
Y-00766459*
X00772539*
Y-00763919*
X00767459*
Y-00766459*
X00764919*
Y-00771539*
X00767459*
Y-00481539D02*
Y-00484079D01*
X00772539*
Y-00481539*
X00775079*
Y-00476459*
X00772539*
Y-00473919*
X00767459*
Y-00476459*
X00764919*
Y-00481539*
X00767459*
X00477459D02*
Y-00484079D01*
X00482539*
Y-00481539*
X00485079*
Y-00476459*
X00482539*
Y-00473919*
X00477459*
Y-00476459*
X00474919*
Y-00481539*
X00477459*
X00754919Y-00579079D02*
X00757459Y-00573999D01*
X00754919Y-00568919*
X00759999Y-00571459*
X00765079Y-00568919*
X00762539Y-00573999*
X00765079Y-00579079*
X00759999Y-00576539*
X00754919Y-00579079*
Y-00529079D02*
X00757459Y-00523999D01*
X00754919Y-00518919*
X00759999Y-00521459*
X00765079Y-00518919*
X00762539Y-00523999*
X00765079Y-00529079*
X00759999Y-00526539*
X00754919Y-00529079*
Y-00604079D02*
X00757459Y-00598999D01*
X00754919Y-00593919*
X00759999Y-00596459*
X00765079Y-00593919*
X00762539Y-00598999*
X00765079Y-00604079*
X00759999Y-00601539*
X00754919Y-00604079*
Y-00554079D02*
X00757459Y-00548999D01*
X00754919Y-00543919*
X00759999Y-00546459*
X00765079Y-00543919*
X00762539Y-00548999*
X00765079Y-00554079*
X00759999Y-00551539*
X00754919Y-00554079*
X00484919Y-00579079D02*
X00487459Y-00573999D01*
X00484919Y-00568919*
X00489999Y-00571459*
X00495079Y-00568919*
X00492539Y-00573999*
X00495079Y-00579079*
X00489999Y-00576539*
X00484919Y-00579079*
Y-00529079D02*
X00487459Y-00523999D01*
X00484919Y-00518919*
X00489999Y-00521459*
X00495079Y-00518919*
X00492539Y-00523999*
X00495079Y-00529079*
X00489999Y-00526539*
X00484919Y-00529079*
Y-00554079D02*
X00487459Y-00548999D01*
X00484919Y-00543919*
X00489999Y-00546459*
X00495079Y-00543919*
X00492539Y-00548999*
X00495079Y-00554079*
X00489999Y-00551539*
X00484919Y-00554079*
Y-00604079D02*
X00487459Y-00598999D01*
X00484919Y-00593919*
X00489999Y-00596459*
X00495079Y-00593919*
X00492539Y-00598999*
X00495079Y-00604079*
X00489999Y-00601539*
X00484919Y-00604079*
X00694919Y-00764079D02*
X00697459Y-00758999D01*
X00694919Y-00753919*
X00699999Y-00756459*
X00705079Y-00753919*
X00702539Y-00758999*
X00705079Y-00764079*
X00699999Y-00761539*
X00694919Y-00764079*
X00619919D02*
X00622459Y-00758999D01*
X00619919Y-00753919*
X00624999Y-00756459*
X00630079Y-00753919*
X00627539Y-00758999*
X00630079Y-00764079*
X00624999Y-00761539*
X00619919Y-00764079*
X00594919D02*
X00597459Y-00758999D01*
X00594919Y-00753919*
X00599999Y-00756459*
X00605079Y-00753919*
X00602539Y-00758999*
X00605079Y-00764079*
X00599999Y-00761539*
X00594919Y-00764079*
X00644919D02*
X00647459Y-00758999D01*
X00644919Y-00753919*
X00649999Y-00756459*
X00655079Y-00753919*
X00652539Y-00758999*
X00655079Y-00764079*
X00649999Y-00761539*
X00644919Y-00764079*
X00719919D02*
X00722459Y-00758999D01*
X00719919Y-00753919*
X00724999Y-00756459*
X00730079Y-00753919*
X00727539Y-00758999*
X00730079Y-00764079*
X00724999Y-00761539*
X00719919Y-00764079*
X00544919D02*
X00547459Y-00758999D01*
X00544919Y-00753919*
X00549999Y-00756459*
X00555079Y-00753919*
X00552539Y-00758999*
X00555079Y-00764079*
X00549999Y-00761539*
X00544919Y-00764079*
X00519919D02*
X00522459Y-00758999D01*
X00519919Y-00753919*
X00524999Y-00756459*
X00530079Y-00753919*
X00527539Y-00758999*
X00530079Y-00764079*
X00524999Y-00761539*
X00519919Y-00764079*
X00569919D02*
X00572459Y-00758999D01*
X00569919Y-00753919*
X00574999Y-00756459*
X00580079Y-00753919*
X00577539Y-00758999*
X00580079Y-00764079*
X00574999Y-00761539*
X00569919Y-00764079*
X00669919D02*
X00672459Y-00758999D01*
X00669919Y-00753919*
X00674999Y-00756459*
X00680079Y-00753919*
X00677539Y-00758999*
X00680079Y-00764079*
X00674999Y-00761539*
X00669919Y-00764079*
X00544919Y-00494079D02*
X00547459Y-00488999D01*
X00544919Y-00483919*
X00549999Y-00486459*
X00555079Y-00483919*
X00552539Y-00488999*
X00555079Y-00494079*
X00549999Y-00491539*
X00544919Y-00494079*
X00519919D02*
X00522459Y-00488999D01*
X00519919Y-00483919*
X00524999Y-00486459*
X00530079Y-00483919*
X00527539Y-00488999*
X00530079Y-00494079*
X00524999Y-00491539*
X00519919Y-00494079*
X00694919D02*
X00697459Y-00488999D01*
X00694919Y-00483919*
X00699999Y-00486459*
X00705079Y-00483919*
X00702539Y-00488999*
X00705079Y-00494079*
X00699999Y-00491539*
X00694919Y-00494079*
X00719919D02*
X00722459Y-00488999D01*
X00719919Y-00483919*
X00724999Y-00486459*
X00730079Y-00483919*
X00727539Y-00488999*
X00730079Y-00494079*
X00724999Y-00491539*
X00719919Y-00494079*
X00531279Y-00721979D02*
X00533819Y-00716899D01*
X00531279Y-00711819*
X00536359Y-00714359*
X00541439Y-00711819*
X00538899Y-00716899*
X00541439Y-00721979*
X00536359Y-00719439*
X00531279Y-00721979*
X00549059D02*
X00551599Y-00716899D01*
X00549059Y-00711819*
X00554139Y-00714359*
X00559219Y-00711819*
X00556679Y-00716899*
X00559219Y-00721979*
X00554139Y-00719439*
X00549059Y-00721979*
X00569919Y-00721579D02*
X00572459Y-00716499D01*
X00569919Y-00711419*
X00574999Y-00713959*
X00580079Y-00711419*
X00577539Y-00716499*
X00580079Y-00721579*
X00574999Y-00719039*
X00569919Y-00721579*
X00586919D02*
X00589459Y-00716499D01*
X00586919Y-00711419*
X00591999Y-00713959*
X00597079Y-00711419*
X00594539Y-00716499*
X00597079Y-00721579*
X00591999Y-00719039*
X00586919Y-00721579*
X00139999Y-00633079D02*
X00142539Y-00630539D01*
X00145079*
X00142539Y-00627999*
X00145079Y-00625459*
X00142539*
X00139999Y-00622919*
X00137459Y-00625459*
X00134919*
X00137459Y-00627999*
X00134919Y-00630539*
X00137459*
X00139999Y-00633079*
X00228749Y-00643079D02*
X00231289Y-00640539D01*
X00233829*
X00231289Y-00637999*
X00233829Y-00635459*
X00231289*
X00228749Y-00632919*
X00226209Y-00635459*
X00223669*
X00226209Y-00637999*
X00223669Y-00640539*
X00226209*
X00228749Y-00643079*
X00254999D02*
X00257539Y-00640539D01*
X00260079*
X00257539Y-00637999*
X00260079Y-00635459*
X00257539*
X00254999Y-00632919*
X00252459Y-00635459*
X00249919*
X00252459Y-00637999*
X00249919Y-00640539*
X00252459*
X00254999Y-00643079*
X00119919Y-00495079D02*
X00122459Y-00489999D01*
X00119919Y-00484919*
X00124999Y-00487459*
X00130079Y-00484919*
X00127539Y-00489999*
X00130079Y-00495079*
X00124999Y-00492539*
X00119919Y-00495079*
X00219919D02*
X00222459Y-00489999D01*
X00219919Y-00484919*
X00224999Y-00487459*
X00230079Y-00484919*
X00227539Y-00489999*
X00230079Y-00495079*
X00224999Y-00492539*
X00219919Y-00495079*
X00269919D02*
X00272459Y-00489999D01*
X00269919Y-00484919*
X00274999Y-00487459*
X00280079Y-00484919*
X00277539Y-00489999*
X00280079Y-00495079*
X00274999Y-00492539*
X00269919Y-00495079*
X00244919D02*
X00247459Y-00489999D01*
X00244919Y-00484919*
X00249999Y-00487459*
X00255079Y-00484919*
X00252539Y-00489999*
X00255079Y-00495079*
X00249999Y-00492539*
X00244919Y-00495079*
X00069919D02*
X00072459Y-00489999D01*
X00069919Y-00484919*
X00074999Y-00487459*
X00080079Y-00484919*
X00077539Y-00489999*
X00080079Y-00495079*
X00074999Y-00492539*
X00069919Y-00495079*
X00144919D02*
X00147459Y-00489999D01*
X00144919Y-00484919*
X00149999Y-00487459*
X00155079Y-00484919*
X00152539Y-00489999*
X00155079Y-00495079*
X00149999Y-00492539*
X00144919Y-00495079*
X00194919D02*
X00197459Y-00489999D01*
X00194919Y-00484919*
X00199999Y-00487459*
X00205079Y-00484919*
X00202539Y-00489999*
X00205079Y-00495079*
X00199999Y-00492539*
X00194919Y-00495079*
X00169919D02*
X00172459Y-00489999D01*
X00169919Y-00484919*
X00174999Y-00487459*
X00180079Y-00484919*
X00177539Y-00489999*
X00180079Y-00495079*
X00174999Y-00492539*
X00169919Y-00495079*
X00094919D02*
X00097459Y-00489999D01*
X00094919Y-00484919*
X00099999Y-00487459*
X00105079Y-00484919*
X00102539Y-00489999*
X00105079Y-00495079*
X00099999Y-00492539*
X00094919Y-00495079*
X00034919Y-00605079D02*
X00037459Y-00599999D01*
X00034919Y-00594919*
X00039999Y-00597459*
X00045079Y-00594919*
X00042539Y-00599999*
X00045079Y-00605079*
X00039999Y-00602539*
X00034919Y-00605079*
Y-00555079D02*
X00037459Y-00549999D01*
X00034919Y-00544919*
X00039999Y-00547459*
X00045079Y-00544919*
X00042539Y-00549999*
X00045079Y-00555079*
X00039999Y-00552539*
X00034919Y-00555079*
Y-00530079D02*
X00037459Y-00524999D01*
X00034919Y-00519919*
X00039999Y-00522459*
X00045079Y-00519919*
X00042539Y-00524999*
X00045079Y-00530079*
X00039999Y-00527539*
X00034919Y-00530079*
Y-00580079D02*
X00037459Y-00574999D01*
X00034919Y-00569919*
X00039999Y-00572459*
X00045079Y-00569919*
X00042539Y-00574999*
X00045079Y-00580079*
X00039999Y-00577539*
X00034919Y-00580079*
X00304919Y-00555079D02*
X00307459Y-00549999D01*
X00304919Y-00544919*
X00309999Y-00547459*
X00315079Y-00544919*
X00312539Y-00549999*
X00315079Y-00555079*
X00309999Y-00552539*
X00304919Y-00555079*
Y-00605079D02*
X00307459Y-00599999D01*
X00304919Y-00594919*
X00309999Y-00597459*
X00315079Y-00594919*
X00312539Y-00599999*
X00315079Y-00605079*
X00309999Y-00602539*
X00304919Y-00605079*
Y-00530079D02*
X00307459Y-00524999D01*
X00304919Y-00519919*
X00309999Y-00522459*
X00315079Y-00519919*
X00312539Y-00524999*
X00315079Y-00530079*
X00309999Y-00527539*
X00304919Y-00530079*
Y-00580079D02*
X00307459Y-00574999D01*
X00304919Y-00569919*
X00309999Y-00572459*
X00315079Y-00569919*
X00312539Y-00574999*
X00315079Y-00580079*
X00309999Y-00577539*
X00304919Y-00580079*
X00027459Y-00482539D02*
Y-00485079D01*
X00032539*
Y-00482539*
X00035079*
Y-00477459*
X00032539*
Y-00474919*
X00027459*
Y-00477459*
X00024919*
Y-00482539*
X00027459*
X00317459D02*
Y-00485079D01*
X00322539*
Y-00482539*
X00325079*
Y-00477459*
X00322539*
Y-00474919*
X00317459*
Y-00477459*
X00314919*
Y-00482539*
X00317459*
G54D136*
X00664679Y-00064999D02*
D01*
X00664667Y-00064645*
X0066463Y-00064292*
X00664568Y-00063943*
X00664483Y-00063599*
X00664373Y-00063262*
X0066424Y-00062933*
X00664085Y-00062615*
X00663907Y-00062307*
X00663709Y-00062013*
X00663491Y-00061734*
X00663254Y-00061471*
X00662999Y-00061224*
X00662727Y-00060996*
X0066244Y-00060788*
X00662139Y-000606*
X00661826Y-00060433*
X00661502Y-00060289*
X00661169Y-00060168*
X00660828Y-0006007*
X00660482Y-00059997*
X0066013Y-00059947*
X00659777Y-00059922*
X00659422*
X00659068Y-00059947*
X00658717Y-00059997*
X0065837Y-0006007*
X0065803Y-00060168*
X00657696Y-00060289*
X00657372Y-00060433*
X00657059Y-000606*
X00656759Y-00060788*
X00656472Y-00060996*
X006562Y-00061224*
X00655945Y-00061471*
X00655708Y-00061734*
X0065549Y-00062013*
X00655291Y-00062307*
X00655114Y-00062615*
X00654959Y-00062933*
X00654826Y-00063262*
X00654716Y-00063599*
X0065463Y-00063943*
X00654569Y-00064292*
X00654532Y-00064645*
X00654519Y-00064999*
X00654532Y-00065354*
X00654569Y-00065706*
X0065463Y-00066056*
X00654716Y-000664*
X00654826Y-00066737*
X00654959Y-00067066*
X00655114Y-00067384*
X00655291Y-00067691*
X0065549Y-00067985*
X00655708Y-00068265*
X00655945Y-00068528*
X006562Y-00068775*
X00656472Y-00069002*
X00656759Y-00069211*
X00657059Y-00069399*
X00657372Y-00069565*
X00657696Y-0006971*
X0065803Y-00069831*
X0065837Y-00069928*
X00658717Y-00070002*
X00659068Y-00070051*
X00659422Y-00070076*
X00659777*
X0066013Y-00070051*
X00660482Y-00070002*
X00660828Y-00069928*
X00661169Y-00069831*
X00661502Y-0006971*
X00661826Y-00069565*
X00662139Y-00069399*
X0066244Y-00069211*
X00662727Y-00069002*
X00662999Y-00068775*
X00663254Y-00068528*
X00663491Y-00068265*
X00663709Y-00067985*
X00663907Y-00067691*
X00664085Y-00067384*
X0066424Y-00067066*
X00664373Y-00066737*
X00664483Y-000664*
X00664568Y-00066056*
X0066463Y-00065706*
X00664667Y-00065354*
X00664679Y-00064999*
X00690079D02*
D01*
X00690067Y-00064645*
X0069003Y-00064292*
X00689968Y-00063943*
X00689883Y-00063599*
X00689773Y-00063262*
X0068964Y-00062933*
X00689485Y-00062615*
X00689307Y-00062307*
X00689109Y-00062013*
X00688891Y-00061734*
X00688654Y-00061471*
X00688399Y-00061224*
X00688127Y-00060996*
X0068784Y-00060788*
X00687539Y-000606*
X00687226Y-00060433*
X00686902Y-00060289*
X00686569Y-00060168*
X00686228Y-0006007*
X00685882Y-00059997*
X0068553Y-00059947*
X00685177Y-00059922*
X00684822*
X00684468Y-00059947*
X00684117Y-00059997*
X0068377Y-0006007*
X0068343Y-00060168*
X00683096Y-00060289*
X00682772Y-00060433*
X00682459Y-000606*
X00682159Y-00060788*
X00681872Y-00060996*
X006816Y-00061224*
X00681345Y-00061471*
X00681108Y-00061734*
X0068089Y-00062013*
X00680691Y-00062307*
X00680514Y-00062615*
X00680359Y-00062933*
X00680226Y-00063262*
X00680116Y-00063599*
X0068003Y-00063943*
X00679969Y-00064292*
X00679932Y-00064645*
X00679919Y-00064999*
X00679932Y-00065354*
X00679969Y-00065706*
X0068003Y-00066056*
X00680116Y-000664*
X00680226Y-00066737*
X00680359Y-00067066*
X00680514Y-00067384*
X00680691Y-00067691*
X0068089Y-00067985*
X00681108Y-00068265*
X00681345Y-00068528*
X006816Y-00068775*
X00681872Y-00069002*
X00682159Y-00069211*
X00682459Y-00069399*
X00682772Y-00069565*
X00683096Y-0006971*
X0068343Y-00069831*
X0068377Y-00069928*
X00684117Y-00070002*
X00684468Y-00070051*
X00684822Y-00070076*
X00685177*
X0068553Y-00070051*
X00685882Y-00070002*
X00686228Y-00069928*
X00686569Y-00069831*
X00686902Y-0006971*
X00687226Y-00069565*
X00687539Y-00069399*
X0068784Y-00069211*
X00688127Y-00069002*
X00688399Y-00068775*
X00688654Y-00068528*
X00688891Y-00068265*
X00689109Y-00067985*
X00689307Y-00067691*
X00689485Y-00067384*
X0068964Y-00067066*
X00689773Y-00066737*
X00689883Y-000664*
X00689968Y-00066056*
X0069003Y-00065706*
X00690067Y-00065354*
X00690079Y-00064999*
X00715479D02*
D01*
X00715467Y-00064645*
X0071543Y-00064292*
X00715368Y-00063943*
X00715283Y-00063599*
X00715173Y-00063262*
X0071504Y-00062933*
X00714885Y-00062615*
X00714707Y-00062307*
X00714509Y-00062013*
X00714291Y-00061734*
X00714054Y-00061471*
X00713799Y-00061224*
X00713527Y-00060996*
X0071324Y-00060788*
X00712939Y-000606*
X00712626Y-00060433*
X00712302Y-00060289*
X00711969Y-00060168*
X00711628Y-0006007*
X00711282Y-00059997*
X0071093Y-00059947*
X00710577Y-00059922*
X00710222*
X00709868Y-00059947*
X00709517Y-00059997*
X0070917Y-0006007*
X0070883Y-00060168*
X00708496Y-00060289*
X00708172Y-00060433*
X00707859Y-000606*
X00707559Y-00060788*
X00707272Y-00060996*
X00707Y-00061224*
X00706745Y-00061471*
X00706508Y-00061734*
X0070629Y-00062013*
X00706091Y-00062307*
X00705914Y-00062615*
X00705759Y-00062933*
X00705626Y-00063262*
X00705516Y-00063599*
X0070543Y-00063943*
X00705369Y-00064292*
X00705332Y-00064645*
X00705319Y-00064999*
X00705332Y-00065354*
X00705369Y-00065706*
X0070543Y-00066056*
X00705516Y-000664*
X00705626Y-00066737*
X00705759Y-00067066*
X00705914Y-00067384*
X00706091Y-00067691*
X0070629Y-00067985*
X00706508Y-00068265*
X00706745Y-00068528*
X00707Y-00068775*
X00707272Y-00069002*
X00707559Y-00069211*
X00707859Y-00069399*
X00708172Y-00069565*
X00708496Y-0006971*
X0070883Y-00069831*
X0070917Y-00069928*
X00709517Y-00070002*
X00709868Y-00070051*
X00710222Y-00070076*
X00710577*
X0071093Y-00070051*
X00711282Y-00070002*
X00711628Y-00069928*
X00711969Y-00069831*
X00712302Y-0006971*
X00712626Y-00069565*
X00712939Y-00069399*
X0071324Y-00069211*
X00713527Y-00069002*
X00713799Y-00068775*
X00714054Y-00068528*
X00714291Y-00068265*
X00714509Y-00067985*
X00714707Y-00067691*
X00714885Y-00067384*
X0071504Y-00067066*
X00715173Y-00066737*
X00715283Y-000664*
X00715368Y-00066056*
X0071543Y-00065706*
X00715467Y-00065354*
X00715479Y-00064999*
X00199679Y-00519999D02*
D01*
X00199667Y-00519645*
X0019963Y-00519292*
X00199568Y-00518943*
X00199482Y-00518599*
X00199373Y-00518262*
X0019924Y-00517933*
X00199085Y-00517614*
X00198907Y-00517307*
X00198709Y-00517013*
X00198491Y-00516734*
X00198254Y-0051647*
X00197999Y-00516224*
X00197727Y-00515996*
X0019744Y-00515788*
X00197139Y-005156*
X00196826Y-00515434*
X00196502Y-00515289*
X00196169Y-00515168*
X00195828Y-0051507*
X00195481Y-00514996*
X0019513Y-00514947*
X00194777Y-00514923*
X00194422*
X00194068Y-00514947*
X00193717Y-00514996*
X0019337Y-0051507*
X0019303Y-00515168*
X00192696Y-00515289*
X00192372Y-00515434*
X00192059Y-005156*
X00191759Y-00515788*
X00191472Y-00515996*
X001912Y-00516224*
X00190945Y-0051647*
X00190708Y-00516734*
X0019049Y-00517013*
X00190291Y-00517307*
X00190114Y-00517614*
X00189958Y-00517933*
X00189826Y-00518262*
X00189716Y-00518599*
X0018963Y-00518943*
X00189569Y-00519292*
X00189532Y-00519645*
X00189519Y-00519999*
X00189532Y-00520354*
X00189569Y-00520706*
X0018963Y-00521056*
X00189716Y-005214*
X00189826Y-00521737*
X00189958Y-00522066*
X00190114Y-00522384*
X00190291Y-00522691*
X0019049Y-00522985*
X00190708Y-00523265*
X00190945Y-00523528*
X001912Y-00523774*
X00191472Y-00524003*
X00191759Y-00524211*
X00192059Y-00524399*
X00192372Y-00524565*
X00192696Y-00524709*
X0019303Y-00524831*
X0019337Y-00524929*
X00193717Y-00525002*
X00194068Y-00525052*
X00194422Y-00525076*
X00194777*
X0019513Y-00525052*
X00195481Y-00525002*
X00195828Y-00524929*
X00196169Y-00524831*
X00196502Y-00524709*
X00196826Y-00524565*
X00197139Y-00524399*
X0019744Y-00524211*
X00197727Y-00524003*
X00197999Y-00523774*
X00198254Y-00523528*
X00198491Y-00523265*
X00198709Y-00522985*
X00198907Y-00522691*
X00199085Y-00522384*
X0019924Y-00522066*
X00199373Y-00521737*
X00199482Y-005214*
X00199568Y-00521056*
X0019963Y-00520706*
X00199667Y-00520354*
X00199679Y-00519999*
X00225079D02*
D01*
X00225067Y-00519645*
X0022503Y-00519292*
X00224968Y-00518943*
X00224882Y-00518599*
X00224773Y-00518262*
X0022464Y-00517933*
X00224485Y-00517614*
X00224307Y-00517307*
X00224109Y-00517013*
X00223891Y-00516734*
X00223654Y-0051647*
X00223399Y-00516224*
X00223127Y-00515996*
X0022284Y-00515788*
X00222539Y-005156*
X00222226Y-00515434*
X00221902Y-00515289*
X00221569Y-00515168*
X00221228Y-0051507*
X00220881Y-00514996*
X0022053Y-00514947*
X00220177Y-00514923*
X00219822*
X00219468Y-00514947*
X00219117Y-00514996*
X0021877Y-0051507*
X0021843Y-00515168*
X00218096Y-00515289*
X00217772Y-00515434*
X00217459Y-005156*
X00217159Y-00515788*
X00216872Y-00515996*
X002166Y-00516224*
X00216345Y-0051647*
X00216108Y-00516734*
X0021589Y-00517013*
X00215691Y-00517307*
X00215514Y-00517614*
X00215358Y-00517933*
X00215226Y-00518262*
X00215116Y-00518599*
X0021503Y-00518943*
X00214969Y-00519292*
X00214932Y-00519645*
X00214919Y-00519999*
X00214932Y-00520354*
X00214969Y-00520706*
X0021503Y-00521056*
X00215116Y-005214*
X00215226Y-00521737*
X00215358Y-00522066*
X00215514Y-00522384*
X00215691Y-00522691*
X0021589Y-00522985*
X00216108Y-00523265*
X00216345Y-00523528*
X002166Y-00523774*
X00216872Y-00524003*
X00217159Y-00524211*
X00217459Y-00524399*
X00217772Y-00524565*
X00218096Y-00524709*
X0021843Y-00524831*
X0021877Y-00524929*
X00219117Y-00525002*
X00219468Y-00525052*
X00219822Y-00525076*
X00220177*
X0022053Y-00525052*
X00220881Y-00525002*
X00221228Y-00524929*
X00221569Y-00524831*
X00221902Y-00524709*
X00222226Y-00524565*
X00222539Y-00524399*
X0022284Y-00524211*
X00223127Y-00524003*
X00223399Y-00523774*
X00223654Y-00523528*
X00223891Y-00523265*
X00224109Y-00522985*
X00224307Y-00522691*
X00224485Y-00522384*
X0022464Y-00522066*
X00224773Y-00521737*
X00224882Y-005214*
X00224968Y-00521056*
X0022503Y-00520706*
X00225067Y-00520354*
X00225079Y-00519999*
X00250479D02*
D01*
X00250467Y-00519645*
X0025043Y-00519292*
X00250368Y-00518943*
X00250282Y-00518599*
X00250173Y-00518262*
X0025004Y-00517933*
X00249885Y-00517614*
X00249707Y-00517307*
X00249509Y-00517013*
X00249291Y-00516734*
X00249054Y-0051647*
X00248799Y-00516224*
X00248527Y-00515996*
X0024824Y-00515788*
X00247939Y-005156*
X00247626Y-00515434*
X00247302Y-00515289*
X00246969Y-00515168*
X00246628Y-0051507*
X00246281Y-00514996*
X0024593Y-00514947*
X00245577Y-00514923*
X00245222*
X00244868Y-00514947*
X00244517Y-00514996*
X0024417Y-0051507*
X0024383Y-00515168*
X00243496Y-00515289*
X00243172Y-00515434*
X00242859Y-005156*
X00242559Y-00515788*
X00242272Y-00515996*
X00242Y-00516224*
X00241745Y-0051647*
X00241508Y-00516734*
X0024129Y-00517013*
X00241091Y-00517307*
X00240914Y-00517614*
X00240758Y-00517933*
X00240626Y-00518262*
X00240516Y-00518599*
X0024043Y-00518943*
X00240369Y-00519292*
X00240332Y-00519645*
X00240319Y-00519999*
X00240332Y-00520354*
X00240369Y-00520706*
X0024043Y-00521056*
X00240516Y-005214*
X00240626Y-00521737*
X00240758Y-00522066*
X00240914Y-00522384*
X00241091Y-00522691*
X0024129Y-00522985*
X00241508Y-00523265*
X00241745Y-00523528*
X00242Y-00523774*
X00242272Y-00524003*
X00242559Y-00524211*
X00242859Y-00524399*
X00243172Y-00524565*
X00243496Y-00524709*
X0024383Y-00524831*
X0024417Y-00524929*
X00244517Y-00525002*
X00244868Y-00525052*
X00245222Y-00525076*
X00245577*
X0024593Y-00525052*
X00246281Y-00525002*
X00246628Y-00524929*
X00246969Y-00524831*
X00247302Y-00524709*
X00247626Y-00524565*
X00247939Y-00524399*
X0024824Y-00524211*
X00248527Y-00524003*
X00248799Y-00523774*
X00249054Y-00523528*
X00249291Y-00523265*
X00249509Y-00522985*
X00249707Y-00522691*
X00249885Y-00522384*
X0025004Y-00522066*
X00250173Y-00521737*
X00250282Y-005214*
X00250368Y-00521056*
X0025043Y-00520706*
X00250467Y-00520354*
X00250479Y-00519999*
M02*