%FSTAX44Y44*%
%MOMM*%
%SFA1B1*%

%IPPOS*%
%AMD23*
4,1,8,-0.701040,-0.139700,0.701040,-0.139700,0.734060,-0.104140,0.734060,0.104140,0.701040,0.139700,-0.701040,0.139700,-0.734060,0.104140,-0.734060,-0.104140,-0.701040,-0.139700,0.0*
1,1,0.070000,-0.701040,-0.104140*
1,1,0.070000,0.701040,-0.104140*
1,1,0.070000,0.701040,0.104140*
1,1,0.070000,-0.701040,0.104140*
%
%ADD10C,0.368299*%
%ADD11R,0.999998X0.899998*%
%ADD12R,0.899998X0.999998*%
%ADD13R,4.199992X1.199998*%
%ADD14R,4.199992X1.999996*%
%ADD15R,2.099996X0.899998*%
%ADD16R,2.099996X3.199994*%
%ADD17R,1.399997X1.199998*%
%ADD18R,1.199998X1.399997*%
%ADD19R,0.787398X0.355599*%
%ADD20R,1.199998X4.199992*%
%ADD21R,1.999996X4.199992*%
%ADD22R,1.422397X0.431799*%
G04~CAMADD=23~8~0.0~0.0~578.7~110.2~13.8~0.0~15~0.0~0.0~0.0~0.0~0~0.0~0.0~0.0~0.0~0~0.0~0.0~0.0~180.0~578.0~110.0*
%ADD23D23*%
%ADD24R,0.355599X0.787398*%
%ADD25R,0.304799X0.507999*%
%ADD26R,1.142998X0.457199*%
%ADD27R,1.149998X0.599999*%
%ADD28R,1.149998X0.499999*%
%ADD29R,1.149998X0.799998*%
%ADD30R,1.019998X0.889998*%
%ADD31C,0.253999*%
%ADD32C,0.999998*%
%ADD33C,0.399999*%
%ADD34C,0.380999*%
%ADD35C,0.499999*%
%ADD36R,33.999932X8.449983*%
%ADD37R,5.199990X18.949962*%
%ADD38R,0.749999X2.507995*%
%ADD39R,0.749999X3.499993*%
%ADD40R,2.699995X7.749985*%
%ADD41R,0.999998X3.899992*%
%ADD42R,2.099996X1.199998*%
%ADD43R,0.799998X1.499997*%
%ADD44R,33.999932X4.999990*%
%ADD45R,2.699995X4.199992*%
%ADD46R,5.124990X18.949962*%
%ADD47R,13.799972X4.999990*%
%ADD48R,5.199980X8.849972*%
%ADD49R,5.124990X8.849982*%
%ADD50R,33.924932X4.674991*%
%ADD51R,13.669973X4.999990*%
%ADD52R,5.124990X18.949972*%
%ADD53R,5.174990X8.849982*%
%ADD54R,5.274999X8.849992*%
%ADD55R,5.024990X18.949962*%
%ADD56R,5.163550X18.911522*%
%ADD57R,33.999932X4.788430*%
%ADD58R,5.138540X8.888422*%
%ADD59R,5.111430X9.188412*%
%ADD60R,5.111440X18.611523*%
%ADD61R,5.050000X19.049962*%
%ADD62R,4.999990X8.749982*%
%ADD63R,4.999990X19.049962*%
%ADD64R,5.050000X8.649983*%
%ADD65R,4.999990X8.999982*%
%ADD66R,4.999990X8.999982*%
%ADD67R,14.099972X4.999990*%
%ADD68R,5.274989X19.199962*%
%ADD69R,5.174990X18.799962*%
%ADD70R,13.899972X4.999990*%
%ADD71R,2.799994X2.099996*%
%ADD72R,5.149990X18.699963*%
%ADD73R,5.124990X18.999962*%
%ADD74R,5.149990X8.799982*%
%ADD75R,4.999990X8.799972*%
%ADD76C,1.499997*%
%ADD77R,1.499997X1.499997*%
%ADD78R,1.529997X1.529997*%
%ADD79C,1.529997*%
%ADD80C,2.499995*%
%ADD81C,0.599999*%
%ADD82C,0.999998*%
%ADD83C,3.499993*%
%LNradar_1ghz_copper_signal_top-1*%
%LPD*%
G36*
X00453459Y-00167539D02*
X00457999D01*
Y-00340999*
X00581459*
Y-00345539*
X00589999*
Y-00377499*
X00549734*
X00548692Y-00376229*
X00548837Y-00375499*
X00533999*
X00519162*
X00519307Y-00376229*
X00518265Y-00377499*
X00514999*
Y-00384214*
X00513729Y-00385011*
X00510812Y-00384229*
X00507186*
X00503684Y-00385168*
X00500544Y-00386981*
X0049798Y-00389544*
X00496168Y-00392684*
X00495229Y-00396186*
Y-00399812*
X00496168Y-00403314*
X0049798Y-00406454*
X00500544Y-00409018*
X00503684Y-00410831*
X00507186Y-00411769*
X00510812*
X00513729Y-00410988*
X00514999Y-00411784*
Y-00419999*
X00518261*
X00518671Y-004205*
X00533999*
X00549328*
X00549738Y-00419999*
X00589999*
Y-00452459*
X00581459*
Y-00456999*
X00459999*
Y-0063246*
X00452459*
Y-00641999*
X00345539*
Y-0063246*
X00341999*
Y-00457999*
X00004999*
Y-00339999*
X00341999*
Y-00167539*
X00346539*
Y-00158999*
X00453459*
Y-00167539*
G37*
G36*
X00902459D02*
X00907999D01*
Y-00341499*
X01245*
Y-00459499*
X00907999*
Y-0063246*
X00904459*
Y-00640499*
X00796539*
Y-0063246*
X00791999*
Y-00458499*
X00668539*
Y-00452459*
X00657999*
Y-00345539*
X00668539*
Y-00342499*
X00789999*
Y-00167539*
X00796539*
Y-00157499*
X00902459*
Y-00167539*
G37*
%LNradar_1ghz_copper_signal_top-2*%
%LPC*%
G36*
X00536499Y-00358162D02*
Y-00370499D01*
X00548837*
X00548461Y-00368612*
X00547328Y-00365875*
X00545682Y-00363412*
X00543587Y-00361317*
X00541123Y-00359671*
X00538386Y-00358537*
X00536499Y-00358162*
G37*
G36*
X00486499D02*
Y-00370499D01*
X00498837*
X00498461Y-00368612*
X00497328Y-00365875*
X00495682Y-00363412*
X00493587Y-00361317*
X00491123Y-00359671*
X00488386Y-00358537*
X00486499Y-00358162*
G37*
G36*
X005315D02*
X00529612Y-00358537D01*
X00526875Y-00359671*
X00524412Y-00361317*
X00522317Y-00363412*
X00520671Y-00365875*
X00519537Y-00368612*
X00519162Y-00370499*
X005315*
Y-00358162*
G37*
G36*
X00481499D02*
X00479612Y-00358537D01*
X00476875Y-00359671*
X00474412Y-00361317*
X00472317Y-00363412*
X00470671Y-00365875*
X00469537Y-00368612*
X00469162Y-00370499*
X00481499*
Y-00358162*
G37*
G36*
X00498837Y-00375499D02*
X00486499D01*
Y-00387837*
X00488386Y-00387461*
X00491123Y-00386328*
X00493587Y-00384682*
X00495682Y-00382587*
X00497328Y-00380123*
X00498461Y-00377386*
X00498837Y-00375499*
G37*
G36*
X00481499D02*
X00469162D01*
X00469537Y-00377386*
X00470671Y-00380123*
X00472317Y-00382587*
X00474412Y-00384682*
X00476875Y-00386328*
X00479612Y-00387461*
X00481499Y-00387837*
Y-00375499*
G37*
G36*
X00486499Y-00408162D02*
Y-004205D01*
X00498837*
X00498461Y-00418612*
X00497328Y-00415875*
X00495682Y-00413412*
X00493587Y-00411317*
X00491123Y-00409671*
X00488386Y-00408537*
X00486499Y-00408162*
G37*
G36*
X00481499D02*
X00479612Y-00408537D01*
X00476875Y-00409671*
X00474412Y-00411317*
X00472317Y-00413412*
X00470671Y-00415875*
X00469537Y-00418612*
X00469162Y-004205*
X00481499*
Y-00408162*
G37*
G36*
X00498837Y-004255D02*
X00486499D01*
Y-00437837*
X00488386Y-00437461*
X00491123Y-00436328*
X00493587Y-00434682*
X00495682Y-00432587*
X00497328Y-00430123*
X00498461Y-00427386*
X00498837Y-004255*
G37*
G36*
X00548837D02*
X00536499D01*
Y-00437837*
X00538386Y-00437461*
X00541123Y-00436328*
X00543587Y-00434682*
X00545682Y-00432587*
X00547328Y-00430123*
X00548461Y-00427386*
X00548837Y-004255*
G37*
G36*
X005315D02*
X00519162D01*
X00519537Y-00427386*
X00520671Y-00430123*
X00522317Y-00432587*
X00524412Y-00434682*
X00526875Y-00436328*
X00529612Y-00437461*
X005315Y-00437837*
Y-004255*
G37*
G36*
X00481499D02*
X00469162D01*
X00469537Y-00427386*
X00470671Y-00430123*
X00472317Y-00432587*
X00474412Y-00434682*
X00476875Y-00436328*
X00479612Y-00437461*
X00481499Y-00437837*
Y-004255*
G37*
%LNradar_1ghz_copper_signal_top-3*%
%LPD*%
G54D10*
X00616825Y-00526173D02*
D01*
X00615716Y-00527364*
X00614692Y-00528629*
X00613758Y-00529962*
X00612921Y-00531357*
X00612182Y-00532807*
X00611546Y-00534305*
X00611017Y-00535843*
X00610596Y-00537415*
X00610286Y-00539013*
X00610088Y-00540628*
X00610003Y-00542253*
X00609999Y-00542634*
X00616825Y-00526173D02*
D01*
X00618153Y-00524752*
X00619378Y-00523241*
X00620494Y-00521648*
X00621497Y-00519981*
X00622381Y-00518248*
X00623143Y-00516458*
X00623777Y-0051462*
X00624281Y-00512741*
X00624654Y-00510832*
X00624892Y-00508901*
X00624995Y-00506959*
X00624999Y-00506456*
X00064999Y-00075488D02*
X00068488Y-00071999D01*
X00077496*
X01079999Y-00103539D02*
Y-00094999D01*
X01079779Y-00103919D02*
X01090919D01*
X01090999Y-00103999*
X01079699Y-00103839D02*
X01079779Y-00103919D01*
X01079699Y-00103839D02*
X01079999Y-00103539D01*
X01040399Y-00298899D02*
X01040999Y-00299499D01*
X00988999Y-00304999D02*
X00989599Y-00304399D01*
X00988999Y-00307999D02*
X00989599Y-00307399D01*
X01032999Y-00243999D02*
X01045999D01*
X01032499Y-00223999D02*
X01042999D01*
X00995999Y-00179249D02*
Y-00168999D01*
X00978999Y-00179249D02*
Y-00168999D01*
X00970999Y-00106249D02*
Y-00095999D01*
X01175999Y-00106499D02*
Y-00095999D01*
X01119999Y-00106499D02*
Y-00095999D01*
X01115499Y-00160999D02*
X01125999D01*
X01115499Y-00178999D02*
X01125999D01*
X01115749Y-00196999D02*
X01125999D01*
X01055999Y-00177749D02*
Y-00161749D01*
X01053999Y-00159749D02*
X01055999Y-00161749D01*
Y-00177749D02*
X01058249Y-00179999D01*
X01078408Y-00162341D02*
X01078999Y-00161749D01*
X01078408Y-00177341D02*
Y-00162341D01*
X01075749Y-00179999D02*
X01078408Y-00177341D01*
X01098249Y-00196999D02*
D01*
X01075749D02*
X01098249D01*
X01097999Y-00196749D02*
X01098249Y-00196999D01*
X01097999Y-00196749D02*
Y-00178999D01*
Y-00160999*
X01078999Y-00124859D02*
X01079699Y-00124159D01*
X01078999Y-00144249D02*
Y-00124859D01*
X01097999Y-00160999D02*
Y-00140279D01*
X01031258Y-00121127D02*
X01038385Y-00113999D01*
X01054299*
X01079779Y-00124079D02*
X01097919D01*
X01097999Y-00123999*
X01079699Y-00124159D02*
X01079779Y-00124079D01*
X01097999Y-00123999D02*
X01119999D01*
X01139249*
X01139169Y-00124079D02*
X01139249Y-00123999D01*
X01156749D02*
X01175999D01*
X01221999*
X01028649Y-00123859D02*
X01031258Y-00121251D01*
Y-00121127*
X01027999Y-00123859D02*
X01028649D01*
X01053999Y-00123999D02*
Y-00115239D01*
Y-00142249D02*
Y-00123999D01*
X01053859Y-00123859D02*
X01053999Y-00123999D01*
X01053599Y-00114839D02*
X01053999Y-00115239D01*
X01027999Y-00179249D02*
Y-00140139D01*
X01027929Y-00123929D02*
X01027999Y-00123859D01*
X01007749Y-00123999D02*
X01007819Y-00123929D01*
X01027929*
X00925999Y-00123999D02*
X00990249D01*
X01058124Y-00196874D02*
X01058249Y-00196999D01*
X01027999Y-00196749D02*
X01028124Y-00196874D01*
X01058124*
X00995999Y-00196749D02*
X01027999D01*
X00978999D02*
X00995999D01*
X00996749Y-00223999D02*
X01014999D01*
X00979124Y-00223874D02*
Y-00196874D01*
Y-00223874D02*
X00979249Y-00223999D01*
X00978999Y-00196749D02*
X00979124Y-00196874D01*
X01014999Y-00243999D02*
Y-00223999D01*
Y-00269499D02*
Y-00243999D01*
X00321999Y-00675999D02*
X00372249D01*
X00277749D02*
X00321999D01*
X01220499Y-00676499D02*
X01220999Y-00675999D01*
X01188249Y-00676499D02*
X01220499D01*
X01148999Y-00677249D02*
X01169999D01*
X01170749Y-00676499*
X01148249Y-00677999D02*
X01148999Y-00677249D01*
X01032749Y-00674999D02*
Y-00658999D01*
Y-00674999D02*
X01053999D01*
X01014624Y-00675624D02*
X01015249Y-00674999D01*
X00998124Y-00675624D02*
X01014624D01*
X00997499Y-00676249D02*
X00998124Y-00675624D01*
X01134599Y-00550599D02*
X01145999Y-00561999D01*
X01134599Y-00550599D02*
Y-00524499D01*
X01145999Y-00614999D02*
Y-00561999D01*
X01146249Y-00635D02*
Y-00615249D01*
X01145999Y-00614999D02*
X01146249Y-00615249D01*
X01145999Y-00652749D02*
Y-00635249D01*
X01145749Y-00652999D02*
X01145999Y-00652749D01*
Y-00635249D02*
X01146249Y-00635D01*
X01053999Y-00651999D02*
Y-00641999D01*
X01037999Y-00697999D02*
X01070999D01*
X01053999Y-00651999D02*
X01071999D01*
X01005999Y-00624999D02*
X01016499D01*
X00192124Y-00073624D02*
X00192187Y-00073562D01*
X010154Y-00540399D02*
X01032499Y-00557499D01*
Y-00569999D02*
Y-00557499D01*
X010154Y-00540399D02*
Y-00524499D01*
X01024999Y-00588749D02*
X01042499D01*
X01026249Y-00607499D02*
X01037499D01*
X01024999Y-00606249D02*
X01026249Y-00607499D01*
X00997374Y-00676124D02*
X00997499Y-00676249D01*
X01039999Y-00586249D02*
X01042499Y-00588749D01*
X00999999Y-00569499D02*
X01013999D01*
X01014499Y-00569999*
X00980874Y-00676124D02*
X00997374D01*
X00980749Y-00675999D02*
X00980874Y-00676124D01*
X00927999Y-00675999D02*
X00963249D01*
X01163749Y-00635D02*
X01175999D01*
X01164999Y-00613999D02*
X01176749D01*
X01163999Y-00614999D02*
X01164999Y-00613999D01*
X01163749Y-00615249D02*
X01163999Y-00614999D01*
X00997499Y-00705999D02*
Y-00693749D01*
X00644729Y-00674379D02*
X00771379D01*
X00772999Y-00675999*
X00673249Y-00584249D02*
X00699999Y-00557499D01*
Y-00519999*
X00642999Y-00584249D02*
X00673249D01*
X00032499Y-00124999D02*
X00054999D01*
X00065499Y-00162499D02*
Y-00135499D01*
X00054999Y-00124999D02*
X00065499Y-00135499D01*
X00177999Y-00217999D02*
Y-00207999D01*
Y-00217999D02*
X00198749Y-00238749D01*
X00227999*
X00174999Y-00662499D02*
X00175249Y-00662749D01*
X00185249D02*
X00185499Y-00662999D01*
X00175249Y-00662749D02*
X00185249D01*
X00164999Y-00614999D02*
X00169749Y-00610249D01*
X00164999Y-00638749D02*
Y-00614999D01*
X00165449Y-00674206D02*
Y-00656249D01*
X00168427Y-00675519D02*
X00168908Y-00675999D01*
X00168427Y-00675519D02*
Y-00675007D01*
X00169749Y-00610249D02*
X00204999D01*
X00139999Y-00656249D02*
X00164999D01*
X00116249Y-00697249D02*
Y-00677499D01*
X00114999Y-006985D02*
X00116249Y-00697249D01*
X00097499Y-00677499D02*
D01*
Y-00657499*
Y-00677499D02*
X00116249D01*
X00097499Y-00639999D02*
Y-00629249D01*
X00114999Y-00727249D02*
Y-00716499D01*
X00624999Y-00506456D02*
Y-00506436D01*
Y-00475999*
X00609999Y-00542634D02*
Y-00548591D01*
Y-00551249D02*
Y-00548591D01*
X00105479Y-00071999D02*
X001465D01*
X00104739Y-00072739D02*
X00105479Y-00071999D01*
X001465D02*
X00147249Y-00072749D01*
X00179999Y-00123999D02*
X00200999D01*
X00177719Y-00121719D02*
X00179999Y-00123999D01*
X00177719Y-00121719D02*
Y-00112999D01*
X00192187Y-00073562D02*
Y-00062937D01*
X00192124Y-00062874D02*
X00192187Y-00062937D01*
X00114749Y-00202249D02*
X00117999Y-00198999D01*
X00106499Y-00202249D02*
X00114749D01*
X00117999Y-00198999D02*
X00126499D01*
X00135999D02*
X00139249Y-00195749D01*
X00126499Y-00198999D02*
X00135999D01*
X00139249Y-00195749D02*
X00157032D01*
X00106499Y-00183749D02*
X00108249Y-00181999D01*
X00126749*
X00135999*
X00143249Y-00189249*
X00157032*
X00190874Y-00158124D02*
X00190999Y-00157999D01*
X00190749Y-00168249D02*
X00190874Y-00168124D01*
Y-00158124*
X00177999Y-00207999D02*
Y-00171999D01*
Y-00207999D02*
X00178749Y-00208749D01*
X00200466*
X00227999Y-00238749D02*
X00270999D01*
X00227999D02*
D01*
X00177719Y-00112999D02*
Y-00076549D01*
Y-00112999D02*
X00177939Y-00113219D01*
X00200399*
X00228999Y-00141999D02*
X00267999D01*
X00218999D02*
X00228999D01*
X00228499Y-00141499D02*
Y-00130749D01*
Y-00141499D02*
X00228999Y-00141999D01*
X00200999Y-00123999D02*
X00218999Y-00141999D01*
X00267999D02*
X00270999Y-00138999D01*
Y-00131249*
X00271249Y-00130999*
X00124874Y-00142374D02*
X00133499Y-00150999D01*
X00265749*
X00274499Y-00159749*
X00030999Y-00123499D02*
X00032499Y-00124999D01*
X00200466Y-00208749D02*
X00200625Y-00208908D01*
X00205656*
X00104739Y-00108299D02*
X00113699D01*
X00116249Y-00105749*
X00125249*
X00069874Y-00122874D02*
X00124874D01*
X00064999Y-00117999D02*
X00069874Y-00122874D01*
X00124874Y-00142374D02*
Y-00122874D01*
X00183249Y-00255249D02*
X00183374Y-00255124D01*
X00195874*
X00195999Y-00254999*
X00094749Y-00248999D02*
X0009525Y-00248499D01*
X00081999Y-00248999D02*
X00094749D01*
X00175874Y-00229124D02*
X00175999Y-00228999D01*
X00165999Y-00229249D02*
X00166124Y-00229124D01*
X00175874*
X00162999Y-00166689D02*
X00172689D01*
X00177999Y-00171999*
X00166249Y-00132249D02*
X00166624Y-00132624D01*
X00178624*
X00065499Y-00164249D02*
Y-00162499D01*
X0006725Y-00164249*
X00088749*
X00076489Y-00108299D02*
X00087239D01*
X00103999Y-00165999D02*
X00144499D01*
X00064999Y-00117999D02*
Y-00075488D01*
X00076489Y-00090519D02*
X00087239D01*
X00104739D02*
X00105759Y-00089499D01*
X00124999*
X00164749Y-00072739D02*
X00173909D01*
X00200466Y-00195749D02*
X00212249D01*
X00200466Y-00202249D02*
X00213249D01*
X00212249Y-00195749D02*
X00217249Y-00190749D01*
X00213249Y-00202249D02*
X00219342Y-00208342D01*
X00217249Y-00190749D02*
X00227249D01*
X00219342Y-00208342D02*
X00227843D01*
X00227249Y-00190749D02*
Y-00170999D01*
X00227843Y-00208342D02*
X00227999Y-00208499D01*
Y-00238749D02*
Y-00225999D01*
Y-00208499D02*
X00228249Y-00208249D01*
X00247749*
X00244749Y-00190749D02*
X00245249Y-00190249D01*
X00247749Y-00225749D02*
X00259749D01*
X00227249Y-00170999D02*
X00227499Y-00170749D01*
X00228499Y-00113249D02*
X00246499D01*
X00246749Y-00113499*
X00244999Y-00170749D02*
X0025575D01*
X00246749Y-00130999D02*
X00257499D01*
X00245249Y-00190249D02*
X00274749D01*
X00270999Y-00238749D02*
X00274749Y-00234999D01*
X00274499Y-00172499D02*
X00274749Y-00172749D01*
Y-00234999D02*
Y-00225749D01*
Y-00208249D02*
Y-00190249D01*
X00246749Y-00073749D02*
X00257499D01*
X00274499Y-00172499D02*
Y-00159749D01*
X00065499Y-00212249D02*
Y-00164249D01*
Y-00212249D02*
X00069749Y-00216499D01*
X00078249Y-00202249D02*
X00088999D01*
X00078249Y-00183749D02*
X00088999D01*
X00069749Y-00216499D02*
X00122499D01*
Y-00217249D02*
X00134999D01*
X00138999Y-00213249*
Y-00205999*
X00142749Y-00202249*
X00157032*
X00190749Y-00168249D02*
Y-00167749D01*
X00200399Y-00113219D02*
X00204399D01*
X00204529Y-00113349*
X00173909Y-00072739D02*
X00177719Y-00076549D01*
X00192124Y-00073624D02*
X00192249Y-00073749D01*
X00624999Y-00655268D02*
Y-00642749D01*
Y-00655268D02*
X0063373Y-00663998D01*
Y-00664379D02*
Y-00663998D01*
X00624999Y-00475999D02*
Y-00424749D01*
X00624499Y-00588331D02*
X00628817D01*
X00632899Y-00584249*
X00642999*
X00628704Y-00598031D02*
X00632422Y-00601749D01*
X00642999*
X00617999Y-00598031D02*
X00628704D01*
X00624563Y-00624813D02*
Y-00609731D01*
X00624499Y-00609667D02*
X00624563Y-00609731D01*
Y-00624813D02*
X00624999Y-00625249D01*
X00617999Y-00588331D02*
Y-00578999D01*
X00609999Y-00568749D02*
X00611499Y-00571408D01*
Y-00588331D02*
Y-00571408D01*
X00651834Y-00653999D02*
X00662249D01*
X00644729Y-00664379D02*
Y-00661104D01*
X00651834Y-00653999*
X00475999Y-00675999D02*
X00516249D01*
X00610749D02*
X00612369Y-00674379D01*
X0063373*
X00219999Y-00561499D02*
Y-00519999D01*
Y-00561499D02*
X00220249Y-00561749D01*
X00644999Y-00100499D02*
Y-00087999D01*
X00691831Y-00106917D02*
X00704331D01*
X00644999Y-00157499D02*
Y-00134999D01*
Y-00174999D02*
X00674999D01*
X00623889Y-00118499D02*
X00644499D01*
X00644999Y-00117999*
X00704999Y-00249999D02*
X00714999D01*
X00694999D02*
X00704999D01*
X00644999Y-00134999D02*
Y-00117999D01*
X00659999Y-00249999D02*
X00677499D01*
X00712499Y-00174999D02*
X00724999D01*
X00674999D02*
X00694999D01*
X00642499Y-00194999D02*
X00643749Y-00193749D01*
Y-00176249*
X00644999Y-00174999*
X00659999Y-00279999D02*
Y-00267499D01*
X00674602Y-00136499D02*
X00674665Y-00136563D01*
Y-00157165D02*
X00674999Y-00157499D01*
X00674331Y-00136499D02*
X00674602D01*
X00674665Y-00157165D02*
Y-00136563D01*
X00695667Y-00136499D02*
Y-00129999D01*
X00684999D02*
X00695667D01*
X00674331D02*
X00684999D01*
X00697699Y-00123499D02*
X00698199Y-00123999D01*
X00713499*
X00695667Y-00123499D02*
X00697699D01*
X00730999Y-00123999D02*
X00772999D01*
X00569999Y-00154999D02*
Y-00142499D01*
X00519999Y-00154999D02*
Y-00142499D01*
X00594999Y-00154999D02*
X00607499D01*
X00594999Y-00174999D02*
X00607499D01*
X00624999Y-00249999D02*
Y-00229999D01*
X00569999Y-00124999D02*
X00606109D01*
X00553749D02*
X00569999D01*
X00519999D02*
X00536249D01*
X00477999D02*
X00519999D01*
X00476999Y-00123999D02*
X00477999Y-00124999D01*
X00594999Y-00269999D02*
X00607499D01*
X00732499Y-00249999D02*
X00759499D01*
X00759999Y-00249499*
X00642499Y-00249999D02*
X00659999D01*
X00624999Y-00269999D02*
Y-00249999D01*
Y-00321999D02*
Y-00269999D01*
Y-00321999D02*
D01*
Y-00371249D02*
Y-00321999D01*
Y-00397999D02*
Y-00388749D01*
Y-00407249D02*
Y-00397999D01*
X00508999D02*
X00624999D01*
X00849999Y-00123999D02*
X00859249D01*
X00840749D02*
X00849999D01*
Y-00026999*
Y-00675999D02*
X00859249D01*
X00840749D02*
X00849999D01*
Y-00772999D02*
Y-00675999D01*
X00398999D02*
X00408249D01*
X00389749D02*
X00398999D01*
Y-00773999D02*
D01*
Y-00675999*
X00399999Y-00123999D02*
X00409249D01*
X00390749D02*
X00399999D01*
Y-00025999*
D01*
X00876749Y-00675999D02*
X00927999D01*
X00772999D02*
X00823249D01*
X00876749Y-00123999D02*
X00925999D01*
X00772999D02*
X00823249D01*
X00426749D02*
X00476999D01*
X00425749Y-00675999D02*
X00475999D01*
X00254999Y-00609749D02*
X00255124Y-00609624D01*
Y-00578124D02*
X00255249Y-00577999D01*
X00255124Y-00609624D02*
Y-00578124D01*
X00237249Y-00578499D02*
X00237749Y-00577999D01*
X00220249Y-00578999D02*
X00220749Y-00578499D01*
X00237249*
X00220249Y-00578999D02*
Y-00561749D01*
X00191999Y-00578999D02*
X00202749D01*
X00191499Y-00561749D02*
X00202249D01*
X00174999Y-00675999D02*
X00185499D01*
X00168908D02*
X00174999D01*
X00175999Y-00676999*
Y-00689499D02*
Y-00676999D01*
X00203999Y-00675999D02*
X00213999D01*
X00260249*
X00213999Y-00679499D02*
Y-00675999D01*
X00204999Y-00663499D02*
Y-00627749D01*
X00203999Y-00664499D02*
X00204999Y-00663499D01*
Y-00627749D02*
D01*
X00205249Y-00609999D02*
X00228499D01*
X00228749Y-00609749*
X00204999Y-00610249D02*
X00205249Y-00609999D01*
X00228749Y-00609749D02*
X00254999D01*
Y-00637999D02*
Y-00627249D01*
X00258249Y-00673999D02*
X00260249Y-00675999D01*
X00187999Y-00706999D02*
X00202999Y-00691999D01*
X00212999*
X00175999Y-00706999D02*
X00187999D01*
X00175999Y-00723249D02*
Y-00706999D01*
X00212999Y-00723249D02*
Y-00709499D01*
X00064999Y-00705749D02*
Y-00694999D01*
X00228749Y-00637999D02*
Y-00627249D01*
X00139999Y-00638749D02*
Y-00627999D01*
X00133749Y-00677499D02*
X00148749D01*
X00064999D02*
X00079999D01*
X00026999Y-00675999D02*
X00028499Y-00677499D01*
X00064999*
G54D11*
X00995999Y-00196749D03*
Y-00179249D03*
X01024999Y-00606249D03*
Y-00588749D03*
X01032499Y-00658749D03*
Y-00641249D03*
X00097499Y-00639999D03*
Y-00657499D03*
X00674999Y-00157499D03*
Y-00174999D03*
X00624999Y-00407249D03*
Y-00424749D03*
X00659999Y-00249999D03*
Y-00267499D03*
X00254999Y-00627249D03*
Y-00609749D03*
X00064999Y-00694999D03*
Y-00677499D03*
X00624999Y-00388749D03*
Y-00371249D03*
X00212999Y-00723249D03*
Y-00740749D03*
X00204999Y-00610249D03*
Y-00627749D03*
X00139999Y-00656249D03*
Y-00638749D03*
X00164999D03*
Y-00656249D03*
X01042499Y-00588749D03*
Y-00606249D03*
X01027999Y-00196749D03*
Y-00179249D03*
X00246749Y-00113499D03*
Y-00130999D03*
X00228499Y-00130749D03*
Y-00113249D03*
X00125249Y-00123249D03*
Y-00105749D03*
X00126749Y-00181999D03*
Y-00164499D03*
X00274749Y-00190249D03*
Y-00172749D03*
X00124999Y-00089499D03*
Y-00071999D03*
X00126499Y-00216499D03*
Y-00198999D03*
X00227999Y-00225999D03*
Y-00208499D03*
X00247749Y-00208249D03*
Y-00225749D03*
X00591999Y-00688249D03*
Y-00705749D03*
X00554139Y-00688649D03*
Y-00706149D03*
X00212999Y-00691999D03*
Y-00709499D03*
X00644999Y-00117999D03*
Y-00100499D03*
Y-00174999D03*
Y-00157499D03*
X00624999Y-00212499D03*
Y-00229999D03*
X00274749Y-00208249D03*
Y-00225749D03*
X00271249Y-00113499D03*
Y-00130999D03*
X00609999Y-00551249D03*
Y-00568749D03*
X00624999Y-00625249D03*
Y-00642749D03*
X00642999Y-00584249D03*
Y-00601749D03*
X00574999Y-00688249D03*
Y-00705749D03*
X00536359Y-00688649D03*
Y-00706149D03*
X01175999Y-00123999D03*
Y-00106499D03*
X00970999Y-00123749D03*
Y-00106249D03*
X01119999Y-00123999D03*
Y-00106499D03*
X01078999Y-00161749D03*
Y-00144249D03*
X01053999Y-00161749D03*
Y-00144249D03*
X00978999Y-00179249D03*
Y-00196749D03*
X00997499Y-00676249D03*
Y-00693749D03*
X00175999Y-00723249D03*
Y-00740749D03*
Y-00689499D03*
Y-00706999D03*
X00228749Y-00609749D03*
Y-00627249D03*
X00519999Y-00124999D03*
Y-00142499D03*
X00569999Y-00124999D03*
Y-00142499D03*
G54D12*
X01075749Y-00196999D03*
X01058249D03*
X01015249Y-00674999D03*
X01032749D03*
X01170749Y-00676499D03*
X01188249D03*
X01148249Y-00677999D03*
X01130749D03*
X01145749Y-00652999D03*
X01128249D03*
X00963249Y-00675999D03*
X00980749D03*
X01146249Y-00635D03*
X01163749D03*
X00677499Y-00249999D03*
X00694999D03*
X00730999Y-00123999D03*
X00713499D03*
X00607499Y-00269999D03*
X00624999D03*
X00642499Y-00249999D03*
X00624999D03*
X00859249Y-00675999D03*
X00876749D03*
X00823249D03*
X00840749D03*
X00202749Y-00578999D03*
X00220249D03*
X00097499Y-00677499D03*
X00079999D03*
X00859249Y-00123999D03*
X00876749D03*
X00823249D03*
X00840749D03*
X00408249Y-00675999D03*
X00425749D03*
X00372249D03*
X00389749D03*
X00426749Y-00123999D03*
X00409249D03*
X00390749D03*
X00373249D03*
X00255249Y-00577999D03*
X00237749D03*
X01058249Y-00179999D03*
X01075749D03*
X01115749Y-00196999D03*
X01098249D03*
X00996749Y-00223999D03*
X00979249D03*
X00662249Y-00653999D03*
X00679749D03*
X00104739Y-00108299D03*
X00087239D03*
X00144499Y-00165999D03*
X00161999D03*
X00227249Y-00190749D03*
X00244749D03*
X00147249Y-00072749D03*
X00164749D03*
X00228999Y-00092999D03*
X00246499D03*
X00261749D03*
X00279249D03*
X00106499Y-00202249D03*
X00088999D03*
X00133749Y-00677499D03*
X00116249D03*
X00536249Y-00124999D03*
X00553749D03*
X00607499Y-00154999D03*
X00624999D03*
X00642499Y-00194999D03*
X00624999D03*
X00209749Y-00073749D03*
X00192249D03*
X00148499Y-00229249D03*
X00165999D03*
X00148749Y-00132249D03*
X00166249D03*
X00208249Y-00168249D03*
X00190749D03*
X00106249Y-00164249D03*
X00088749D03*
X00104739Y-00072739D03*
X00087239D03*
X00106499Y-00183749D03*
X00088999D03*
X00227499Y-00170749D03*
X00244999D03*
X00104739Y-00090519D03*
X00087239D03*
X00229249Y-00073749D03*
X00246749D03*
X00610749Y-00675999D03*
X00593249D03*
X00571749D03*
X00554249D03*
X00533749D03*
X00516249D03*
X01139249Y-00123999D03*
X01156749D03*
X00990249D03*
X01007749D03*
X01097999Y-00178999D03*
X01115499D03*
X01097999Y-00160999D03*
X01115499D03*
X01032499Y-00223999D03*
X01014999D03*
X01033999Y-00624999D03*
X01016499D03*
X00260249Y-00675999D03*
X00277749D03*
X00148749Y-00677499D03*
X00166249D03*
X00714999Y-00249999D03*
X00732499D03*
X00712499Y-00174999D03*
X00694999D03*
X00607499D03*
X00624999D03*
X00674331Y-00106917D03*
X00691831D03*
G54D13*
X00321999Y-00675999D03*
X00027999Y-00123999D03*
X00322999D03*
X00026999Y-00675999D03*
X00772999Y-00123999D03*
X01220999Y-00675999D03*
X00925999Y-00123999D03*
X00772999Y-00675999D03*
X00927999D03*
X01221999Y-00123999D03*
X00475999Y-00675999D03*
X00476999Y-00123999D03*
G54D14*
X00321999Y-00706999D03*
Y-00644999D03*
X00027999Y-00092999D03*
Y-00154999D03*
X00322999D03*
Y-00092999D03*
X00026999Y-00706999D03*
Y-00644999D03*
X00772999Y-00092999D03*
Y-00154999D03*
X01220999Y-00644999D03*
Y-00706999D03*
X00925999Y-00154999D03*
Y-00092999D03*
X00772999Y-00644999D03*
Y-00706999D03*
X00927999D03*
Y-00644999D03*
X01221999Y-00092999D03*
Y-00154999D03*
X00475999Y-00706999D03*
Y-00644999D03*
X00476999Y-00154999D03*
Y-00092999D03*
G54D15*
X01053999Y-00651999D03*
Y-00674999D03*
Y-00697999D03*
G54D16*
X01110999Y-00674999D03*
G54D17*
X01121999Y-00726499D03*
Y-00744499D03*
X00114999Y-00716499D03*
Y-006985D03*
G54D18*
X01163999Y-00614999D03*
X01145999D03*
X00195999Y-00254999D03*
X00213999D03*
X00202249Y-00561749D03*
X00220249D03*
X00113249Y-00248499D03*
X0009525D03*
X01014999Y-00243999D03*
X01032999D03*
X01014499Y-00569999D03*
X01032499D03*
G54D19*
X00674331Y-00123499D03*
Y-00129999D03*
Y-00136499D03*
X00695667D03*
Y-00129999D03*
Y-00123499D03*
G54D20*
X00624999Y-00475999D03*
X00849999Y-00772999D03*
X00398999Y-00773999D03*
X00849999Y-00026999D03*
X00399999Y-00025999D03*
X00624999Y-00321999D03*
G54D21*
X00655999Y-00475999D03*
X00593999D03*
X00818999Y-00772999D03*
X00880999D03*
X00367999Y-00773999D03*
X00429999D03*
X00818999Y-00026999D03*
X00880999D03*
X00368999Y-00025999D03*
X00430999D03*
X00655999Y-00321999D03*
X00593999D03*
G54D22*
X00200466Y-00208749D03*
Y-00202249D03*
Y-00195749D03*
Y-00189249D03*
X00157032D03*
Y-00195749D03*
Y-00202249D03*
Y-00208749D03*
G54D23*
X00200399Y-00113219D03*
Y-00108219D03*
Y-00103219D03*
Y-00098219D03*
Y-00093219D03*
X00157399D03*
Y-00098219D03*
Y-00103219D03*
Y-00108219D03*
Y-00113219D03*
G54D24*
X00624499Y-00609667D03*
X00617999D03*
X00611499D03*
Y-00588331D03*
X00617999D03*
X00624499D03*
G54D25*
X0063373Y-00664379D03*
X00639229D03*
X00644729D03*
Y-00674379D03*
X00639229D03*
X0063373D03*
G54D26*
X00606109Y-00124999D03*
X00623889Y-00118499D03*
Y-00131499D03*
G54D27*
X01054299Y-00113999D03*
X01079699Y-00103839D03*
Y-00124159D03*
G54D28*
X00203999Y-00675999D03*
X00185499Y-00662999D03*
Y-00675999D03*
G54D29*
X00203999Y-00664499D03*
G54D30*
X01027999Y-00123859D03*
Y-00140139D03*
X01097999Y-00140279D03*
Y-00123999D03*
G54D31*
X00254Y-00100999D02*
X00256999Y-00103999D01*
X00268999*
X00254Y-00100999D02*
Y-00092999D01*
X00639229Y-00683769D02*
Y-00676379D01*
X00638999Y-00683999D02*
X00639229Y-00683769D01*
X00689569Y-00653884D02*
X00689684Y-00653769D01*
X00680419Y-00653884D02*
X00689569D01*
X00639114Y-00664264D02*
X00639229Y-00664379D01*
X00639114Y-00664264D02*
Y-00655114D01*
X00282479Y-00092499D02*
X00287499D01*
Y-00123999D02*
X00322999D01*
X00287499D02*
Y-00092499D01*
X00279249Y-00092999D02*
X00282479Y-00092499D01*
X00219999Y-00075237D02*
X00221487Y-00073749D01*
X00229249*
X00219999Y-00094849D02*
Y-00075237D01*
X00218511Y-00103219D02*
X00219999Y-00101732D01*
Y-00094849D02*
X00227149D01*
X00200399Y-00103219D02*
X00218511D01*
X00219999Y-00101732D02*
Y-00094849D01*
X00227149D02*
X00228999Y-00092999D01*
X00254D02*
X00261749D01*
X00246499D02*
X00254D01*
X00268999Y-00103999D02*
X00271249Y-00106249D01*
Y-00113499D02*
Y-00106249D01*
X00216219Y-00108219D02*
X00220999Y-00112999D01*
X00200399Y-00108219D02*
X00216219D01*
X00220999Y-00112999D02*
X00228249D01*
X00228499Y-00113249*
X00125249Y-00105749D02*
X00138249D01*
X00140779Y-00103219D02*
X00157399D01*
X00138249Y-00105749D02*
X00140779Y-00103219D01*
X00125541Y-00122958D02*
X00132571D01*
X0014731Y-00108219*
X00157399*
X00125249Y-00123249D02*
X00125541Y-00122958D01*
X00211779Y-00091999D02*
Y-00075779D01*
Y-00096732D02*
Y-00091999D01*
X00200399Y-00093219D02*
X00210559D01*
X00211779Y-00091999*
X00200399Y-00098219D02*
X00210291D01*
X00209749Y-00073749D02*
X00211779Y-00075779D01*
X00210291Y-00098219D02*
X00211779Y-00096732D01*
X00147999Y-00132999D02*
X00148749Y-00132249D01*
X00155999Y-00113219D02*
X00157399D01*
X00151669Y-00113349D02*
X00151799Y-00113219D01*
X00124999Y-00089499D02*
X00126499Y-00090999D01*
X00131999*
X00139219Y-00098219*
X00157399*
X00140249Y-00089249D02*
Y-00083999D01*
Y-00089249D02*
X00144219Y-00093219D01*
X00157399*
X00684999Y-00085999D02*
Y-00064999D01*
X00674331Y-00096667D02*
X00684999Y-00085999D01*
X00674331Y-00106917D02*
Y-00096667D01*
Y-00123499D02*
Y-00106917D01*
X00623983Y-00131499D02*
X00624999Y-00132515D01*
Y-00154999D02*
Y-00132515D01*
X00623889Y-00131499D02*
X00623983D01*
X00624999Y-00174999D02*
Y-00154999D01*
Y-00194999D02*
Y-00174999D01*
Y-00212499D02*
Y-00194999D01*
X00322999Y-00123999D02*
X00373249D01*
G54D32*
X01040399Y-00298899D02*
Y-00269499D01*
X00989599Y-00304399D02*
Y-00269499D01*
G54D33*
X00607499Y-00609999D02*
X00611499D01*
X00611831Y-00609667*
X00617999Y-00598031D02*
Y-00588331D01*
Y-0060773D02*
Y-00598031D01*
X00611831Y-00609667D02*
X00617777D01*
G54D34*
X00148749Y-00132249D02*
Y-00116269D01*
X00151669Y-00113349*
X00208569Y-0015743D02*
X00208888Y-00157111D01*
X00208569Y-0016793D02*
Y-0015743D01*
X00208249Y-00168249D02*
X00208569Y-0016793D01*
X00227499Y-00254999D02*
X00234999Y-00262499D01*
Y-00279999D02*
Y-00262499D01*
X00213999Y-00254999D02*
X00227499D01*
X00115249Y-00279749D02*
Y-00250499D01*
X00114999Y-00279999D02*
X00115249Y-00279749D01*
X00113249Y-00248499D02*
X00115249Y-00250499D01*
X00146386Y-00229124D02*
X0014738Y-0022813D01*
X00136999Y-00228999D02*
X00137124Y-00229124D01*
X00146386*
X0014738Y-0022813D02*
Y-00213448D01*
X00152079Y-00208749D02*
X00157032D01*
X0014738Y-00213448D02*
X00152079Y-00208749D01*
X00205961Y-00188995D02*
X00208193Y-00186763D01*
Y-00168306*
X0020072Y-00188995D02*
X00205961D01*
X00200466Y-00189249D02*
X0020072Y-00188995D01*
X00137999Y-00132999D02*
X00147999D01*
X00151799Y-00113219D02*
X00155999D01*
G54D35*
X00536359Y-00716899D02*
Y-00706149D01*
X00554139Y-00716899D02*
Y-00706149D01*
X00574999Y-00716499D02*
Y-00705749D01*
X00591999Y-00716499D02*
Y-00705749D01*
G54D36*
X00624999Y-00751749D03*
G54D37*
X01218999Y-00249749D03*
G54D38*
X01033669Y-00577459D03*
G54D39*
X01033749Y-00624999D03*
G54D40*
X01120999Y-00686749D03*
G54D41*
X01041299Y-00505749D03*
X01160499Y-00508749D03*
X01109499Y-00505749D03*
X00990499D03*
G54D42*
X00607499Y-00609999D03*
G54D43*
X00213999Y-00680499D03*
G54D44*
X01074999Y-00029499D03*
Y-00319499D03*
X00175385Y-00319115D03*
X01074999Y-00479499D03*
Y-00769499D03*
X00174999Y-00479999D03*
Y-00769999D03*
G54D45*
X00894499Y-00772999D03*
X00805499D03*
X00892499Y-00026999D03*
X00805499D03*
X004445Y-00025999D03*
X00355499D03*
X00443499Y-00773999D03*
X00354499D03*
G54D46*
X00769374Y-00249749D03*
G54D47*
X00725999Y-00319499D03*
G54D48*
X00480999Y-00048749D03*
G54D49*
X00769374Y-00048749D03*
G54D50*
X00625374Y-00027874D03*
G54D51*
X00523349Y-00319499D03*
G54D52*
X00480624Y-00249749D03*
G54D53*
X00930874Y-00048749D03*
G54D54*
X01218624Y-00048749D03*
G54D55*
X00930124Y-00249749D03*
G54D56*
X00319567Y-00249557D03*
G54D57*
X00175385Y-00028057D03*
G54D58*
X00319692Y-00048557D03*
G54D59*
X00030942Y-00050057D03*
G54D60*
X00030942Y-00251057D03*
G54D61*
X01219749Y-00549749D03*
G54D62*
X00929999Y-00750749D03*
G54D63*
X00929999Y-00549749D03*
G54D64*
X01219749Y-00751249D03*
G54D65*
X00769999Y-00748999D03*
G54D66*
X00479999Y-00748999D03*
G54D67*
X00525499Y-00478999D03*
G54D68*
X00768624Y-00549999D03*
G54D69*
X00480874Y-00547999D03*
G54D70*
X00725499Y-00478999D03*
G54D71*
X00544999Y-00681499D03*
X00583029Y-00680769D03*
G54D72*
X00030749Y-00548499D03*
G54D73*
X00319374Y-00549999D03*
G54D74*
X00030749Y-00750999D03*
G54D75*
X00319999Y-00750999D03*
G54D76*
X01040399Y-00269499D03*
X01014999D03*
X00674599Y-00519999D03*
X00699999D03*
X01134599Y-00524499D03*
X01109199D03*
X010154D03*
X010408D03*
X00234999Y-00279999D03*
X00209599D03*
X00114999D03*
X00140399D03*
G54D77*
X00989599Y-00269499D03*
X00725399Y-00519999D03*
X01159999Y-00524499D03*
X0099D03*
X00260399Y-00279999D03*
X00089599D03*
G54D78*
X00659599Y-00064999D03*
X00245399Y-00519999D03*
G54D79*
X00684999Y-00064999D03*
X00710399D03*
X00194599Y-00519999D03*
X00219999D03*
G54D80*
X00508999Y-00397999D03*
X00483999Y-00372999D03*
Y-00422999D03*
X00533999D03*
Y-00372999D03*
G54D81*
X00639114Y-00655114D03*
X00638999Y-00683999D03*
X00689684Y-00653769D03*
X01079999Y-00094999D03*
X01090999Y-00103999D03*
X01045999Y-00243999D03*
X00978999Y-00168999D03*
X00995999D03*
X01053999Y-00641999D03*
X01070999Y-00697999D03*
X01037999D03*
X01071999Y-00651999D03*
X01005999Y-00624999D03*
X00999999Y-00569499D03*
X01176749Y-00613999D03*
X01175999Y-00635D03*
X00174999Y-00662499D03*
X00097499Y-00629249D03*
X00208888Y-00157111D03*
X00192124Y-00062874D03*
X00081999Y-00248999D03*
X00211779Y-00083889D03*
X00178624Y-00132624D03*
X00602999Y-00610999D03*
X00617999Y-00598031D03*
Y-00578999D03*
X00644999Y-00087999D03*
X00704331Y-00106917D03*
X00653999Y-00134999D03*
X00704999Y-00257999D03*
X00644999Y-00134999D03*
X00704999Y-00249999D03*
X00724999Y-00174999D03*
X00659999Y-00279999D03*
X00684999Y-00129999D03*
X00569999Y-00154999D03*
X00519999D03*
X00594999D03*
Y-00174999D03*
Y-00269999D03*
X00191999Y-00578999D03*
X00191499Y-00561749D03*
X00213999Y-00675999D03*
X00114999Y-00727249D03*
X00064999Y-00705749D03*
X00174999Y-00654999D03*
X00217999Y-00667999D03*
X00190999Y-00157999D03*
X00137999Y-00132999D03*
X00183249Y-00255249D03*
X00175999Y-00228999D03*
X00136999D03*
X00076489Y-00108299D03*
X00140249Y-00083999D03*
X00076489Y-00090519D03*
X00257499Y-00073749D03*
Y-00130999D03*
X0025575Y-00170749D03*
X00259749Y-00225749D03*
X00078249Y-00183749D03*
Y-00202249D03*
X01042999Y-00223999D03*
X01125999Y-00160999D03*
Y-00196999D03*
Y-00178999D03*
X01175999Y-00095999D03*
X01119999D03*
X00970999D03*
X00997499Y-00705999D03*
X00139999Y-00627999D03*
X00228749Y-00637999D03*
X00254999D03*
G54D82*
X00249999Y-00759999D03*
X00224999D03*
X00099999D03*
X00124999D03*
X00074999D03*
X00274999D03*
X00174999D03*
X00149999D03*
X00199999D03*
X00699999Y-00039499D03*
X00549999D03*
X00599999D03*
X00574999D03*
X00524999D03*
X00674999D03*
X00624999D03*
X00649999D03*
X00724999D03*
Y-00309499D03*
X00125385Y-00039115D03*
X00100385D03*
X00075385D03*
X00150385D03*
X00175385D03*
X00200385D03*
X00225385D03*
X00275385D03*
X00250385D03*
X00310385Y-00224115D03*
Y-00249115D03*
Y-00274115D03*
Y-00199115D03*
X00524999Y-00309499D03*
X00489999Y-00249499D03*
Y-00224499D03*
X00549999Y-00309499D03*
X00489999Y-00199499D03*
X00759999D03*
X00699999Y-00309499D03*
X00489999Y-00274499D03*
X00759999D03*
Y-00224499D03*
Y-00249499D03*
X00075385Y-00309115D03*
X00100385D03*
X00125385D03*
X00175385D03*
X00200385D03*
X00275385D03*
X00225385D03*
X00250385D03*
X00150385D03*
X00040385Y-00199115D03*
Y-00224115D03*
Y-00249115D03*
Y-00274115D03*
X00939999Y-00249499D03*
Y-00274499D03*
X01209999Y-00199499D03*
Y-00274499D03*
Y-00249499D03*
Y-00224499D03*
X00974999Y-00309499D03*
X01149999D03*
X01074999D03*
X01024999D03*
X01049999D03*
X01099999D03*
X01124999D03*
X00999999D03*
X01174999D03*
Y-00039499D03*
X01099999D03*
X01074999D03*
X01124999D03*
X00974999D03*
X01024999D03*
X01049999D03*
X00999999D03*
X01149999D03*
X00939999Y-00224499D03*
Y-00199499D03*
X01125Y-00759499D03*
X01149999D03*
X01174999D03*
X01209999Y-00599499D03*
Y-00574499D03*
X00939999Y-00599499D03*
Y-00574499D03*
Y-00549499D03*
Y-00524499D03*
X00975Y-00489499D03*
X01D03*
X01024999D03*
X01049999D03*
X01074999D03*
X011D03*
X01125D03*
X01149999D03*
X01174999D03*
X01209999Y-00524499D03*
Y-00549499D03*
X01Y-00759499D03*
X01024999D03*
X01049999D03*
X01074999D03*
X011D03*
X00975D03*
X00759999Y-00573999D03*
Y-00523999D03*
Y-00598999D03*
Y-00548999D03*
X00489999Y-00573999D03*
Y-00523999D03*
Y-00548999D03*
Y-00598999D03*
X00699999Y-00758999D03*
X00624999D03*
X00599999D03*
X00649999D03*
X00724999D03*
X00549999D03*
X00524999D03*
X00574999D03*
X00674999D03*
X00549999Y-00488999D03*
X00524999D03*
X00699999D03*
X00724999D03*
X00536359Y-00716899D03*
X00554139D03*
X00574999Y-00716499D03*
X00591999D03*
X00124999Y-00489999D03*
X00224999D03*
X00274999D03*
X00249999D03*
X00074999D03*
X00149999D03*
X00199999D03*
X00174999D03*
X00099999D03*
X00039999Y-00599999D03*
Y-00549999D03*
Y-00524999D03*
Y-00574999D03*
X00309999Y-00549999D03*
Y-00599999D03*
Y-00524999D03*
Y-00574999D03*
G54D83*
X00319999Y-00769999D03*
X00029999D03*
X00479999Y-00319499D03*
Y-00029499D03*
X00320385Y-00029115D03*
X00030385D03*
X00769999Y-00029499D03*
Y-00319499D03*
X00320385Y-00319115D03*
X00030385D03*
X01219999Y-00319499D03*
X00929999D03*
Y-00029499D03*
X01219999D03*
Y-00769499D03*
X00929999Y-00479499D03*
X01219999D03*
X00929999Y-00769499D03*
X00479999Y-00768999D03*
X00769999D03*
Y-00478999D03*
X00479999D03*
X00029999Y-00479999D03*
X00319999D03*
M02*