%FSTAX44Y44*%
%MOMM*%
%SFA1B1*%

%IPPOS*%
%ADD93C,0.200000*%
%ADD94C,0.152400*%
%ADD95C,0.100000*%
%ADD96C,0.253999*%
%ADD97C,0.127000*%
%ADD98C,0.076200*%
%ADD122C,0.000000*%
%ADD123C,0.101600*%
%ADD124C,0.025400*%
%LNradar_1ghz_mechanical_13-1*%
%LPD*%
G54D93*
X00641699Y-00064999D02*
D01*
X00641697Y-0006493*
X0064169Y-0006486*
X00641677Y-00064791*
X00641661Y-00064724*
X00641639Y-00064657*
X00641613Y-00064593*
X00641582Y-0006453*
X00641547Y-0006447*
X00641509Y-00064412*
X00641465Y-00064356*
X00641419Y-00064305*
X00641369Y-00064256*
X00641315Y-00064211*
X00641259Y-0006417*
X00641199Y-00064133*
X00641138Y-000641*
X00641074Y-00064072*
X00641008Y-00064048*
X00640941Y-00064029*
X00640873Y-00064015*
X00640804Y-00064005*
X00640734Y-00064*
X00640664*
X00640595Y-00064005*
X00640526Y-00064015*
X00640457Y-00064029*
X0064039Y-00064048*
X00640325Y-00064072*
X00640261Y-000641*
X00640199Y-00064133*
X0064014Y-0006417*
X00640084Y-00064211*
X0064003Y-00064256*
X0063998Y-00064305*
X00639933Y-00064356*
X0063989Y-00064412*
X00639851Y-0006447*
X00639816Y-0006453*
X00639786Y-00064593*
X0063976Y-00064657*
X00639738Y-00064724*
X00639721Y-00064791*
X00639709Y-0006486*
X00639702Y-0006493*
X00639699Y-00064999*
X00639702Y-00065069*
X00639709Y-00065139*
X00639721Y-00065207*
X00639738Y-00065275*
X0063976Y-00065342*
X00639786Y-00065406*
X00639816Y-00065469*
X00639851Y-00065529*
X0063989Y-00065587*
X00639933Y-00065642*
X0063998Y-00065694*
X0064003Y-00065743*
X00640084Y-00065787*
X0064014Y-00065828*
X00640199Y-00065866*
X00640261Y-00065898*
X00640325Y-00065926*
X0064039Y-0006595*
X00640457Y-0006597*
X00640526Y-00065984*
X00640595Y-00065994*
X00640664Y-00065999*
X00640734*
X00640804Y-00065994*
X00640873Y-00065984*
X00640941Y-0006597*
X00641008Y-0006595*
X00641074Y-00065926*
X00641138Y-00065898*
X00641199Y-00065866*
X00641259Y-00065828*
X00641315Y-00065787*
X00641369Y-00065743*
X00641419Y-00065694*
X00641465Y-00065642*
X00641509Y-00065587*
X00641547Y-00065529*
X00641582Y-00065469*
X00641613Y-00065406*
X00641639Y-00065342*
X00641661Y-00065275*
X00641677Y-00065207*
X0064169Y-00065139*
X00641697Y-00065069*
X00641699Y-00064999*
X00265299Y-00519999D02*
D01*
X00265297Y-0051993*
X0026529Y-0051986*
X00265278Y-00519791*
X00265261Y-00519724*
X00265239Y-00519657*
X00265213Y-00519593*
X00265182Y-0051953*
X00265147Y-00519469*
X00265108Y-00519411*
X00265066Y-00519357*
X00265019Y-00519305*
X00264968Y-00519256*
X00264915Y-00519211*
X00264859Y-0051917*
X00264799Y-00519133*
X00264738Y-00519101*
X00264674Y-00519072*
X00264608Y-00519048*
X00264541Y-00519029*
X00264473Y-00519014*
X00264404Y-00519005*
X00264334Y-00519*
X00264264*
X00264195Y-00519005*
X00264126Y-00519014*
X00264057Y-00519029*
X0026399Y-00519048*
X00263925Y-00519072*
X00263861Y-00519101*
X00263799Y-00519133*
X0026374Y-0051917*
X00263684Y-00519211*
X0026363Y-00519256*
X0026358Y-00519305*
X00263533Y-00519357*
X0026349Y-00519411*
X00263451Y-00519469*
X00263417Y-0051953*
X00263386Y-00519593*
X0026336Y-00519657*
X00263338Y-00519724*
X00263321Y-00519791*
X00263309Y-0051986*
X00263302Y-0051993*
X00263299Y-00519999*
X00263302Y-00520069*
X00263309Y-00520139*
X00263321Y-00520207*
X00263338Y-00520275*
X0026336Y-00520341*
X00263386Y-00520406*
X00263417Y-00520469*
X00263451Y-00520529*
X0026349Y-00520587*
X00263533Y-00520642*
X0026358Y-00520694*
X0026363Y-00520742*
X00263684Y-00520787*
X0026374Y-00520829*
X00263799Y-00520865*
X00263861Y-00520898*
X00263925Y-00520927*
X0026399Y-0052095*
X00264057Y-0052097*
X00264126Y-00520984*
X00264195Y-00520994*
X00264264Y-00520999*
X00264334*
X00264404Y-00520994*
X00264473Y-00520984*
X00264541Y-0052097*
X00264608Y-0052095*
X00264674Y-00520927*
X00264738Y-00520898*
X00264799Y-00520865*
X00264859Y-00520829*
X00264915Y-00520787*
X00264968Y-00520742*
X00265019Y-00520694*
X00265066Y-00520642*
X00265108Y-00520587*
X00265147Y-00520529*
X00265182Y-00520469*
X00265213Y-00520406*
X00265239Y-00520341*
X00265261Y-00520275*
X00265278Y-00520207*
X0026529Y-00520139*
X00265297Y-00520069*
X00265299Y-00519999*
X00214899Y-00115719D02*
D01*
X00214897Y-0011565*
X0021489Y-0011558*
X00214877Y-00115512*
X00214861Y-00115444*
X00214839Y-00115377*
X00214813Y-00115313*
X00214782Y-0011525*
X00214747Y-0011519*
X00214708Y-00115132*
X00214665Y-00115076*
X00214619Y-00115025*
X00214569Y-00114976*
X00214515Y-00114931*
X00214459Y-0011489*
X00214399Y-00114853*
X00214338Y-0011482*
X00214274Y-00114792*
X00214208Y-00114768*
X00214141Y-00114749*
X00214073Y-00114735*
X00214004Y-00114725*
X00213934Y-0011472*
X00213864*
X00213795Y-00114725*
X00213726Y-00114735*
X00213657Y-00114749*
X0021359Y-00114768*
X00213525Y-00114792*
X00213461Y-0011482*
X00213399Y-00114853*
X0021334Y-0011489*
X00213284Y-00114931*
X0021323Y-00114976*
X0021318Y-00115025*
X00213133Y-00115076*
X0021309Y-00115132*
X00213051Y-0011519*
X00213016Y-0011525*
X00212986Y-00115313*
X0021296Y-00115377*
X00212938Y-00115444*
X00212921Y-00115512*
X00212909Y-0011558*
X00212902Y-0011565*
X00212899Y-00115719*
X00212902Y-00115789*
X00212909Y-00115859*
X00212921Y-00115927*
X00212938Y-00115995*
X0021296Y-00116061*
X00212986Y-00116126*
X00213016Y-00116189*
X00213051Y-00116249*
X0021309Y-00116307*
X00213133Y-00116362*
X0021318Y-00116414*
X0021323Y-00116463*
X00213284Y-00116507*
X0021334Y-00116548*
X00213399Y-00116586*
X00213461Y-00116618*
X00213525Y-00116646*
X0021359Y-0011667*
X00213657Y-0011669*
X00213726Y-00116704*
X00213795Y-00116714*
X00213864Y-00116719*
X00213934*
X00214004Y-00116714*
X00214073Y-00116704*
X00214141Y-0011669*
X00214208Y-0011667*
X00214274Y-00116646*
X00214338Y-00116618*
X00214399Y-00116586*
X00214459Y-00116548*
X00214515Y-00116507*
X00214569Y-00116463*
X00214619Y-00116414*
X00214665Y-00116362*
X00214708Y-00116307*
X00214747Y-00116249*
X00214782Y-00116189*
X00214813Y-00116126*
X00214839Y-00116061*
X00214861Y-00115995*
X00214877Y-00115927*
X0021489Y-00115859*
X00214897Y-00115789*
X00214899Y-00115719*
G54D94*
X00344859Y-00609959D02*
Y-00616053D01*
X00341812*
X00340797Y-00615038*
Y-00613006*
X00341812Y-00611991*
X00344859*
X00334703Y-00615038D02*
X00335718Y-00616053D01*
X0033775*
X00338765Y-00615038*
Y-00610975*
X0033775Y-00609959*
X00335718*
X00334703Y-00610975*
X00332671Y-00616053D02*
Y-00609959D01*
X00329624*
X00328609Y-00610975*
Y-00611991*
X00329624Y-00613006*
X00332671*
X00329624*
X00328609Y-00614022*
Y-00615038*
X00329624Y-00616053*
X00332671*
X00316421D02*
X00320483D01*
Y-00609959*
X00316421*
X00320483Y-00613006D02*
X00318452D01*
X00314389Y-00616053D02*
Y-00609959D01*
X00311342*
X00310327Y-00610975*
Y-00615038*
X00311342Y-00616053*
X00314389*
X00304233Y-00615038D02*
X00305248Y-00616053D01*
X0030728*
X00308295Y-00615038*
Y-00610975*
X0030728Y-00609959*
X00305248*
X00304233Y-00610975*
Y-00613006*
X00306264*
X00298139Y-00616053D02*
X00302201D01*
Y-00609959*
X00298139*
X00302201Y-00613006D02*
X0030017D01*
X00005139Y-00190039D02*
Y-00183945D01*
X00008186*
X00009202Y-00184961*
Y-00186992*
X00008186Y-00188008*
X00005139*
X00015296Y-00184961D02*
X0001428Y-00183945D01*
X00012249*
X00011233Y-00184961*
Y-00189024*
X00012249Y-00190039*
X0001428*
X00015296Y-00189024*
X00017327Y-00183945D02*
Y-00190039D01*
X00020374*
X0002139Y-00189024*
Y-00188008*
X00020374Y-00186992*
X00017327*
X00020374*
X0002139Y-00185977*
Y-00184961*
X00020374Y-00183945*
X00017327*
X00033578D02*
X00029516D01*
Y-00190039*
X00033578*
X00029516Y-00186992D02*
X00031547D01*
X0003561Y-00183945D02*
Y-00190039D01*
X00038657*
X00039672Y-00189024*
Y-00184961*
X00038657Y-00183945*
X0003561*
X00045766Y-00184961D02*
X0004475Y-00183945D01*
X00042719*
X00041704Y-00184961*
Y-00189024*
X00042719Y-00190039*
X0004475*
X00045766Y-00189024*
Y-00186992*
X00043735*
X0005186Y-00183945D02*
X00047797D01*
Y-00190039*
X0005186*
X00047797Y-00186992D02*
X00049829D01*
X00558959Y-00453139D02*
X00565053D01*
Y-00456186*
X00564038Y-00457202*
X00562006*
X00560991Y-00456186*
Y-00453139*
X00564038Y-00463296D02*
X00565053Y-0046228D01*
Y-00460249*
X00564038Y-00459233*
X00559975*
X00558959Y-00460249*
Y-0046228*
X00559975Y-00463296*
X00565053Y-00465328D02*
X00558959D01*
Y-00468374*
X00559975Y-0046939*
X00560991*
X00562006Y-00468374*
Y-00465328*
Y-00468374*
X00563022Y-0046939*
X00564038*
X00565053Y-00468374*
Y-00465328*
Y-00481578D02*
Y-00477515D01*
X00558959*
Y-00481578*
X00562006Y-00477515D02*
Y-00479547D01*
X00565053Y-00483609D02*
X00558959D01*
Y-00486656*
X00559975Y-00487672*
X00564038*
X00565053Y-00486656*
Y-00483609*
X00564038Y-00493766D02*
X00565053Y-0049275D01*
Y-00490719*
X00564038Y-00489703*
X00559975*
X00558959Y-00490719*
Y-0049275*
X00559975Y-00493766*
X00562006*
Y-00491735*
X00565053Y-0049986D02*
Y-00495798D01*
X00558959*
Y-0049986*
X00562006Y-00495798D02*
Y-00497829D01*
X00345859Y-00057959D02*
Y-00064053D01*
X00342812*
X00341797Y-00063038*
Y-00061006*
X00342812Y-00059991*
X00345859*
X00335703Y-00063038D02*
X00336718Y-00064053D01*
X0033875*
X00339765Y-00063038*
Y-00058975*
X0033875Y-00057959*
X00336718*
X00335703Y-00058975*
X00333671Y-00064053D02*
Y-00057959D01*
X00330624*
X00329609Y-00058975*
Y-00059991*
X00330624Y-00061006*
X00333671*
X00330624*
X00329609Y-00062022*
Y-00063038*
X00330624Y-00064053*
X00333671*
X00317421D02*
X00321483D01*
Y-00057959*
X00317421*
X00321483Y-00061006D02*
X00319452D01*
X00315389Y-00064053D02*
Y-00057959D01*
X00312342*
X00311327Y-00058975*
Y-00063038*
X00312342Y-00064053*
X00315389*
X00305233Y-00063038D02*
X00306248Y-00064053D01*
X0030828*
X00309295Y-00063038*
Y-00058975*
X0030828Y-00057959*
X00306248*
X00305233Y-00058975*
Y-00061006*
X00307264*
X00299139Y-00064053D02*
X00303201D01*
Y-00057959*
X00299139*
X00303201Y-00061006D02*
X0030117D01*
X00916039Y-00795859D02*
X00909945D01*
Y-00792812*
X00910961Y-00791797*
X00912992*
X00914008Y-00792812*
Y-00795859*
X00910961Y-00785703D02*
X00909945Y-00786718D01*
Y-0078875*
X00910961Y-00789765*
X00915024*
X00916039Y-0078875*
Y-00786718*
X00915024Y-00785703*
X00909945Y-00783671D02*
X00916039D01*
Y-00780624*
X00915024Y-00779609*
X00914008*
X00912992Y-00780624*
Y-00783671*
Y-00780624*
X00911977Y-00779609*
X00910961*
X00909945Y-00780624*
Y-00783671*
Y-00767421D02*
Y-00771483D01*
X00916039*
Y-00767421*
X00912992Y-00771483D02*
Y-00769452D01*
X00909945Y-00765389D02*
X00916039D01*
Y-00762342*
X00915024Y-00761327*
X00910961*
X00909945Y-00762342*
Y-00765389*
X00910961Y-00755233D02*
X00909945Y-00756248D01*
Y-0075828*
X00910961Y-00759295*
X00915024*
X00916039Y-0075828*
Y-00756248*
X00915024Y-00755233*
X00912992*
Y-00757264*
X00909945Y-00749138D02*
Y-00753201D01*
X00916039*
Y-00749138*
X00912992Y-00753201D02*
Y-0075117D01*
X00465039Y-00796859D02*
X00458945D01*
Y-00793812*
X00459961Y-00792797*
X00461992*
X00463008Y-00793812*
Y-00796859*
X00459961Y-00786703D02*
X00458945Y-00787718D01*
Y-0078975*
X00459961Y-00790765*
X00464024*
X00465039Y-0078975*
Y-00787718*
X00464024Y-00786703*
X00458945Y-00784671D02*
X00465039D01*
Y-00781624*
X00464024Y-00780609*
X00463008*
X00461992Y-00781624*
Y-00784671*
Y-00781624*
X00460977Y-00780609*
X00459961*
X00458945Y-00781624*
Y-00784671*
Y-00768421D02*
Y-00772483D01*
X00465039*
Y-00768421*
X00461992Y-00772483D02*
Y-00770452D01*
X00458945Y-00766389D02*
X00465039D01*
Y-00763342*
X00464024Y-00762327*
X00459961*
X00458945Y-00763342*
Y-00766389*
X00459961Y-00756233D02*
X00458945Y-00757248D01*
Y-0075928*
X00459961Y-00760295*
X00464024*
X00465039Y-0075928*
Y-00757248*
X00464024Y-00756233*
X00461992*
Y-00758264*
X00458945Y-00750138D02*
Y-00754201D01*
X00465039*
Y-00750138*
X00461992Y-00754201D02*
Y-0075217D01*
X00783959Y-00004139D02*
X00790053D01*
Y-00007186*
X00789038Y-00008202*
X00787006*
X00785991Y-00007186*
Y-00004139*
X00789038Y-00014296D02*
X00790053Y-0001328D01*
Y-00011249*
X00789038Y-00010233*
X00784975*
X00783959Y-00011249*
Y-0001328*
X00784975Y-00014296*
X00790053Y-00016327D02*
X00783959D01*
Y-00019374*
X00784975Y-0002039*
X00785991*
X00787006Y-00019374*
Y-00016327*
Y-00019374*
X00788022Y-0002039*
X00789038*
X00790053Y-00019374*
Y-00016327*
Y-00032578D02*
Y-00028516D01*
X00783959*
Y-00032578*
X00787006Y-00028516D02*
Y-00030547D01*
X00790053Y-0003461D02*
X00783959D01*
Y-00037657*
X00784975Y-00038672*
X00789038*
X00790053Y-00037657*
Y-0003461*
X00789038Y-00044766D02*
X00790053Y-0004375D01*
Y-00041719*
X00789038Y-00040704*
X00784975*
X00783959Y-00041719*
Y-0004375*
X00784975Y-00044766*
X00787006*
Y-00042735*
X00790053Y-0005086D02*
Y-00046797D01*
X00783959*
Y-0005086*
X00787006Y-00046797D02*
Y-00048829D01*
X00333959Y-00003139D02*
X00340053D01*
Y-00006186*
X00339038Y-00007202*
X00337006*
X00335991Y-00006186*
Y-00003139*
X00339038Y-00013296D02*
X00340053Y-0001228D01*
Y-00010249*
X00339038Y-00009233*
X00334975*
X00333959Y-00010249*
Y-0001228*
X00334975Y-00013296*
X00340053Y-00015327D02*
X00333959D01*
Y-00018374*
X00334975Y-0001939*
X00335991*
X00337006Y-00018374*
Y-00015327*
Y-00018374*
X00338022Y-0001939*
X00339038*
X00340053Y-00018374*
Y-00015327*
Y-00031578D02*
Y-00027516D01*
X00333959*
Y-00031578*
X00337006Y-00027516D02*
Y-00029547D01*
X00340053Y-0003361D02*
X00333959D01*
Y-00036657*
X00334975Y-00037672*
X00339038*
X00340053Y-00036657*
Y-0003361*
X00339038Y-00043766D02*
X00340053Y-0004275D01*
Y-00040719*
X00339038Y-00039704*
X00334975*
X00333959Y-00040719*
Y-0004275*
X00334975Y-00043766*
X00337006*
Y-00041735*
X00340053Y-0004986D02*
Y-00045797D01*
X00333959*
Y-0004986*
X00337006Y-00045797D02*
Y-00047829D01*
X00004139Y-00742039D02*
Y-00735945D01*
X00007186*
X00008202Y-00736961*
Y-00738992*
X00007186Y-00740008*
X00004139*
X00014296Y-00736961D02*
X0001328Y-00735945D01*
X00011249*
X00010233Y-00736961*
Y-00741024*
X00011249Y-00742039*
X0001328*
X00014296Y-00741024*
X00016327Y-00735945D02*
Y-00742039D01*
X00019374*
X0002039Y-00741024*
Y-00740008*
X00019374Y-00738992*
X00016327*
X00019374*
X0002039Y-00737977*
Y-00736961*
X00019374Y-00735945*
X00016327*
X00032578D02*
X00028516D01*
Y-00742039*
X00032578*
X00028516Y-00738992D02*
X00030547D01*
X0003461Y-00735945D02*
Y-00742039D01*
X00037657*
X00038672Y-00741024*
Y-00736961*
X00037657Y-00735945*
X0003461*
X00044766Y-00736961D02*
X0004375Y-00735945D01*
X00041719*
X00040704Y-00736961*
Y-00741024*
X00041719Y-00742039*
X0004375*
X00044766Y-00741024*
Y-00738992*
X00042735*
X0005086Y-00735945D02*
X00046797D01*
Y-00742039*
X0005086*
X00046797Y-00738992D02*
X00048829D01*
X00691039Y-00344859D02*
X00684945D01*
Y-00341812*
X00685961Y-00340797*
X00687992*
X00689008Y-00341812*
Y-00344859*
X00685961Y-00334703D02*
X00684945Y-00335718D01*
Y-0033775*
X00685961Y-00338765*
X00690024*
X00691039Y-0033775*
Y-00335718*
X00690024Y-00334703*
X00684945Y-00332671D02*
X00691039D01*
Y-00329624*
X00690024Y-00328609*
X00689008*
X00687992Y-00329624*
Y-00332671*
Y-00329624*
X00686977Y-00328609*
X00685961*
X00684945Y-00329624*
Y-00332671*
Y-00316421D02*
Y-00320483D01*
X00691039*
Y-00316421*
X00687992Y-00320483D02*
Y-00318452D01*
X00684945Y-00314389D02*
X00691039D01*
Y-00311342*
X00690024Y-00310327*
X00685961*
X00684945Y-00311342*
Y-00314389*
X00685961Y-00304233D02*
X00684945Y-00305248D01*
Y-0030728*
X00685961Y-00308295*
X00690024*
X00691039Y-0030728*
Y-00305248*
X00690024Y-00304233*
X00687992*
Y-00306264*
X00684945Y-00298139D02*
Y-00302201D01*
X00691039*
Y-00298139*
X00687992Y-00302201D02*
Y-0030017D01*
X00795859Y-00057959D02*
Y-00064053D01*
X00792812*
X00791797Y-00063038*
Y-00061006*
X00792812Y-00059991*
X00795859*
X00785703Y-00063038D02*
X00786718Y-00064053D01*
X0078875*
X00789765Y-00063038*
Y-00058975*
X0078875Y-00057959*
X00786718*
X00785703Y-00058975*
X00783671Y-00064053D02*
Y-00057959D01*
X00780624*
X00779609Y-00058975*
Y-00059991*
X00780624Y-00061006*
X00783671*
X00780624*
X00779609Y-00062022*
Y-00063038*
X00780624Y-00064053*
X00783671*
X00767421D02*
X00771483D01*
Y-00057959*
X00767421*
X00771483Y-00061006D02*
X00769452D01*
X00765389Y-00064053D02*
Y-00057959D01*
X00762342*
X00761327Y-00058975*
Y-00063038*
X00762342Y-00064053*
X00765389*
X00755233Y-00063038D02*
X00756248Y-00064053D01*
X0075828*
X00759295Y-00063038*
Y-00058975*
X0075828Y-00057959*
X00756248*
X00755233Y-00058975*
Y-00061006*
X00757264*
X00749138Y-00064053D02*
X00753201D01*
Y-00057959*
X00749138*
X00753201Y-00061006D02*
X0075117D01*
X01243859Y-00609959D02*
Y-00616053D01*
X01240812*
X01239797Y-00615038*
Y-00613006*
X01240812Y-00611991*
X01243859*
X01233703Y-00615038D02*
X01234718Y-00616053D01*
X0123675*
X01237765Y-00615038*
Y-00610975*
X0123675Y-00609959*
X01234718*
X01233703Y-00610975*
X01231671Y-00616053D02*
Y-00609959D01*
X01228624*
X01227609Y-00610975*
Y-00611991*
X01228624Y-00613006*
X01231671*
X01228624*
X01227609Y-00614022*
Y-00615038*
X01228624Y-00616053*
X01231671*
X0121542D02*
X01219483D01*
Y-00609959*
X0121542*
X01219483Y-00613006D02*
X01217452D01*
X01213389Y-00616053D02*
Y-00609959D01*
X01210342*
X01209327Y-00610975*
Y-00615038*
X01210342Y-00616053*
X01213389*
X01203233Y-00615038D02*
X01204248Y-00616053D01*
X0120628*
X01207295Y-00615038*
Y-00610975*
X0120628Y-00609959*
X01204248*
X01203233Y-00610975*
Y-00613006*
X01205264*
X01197139Y-00616053D02*
X01201201D01*
Y-00609959*
X01197139*
X01201201Y-00613006D02*
X0119917D01*
X00903139Y-00190039D02*
Y-00183945D01*
X00906186*
X00907202Y-00184961*
Y-00186992*
X00906186Y-00188008*
X00903139*
X00913296Y-00184961D02*
X0091228Y-00183945D01*
X00910249*
X00909233Y-00184961*
Y-00189024*
X00910249Y-00190039*
X0091228*
X00913296Y-00189024*
X00915327Y-00183945D02*
Y-00190039D01*
X00918374*
X0091939Y-00189024*
Y-00188008*
X00918374Y-00186992*
X00915327*
X00918374*
X0091939Y-00185977*
Y-00184961*
X00918374Y-00183945*
X00915327*
X00931578D02*
X00927516D01*
Y-00190039*
X00931578*
X00927516Y-00186992D02*
X00929547D01*
X0093361Y-00183945D02*
Y-00190039D01*
X00936657*
X00937672Y-00189024*
Y-00184961*
X00936657Y-00183945*
X0093361*
X00943766Y-00184961D02*
X0094275Y-00183945D01*
X00940719*
X00939703Y-00184961*
Y-00189024*
X00940719Y-00190039*
X0094275*
X00943766Y-00189024*
Y-00186992*
X00941735*
X0094986Y-00183945D02*
X00945797D01*
Y-00190039*
X0094986*
X00945797Y-00186992D02*
X00947829D01*
X00795859Y-00609959D02*
Y-00616053D01*
X00792812*
X00791797Y-00615038*
Y-00613006*
X00792812Y-00611991*
X00795859*
X00785703Y-00615038D02*
X00786718Y-00616053D01*
X0078875*
X00789765Y-00615038*
Y-00610975*
X0078875Y-00609959*
X00786718*
X00785703Y-00610975*
X00783671Y-00616053D02*
Y-00609959D01*
X00780624*
X00779609Y-00610975*
Y-00611991*
X00780624Y-00613006*
X00783671*
X00780624*
X00779609Y-00614022*
Y-00615038*
X00780624Y-00616053*
X00783671*
X00767421D02*
X00771483D01*
Y-00609959*
X00767421*
X00771483Y-00613006D02*
X00769452D01*
X00765389Y-00616053D02*
Y-00609959D01*
X00762342*
X00761327Y-00610975*
Y-00615038*
X00762342Y-00616053*
X00765389*
X00755233Y-00615038D02*
X00756248Y-00616053D01*
X0075828*
X00759295Y-00615038*
Y-00610975*
X0075828Y-00609959*
X00756248*
X00755233Y-00610975*
Y-00613006*
X00757264*
X00749138Y-00616053D02*
X00753201D01*
Y-00609959*
X00749138*
X00753201Y-00613006D02*
X0075117D01*
X00905139Y-00742039D02*
Y-00735945D01*
X00908186*
X00909202Y-00736961*
Y-00738992*
X00908186Y-00740008*
X00905139*
X00915296Y-00736961D02*
X0091428Y-00735945D01*
X00912249*
X00911233Y-00736961*
Y-00741024*
X00912249Y-00742039*
X0091428*
X00915296Y-00741024*
X00917327Y-00735945D02*
Y-00742039D01*
X00920374*
X0092139Y-00741024*
Y-00740008*
X00920374Y-00738992*
X00917327*
X00920374*
X0092139Y-00737977*
Y-00736961*
X00920374Y-00735945*
X00917327*
X00933578D02*
X00929516D01*
Y-00742039*
X00933578*
X00929516Y-00738992D02*
X00931547D01*
X0093561Y-00735945D02*
Y-00742039D01*
X00938657*
X00939672Y-00741024*
Y-00736961*
X00938657Y-00735945*
X0093561*
X00945766Y-00736961D02*
X0094475Y-00735945D01*
X00942719*
X00941703Y-00736961*
Y-00741024*
X00942719Y-00742039*
X0094475*
X00945766Y-00741024*
Y-00738992*
X00943735*
X0095186Y-00735945D02*
X00947797D01*
Y-00742039*
X0095186*
X00947797Y-00738992D02*
X00949829D01*
X01244859Y-00057959D02*
Y-00064053D01*
X01241812*
X01240797Y-00063038*
Y-00061006*
X01241812Y-00059991*
X01244859*
X01234703Y-00063038D02*
X01235718Y-00064053D01*
X0123775*
X01238765Y-00063038*
Y-00058975*
X0123775Y-00057959*
X01235718*
X01234703Y-00058975*
X01232671Y-00064053D02*
Y-00057959D01*
X01229624*
X01228609Y-00058975*
Y-00059991*
X01229624Y-00061006*
X01232671*
X01229624*
X01228609Y-00062022*
Y-00063038*
X01229624Y-00064053*
X01232671*
X0121642D02*
X01220483D01*
Y-00057959*
X0121642*
X01220483Y-00061006D02*
X01218452D01*
X01214389Y-00064053D02*
Y-00057959D01*
X01211342*
X01210327Y-00058975*
Y-00063038*
X01211342Y-00064053*
X01214389*
X01204233Y-00063038D02*
X01205248Y-00064053D01*
X0120728*
X01208295Y-00063038*
Y-00058975*
X0120728Y-00057959*
X01205248*
X01204233Y-00058975*
Y-00061006*
X01206264*
X01198139Y-00064053D02*
X01202201D01*
Y-00057959*
X01198139*
X01202201Y-00061006D02*
X0120017D01*
X00453139Y-00742039D02*
Y-00735945D01*
X00456186*
X00457202Y-00736961*
Y-00738992*
X00456186Y-00740008*
X00453139*
X00463296Y-00736961D02*
X0046228Y-00735945D01*
X00460249*
X00459233Y-00736961*
Y-00741024*
X00460249Y-00742039*
X0046228*
X00463296Y-00741024*
X00465328Y-00735945D02*
Y-00742039D01*
X00468374*
X0046939Y-00741024*
Y-00740008*
X00468374Y-00738992*
X00465328*
X00468374*
X0046939Y-00737977*
Y-00736961*
X00468374Y-00735945*
X00465328*
X00481578D02*
X00477515D01*
Y-00742039*
X00481578*
X00477515Y-00738992D02*
X00479547D01*
X00483609Y-00735945D02*
Y-00742039D01*
X00486656*
X00487672Y-00741024*
Y-00736961*
X00486656Y-00735945*
X00483609*
X00493766Y-00736961D02*
X0049275Y-00735945D01*
X00490719*
X00489703Y-00736961*
Y-00741024*
X00490719Y-00742039*
X0049275*
X00493766Y-00741024*
Y-00738992*
X00491735*
X0049986Y-00735945D02*
X00495798D01*
Y-00742039*
X0049986*
X00495798Y-00738992D02*
X00497829D01*
X00454139Y-00190039D02*
Y-00183945D01*
X00457186*
X00458202Y-00184961*
Y-00186992*
X00457186Y-00188008*
X00454139*
X00464296Y-00184961D02*
X0046328Y-00183945D01*
X00461249*
X00460233Y-00184961*
Y-00189024*
X00461249Y-00190039*
X0046328*
X00464296Y-00189024*
X00466327Y-00183945D02*
Y-00190039D01*
X00469374*
X0047039Y-00189024*
Y-00188008*
X00469374Y-00186992*
X00466327*
X00469374*
X0047039Y-00185977*
Y-00184961*
X00469374Y-00183945*
X00466327*
X00482578D02*
X00478515D01*
Y-00190039*
X00482578*
X00478515Y-00186992D02*
X00480547D01*
X00484609Y-00183945D02*
Y-00190039D01*
X00487656*
X00488672Y-00189024*
Y-00184961*
X00487656Y-00183945*
X00484609*
X00494766Y-00184961D02*
X0049375Y-00183945D01*
X00491719*
X00490703Y-00184961*
Y-00189024*
X00491719Y-00190039*
X0049375*
X00494766Y-00189024*
Y-00186992*
X00492735*
X0050086Y-00183945D02*
X00496798D01*
Y-00190039*
X0050086*
X00496798Y-00186992D02*
X00498829D01*
G54D95*
X01063999Y-00708499D02*
Y-00641499D01*
X01100999Y-00708499D02*
Y-00641499D01*
X01063999D02*
X01100999D01*
X01063999Y-00708499D02*
X01100999D01*
X01115Y-00724749D02*
X01129D01*
X01115Y-00746249D02*
X01129D01*
Y-00724749*
X01115Y-00746249D02*
Y-00724749D01*
X01144249Y-00621999D02*
X01165749D01*
X01144249Y-00607999D02*
X01165749D01*
Y-00621999D02*
Y-00607999D01*
X01144249Y-00621999D02*
Y-00607999D01*
X00194249Y-00247999D02*
X00215749D01*
X00194249Y-00261999D02*
X00215749D01*
X00194249D02*
Y-00247999D01*
X00215749Y-00261999D02*
Y-00247999D01*
X00646899Y-00077444D02*
X00723099D01*
X00646899D02*
Y-00052554D01*
X00723099*
Y-00077444D02*
Y-00052554D01*
X00200499Y-00554749D02*
X00221999D01*
X00200499Y-00568749D02*
X00221999D01*
X00200499D02*
Y-00554749D01*
X00221999Y-00568749D02*
Y-00554749D01*
X00181899Y-00532444D02*
Y-00507554D01*
Y-00532444D02*
X00258099D01*
Y-00507554*
X00181899D02*
X00258099D01*
X01059999Y-00098999D02*
X01073999D01*
X01059999Y-00128999D02*
X01073999D01*
X01059999D02*
Y-00098999D01*
X01073999Y-00128999D02*
Y-00098999D01*
X00107999Y-00718249D02*
X00121999D01*
X00107999Y-00696749D02*
X00121999D01*
X00107999Y-00718249D02*
Y-00696749D01*
X00121999Y-00718249D02*
Y-00696749D01*
X00114999Y-00255499D02*
Y-00241499D01*
X00093499Y-00255499D02*
Y-00241499D01*
Y-00255499D02*
X00114999D01*
X00093499Y-00241499D02*
X00114999D01*
X01013249Y-00250999D02*
Y-00236999D01*
X01034749Y-00250999D02*
Y-00236999D01*
X01013249D02*
X01034749D01*
X01013249Y-00250999D02*
X01034749D01*
X00201749Y-00680499D02*
Y-00658499D01*
X00187749Y-00680499D02*
Y-00658499D01*
Y-00680499D02*
X00201749D01*
X00187749Y-00658499D02*
X00201749D01*
X01012749Y-00562999D02*
X01034249D01*
X01012749Y-00576999D02*
X01034249D01*
X01012749D02*
Y-00562999D01*
X01034249Y-00576999D02*
Y-00562999D01*
G54D96*
X002999Y-00723624D02*
X00366249D01*
X002999D02*
Y-00628373D01*
X00366249*
Y-00723624D02*
Y-00628373D01*
X-00016249Y-00076375D02*
X00050098D01*
Y-00171625D02*
Y-00076375D01*
X-00016249Y-00171625D02*
X00050098D01*
X-00016249D02*
Y-00076375D01*
X00672624Y-00498099D02*
Y-00431749D01*
X00577373Y-00498099D02*
X00672624D01*
X00577373D02*
Y-00431749D01*
X00672624*
X003009Y-00171624D02*
X00367249D01*
X003009D02*
Y-00076373D01*
X00367249*
Y-00171624D02*
Y-00076373D01*
X00802375Y-00817249D02*
Y-007509D01*
X00897625*
Y-00817249D02*
Y-007509D01*
X00802375Y-00817249D02*
X00897625D01*
X00351375Y-00818249D02*
Y-007519D01*
X00446625*
Y-00818249D02*
Y-007519D01*
X00351375Y-00818249D02*
X00446625D01*
X00802373Y00017249D02*
X00897624D01*
X00802373Y-00049098D02*
Y00017249D01*
Y-00049098D02*
X00897624D01*
Y00017249*
X00352373Y00018249D02*
X00447624D01*
X00352373Y-00048098D02*
Y00018249D01*
Y-00048098D02*
X00447624D01*
Y00018249*
X-00017249Y-00723625D02*
Y-00628375D01*
Y-00723625D02*
X00049098D01*
Y-00628375*
X-00017249D02*
X00049098D01*
X00577375Y-00366249D02*
X00672625D01*
Y-002999*
X00577375D02*
X00672625D01*
X00577375Y-00366249D02*
Y-002999D01*
X00817249Y-00171624D02*
Y-00076373D01*
X007509D02*
X00817249D01*
X007509Y-00171624D02*
Y-00076373D01*
Y-00171624D02*
X00817249D01*
X01265249Y-00723624D02*
Y-00628373D01*
X011989D02*
X01265249D01*
X011989Y-00723624D02*
Y-00628373D01*
Y-00723624D02*
X01265249D01*
X00881749Y-00171625D02*
Y-00076375D01*
Y-00171625D02*
X00948099D01*
Y-00076375*
X00881749D02*
X00948099D01*
X00817249Y-00723624D02*
Y-00628373D01*
X007509D02*
X00817249D01*
X007509Y-00723624D02*
Y-00628373D01*
Y-00723624D02*
X00817249D01*
X00883749Y-00723625D02*
Y-00628375D01*
Y-00723625D02*
X00950099D01*
Y-00628375*
X00883749D02*
X00950099D01*
X01266249Y-00171624D02*
Y-00076373D01*
X011999D02*
X01266249D01*
X011999Y-00171624D02*
Y-00076373D01*
Y-00171624D02*
X01266249D01*
X00431749Y-00723625D02*
Y-00628375D01*
Y-00723625D02*
X00498099D01*
Y-00628375*
X00431749D02*
X00498099D01*
X00432749Y-00171625D02*
Y-00076375D01*
Y-00171625D02*
X00499099D01*
Y-00076375*
X00432749D02*
X00499099D01*
G54D97*
X01000499Y-00196499D02*
Y-00179499D01*
X00991499Y-00196499D02*
Y-00179499D01*
X01000499*
X00991499Y-00196499D02*
X01000499D01*
X01058499Y-00192199D02*
X01075499D01*
X01058499Y-00201799D02*
X01075499D01*
X01058499D02*
Y-00192199D01*
X01075499Y-00201799D02*
Y-00192199D01*
X01014999Y-00679999D02*
X01032999D01*
X01014999Y-00669999D02*
X01032999D01*
Y-00679999D02*
Y-00669999D01*
X01014999Y-00679999D02*
Y-00669999D01*
X01029999Y-00606499D02*
Y-00588499D01*
X01019999Y-00606499D02*
Y-00588499D01*
X01029999*
X01019999Y-00606499D02*
X01029999D01*
X01037499Y-00658999D02*
Y-00640999D01*
X01027499Y-00658999D02*
Y-00640999D01*
X01037499*
X01027499Y-00658999D02*
X01037499D01*
X01170999Y-00680999D02*
X01187999D01*
X01170999Y-00671999D02*
X01187999D01*
Y-00680999D02*
Y-00671999D01*
X01170999Y-00680999D02*
Y-00671999D01*
X01130499Y-00682999D02*
Y-00672999D01*
X01148499Y-00682999D02*
Y-00672999D01*
X01130499D02*
X01148499D01*
X01130499Y-00682999D02*
X01148499D01*
X01127999Y-00657999D02*
Y-00647999D01*
X01145999Y-00657999D02*
Y-00647999D01*
X01127999D02*
X01145999D01*
X01127999Y-00657999D02*
X01145999D01*
X00963499Y-00680499D02*
X00980499D01*
X00963499Y-00671499D02*
X00980499D01*
Y-00680499D02*
Y-00671499D01*
X00963499Y-00680499D02*
Y-00671499D01*
X01146499Y-00639499D02*
X01163499D01*
X01146499Y-00630499D02*
X01163499D01*
Y-00639499D02*
Y-00630499D01*
X01146499Y-00639499D02*
Y-00630499D01*
X00092999Y-00657249D02*
X00101999D01*
X00092999Y-00640249D02*
X00101999D01*
X00092999Y-00657249D02*
Y-00640249D01*
X00101999Y-00657249D02*
Y-00640249D01*
X00677749Y-00254499D02*
X00694749D01*
X00677749Y-00245499D02*
X00694749D01*
Y-00254499D02*
Y-00245499D01*
X00677749Y-00254499D02*
Y-00245499D01*
X00670499Y-00174749D02*
Y-00157749D01*
X00679499Y-00174749D02*
Y-00157749D01*
X00670499Y-00174749D02*
X00679499D01*
X00670499Y-00157749D02*
X00679499D01*
X00713749Y-00119499D02*
X00730749D01*
X00713749Y-00128499D02*
X00730749D01*
X00713749D02*
Y-00119499D01*
X00730749Y-00128499D02*
Y-00119499D01*
X00620199Y-00424499D02*
X00629799D01*
X00620199Y-00407499D02*
X00629799D01*
X00620199Y-00424499D02*
Y-00407499D01*
X00629799Y-00424499D02*
Y-00407499D01*
X00607749Y-00274499D02*
X00624749D01*
X00607749Y-00265499D02*
X00624749D01*
Y-00274499D02*
Y-00265499D01*
X00607749Y-00274499D02*
Y-00265499D01*
X00859499Y-00680799D02*
X00876499D01*
X00859499Y-00671199D02*
X00876499D01*
Y-00680799D02*
Y-00671199D01*
X00859499Y-00680799D02*
Y-00671199D01*
X00823499Y-00680799D02*
X00840499D01*
X00823499Y-00671199D02*
X00840499D01*
Y-00680799D02*
Y-00671199D01*
X00823499Y-00680799D02*
Y-00671199D01*
X00202999Y-00583499D02*
X00219999D01*
X00202999Y-00574499D02*
X00219999D01*
Y-00583499D02*
Y-00574499D01*
X00202999Y-00583499D02*
Y-00574499D01*
X00259499Y-00626999D02*
Y-00609999D01*
X00250499Y-00626999D02*
Y-00609999D01*
X00259499*
X00250499Y-00626999D02*
X00259499D01*
X00069499Y-00694749D02*
Y-00677749D01*
X00060499Y-00694749D02*
Y-00677749D01*
X00069499*
X00060499Y-00694749D02*
X00069499D01*
X00080249Y-00672699D02*
X00097249D01*
X00080249Y-00682299D02*
X00097249D01*
X00080249D02*
Y-00672699D01*
X00097249Y-00682299D02*
Y-00672699D01*
X00859499Y-00128799D02*
X00876499D01*
X00859499Y-00119199D02*
X00876499D01*
Y-00128799D02*
Y-00119199D01*
X00859499Y-00128799D02*
Y-00119199D01*
X00823499Y-00128799D02*
X00840499D01*
X00823499Y-00119199D02*
X00840499D01*
Y-00128799D02*
Y-00119199D01*
X00823499Y-00128799D02*
Y-00119199D01*
X00629799Y-00388499D02*
Y-00371499D01*
X00620199Y-00388499D02*
Y-00371499D01*
X00629799*
X00620199Y-00388499D02*
X00629799D01*
X00408499Y-00680799D02*
X00425499D01*
X00408499Y-00671199D02*
X00425499D01*
Y-00680799D02*
Y-00671199D01*
X00408499Y-00680799D02*
Y-00671199D01*
X00372499Y-00680799D02*
X00389499D01*
X00372499Y-00671199D02*
X00389499D01*
Y-00680799D02*
Y-00671199D01*
X00372499Y-00680799D02*
Y-00671199D01*
X00409499Y-00128799D02*
Y-00119199D01*
X00426499Y-00128799D02*
Y-00119199D01*
X00409499D02*
X00426499D01*
X00409499Y-00128799D02*
X00426499D01*
X00373499D02*
Y-00119199D01*
X00390499Y-00128799D02*
Y-00119199D01*
X00373499D02*
X00390499D01*
X00373499Y-00128799D02*
X00390499D01*
X00208199Y-00740499D02*
X00217799D01*
X00208199Y-00723499D02*
X00217799D01*
X00208199Y-00740499D02*
Y-00723499D01*
X00217799Y-00740499D02*
Y-00723499D01*
X00200199Y-00627499D02*
X00209799D01*
X00200199Y-00610499D02*
X00209799D01*
X00200199Y-00627499D02*
Y-00610499D01*
X00209799Y-00627499D02*
Y-00610499D01*
X00135199Y-00638999D02*
X00144799D01*
X00135199Y-00655999D02*
X00144799D01*
Y-00638999*
X00135199Y-00655999D02*
Y-00638999D01*
X00160199Y-00655999D02*
X00169799D01*
X00160199Y-00638999D02*
X00169799D01*
X00160199Y-00655999D02*
Y-00638999D01*
X00169799Y-00655999D02*
Y-00638999D01*
X00237999Y-00582799D02*
Y-00573199D01*
X00254999Y-00582799D02*
Y-00573199D01*
X00237999D02*
X00254999D01*
X00237999Y-00582799D02*
X00254999D01*
X01037699Y-00605999D02*
X01047299D01*
X01037699Y-00588999D02*
X01047299D01*
X01037699Y-00605999D02*
Y-00588999D01*
X01047299Y-00605999D02*
Y-00588999D01*
X01075499Y-00184799D02*
Y-001752D01*
X01058499Y-00184799D02*
Y-001752D01*
Y-00184799D02*
X01075499D01*
X01058499Y-001752D02*
X01075499D01*
X01098499Y-00201799D02*
Y-00192199D01*
X01115499Y-00201799D02*
Y-00192199D01*
X01098499D02*
X01115499D01*
X01098499Y-00201799D02*
X01115499D01*
X01023199Y-00179499D02*
X01032799D01*
X01023199Y-00196499D02*
X01032799D01*
Y-00179499*
X01023199Y-00196499D02*
Y-00179499D01*
X00979499Y-00228799D02*
Y-00219199D01*
X00996499Y-00228799D02*
Y-00219199D01*
X00979499D02*
X00996499D01*
X00979499Y-00228799D02*
X00996499D01*
X00679499Y-00658799D02*
Y-00649199D01*
X00662499Y-00658799D02*
Y-00649199D01*
Y-00658799D02*
X00679499D01*
X00662499Y-00649199D02*
X00679499D01*
X00241949Y-00130749D02*
X00251549D01*
X00241949Y-00113749D02*
X00251549D01*
X00241949Y-00130749D02*
Y-00113749D01*
X00251549Y-00130749D02*
Y-00113749D01*
X00223699Y-00113499D02*
X00233299D01*
X00223699Y-00130499D02*
X00233299D01*
Y-00113499*
X00223699Y-00130499D02*
Y-00113499D01*
X00087489Y-00113099D02*
Y-00103499D01*
X00104489Y-00113099D02*
Y-00103499D01*
X00087489D02*
X00104489D01*
X00087489Y-00113099D02*
X00104489D01*
X00120449Y-00105999D02*
X00130049D01*
X00120449Y-00122999D02*
X00130049D01*
Y-00105999*
X00120449Y-00122999D02*
Y-00105999D01*
X00121949Y-00164749D02*
X00131549D01*
X00121949Y-00181749D02*
X00131549D01*
Y-00164749*
X00121949Y-00181749D02*
Y-00164749D01*
X00161749Y-00170799D02*
Y-00161199D01*
X00144749Y-00170799D02*
Y-00161199D01*
Y-00170799D02*
X00161749D01*
X00144749Y-00161199D02*
X00161749D01*
X00244499Y-00195549D02*
Y-00185949D01*
X00227499Y-00195549D02*
Y-00185949D01*
Y-00195549D02*
X00244499D01*
X00227499Y-00185949D02*
X00244499D01*
X00269949Y-00172999D02*
X00279549D01*
X00269949Y-00189999D02*
X00279549D01*
Y-00172999*
X00269949Y-00189999D02*
Y-00172999D01*
X00120199Y-00072249D02*
X00129799D01*
X00120199Y-00089249D02*
X00129799D01*
Y-00072249*
X00120199Y-00089249D02*
Y-00072249D01*
X001645Y-00077549D02*
Y-00067949D01*
X00147499Y-00077549D02*
Y-00067949D01*
Y-00077549D02*
X001645D01*
X00147499Y-00067949D02*
X001645D01*
X00246249Y-00097799D02*
Y-00088199D01*
X00229249Y-00097799D02*
Y-00088199D01*
Y-00097799D02*
X00246249D01*
X00229249Y-00088199D02*
X00246249D01*
X00278999Y-00097799D02*
Y-00088199D01*
X00261999Y-00097799D02*
Y-00088199D01*
Y-00097799D02*
X00278999D01*
X00261999Y-00088199D02*
X00278999D01*
X00121699Y-00199249D02*
X00131299D01*
X00121699Y-00216249D02*
X00131299D01*
Y-00199249*
X00121699Y-00216249D02*
Y-00199249D01*
X00089249Y-00207049D02*
Y-00197449D01*
X00106249Y-00207049D02*
Y-00197449D01*
X00089249D02*
X00106249D01*
X00089249Y-00207049D02*
X00106249D01*
X00223199Y-00208749D02*
X00232799D01*
X00223199Y-00225749D02*
X00232799D01*
Y-00208749*
X00223199Y-00225749D02*
Y-00208749D01*
X00242949Y-00225499D02*
X00252549D01*
X00242949Y-00208499D02*
X00252549D01*
X00242949Y-00225499D02*
Y-00208499D01*
X00252549Y-00225499D02*
Y-00208499D01*
X00163899Y-00118219D02*
X00193899D01*
X00163899Y-00088219D02*
X00193899D01*
Y-00118219D02*
Y-00088219D01*
X00163899Y-00118219D02*
Y-00088219D01*
X00586999Y-00705999D02*
X00596999D01*
X00586999Y-00687999D02*
X00596999D01*
X00586999Y-00705999D02*
Y-00687999D01*
X00596999Y-00705999D02*
Y-00687999D01*
X00549139Y-00706399D02*
X00559139D01*
X00549139Y-00688399D02*
X00559139D01*
X00549139Y-00706399D02*
Y-00688399D01*
X00559139Y-00706399D02*
Y-00688399D01*
X00207999Y-00709749D02*
X00217999D01*
X00207999Y-00691749D02*
X00217999D01*
X00207999Y-00709749D02*
Y-00691749D01*
X00217999Y-00709749D02*
Y-00691749D01*
X00115999Y-00682499D02*
Y-00672499D01*
X00133999Y-00682499D02*
Y-00672499D01*
X00115999D02*
X00133999D01*
X00115999Y-00682499D02*
X00133999D01*
X00639999Y-00100249D02*
X00649999D01*
X00639999Y-00118249D02*
X00649999D01*
Y-00100249*
X00639999Y-00118249D02*
Y-00100249D01*
X00654999Y-00267749D02*
X00664999D01*
X00654999Y-00249749D02*
X00664999D01*
X00654999Y-00267749D02*
Y-00249749D01*
X00664999Y-00267749D02*
Y-00249749D01*
X00553999Y-00129999D02*
Y-00119999D01*
X00535999Y-00129999D02*
Y-00119999D01*
Y-00129999D02*
X00553999D01*
X00535999Y-00119999D02*
X00553999D01*
X00625249Y-00159999D02*
Y-00149999D01*
X00607249Y-00159999D02*
Y-00149999D01*
Y-00159999D02*
X00625249D01*
X00607249Y-00149999D02*
X00625249D01*
X00639999Y-00157249D02*
X00649999D01*
X00639999Y-00175249D02*
X00649999D01*
Y-00157249*
X00639999Y-00175249D02*
Y-00157249D01*
X00619999Y-00230249D02*
X00629999D01*
X00619999Y-00212249D02*
X00629999D01*
X00619999Y-00230249D02*
Y-00212249D01*
X00629999Y-00230249D02*
Y-00212249D01*
X00624749Y-00199999D02*
Y-00189999D01*
X00642749Y-00199999D02*
Y-00189999D01*
X00624749D02*
X00642749D01*
X00624749Y-00199999D02*
X00642749D01*
X00192499Y-00078249D02*
Y-00069249D01*
X00209499Y-00078249D02*
Y-00069249D01*
X00192499D02*
X00209499D01*
X00192499Y-00078249D02*
X00209499D01*
X00165749Y-00233749D02*
Y-00224749D01*
X00148749Y-00233749D02*
Y-00224749D01*
Y-00233749D02*
X00165749D01*
X00148749Y-00224749D02*
X00165749D01*
X00165999Y-00136749D02*
Y-00127749D01*
X00148999Y-00136749D02*
Y-00127749D01*
Y-00136749D02*
X00165999D01*
X00148999Y-00127749D02*
X00165999D01*
X00190999Y-00172749D02*
Y-00163749D01*
X00207999Y-00172749D02*
Y-00163749D01*
X00190999D02*
X00207999D01*
X00190999Y-00172749D02*
X00207999D01*
X00088999Y-00168749D02*
Y-00159749D01*
X00105999Y-00168749D02*
Y-00159749D01*
X00088999D02*
X00105999D01*
X00088999Y-00168749D02*
X00105999D01*
X00270249Y-00225499D02*
X00279249D01*
X00270249Y-00208499D02*
X00279249D01*
X00270249Y-00225499D02*
Y-00208499D01*
X00279249Y-00225499D02*
Y-00208499D01*
X00087489Y-00077239D02*
Y-00068239D01*
X00104489Y-00077239D02*
Y-00068239D01*
X00087489D02*
X00104489D01*
X00087489Y-00077239D02*
X00104489D01*
X00266749Y-00130749D02*
X00275749D01*
X00266749Y-00113749D02*
X00275749D01*
X00266749Y-00130749D02*
Y-00113749D01*
X00275749Y-00130749D02*
Y-00113749D01*
X00089249Y-00188249D02*
Y-00179249D01*
X00106249Y-00188249D02*
Y-00179249D01*
X00089249D02*
X00106249D01*
X00089249Y-00188249D02*
X00106249D01*
X0024475Y-00175249D02*
Y-00166249D01*
X00227749Y-00175249D02*
Y-00166249D01*
Y-00175249D02*
X0024475D01*
X00227749Y-00166249D02*
X0024475D01*
X00087489Y-00095019D02*
Y-00086019D01*
X00104489Y-00095019D02*
Y-00086019D01*
X00087489D02*
X00104489D01*
X00087489Y-00095019D02*
X00104489D01*
X00246499Y-00078249D02*
Y-00069249D01*
X00229499Y-00078249D02*
Y-00069249D01*
Y-00078249D02*
X00246499D01*
X00229499Y-00069249D02*
X00246499D01*
X00605499Y-00568499D02*
X00614499D01*
X00605499Y-00551499D02*
X00614499D01*
X00605499Y-00568499D02*
Y-00551499D01*
X00614499Y-00568499D02*
Y-00551499D01*
X00620499Y-00642499D02*
X00629499D01*
X00620499Y-00625499D02*
X00629499D01*
X00620499Y-00642499D02*
Y-00625499D01*
X00629499Y-00642499D02*
Y-00625499D01*
X00638499Y-00601499D02*
X00647499D01*
X00638499Y-00584499D02*
X00647499D01*
X00638499Y-00601499D02*
Y-00584499D01*
X00647499Y-00601499D02*
Y-00584499D01*
X00570499Y-00705499D02*
X00579499D01*
X00570499Y-00688499D02*
X00579499D01*
X00570499Y-00705499D02*
Y-00688499D01*
X00579499Y-00705499D02*
Y-00688499D01*
X00531859Y-00705899D02*
X00540859D01*
X00531859Y-00688899D02*
X00540859D01*
X00531859Y-00705899D02*
Y-00688899D01*
X00540859Y-00705899D02*
Y-00688899D01*
X00593499Y-00680499D02*
Y-00671499D01*
X00610499Y-00680499D02*
Y-00671499D01*
X00593499D02*
X00610499D01*
X00593499Y-00680499D02*
X00610499D01*
X00554499D02*
Y-00671499D01*
X005715Y-00680499D02*
Y-00671499D01*
X00554499D02*
X005715D01*
X00554499Y-00680499D02*
X005715D01*
X00516499D02*
Y-00671499D01*
X00533499Y-00680499D02*
Y-00671499D01*
X00516499D02*
X00533499D01*
X00516499Y-00680499D02*
X00533499D01*
X01171499Y-00106749D02*
X01180499D01*
X01171499Y-00123749D02*
X01180499D01*
Y-00106749*
X01171499Y-00123749D02*
Y-00106749D01*
X00966499Y-00106499D02*
X00975499D01*
X00966499Y-00123499D02*
X00975499D01*
Y-00106499*
X00966499Y-00123499D02*
Y-00106499D01*
X01115499Y-00106749D02*
X01124499D01*
X01115499Y-00123749D02*
X01124499D01*
Y-00106749*
X01115499Y-00123749D02*
Y-00106749D01*
X01156499Y-00128499D02*
Y-00119499D01*
X01139499Y-00128499D02*
Y-00119499D01*
Y-00128499D02*
X01156499D01*
X01139499Y-00119499D02*
X01156499D01*
X01074499Y-00144499D02*
X01083499D01*
X01074499Y-001615D02*
X01083499D01*
Y-00144499*
X01074499Y-001615D02*
Y-00144499D01*
X01007499Y-00128499D02*
Y-00119499D01*
X00990499Y-00128499D02*
Y-00119499D01*
Y-00128499D02*
X01007499D01*
X00990499Y-00119499D02*
X01007499D01*
X01049499Y-00144499D02*
X01058499D01*
X01049499Y-00161499D02*
X01058499D01*
Y-00144499*
X01049499Y-00161499D02*
Y-00144499D01*
X01115249Y-00183499D02*
Y-00174499D01*
X01098249Y-00183499D02*
Y-00174499D01*
Y-00183499D02*
X01115249D01*
X01098249Y-00174499D02*
X01115249D01*
Y-00165499D02*
Y-00156499D01*
X01098249Y-00165499D02*
Y-00156499D01*
Y-00165499D02*
X01115249D01*
X01098249Y-00156499D02*
X01115249D01*
X00974499Y-00196499D02*
X00983499D01*
X00974499Y-00179499D02*
X00983499D01*
X00974499Y-00196499D02*
Y-00179499D01*
X00983499Y-00196499D02*
Y-00179499D01*
X01015249Y-00228499D02*
Y-00219499D01*
X01032249Y-00228499D02*
Y-00219499D01*
X01015249D02*
X01032249D01*
X01015249Y-00228499D02*
X01032249D01*
X00992999Y-00693499D02*
X01001999D01*
X00992999Y-00676499D02*
X01001999D01*
X00992999Y-00693499D02*
Y-00676499D01*
X01001999Y-00693499D02*
Y-00676499D01*
X01016749Y-00629499D02*
Y-00620499D01*
X01033749Y-00629499D02*
Y-00620499D01*
X01016749D02*
X01033749D01*
X01016749Y-00629499D02*
X01033749D01*
X00171499Y-00740499D02*
X00180499D01*
X00171499Y-00723499D02*
X00180499D01*
X00171499Y-00740499D02*
Y-00723499D01*
X00180499Y-00740499D02*
Y-00723499D01*
X00277499Y-00680499D02*
Y-00671499D01*
X00260499Y-00680499D02*
Y-00671499D01*
Y-00680499D02*
X00277499D01*
X00260499Y-00671499D02*
X00277499D01*
X00171499Y-00706749D02*
X00180499D01*
X00171499Y-00689749D02*
X00180499D01*
X00171499Y-00706749D02*
Y-00689749D01*
X00180499Y-00706749D02*
Y-00689749D01*
X00165999Y-00681999D02*
Y-00672999D01*
X00148999Y-00681999D02*
Y-00672999D01*
Y-00681999D02*
X00165999D01*
X00148999Y-00672999D02*
X00165999D01*
X00224249Y-00626999D02*
X00233249D01*
X00224249Y-00609999D02*
X00233249D01*
X00224249Y-00626999D02*
Y-00609999D01*
X00233249Y-00626999D02*
Y-00609999D01*
X00732249Y-00254499D02*
Y-00245499D01*
X00715249Y-00254499D02*
Y-00245499D01*
Y-00254499D02*
X00732249D01*
X00715249Y-00245499D02*
X00732249D01*
X00515499Y-00142249D02*
X00524499D01*
X00515499Y-00125249D02*
X00524499D01*
X00515499Y-00142249D02*
Y-00125249D01*
X00524499Y-00142249D02*
Y-00125249D01*
X00565499Y-00142249D02*
X00574499D01*
X00565499Y-00125249D02*
X00574499D01*
X00565499Y-00142249D02*
Y-00125249D01*
X00574499Y-00142249D02*
Y-00125249D01*
X00625249Y-00254499D02*
Y-00245499D01*
X00642249Y-00254499D02*
Y-00245499D01*
X00625249D02*
X00642249D01*
X00625249Y-00254499D02*
X00642249D01*
X00695249Y-00179499D02*
Y-00170499D01*
X00712249Y-00179499D02*
Y-00170499D01*
X00695249D02*
X00712249D01*
X00695249Y-00179499D02*
X00712249D01*
X00624749D02*
Y-00170499D01*
X00607749Y-00179499D02*
Y-00170499D01*
Y-00179499D02*
X00624749D01*
X00607749Y-00170499D02*
X00624749D01*
X00691581Y-00111417D02*
Y-00102417D01*
X00674581Y-00111417D02*
Y-00102417D01*
Y-00111417D02*
X00691581D01*
X00674581Y-00102417D02*
X00691581D01*
X01022999Y-00140999D02*
Y-00122999D01*
X01032999Y-00140999D02*
Y-00122999D01*
X01022999Y-00140999D02*
X01032999D01*
X01022999Y-00122999D02*
X01032999D01*
X01092999Y-00123139D02*
X01102999D01*
X01092999Y-00141139D02*
X01102999D01*
Y-00123139*
X01092999Y-00141139D02*
Y-00123139D01*
G54D98*
X00678903Y-00121832D02*
X00687367Y-00130296D01*
X00678903D02*
X00687367Y-00121832D01*
X00678903Y-00126065D02*
X00687367D01*
X00683135Y-00130296D02*
Y-00121832D01*
X00206181Y-00222377D02*
X00197717Y-00213913D01*
X00206181D02*
X00197717Y-00222377D01*
X00206181Y-00218145D02*
X00197717D01*
X0020195Y-00213913D02*
Y-00222377D01*
X00626166Y-00592903D02*
X00617702Y-00601367D01*
Y-00592903D02*
X00626166Y-00601367D01*
X00621934Y-00592903D02*
Y-00601367D01*
X00617702Y-00597135D02*
X00626166D01*
G54D122*
X00681951Y-0011895D02*
D01*
X00681959Y-00119163*
X00681981Y-00119375*
X00682018Y-00119584*
X0068207Y-0011979*
X00682135Y-00119993*
X00682215Y-0012019*
X00682308Y-00120381*
X00682414Y-00120566*
X00682534Y-00120742*
X00682664Y-0012091*
X00682807Y-00121068*
X0068296Y-00121215*
X00683123Y-00121352*
X00683295Y-00121477*
X00683475Y-0012159*
X00683663Y-0012169*
X00683858Y-00121776*
X00684058Y-00121849*
X00684262Y-00121908*
X0068447Y-00121952*
X00684681Y-00121982*
X00684893Y-00121996*
X00685106*
X00685318Y-00121982*
X00685529Y-00121952*
X00685737Y-00121908*
X00685941Y-00121849*
X00686141Y-00121776*
X00686335Y-0012169*
X00686523Y-0012159*
X00686704Y-00121477*
X00686876Y-00121352*
X00687039Y-00121215*
X00687192Y-00121068*
X00687334Y-0012091*
X00687465Y-00120742*
X00687584Y-00120566*
X00687691Y-00120381*
X00687784Y-0012019*
X00687864Y-00119993*
X00687929Y-0011979*
X00687981Y-00119584*
X00688018Y-00119375*
X0068804Y-00119163*
X00688047Y-0011895*
X00181797Y-00214493D02*
D01*
X0018179Y-00214281*
X00181768Y-00214069*
X00181731Y-0021386*
X00181679Y-00213653*
X00181614Y-00213451*
X00181534Y-00213254*
X00181441Y-00213062*
X00181334Y-00212878*
X00181215Y-00212702*
X00181084Y-00212534*
X00180942Y-00212376*
X00180789Y-00212228*
X00180626Y-00212092*
X00180454Y-00211967*
X00180273Y-00211854*
X00180086Y-00211754*
X00179891Y-00211667*
X00179691Y-00211594*
X00179487Y-00211536*
X00179279Y-00211492*
X00179068Y-00211462*
X00178856Y-00211447*
X00178643*
X00178431Y-00211462*
X0017822Y-00211492*
X00178012Y-00211536*
X00177807Y-00211594*
X00177607Y-00211667*
X00177413Y-00211754*
X00177225Y-00211854*
X00177045Y-00211967*
X00176873Y-00212092*
X0017671Y-00212228*
X00176557Y-00212376*
X00176414Y-00212534*
X00176283Y-00212702*
X00176165Y-00212878*
X00176058Y-00213062*
X00175965Y-00213254*
X00175885Y-00213451*
X0017582Y-00213653*
X00175768Y-0021386*
X00175731Y-00214069*
X00175709Y-00214281*
X00175701Y-00214493*
X00629048Y-00595951D02*
D01*
X00628836Y-00595959*
X00628624Y-00595981*
X00628415Y-00596018*
X00628208Y-00596069*
X00628006Y-00596135*
X00627809Y-00596215*
X00627617Y-00596308*
X00627433Y-00596415*
X00627257Y-00596533*
X00627089Y-00596665*
X00626931Y-00596807*
X00626783Y-0059696*
X00626646Y-00597123*
X00626521Y-00597295*
X00626409Y-00597475*
X00626309Y-00597663*
X00626222Y-00597858*
X0062615Y-00598057*
X00626091Y-00598262*
X00626047Y-0059847*
X00626017Y-00598681*
X00626002Y-00598893*
Y-00599106*
X00626017Y-00599318*
X00626047Y-00599529*
X00626091Y-00599737*
X0062615Y-00599941*
X00626222Y-00600141*
X00626309Y-00600336*
X00626409Y-00600523*
X00626521Y-00600704*
X00626646Y-00600876*
X00626783Y-00601039*
X00626931Y-00601192*
X00627089Y-00601334*
X00627257Y-00601465*
X00627433Y-00601584*
X00627617Y-00601691*
X00627809Y-00601784*
X00628006Y-00601864*
X00628208Y-00601929*
X00628415Y-00601981*
X00628624Y-00602018*
X00628836Y-0060204*
X00629048Y-00602047*
X00619952Y-00131499D02*
D01*
X00619951Y-00131446*
X00619945Y-00131393*
X00619936Y-00131341*
X00619923Y-00131289*
X00619906Y-00131239*
X00619887Y-00131189*
X00619863Y-00131142*
X00619836Y-00131096*
X00619807Y-00131052*
X00619774Y-0013101*
X00619738Y-0013097*
X006197Y-00130933*
X00619659Y-00130899*
X00619616Y-00130868*
X00619571Y-00130839*
X00619524Y-00130815*
X00619476Y-00130793*
X00619426Y-00130775*
X00619375Y-0013076*
X00619323Y-00130749*
X0061927Y-00130741*
X00619217Y-00130738*
X00619164*
X00619111Y-00130741*
X00619058Y-00130749*
X00619006Y-0013076*
X00618955Y-00130775*
X00618905Y-00130793*
X00618856Y-00130815*
X00618809Y-00130839*
X00618764Y-00130868*
X00618721Y-00130899*
X00618681Y-00130933*
X00618642Y-0013097*
X00618607Y-0013101*
X00618574Y-00131052*
X00618544Y-00131096*
X00618517Y-00131142*
X00618494Y-00131189*
X00618474Y-00131239*
X00618458Y-00131289*
X00618445Y-00131341*
X00618436Y-00131393*
X0061843Y-00131446*
X00618428Y-00131499*
X0061843Y-00131552*
X00618436Y-00131606*
X00618445Y-00131658*
X00618458Y-00131709*
X00618474Y-0013176*
X00618494Y-00131809*
X00618517Y-00131857*
X00618544Y-00131903*
X00618574Y-00131947*
X00618607Y-00131989*
X00618642Y-00132029*
X00618681Y-00132066*
X00618721Y-001321*
X00618764Y-00132131*
X00618809Y-00132159*
X00618856Y-00132184*
X00618905Y-00132206*
X00618955Y-00132224*
X00619006Y-00132239*
X00619058Y-0013225*
X00619111Y-00132257*
X00619164Y-00132261*
X00619217*
X0061927Y-00132257*
X00619323Y-0013225*
X00619375Y-00132239*
X00619426Y-00132224*
X00619476Y-00132206*
X00619524Y-00132184*
X00619571Y-00132159*
X00619616Y-00132131*
X00619659Y-001321*
X006197Y-00132066*
X00619738Y-00132029*
X00619774Y-00131989*
X00619807Y-00131947*
X00619836Y-00131903*
X00619863Y-00131857*
X00619887Y-00131809*
X00619906Y-0013176*
X00619923Y-00131709*
X00619936Y-00131658*
X00619945Y-00131606*
X00619951Y-00131552*
X00619952Y-00131499*
G54D123*
X00347399Y-00745849D02*
Y-00606149D01*
X00002599Y-00193849D02*
Y-00054149D01*
X00555149Y-00450599D02*
X00694849D01*
X00348399Y-00193849D02*
Y-00054149D01*
X00780149Y-00798399D02*
X00919849D01*
X00329149Y-00799399D02*
X00468849D01*
X00780149Y-00001599D02*
X00919849D01*
X00330149Y-00000599D02*
X00469849D01*
X00001599Y-00745849D02*
Y-00606149D01*
X00555149Y-00347399D02*
X00694849D01*
X00798399Y-00193849D02*
Y-00054149D01*
X01246399Y-00745849D02*
Y-00606149D01*
X00900599Y-00193849D02*
Y-00054149D01*
X00798399Y-00745849D02*
Y-00606149D01*
X00902599Y-00745849D02*
Y-00606149D01*
X01247399Y-00193849D02*
Y-00054149D01*
X00450599Y-00745849D02*
Y-00606149D01*
X00451599Y-00193849D02*
Y-00054149D01*
G54D124*
X00678268Y-00125023D02*
Y-00121975D01*
X0067395D02*
X00678268D01*
X0067395Y-00125023D02*
Y-00121975D01*
Y-00125023D02*
X00678268D01*
Y-00131523D02*
Y-00128475D01*
X0067395D02*
X00678268D01*
X0067395Y-00131523D02*
Y-00128475D01*
Y-00131523D02*
X00678268D01*
Y-00138023D02*
Y-00134975D01*
X0067395D02*
X00678268D01*
X0067395Y-00138023D02*
Y-00134975D01*
Y-00138023D02*
X00678268D01*
X0069173D02*
Y-00134975D01*
Y-00138023D02*
X00696048D01*
Y-00134975*
X0069173D02*
X00696048D01*
X0069173Y-00131523D02*
Y-00128475D01*
Y-00131523D02*
X00696048D01*
Y-00128475*
X0069173D02*
X00696048D01*
X0069173Y-00125023D02*
Y-00121975D01*
Y-00125023D02*
X00696048D01*
Y-00121975*
X0069173D02*
X00696048D01*
X00678268Y-00141048D02*
X0069173D01*
Y-0011895*
X00678268D02*
X0069173D01*
X00678268Y-00141048D02*
Y-0011895D01*
X00194243Y-00210654D02*
Y-00206844D01*
Y-00210654D02*
X00204022D01*
Y-00206844*
X00194243D02*
X00204022D01*
X00194243Y-00204154D02*
Y-00200344D01*
Y-00204154D02*
X00204022D01*
Y-00200344*
X00194243D02*
X00204022D01*
X00194243Y-00197654D02*
Y-00193844D01*
Y-00197654D02*
X00204022D01*
Y-00193844*
X00194243D02*
X00204022D01*
X00194243Y-00191154D02*
Y-00187344D01*
Y-00191154D02*
X00204022D01*
Y-00187344*
X00194243D02*
X00204022D01*
X00163255Y-00191154D02*
Y-00187344D01*
X00153476D02*
X00163255D01*
X00153476Y-00191154D02*
Y-00187344D01*
Y-00191154D02*
X00163255D01*
Y-00197654D02*
Y-00193844D01*
X00153476D02*
X00163255D01*
X00153476Y-00197654D02*
Y-00193844D01*
Y-00197654D02*
X00163255D01*
Y-00204154D02*
Y-00200344D01*
X00153476D02*
X00163255D01*
X00153476Y-00204154D02*
Y-00200344D01*
Y-00204154D02*
X00163255D01*
Y-00210654D02*
Y-00206844D01*
X00153476D02*
X00163255D01*
X00153476Y-00210654D02*
Y-00206844D01*
Y-00210654D02*
X00163255D01*
Y-00183505D02*
X00194243D01*
X00163255Y-00214493D02*
Y-00183505D01*
Y-00214493D02*
X00194243D01*
Y-00183505*
X0060695Y-00592268D02*
X00629048D01*
Y-0060573D02*
Y-00592268D01*
X0060695Y-0060573D02*
X00629048D01*
X0060695D02*
Y-00592268D01*
X00626023Y-00610048D02*
Y-0060573D01*
X00622975Y-00610048D02*
X00626023D01*
X00622975D02*
Y-0060573D01*
X00626023*
X00619523Y-00610048D02*
Y-0060573D01*
X00616475Y-00610048D02*
X00619523D01*
X00616475D02*
Y-0060573D01*
X00619523*
X00613023Y-00610048D02*
Y-0060573D01*
X00609975Y-00610048D02*
X00613023D01*
X00609975D02*
Y-0060573D01*
X00613023*
X00609975Y-00592268D02*
Y-0058795D01*
X00613023*
Y-00592268D02*
Y-0058795D01*
X00609975Y-00592268D02*
X00613023D01*
X00616475D02*
Y-0058795D01*
X00619523*
Y-00592268D02*
Y-0058795D01*
X00616475Y-00592268D02*
X00619523D01*
X00622975D02*
Y-0058795D01*
X00626023*
Y-00592268D02*
Y-0058795D01*
X00622975Y-00592268D02*
X00626023D01*
X0063072Y-00673824D02*
X00647738D01*
X0063072D02*
Y-00664934D01*
X00647738*
Y-00673824D02*
Y-00664934D01*
X0063072Y-00671284D02*
X0063326Y-00673824D01*
X00608268Y-00136048D02*
X0062173D01*
X00608268D02*
Y-0011395D01*
X0062173*
Y-00136048D02*
Y-0011395D01*
X0060395Y-00127031D02*
X00608268D01*
X0060395D02*
Y-00122967D01*
X00608268*
Y-00127031D02*
Y-00122967D01*
X0062173Y-00116467D02*
X00626048D01*
Y-00120531D02*
Y-00116467D01*
X0062173Y-00120531D02*
X00626048D01*
X0062173D02*
Y-00116467D01*
Y-00129467D02*
X00626048D01*
Y-00133531D02*
Y-00129467D01*
X0062173Y-00133531D02*
X00626048D01*
X0062173D02*
Y-00129467D01*
M02*