/* XPM */
static char *BFP540ESD[] = {
/* columns rows colors chars-per-pixel */
"48 48 2 1 ",
"  c #0EDA0EDA0ECF",
". c #BDB0BDB0BCB1",
/* pixels */
"..     ..................................     ..",
"..  .   .................................   . ..",
"..  ..  .................................  .....",
"..     ..................................     ..",
"..     ..................................     ..",
"..  ..  .................................  .....",
"..  ..  .......................  ........  .....",
"..  ..  ......................   ........  .. ..",
"..     ..............  ......   .........     ..",
".....................  .....   .................",
".....................  ....   ..................",
"..     ..............  ...   .............    ..",
"..  . ...............  ..   .............  .   .",
"..  .................  .   ..............  .....",
"..     ..............     ................  ....",
"..    ...............    .................    ..",
"..  ........            .....................  .",
"..  ........           ......................  .",
"..  ........            .................  ..  .",
"..  .................    .................    ..",
".....................     ......................",
".....................  .   .....................",
"..     ..............  ..   .............     ..",
"..  ..  .............  ...   ............      .",
"..  ..  .............  ....   .. ........  ... .",
"..  ..  .............  .....   . ........  ...  ",
"..     ..............  ......    ........  ...  ",
"..     .......................   ........  ...  ",
"..  ........................     ........  ...  ",
"..  .....................................  ..  .",
"..  .....................................     ..",
"................................................",
"................................................",
"................................................",
"....      .......   .....    ...................",
"....      .......   ....      ..................",
"....  ..........    ....  ..  ..................",
"....  ..........    ...  ....  .................",
"....     ......  .  ...  ....  .................",
"....      ....   .  ...  ....  .................",
".... ....  ...  ..  ...  ....  .................",
".........  ..  ...  ...  ....  .................",
".........  ..        ..  ....  .................",
".........  .          .  ....  .................",
"........  ........  ....  ..  ..................",
"....      ........  ....      ..................",
"....    ..........  .....    ...................",
"................................................"
};
