/* XPM */
static char *BFP840ESD_SPARA[] = {
/* columns rows colors chars-per-pixel */
"48 48 2 1 ",
"  c #0F970F970F8B",
". c #BD4CBD4CBC4E",
/* pixels */
"..     ..................................     ..",
"..  .   .................................   . ..",
"..  ..  .................................  .....",
"..     ..................................     ..",
"..     ..................................     ..",
"..  ..  .................................  .....",
"..  ..  .......................  ........  .....",
"..  ..  ......................   ........  .. ..",
"..     ..............  ......   .........     ..",
".....................  .....   .................",
".....................  ....   ..................",
"..     ..............  ...   .............    ..",
"..  . ...............  ..   ...    ......  .   .",
"..  .................  .   ...   .  .....  .....",
"..     ..............     ....  ..........  ....",
"..    ...............    .....   .........    ..",
"..  ........            .......    ..........  .",
"..  ........           ...........  .........  .",
"..  ........            ..........  .....  ..  .",
"..  .................    .....  .  .......    ..",
".....................     .....    .............",
".....................  .   .....................",
"..     ..............  ..   .............     ..",
"..  ..  .............  ...   ............      .",
"..  ..  .............  ....   .. ........  ... .",
"..  ..  .............  .....   . ........  ...  ",
"..     ..............  ......    ........  ...  ",
"..     .......................   ........  ...  ",
"..  ........................     ........  ...  ",
"..  .....................................  ..  .",
"..  .....................................     ..",
"................................................",
"................................................",
"................................................",
".....    .......   .....    ....................",
"....       .....   ....      ...................",
"...  ....  ....    ....  ..  ...................",
"...  ....  ....    ...  ....  ..................",
"...  ....  ...  .  ...  ....  ..................",
"....      ...   .  ...  ....  ..................",
"....      ...  ..  ...  ....  ..................",
"...   ..   .  ...  ...  ....  ..................",
"...  ....            .  ....  ..................",
"...  ....  .        ..  ....  ..................",
"...  ....  ......  ....  ..  ...................",
"....      .......  ....      ...................",
".....    ........  .....    ....................",
"................................................"
};
