/* XPM */
static char * bip_1x_xpm[] = {
"48 48 3 1",
" 	c None",
".	c #BEBEBD",
"+	c #000000",
"................................................",
"................................................",
"................................................",
"................................................",
"................................................",
"................................................",
"...............................++...............",
"..............................+++...............",
".....................++......+++................",
".....................++.....+++.................",
".....................++....+++..................",
".....................++...+++...................",
".....................++..+++....................",
".....................++.+++.....................",
".....................+++++......................",
".....................++++.......................",
"............++++++++++++........................",
"............+++++++++++.........................",
"............++++++++++++........................",
".....................++++.......................",
".....................+++++......................",
".....................++.+++.....................",
".....................++..+++....................",
".....................++...+++...................",
".....................++....+++..+...............",
".....................++.....+++.+...............",
".....................++......++++...............",
"..............................+++...............",
"............................+++++...............",
"................................................",
"................................................",
"................................................",
"................................................",
"................................................",
"................................................",
"................................................",
"................................................",
"................................................",
"................................................",
"................................................",
"................................................",
"................................................",
"................................................",
"................................................",
"................................................",
"................................................",
"................................................",
"................................................"};
